<svg width="348" height="348" viewBox="0 0 348 348" fill="none" xmlns="http://www.w3.org/2000/svg">
<path d="M244.467 186.302L241.56 177.287C241.56 177.287 236.61 178.45 234.29 176.705L229.637 182.521C229.637 182.521 230.363 189.064 232.254 192.263C232.254 192.263 220.622 206.657 217.86 219.889C217.86 223.088 225.274 235.007 225.274 235.007C225.274 235.007 238.797 226.283 241.56 225.266C240.396 208.69 239.233 192.841 239.233 192.841C241.281 190.922 243.044 188.72 244.467 186.302ZM231.818 198.661C228.058 203.674 223.122 211.823 221.784 218C221.501 219.31 219.457 218.726 219.747 217.418C222.078 209.098 226.227 204.271 230.944 198.079C231.382 197.643 232.254 198.222 231.818 198.661Z" fill="#2D6EE8"/>
<path d="M231.38 127.124C231.707 127.186 232.046 127.133 232.338 126.974C232.631 126.815 232.859 126.56 232.986 126.252C233.992 124.914 233.272 122.57 231.823 123.053C230.508 123.489 229.625 126.73 231.38 127.124Z" fill="black"/>
<path d="M246.938 129.59C247.265 129.652 247.603 129.599 247.896 129.44C248.188 129.281 248.417 129.026 248.543 128.718C249.549 127.38 248.829 125.036 247.38 125.519C246.065 125.96 245.182 129.202 246.938 129.59Z" fill="black"/>
<path d="M235.744 116.077C234.573 115.662 231.964 115.641 231.528 117.095C231.456 117.273 231.446 117.47 231.499 117.654C231.551 117.838 231.664 118 231.818 118.113C232.436 118.494 233.116 117.894 233.854 117.967C234.593 118.041 235.163 118.84 235.889 118.985C236.045 119.031 236.209 119.039 236.368 119.009C236.527 118.979 236.677 118.911 236.805 118.812C236.932 118.712 237.035 118.584 237.103 118.437C237.172 118.29 237.204 118.129 237.198 117.967C237.15 117.55 236.99 117.153 236.734 116.82C236.477 116.487 236.135 116.23 235.744 116.077Z" fill="black"/>
<path d="M253.191 120.726C252.318 118.69 249.12 117.382 247.665 119.562C247.086 120.432 248.479 121.367 249.12 120.726C249.556 120.29 250.283 120.581 250.725 121.017C251.166 121.453 251.161 122.325 251.597 122.756C252.705 123.876 253.921 122.916 253.191 120.726Z" fill="black"/>
<path d="M238.652 124.361C238.686 124.209 238.659 124.049 238.577 123.916C238.494 123.783 238.364 123.688 238.212 123.65C238.061 123.612 237.9 123.635 237.765 123.714C237.63 123.792 237.531 123.92 237.489 124.071C236.75 125.956 235.599 130.905 235.453 131.485C235.307 132.066 235.163 132.794 235.744 133.231C237.124 133.577 238.538 133.771 239.96 133.812C240.172 133.83 240.381 133.763 240.543 133.627C240.705 133.491 240.807 133.296 240.826 133.085C240.846 132.874 240.781 132.664 240.646 132.501C240.511 132.338 240.317 132.234 240.106 132.213C239.527 132.058 236.907 131.777 236.907 131.777C237.198 131.777 238.362 125.816 238.652 124.361Z" fill="black"/>
<path d="M244.759 138.902C240.219 139.81 237.497 140.629 232.836 139.774C232.684 139.744 232.528 139.773 232.397 139.856C232.267 139.938 232.174 140.067 232.136 140.217C232.099 140.367 232.12 140.525 232.196 140.659C232.272 140.793 232.397 140.893 232.544 140.938C233.868 141.366 235.232 141.659 236.615 141.81C237.081 145.061 240.586 149.183 243.741 147.916C244.734 147.537 245.559 146.815 246.067 145.881C246.874 144.352 247.321 142.659 247.376 140.931C247.412 140.601 247.362 140.267 247.232 139.961C247.103 139.656 246.897 139.388 246.634 139.185C246.372 138.981 246.062 138.849 245.733 138.799C245.405 138.749 245.07 138.785 244.759 138.902ZM244.323 145.299C242.957 147.006 240.82 145.664 239.67 143.845C239.262 143.152 238.921 142.422 238.651 141.664C241 141.499 243.333 141.158 245.631 140.646C245.444 142.257 245.003 143.827 244.323 145.299Z" fill="black"/>
<path d="M160.28 127.415C160.851 126.67 161.293 125.835 161.589 124.944C162.025 124.072 162.315 123.205 162.753 122.326C164.982 116.974 166.42 111.917 165.37 106.187C165.21 105.317 163.915 105.751 164.061 106.623C165.415 114.745 160.469 122.632 159.118 126.691C158.972 127.27 159.835 127.985 160.28 127.415Z" fill="black"/>
<path d="M131.343 107.349C134.19 109.109 135.596 113.075 137.451 117.383C140.284 123.968 140.969 126.481 143.558 129.452C144.75 130.821 147.564 133.218 149.228 132.505C149.387 132.395 149.503 132.234 149.556 132.048C149.609 131.863 149.596 131.664 149.52 131.487C149.389 131.289 149.218 131.122 149.017 130.996C148.816 130.871 148.591 130.79 148.356 130.761C147.085 130.172 145.947 129.331 145.011 128.288C142.833 126.003 141.887 122.791 138.905 116.365C137.299 112.909 135.873 108.235 132.071 106.188C131.199 105.895 130.622 106.904 131.343 107.349Z" fill="black"/>
<path d="M142.249 113.457C142.339 113.61 142.481 113.724 142.65 113.779C142.819 113.833 143.002 113.823 143.164 113.751C143.326 113.679 143.456 113.55 143.529 113.388C143.602 113.227 143.612 113.044 143.559 112.875C143.19 111.528 142.602 110.25 141.819 109.094C139.723 105.446 136.781 102.354 133.241 100.079C133.086 99.9966 132.906 99.9721 132.735 100.01C132.563 100.048 132.411 100.147 132.306 100.287C132.2 100.428 132.149 100.602 132.16 100.777C132.172 100.952 132.246 101.118 132.369 101.243C139.858 107.24 140.48 110.568 142.249 113.457Z" fill="black"/>
<path d="M143.85 102.405C147.32 108.513 147.004 109.844 147.775 111.127C147.872 111.288 148.019 111.414 148.193 111.484C148.368 111.554 148.561 111.566 148.743 111.516C148.925 111.467 149.085 111.36 149.2 111.211C149.315 111.062 149.379 110.879 149.38 110.691C149.294 109.828 149.047 108.99 148.653 108.218C148.362 107.492 148.088 106.757 147.78 106.038C145.813 101.408 142.89 97.2456 139.202 93.8242C139.086 93.7085 138.929 93.6436 138.766 93.6436C138.602 93.6436 138.445 93.7085 138.33 93.8242C138.214 93.9399 138.149 94.0968 138.149 94.2604C138.149 94.4239 138.214 94.5808 138.33 94.6965C140.377 97.1108 142.224 99.6891 143.85 102.405Z" fill="black"/>
<path d="M153.01 109.676C153.301 110.258 154.311 110.401 154.465 109.676C154.651 108.313 154.552 106.927 154.173 105.605C153.594 101.625 152.57 97.7238 151.12 93.9731C151.062 93.7996 150.938 93.6562 150.774 93.5744C150.611 93.4926 150.421 93.4791 150.248 93.537C150.074 93.5948 149.931 93.7192 149.849 93.8828C149.767 94.0464 149.754 94.2358 149.812 94.4093C152.224 100.268 152.514 107.693 153.01 109.676Z" fill="black"/>
<path d="M341.013 126.112C340.336 121.873 336.598 119.021 333.888 118.988C321.321 118.854 315.775 118.842 271.221 118.842C271.103 116.435 270.296 114.113 268.895 112.152C266.894 109.545 263.989 107.782 260.753 107.209C259.41 103.761 257.652 100.49 255.518 97.4667C249.151 87.7003 239.463 85.0714 231.963 88.4522C223.167 92.4149 221.738 103.206 226.879 108.808C230.568 112.831 236.476 113.892 241.709 113.892C245.265 113.891 248.816 113.599 252.324 113.019C253.892 117.667 257.028 121.625 261.194 124.215C260.541 127.914 258.224 134.757 260.612 136.429C262.066 137.446 266.171 131.307 269.041 134.247C272.131 137.411 266.424 141.517 264.533 141.663C263.953 142.099 259.736 158.675 259.59 162.019C256.537 163.037 242.867 166.969 239.089 167.836C237.926 166.964 234.005 162.886 233.127 162.019C233.273 161.292 233.273 155.329 233.273 154.168C234.872 154.313 236.473 154.295 237.926 154.459C239.09 154.592 239.379 152.568 238.216 152.278C235.017 151.696 231.646 152.358 228.474 151.26C225.092 150.088 224.112 148.335 224.112 146.025C224.112 139.347 226.704 125.316 230.51 115.49C230.792 114.761 229.499 114.185 229.202 114.91C226.458 121.4 224.458 128.18 223.24 135.12C222.601 138.626 222.212 142.173 222.076 145.734C221.965 151.117 226.312 153.39 231.673 153.877C231.528 155.04 231.237 161.002 231.237 161.728C231.237 163.183 236.908 168.418 237.49 168.853C233.419 174.088 229.928 179.758 226.293 185.429C225.421 179.467 224.488 173.488 223.24 167.69C222.839 165.793 222.512 163.765 221.932 161.874C221.786 161.147 220.477 161.292 220.623 162.019C221.496 168.708 222.844 175.245 223.822 181.794C224.125 183.827 224.38 185.869 224.694 187.901C224.704 188.102 224.778 188.295 224.905 188.45C225.033 188.606 225.207 188.716 225.402 188.765C225.597 188.814 225.803 188.799 225.989 188.722C226.174 188.645 226.33 188.51 226.434 188.337C230.281 182.419 233.849 176.268 238.207 170.743C238.207 171.938 244.191 187.849 246.059 191.39C246.129 191.515 246.228 191.622 246.348 191.7C246.468 191.779 246.605 191.827 246.748 191.842C246.891 191.856 247.035 191.836 247.168 191.782C247.301 191.729 247.419 191.645 247.513 191.536C258.805 180.515 257.332 180.135 268.887 167.69C286.044 171.59 306.971 176.07 318.178 194.735C322.139 201.632 324.708 209.239 325.738 217.126C326.355 221.999 326.404 226.927 325.884 231.811C325.58 235.29 324.669 239.437 324.576 240.099C318.322 240.099 285.608 240.39 275.429 240.536C276.633 235.009 279.059 212.708 288.516 194.735C288.952 194.007 287.788 193.281 287.352 194.007C282.347 203.493 278.47 213.6 275.579 228.904C274.754 232.736 274.218 236.624 273.973 240.536C250.854 240.681 227.299 240.827 204.035 240.536C205.253 230.801 209.009 196.374 209.851 189.354C209.997 188.628 208.536 188.336 208.397 189.21C207.326 195.891 205.198 212.91 204.907 214.8C191.147 214.8 180.481 213.351 169.284 204.912C159.947 197.775 153.413 187.587 150.821 176.124C149.25 168.423 148.567 160.568 148.785 152.711C161.539 147.341 156.324 149.432 165.652 146.168C166.295 153.894 170.089 159.814 176.121 164.489C184.427 170.924 192.826 172.541 202.878 170.886C208.562 169.691 214.114 167.938 219.453 165.651C220.334 165.235 219.738 163.739 218.726 164.046C206.752 167.75 194.564 174.565 178.304 163.755C175.199 161.76 172.563 159.115 170.58 156.002C168.597 152.889 167.314 149.383 166.818 145.725C167.545 145.579 168.129 145.306 168.853 145.143C168.981 145.101 169.097 145.031 169.192 144.936C169.287 144.841 169.359 144.726 169.401 144.599C169.444 144.471 169.456 144.336 169.436 144.203C169.417 144.071 169.366 143.944 169.289 143.835C168.855 139.916 167.402 131.562 166.673 127.696C166.508 126.826 166.091 126.242 165.509 126.387C158.28 129.129 151.195 132.235 144.281 135.692C143.844 135.838 143.99 136.856 143.99 136.856C143.815 140.177 143.744 150.215 143.99 153.431C144.101 154.888 146.607 153.431 147.043 153.287C146.776 166.331 148.055 180.008 154.604 191.235C158.046 197.003 162.476 202.12 167.691 206.353C167.691 220.243 167.082 218.619 167.691 234.124V234.27C168.271 237.905 170.307 241.686 173.797 242.122C176.939 242.122 191.98 242.849 236.173 242.849C259.586 242.849 323.559 242.194 332.284 242.122C334.306 242.128 336.264 241.414 337.808 240.109C339.353 238.803 340.382 236.991 340.713 234.997C340.722 229.906 341.846 196.108 341.013 126.112ZM166.678 136.867C167.091 139.342 167.404 141.81 167.84 144.281C160.307 146.616 152.967 149.531 145.886 153.003C145.584 147.725 145.449 142.677 145.449 137.445C152.138 134.392 158.827 131.483 165.66 128.866C165.78 131.557 166.121 134.232 166.678 136.867ZM170.023 234.575C169.602 224.103 170.023 211.421 170.023 208.404C176.518 212.883 183.999 215.726 191.83 216.691C196.066 217.325 200.365 217.423 204.625 216.982C204.451 218.374 202.153 237.822 202.153 241.119L174.091 240.683C171.912 240.247 170.313 237.338 170.023 234.575ZM249.846 96.3001C249.992 96.0085 250.428 96.0085 250.72 96.1543C251.549 96.5475 252.216 97.2154 252.609 98.0447C252.901 98.7711 252.319 99.6501 251.592 99.2073C251.01 98.917 250.864 98.335 250.574 97.8989C250.138 97.4627 249.41 96.8807 249.846 96.3001ZM245.631 91.0597C247.827 91.9387 247.745 93.8224 246.647 93.8224C244.32 93.5896 243.035 91.3059 238.219 91.7861C235.277 91.6798 232.409 92.723 230.223 94.6947C230.107 94.8105 229.95 94.8757 229.786 94.8758C229.622 94.8759 229.465 94.811 229.35 94.6953C229.234 94.5797 229.169 94.4227 229.168 94.259C229.168 94.0953 229.233 93.9382 229.349 93.8224C232.835 89.3392 240.543 88.6234 245.631 91.0597ZM338.832 235.588C338.515 237.043 337.705 238.344 336.539 239.27C335.373 240.197 333.923 240.692 332.434 240.672H326.764C327.168 238.948 327.46 237.199 327.637 235.437C328.232 230.761 328.427 226.042 328.219 221.333C327.687 212.662 325.36 204.195 321.385 196.47C311.517 177.776 291.904 170.439 271.081 166.808C270.35 166.675 268.318 165.644 267.592 166.517C264.683 170.007 261.494 173.359 258.576 176.841C252.974 183.53 253.091 183.779 247.09 189.781C245.95 187.411 244.931 184.984 244.036 182.511C242.793 178.998 241.226 175.4 240.257 171.752C240.103 171.172 239.819 170.589 239.675 169.861C239.819 169.861 250.004 167.266 254.069 165.936C259.472 164.167 261.484 164.121 261.484 163.028C261.955 157.861 262.926 152.751 264.384 147.772C264.801 146.312 265.11 144.863 265.546 143.409C269.035 142.827 272.317 139.618 271.798 135.993C271.659 135.097 271.292 134.252 270.732 133.539C270.172 132.826 269.437 132.269 268.599 131.922C268.489 131.907 268.387 131.856 268.309 131.778C268.745 130.905 269.035 129.887 269.471 129.015C270.543 126.422 271.181 123.672 271.362 120.873C279.068 120.873 320.508 120.727 333.739 121.017C334.99 121.275 336.139 121.894 337.042 122.798C337.946 123.701 338.565 124.85 338.822 126.101C339.268 163.037 339.268 198.807 338.832 235.593V235.588Z" fill="black"/>
<path d="M182.38 121.017H220.768C221.044 120.997 221.303 120.874 221.491 120.672C221.68 120.469 221.785 120.203 221.785 119.926C221.785 119.65 221.68 119.383 221.491 119.181C221.303 118.979 221.044 118.855 220.768 118.836H182.38C182.245 118.833 182.111 118.857 181.987 118.907C181.862 118.957 181.748 119.032 181.653 119.127C181.558 119.223 181.483 119.336 181.434 119.461C181.384 119.586 181.36 119.72 181.363 119.854C181.351 120.141 181.45 120.422 181.64 120.638C181.829 120.854 182.094 120.99 182.38 121.017Z" fill="black"/>
<path d="M334.18 90.7744C330.91 73.2563 308.14 67.7911 290.415 70.4174C281.061 71.8034 271.929 76.304 268.024 84.8128C266.929 87.3912 266.336 90.1546 266.278 92.9551C266.278 103.95 275.255 111.877 285.907 113.893C286.571 114.071 287.255 114.168 287.943 114.183C287.895 115.557 287.7 116.922 287.361 118.254C286.583 121.279 285.087 124.072 283 126.396C282.402 127.111 283 128.449 284.018 128.142C290.917 125.937 296.732 121.213 300.302 114.911C306.911 115.4 315.721 114.82 321.822 112.293C330.996 108.493 335.827 99.6056 334.18 90.7744ZM289.106 94.99C287.366 98.3346 281.812 97.3152 282.127 93.3845C282.395 90.0399 285.907 88.005 288.525 90.6218C289.046 91.2094 289.379 91.939 289.483 92.7172C289.586 93.4954 289.455 94.2868 289.106 94.99ZM300.447 97.0262C299.681 96.9396 298.958 96.6323 298.364 96.1418C297.77 95.6513 297.332 94.9987 297.102 94.2635C295.556 89.3027 303.719 87.8779 304.518 92.5243C304.608 93.0991 304.568 93.6868 304.402 94.2443C304.236 94.8018 303.947 95.3151 303.557 95.7466C303.166 96.1782 302.685 96.517 302.146 96.7384C301.608 96.9598 301.028 97.0581 300.447 97.0262ZM313.825 90.0466C314.53 89.6174 315.356 89.4293 316.177 89.5105C316.999 89.5917 317.771 89.9378 318.379 90.4967C318.986 91.0555 319.395 91.7967 319.544 92.6085C319.693 93.4202 319.574 94.2585 319.205 94.9967C318.845 95.6764 318.291 96.2332 317.613 96.5959C316.934 96.9587 316.163 97.1107 315.398 97.0327C314.633 96.9547 313.909 96.6501 313.318 96.158C312.727 95.6659 312.296 95.0085 312.081 94.2702C311.813 93.4744 311.841 92.6083 312.162 91.832C312.482 91.0557 313.073 90.4215 313.824 90.0466H313.825Z" fill="#2D6EE8"/>
<path d="M84.6639 114.567C84.3803 114.85 85.9244 116.186 86.1425 116.34C86.659 116.708 87.267 116.927 87.8997 116.972C88.5323 117.017 89.1652 116.887 89.7288 116.596C90.2924 116.305 90.7649 115.865 91.0945 115.323C91.424 114.781 91.5978 114.158 91.5968 113.524C91.5656 112.705 91.2626 111.92 90.7355 111.292C90.2085 110.664 89.4875 110.23 88.6863 110.058C88.9791 108.862 88.8267 107.6 88.2577 106.508C87.6887 105.416 86.7418 104.568 85.5938 104.123C84.4457 103.677 83.1748 103.665 82.0182 104.087C80.8616 104.51 79.8983 105.339 79.3079 106.42C77.7598 105.113 75.8048 104.386 73.779 104.365C71.7532 104.343 69.7831 105.028 68.2075 106.301C66.6318 107.575 65.5491 109.357 65.1454 111.343C64.7417 113.328 65.0423 115.392 65.9954 117.18C64.6407 116.635 63.1438 116.552 61.7374 116.946C60.3311 117.339 59.0941 118.186 58.2188 119.355C57.3435 120.524 56.8788 121.949 56.8971 123.409C56.9154 124.869 57.4156 126.283 58.32 127.429C57.1969 127.295 56.0582 127.408 54.9834 127.761C53.9087 128.113 52.9239 128.696 52.098 129.469C51.0023 130.398 50.1319 131.564 49.5526 132.879C48.9733 134.193 48.7001 135.623 48.7538 137.058C48.8912 140.503 52.0249 144.604 55.4447 144.401C59.2898 143.649 63.0825 142.651 66.7996 141.413C67.9055 141.128 68.9096 140.539 69.6988 139.713C72.3031 136.499 72.9838 129.722 72.9762 125.973C72.9762 124.29 72.6573 122.625 72.6258 120.964C73.4305 120.957 74.223 120.767 74.9436 120.409C75.6642 120.051 76.2941 119.534 76.7856 118.897C77.635 117.747 78.0446 116.331 77.9402 114.906C78.9066 115.686 80.1265 116.082 81.3668 116.02C82.6071 115.957 83.7809 115.44 84.6639 114.567Z" fill="#2D6EE8"/>
<path d="M91.3059 135.501C89.8527 133.362 88.0357 131.494 85.9373 129.983C86.0974 130.099 84.0465 131.874 83.8385 132.009C83.1982 132.441 82.0473 132.649 81.5822 133.258C81.2436 134.012 81.0922 134.836 81.141 135.661C81.004 136.899 80.9049 138.143 80.8435 139.393C84.1287 139.238 87.3953 138.81 90.6101 138.116C91.7988 137.97 92.3534 137.005 91.3059 135.501Z" fill="#2D6EE8"/>
<path d="M125.16 59.063C124.987 58.3066 123.946 58.5487 123.887 59.2382C123.563 62.9744 124.361 66.9955 124.895 70.6939C125.458 74.6439 126.23 78.5612 127.207 82.4295C127.386 83.1291 128.403 82.8278 128.285 82.132C125.305 64.6093 126.336 64.1959 125.16 59.063Z" fill="#2D6EE8"/>
<path d="M138.667 80.4987C145.455 73.0061 149.913 69.1614 152.134 66.3807C152.528 65.8891 152.02 64.9878 151.396 65.4252C146.906 68.5766 141.144 75.5095 137.814 79.8369C137.437 80.331 138.255 80.9537 138.667 80.4987Z" fill="#2D6EE8"/>
<path d="M147.839 81.2648C152.012 79.4584 156.662 77.9256 160.414 75.3176C160.957 74.9394 160.646 73.9587 159.935 74.1831C155.576 75.5911 151.506 78.3227 147.541 80.5665C147.179 80.777 147.424 81.4438 147.839 81.2648Z" fill="#2D6EE8"/>
<path d="M112.566 76.5535C110.544 73.746 108.314 71.0951 105.893 68.6235C105.78 68.5222 105.634 68.4638 105.482 68.4585C105.33 68.4533 105.182 68.5015 105.062 68.5948C104.942 68.6881 104.858 68.8206 104.826 68.9691C104.793 69.1176 104.814 69.2728 104.884 69.4076C106.719 72.144 108.759 74.7365 110.988 77.1624C113.186 79.8297 115.451 82.4112 117.714 85.0394C118.134 85.526 119.016 84.8604 118.617 84.3398C116.616 81.7343 114.633 79.1162 112.566 76.5535Z" fill="#2D6EE8"/>
<path d="M108.961 89.2822C105.291 86.9982 101.207 85.4624 96.9414 84.7632C96.3792 84.6888 96.3439 85.5334 96.8154 85.7035C100.765 86.9681 104.614 88.5271 108.33 90.3675C108.473 90.4333 108.635 90.4436 108.785 90.3964C108.934 90.3491 109.061 90.2476 109.14 90.1119C109.219 89.9761 109.244 89.8158 109.211 89.6624C109.178 89.5089 109.088 89.3733 108.961 89.2822Z" fill="#2D6EE8"/>
<path d="M40.4376 291.983C38.6187 291.605 37.3669 292.245 35.6627 290.903C33.1593 288.931 30.4088 282.323 28.7436 279.936C28.4663 279.539 27.7617 279.766 27.918 280.286C28.5394 282.363 32.0891 291.631 36.4392 293.494C37.5158 293.761 38.63 293.844 39.7342 293.739C40.4061 294.296 33.3534 296.407 32.045 296.346C30.3233 296.152 28.6144 295.857 26.9272 295.463C23.4103 292.613 20.2804 287.396 18.1299 283.423C18.7111 278.963 19.5556 278.068 18.7602 277.893C18.6766 277.875 18.5895 277.883 18.5104 277.915C18.4313 277.948 18.3637 278.003 18.3165 278.074C17.7341 278.939 16.5354 282.504 16.9803 283.172C17.6767 285.996 18.934 288.65 20.6775 290.978C22.0641 292.836 24.6393 297.339 31.416 298.065C34.7148 298.419 41.2885 296.213 41.9515 295.491C43.207 294.121 42.0297 292.311 40.4376 291.983Z" fill="#2D6EE8"/>
<path d="M52.2638 114.128C52.8708 111.596 53.893 109.182 55.2891 106.985C56.7939 104.877 58.4985 102.92 60.3791 101.14C60.4693 101.046 60.5229 100.923 60.5301 100.794C60.5373 100.664 60.4976 100.536 60.4183 100.433C60.3391 100.33 60.2254 100.259 60.0981 100.233C59.9708 100.206 59.8384 100.227 59.7249 100.29C55.0811 102.927 52.2877 108.816 51.2175 113.827C51.07 114.519 52.0999 114.81 52.2638 114.128Z" fill="#2D6EE8"/>
<path d="M50.7989 103.138C48.8107 105.249 47.6217 107.988 47.437 110.881C47.3614 111.549 48.3988 111.533 48.4871 110.881C48.9851 108.302 50.0371 105.86 51.5703 103.727C51.6275 103.624 51.6457 103.504 51.6216 103.388C51.5975 103.273 51.5327 103.17 51.4391 103.099C51.3455 103.027 51.2292 102.992 51.1117 102.999C50.9942 103.006 50.8831 103.056 50.7989 103.138Z" fill="#2D6EE8"/>
<path d="M125.266 94.7037C125.177 94.6206 125.065 94.5681 124.944 94.5542C124.824 94.5404 124.702 94.5657 124.597 94.6266C124.492 94.6875 124.409 94.7807 124.362 94.8922C124.314 95.0038 124.303 95.1278 124.332 95.2458C124.899 97.5021 126.505 99.4358 126.288 103.714C126.147 106.604 125.175 109.391 123.49 111.742C123.122 112.247 123.954 112.896 124.361 112.414C126.472 110.082 127.771 107.13 128.064 103.998C128.302 100.975 127.643 96.8365 125.266 94.7037Z" fill="#191919"/>
<path d="M123.279 102.052C123.3 102.176 123.365 102.288 123.461 102.369C123.557 102.45 123.678 102.495 123.804 102.495C123.929 102.495 124.051 102.45 124.147 102.369C124.243 102.288 124.307 102.176 124.328 102.052C124.483 98.698 123.869 94.2243 121.177 91.8243C121.095 91.7476 120.99 91.6994 120.879 91.687C120.767 91.6745 120.654 91.6983 120.557 91.7549C120.46 91.8115 120.384 91.8979 120.34 92.0013C120.296 92.1046 120.287 92.2193 120.313 92.3285C121.039 94.7525 122.817 96.7328 123.279 102.052Z" fill="#191919"/>
<path d="M120.346 101.133C120.422 101.833 121.497 101.881 121.49 101.133C121.454 97.7641 120.542 92.6577 117.365 90.7971C117.272 90.7454 117.166 90.7221 117.06 90.7299C116.954 90.7377 116.853 90.7763 116.769 90.841C116.684 90.9058 116.621 90.9937 116.586 91.0941C116.551 91.1945 116.546 91.3029 116.572 91.406C117.431 93.6964 119.739 95.5405 120.346 101.133Z" fill="#191919"/>
<path d="M116.155 97.0329C117.941 102.254 116.795 103.789 117.784 103.787C117.906 103.787 118.022 103.739 118.108 103.653C118.194 103.567 118.242 103.451 118.242 103.329C118.5 101.07 118.299 98.7825 117.651 96.603C117.175 94.4906 116.12 92.5526 114.604 91.0063C114.172 90.652 113.249 90.971 113.516 91.6365C114.27 93.516 115.49 95.0954 116.155 97.0329Z" fill="#191919"/>
<path d="M115.736 109.434C115.818 109.859 116.5 109.759 116.492 109.332C116.406 106.019 115.405 101.909 112.347 100.093C112.234 100.03 112.103 100.006 111.975 100.024C111.846 100.042 111.727 100.102 111.636 100.193C111.545 100.285 111.486 100.405 111.468 100.533C111.451 100.662 111.476 100.792 111.539 100.905C112.583 102.743 114.862 104.873 115.736 109.434Z" fill="#191919"/>
<path d="M122.929 113.456C122.333 114.921 121.966 116.468 121.841 118.045C120.732 123.155 118.823 128.057 116.185 132.572C112.741 138.749 101.843 148.355 101.843 148.355C101.843 148.355 99.5739 144.02 99.2336 135.657C106.53 131.598 112.248 125.201 115.464 117.496C116.453 115.478 117.092 113.306 117.355 111.074C117.39 110.325 116.185 109.933 115.871 110.672C114.792 113.213 112.972 123.692 102.216 131.614C96.1588 135.982 88.9573 138.485 81.4966 138.816C81.5912 138.001 81.4966 137.177 81.571 136.368C81.6454 135.558 81.8231 134.657 81.9555 133.8C88.5581 132.451 89.3787 120.817 84.5925 115.932C84.1211 115.449 83.4416 116.058 83.7101 116.615C85.2959 119.971 86.5463 123.123 85.8694 126.923C85.6878 128.834 84.7691 130.599 83.308 131.845C82.4162 132.398 81.3622 132.631 80.3203 132.503C79.2785 132.376 78.3113 131.897 77.5789 131.145C77.2625 130.849 76.6864 131.24 76.9486 131.628C77.3751 132.324 77.9724 132.9 78.6839 133.3C79.3954 133.701 80.1974 133.913 81.0138 133.916C80.3913 135.492 80.269 137.221 80.6634 138.869C79.2569 138.913 77.849 138.867 76.4482 138.733C75.7499 138.659 68.1829 139.257 64.7694 141.411C63.0197 141.198 57.9549 143.23 56.5419 143.932C52.2411 146.063 48.308 148.866 44.8907 152.237C44.1874 152.934 43.0252 153.819 43.0894 154.934C43.3142 155.918 43.9028 156.78 44.737 157.347C41.147 160.52 38.4431 165.47 39.241 170.241C40.1965 175.952 45.2739 180.907 50.2493 183.505C50.3737 183.574 50.5184 183.595 50.6572 183.566C50.7961 183.537 50.92 183.459 51.0065 183.347C51.0931 183.234 51.1366 183.095 51.1293 182.953C51.1219 182.811 51.0642 182.677 50.9665 182.574C47.3185 178.723 42.5033 176.154 41.1722 170.59C39.9457 165.468 43.155 162.049 45.7857 158.237C47.1035 159.616 48.5633 160.852 50.1409 161.924C50.2512 161.984 50.378 162.006 50.5022 161.988C50.6264 161.97 50.7414 161.912 50.8299 161.823C50.9185 161.734 50.9758 161.619 50.9934 161.494C51.011 161.37 50.9878 161.244 50.9274 161.133C50.2379 159.913 45.0118 154.983 45.1353 154.469C45.337 153.626 50.1169 149.772 51.2816 148.923C54.7562 146.395 58.5771 144.382 62.6264 142.945C59.4698 145.44 56.9618 148.659 55.3154 152.33C53.2783 156.921 52.8674 161.993 52.7111 166.961C51.8212 195.197 49.0114 193.046 46.8206 200.023C46.7815 200.117 44.3727 210.188 44.0222 211.653C38.8793 229.04 35.5767 240.294 27.2887 258.589C22.9902 268.076 20.812 271.643 18.8721 276.121C18.5683 276.82 19.8414 278.673 23.4718 279.713C24.5218 280.014 27.8055 279.713 28.7471 278.531C29.6887 277.348 34.2002 271.378 36.7742 267.855C39.9255 263.549 57.5049 236.641 61.9596 226.866C64.2286 221.891 67.2992 211.261 67.9056 210.898C68.1362 210.761 68.4312 211.024 68.5119 211.276C68.5926 211.528 67.3093 217.013 66.7345 219.49C66.3828 221.002 65.8849 224.387 66.3841 225.045C67.5125 226.376 68.7305 227.629 70.0296 228.794C67.32 229.781 64.7044 231.009 62.2143 232.463C59.2293 234.633 56.8318 238.892 54.97 242.017C54.3107 243.122 51.1959 249.202 50.6753 250.412C50.5974 250.548 50.5522 250.7 50.5433 250.857C50.5345 251.013 50.5623 251.17 50.6244 251.313C50.6866 251.457 50.7814 251.585 50.9014 251.686C51.0214 251.786 51.1632 251.858 51.3157 251.894C56.1208 251.633 61.0571 250.025 65.629 248.617C70.647 247.088 75.5456 245.192 80.2853 242.945C84.387 240.984 88.9426 238.652 91.7133 234.924C95.3159 230.072 84.2849 199.904 80.2084 199.181C79.8579 199.12 74.928 204.81 55.2612 201.812C52.9922 201.465 51.1858 199.989 49.0026 199.347C52.1539 194.893 52.8321 189.069 53.4624 183.833C55.3532 168.145 52.58 156.55 60.4482 147.513C64.4297 142.986 69.9936 140.156 75.9969 139.604C76.1293 139.604 82.234 142.94 98.1987 136.23C98.0499 138.877 98.2401 141.531 98.7647 144.129C99.0584 145.568 100.64 150.853 101.462 151.748C95.9411 156.351 92.4166 157.42 89.0611 159.299C88.9274 159.445 88.8313 159.62 88.7813 159.811C88.0161 164.463 81.2483 192.498 80.6672 195.395C80.6284 195.6 80.6682 195.811 80.7785 195.988C80.8889 196.165 81.0617 196.294 81.2627 196.349C81.4637 196.404 81.6781 196.382 81.8632 196.286C82.0484 196.19 82.1906 196.028 82.2618 195.832C83.3572 192.906 89.7998 162.98 89.6069 160.22C94.7007 159.337 99.4076 155.772 102.795 152.073C103.047 151.794 102.529 150.082 102.227 149.363C102.353 149.46 113.807 139.938 117.563 133.732C119.416 130.667 120.933 127.411 122.086 124.021C122.664 122.324 124.516 115.26 124.051 113.653C124.019 113.538 123.956 113.434 123.867 113.354C123.779 113.274 123.67 113.22 123.552 113.2C123.435 113.179 123.314 113.192 123.204 113.238C123.093 113.283 122.998 113.359 122.929 113.456Z" fill="#191919"/>
<path d="M82.7253 125.626C83.469 126.163 85.4808 127.024 85.7304 125.5C85.8401 124.83 84.3501 121.905 83.8699 121.182C83.648 120.851 83.0089 121.056 83.1703 121.473C83.5119 122.356 84.3212 124.897 84.3048 124.922C84.2884 124.948 83.5749 124.613 83.1968 124.496C82.4883 124.273 82.1883 125.239 82.7253 125.626Z" fill="#191919"/>
<path d="M80.0436 122.725C80.2257 122.157 80.2257 121.546 80.0436 120.977C80.0054 120.854 79.929 120.747 79.8255 120.671C79.722 120.594 79.5967 120.553 79.4681 120.553C79.3396 120.553 79.2143 120.594 79.1108 120.671C79.0073 120.747 78.9308 120.854 78.8927 120.977C78.7106 121.546 78.7106 122.157 78.8927 122.725C78.9518 122.825 79.0359 122.908 79.1368 122.966C79.2377 123.024 79.3519 123.054 79.4681 123.054C79.5844 123.054 79.6986 123.024 79.7995 122.966C79.9004 122.908 79.9845 122.825 80.0436 122.725Z" fill="#191919"/>
<path d="M77.9963 120.277C78.8409 118.778 79.9527 118.791 80.5501 118.192C80.6078 118.133 80.6492 118.06 80.6701 117.98C80.6911 117.9 80.691 117.816 80.6698 117.736C80.6486 117.656 80.607 117.582 80.5492 117.523C80.4913 117.464 80.4191 117.421 80.3396 117.398C78.861 117.094 77.6698 118.792 77.2135 119.952C77.0446 120.381 77.7732 120.675 77.9963 120.277Z" fill="#191919"/>
<path d="M77.5343 126.223C78.3612 129.273 81.418 130.69 82.8828 129.67C82.9764 129.61 83.0511 129.525 83.0981 129.424C83.1451 129.324 83.1624 129.212 83.1482 129.101C83.1339 128.991 83.0885 128.888 83.0174 128.802C82.9463 128.717 82.8524 128.654 82.7466 128.62C81.8233 128.566 80.9224 128.313 80.1058 127.879C79.3882 127.27 78.7298 126.594 78.1394 125.862C78.0914 125.781 78.0135 125.724 77.9229 125.701C77.8322 125.678 77.7362 125.692 77.656 125.74C77.5757 125.788 77.5178 125.866 77.495 125.957C77.4722 126.047 77.4864 126.143 77.5343 126.223Z" fill="#191919"/>
</svg>
