<svg width="120" height="120" viewBox="0 0 120 120" fill="none" xmlns="http://www.w3.org/2000/svg">
<path d="M90.402 48.1848C91.4598 48.4488 93.2022 49.1178 94.2132 49.32C94.0798 49.6899 93.9757 50.0696 93.9018 50.4558C92.6425 50.2653 91.4102 49.9257 90.231 49.4442C90.231 49.4442 90.3552 48.7758 90.402 48.1848Z" fill="#57c2b4"/>
<path d="M40.098 49.32C39.0402 49.569 37.3446 50.0358 36.3648 50.3154C36.3684 49.9097 36.3425 49.5042 36.2874 49.1022C37.4871 48.5688 38.7451 48.1774 40.0356 47.9358C40.0113 48.3981 40.0322 48.8617 40.098 49.32Z" fill="#57c2b4"/>
<path d="M36.1158 60.24C35.043 60.4266 33.4872 60.7068 32.4918 60.9246C32.4612 60.4815 32.4041 60.0407 32.3208 59.6046C33.563 59.2085 34.847 58.9581 36.147 58.8582C36.0825 59.3159 36.072 59.7797 36.1158 60.24Z" fill="#57c2b4"/>
<path d="M41.6226 68.7792C40.5336 68.8722 38.7606 69.0126 37.7334 69.1392C37.7434 68.6983 37.7234 68.2573 37.6734 67.8192C38.9435 67.5264 40.243 67.3803 41.5464 67.3836C41.5464 67.3836 41.6226 68.079 41.6226 68.7792Z" fill="#57c2b4"/>
<path d="M85.9692 55.4951C87.042 55.6349 88.8624 56.0861 89.889 56.1797C89.7989 56.5583 89.7363 56.9429 89.7018 57.3305C88.429 57.2862 87.1658 57.0931 85.938 56.7551C85.9741 56.3362 85.9845 55.9154 85.9692 55.4951Z" fill="#57c2b4"/>
<path d="M60.4128 42.3985C62.1702 42.2737 65.1876 42.3829 66.852 42.1807C66.8341 42.8708 66.8542 43.5615 66.912 44.2495C65.1384 44.1895 62.1522 44.5447 60.5346 44.4517C60.5372 43.7654 60.4965 43.0796 60.4128 42.3985Z" fill="#57c2b4"/>
<path d="M59.2614 53.8308C61.6722 53.6442 65.8104 53.7996 68.0658 53.5356C68.0438 54.4802 68.0748 55.4253 68.1588 56.3664C65.7324 56.2884 61.6566 56.7708 59.4324 56.631C59.4308 55.6951 59.3737 54.7601 59.2614 53.8308Z" fill="#57c2b4"/>
<path d="M61.3146 64.284C63.0726 64.1592 66.09 64.2678 67.7544 64.0662C67.7365 64.7561 67.7566 65.4466 67.8144 66.1344C66.0408 66.0744 63.0546 66.4302 61.437 66.3366C61.4476 65.6503 61.4067 64.9641 61.3146 64.284Z" fill="#57c2b4"/>
<path d="M84.927 63.0547C86.0154 63.1795 87.6954 63.5839 88.722 63.6619C88.6491 64.0681 88.6024 64.4785 88.5822 64.8907C87.3131 64.7788 86.0512 64.5969 84.8022 64.3459C84.8939 63.9218 84.9358 63.4885 84.927 63.0547Z" fill="#57c2b4"/>
<path d="M83.9934 70.6301C85.0824 70.7543 86.778 71.2055 87.8046 71.2679C87.7812 71.6978 87.7812 72.1286 87.8046 72.5585C86.4775 72.5008 85.1618 72.2867 83.8848 71.9207C83.9586 71.4945 83.995 71.0627 83.9934 70.6301Z" fill="#57c2b4"/>
<path d="M3.37323 62.5416C5.61303 61.0794 8.02443 59.7726 10.2642 58.311C10.1453 57.9175 10.0877 57.5081 10.0932 57.0972L3.37323 62.5416Z" fill="#57c2b4"/>
<path d="M3 62.5415C3 62.3393 5.6286 56.1953 6.42 53.1467C6.42 53.1467 7.4004 53.6267 7.9758 53.9399C7.7268 54.4379 6.3894 57.8069 6.4668 57.6107C7.4466 56.5997 8.4582 55.6043 9.4848 54.6395C9.777 54.6395 11.7048 55.1531 11.6448 55.1375C8.7864 57.4709 3 62.7437 3 62.5415Z" fill="#57c2b4"/>
<path d="M110.499 68.6399C108.888 70.2619 106.889 71.4461 104.693 72.0803C102.496 72.7146 100.174 72.778 97.9458 72.2645L103.281 79.1393C103.341 79.1357 112.423 80.7485 116.705 74.7221C116.705 74.7209 112.288 70.7999 110.499 68.6399ZM107.637 76.8527C107.404 76.6355 106.05 75.1265 105.597 74.6129C105.597 74.8055 109.026 73.9991 109.563 73.4621C109.091 74.6799 108.443 75.8219 107.64 76.8515L107.637 76.8527Z" fill="#57c2b4"/>
<path d="M100.124 15.2238C99.4938 14.0376 98.0394 11.6778 97.977 11.6154C97.9058 11.5423 97.8135 11.4934 97.713 11.4756C95.9394 11.46 94.011 12.1284 92.3928 12.7662C90.7246 13.3387 89.1712 14.2025 87.8046 15.3174C87.7805 15.3367 87.7607 15.3609 87.7466 15.3885C87.7326 15.416 87.7246 15.4462 87.7231 15.4771C87.7216 15.508 87.7267 15.5388 87.7381 15.5675C87.7495 15.5963 87.7668 15.6223 87.789 15.6438C89.529 17.7282 90.651 20.3106 91.7706 22.7838C91.8204 22.8836 91.9044 22.9621 92.0073 23.0049C92.1102 23.0478 92.2251 23.0522 92.331 23.0172C94.1976 22.3326 100.015 19.3614 101.446 18.9882C101.679 18.9414 100.675 16.26 100.124 15.2238ZM92.7822 13.2174C94.3653 12.6679 95.9947 12.2619 97.6506 12.0042C98.2428 13.2582 99.0864 14.3934 99.7506 15.7242C98.9706 15.8352 98.259 16.6104 97.464 17.295C96.8418 17.8242 95.955 18.8976 95.304 17.871C94.7442 16.9842 94.0134 16.5642 93.0798 17.3106C92.0843 18.1171 91.3887 19.2347 91.1046 20.484C90.3558 18.7009 89.338 17.0433 88.0866 15.5688C89.6027 14.6905 91.1708 13.9053 92.7822 13.2174Z" fill="#57c2b4"/>
<path d="M95.58 15.1153C95.7301 15.1526 95.8866 15.1568 96.0385 15.1276C96.1904 15.0984 96.3341 15.0365 96.4597 14.9462C96.5853 14.8559 96.6897 14.7393 96.7658 14.6046C96.8418 14.4699 96.8876 14.3203 96.9 14.1661C96.8834 13.9431 96.8362 13.7234 96.7596 13.5133C96.6636 13.3497 96.5288 13.2124 96.367 13.1135C96.2052 13.0146 96.0215 12.9573 95.8321 12.9465C95.6428 12.9356 95.4538 12.9718 95.2818 13.0516C95.1098 13.1314 94.9601 13.2525 94.8462 13.4041C94.7456 13.5584 94.6847 13.7351 94.6689 13.9186C94.653 14.1021 94.6827 14.2867 94.7553 14.456C94.8279 14.6253 94.9411 14.774 95.085 14.889C95.2289 15.004 95.3989 15.0818 95.58 15.1153Z" fill="#57c2b4"/>
<path d="M85.2846 43.1292C84.2962 42.6815 83.2641 42.3375 82.2048 42.1026C82.0488 42.087 81.9558 42.258 82.0956 42.3516C82.9766 42.8446 83.9108 43.2359 84.8802 43.518C85.8132 43.878 89.5932 45.276 90.5262 45.6336C91.5145 46.076 92.5401 46.4299 93.591 46.6914C93.6381 46.702 93.6874 46.6956 93.7303 46.6734C93.7732 46.6512 93.8069 46.6146 93.8255 46.5701C93.844 46.5255 93.8463 46.4758 93.8318 46.4297C93.8173 46.3836 93.7871 46.3441 93.7464 46.3182C93.0294 45.888 93.3294 46.0482 85.2846 43.1292Z" fill="#001A4A"/>
<path d="M93.5598 52.62C93.513 52.7136 93.5754 52.869 93.6996 52.8534C93.9838 52.7612 94.2441 52.6071 94.4616 52.4022C94.6482 52.2156 94.602 52.0759 94.4772 52.0423C92.673 51.5623 90.7752 50.7979 88.8774 50.7979C88.7376 50.7979 88.473 51.1866 88.4424 51.3264C88.4332 51.3608 88.4345 51.3972 88.446 51.4309C88.4574 51.4645 88.4786 51.4941 88.5069 51.5157C88.5351 51.5373 88.5692 51.5501 88.6047 51.5524C88.6402 51.5547 88.6756 51.5465 88.7064 51.5286C88.8399 51.4526 88.9482 51.3392 89.0178 51.2022C90.6042 51.6378 92.2062 51.933 93.7932 52.3686C93.6891 52.4235 93.6068 52.5122 93.5598 52.62Z" fill="#001A4A"/>
<path d="M85.7202 45.54C85.6222 45.9334 85.6168 46.3442 85.7046 46.74C85.7162 46.7616 85.7329 46.7802 85.7532 46.7941C85.7735 46.8079 85.7968 46.8167 85.8212 46.8197C85.8456 46.8227 85.8703 46.8198 85.8934 46.8113C85.9164 46.8027 85.9371 46.7888 85.9536 46.7706C86.0542 46.6161 86.118 46.4406 86.1402 46.2576C86.187 46.0398 86.2332 45.822 86.2644 45.6198C86.2731 45.5826 86.274 45.544 86.2671 45.5064C86.2601 45.4688 86.2454 45.4331 86.2239 45.4015C86.2024 45.3699 86.1746 45.3431 86.1422 45.3228C86.1098 45.3026 86.0735 45.2892 86.0357 45.2837C85.9979 45.2781 85.9594 45.2805 85.9225 45.2906C85.8857 45.3008 85.8513 45.3184 85.8217 45.3425C85.792 45.3666 85.7677 45.3966 85.7502 45.4306C85.7327 45.4646 85.7225 45.5018 85.7202 45.54Z" fill="#001A4A"/>
<path d="M85.1292 45.3846C85.0444 45.606 84.9819 45.8354 84.9426 46.0692C84.8611 46.2876 84.8404 46.524 84.8826 46.7532C84.9294 46.878 85.116 46.971 85.2246 46.8468C85.339 46.6603 85.3935 46.4431 85.3806 46.2246C85.4138 45.972 85.4241 45.717 85.4112 45.4626C85.3932 45.3222 85.1928 45.2298 85.1292 45.3846Z" fill="#001A4A"/>
<path d="M84.6936 45.6337C84.6919 45.6035 84.681 45.5746 84.6622 45.5509C84.6434 45.5272 84.6178 45.5099 84.5888 45.5013C84.5598 45.4928 84.5289 45.4934 84.5003 45.5032C84.4717 45.5129 84.4468 45.5312 84.429 45.5557C84.2994 45.8209 84.2104 46.104 84.165 46.3957C84.1182 46.6447 84.009 46.9561 84.165 47.1757C84.1809 47.2028 84.2035 47.2253 84.2308 47.241C84.2581 47.2566 84.289 47.2649 84.3204 47.2649C84.3518 47.2649 84.3827 47.2566 84.41 47.241C84.4372 47.2253 84.4599 47.2028 84.4758 47.1757C84.6156 46.9735 84.5538 46.6957 84.5688 46.4605C84.6246 46.1872 84.6662 45.9112 84.6936 45.6337Z" fill="#001A4A"/>
<path d="M83.5734 45.9287C83.445 46.3473 83.3769 46.7821 83.3712 47.2199C83.3556 47.5157 83.7756 47.5001 83.8224 47.2199C83.8536 47.0021 83.8692 46.7843 83.8824 46.5665C83.924 46.3658 83.9186 46.1582 83.8668 45.9599C83.8559 45.9314 83.8373 45.9065 83.8131 45.8878C83.7889 45.8692 83.76 45.8577 83.7297 45.8544C83.6993 45.8512 83.6686 45.8564 83.6411 45.8696C83.6135 45.8827 83.5901 45.9031 83.5734 45.9287Z" fill="#001A4A"/>
<path d="M82.8114 46.1933C82.7395 46.4363 82.6978 46.6872 82.6872 46.9403C82.6114 47.1641 82.6223 47.4082 82.7178 47.6243C82.7307 47.6445 82.7479 47.6616 82.7682 47.6744C82.7884 47.6872 82.8112 47.6953 82.835 47.6983C82.8588 47.7013 82.8829 47.699 82.9057 47.6916C82.9285 47.6842 82.9493 47.6719 82.9668 47.6555C83.1378 47.4845 83.1066 47.2199 83.1222 47.0021C83.156 46.7384 83.1508 46.4711 83.1066 46.2089C83.0989 46.1766 83.0809 46.1477 83.0553 46.1265C83.0298 46.1052 82.998 46.0928 82.9649 46.091C82.9317 46.0893 82.8988 46.0983 82.8712 46.1167C82.8435 46.1352 82.8226 46.162 82.8114 46.1933Z" fill="#001A4A"/>
<path d="M82.158 46.4269C82.0691 46.8568 82.0533 47.2986 82.1112 47.7337C82.1112 47.7853 82.1317 47.8347 82.1681 47.8712C82.2046 47.9076 82.254 47.9281 82.3056 47.9281C82.3572 47.9281 82.4066 47.9076 82.4431 47.8712C82.4795 47.8347 82.5 47.7853 82.5 47.7337C82.5389 47.2979 82.5234 46.8589 82.4538 46.4269C82.4431 46.3962 82.4231 46.3696 82.3966 46.3507C82.3701 46.3319 82.3384 46.3218 82.3059 46.3218C82.2734 46.3218 82.2417 46.3319 82.2152 46.3507C82.1887 46.3696 82.1687 46.3962 82.158 46.4269Z" fill="#001A4A"/>
<path d="M89.904 59.9748C89.9234 60.0093 89.9541 60.036 89.9911 60.0502C90.028 60.0645 90.0687 60.0654 90.1062 60.0528C90.2809 59.9734 90.4314 59.8492 90.5424 59.6928C90.7134 59.5062 90.4488 59.3196 90.3396 59.304C89.3286 59.1174 88.2996 59.0394 87.291 58.9152C86.5602 58.8216 85.131 58.5882 84.6 58.5552C84.5243 58.5616 84.4505 58.5819 84.3822 58.6152C84.2713 58.7111 84.1674 58.815 84.0714 58.926C83.9778 59.0664 84.165 59.2062 84.2736 59.1288C84.4079 59.0493 84.5331 58.9554 84.6468 58.8486C85.5798 59.082 86.5446 59.175 87.4932 59.3286C88.3176 59.4528 89.142 59.6238 89.9664 59.733C89.9324 59.762 89.9082 59.8007 89.897 59.844C89.8858 59.8873 89.8883 59.9329 89.904 59.9748Z" fill="#001A4A"/>
<path d="M82.827 66.8503C82.8524 66.8726 82.882 66.8896 82.9141 66.9002C82.9461 66.9108 82.9801 66.9147 83.0137 66.9118C83.0474 66.9089 83.0801 66.8992 83.1099 66.8832C83.1397 66.8673 83.1659 66.8455 83.187 66.8191C83.2445 66.7452 83.2964 66.6672 83.3424 66.5857C84.2838 66.8173 85.4052 66.8599 88.9266 67.2703C88.8793 67.2982 88.8436 67.3423 88.826 67.3944C88.8084 67.4465 88.8101 67.5032 88.8309 67.5541C88.8516 67.605 88.89 67.6468 88.9389 67.6718C88.9879 67.6968 89.0442 67.7034 89.0976 67.6903C89.409 67.5973 89.6892 67.3789 89.5776 67.0213C89.5609 66.9724 89.5295 66.9297 89.4878 66.8992C89.446 66.8686 89.3959 66.8515 89.3442 66.8503C84.7116 66.3661 83.1924 66.0577 82.9842 66.3367C82.8981 66.4957 82.8446 66.6703 82.827 66.8503Z" fill="#001A4A"/>
<path d="M51.8574 39.3185C51.8121 39.3185 51.7686 39.3365 51.7365 39.3686C51.7044 39.4007 51.6864 39.4442 51.6864 39.4895C51.6864 39.5349 51.7044 39.5784 51.7365 39.6104C51.7686 39.6425 51.8121 39.6605 51.8574 39.6605C52.6374 39.7235 68.9754 39.5219 74.5974 39.0383C74.9238 39.0071 74.9394 38.4941 74.5974 38.5091C49.1892 39.4427 53.34 39.1127 51.8574 39.3185Z" fill="#001A4A"/>
<path d="M56.088 60.8303C57.4278 60.8345 70.428 60.7409 71.4564 60.6437C71.5223 60.6405 71.5844 60.6121 71.6299 60.5644C71.6754 60.5166 71.7008 60.4532 71.7008 60.3872C71.7008 60.3212 71.6754 60.2578 71.6299 60.2101C71.5844 60.1623 71.5223 60.1339 71.4564 60.1307C70.6764 60.0827 56.9424 60.4571 56.088 60.4907C56.0465 60.4957 56.0082 60.5157 55.9804 60.547C55.9526 60.5783 55.9373 60.6187 55.9373 60.6605C55.9373 60.7024 55.9526 60.7428 55.9804 60.774C56.0082 60.8053 56.0465 60.8254 56.088 60.8303Z" fill="#001A4A"/>
<path d="M69.2478 47.8109C69.3157 47.8077 69.3798 47.7784 69.4267 47.7292C69.4736 47.68 69.4998 47.6146 69.4998 47.5466C69.4998 47.4786 69.4736 47.4133 69.4267 47.364C69.3798 47.3148 69.3157 47.2856 69.2478 47.2823C67.1946 47.2043 65.0946 47.3291 63.0414 47.4221C62.1546 47.4533 61.2372 47.4821 60.3348 47.5313C59.9561 47.1474 59.514 46.8315 59.028 46.5977C58.857 46.5203 58.7016 46.7687 58.8726 46.8623C59.2285 47.0441 59.5538 47.2804 59.8368 47.5625C58.9248 47.6181 58.0163 47.7218 57.1152 47.8733C56.9436 47.9045 56.9904 48.1691 57.1614 48.1847C58.2092 48.2189 59.258 48.1988 60.3036 48.1247C60.6888 48.7333 60.9725 49.4004 61.1436 50.0999C61.1549 50.1361 61.1788 50.1671 61.2109 50.1873C61.243 50.2075 61.2813 50.2155 61.3188 50.2099C61.3563 50.2043 61.3906 50.1855 61.4155 50.1569C61.4404 50.1282 61.4542 50.0917 61.4544 50.0537C61.4655 49.3477 61.2414 48.6581 60.8172 48.0935C66.36 47.7653 65.8596 47.9669 69.2478 47.8109Z" fill="#001A4A"/>
<path d="M31.6518 63.1014C32.6304 63.3114 37.0182 62.5104 37.2828 62.5416C37.5312 62.5728 37.5936 62.1372 37.3428 62.106C36.601 62.1088 35.8631 62.2136 35.1498 62.4174C33.999 62.5884 32.8008 62.6346 31.65 62.8374C31.6203 62.8446 31.5939 62.8616 31.5751 62.8857C31.5562 62.9098 31.5461 62.9395 31.5463 62.9701C31.5465 63.0006 31.5571 63.0302 31.5762 63.0541C31.5954 63.0779 31.622 63.0946 31.6518 63.1014Z" fill="#001A4A"/>
<path d="M40.518 56.6311C40.4025 56.9335 40.3755 57.2625 40.44 57.5797C40.4349 57.9287 40.461 58.2775 40.518 58.6219C40.5298 58.6579 40.5527 58.6893 40.5834 58.7115C40.6141 58.7337 40.6511 58.7457 40.689 58.7457C40.7269 58.7457 40.7638 58.7337 40.7945 58.7115C40.8252 58.6893 40.8481 58.6579 40.86 58.6219C40.9188 58.2778 40.9389 57.9282 40.92 57.5797C40.9759 57.2609 40.9435 56.9328 40.8264 56.6311C40.8104 56.6045 40.7878 56.5825 40.7607 56.5672C40.7337 56.552 40.7032 56.5439 40.6722 56.5439C40.6411 56.5439 40.6106 56.552 40.5836 56.5672C40.5566 56.5825 40.534 56.6045 40.518 56.6311Z" fill="#001A4A"/>
<path d="M41.5602 56.5686C41.5326 56.5593 41.5029 56.5589 41.4751 56.5672C41.4472 56.5756 41.4227 56.5924 41.4048 56.6154C41.187 56.8176 41.3112 57.1596 41.3112 57.4242C41.3112 57.7842 41.2338 58.1238 41.2512 58.482C41.2516 58.5125 41.2609 58.5422 41.2781 58.5674C41.2952 58.5926 41.3194 58.6122 41.3476 58.6238C41.3758 58.6354 41.4068 58.6384 41.4367 58.6325C41.4666 58.6266 41.4941 58.612 41.5158 58.5906C41.7445 58.2681 41.8645 57.8812 41.8584 57.486C41.871 57.144 41.9022 56.7084 41.5602 56.5686Z" fill="#001A4A"/>
<path d="M42.4002 56.4444C42.2166 56.7696 42.3228 57.036 42.3846 58.5126C42.3846 58.558 42.4026 58.6015 42.4347 58.6335C42.4668 58.6656 42.5103 58.6836 42.5556 58.6836C42.601 58.6836 42.6445 58.6656 42.6765 58.6335C42.7086 58.6015 42.7266 58.558 42.7266 58.5126C42.7896 57.0126 42.891 56.7858 42.711 56.4444C42.6938 56.419 42.6706 56.3983 42.6436 56.3839C42.6165 56.3696 42.5863 56.3621 42.5556 56.3621C42.525 56.3621 42.4948 56.3696 42.4677 56.3839C42.4406 56.3983 42.4174 56.419 42.4002 56.4444Z" fill="#001A4A"/>
<path d="M43.3026 56.5374C43.2443 56.8658 43.2241 57.1998 43.2426 57.5328C43.1906 57.852 43.1854 58.177 43.227 58.4976C43.2348 58.5202 43.2481 58.5404 43.2657 58.5566C43.2832 58.5727 43.3045 58.5843 43.3276 58.5903C43.3507 58.5962 43.3749 58.5963 43.3981 58.5906C43.4213 58.5849 43.4427 58.5736 43.4604 58.5576C43.6315 58.2985 43.7283 57.9973 43.74 57.687C43.8207 57.3121 43.8155 56.9239 43.725 56.5512C43.7139 56.5045 43.6877 56.4627 43.6505 56.4322C43.6133 56.4018 43.5671 56.3845 43.5191 56.3829C43.471 56.3814 43.4238 56.3956 43.3847 56.4236C43.3456 56.4515 43.3167 56.4915 43.3026 56.5374Z" fill="#001A4A"/>
<path d="M44.2044 56.4599C44.1086 56.7498 44.0821 57.058 44.127 57.3599C44.1353 57.6746 44.177 57.9876 44.2512 58.2935C44.2592 58.3267 44.2781 58.3562 44.3048 58.3773C44.3316 58.3984 44.3647 58.4099 44.3988 58.4099C44.4329 58.4099 44.466 58.3984 44.4928 58.3773C44.5196 58.3562 44.5384 58.3267 44.5464 58.2935C44.7017 57.6931 44.7177 57.0651 44.5932 56.4575C44.5718 56.4255 44.5428 56.3992 44.5087 56.3812C44.4747 56.3631 44.4367 56.3538 44.3982 56.354C44.3596 56.3542 44.3217 56.364 44.2879 56.3825C44.2541 56.401 44.2254 56.4276 44.2044 56.4599Z" fill="#001A4A"/>
<path d="M41.7468 51.6223C41.8968 51.7454 42.0648 51.8449 42.2448 51.9175C42.2765 51.9267 42.3104 51.9249 42.3409 51.9124C42.3715 51.8999 42.3969 51.8774 42.4131 51.8487C42.4293 51.8199 42.4353 51.7865 42.4301 51.7539C42.4249 51.7213 42.4089 51.6914 42.3846 51.6691C42.2448 51.5131 42.0888 51.3577 41.949 51.2023C41.9209 51.1744 41.8861 51.1543 41.8479 51.1438C41.8098 51.1333 41.7696 51.1328 41.7312 51.1423C40.689 51.5023 35.7582 52.2157 34.716 52.8535C34.6824 52.8717 34.6544 52.8987 34.6349 52.9316C34.6153 52.9644 34.605 53.0019 34.605 53.0401C34.605 53.0783 34.6153 53.1158 34.6349 53.1486C34.6544 53.1815 34.6824 53.2084 34.716 53.2267C34.873 53.3032 35.0238 53.3916 35.1672 53.4913C35.3694 53.6155 35.5272 53.3203 35.3382 53.1799C35.3034 53.1574 35.2672 53.1373 35.2296 53.1199C37.9458 52.4119 41.6496 51.6001 41.7468 51.6223Z" fill="#001A4A"/>
<path d="M43.44 70.8786C43.5954 70.8972 43.6578 70.6458 43.5174 70.5834C42.6468 70.179 41.4336 70.4436 40.5 70.506C39.1314 70.599 37.7622 70.6764 36.4092 70.866C36.1914 70.8972 36.2226 71.1768 36.3624 71.2704C36.4799 71.3769 36.6258 71.4471 36.7824 71.4726C36.9222 71.5194 36.9378 71.379 36.9222 71.2548C41.8416 70.9152 42.2868 70.74 43.44 70.8786Z" fill="#001A4A"/>
<path d="M95.1462 46.1159C95.7271 45.6849 96.3408 45.2999 96.9816 44.9645C97.0105 44.9463 97.032 44.9184 97.0424 44.8859C97.0528 44.8534 97.0514 44.8182 97.0384 44.7866C97.0254 44.755 97.0017 44.729 96.9715 44.7131C96.9413 44.6973 96.9064 44.6926 96.873 44.6999C96.1319 44.9308 95.4515 45.3242 94.8816 45.8513C94.695 46.0067 94.962 46.2599 95.1462 46.1159Z" fill="#001A4A"/>
<path d="M99.3462 44.2026C99.9793 43.9588 100.636 43.7815 101.306 43.6734C101.477 43.6428 101.431 43.3938 101.275 43.3938C100.551 43.416 99.8421 43.6077 99.2058 43.9536C99.0192 44.0316 99.1602 44.28 99.3462 44.2026Z" fill="#001A4A"/>
<path d="M103.514 43.8601C104.299 43.9067 105.063 44.1242 105.755 44.4973C105.926 44.5753 106.144 44.3575 105.973 44.2177C105.27 43.6867 104.386 43.4522 103.513 43.5643C103.475 43.5669 103.44 43.5837 103.414 43.6113C103.389 43.639 103.374 43.6753 103.375 43.713C103.375 43.7507 103.39 43.7869 103.415 43.8142C103.441 43.8415 103.477 43.8579 103.514 43.8601Z" fill="#001A4A"/>
<path d="M109.037 47.5314C109.058 47.5657 109.09 47.5914 109.128 47.6041C109.166 47.6167 109.208 47.6154 109.245 47.6005C109.282 47.5855 109.313 47.5578 109.332 47.5223C109.351 47.4868 109.356 47.4458 109.348 47.4066C109.068 46.6235 108.493 45.9813 107.746 45.618C107.711 45.5996 107.67 45.5954 107.632 45.6062C107.594 45.6171 107.562 45.6421 107.542 45.6762C107.522 45.7102 107.516 45.7506 107.525 45.7891C107.534 45.8275 107.557 45.861 107.59 45.8826C108.168 46.3406 108.658 46.8991 109.037 47.5314Z" fill="#001A4A"/>
<path d="M110.405 52.4311C110.422 52.5709 110.639 52.5553 110.67 52.4311C110.816 51.674 110.741 50.8908 110.452 50.1757C110.434 50.1374 110.403 50.1067 110.365 50.089C110.326 50.0713 110.283 50.0677 110.242 50.0789C110.201 50.0901 110.165 50.1153 110.141 50.1501C110.117 50.1849 110.106 50.2271 110.11 50.2693C110.272 50.9798 110.371 51.7032 110.405 52.4311Z" fill="#001A4A"/>
<path d="M107.077 56.9261C106.059 57.3888 104.918 57.509 103.826 57.2687C103.639 57.2219 103.499 57.5015 103.686 57.5951C104.774 58.1705 106.19 57.8285 107.201 57.2219C107.34 57.1283 107.249 56.8517 107.077 56.9261Z" fill="#001A4A"/>
<path d="M102.332 56.6309C102.267 56.4463 102.24 56.2503 102.253 56.0549C102.267 55.8595 102.32 55.6689 102.41 55.4951C102.581 55.1531 102.877 54.9977 103.126 54.7331C103.147 54.7102 103.162 54.6816 103.168 54.6508C103.173 54.62 103.171 54.5881 103.159 54.5589C103.148 54.5296 103.129 54.5041 103.103 54.4854C103.078 54.4666 103.048 54.4554 103.017 54.4529C102.322 54.4529 101.541 55.6151 102.083 56.7395C102.13 56.8799 102.393 56.7869 102.332 56.6309Z" fill="#001A4A"/>
<path d="M104.852 53.9999C105.88 53.9098 106.914 53.9465 107.932 54.1091C108.15 54.1247 108.15 53.8289 107.979 53.7491C106.937 53.4335 105.828 53.4127 104.774 53.6891C104.557 53.7377 104.65 54.0323 104.852 53.9999Z" fill="#001A4A"/>
<path d="M109.208 54.5467C109.169 54.5363 109.127 54.5419 109.092 54.5623C109.057 54.5827 109.032 54.6161 109.021 54.6553C109.011 54.6944 109.017 54.7361 109.037 54.7711C109.057 54.806 109.091 54.8315 109.13 54.8419C109.284 54.8896 109.434 54.9467 109.581 55.0129C109.286 55.4278 108.929 55.7951 108.523 56.1019C108.399 56.2111 108.539 56.4289 108.679 56.3665C109.221 56.1326 109.662 55.7136 109.924 55.1845C110.365 55.4773 110.786 55.7994 111.184 56.1487C111.215 56.1774 111.255 56.194 111.298 56.1958C111.34 56.1975 111.382 56.1841 111.416 56.158C111.449 56.1319 111.472 56.0948 111.481 56.0532C111.49 56.0117 111.484 55.9683 111.464 55.9309C111.137 55.4226 110.658 55.0306 110.095 54.8107C110.155 54.6553 110.204 54.4843 110.251 54.3307C110.262 54.2876 110.256 54.2418 110.234 54.203C110.213 54.1642 110.176 54.1356 110.133 54.1233C110.091 54.111 110.045 54.116 110.006 54.1373C109.966 54.1586 109.937 54.1944 109.924 54.2371C109.876 54.3858 109.819 54.5313 109.753 54.6727C109.581 54.6397 109.395 54.5917 109.208 54.5467Z" fill="#001A4A"/>
<path d="M113.75 60.3486C113.763 60.3872 113.789 60.4201 113.824 60.4416C113.859 60.463 113.9 60.4718 113.94 60.4662C113.981 60.4607 114.018 60.4412 114.045 60.4112C114.073 60.3812 114.09 60.3425 114.092 60.3018C114.008 59.1038 113.576 57.9566 112.847 57.0018C112.823 56.9672 112.787 56.9432 112.746 56.9345C112.705 56.9258 112.662 56.9331 112.627 56.955C112.591 56.9768 112.565 57.0116 112.554 57.0521C112.543 57.0926 112.547 57.1357 112.567 57.1728C113.053 58.195 113.449 59.2576 113.75 60.3486Z" fill="#001A4A"/>
<path d="M114.356 65.9479C114.357 65.9858 114.37 66.0225 114.395 66.0513C114.42 66.08 114.454 66.0989 114.492 66.1046C114.529 66.1102 114.568 66.1023 114.6 66.0821C114.632 66.0619 114.656 66.0309 114.667 65.9947C114.912 64.8176 114.892 63.6007 114.607 62.4325C114.56 62.2147 114.234 62.3083 114.28 62.5261C114.399 63.6627 114.424 64.8071 114.356 65.9479Z" fill="#001A4A"/>
<path d="M113.594 68.7949C113.454 68.9971 113.33 69.1993 113.189 69.4015C113.045 69.5942 112.915 69.7969 112.8 70.0081C112.781 70.0434 112.775 70.0843 112.784 70.1236C112.792 70.1628 112.814 70.1977 112.846 70.2221C112.878 70.2464 112.917 70.2586 112.957 70.2565C112.998 70.2543 113.036 70.2379 113.065 70.2103C113.227 70.0302 113.368 69.8319 113.485 69.6193C113.624 69.4015 113.78 69.1993 113.92 68.9815C114.06 68.7949 113.734 68.5921 113.594 68.7949Z" fill="#001A4A"/>
<path d="M30.0966 56.3508C30.1274 56.3686 30.1628 56.3769 30.1983 56.3746C30.2339 56.3723 30.2679 56.3595 30.2961 56.3379C30.3244 56.3162 30.3456 56.2867 30.3571 56.253C30.3686 56.2193 30.3698 56.183 30.3606 56.1486C30.2676 55.713 29.7696 55.3242 29.4606 55.044C29.0385 54.5882 28.5241 54.2275 27.9516 53.9862C27.8274 53.9556 27.687 54.0954 27.7806 54.2196C28.484 55.0012 29.2594 55.7147 30.0966 56.3508Z" fill="#001A4A"/>
<path d="M24 52.2444C23.9691 52.2447 23.9391 52.2549 23.9144 52.2736C23.8898 52.2922 23.8718 52.3183 23.8631 52.348C23.8544 52.3777 23.8555 52.4094 23.8662 52.4384C23.877 52.4674 23.8967 52.4921 23.9226 52.509C24.5026 52.7852 25.1124 52.994 25.74 53.1312C25.6945 53.5729 25.6112 54.0099 25.491 54.4374C25.431 54.6552 25.74 54.7176 25.8174 54.531C25.9822 54.1334 26.1122 53.7223 26.2062 53.3022C26.4526 53.407 26.6873 53.5373 26.9064 53.691C27 53.751 27.1242 53.5974 27.0306 53.52C26.783 53.3308 26.5223 53.1592 26.2506 53.0064C26.3867 52.2897 26.3332 51.5499 26.0952 50.8602C26.0846 50.8254 26.0618 50.7956 26.0309 50.7763C26 50.7569 25.9633 50.7494 25.9273 50.755C25.8913 50.7606 25.8586 50.779 25.8351 50.8068C25.8116 50.8347 25.7989 50.87 25.7994 50.9064C25.7838 51.5442 25.7994 52.1508 25.7532 52.7574C25.2032 52.4856 24.6099 52.3119 24 52.2444Z" fill="#001A4A"/>
<path d="M22.179 54.1422C22.1739 53.8812 22.2214 53.6218 22.3188 53.3796C22.4409 53.1234 22.6505 52.9193 22.9098 52.8042C22.9428 52.7939 22.9704 52.771 22.9865 52.7404C23.0026 52.7098 23.0059 52.674 22.9956 52.641C22.9853 52.608 22.9624 52.5804 22.9318 52.5643C22.9012 52.5482 22.8654 52.5449 22.8324 52.5552C22.1478 52.6956 21.4476 53.52 21.8526 54.2352C21.8742 54.2655 21.9046 54.2885 21.9397 54.3008C21.9748 54.3131 22.0129 54.3143 22.0487 54.3041C22.0845 54.2939 22.1162 54.2728 22.1396 54.2438C22.1629 54.2148 22.1767 54.1793 22.179 54.1422Z" fill="#001A4A"/>
<path d="M24.9786 55.4484C24.577 55.5713 24.1536 55.6057 23.7374 55.5494C23.3213 55.493 22.9223 55.3472 22.5678 55.122C22.428 55.0128 22.2414 55.182 22.3812 55.3086C23.0658 56.0088 24.2478 56.3664 25.0878 55.7286C25.1228 55.7126 25.1504 55.6839 25.1649 55.6482C25.1794 55.6126 25.1796 55.5727 25.1657 55.5369C25.1517 55.501 25.1245 55.4719 25.0897 55.4554C25.055 55.439 25.0152 55.4365 24.9786 55.4484Z" fill="#001A4A"/>
<path d="M25.0878 49.5533C25.1658 49.7243 25.461 49.6001 25.3986 49.4291C25.0722 48.5735 24.3102 47.5001 23.3148 47.4065C23.1276 47.3909 23.112 47.6243 23.2368 47.7179C23.7084 48.0665 24.6108 48.3833 25.0878 49.5533Z" fill="#001A4A"/>
<path d="M17.73 47.1599C18.8735 46.9932 20.0374 47.0301 21.168 47.2691C21.2025 47.2774 21.2388 47.2722 21.2695 47.2544C21.3002 47.2366 21.3229 47.2077 21.3328 47.1737C21.3428 47.1397 21.3393 47.1031 21.323 47.0716C21.3067 47.0401 21.2789 47.0161 21.2454 47.0045C20.1061 46.5963 18.87 46.5421 17.6994 46.8491C17.5278 46.8935 17.544 47.1755 17.73 47.1599Z" fill="#001A4A"/>
<path d="M12.6906 49.7712C13.6452 48.9619 14.6952 48.2724 15.8172 47.718C15.9882 47.64 15.864 47.3448 15.6924 47.4066C14.4583 47.8364 13.3552 48.5755 12.4884 49.5534C12.3642 49.7088 12.5346 49.8954 12.6906 49.7712Z" fill="#001A4A"/>
<path d="M9.6888 53.1775C10.0448 52.7982 10.3772 52.3974 10.6842 51.9775C11.0262 51.5731 11.3838 51.1975 11.7576 50.8267C11.913 50.6863 11.6796 50.4667 11.5242 50.5933C10.7616 51.2467 9.813 52.0087 9.393 52.9573C9.3462 53.1469 9.5352 53.3203 9.6888 53.1775Z" fill="#001A4A"/>
<path d="M23.5476 71.1275C23.7083 70.8528 23.7969 70.5419 23.8051 70.2237C23.8133 69.9055 23.7408 69.5904 23.5944 69.3077C23.4597 69.0205 23.267 68.7642 23.0286 68.5549C22.7902 68.3456 22.511 68.1878 22.2088 68.0914C21.9065 67.995 21.5876 67.9621 21.272 67.9948C20.9564 68.0274 20.6509 68.1249 20.3748 68.2811C20.0164 67.5308 19.4442 66.9031 18.7301 66.4769C18.016 66.0508 17.192 65.8452 16.3614 65.8859C15.5746 65.959 14.8232 66.2474 14.1894 66.7193C13.5557 67.1912 13.0641 67.8285 12.7686 68.5613C11.6952 67.8455 10.2486 67.5503 9.12839 68.3279C8.63023 68.6525 8.27118 69.1514 8.12157 69.7268C7.97197 70.3023 8.04259 70.9128 8.31959 71.4389C8.33524 71.4635 8.3596 71.4812 8.38778 71.4885C8.41597 71.4959 8.44588 71.4922 8.4715 71.4784C8.49712 71.4646 8.51655 71.4415 8.52588 71.414C8.53521 71.3864 8.53375 71.3563 8.52179 71.3297C8.27679 70.8116 8.24728 70.2174 8.43972 69.6775C8.63217 69.1376 9.03087 68.6961 9.54839 68.4497C10.0818 68.2384 10.664 68.1818 11.2281 68.2865C11.7922 68.3911 12.3153 68.6528 12.7374 69.0413C12.7644 69.067 12.7975 69.0853 12.8335 69.0947C12.8695 69.104 12.9074 69.1039 12.9434 69.0946C12.9794 69.0852 13.0125 69.0668 13.0394 69.0411C13.0664 69.0154 13.0863 68.9833 13.0974 68.9477C13.3458 68.2049 13.8159 67.556 14.4445 67.0887C15.0731 66.6214 15.8299 66.358 16.6128 66.3341C17.3637 66.3506 18.0937 66.5842 18.7148 67.0066C19.3358 67.4289 19.8213 68.0221 20.1126 68.7143C20.1436 68.7659 20.1938 68.803 20.2522 68.8177C20.3105 68.8323 20.3723 68.8232 20.424 68.7923C20.7835 68.5223 21.2284 68.391 21.6769 68.4224C22.1254 68.4538 22.5476 68.6459 22.866 68.9633C23.5194 69.6479 23.6592 70.9073 22.5702 71.2187C21.1218 71.4436 19.6629 71.5942 18.1992 71.6699C15.4512 71.8564 12.6919 71.794 9.95519 71.4833C9.69119 71.4521 9.69119 71.8565 9.95519 71.8871C13.9948 72.3361 18.0738 72.2944 22.1034 71.7629C22.3754 71.7656 22.6449 71.7104 22.8939 71.6008C23.143 71.4913 23.3658 71.3299 23.5476 71.1275Z" fill="#001A4A"/>
<path d="M36.8628 28.5702C39.8628 28.8606 49.6428 28.266 54.2994 28.2276C54.4704 28.2276 54.4704 27.9792 54.2994 27.948C50.6442 27.5592 40.8912 28.728 36.2394 27.948C34.9326 27.7302 34.5282 26.952 34.4346 26.517C34.1082 25.101 35.4306 23.517 36.5946 22.8924C37.3544 22.5265 38.2115 22.4136 39.0401 22.5704C39.8688 22.7272 40.6254 23.1454 41.199 23.7636C41.237 23.8002 41.2858 23.8234 41.3381 23.8297C41.3904 23.8361 41.4433 23.8253 41.489 23.799C41.5346 23.7727 41.5704 23.7322 41.5911 23.6837C41.6117 23.6352 41.616 23.5814 41.6034 23.5302C41.1678 20.979 44.2476 19.7502 46.3008 19.704C47.3516 19.6457 48.3868 19.979 49.2062 20.6395C50.0256 21.3 50.5711 22.2408 50.7372 23.28C50.7519 23.3211 50.7776 23.3573 50.8114 23.3849C50.8452 23.4125 50.8859 23.4303 50.9291 23.4365C50.9723 23.4427 51.0164 23.4369 51.0566 23.4199C51.0967 23.4029 51.1315 23.3753 51.1572 23.34C52.0284 21.6132 54.222 22.0332 55.3728 23.1846C56.337 24.1488 57.1614 25.9374 56.508 27.291C56.3994 27.5244 56.7258 27.711 56.8506 27.4932C57.7062 25.8444 56.6328 23.6358 55.3416 22.5624C54.0972 21.5358 52.1064 21.3492 51.0642 22.6398C50.4264 20.3226 48.1842 19.0314 45.7908 19.2648C43.6908 19.467 41.1402 20.727 41.0778 23.0136C40.6224 22.6508 40.0993 22.3824 39.539 22.2242C38.9787 22.0659 38.3925 22.0209 37.8146 22.0919C37.2368 22.1628 36.6788 22.3483 36.1735 22.6374C35.6681 22.9265 35.2254 23.3134 34.8714 23.7756C34.1718 24.6624 33.6426 25.9068 34.1094 27.0108C34.5762 28.1034 35.76 28.4628 36.8628 28.5702Z" fill="#001A4A"/>
<path d="M75.4542 34.8227C75.7201 34.6167 76.0201 34.459 76.3404 34.3565C76.0689 35.087 76.0043 35.8782 76.1538 36.6431C76.185 36.8141 76.4652 36.7673 76.4496 36.5963C76.411 35.8037 76.5272 35.0111 76.7916 34.2629C77.6043 34.2556 78.4153 34.1881 79.218 34.0607C79.2543 34.0494 79.2853 34.0255 79.3055 33.9933C79.3256 33.9611 79.3336 33.9228 79.3279 33.8852C79.3223 33.8477 79.3034 33.8134 79.2746 33.7885C79.2459 33.7637 79.2092 33.75 79.1712 33.7499C78.4248 33.7343 76.9626 33.8429 76.9626 33.8429L77.0562 33.6095C77.0727 33.5787 77.0766 33.5427 77.0673 33.509C77.058 33.4753 77.036 33.4465 77.006 33.4285C76.9761 33.4106 76.9403 33.4048 76.9062 33.4125C76.8721 33.4202 76.8422 33.4406 76.8228 33.4697C76.7202 33.6056 76.6316 33.7516 76.5582 33.9053C76.0728 34.0321 75.6218 34.2658 75.2382 34.5893C75.0654 34.7297 75.285 34.9505 75.4542 34.8227Z" fill="#001A4A"/>
<path d="M77.8026 32.1169C78.6141 30.873 79.582 29.7385 80.6826 28.7413C80.7918 28.6477 80.6514 28.4611 80.5272 28.5391C79.3031 29.4557 78.2943 30.6289 77.5716 31.9765C77.5592 32.0067 77.5579 32.0403 77.5681 32.0713C77.5782 32.1023 77.5992 32.1286 77.627 32.1456C77.6549 32.1625 77.6879 32.1689 77.7201 32.1637C77.7523 32.1584 77.7816 32.1418 77.8026 32.1169Z" fill="#001A4A"/>
<path d="M81.9714 27.5435C82.5579 26.9689 83.236 26.4958 83.9778 26.1437C83.8533 27.0559 83.9937 27.9846 84.3822 28.8191C84.4602 29.0057 84.771 28.8653 84.7092 28.6787C84.3582 27.7992 84.2823 26.8339 84.4914 25.9103C85.0829 25.6611 85.691 25.4532 86.3112 25.2881C86.4822 25.2413 86.451 24.9611 86.2644 24.9767C85.7142 25.027 85.1744 25.158 84.6624 25.3655C84.6972 25.2694 84.7389 25.176 84.7872 25.0859C84.8093 25.0467 84.815 25.0004 84.8032 24.9571C84.7913 24.9137 84.7629 24.8767 84.724 24.8541C84.6851 24.8316 84.6389 24.8252 84.5954 24.8365C84.5518 24.8478 84.5145 24.8757 84.4914 24.9143C84.3351 25.1215 84.2136 25.3527 84.1314 25.5989C83.2464 26.0265 82.4498 26.6168 81.783 27.3389C81.7696 27.3513 81.7587 27.3662 81.751 27.3828C81.7434 27.3993 81.739 27.4173 81.7383 27.4355C81.7375 27.4538 81.7404 27.472 81.7467 27.4891C81.753 27.5063 81.7626 27.522 81.7749 27.5354C81.7873 27.5489 81.8022 27.5597 81.8188 27.5674C81.8353 27.5751 81.8532 27.5794 81.8715 27.5802C81.8897 27.5809 81.908 27.5781 81.9251 27.5718C81.9423 27.5655 81.958 27.5559 81.9714 27.5435Z" fill="#001A4A"/>
<path d="M86.4822 29.9857C86.4424 29.986 86.404 30.0007 86.374 30.0269C86.344 30.0532 86.3244 30.0893 86.3188 30.1288C86.3131 30.1682 86.3218 30.2084 86.3432 30.242C86.3646 30.2756 86.3973 30.3005 86.4354 30.3121C88.209 30.8101 89.904 29.0209 89.7954 27.3121C89.7798 27.1099 89.469 27.1099 89.484 27.3121C89.5152 28.9591 88.0068 30.0001 86.4822 29.9857Z" fill="#001A4A"/>
<path d="M85.7358 24.0282C86.4642 22.5548 87.4136 21.2013 88.551 20.0148C88.7064 19.8594 88.473 19.6416 88.3176 19.7814C87.017 20.8792 86.0297 22.3012 85.4556 23.9034C85.38 24.075 85.6428 24.1992 85.7358 24.0282Z" fill="#001A4A"/>
<path d="M87.6336 24.9457C87.6063 24.9536 87.5819 24.9694 87.5635 24.9911C87.5451 25.0128 87.5336 25.0394 87.5302 25.0677C87.5269 25.0959 87.532 25.1245 87.5448 25.1499C87.5576 25.1752 87.5777 25.1963 87.6024 25.2103C87.919 25.3076 88.2181 25.4547 88.4886 25.6459C88.7156 25.8969 88.9044 26.1799 89.049 26.4859C89.1264 26.6101 89.3598 26.6101 89.3754 26.4391C89.5152 25.6459 88.44 24.6505 87.6336 24.9457Z" fill="#001A4A"/>
<path d="M76.683 37.6543C76.623 37.5139 76.3872 37.5943 76.4028 37.7317C76.4518 38.1638 76.6227 38.573 76.8954 38.9118C77.168 39.2505 77.5313 39.5048 77.943 39.6451C78.0984 39.6763 78.2694 39.4741 78.114 39.3493C77.4494 38.9739 76.9416 38.3724 76.683 37.6543Z" fill="#001A4A"/>
<path d="M80.9604 37.7315C80.799 38.4341 80.229 38.7119 79.6404 39.0071C79.485 39.0851 79.5804 39.2873 79.7184 39.3029C80.5272 39.3629 81.1338 38.5229 81.2892 37.8251C81.3336 37.6073 81.0102 37.5149 80.9604 37.7315Z" fill="#001A4A"/>
<path d="M80.4156 34.512C80.6633 34.6964 80.868 34.9324 81.0157 35.2035C81.1634 35.4747 81.2506 35.7747 81.2712 36.0828C81.2738 36.1265 81.2929 36.1675 81.3248 36.1975C81.3566 36.2276 81.3987 36.2443 81.4425 36.2443C81.4862 36.2443 81.5283 36.2276 81.5602 36.1975C81.592 36.1675 81.6112 36.1265 81.6138 36.0828C81.6541 35.7042 81.5754 35.3224 81.3886 34.9907C81.2018 34.6589 80.9162 34.3936 80.5716 34.2318C80.4156 34.17 80.2944 34.3998 80.4156 34.512Z" fill="#001A4A"/>
<path d="M72.2808 37.6386C72.5695 37.2471 72.881 36.8731 73.2138 36.5184C73.5564 36.1584 73.9764 35.8962 74.334 35.5698C74.4894 35.4294 74.2872 35.181 74.1162 35.274C73.1962 35.7617 72.4673 36.5453 72.0474 37.4982C71.985 37.6386 72.1896 37.749 72.2808 37.6386Z" fill="#001A4A"/>
<path d="M70.74 40.3759C70.5226 41.1195 70.496 41.9059 70.6626 42.6625C70.7226 42.9115 71.0358 42.8185 71.067 42.6025C71.0878 42.2341 71.0773 41.8645 71.0358 41.4979C71.028 41.1342 71.0437 40.7705 71.0826 40.4089C71.1144 40.2205 70.7886 40.1743 70.74 40.3759Z" fill="#001A4A"/>
<path d="M71.52 47.9825C71.2889 46.849 71.1433 45.6998 71.0844 44.5445C71.0818 44.5008 71.0626 44.4598 71.0308 44.4298C70.999 44.3998 70.9569 44.3831 70.9131 44.3831C70.8694 44.3831 70.8272 44.3998 70.7954 44.4298C70.7636 44.4598 70.7444 44.5008 70.7418 44.5445C70.6314 45.738 70.7745 46.9413 71.1618 48.0755C71.1741 48.123 71.2048 48.1637 71.2471 48.1885C71.2895 48.2134 71.3399 48.2204 71.3874 48.2081C71.4349 48.1958 71.4756 48.1651 71.5004 48.1228C71.5253 48.0805 71.5323 48.03 71.52 47.9825Z" fill="#001A4A"/>
<path d="M47.5488 75.9655C47.3278 76.3146 47.221 76.7239 47.2433 77.1364C47.2656 77.549 47.4157 77.9444 47.673 78.2677C47.7666 78.3763 47.922 78.2365 47.8752 78.1117C47.7035 77.7948 47.6022 77.4446 47.5781 77.085C47.554 76.7254 47.6076 76.3649 47.7354 76.0279C47.751 75.9343 47.5956 75.8719 47.5488 75.9655Z" fill="#001A4A"/>
<path d="M50.5044 77.0545C50.4224 77.4825 50.1769 77.8618 49.8198 78.1117C49.6498 78.2733 49.4451 78.3938 49.2212 78.4639C48.9974 78.534 48.7604 78.5519 48.5286 78.5161C48.3732 78.4699 48.3264 78.7033 48.4686 78.7495C49.4886 79.1095 51.0624 77.7751 50.7864 77.0389C50.7725 77.0126 50.7514 76.9908 50.7255 76.9762C50.6996 76.9616 50.6701 76.9546 50.6404 76.9563C50.6107 76.9579 50.5821 76.9681 50.558 76.9855C50.5339 77.0029 50.5153 77.0268 50.5044 77.0545Z" fill="#001A4A"/>
<path d="M46.5222 73.9122C44.9808 73.5618 43.1466 74.4876 42.9132 76.1676C42.8976 76.3386 43.131 76.4166 43.1778 76.245C43.3687 75.5493 43.8084 74.948 44.4135 74.5553C45.0185 74.1625 45.7467 74.0056 46.4598 74.1144C46.5996 74.13 46.662 73.944 46.5222 73.9122Z" fill="#001A4A"/>
<path d="M42.3066 78.4387C42.265 79.2905 42.4121 80.141 42.7375 80.9293C43.0629 81.7176 43.5585 82.4242 44.1888 82.9987C44.2115 83.0214 44.2424 83.0341 44.2745 83.034C44.3066 83.034 44.3374 83.0212 44.3601 82.9984C44.3828 82.9757 44.3955 82.9448 44.3954 82.9127C44.3953 82.8806 44.3825 82.8498 44.3598 82.8271C43.2607 81.6258 42.6313 80.0687 42.5868 78.4411C42.5848 78.4055 42.5693 78.372 42.5435 78.3474C42.5177 78.3228 42.4835 78.3089 42.4478 78.3086C42.4121 78.3083 42.3777 78.3216 42.3515 78.3457C42.3252 78.3699 42.3092 78.4031 42.3066 78.4387Z" fill="#001A4A"/>
<path d="M51.6708 73.3363C50.9565 73.4414 50.2756 73.7082 49.68 74.1163C49.2514 73.784 48.7096 73.6332 48.171 73.6963C48.0468 73.7275 48.0618 73.8985 48.171 73.9453C48.569 74.0518 48.9589 74.1869 49.3374 74.3497C49.0265 74.5677 48.735 74.8123 48.4662 75.0805C48.342 75.1897 48.5262 75.3607 48.6378 75.2515C48.9397 74.981 49.2679 74.7414 49.6176 74.5363C49.8708 74.7388 50.08 74.9907 50.2325 75.2768C50.3849 75.5629 50.4775 75.8771 50.5044 76.2001C50.5064 76.2276 50.5188 76.2533 50.539 76.272C50.5592 76.2908 50.5857 76.3012 50.6133 76.3012C50.6408 76.3012 50.6674 76.2908 50.6876 76.272C50.7078 76.2533 50.7201 76.2276 50.7222 76.2001C50.7316 75.8538 50.6668 75.5095 50.5323 75.1903C50.3978 74.8711 50.1966 74.5843 49.9422 74.3491C50.5068 74.0613 51.0878 73.8069 51.6822 73.5871C51.8262 73.5391 51.8262 73.3201 51.6708 73.3363Z" fill="#001A4A"/>
<path d="M55.746 70.3499C55.4695 70.6834 55.1736 71.0004 54.8598 71.2991C54.4919 71.5819 54.1074 71.8424 53.7084 72.0791C53.681 72.0969 53.6607 72.1238 53.6513 72.1551C53.6419 72.1864 53.644 72.22 53.6571 72.2499C53.6703 72.2798 53.6937 72.3041 53.7231 72.3183C53.7525 72.3325 53.786 72.3358 53.8176 72.3275C54.7449 72.0308 55.5238 71.391 55.995 70.5389C56.0574 70.3799 55.8726 70.2119 55.746 70.3499Z" fill="#001A4A"/>
<path d="M57.0528 66.4614C57.1244 67.2706 57.029 68.0858 56.7726 68.8566C56.7258 68.997 56.9436 69.0588 56.9904 68.9166C57.3404 68.1361 57.4331 67.2645 57.255 66.4278C57.24 66.306 57.0528 66.3366 57.0528 66.4614Z" fill="#001A4A"/>
<path d="M52.3086 59.913C52.2982 59.8839 52.2782 59.8593 52.252 59.843C52.2258 59.8268 52.1948 59.8199 52.1642 59.8234C52.1335 59.827 52.105 59.8408 52.0832 59.8626C52.0614 59.8844 52.0476 59.9129 52.044 59.9436C52.0833 60.4493 52.2437 60.9381 52.5118 61.3687C52.7799 61.7993 53.1477 62.159 53.5842 62.4174C53.6108 62.429 53.6407 62.4307 53.6684 62.422C53.6961 62.4134 53.7197 62.3949 53.7348 62.3702C53.75 62.3454 53.7557 62.316 53.7508 62.2874C53.746 62.2588 53.7309 62.2329 53.7084 62.2146C52.9792 61.6416 52.482 60.824 52.3086 59.913Z" fill="#001A4A"/>
<path d="M51.9972 58.995C51.9979 59.0213 52.0079 59.0466 52.0254 59.0663C52.0429 59.0859 52.0668 59.0988 52.0929 59.1025C52.119 59.1062 52.1456 59.1006 52.1679 59.0867C52.1902 59.0727 52.2069 59.0513 52.215 59.0262C52.4131 58.0586 52.7649 57.129 53.2572 56.2728C53.3172 56.1642 53.1642 56.0244 53.0706 56.133C52.384 56.9291 52.0035 57.9438 51.9972 58.995Z" fill="#001A4A"/>
<path d="M54.0816 55.791C55.2018 55.293 56.2128 55.5576 57.255 56.0862C57.3792 56.1462 57.504 55.9932 57.3948 55.8996C56.9182 55.5108 56.3362 55.2735 55.7237 55.2181C55.1111 55.1627 54.496 55.2918 53.9574 55.5888C53.82 55.6506 53.94 55.8528 54.0816 55.791Z" fill="#001A4A"/>
<path d="M55.7772 59.1817C55.6212 59.1685 55.6062 59.3995 55.746 59.4307C57.0996 59.8507 58.1724 58.4821 57.8616 57.2221C57.8304 57.0817 57.6282 57.1441 57.6594 57.2821C57.7081 57.5406 57.6933 57.8071 57.6163 58.0586C57.5392 58.3102 57.4022 58.5392 57.2171 58.7261C57.0319 58.913 56.8041 59.0521 56.5533 59.1314C56.3025 59.2108 56.0362 59.228 55.7772 59.1817Z" fill="#001A4A"/>
<path d="M54.735 58.9481C54.7597 58.9587 54.7872 58.9606 54.8132 58.9536C54.8392 58.9467 54.862 58.9312 54.8782 58.9097C54.8943 58.8882 54.9027 58.8619 54.9021 58.835C54.9015 58.8081 54.8919 58.7823 54.8748 58.7615C54.2108 58.2403 53.7401 57.5121 53.5374 56.6927C53.5062 56.5841 53.304 56.5997 53.3196 56.7239C53.3764 57.1762 53.5328 57.6103 53.7775 57.9949C54.0223 58.3795 54.3493 58.7051 54.735 58.9481Z" fill="#001A4A"/>
<path d="M53.1174 54.9978C53.1525 54.0997 53.1212 53.2003 53.0238 52.3068C53.0238 52.2676 53.0083 52.2301 52.9806 52.2024C52.9529 52.1747 52.9154 52.1592 52.8762 52.1592C52.8371 52.1592 52.7995 52.1747 52.7718 52.2024C52.7442 52.2301 52.7286 52.2676 52.7286 52.3068C52.7106 53.2051 52.7468 54.1038 52.8372 54.9978C52.8684 55.1688 53.1156 55.1844 53.1174 54.9978Z" fill="#001A4A"/>
<path d="M54.0198 47.7001C53.5119 48.3519 53.1798 49.1231 53.055 49.9399C53.0488 49.9646 53.0527 49.9908 53.0658 50.0127C53.0789 50.0346 53.1002 50.0504 53.1249 50.0566C53.1497 50.0628 53.1759 50.0589 53.1977 50.0458C53.2196 50.0327 53.2354 50.0114 53.2416 49.9867C53.4816 49.2395 53.8108 48.5239 54.222 47.8555C54.2381 47.8285 54.2437 47.7965 54.2378 47.7656C54.2319 47.7348 54.2149 47.7071 54.19 47.688C54.165 47.6688 54.1339 47.6595 54.1026 47.6617C54.0712 47.6639 54.0418 47.6776 54.0198 47.7001Z" fill="#001A4A"/>
<path d="M58.0326 45.9912C58.2042 46.0044 58.2192 45.7422 58.0794 45.696C57.56 45.5758 57.0176 45.5992 56.5104 45.7635C56.0032 45.9279 55.5502 46.227 55.2 46.629C55.1064 46.7382 55.2468 46.8936 55.3554 46.7844C55.7145 46.4614 56.1412 46.2225 56.6044 46.0853C57.0675 45.9481 57.5554 45.916 58.0326 45.9912Z" fill="#001A4A"/>
<path d="M56.0106 96.48C55.2174 95.547 56.0574 94.8936 57.084 94.194C59.1528 92.7624 60.8478 91.0668 61.299 91.0206C62.1234 90.9426 62.7924 91.5804 63.6012 91.4094C64.5498 91.2072 67.4274 88.5006 68.3142 88.578C69.201 88.6554 72.0342 91.998 73.0428 93.7584C74.0514 95.5188 72.903 95.967 71.6742 97.0404C69.2485 99.0494 66.7145 100.924 64.0836 102.655C63.2592 103.2 62.637 103.729 61.6878 103.2C61.1436 102.906 56.2752 96.7932 56.0106 96.48Z" fill="#57c2b4"/>
<path d="M99.9528 78.9984C98.4232 78.2881 96.7395 77.9743 95.0568 78.0857C93.3741 78.1972 91.7465 78.7304 90.324 79.6362C89.6593 77.4484 88.295 75.5392 86.4404 74.2017C84.5859 72.8642 82.3437 72.1723 80.058 72.2322C80.136 71.0034 80.2134 69.7722 80.2758 68.5458C82.9738 69.1097 85.6998 69.5303 88.4424 69.8058C89.2591 69.9451 90.0872 70.0076 90.9156 69.9924C90.7284 72.279 90.5886 74.5656 90.4644 76.8516C90.4488 77.163 90.9312 77.163 90.9444 76.8516C91.3548 67.0494 92.5386 58.8972 93.0132 54.7644C93.1224 54.795 93.2154 54.8106 93.3246 54.8418C94.1143 55.0876 94.9197 55.2798 95.7354 55.4172C95.8446 55.4172 95.8908 55.293 95.8908 55.2618C96.3406 53.0154 96.6679 50.7463 96.8712 48.4644C96.8712 48.1998 96.7308 48.1998 96.6996 48.1848C92.0748 46.8444 89.1474 45.4662 86.8074 45.0582C86.7659 45.0484 86.7224 45.0522 86.6832 45.0689C86.644 45.0856 86.6112 45.1145 86.5896 45.1512C86.574 45.1668 86.3562 46.3332 86.2938 46.8912C84.7993 47.2034 83.3284 47.6192 81.8916 48.1356C81.8425 48.1522 81.8017 48.1869 81.7775 48.2328C81.7534 48.2786 81.7477 48.3319 81.7617 48.3818C81.7757 48.4316 81.8083 48.4742 81.8528 48.5007C81.8973 48.5273 81.9503 48.5357 82.0008 48.5244C83.4162 48.1356 84.8472 47.793 86.247 47.3886C86.1594 48.3564 85.9272 50.418 85.7958 51.4488C85.7802 51.4488 82.8558 51.7908 81.5028 52.1172C81.4597 52.1285 81.4223 52.1551 81.3974 52.192C81.3726 52.2289 81.362 52.2736 81.3678 52.3178C81.3735 52.3619 81.3951 52.4024 81.4286 52.4318C81.4621 52.4611 81.5051 52.4772 81.5496 52.4772C82.9616 52.3867 84.3653 52.1942 85.7496 51.9012C85.7184 52.2126 85.6896 52.5234 85.6404 52.8348C85.557 53.418 85.8894 53.0712 92.64 54.6702C92.6244 54.7302 92.6244 54.7944 92.6088 54.8568C88.9958 53.9005 85.3357 53.132 81.6432 52.5546C81.4716 52.539 81.4404 52.8036 81.5964 52.8504C83.4006 53.3016 85.2516 53.5968 87.0714 54.0012C88.8912 54.4056 90.696 54.888 92.5158 55.2768C92.5836 55.2768 92.244 56.3826 91.6602 62.028C91.1724 61.8288 81.696 60.3114 80.7564 60.27C81.0522 55.5102 81.7674 43.362 81.8454 42.1176C81.8604 41.8062 77.3496 43.284 75.4056 44.0622C75.4864 42.4137 75.4663 40.7618 75.3456 39.1158C75.3456 39.0601 75.3235 39.0066 75.2841 38.9673C75.2447 38.9279 75.1913 38.9058 75.1356 38.9058C75.0799 38.9058 75.0265 38.9279 74.9871 38.9673C74.9477 39.0066 74.9256 39.0601 74.9256 39.1158C74.7858 41.6664 74.8944 44.2488 74.8326 46.7994C74.8014 48.075 74.6766 49.3794 74.7546 50.6574C71.2704 50.7174 54.1914 50.8596 52.3248 50.937C52.014 46.3902 52.0452 40.9212 51.5778 39.489C51.5707 39.465 51.5552 39.4443 51.5341 39.4309C51.513 39.4175 51.4877 39.4122 51.463 39.416C51.4383 39.4198 51.4158 39.4325 51.3997 39.4517C51.3836 39.4708 51.3751 39.4952 51.3756 39.5202C51.3912 41.5422 51.6246 45.9906 51.6402 46.2084C49.3898 45.1171 47.0788 44.1555 44.7186 43.3284C44.6845 43.3195 44.6489 43.3183 44.6143 43.325C44.5798 43.3316 44.5471 43.3459 44.5188 43.3667C44.4904 43.3876 44.4671 43.4146 44.4505 43.4456C44.4339 43.4766 44.4244 43.511 44.4228 43.5462C44.4384 46.8462 44.6094 50.1258 44.796 53.4078C42.9294 53.9058 41.076 54.4344 39.1806 54.8076C38.2476 54.9942 34.3122 55.5546 33.3636 55.8342C33.2856 54.7302 33.2388 53.6256 33.1458 52.5342C33.0366 51.2592 32.8032 48.5058 32.8188 48.4746C33.3678 48.1086 42.1512 44.7828 44.1588 43.7148C44.2045 43.6929 44.2401 43.6541 44.2579 43.6066C44.2757 43.5591 44.2744 43.5066 44.2543 43.46C44.2342 43.4134 44.1968 43.3764 44.15 43.3568C44.1033 43.3372 44.0507 43.3365 44.0034 43.3548C42.2634 43.9302 40.5834 44.7858 38.9034 45.4704C37.332 46.1082 35.7456 46.7454 34.1748 47.3988C33.7392 47.5698 32.5416 47.8344 32.3706 48.3168C32.277 48.5814 32.946 55.2696 33.1638 57.1368C31.8438 57.3858 30.519 57.6348 29.2128 57.9456C29.1816 57.9456 29.0106 57.9924 29.0418 58.1478C29.3561 60.6453 29.5222 63.1593 29.5392 65.6766C29.5404 65.7104 29.5491 65.7435 29.5645 65.7736C29.5799 65.8037 29.6018 65.83 29.6285 65.8508C29.6552 65.8716 29.6861 65.8862 29.7191 65.8937C29.7521 65.9013 29.7863 65.9015 29.8194 65.8944C33.1638 65.3496 36.5394 65.07 39.9144 64.7742C39.979 64.7698 40.0398 64.7422 40.0856 64.6964C40.1314 64.6506 40.159 64.5898 40.1634 64.5252C40.1634 64.2144 40.1634 63.888 40.179 63.5766C40.1946 63.5922 45.219 63.7476 45.4362 63.2808C45.4528 63.2517 45.4602 63.2184 45.4574 63.185C45.4546 63.1517 45.4418 63.12 45.4206 63.0942C45.234 62.8764 44.8608 63.0012 44.5962 63.0168C44.0676 63.0474 40.1946 63.219 40.179 63.234C40.1946 61.881 40.1946 60.5898 40.1478 59.2524C41.0808 59.268 45.1716 59.0814 45.1716 59.0814C45.5418 64.1412 45.4686 64.0884 45.5454 65.0076C45.5142 65.0076 41.6874 65.4588 39.8676 65.583C36.7386 65.8002 36.0216 65.85 34.0194 66.1122C34.0194 66.1122 33.9882 65.9406 33.9726 65.8632C33.9414 65.7072 33.6768 65.7384 33.6924 65.8944C33.8016 67.8696 34.0812 69.8298 34.206 71.805C34.3308 73.7802 34.299 75.7716 34.3926 77.745C34.3926 77.8007 34.4147 77.8541 34.4541 77.8935C34.4935 77.9328 34.5469 77.955 34.6026 77.955C34.6583 77.955 34.7117 77.9328 34.7511 77.8935C34.7905 77.8541 34.8126 77.8007 34.8126 77.745C34.8588 76.641 34.8282 75.5208 34.7814 74.4006C36.4291 74.6009 38.0979 74.5432 39.7278 74.2296C40.023 74.1696 39.8988 73.701 39.603 73.7634C38.001 74.0898 36.3678 73.8564 34.7658 74.0586C34.6709 71.5003 34.442 68.9488 34.08 66.4146C36.2112 66.228 43.1796 65.6682 45.5748 65.4504C45.6684 67.3788 45.777 69.3234 45.9642 71.2368C45.4978 71.2828 45.0351 71.3608 44.5794 71.4702C40.644 72.4344 37.953 76.1832 36.8334 79.9008C31.1556 77.8608 23.985 79.0764 21.2628 85.0338C18.6828 90.7146 22.3134 96.06 28.2318 97.6176C34.1718 99.1884 40.9242 97.1376 40.9242 97.1376C40.9242 97.1376 44.1132 98.6154 45.9174 98.8488C47.6409 99.0743 49.3855 99.09 51.1128 98.8956C52.4107 98.8298 53.6859 98.5293 54.8766 98.0088C55.0014 97.9308 54.9546 97.6974 54.7992 97.713C53.169 97.8894 50.9412 98.7078 46.8036 98.3664C43.9416 98.133 40.8156 97.2774 39.0264 94.851C38.949 94.7424 38.7618 94.8354 38.8398 94.9602C39.2773 95.696 39.8531 96.3403 40.5354 96.8574C34.6398 97.8378 27.3294 98.88 22.8954 93.8244C18.8826 89.2518 21.6666 82.4382 26.9088 80.3076C30.1128 79.0008 33.753 79.281 36.9414 80.4942C37.0094 80.5114 37.0816 80.5016 37.1425 80.4668C37.2035 80.432 37.2486 80.3749 37.2684 80.3076C38.2794 76.7766 40.737 73.0746 44.4546 72.048C48.1254 71.037 52.932 72.1566 54.9228 75.672C54.9472 75.7117 54.9826 75.7436 55.0247 75.7635C55.0669 75.7835 55.114 75.7907 55.1602 75.7844C55.2064 75.778 55.2498 75.7583 55.285 75.7277C55.3202 75.6971 55.3457 75.6568 55.3584 75.612C55.7106 73.4998 56.7776 71.5727 58.381 70.1532C59.9843 68.7338 62.0266 67.9083 64.1659 67.8148C66.3052 67.7213 68.4117 68.3656 70.1327 69.6397C71.8538 70.9139 73.0849 72.7405 73.62 74.814C73.6334 74.8571 73.6577 74.896 73.6906 74.927C73.7234 74.958 73.7636 74.98 73.8074 74.991C73.8512 75.0019 73.8971 75.0014 73.9407 74.9896C73.9842 74.9777 74.024 74.9548 74.0562 74.9232C75.395 73.8526 76.9851 73.1419 78.6757 72.8584C80.3663 72.5749 82.1013 72.728 83.7162 73.3032C85.2057 73.88 86.539 74.7983 87.609 75.9843C88.6789 77.1703 89.4555 78.5909 89.8764 80.1318C89.8877 80.1742 89.9088 80.2134 89.9378 80.2464C89.9669 80.2793 90.0032 80.3051 90.0439 80.3217C90.0846 80.3382 90.1285 80.3451 90.1723 80.3419C90.2162 80.3386 90.2586 80.3252 90.2964 80.3028C95.2482 76.6836 103.172 78.963 104.451 85.5912C104.746 87.0591 104.685 88.5762 104.273 90.0158C103.862 91.4554 103.112 92.7757 102.086 93.8664C99.4734 96.495 95.5224 97.1664 91.9758 97.2576C88.1184 97.3506 84.603 96.3864 81.0408 95.064C81.738 94.5486 83.2386 93.3486 83.6076 92.5134C83.6676 92.373 83.5296 92.1864 83.3742 92.28C82.4964 92.8476 82.083 93.933 79.9542 95.16C78.0876 96.249 76.0812 96.4974 73.9656 96.5442C73.7166 96.5442 73.7322 96.9042 73.9656 96.933C76.05 97.1664 78.6456 96.4356 80.5452 95.3934C83.9576 96.9806 87.6701 97.8194 91.4334 97.8534C95.1822 97.8378 99.3198 97.2 102.197 94.5864C106.766 90.4716 106.225 81.8802 99.9528 78.9984ZM90.9312 53.88C89.3748 53.5422 87.7266 52.9932 86.1246 52.9314C86.1402 52.9002 86.3736 50.3334 86.4978 49.0734C86.6064 47.8914 86.778 46.7094 86.7936 45.5112C88.3644 46.149 90.0132 46.6002 91.6152 47.16C93.2172 47.7198 94.8354 48.249 96.4686 48.7314C96.1086 50.7846 95.8926 52.8714 95.5194 54.9222C94.9128 54.6084 91.8 54.0666 90.9312 53.88ZM80.76 60.6126C81.7698 60.9066 91.1772 62.4174 91.6326 62.3862C91.6896 62.3862 91.2642 65.8944 90.9636 69.5412C90.1014 69.3306 90.1296 69.5298 85.893 69.0432C84.0108 68.8254 82.1442 68.5146 80.2776 68.2344C80.5158 64.8444 80.634 62.8482 80.76 60.6126ZM39.6936 64.284C36.4584 64.548 33.207 64.8594 30.003 65.388C30.0369 63.017 29.8601 60.6476 29.4744 58.308C30.7494 58.0128 37.5312 56.688 39.4944 56.0994C39.7008 58.8224 39.7673 61.5541 39.6936 64.284ZM42.867 58.7928C41.967 58.8108 41.0622 58.824 40.1448 58.902C40.1136 57.8754 40.0356 56.8482 39.927 55.8216C39.9268 55.7859 39.9182 55.7508 39.902 55.719C39.8858 55.6872 39.8624 55.6597 39.8337 55.6386C39.8049 55.6175 39.7717 55.6034 39.7365 55.5975C39.7013 55.5915 39.6653 55.5939 39.6312 55.6044C37.6269 56.2178 35.585 56.701 33.5184 57.051C33.5028 56.7396 33.4584 56.4438 33.4248 56.1174C37.2959 55.711 41.1224 54.9561 44.8578 53.862C44.9178 54.8886 45.1224 58.122 45.1686 58.7304C44.4017 58.6588 43.6289 58.6797 42.867 58.7928ZM73.8828 73.9278C73.1827 71.9168 71.8477 70.1881 70.0792 69.0022C68.3106 67.8164 66.2045 67.2378 64.0783 67.3536C61.9522 67.4695 59.9213 68.2736 58.2922 69.6446C56.663 71.0157 55.5238 72.8793 55.0464 74.9544C54.6167 74.323 54.098 73.7571 53.5062 73.2744C53.2728 70.3656 53.0394 67.4724 52.806 64.5636C53.8638 64.5324 54.8904 64.5174 55.9482 64.548C56.1052 64.7706 56.2357 65.0108 56.337 65.2638C56.397 65.4036 56.6328 65.3568 56.5704 65.2038C56.4851 64.9703 56.3865 64.742 56.2752 64.5198C56.6952 64.5348 70.8966 64.1772 74.3184 64.053C74.1786 67.3014 74.04 70.7076 73.8828 73.9278ZM76.2162 63.7236C72.1254 63.9726 56.4618 64.1904 56.0562 64.1748C55.6989 63.6254 55.1837 63.1971 54.5784 62.946C54.423 62.886 54.345 63.117 54.4692 63.195C54.8811 63.469 55.262 63.787 55.605 64.1436C54.345 64.0968 51.5604 64.2528 51.405 64.2528C51.1872 60.4572 50.643 51.7776 50.6118 51.2928C50.8764 51.2772 74.4882 50.9976 76.464 51.1062C76.3872 55.3086 76.3098 59.5242 76.2162 63.7236Z" fill="#001A4A"/>
<path d="M45.729 84.0384C45.7016 84.0149 45.6663 84.0026 45.6302 84.004C45.5941 84.0054 45.5599 84.0204 45.5343 84.0459C45.5088 84.0715 45.4938 84.1057 45.4924 84.1418C45.491 84.1779 45.5033 84.2132 45.5268 84.2406C46.3591 85.1106 47.3662 85.7944 48.4818 86.247C48.6534 86.307 48.762 86.0448 48.6066 85.9518C47.5858 85.412 46.6217 84.771 45.729 84.0384Z" fill="#001A4A"/>
<path d="M49.7574 86.6203C49.7265 86.6123 49.6936 86.617 49.6661 86.6332C49.6386 86.6495 49.6187 86.676 49.6107 86.707C49.6028 86.7379 49.6074 86.7707 49.6237 86.7983C49.64 86.8258 49.6665 86.8457 49.6974 86.8536C50.9106 87.2892 52.0458 87.8802 53.2128 88.4244C53.252 88.4471 53.2985 88.4533 53.3422 88.4417C53.386 88.43 53.4233 88.4015 53.4459 88.3623C53.4686 88.3232 53.4748 88.2766 53.4632 88.2329C53.4515 88.1892 53.423 88.1519 53.3838 88.1293C52.2832 87.3979 51.052 86.8856 49.7574 86.6203Z" fill="#001A4A"/>
<path d="M54.7974 89.3267C54.7624 89.3084 54.7218 89.3041 54.6838 89.315C54.6458 89.3258 54.6135 89.3508 54.5935 89.3849C54.5735 89.4189 54.5674 89.4594 54.5764 89.4978C54.5854 89.5363 54.6089 89.5697 54.642 89.5913C55.6215 90.303 56.4735 91.1754 57.162 92.1713C57.3024 92.3423 57.5046 92.1251 57.4422 91.9535C56.8607 90.8202 55.9347 89.9005 54.7974 89.3267Z" fill="#001A4A"/>
</svg>
