<svg width="120" height="120" viewBox="0 0 120 120" fill="none" xmlns="http://www.w3.org/2000/svg">
<path d="M95.8446 30.0271C95.8839 29.2801 95.6957 28.5388 95.3049 27.901C94.9142 27.2632 94.3391 26.7589 93.6558 26.4547C91.5972 25.3849 79.662 23.3077 78.9852 23.1865C78.0042 23.0113 57.8496 19.4521 56.5518 19.4371C52.2564 19.3885 52.809 24.7897 52.6692 27.2971C52.2732 34.6687 52.233 41.6611 52.1994 49.0447C52.1995 49.076 52.2066 49.107 52.2202 49.1352C52.2338 49.1634 52.2535 49.1883 52.278 49.2079C51.969 53.2801 53.4 55.4353 56.5926 56.8801C58.7442 57.8515 68.6976 60.8401 71.13 61.5397C71.4864 62.3917 71.7696 63.1861 72.1704 64.0687C70.035 64.6531 68.5782 65.2087 66.5808 65.7991C66.4038 65.8517 66.2464 65.9557 66.1287 66.098C66.011 66.2403 65.9383 66.4144 65.9198 66.5981C65.9014 66.7819 65.938 66.9669 66.025 67.1298C66.1121 67.2927 66.2456 67.4259 66.4086 67.5127C69.6084 69.1723 73.1634 70.4839 76.4886 71.8519C77.5711 72.3046 78.7881 72.3139 79.8774 71.8777C85.0434 69.7873 84.933 70.0129 85.4268 69.5329C85.7386 69.2318 85.946 68.8388 86.0185 68.4114C86.0911 67.984 86.025 67.5446 85.83 67.1575C85.6158 66.7375 84.93 65.4271 84.8058 65.1955C87.1896 65.7925 88.7238 66.2755 90.1488 66.3115C92.0634 66.3655 93.4638 65.6119 94.1088 63.8149C94.3812 62.936 94.5464 62.0274 94.6008 61.1089C94.6667 61.0458 94.7062 60.96 94.7112 60.8689C96.2532 34.9345 95.7516 39.4519 95.8446 30.0271ZM63.9912 32.9131C65.6622 32.9473 66.5826 33.3403 68.0184 33.6637C70.9854 34.3675 71.3892 34.3111 73.9746 35.1085C74.0304 35.128 74.0771 35.1673 74.1056 35.219C74.1342 35.2708 74.1427 35.3312 74.1295 35.3888C74.1162 35.4464 74.0822 35.4971 74.0339 35.5312C73.9857 35.5653 73.9265 35.5803 73.8678 35.5735C73.4424 35.5081 73.0182 35.4535 72.5934 35.3845C69.0048 34.8025 64.7142 33.5107 63.9414 33.3445C63.8889 33.3326 63.8426 33.3017 63.8115 33.2578C63.7803 33.2138 63.7665 33.1599 63.7727 33.1064C63.7789 33.0529 63.8046 33.0036 63.8449 32.9679C63.8853 32.9322 63.9373 32.9127 63.9912 32.9131ZM62.7234 36.8479C62.9868 36.9325 63.2526 36.9919 63.5208 37.0537C69.5298 38.4373 69.105 38.0053 72.0936 38.8441C72.1511 38.8612 72.2001 38.8991 72.231 38.9505C72.2618 39.0019 72.2724 39.063 72.2605 39.1217C72.2486 39.1805 72.2151 39.2327 72.1667 39.268C72.1183 39.3034 72.0584 39.3193 71.9988 39.3127C71.5458 39.2557 71.0988 39.2215 70.6452 39.1621C68.27 38.8489 65.9194 38.3716 63.6102 37.7335C63.2451 37.5989 62.8907 37.4368 62.55 37.2487C62.4981 37.2249 62.4575 37.1817 62.4371 37.1284C62.4166 37.0751 62.4178 37.0158 62.4405 36.9634C62.4632 36.911 62.5055 36.8695 62.5584 36.8479C62.6113 36.8263 62.6705 36.8263 62.7234 36.8479ZM58.5438 40.9585C69.3228 44.1793 64.3092 42.7843 72.3276 44.8765C73.1454 45.0907 73.9512 45.3433 74.772 45.5461C74.8285 45.5647 74.8761 45.6037 74.9055 45.6555C74.9349 45.7072 74.944 45.7681 74.931 45.8262C74.9181 45.8843 74.8841 45.9355 74.8355 45.9699C74.7869 46.0043 74.7273 46.0194 74.6682 46.0123C71.8804 45.5483 69.125 44.907 66.4188 44.0923C63.676 43.4001 60.9928 42.4898 58.395 41.3701C58.3404 41.3504 58.2959 41.3098 58.2713 41.2572C58.2466 41.2047 58.2439 41.1445 58.2636 41.0899C58.2833 41.0353 58.3239 40.9908 58.3765 40.9662C58.429 40.9415 58.4892 40.9388 58.5438 40.9585ZM58.32 45.6427C58.4856 45.6475 58.6464 45.6511 58.812 45.6625C60.5091 45.9507 62.1821 46.3667 63.8166 46.9069C64.074 46.9975 64.3188 47.1049 64.5726 47.2015C64.6279 47.2222 64.6736 47.2625 64.701 47.3148C64.7285 47.367 64.7357 47.4276 64.7213 47.4848C64.7068 47.5421 64.6719 47.592 64.623 47.6251C64.5741 47.6581 64.5147 47.672 64.4562 47.6641C63.3455 47.5232 62.2515 47.2723 61.1904 46.9153C60.1931 46.689 59.2088 46.4086 58.242 46.0753C58.1846 46.0649 58.1337 46.0322 58.1005 45.9844C58.0672 45.9365 58.0544 45.8774 58.0647 45.82C58.075 45.7626 58.1078 45.7117 58.1556 45.6785C58.2035 45.6452 58.2626 45.6323 58.32 45.6427ZM85.2822 67.4227C85.3641 67.6009 85.4078 67.7943 85.4102 67.9904C85.4127 68.1865 85.374 68.3809 85.2965 68.5611C85.2191 68.7413 85.1047 68.9032 84.9607 69.0364C84.8168 69.1696 84.6465 69.2711 84.4608 69.3343C82.6794 69.9637 81.3612 70.5013 79.6008 71.2051C78.688 71.568 77.6694 71.5587 76.7634 71.1793C73.4634 69.8185 69.8748 68.4859 66.7434 66.8713C66.708 66.8517 66.6792 66.8221 66.6606 66.7863C66.642 66.7504 66.6344 66.7098 66.6388 66.6696C66.6431 66.6294 66.6593 66.5914 66.6851 66.5604C66.711 66.5293 66.7455 66.5066 66.7842 66.4951C67.3842 66.3151 71.9952 64.7755 72.6822 64.5625C72.7252 64.5497 72.7649 64.5276 72.7985 64.4979C72.832 64.4682 72.8587 64.4314 72.8766 64.3903C72.9582 64.1977 72.8766 64.1923 72.4296 63.2623C72.1818 62.7463 71.9496 62.2255 71.7036 61.7083C75.8832 62.9083 79.9674 63.9829 84.1566 65.0371C84.3 65.3143 85.05 66.9043 85.2846 67.4197L85.2822 67.4227ZM93.5706 63.6187C92.3772 66.6571 89.136 65.5513 86.187 64.8061C82.1094 63.7869 78.0426 62.7143 73.9866 61.5883C70.3962 60.5845 59.2266 57.2683 56.8782 56.2363C53.946 54.9487 52.599 53.1085 52.7196 49.3609C53.877 49.6963 92.826 60.8023 94.1022 61.1611C94.0239 61.9974 93.8462 62.8214 93.573 63.6157L93.5706 63.6187Z" fill="#57c2b4"/>
<path d="M30.2718 60.66C30.3071 59.8711 30.257 59.0807 30.1224 58.3026C29.9651 57.6845 29.6009 57.1388 29.0904 56.7564C28.5509 56.3295 27.9825 55.9404 27.3894 55.5918C26.1505 54.88 24.8624 54.2574 23.535 53.7288C23.27 53.6225 22.9775 53.6061 22.7022 53.6819C22.427 53.7578 22.1842 53.9218 22.011 54.1488C21.546 54.8688 21.7758 56.4594 21.7848 57.6624C21.8082 60.588 22.0068 60.6696 26.9574 63.0792C27.78 63.48 28.809 64.2 29.4354 64.2C29.6347 64.1994 29.8279 64.131 29.9832 64.0062C30.1386 63.8814 30.2469 63.7075 30.2904 63.513C30.4482 62.9616 30.2874 61.524 30.2718 60.66ZM25.4616 59.5674C25.293 59.9478 24.4626 59.5206 24.1872 59.3874C23.9736 59.2904 23.7679 59.1766 23.5722 59.0472C23.5122 58.9944 23.1798 58.6812 23.2806 58.4976C23.3814 58.314 23.8314 58.4226 23.892 58.4406C23.9846 58.4711 24.0743 58.5097 24.1602 58.5558C24.5622 58.7448 25.632 59.1756 25.4616 59.565V59.5674ZM27.7182 58.9074C27.5058 58.8252 27.2928 58.7724 27.081 58.6908C26.5224 58.4784 24.8772 57.6558 24.336 57.3516C24.0857 57.2032 23.8466 57.0366 23.6208 56.853C23.5684 56.8283 23.5279 56.7837 23.5083 56.7291C23.4888 56.6746 23.4917 56.6144 23.5164 56.562C23.5412 56.5096 23.5857 56.4691 23.6403 56.4495C23.6949 56.43 23.755 56.4329 23.8074 56.4576C24.9186 56.7372 24.8874 56.8536 26.4624 57.612C27.0043 57.8253 27.5096 58.1218 27.96 58.491C28.0073 58.5262 28.0401 58.5776 28.0519 58.6354C28.0637 58.6932 28.0539 58.7533 28.0242 58.8043C27.9945 58.8553 27.9471 58.8936 27.891 58.9118C27.8349 58.9301 27.774 58.927 27.72 58.9032L27.7182 58.9074Z" fill="#57c2b4"/>
<path d="M26.8038 64.1077C26.7132 66.0277 29.4606 66.8857 31.2702 68.0137C32.0574 68.5045 32.8902 69.1351 33.7782 68.7301C34.6836 68.3155 34.6182 67.1017 34.623 66.1627C34.6278 65.2975 34.9542 63.9295 34.3884 63.0871C33.7284 62.1025 32.3754 61.7995 31.5144 61.4503C31.458 61.4334 31.3974 61.4378 31.3441 61.4627C31.2907 61.4876 31.2484 61.5313 31.2252 61.5854C31.2019 61.6394 31.1993 61.7002 31.2179 61.756C31.2365 61.8119 31.275 61.8589 31.326 61.8883C32.1474 62.2651 33.3528 62.7703 33.7944 63.4723C34.1874 64.0969 33.8988 65.3821 33.891 66.1567C33.8874 66.6925 33.9702 67.8313 33.471 68.0587C32.9244 68.3095 32.16 67.7023 31.656 67.3915C29.5998 66.1237 27.3408 65.5093 27.24 64.1017C27.2364 64.0458 27.2115 63.9934 27.1704 63.9554C27.1292 63.9173 27.0751 63.8965 27.0191 63.8973C26.9631 63.8981 26.9095 63.9203 26.8694 63.9595C26.8294 63.9986 26.8059 64.0517 26.8038 64.1077Z" fill="#00143B"/>
<path d="M101.993 46.5552C102.154 46.7029 102.327 46.8381 102.509 46.9596C102.948 47.2026 103.401 47.4211 103.865 47.6142C104.504 47.9479 105.194 48.171 105.908 48.2742C105.965 48.2879 106.026 48.2797 106.078 48.2514C106.13 48.223 106.17 48.1765 106.189 48.1206C106.209 48.0648 106.208 48.0036 106.185 47.9489C106.162 47.8942 106.12 47.8498 106.067 47.8242C105.865 47.715 105.68 47.5914 105.471 47.4912C105.07 47.298 104.645 47.1498 104.233 46.9716C102.218 46.104 103.144 46.4412 102.197 46.1712C102.147 46.1504 102.09 46.149 102.039 46.1674C101.988 46.1857 101.946 46.2225 101.92 46.2705C101.895 46.3185 101.888 46.3742 101.901 46.4269C101.915 46.4795 101.947 46.5253 101.993 46.5552Z" fill="#57c2b4"/>
<path d="M102.06 49.971C106.456 51.7782 103.04 50.331 106.553 51.7416C110.287 53.238 109.651 53.031 111.479 53.589C111.536 53.6041 111.596 53.5977 111.649 53.5709C111.702 53.5441 111.743 53.4989 111.764 53.4439C111.785 53.3889 111.786 53.328 111.765 53.2727C111.744 53.2175 111.704 53.1718 111.652 53.1444C111.267 52.9644 110.892 52.7688 110.504 52.5894C109.421 52.0872 104.836 50.1546 102.936 49.7094C102.686 49.6494 102.437 49.6008 102.186 49.551C102.13 49.5343 102.07 49.5404 102.019 49.568C101.968 49.5955 101.93 49.6423 101.913 49.698C101.896 49.7537 101.902 49.8137 101.93 49.8649C101.958 49.9161 102.004 49.9543 102.06 49.971Z" fill="#57c2b4"/>
<path d="M101.902 53.6779C102.036 53.7966 102.181 53.9042 102.333 53.9995C103.003 54.3093 103.687 54.5852 104.384 54.8263C104.613 54.9071 104.851 54.9614 105.092 54.9883C105.149 55.0041 105.209 54.999 105.261 54.9738C105.314 54.9486 105.356 54.905 105.378 54.8514C105.401 54.7977 105.404 54.7375 105.386 54.6821C105.367 54.6266 105.329 54.5798 105.279 54.5503C104.91 54.2609 104.49 54.0449 104.039 53.9143C102.342 53.2405 102.674 53.3797 102.08 53.2783C102.027 53.2577 101.969 53.2582 101.917 53.2795C101.865 53.3009 101.823 53.3415 101.8 53.393C101.777 53.4444 101.775 53.5027 101.794 53.5558C101.813 53.6089 101.851 53.6526 101.902 53.6779Z" fill="#57c2b4"/>
<path d="M103.545 67.3739C104.256 65.7205 105.086 64.1204 106.027 62.5859C106.062 62.5242 106.114 62.474 106.177 62.4413C106.24 62.4085 106.311 62.3946 106.382 62.4013C106.452 62.4079 106.52 62.4348 106.575 62.4788C106.631 62.5227 106.673 62.5818 106.696 62.6489C107.416 64.7441 108.211 66.5831 108.928 68.7299C109.528 66.9647 110.365 64.9265 110.736 63.5039C110.756 63.4481 110.796 63.4017 110.848 63.3736C110.9 63.3455 110.961 63.3377 111.019 63.3517C111.076 63.3657 111.127 63.4005 111.16 63.4495C111.194 63.4984 111.208 63.558 111.2 63.6167C110.6 66.3011 109.932 67.8167 109.268 70.0157C109.246 70.0898 109.201 70.1547 109.138 70.2008C109.076 70.247 109.001 70.2719 108.924 70.2719C108.846 70.2719 108.771 70.247 108.709 70.2008C108.647 70.1547 108.601 70.0898 108.579 70.0157C107.953 67.9271 107.015 65.7311 106.267 63.6509C105.357 65.1224 104.592 66.6787 103.983 68.2979C103.962 68.3638 103.923 68.4223 103.87 68.4665C103.817 68.5108 103.753 68.5389 103.684 68.5475C103.616 68.5561 103.546 68.5448 103.484 68.515C103.422 68.4853 103.369 68.4382 103.333 68.3795C102.602 67.3358 101.973 66.2239 101.455 65.0591L100.769 66.8033C100.748 66.8558 100.707 66.8981 100.656 66.9213C100.604 66.9445 100.546 66.9468 100.493 66.9278C100.439 66.9088 100.396 66.8699 100.37 66.8192C100.345 66.7686 100.341 66.7102 100.358 66.6563L101.193 64.0349C101.215 63.9728 101.256 63.9193 101.311 63.8822C101.365 63.8451 101.43 63.8263 101.496 63.8287C101.562 63.831 101.625 63.8543 101.677 63.8952C101.729 63.9361 101.766 63.9924 101.783 64.0559C102.224 65.2338 102.816 66.3492 103.545 67.3739Z" fill="#57c2b4"/>
<path d="M106.151 59.8567C105.811 59.2639 105.278 58.8061 104.64 58.5601C103.999 58.2487 103.314 58.0368 102.61 57.9319C102.301 57.9319 101.866 58.0369 101.83 58.3585C101.683 58.9072 101.721 59.4887 101.937 60.0139C102.317 60.5797 103.06 60.7795 103.633 61.0297C104.132 61.2451 104.768 61.6537 105.272 61.6015C105.989 61.5313 106.156 60.8269 106.104 60.1117C106.138 60.08 106.162 60.038 106.17 59.9921C106.179 59.9461 106.172 59.8986 106.151 59.8567Z" fill="#57c2b4"/>
<path d="M110.921 72.7415C110.962 71.8949 110.977 69.4205 111.362 65.9057C111.503 64.6043 111.668 63.4637 111.738 63.1379C111.756 63.0817 111.794 63.0341 111.844 63.004C111.895 62.9739 111.955 62.9636 112.013 62.9749C112.071 62.9863 112.122 63.0185 112.158 63.0655C112.194 63.1125 112.211 63.171 112.206 63.2297C112.187 63.3497 112.169 63.5837 112.146 63.8969C111.434 73.7747 111.825 73.4519 111.426 73.6631C111.156 73.8077 111.126 73.6259 109.93 73.0853C109.33 72.8135 108.718 72.5651 108.13 72.3011C107.53 72.0329 102.578 69.6197 102.01 69.3257C101.625 69.1259 101.254 68.9057 100.886 68.6837C100.836 68.655 100.799 68.6075 100.784 68.5517C100.769 68.4959 100.777 68.4363 100.805 68.3861C100.834 68.3359 100.882 68.2992 100.937 68.284C100.993 68.2688 101.053 68.2764 101.103 68.3051C101.783 68.6717 103.209 69.2015 104.012 69.5603C105.053 70.0247 107.984 71.4335 108.428 71.6327C109.223 71.9867 110.141 72.3443 110.921 72.7415Z" fill="#00143B"/>
<path d="M59.22 32.3262C59.8725 32.497 60.5358 32.6233 61.2054 32.7042C61.5834 32.7222 61.7964 32.7276 61.8504 32.5314C61.998 32.0136 60.0678 31.7604 59.5338 31.6788C58.4484 31.5138 58.4454 32.0304 59.22 32.3262Z" fill="#57c2b4"/>
<path d="M58.98 36.4301C59.5351 36.6286 60.1079 36.7734 60.6906 36.8627C60.7608 36.8669 61.3128 36.8873 61.3614 36.6527C61.4502 36.2243 60.1998 36.0167 59.5326 35.8511C59.4143 35.8173 59.2941 35.7907 59.1726 35.7713C59.0646 35.7581 58.5774 35.7209 58.5126 35.9261C58.4478 36.1313 58.92 36.4001 58.98 36.4301Z" fill="#57c2b4"/>
<path d="M59.8728 27.2341C60.5058 27.2941 61.8678 27.5857 62.2866 27.6691C64.4118 28.0891 65.3394 28.1143 67.3674 28.3891C70.029 28.7491 73.4016 29.5687 76.449 30.1291C77.7858 30.3745 78.7044 30.4657 79.7634 30.6091C79.8222 30.6114 79.8798 30.592 79.9252 30.5547C79.9706 30.5173 80.0008 30.4646 80.0099 30.4065C80.019 30.3483 80.0064 30.2889 79.9746 30.2394C79.9428 30.19 79.8939 30.1539 79.8372 30.1381C79.8372 30.1381 71.2992 28.3063 68.949 27.8875C67.3416 27.6031 65.6988 27.4675 64.0194 27.2497C62.6574 27.0216 61.2836 26.8704 59.9046 26.7967C59.8466 26.7925 59.7893 26.8115 59.7453 26.8495C59.7013 26.8876 59.6742 26.9415 59.67 26.9995C59.6658 27.0575 59.6848 27.1148 59.7228 27.1588C59.7609 27.2028 59.8148 27.2299 59.8728 27.2341Z" fill="#57c2b4"/>
<path d="M83.838 42.0445C89.0802 43.2163 86.6142 42.5995 88.9644 43.2103C89.3406 41.4043 89.187 39.1531 88.1112 37.6609C86.3928 39.4921 85.2 40.8667 83.838 42.0445Z" fill="white"/>
<path d="M83.3502 41.4942C84.93 40.1274 85.2906 39.4494 87.8004 37.275C87.1186 36.5896 86.2969 36.0595 85.3915 35.7206C84.4861 35.3818 83.5183 35.2424 82.554 35.3118C82.578 35.5476 83.1054 40.1154 83.3502 41.4942Z" fill="white"/>
<path d="M87.7608 43.62C86.1487 43.3364 84.5523 42.9705 82.9776 42.5238C82.9181 42.502 82.8653 42.4652 82.8241 42.4171C82.7829 42.369 82.7548 42.3111 82.7424 42.249C82.5282 41.1582 82.3752 40.0548 82.2588 38.946C82.1264 37.7476 82.0693 36.542 82.0878 35.3364C78.564 35.6328 76.9182 38.7954 77.1576 42.3384C77.2461 43.2768 77.5393 44.1842 78.0167 44.9969C78.4941 45.8095 79.144 46.5075 79.9205 47.0417C80.697 47.5758 81.5812 47.9331 82.5109 48.0884C83.4405 48.2436 84.3928 48.1929 85.3008 47.94C87.1746 47.3676 88.329 45.6 88.8408 43.7292C88.7784 43.7244 87.9282 43.6446 87.7608 43.62Z" fill="white"/>
<path d="M73.4658 64.7946C75.0012 65.5896 75.3786 65.6784 80.0058 67.1346C81.0168 67.4526 81.063 67.4346 81.7764 67.6272C81.8337 67.641 81.894 67.6333 81.9459 67.6056C81.9979 67.5778 82.0378 67.5319 82.0581 67.4767C82.0784 67.4214 82.0777 67.3606 82.056 67.3058C82.0344 67.251 81.9934 67.2061 81.9408 67.1796C81.15 66.7849 80.3271 66.4583 79.4808 66.2034C78.1224 65.7516 74.9304 64.7274 74.6946 64.6614C74.3382 64.5612 73.9818 64.4814 73.6242 64.3854C73.57 64.3644 73.5096 64.3658 73.4563 64.3893C73.4031 64.4128 73.3614 64.4565 73.3404 64.5108C73.3194 64.5651 73.3208 64.6254 73.3443 64.6787C73.3679 64.7319 73.4116 64.7736 73.4658 64.7946Z" fill="#00143B"/>
<path d="M80.0814 88.9674C80.3016 88.8628 80.4893 88.7006 80.6247 88.4979C80.7601 88.2952 80.8381 88.0596 80.8504 87.8162C80.8627 87.5727 80.8089 87.3305 80.6946 87.1152C80.5803 86.8998 80.4099 86.7195 80.2014 86.5932C78.4212 85.4964 71.6814 81.246 70.932 80.8476C70.5619 80.6632 70.1499 80.5791 69.7371 80.6038C69.3244 80.6286 68.9254 80.7613 68.58 80.9886C67.3638 81.7686 61.86 85.2678 61.86 85.2678C61.6888 85.3911 61.5487 85.5528 61.4511 85.7399C61.3535 85.9269 61.301 86.1342 61.2978 86.3452C61.2946 86.5562 61.3407 86.765 61.4326 86.955C61.5245 87.1449 61.6596 87.3108 61.827 87.4392C62.8416 88.2084 68.559 92.3748 69.4848 93.0354C69.8239 93.2792 70.2236 93.4249 70.64 93.4567C71.0565 93.4884 71.4736 93.4049 71.8458 93.2154C71.8476 93.3396 79.02 89.4684 80.0814 88.9674ZM70.5828 81.498C70.3273 81.3797 70.0461 81.3277 69.7652 81.347C69.4843 81.3663 69.2129 81.4562 68.976 81.6084C61.836 86.1684 62.226 85.8294 62.0958 86.076C62.0501 86.1627 62.0254 86.2589 62.0239 86.3569C62.0223 86.4549 62.0438 86.5519 62.0868 86.64C62.2206 86.919 62.049 86.6172 69.8034 92.607C70.0614 92.8086 70.37 92.9353 70.6952 92.973C71.0205 93.0108 71.3498 92.9583 71.6472 92.8212V92.8038C74.352 91.4058 77.0646 89.6316 79.7766 88.3254C79.8804 88.276 79.9687 88.1992 80.0322 88.1034C80.0956 88.0076 80.1318 87.8963 80.1368 87.7814C80.1418 87.6666 80.1154 87.5526 80.0605 87.4516C80.0056 87.3506 79.9243 87.2665 79.8252 87.2082C78.0348 86.1144 71.3142 81.909 70.5828 81.498Z" fill="#00143B"/>
<path d="M80.7108 89.04C80.4715 89.4511 80.186 89.8336 79.86 90.18C79.155 90.8232 78 91.0158 77.07 91.3626C75.0552 92.1156 74.8098 92.0268 72.4242 93.0834C72.3725 93.11 72.3322 93.1544 72.3108 93.2085C72.2894 93.2625 72.2883 93.3225 72.3079 93.3773C72.3274 93.4321 72.3661 93.4779 72.4168 93.5063C72.4676 93.5347 72.5269 93.5436 72.5838 93.5316C74.1914 93.1319 75.7741 92.6383 77.3238 92.0532C78.5604 91.5942 80.0838 91.3968 80.7294 90.1008C80.8692 89.82 80.9694 89.5182 81.0894 89.247C81.107 89.198 81.1065 89.1443 81.088 89.0957C81.0695 89.047 81.0342 89.0066 80.9886 88.9816C80.9429 88.9566 80.8898 88.9488 80.8389 88.9595C80.788 88.9702 80.7425 88.9987 80.7108 89.04Z" fill="#00143B"/>
<path d="M95.7492 27.1693C97.4892 28.1671 97.5576 30.4741 97.4046 32.4702C95.649 55.5876 97.5078 28.6974 96.1332 51.06C96.0006 53.22 95.8464 55.3759 95.6532 57.5299C95.5074 59.1571 95.5062 61.1298 95.0808 62.7733C94.344 65.6148 92.991 65.5009 93.3462 65.9712C93.3845 66.0215 93.4411 66.0545 93.5037 66.0633C93.5662 66.0721 93.6297 66.0558 93.6804 66.018C96.1812 64.1646 96.0894 60.5059 96.366 57.5965C96.5712 55.4365 96.726 53.2711 96.8634 51.1051C98.4234 26.0971 97.9524 35.0478 98.0922 32.5159C98.217 30.2653 97.9482 27.8682 95.9616 26.7876C95.9111 26.7607 95.852 26.7547 95.7971 26.7709C95.7422 26.787 95.6958 26.8241 95.668 26.8741C95.6401 26.9242 95.6331 26.9831 95.6482 27.0383C95.6634 27.0935 95.6997 27.1405 95.7492 27.1693Z" fill="#00143B"/>
<path d="M113.47 78.4583C113.41 78.4583 114.184 70.3109 114.523 65.6939C114.685 63.4859 115.646 50.1227 115.188 47.9393C114.744 45.8231 113.188 45.3281 111.266 44.6303C109.295 43.9151 107.256 43.2185 105.238 42.6197C104.105 42.2837 102.913 41.6123 101.655 41.9279C101.205 42.0484 100.792 42.2793 100.453 42.5996C100.115 42.92 99.8615 43.3198 99.7164 43.7627C99.0234 45.5027 99.2784 48.1181 99.291 49.5227C99.345 55.5227 99.051 61.5227 99.171 67.5293C99.2166 69.7835 98.6088 72.8693 100.311 74.8067C101.068 75.5461 101.94 76.1592 102.891 76.6229C106.03 78.4619 113.234 82.1117 113.47 78.4583ZM113.015 78.4235H112.994C112.754 81.3569 105.745 77.5721 103.226 76.0529C102.346 75.6107 101.539 75.0371 100.831 74.3519C99.3516 72.6395 99.9312 69.7379 99.8874 67.5161C99.8652 66.3161 100.064 54.3161 100.025 49.5161C100.016 48.3617 99.819 46.3547 100.183 44.7539C100.963 41.3201 103.606 42.9017 105.029 43.3235C107.053 43.9235 109.03 44.5985 111.015 45.3191C112.726 45.9395 114.097 46.3031 114.473 48.0881C115.08 50.9903 112.95 78.4235 113.015 78.4235Z" fill="#00143B"/>
<path d="M105.573 41.8302C107.483 42.3732 113.973 44.2986 115.219 45.8292C116.569 47.49 116.278 50.262 116.16 52.3998C116.083 53.8104 114.429 75.0144 114.336 75.9594C114.227 77.0616 114.344 78.7614 113.635 79.6398C113.605 79.6893 113.594 79.7479 113.604 79.8047C113.614 79.8616 113.644 79.9129 113.689 79.9494C113.734 79.9858 113.79 80.0049 113.848 80.0032C113.905 80.0014 113.961 79.9789 114.003 79.9398C114.869 78.897 114.792 77.2278 114.946 76.0278C115.496 71.7534 116.856 53.1018 116.892 52.4376C117.02 50.0556 117.294 47.2218 115.777 45.3732C114.209 43.4622 107.807 41.958 105.688 41.4066C105.632 41.3913 105.572 41.399 105.522 41.4279C105.471 41.4568 105.434 41.5046 105.419 41.5608C105.404 41.617 105.411 41.6769 105.44 41.7275C105.469 41.778 105.517 41.8149 105.573 41.8302Z" fill="#00143B"/>
<path d="M30.69 68.4763C29.8428 69.4363 30.4674 70.5937 31.4424 71.4049C33.4332 73.0609 42.2424 79.1857 45.7434 81.3049C47.067 82.1065 48.5538 82.9657 50.091 82.7587C52.9896 82.3663 56.3142 80.1379 58.851 78.8797C65.0004 75.8323 67.6614 74.8765 66.711 73.1005C65.6034 70.9933 45.7392 61.8745 43.155 62.0509C42.731 62.0877 42.3158 62.1931 41.9256 62.3629C40.1904 63.0829 36.4272 65.6917 35.6454 66.2059C35.5982 66.2427 35.5665 66.2959 35.5565 66.3549C35.5465 66.4139 35.5589 66.4745 35.5913 66.5249C35.6237 66.5752 35.6737 66.6116 35.7316 66.627C35.7894 66.6423 35.8509 66.6355 35.904 66.6079C42.4104 62.4733 42.6732 62.4535 44.229 62.8879C49.0206 64.2301 65.2116 71.8369 66.0636 73.4479C66.5802 74.4109 64.7388 75.1375 58.5228 78.2233C56.0286 79.4605 52.7328 81.6607 49.9884 82.0363C48.6546 82.2163 47.259 81.3763 46.1124 80.6881C43.9158 79.3681 33.5496 72.4231 31.764 71.0065C30.9936 70.3957 30.3768 69.5113 31.017 68.7613C31.0472 68.7171 31.06 68.6634 31.0532 68.6104C31.0465 68.5573 31.0204 68.5086 30.9801 68.4735C30.9398 68.4384 30.888 68.4192 30.8345 68.4197C30.7811 68.4203 30.7296 68.4404 30.69 68.4763Z" fill="#00143B"/>
<path d="M67.0152 75.3923C66.759 77.9375 64.1352 78.0773 61.8756 78.7601C59.6094 79.4767 57.3868 80.3247 55.2192 81.2999C55.1668 81.3263 55.1258 81.371 55.1041 81.4255C55.0824 81.48 55.0814 81.5406 55.1014 81.5958C55.1213 81.651 55.1608 81.697 55.2124 81.7251C55.264 81.7531 55.324 81.7613 55.3812 81.7481C58.7784 80.7101 59.8458 80.1365 62.0874 79.4681C64.4448 78.7625 67.5414 78.5327 67.4514 75.4103C67.4519 75.3536 67.4303 75.2989 67.3913 75.2578C67.3522 75.2167 67.2987 75.1925 67.242 75.1901C67.1854 75.1878 67.13 75.2076 67.0877 75.2453C67.0454 75.283 67.0194 75.3357 67.0152 75.3923Z" fill="#00143B"/>
<path d="M48.3654 69.7607C47.7054 69.3911 47.0454 69.0131 46.377 68.6357C45.6894 69.0977 45.357 69.3107 44.685 69.7871C45.2436 70.1015 46.5642 70.8287 46.665 70.8821C47.148 70.5455 47.8986 70.0517 48.3654 69.7607Z" fill="#57c2b4"/>
<path d="M51.1566 71.2511C50.4762 70.8911 49.7934 70.5341 49.1166 70.1711C48.2994 70.6829 48.0654 70.8239 47.3964 71.2775C47.9328 71.5637 49.2918 72.3017 49.4364 72.3827C49.6158 72.2591 50.76 71.5007 51.1566 71.2511Z" fill="#57c2b4"/>
<path d="M45.6534 68.2272C45.4056 68.088 43.8534 67.2252 43.62 67.0986C42.999 67.455 42.3726 67.8132 41.76 68.19C42.444 68.5278 43.218 68.961 43.9752 69.3864C44.3178 69.141 45.1686 68.5434 45.6534 68.2272Z" fill="#57c2b4"/>
<path d="M51.9096 71.6543C51.1356 72.1451 50.8296 72.3323 50.1468 72.7943C50.9796 73.2887 51.6876 73.7351 52.4082 74.2127C53.0016 73.8287 53.5962 73.4591 54.312 73.0397C53.3064 72.4391 53.028 72.2603 51.9096 71.6543Z" fill="#57c2b4"/>
<path d="M60.4104 72.3504C57.6192 70.7178 54.8934 69.5946 52.1808 68.2704C49.5138 66.9984 47.106 65.4402 44.2302 64.5738C42.1302 63.9438 39.9 65.9112 38.2332 67.14C37.4232 67.74 36.3888 68.4432 36.7758 69.4386C37.0596 69.9832 37.4855 70.441 38.0082 70.7634C40.3518 72.5448 41.4882 73.0374 45.6558 75.3894C47.7186 76.5528 50.1522 78.249 52.4958 77.8158C53.9958 77.5404 57.8994 75.8436 59.742 74.9244C60.2687 74.7135 60.7396 74.3837 61.1178 73.9608C61.4334 73.4832 61.3848 72.9 60.4104 72.3504ZM56.847 74.3484C55.932 73.9338 55.575 73.7484 55.047 73.4586C54.2502 73.9386 53.721 74.2416 53.073 74.6586C53.454 74.9148 53.8302 75.1794 54.2256 75.4122C54.2733 75.4467 54.3066 75.4976 54.3193 75.5551C54.3319 75.6126 54.323 75.6727 54.2941 75.7241C54.2653 75.7754 54.2186 75.8144 54.163 75.8335C54.1073 75.8527 54.0465 75.8507 53.9922 75.828C53.4936 75.5634 52.9878 75.3126 52.4922 75.036C50.3922 76.4286 50.7894 76.1424 50.412 76.3908C50.3677 76.4282 50.3105 76.4465 50.2527 76.4416C50.195 76.4368 50.1416 76.4092 50.1042 76.365C50.0668 76.3207 50.0485 76.2635 50.0533 76.2057C50.0582 76.148 50.0857 76.0946 50.13 76.0572C50.6129 75.5085 51.1675 75.0274 51.7788 74.6268C50.9778 74.154 50.49 73.8288 49.4772 73.2468C48.7019 73.825 47.8928 74.3565 47.0544 74.8386C47.0087 74.8736 46.9511 74.8892 46.894 74.882C46.8369 74.8748 46.785 74.8453 46.7495 74.8C46.714 74.7547 46.6978 74.6973 46.7045 74.6401C46.7111 74.5829 46.74 74.5307 46.785 74.4948C47.3806 73.8724 48.0449 73.3195 48.765 72.8466C48.726 72.825 47.3604 72.0906 46.7154 71.7462C46.4988 71.898 45.6354 72.5262 45.4164 72.6822C45.1098 72.897 44.6232 73.1994 44.4426 73.3182C44.3983 73.3546 44.3414 73.3721 44.2843 73.3671C44.2272 73.362 44.1743 73.3348 44.1371 73.2912C44.0998 73.2475 44.0812 73.1911 44.0851 73.1339C44.0891 73.0766 44.1153 73.0233 44.1582 72.9852C44.6998 72.3673 45.3175 71.8205 45.9966 71.358C45.3378 70.9952 44.6814 70.6286 44.0274 70.2582C43.3199 70.8168 42.5659 71.314 41.7738 71.7444C41.7276 71.7779 41.6701 71.7921 41.6137 71.7838C41.5572 71.7755 41.5062 71.7455 41.4716 71.7001C41.437 71.6547 41.4216 71.5975 41.4286 71.5409C41.4356 71.4842 41.4646 71.4326 41.5092 71.397C42.0592 70.8223 42.6675 70.3063 43.3242 69.8574C42.8946 69.6108 41.8242 68.988 41.151 68.5704C40.329 69.1014 40.2132 69.219 39.3282 69.7566C39.1524 69.864 38.9778 69.9618 38.8032 70.0704C38.7576 70.1034 38.7011 70.1177 38.6453 70.1102C38.5896 70.1027 38.5388 70.074 38.5036 70.0301C38.4684 69.9862 38.4515 69.9304 38.4563 69.8744C38.4611 69.8183 38.4874 69.7662 38.5296 69.729C39.1003 69.1158 39.7509 68.5822 40.464 68.1426C40.2726 68.0226 40.0812 67.9056 39.8874 67.7892C39.8387 67.7608 39.8029 67.7147 39.7875 67.6605C39.772 67.6063 39.7781 67.5483 39.8044 67.4985C39.8308 67.4487 39.8753 67.411 39.9288 67.3933C39.9823 67.3755 40.0405 67.3792 40.0914 67.4034C40.3866 67.539 40.6806 67.6746 40.9728 67.8126C41.5878 67.419 42.216 67.0386 42.8532 66.6846C42.6204 66.561 42.3864 66.4404 42.1494 66.3246C42.0986 66.3003 42.0592 66.2574 42.0392 66.2048C42.0193 66.1522 42.0203 66.0939 42.0421 66.0421C42.064 65.9902 42.1049 65.9487 42.1565 65.9263C42.2081 65.9038 42.2663 65.9021 42.3192 65.9214C42.756 66.0864 43.0032 66.1656 43.4592 66.3558C43.9727 66.0822 44.5051 65.8454 45.0522 65.6472C45.1074 65.6256 45.1687 65.6252 45.2243 65.6462C45.2798 65.6671 45.3255 65.7079 45.3528 65.7606C45.38 65.8133 45.3867 65.8743 45.3716 65.9317C45.3566 65.989 45.3208 66.0388 45.2712 66.0714C44.919 66.3 44.6316 66.504 44.2782 66.7158C44.9904 67.0446 45.6696 67.4064 46.359 67.7892C46.7493 67.5677 47.1519 67.3688 47.565 67.1934C47.6187 67.1708 47.6788 67.1685 47.734 67.1869C47.7893 67.2053 47.836 67.2432 47.8653 67.2936C47.8947 67.3439 47.9048 67.4031 47.8937 67.4603C47.8826 67.5175 47.8511 67.5687 47.805 67.6044C47.6478 67.7208 47.145 68.103 47.0442 68.1744C47.6178 68.499 48.9816 69.2628 49.0932 69.324C49.5858 69.0453 50.0956 68.7982 50.6196 68.5842C50.6739 68.5614 50.7347 68.5595 50.7904 68.5786C50.846 68.5978 50.8927 68.6367 50.9215 68.6881C50.9504 68.7394 50.9593 68.7996 50.9467 68.8571C50.934 68.9146 50.9007 68.9655 50.853 69C50.5332 69.219 50.226 69.4548 49.8972 69.6702C49.7736 69.7512 49.6044 69.585 51.8772 70.8102C52.3918 70.5097 52.9239 70.2405 53.4708 70.0038C53.4978 69.9829 53.5289 69.968 53.5622 69.9601C53.5954 69.9522 53.6299 69.9515 53.6634 69.958C53.6969 69.9645 53.7287 69.9781 53.7565 69.9978C53.7844 70.0176 53.8077 70.0431 53.8249 70.0725C53.8421 70.102 53.8529 70.1349 53.8564 70.1688C53.8599 70.2028 53.8561 70.2371 53.8453 70.2695C53.8345 70.3019 53.8169 70.3316 53.7937 70.3567C53.7705 70.3817 53.7423 70.4015 53.7108 70.4148C53.6352 70.47 52.9848 70.9548 52.6662 71.1642C52.515 71.2644 52.5402 71.0622 54.993 72.6438C55.5333 72.3337 56.089 72.0514 56.658 71.7978C56.6846 71.7772 56.7153 71.7625 56.7481 71.7546C56.7808 71.7466 56.8148 71.7457 56.8479 71.7518C56.8811 71.7578 56.9125 71.7708 56.9403 71.7899C56.9681 71.8089 56.9915 71.8336 57.0091 71.8623C57.0267 71.891 57.0381 71.9231 57.0425 71.9565C57.0469 71.9899 57.0442 72.0238 57.0347 72.0561C57.0251 72.0884 57.0088 72.1183 56.9869 72.1438C56.965 72.1694 56.938 72.1901 56.9076 72.2046C56.5105 72.5204 56.0956 72.8131 55.665 73.0812C56.1198 73.3764 56.5788 73.6614 57.0504 73.9212C57.0967 73.9538 57.13 74.0017 57.1444 74.0565C57.1587 74.1113 57.1532 74.1694 57.1289 74.2206C57.1045 74.2717 57.0629 74.3126 57.0113 74.336C56.9597 74.3594 56.9015 74.3638 56.847 74.3484Z" fill="#57c2b4"/>
<path d="M28.6128 76.8907C29.5512 77.7757 29.142 77.3509 31.92 79.3417C32.724 79.9177 32.949 79.9459 33.348 80.2189C33.3961 80.2527 33.4549 80.2678 33.5134 80.2611C33.5718 80.2545 33.6258 80.2266 33.665 80.1827C33.7042 80.1389 33.726 80.0822 33.7262 80.0234C33.7264 79.9646 33.7049 79.9077 33.666 79.8637C33.2783 79.4361 32.8342 79.0633 32.346 78.7555C31.6296 78.2263 30.153 77.1733 29.5338 76.8439C29.31 76.7239 29.0814 76.6333 28.8522 76.5259C28.8038 76.4972 28.7463 76.4883 28.6916 76.501C28.6368 76.5137 28.5891 76.547 28.5583 76.5939C28.5274 76.6409 28.5159 76.698 28.5261 76.7532C28.5362 76.8085 28.5673 76.8577 28.6128 76.8907Z" fill="#57c2b4"/>
<path d="M27.1518 77.9273C27.6858 78.4853 27.6132 78.5033 30.7842 80.6681C31.1159 80.8952 31.4609 81.1022 31.8174 81.2879C31.8416 81.3119 31.8706 81.3305 31.9025 81.3424C31.9344 81.3543 31.9685 81.3593 32.0025 81.3571C32.0364 81.3548 32.0696 81.3453 32.0996 81.3293C32.1296 81.3132 32.1559 81.291 32.1767 81.264C32.1975 81.237 32.2123 81.2059 32.2201 81.1727C32.2279 81.1395 32.2286 81.1051 32.2221 81.0717C32.2155 81.0382 32.202 81.0066 32.1823 80.9788C32.1626 80.951 32.1372 80.9277 32.1078 80.9105C31.893 80.6915 31.6674 80.4641 31.431 80.2661C30.954 79.8749 28.8774 78.4313 28.3248 78.0737C28.03 77.8919 27.7256 77.7262 27.4128 77.5775C27.3663 77.5457 27.3092 77.533 27.2536 77.5423C27.198 77.5515 27.1481 77.5819 27.1143 77.6271C27.0806 77.6723 27.0657 77.7288 27.0727 77.7847C27.0796 77.8407 27.108 77.8918 27.1518 77.9273Z" fill="#57c2b4"/>
<path d="M20.9064 77.6741C21.4364 77.6139 21.9727 77.7035 22.4542 77.933C22.9358 78.1624 23.3433 78.5224 23.6304 78.9719C24.1602 79.8161 24.3504 81.2777 26.5182 82.2719C27.9348 82.9163 29.688 82.3703 30.7608 83.2991C31.4754 83.9183 31.0086 85.4831 32.1486 86.1905C32.7677 86.5019 33.4659 86.6208 34.1532 86.5319C34.971 86.4639 35.7858 86.6931 36.4482 87.1775C36.4945 87.2151 36.5531 87.234 36.6127 87.2307C36.6722 87.2274 36.7283 87.202 36.7702 87.1596C36.8121 87.1171 36.8366 87.0606 36.8391 87.001C36.8416 86.9415 36.8218 86.8831 36.7836 86.8373C36.0672 86.1904 35.1309 85.8412 34.1658 85.8611C33.6061 85.9078 33.0436 85.8129 32.5302 85.5851C31.485 84.9215 32.643 82.7051 29.8674 82.0853C28.8684 81.8627 27.6696 81.9893 26.8236 81.6053C24.8742 80.7185 24.8286 79.4891 24.2196 78.5909C23.8534 78.0546 23.3351 77.64 22.7315 77.4004C22.1278 77.1608 21.4664 77.1071 20.832 77.2463C20.7803 77.2613 20.7359 77.2947 20.7074 77.3404C20.6788 77.386 20.6681 77.4406 20.6774 77.4936C20.6866 77.5466 20.7151 77.5944 20.7573 77.6277C20.7996 77.661 20.8527 77.6775 20.9064 77.6741Z" fill="#57c2b4"/>
<path d="M33.7254 89.6329C34.722 89.2945 35.6982 88.6519 40.9032 86.8555C40.9607 86.8416 41.0212 86.8494 41.0733 86.8774C41.1254 86.9054 41.1653 86.9517 41.1853 87.0073C41.2054 87.0629 41.2043 87.124 41.1821 87.1788C41.1599 87.2336 41.1183 87.2783 41.0652 87.3043C39.7068 87.8143 34.6596 90.1015 33.7662 90.3805C33.7115 90.3977 33.6536 90.4016 33.5971 90.3919C33.5407 90.3822 33.4874 90.3592 33.4416 90.3247C25.266 84.1891 27.2334 85.5367 21.1302 80.3203C19.5432 78.9637 19.2588 78.8803 17.4918 77.2831C17.4482 77.2449 17.4215 77.191 17.4177 77.1331C17.4139 77.0753 17.4332 77.0183 17.4714 76.9747C17.5096 76.9311 17.5635 76.9044 17.6214 76.9006C17.6792 76.8968 17.7362 76.9161 17.7798 76.9543C18.7398 77.7679 19.8114 78.4423 20.8224 79.1947C22.2078 80.2273 26.8122 84.2839 27.8766 85.1467C29.76 86.6749 31.587 88.0201 33.7254 89.6329Z" fill="#00143B"/>
<path d="M15.48 79.0799C15.6312 79.2485 16.5414 80.0087 16.7952 80.2097C17.6352 80.8859 17.9484 80.4701 17.385 79.7951C16.9959 79.4117 16.5835 79.0526 16.1502 78.7199C15.9072 78.5333 15.3702 78.2321 15.2166 78.4133C15.063 78.5945 15.4164 79.0079 15.48 79.0799Z" fill="#57c2b4"/>
<path d="M14.5632 80.3351C14.7 80.4707 15.378 81.2741 15.6738 81.0293C16.0884 80.6861 14.757 79.4381 14.4588 79.2689C14.3988 79.2365 13.9422 79.0289 13.8144 79.1873C13.5822 79.4813 14.3592 80.1305 14.5632 80.3351Z" fill="#00143B"/>
<path d="M12.6912 80.2409C12.9972 80.5649 13.3205 80.8722 13.6596 81.1613C13.8444 81.3167 14.2032 81.5621 14.3796 81.3977C14.6898 81.1097 13.9434 80.4293 13.716 80.2163C13.5394 80.0457 13.3531 79.8854 13.158 79.7363C13.098 79.7003 12.6714 79.4807 12.537 79.6211C12.3936 79.7717 12.6462 80.1791 12.6912 80.2409Z" fill="#00143B"/>
<path d="M20.295 83.7C20.6523 84.1747 21.0483 84.619 21.4788 85.0284C22.134 85.5432 22.5402 85.2258 21.8886 84.4398C21.6714 84.1752 20.9472 83.3652 20.8182 83.2554C20.7582 83.2032 20.343 82.8786 20.1726 83.0208C20.0022 83.163 20.2536 83.6304 20.295 83.7Z" fill="#57c2b4"/>
<path d="M19.365 84.5886C19.512 84.7446 19.6764 84.8808 19.8324 85.0254C19.962 85.1454 20.6418 85.8936 20.9322 85.6308C21.2922 85.3074 20.277 84.4038 19.9212 84.1224C19.6992 83.946 19.2612 83.745 19.1196 83.9142C18.978 84.0834 19.2186 84.4326 19.365 84.5886Z" fill="#00143B"/>
<path d="M18.2868 85.8791C18.4674 86.0728 18.6587 86.2563 18.8598 86.4287C19.5696 86.9777 19.8936 86.6039 19.3302 85.9061C18.9588 85.4782 18.5473 85.0869 18.1014 84.7373C17.9766 84.6557 17.5362 84.4301 17.3952 84.6059C17.16 84.8999 18.0132 85.6163 18.2868 85.8791Z" fill="#00143B"/>
<path d="M28.68 90.4121C28.581 89.4365 27.2904 88.3679 26.7804 88.0721C26.1242 87.7051 25.3585 87.5846 24.6214 87.7325C23.8842 87.8803 23.2242 88.2868 22.7604 88.8785C21.9522 90.1385 22.8348 92.1395 25.2282 92.4407C26.826 92.6399 28.8468 92.0279 28.68 90.4121ZM23.5914 90.8603C22.2036 89.0693 24.8436 87.7037 26.7114 88.7537C26.1796 88.9034 25.6636 89.1044 25.1706 89.3537C25.1175 89.3807 25.0718 89.4203 25.0374 89.4689C25.003 89.5175 24.981 89.5738 24.9732 89.6329C24.9654 89.6919 24.9721 89.752 24.9927 89.8079C25.0132 89.8638 25.0471 89.9138 25.0914 89.9537C25.7199 90.5315 26.3877 91.0649 27.09 91.5503C25.9968 91.9343 24.3054 91.7831 23.5926 90.8603H23.5914ZM27.687 91.2359C27.1503 90.7208 26.5876 90.2335 26.001 89.7761C26.4461 89.6171 26.8722 89.4091 27.2712 89.1557C27.4454 89.3104 27.6036 89.4823 27.7434 89.6687C27.7654 89.7019 27.7961 89.7285 27.8322 89.7455C27.9936 89.9689 28.068 90.2435 28.0415 90.5179C28.015 90.7922 27.8894 91.0475 27.6882 91.2359H27.687Z" fill="#57c2b4"/>
<path d="M93.333 76.5941C91.0404 74.1437 91.4616 70.3541 91.5282 67.0313C91.5301 66.9734 91.5088 66.9171 91.4691 66.8749C91.4295 66.8326 91.3746 66.8078 91.3167 66.806C91.2588 66.8042 91.2025 66.8254 91.1603 66.8651C91.118 66.9048 91.0933 66.9596 91.0914 67.0175C90.9366 70.5701 90.4278 74.3561 92.847 77.0375C94.7772 79.1663 102.567 81.5759 98.607 84.8705C97.3314 85.9319 93.8982 87.7307 91.8558 88.6505C83.8608 92.2601 78.4104 93.3623 72.9612 95.2031C62.1696 98.8601 52.7484 102.424 42.5616 97.3127C43.5156 96.6689 43.5348 95.7827 42.0426 95.0327C42.6336 94.7573 43.1886 94.5011 43.6968 94.2797C45.8904 93.3197 51.1764 92.0597 48.5826 88.4771C48.2111 88.0036 47.7857 87.5751 47.3148 87.2003C47.2672 87.1589 47.2052 87.1378 47.1422 87.1417C47.0792 87.1457 47.0203 87.1743 46.9782 87.2213C46.143 86.5817 45.2982 85.9613 44.442 85.3457C32.4858 76.7411 29.8236 74.6801 26.136 72.4901C24.2934 71.3963 21.8874 72.0551 19.8114 72.5867C18.6906 72.8747 11.1618 74.6363 8.53142 75.2651C7.25963 75.4917 6.03166 75.9179 4.89302 76.5281C2.67302 77.9681 3.76922 79.9253 5.61302 81.8387C8.28362 84.6143 12.6726 87.5639 13.6608 88.3031C16.629 90.5165 21.3666 95.1557 26.3436 98.0309C29.4978 99.8549 34.0344 98.4647 37.41 97.1033C38.4528 98.2853 39.822 98.6915 42.0612 97.5983C52.566 103.269 61.9746 99.6755 73.1958 95.8997C77.4024 94.4807 88.9524 91.5797 96.6378 87.0089C97.947 86.2289 99.8268 85.2455 100.326 83.7785C101.45 80.4635 94.9098 78.2909 93.333 76.5941ZM26.7 97.4087C22.6152 95.0399 18.879 91.6073 15.18 88.5599C13.326 87.0413 11.5464 85.9829 9.75182 84.5129C8.35562 83.3729 4.86182 80.6129 4.44182 78.8399C4.01522 77.0399 6.90662 76.4063 8.70182 75.9773C11.331 75.3485 18.8676 73.5809 19.9914 73.2911C21.816 72.8225 24.1446 72.1511 25.7688 73.1111C29.7138 75.4433 33.5406 78.4013 37.4172 81.1469C39.6432 82.7117 46.0572 87.0917 46.989 87.7859C47.027 87.8145 47.0732 87.8299 47.1207 87.8299C47.1682 87.8299 47.2145 87.8145 47.2524 87.7859C47.4228 87.9401 47.5914 88.0973 47.7504 88.2623C48.3102 88.8437 48.8646 89.7263 48.7104 90.5225C48.3834 92.2145 45.0174 93.0425 43.4484 93.7025C38.9214 95.6159 31.1136 99.9647 26.7 97.4087ZM41.229 96.0029C41.016 96.0911 40.7898 96.1541 40.569 96.2267C40.269 96.3257 39.4122 96.7007 39.2538 96.3641C39.0372 95.9039 40.4076 95.4851 40.899 95.3537C41.1846 95.2793 41.679 95.2523 41.7504 95.4635C41.8218 95.6747 41.4396 95.9159 41.2314 96.0029H41.229Z" fill="#00143B"/>
<path d="M3.00961 80.2055C3.47101 81.8255 4.56061 82.8593 5.71442 84.0725C10.5144 89.1197 21.2934 97.4891 23.8722 98.8541C27.402 100.722 29.445 100.254 32.9274 99.8141C34.4405 99.6102 35.9141 99.179 37.2984 98.5349C37.349 98.5054 37.387 98.4585 37.4054 98.403C37.4238 98.3474 37.4213 98.2871 37.3983 98.2332C37.3753 98.1794 37.3334 98.1359 37.2805 98.1108C37.2277 98.0857 37.1675 98.0807 37.1112 98.0969C35.7527 98.6608 34.3196 99.0246 32.8566 99.1769C25.6476 99.8969 25.7892 100.226 12.3264 89.1611C10.3788 87.5597 8.86922 86.2043 7.36262 84.7739C6.27461 83.7875 5.24279 82.7409 4.27201 81.6389C3.89986 81.1752 3.61393 80.6484 3.42781 80.0837C3.40849 80.0321 3.37039 79.9897 3.32113 79.965C3.27187 79.9404 3.21511 79.9352 3.16221 79.9506C3.10932 79.966 3.0642 80.0008 3.0359 80.0481C3.0076 80.0954 2.99821 80.1516 3.00961 80.2055Z" fill="#00143B"/>
<path d="M49.2534 91.8276C49.062 91.9998 48.6108 92.3562 48.4902 92.4564C46.6974 93.9564 46.1304 93.855 43.9842 95.0592C43.9338 95.0881 43.8956 95.1344 43.8767 95.1894C43.8578 95.2444 43.8595 95.3044 43.8815 95.3582C43.9035 95.412 43.9443 95.456 43.9963 95.482C44.0483 95.508 44.1079 95.5143 44.1642 95.4996C44.5278 95.397 44.9208 95.301 45.2688 95.1648C46.6341 94.6833 47.8898 93.9345 48.9624 92.9622C49.2037 92.7013 49.4137 92.4132 49.5882 92.1036C49.6173 92.0586 49.6288 92.0045 49.6206 91.9516C49.6124 91.8986 49.5851 91.8506 49.5437 91.8165C49.5024 91.7824 49.45 91.7647 49.3964 91.7668C49.3429 91.7688 49.292 91.7905 49.2534 91.8276Z" fill="#00143B"/>
</svg>
