<svg width="120" height="120" viewBox="0 0 120 120" fill="none" xmlns="http://www.w3.org/2000/svg">
<path d="M58.0361 22.7749C57.9935 21.9073 57.9528 21.0007 57.939 20.1187C57.4332 20.1445 56.9394 20.1787 56.4594 20.1787V22.8475C56.484 22.8421 56.4911 22.8505 58.0361 22.7749Z" fill="#57c2b4"/>
<path d="M58.998 22.7508C59.1102 22.7508 59.2218 22.7544 59.3328 22.7592C60.1986 22.6296 61.386 22.2918 61.5498 21.429C61.7256 20.529 60.2178 20.1492 59.289 20.1018C59.142 20.0946 58.9938 20.0916 58.845 20.0916C58.9008 20.8002 58.9626 21.9774 58.998 22.7508Z" fill="#57c2b4"/>
<path d="M58.0884 23.8087C57.5394 23.8213 57.003 23.8051 56.5182 23.7865C56.4582 23.7865 56.4912 23.5069 56.4912 28.3231C56.616 28.2739 56.9406 28.3423 58.2912 28.2205C58.2246 27.3751 58.1646 25.3141 58.0884 23.8087Z" fill="#57c2b4"/>
<path d="M68.0033 19.665C67.1238 17.9674 65.7865 16.5501 64.1428 15.5735C62.4991 14.597 60.6148 14.1002 58.7033 14.1396V14.1138C57.3383 14.0904 55.9823 14.3393 54.7147 14.8461C53.447 15.3529 52.2931 16.1074 51.3205 17.0654C50.3478 18.0234 49.576 19.1657 49.05 20.4255C48.5241 21.6854 48.2546 23.0374 48.2573 24.4026C48.2556 25.9824 48.6122 27.5421 49.3005 28.9641C49.9888 30.3861 50.9907 31.6335 52.2308 32.6122C53.4709 33.591 54.9169 34.2756 56.4599 34.6146C58.0029 34.9536 59.6028 34.9382 61.1389 34.5694C62.6751 34.2006 64.1076 33.4881 65.3285 32.4855C66.5495 31.4829 67.5271 30.2164 68.1877 28.7813C68.8483 27.3463 69.1747 25.78 69.1423 24.2005C69.11 22.621 68.7197 21.0695 68.0009 19.6626L68.0033 19.665ZM61.9199 28.0284C61.0766 28.5347 60.1194 28.8207 59.1365 28.86C59.1167 29.2074 59.0861 29.5638 59.0573 29.9028C59.0592 29.9443 59.0526 29.9857 59.038 30.0245C59.0234 30.0633 59.0011 30.0988 58.9724 30.1288C58.9437 30.1587 58.9093 30.1826 58.8711 30.1989C58.833 30.2152 58.7919 30.2236 58.7504 30.2236C58.709 30.2236 58.6679 30.2152 58.6298 30.1989C58.5916 30.1826 58.5572 30.1587 58.5285 30.1288C58.4998 30.0988 58.4775 30.0633 58.4629 30.0245C58.4483 29.9857 58.4417 29.9443 58.4435 29.9028C58.4147 29.5848 58.3493 28.917 58.3475 28.8984C57.7253 28.9128 57.1235 28.8816 56.6027 28.8678C56.5365 28.8666 56.4728 28.8422 56.4227 28.7988C56.3809 28.8421 56.3273 28.8722 56.2685 28.8853C56.2097 28.8984 56.1484 28.8939 56.0921 28.8725C56.0359 28.851 55.9872 28.8134 55.9521 28.7645C55.917 28.7156 55.897 28.6574 55.8947 28.5972C55.5737 23.829 55.5527 22.4556 55.5197 19.6992C55.5194 19.6352 55.5323 19.5717 55.5577 19.5129C55.583 19.454 55.6202 19.401 55.6669 19.3572C55.7137 19.3134 55.769 19.2797 55.8293 19.2582C55.8897 19.2367 55.9538 19.228 56.0177 19.2324C56.6628 19.2567 57.3088 19.2423 57.9521 19.1892C57.9707 18.7938 58.0043 18.4014 58.0301 18.0048C58.0304 17.9315 58.0591 17.8612 58.1102 17.8087C58.1613 17.7562 58.2308 17.7256 58.304 17.7233C58.3773 17.7211 58.4485 17.7474 58.5028 17.7966C58.557 17.8459 58.59 17.9143 58.5947 17.9874C58.6445 18.3798 58.7039 18.7674 58.7519 19.1574C63.0503 19.0866 63.3455 22.065 61.2347 23.1648C63.2633 24.102 63.8699 26.6676 61.9199 28.0284Z" fill="#57c2b4"/>
<path d="M60.6923 23.9527C60.282 23.8063 59.8516 23.7235 59.4161 23.7073C59.2917 23.7253 59.1669 23.7405 59.0417 23.7529C59.1089 25.3795 59.1923 27.0571 59.1701 28.1131C59.9701 28.0253 60.7387 27.753 61.4153 27.3175C62.7821 26.3257 62.2199 24.5341 60.6923 23.9527Z" fill="#57c2b4"/>
<path d="M79.62 45.8285C79.068 44.2769 76.9374 38.0285 76.443 36.4565C76.42 36.3822 76.3731 36.3174 76.3096 36.2723C76.2462 36.2272 76.1696 36.2043 76.0918 36.207C76.014 36.2097 75.9392 36.238 75.8791 36.2874C75.8189 36.3369 75.7767 36.4047 75.759 36.4805C75.4344 37.9487 75.0294 39.2345 74.5644 40.7801C62.8284 36.9119 50.1522 38.3741 40.4526 44.1515C40.3823 44.1939 40.3241 44.2537 40.2839 44.3252C40.2436 44.3967 40.2225 44.4775 40.2228 44.5595C40.2378 47.0273 40.5444 49.3865 40.6266 51.8195C40.6298 51.9119 40.6599 52.0014 40.7132 52.077C40.7664 52.1525 40.8406 52.2109 40.9266 52.2449C41.4696 52.4543 41.3892 51.8429 43.611 50.3573C52.449 44.4467 65.7966 43.4033 72.2742 46.3667L71.0742 50.9267C71.0489 51.0178 71.0521 51.1144 71.0833 51.2036C71.1145 51.2927 71.1723 51.3702 71.2489 51.4256C71.3255 51.4809 71.4172 51.5115 71.5117 51.5131C71.6062 51.5148 71.6989 51.4875 71.7774 51.4349C72.7938 50.7473 77.9052 47.3507 79.4448 46.3391C79.527 46.286 79.5889 46.2067 79.6207 46.1141C79.6525 46.0215 79.6522 45.921 79.62 45.8285Z" fill="#00143B"/>
<path d="M39.5064 87.9907C39.6612 88.5673 39.8256 89.1205 39.9936 89.6377C40.0082 89.6761 40.015 89.717 40.0135 89.7581C40.012 89.7992 40.0023 89.8396 39.985 89.8768C39.9677 89.9141 39.943 89.9475 39.9126 89.9751C39.8821 90.0027 39.8464 90.0239 39.8077 90.0375C39.7689 90.0511 39.7277 90.0568 39.6867 90.0542C39.6457 90.0516 39.6056 90.0409 39.5688 90.0226C39.532 90.0043 39.4992 89.9788 39.4725 89.9476C39.4457 89.9164 39.4254 89.8802 39.4128 89.8411C39.1968 89.2639 38.9826 88.6471 38.787 88.0201C38.7735 87.9706 38.7707 87.9189 38.7788 87.8683C38.7868 87.8177 38.8056 87.7694 38.8338 87.7267C39.7665 86.2766 40.5504 84.7362 41.1738 83.1289C43.2024 78.0151 43.773 72.0799 40.3632 67.7599C39.132 66.1999 37.0824 64.7743 35.094 64.5433C33.4938 64.3561 32.0016 65.2033 31.8924 66.8491C31.6812 70.1161 35.9124 72.1621 36.195 75.8887C36.1985 75.9612 36.1739 76.0322 36.1263 76.087C36.0787 76.1418 36.0118 76.1761 35.9395 76.1828C35.8672 76.1896 35.7951 76.1682 35.7382 76.1231C35.6813 76.078 35.644 76.0127 35.634 75.9409C35.3634 73.3249 32.4726 71.5123 31.383 69.0169C29.6274 65.0047 33.4728 61.6728 38.5056 64.845C42.1602 67.1472 43.8402 71.2944 43.7472 75.6618C43.5555 80.0951 42.0824 84.3776 39.5064 87.9907Z" fill="#00143B"/>
<path d="M35.8758 75.6684C29.7612 77.1486 25.9938 85.0284 28.2474 90.9834C28.2598 91.0219 28.2796 91.0575 28.3058 91.0882C28.332 91.119 28.3639 91.1443 28.3999 91.1626C28.4358 91.181 28.475 91.1922 28.5153 91.1954C28.5555 91.1986 28.596 91.1939 28.6344 91.1814C28.7114 91.1555 28.7752 91.1005 28.8123 91.0282C28.8494 90.956 28.8568 90.8721 28.833 90.7944C28.6046 89.9329 28.4871 89.0457 28.4832 88.1544C28.3968 86.081 28.8308 84.019 29.7455 82.1563C30.6602 80.2936 32.0265 78.6894 33.72 77.49C34.4425 76.9725 35.2233 76.5416 36.0462 76.206C36.0817 76.1949 36.1146 76.1769 36.1431 76.1531C36.1716 76.1293 36.1951 76.1 36.2124 76.0671C36.2296 76.0342 36.2401 75.9982 36.2434 75.9612C36.2467 75.9242 36.2427 75.8869 36.2316 75.8514C36.2205 75.816 36.2025 75.783 36.1787 75.7545C36.1549 75.726 36.1256 75.7025 36.0927 75.6853C36.0598 75.6681 36.0238 75.6575 35.9868 75.6542C35.9498 75.6509 35.9125 75.6549 35.877 75.666L35.8758 75.6684Z" fill="#00143B"/>
<path d="M18.729 82.302C19.2731 81.6058 19.694 80.8217 19.9734 79.9836C20.8926 77.3952 19.5072 76.176 17.1426 76.7034C18.1562 75.7723 18.9737 74.6484 19.5474 73.3974C20.5848 70.8138 19.4046 69.6324 17.4474 69.8574C17.9968 69.4062 18.5211 68.9255 19.0182 68.4174C20.3256 67.0302 21.4512 64.7448 20.0148 63.4842C19.188 62.7564 17.799 62.6796 16.7004 62.8056C18.7404 60.1212 18.5484 57.5124 15.147 57.6288C12.612 57.7158 9.75901 59.1666 7.95601 60.9678C4.96441 63.9612 0.919205 69.624 4.24621 72.2478C3.03121 74.4828 2.91541 77.2062 4.96321 78.7188C4.13041 81.1536 4.73581 83.1444 6.7566 84.5934C5.7036 87.8856 7.005 91.0668 10.5024 91.785C12.5664 92.205 14.5224 93.2958 16.5204 94.1196C17.4327 96.3446 18.4697 98.5165 19.6266 100.625C19.6661 100.694 19.7306 100.745 19.8068 100.767C19.883 100.79 19.965 100.782 20.0355 100.745C20.106 100.709 20.1596 100.646 20.1852 100.571C20.2107 100.496 20.2062 100.414 20.1726 100.342C16.8984 93.8615 17.3712 93.6516 16.959 93.4812C14.8878 92.6034 12.9078 91.4274 10.6794 90.942C7.6062 90.2784 6.67081 87.4284 7.73941 84.5718C7.77595 84.4738 7.77804 84.3664 7.74532 84.2671C7.71259 84.1679 7.64702 84.0827 7.5594 84.0258C5.65141 82.7826 5.02561 81.1008 5.96221 78.7062C6.00236 78.6045 6.00543 78.492 5.97086 78.3883C5.9363 78.2846 5.86632 78.1964 5.77321 78.1392C3.77101 76.9038 4.04701 74.3358 5.27281 72.3588C5.33847 72.2529 5.35956 72.1254 5.33145 72.0041C5.30334 71.8828 5.22832 71.7775 5.12281 71.7114C1.95541 69.7314 5.98501 64.2816 8.62981 61.6392C10.2594 60.0126 12.8934 58.6584 15.1824 58.5792C16.4772 58.5342 17.0292 58.9086 17.0682 59.5782C17.136 60.7404 15.6984 63.0942 14.2248 63.7248C13.2766 64.167 12.3656 64.6851 11.5008 65.274C10.2105 66.0458 9.07517 67.0512 8.15281 68.2386C8.12262 68.2668 8.09845 68.3009 8.08173 68.3388C8.06501 68.3766 8.05609 68.4174 8.05551 68.4588C8.05492 68.5002 8.06268 68.5412 8.07832 68.5795C8.09396 68.6178 8.11716 68.6526 8.14653 68.6817C8.17591 68.7108 8.21085 68.7337 8.24928 68.7491C8.2877 68.7644 8.32882 68.7718 8.37018 68.7709C8.41154 68.7699 8.45229 68.7607 8.48999 68.7437C8.52769 68.7266 8.56157 68.7022 8.5896 68.6718C8.92861 68.3952 9.2826 68.1522 9.6258 67.8816C11.1634 66.5803 12.839 65.4515 14.6226 64.5156C14.8939 64.3153 15.1892 64.1499 15.5016 64.023C16.3052 63.7672 17.1495 63.6642 17.991 63.7194C19.8096 63.8724 20.1324 64.8198 19.3278 66.4092C19.0638 66.9084 18.7298 67.3675 18.336 67.7724C17.9544 68.1768 15.0666 70.7886 14.6202 71.0952C14.0838 71.466 12.9492 72.4152 12.306 72.9744C10.0308 74.9664 10.086 75.0258 9.29341 75.9744C9.26433 76.0025 9.24108 76.0361 9.22498 76.0732C9.20889 76.1103 9.20026 76.1502 9.19959 76.1907C9.19892 76.2311 9.20623 76.2713 9.22109 76.3089C9.23595 76.3466 9.25808 76.3809 9.28621 76.41C9.31433 76.439 9.34791 76.4623 9.38503 76.4784C9.42214 76.4945 9.46206 76.5031 9.50251 76.5038C9.54296 76.5044 9.58315 76.4971 9.62077 76.4823C9.6584 76.4674 9.69273 76.4453 9.7218 76.4172C10.7984 75.6044 11.8275 74.7305 12.804 73.8C13.4754 73.2144 14.1648 72.6492 14.8512 72.06C16.3398 70.7838 17.8092 70.6014 18.4764 70.8414C19.2882 71.1342 19.0104 72.2508 18.69 73.0518C17.7216 75.4878 14.163 78.156 12.9006 79.3686C11.4006 80.8038 11.2836 81.1086 10.8606 81.8664C10.8361 81.8985 10.8182 81.9352 10.8079 81.9744C10.7975 82.0135 10.795 82.0542 10.8004 82.0943C10.8114 82.1753 10.8541 82.2486 10.9191 82.2981C10.9841 82.3475 11.0661 82.3692 11.1471 82.3582C11.228 82.3472 11.3013 82.3046 11.3508 82.2396C11.4384 82.1568 11.8938 81.7542 12.084 81.5604C14.0544 79.5576 15.5238 77.826 17.664 77.4888C19.347 77.223 19.7814 78.0534 19.224 79.722C18.9842 80.4803 18.6191 81.1931 18.144 81.831C17.0514 83.2338 12.7098 86.1186 14.1876 88.671C14.226 88.733 14.2869 88.7777 14.3575 88.7959C14.4281 88.814 14.503 88.8042 14.5666 88.7684C14.6301 88.7326 14.6774 88.6736 14.6984 88.6038C14.7195 88.534 14.7127 88.4587 14.6796 88.3938C13.5198 86.286 17.7102 83.5494 18.729 82.302Z" fill="#00143B"/>
<path d="M17.6886 103.219C18.0624 103.879 18.4008 104.497 18.8106 105.139C18.8488 105.201 18.8615 105.275 18.8462 105.346C18.8309 105.417 18.7887 105.48 18.7285 105.521C18.6682 105.561 18.5946 105.577 18.5228 105.565C18.451 105.553 18.3867 105.514 18.3432 105.455C17.9766 104.932 17.5356 104.289 16.8918 103.261C16.8674 103.22 16.8513 103.175 16.8445 103.128C16.8377 103.08 16.8404 103.032 16.8523 102.986C16.8642 102.94 16.8852 102.897 16.9141 102.859C16.9429 102.821 16.979 102.789 17.0202 102.765C21.4764 100.134 24.2724 99.4152 28.9038 97.3734C32.1768 95.9334 43.1238 91.1334 45.294 90.1488C45.3529 90.1221 45.4166 90.1079 45.4812 90.1072C45.5458 90.1065 45.6098 90.1192 45.6692 90.1446C45.7285 90.17 45.782 90.2075 45.8261 90.2547C45.8702 90.3019 45.9039 90.3578 45.9252 90.4188C46.8558 93.1398 48.2556 96.1998 49.6332 100.253C49.6587 100.329 49.6532 100.412 49.6179 100.485C49.5827 100.557 49.5205 100.613 49.4447 100.64C49.3689 100.667 49.2856 100.663 49.2125 100.63C49.1394 100.596 49.0824 100.535 49.0536 100.46C48.0216 97.6398 46.6134 95.0598 45.2202 91.2024C43.2 92.1222 32.5602 96.807 29.2836 98.238C25.7544 99.78 20.9964 101.466 17.6886 103.219Z" fill="#00143B"/>
<path d="M22.8138 67.0674C22.656 66.4128 22.5138 65.7564 22.3782 65.1006C22.2132 65.151 22.2702 65.145 22.0782 65.2176C21.9745 65.2567 21.8604 65.2581 21.7557 65.2215C21.6511 65.185 21.5626 65.1129 21.5058 65.0178C21.5669 65.9623 21.2666 66.8947 20.6658 67.626C20.7756 67.572 21.5052 67.4484 22.8138 67.0674Z" fill="#57c2b4"/>
<path d="M26.6292 58.6392C24.615 57.1992 21.282 57.3126 19.065 58.305C18.7956 58.4172 18.8712 59.847 17.991 61.413C17.9639 61.4646 17.9498 61.522 17.9501 61.5802C17.9504 61.6385 17.9649 61.6957 17.9926 61.747C18.0202 61.7983 18.06 61.842 18.1085 61.8742C18.157 61.9065 18.2126 61.9264 18.2706 61.932C19.0216 61.9687 19.7398 62.2512 20.3144 62.7362C20.889 63.2212 21.2883 63.8816 21.4506 64.6158C21.4728 64.728 21.4314 64.485 21.6984 64.3512C21.8606 64.2875 22.0184 64.213 22.1706 64.128C22.035 63.5136 21.8832 62.9028 21.7296 62.2902C21.327 62.3502 20.928 62.4324 20.5296 62.5206C20.4597 62.5362 20.3866 62.5246 20.325 62.4882C20.2634 62.4518 20.2179 62.3934 20.1978 62.3247C20.1776 62.2561 20.1843 62.1823 20.2165 62.1185C20.2487 62.0546 20.304 62.0053 20.3712 61.9806C20.7636 61.8372 21.1512 61.6956 21.5532 61.5822C21.2784 60.4782 21.303 60.426 21.1482 59.7294C21.1227 59.6593 21.1262 59.5818 21.1578 59.5142C21.1894 59.4466 21.2466 59.3943 21.3168 59.3688C21.387 59.3434 21.4644 59.3468 21.532 59.3785C21.5996 59.4101 21.6519 59.4673 21.6774 59.5374C22.0027 60.1253 22.2642 60.7462 22.4574 61.3896C24.8382 61.0626 25.5312 62.3658 23.9958 63.9162C26.6772 63.8244 27.036 65.0952 26.0634 66.3126C25.4808 66.9741 24.7151 67.4479 23.8632 67.674C23.9232 68.0442 23.97 68.4966 24.0288 68.8884C24.0387 68.9276 24.0408 68.9683 24.035 69.0082C24.0292 69.0481 24.0156 69.0865 23.995 69.1212C23.9743 69.1559 23.9471 69.1862 23.9147 69.2103C23.8824 69.2345 23.8456 69.252 23.8065 69.2619C23.7674 69.2719 23.7267 69.274 23.6867 69.2682C23.6468 69.2624 23.6084 69.2488 23.5737 69.2281C23.539 69.2075 23.5087 69.1802 23.4846 69.1479C23.4604 69.1155 23.4429 69.0788 23.433 69.0396C23.2818 68.6244 23.1516 68.286 23.0304 67.884C22.272 68.0376 21.5022 68.0934 20.8608 68.2056C20.8088 68.2164 20.755 68.2136 20.7044 68.1975C20.6539 68.1814 20.6083 68.1525 20.5721 68.1137C20.5359 68.0749 20.5104 68.0274 20.4979 67.9758C20.4854 67.9242 20.4864 67.8703 20.5008 67.8192C19.8864 68.5026 19.6008 68.4468 19.5762 68.8242C19.5716 68.893 19.5823 68.9619 19.6074 69.0261C19.6325 69.0903 19.6714 69.1482 19.7214 69.1956C20.0541 69.4885 20.2952 69.8713 20.4155 70.2979C20.5359 70.7245 20.5305 71.1768 20.4 71.6004C20.3805 71.6724 20.3783 71.748 20.3936 71.8211C20.4089 71.8941 20.4413 71.9624 20.4881 72.0205C20.535 72.0786 20.5949 72.1247 20.663 72.1552C20.7311 72.1856 20.8055 72.1995 20.88 72.1956C21.736 72.164 22.5864 72.0434 23.4174 71.8356C29.7738 70.161 31.4046 62.1504 26.6292 58.6392Z" fill="#57c2b4"/>
<path d="M23.8848 62.4049C23.7288 62.2117 22.9308 62.2057 22.6848 62.2075C22.7916 62.6119 22.8924 63.0109 23.0154 63.5365C23.0814 63.4809 23.1456 63.4243 23.208 63.3667C23.3484 63.2365 24 62.5465 23.8848 62.4049Z" fill="#57c2b4"/>
<path d="M25.329 65.7299C25.4208 65.6099 25.6476 65.2895 25.6086 65.1533C25.572 65.0369 25.2228 64.9487 25.0824 64.9211C24.4978 64.8332 23.9036 64.831 23.3184 64.9145C23.4486 65.5331 23.5728 66.1535 23.6958 66.7745C24.3243 66.5797 24.8885 66.2188 25.329 65.7299Z" fill="#57c2b4"/>
<path d="M16.0404 85.3422C17.1372 88.1562 22.203 87.1818 25.1046 86.3838C25.9033 86.1616 26.6877 85.8911 27.4536 85.5738C27.4928 85.5631 27.5296 85.5447 27.5617 85.5197C27.5938 85.4947 27.6206 85.4636 27.6406 85.4282C27.6606 85.3927 27.6734 85.3537 27.6782 85.3133C27.683 85.2729 27.6798 85.232 27.6687 85.1928C27.6576 85.1537 27.6388 85.1171 27.6135 85.0853C27.5882 85.0534 27.5568 85.0269 27.5212 85.0073C27.4856 84.9876 27.4464 84.9752 27.406 84.9708C27.3655 84.9664 27.3246 84.9701 27.2856 84.9816C26.6028 85.116 25.9752 85.2246 25.215 85.4082C23.076 85.9236 19.9188 86.6862 17.8548 85.9836C17.3284 85.8379 16.8655 85.5213 16.539 85.0836C16.5021 85.0223 16.4432 84.9773 16.3744 84.9579C16.3055 84.9384 16.2318 84.9459 16.1683 84.9789C16.1048 85.0118 16.0562 85.0677 16.0325 85.1352C16.0087 85.2027 16.0115 85.2767 16.0404 85.3422Z" fill="#00143B"/>
<path d="M34.1136 61.8155C33.6239 57.1815 32.8888 52.5766 31.9117 48.0203C31.6279 46.7357 30.7855 42.8603 29.8489 42.1367C28.3981 41.0099 26.4403 41.4257 24.7315 41.6189C22.1827 41.9087 8.61245 44.7323 7.43225 46.9481C5.91605 49.8161 8.03225 55.1363 8.86145 58.0679C8.86978 58.1047 8.88541 58.1395 8.90741 58.1701C8.9294 58.2008 8.95732 58.2267 8.98952 58.2463C9.02171 58.266 9.05752 58.279 9.09483 58.2846C9.13214 58.2901 9.17018 58.2882 9.20672 58.2788C9.24325 58.2694 9.27753 58.2528 9.30752 58.2299C9.33751 58.207 9.36261 58.1783 9.38133 58.1456C9.40004 58.1128 9.412 58.0767 9.41649 58.0392C9.42097 58.0018 9.4179 57.9638 9.40745 57.9275C8.79665 55.3145 6.95345 49.7597 8.24285 47.3825C8.55545 46.8053 11.2267 45.8723 11.8471 45.6617C13.7617 48.1217 16.2583 47.3567 19.0783 46.6769C19.752 46.5265 20.4174 46.3404 21.0715 46.1195C22.8055 45.4943 24.0282 44.4827 24.3337 42.6689C24.3937 42.6569 24.7536 42.5717 24.8389 42.5621C26.2854 42.3965 28.1166 41.9879 29.2717 42.8819C30.6427 43.9415 33.2605 60.1961 33.5047 61.8923C33.5081 61.9337 33.5198 61.9739 33.5391 62.0105C33.5585 62.0472 33.5851 62.0796 33.6173 62.1057C33.6495 62.1318 33.6866 62.1512 33.7265 62.1625C33.7664 62.1739 33.8081 62.1771 33.8493 62.1719C33.8904 62.1667 33.93 62.1533 33.9658 62.1323C34.0016 62.1114 34.0328 62.0835 34.0575 62.0502C34.0822 62.0169 34.0999 61.9789 34.1096 61.9386C34.1192 61.8983 34.1206 61.8564 34.1136 61.8155Z" fill="#00143B"/>
<path d="M109.843 47.1426C109.795 45.7518 109.519 44.298 108.416 43.4616C105.065 40.9524 95.3658 42.3624 91.2156 43.0698C89.4 43.3818 87.1956 43.5456 85.6596 44.7054C82.7976 46.8768 84.9804 54.711 85.2162 56.6568C85.2231 56.7312 85.2592 56.7998 85.3166 56.8476C85.3741 56.8954 85.4481 56.9184 85.5225 56.9115C85.5969 56.9047 85.6655 56.8686 85.7133 56.8111C85.7611 56.7537 85.7841 56.6796 85.7772 56.6052C85.6746 54.9444 84.9528 50.9778 85.1436 48.3552C85.3128 46.0374 85.905 45.2106 88.1016 44.6022C88.8521 44.4096 89.6135 44.2622 90.3816 44.1606C92.28 47.4714 102.512 45.8136 103.568 43.0206C104.888 43.11 106.852 43.359 107.941 44.1168C108.854 44.7432 109.127 46.056 109.226 47.1768C109.232 47.2578 109.269 47.3332 109.33 47.3866C109.392 47.44 109.471 47.4672 109.552 47.4622C109.633 47.4572 109.709 47.4205 109.763 47.36C109.817 47.2995 109.845 47.2201 109.841 47.139L109.843 47.1426Z" fill="#00143B"/>
<path d="M100.82 64.02C100.168 63.7712 99.467 63.6741 98.7714 63.7362C98.8626 64.5324 98.9604 65.3286 99.0192 66.1272C99.7728 65.9256 100.791 65.547 101.153 64.8594C101.386 64.431 101.273 64.2288 100.82 64.02Z" fill="#57c2b4"/>
<path d="M98.6537 62.6117C98.8337 62.4863 99.1007 62.2475 99.0797 62.0309C99.0587 61.8143 98.7641 61.6295 98.5583 61.5461C98.5901 61.9013 98.6207 62.2565 98.6537 62.6117Z" fill="#57c2b4"/>
<path d="M103.686 59.58C101.133 56.229 95.0256 56.9256 92.847 60.321C90.3222 64.254 91.947 71.0436 98.499 70.821C104.912 70.5876 106.532 63.3192 103.686 59.58ZM101.96 65.307C101.38 66.3144 100.206 66.7212 99.0522 66.867C99.0522 67.209 99.0324 67.5444 99.0162 67.887C99.0213 67.9685 98.9939 68.0487 98.94 68.1099C98.886 68.1712 98.8099 68.2085 98.7285 68.2137C98.647 68.2189 98.5668 68.1915 98.5055 68.1375C98.4443 68.0836 98.4069 68.0075 98.4018 67.926C98.3418 67.5924 98.2686 67.266 98.2098 66.9348C98.049 66.9402 97.8942 66.942 97.749 66.942C97.6746 66.9464 97.6015 66.9211 97.5457 66.8718C97.4899 66.8225 97.4559 66.7531 97.451 66.6788C97.4462 66.6045 97.471 66.5312 97.5199 66.4751C97.5689 66.419 97.6381 66.3845 97.7124 66.3792C97.8414 66.3642 97.9776 66.345 98.1192 66.3192C97.911 64.7148 97.6938 62.916 97.6044 61.3926C97.4868 61.3926 97.3646 61.4006 97.2378 61.4166C97.4023 63.1102 97.473 64.8116 97.4496 66.513C97.452 66.5943 97.4225 66.6734 97.3673 66.7332C97.3121 66.793 97.2356 66.8288 97.1544 66.8328C97.114 66.8345 97.0738 66.8282 97.0359 66.8143C96.998 66.8004 96.9633 66.7792 96.9336 66.7518C96.9039 66.7244 96.88 66.6915 96.8631 66.6548C96.8462 66.6182 96.8367 66.5785 96.8352 66.5382C96.6258 64.2702 96.5952 64.9392 96.276 61.0572C96.2678 60.944 96.301 60.8318 96.3694 60.7413C96.4379 60.6507 96.5369 60.5882 96.648 60.5652C96.959 60.4991 97.2756 60.4631 97.5936 60.4578C97.6174 60.0891 97.6596 59.7219 97.7202 59.3574C97.7187 59.3194 97.725 59.2815 97.7386 59.246C97.7522 59.2105 97.7729 59.1781 97.7994 59.1508C97.8258 59.1235 97.8576 59.1018 97.8927 59.0871C97.9277 59.0724 97.9654 59.065 98.0035 59.0653C98.0415 59.0656 98.0791 59.0736 98.1139 59.0888C98.1488 59.104 98.1802 59.1261 98.2063 59.1538C98.2323 59.1815 98.2525 59.2142 98.2656 59.2499C98.2787 59.2856 98.2844 59.3236 98.2824 59.3616C98.3184 59.6178 98.4024 60.0666 98.4624 60.54C99.951 60.8634 100.346 61.971 99.7794 62.8128C101.545 62.9868 102.755 63.8922 101.96 65.3076V65.307Z" fill="#57c2b4"/>
<path d="M91.7496 74.9131C91.8648 75.0103 92.2068 75.3331 92.4312 75.5017C92.8986 75.8515 93.3948 76.1851 93.8652 76.5559C94.5985 77.2133 95.3868 77.8067 96.2214 78.3295C96.2828 78.3835 96.363 78.4108 96.4446 78.4056C96.5261 78.4004 96.6022 78.363 96.6561 78.3016C96.7101 78.2403 96.7374 78.16 96.7322 78.0785C96.727 77.997 96.6896 77.9209 96.6282 77.8669C96.4204 77.5886 96.1941 77.3246 95.9508 77.0767C95.0179 76.1992 93.9989 75.4179 92.9094 74.7445C92.623 74.6031 92.3223 74.4927 92.0124 74.4151C91.9797 74.3979 91.944 74.3872 91.9071 74.3838C91.8703 74.3804 91.8332 74.3842 91.7979 74.3951C91.7626 74.406 91.7297 74.4238 91.7013 74.4474C91.6728 74.471 91.6493 74.5 91.632 74.5327C91.6148 74.5654 91.6041 74.6012 91.6007 74.638C91.5973 74.6748 91.6011 74.7119 91.612 74.7473C91.623 74.7826 91.6407 74.8154 91.6643 74.8439C91.6879 74.8723 91.7169 74.8959 91.7496 74.9131Z" fill="#00143B"/>
<path d="M92.5326 79.4261C93.318 78.6599 92.7456 79.3421 94.2726 77.3105C94.6098 76.8629 94.977 76.4381 95.2926 75.9725C95.4528 75.7325 95.5722 75.4817 95.7192 75.2327C95.7451 75.2018 95.7648 75.1661 95.7769 75.1277C95.7891 75.0892 95.7936 75.0487 95.7901 75.0085C95.7866 74.9683 95.7752 74.9292 95.7566 74.8934C95.738 74.8576 95.7126 74.8258 95.6817 74.7998C95.6508 74.7739 95.6151 74.7542 95.5766 74.7421C95.5381 74.7299 95.4977 74.7254 95.4575 74.7289C95.4173 74.7324 95.3781 74.7438 95.3423 74.7624C95.3065 74.781 95.2747 74.8064 95.2488 74.8373C95.0388 75.0173 94.8252 75.1715 94.632 75.3671C93.931 76.1655 93.281 77.0072 92.6856 77.8871C92.4093 78.2575 92.1993 78.6731 92.0652 79.1153C92.0239 79.1777 92.0091 79.2539 92.024 79.3272C92.0389 79.4006 92.0823 79.4649 92.1447 79.5062C92.2071 79.5475 92.2833 79.5624 92.3566 79.5474C92.4299 79.5325 92.4943 79.4891 92.5356 79.4267L92.5326 79.4261Z" fill="#00143B"/>
<path d="M97.5 74.7095C97.6076 74.9192 97.732 75.1199 97.872 75.3095C98.1276 75.6305 99.492 76.9535 99.9288 77.3645C100.162 77.5836 100.418 77.7773 100.693 77.9423C100.748 78.0021 100.825 78.0372 100.907 78.0401C100.989 78.043 101.068 78.0133 101.128 77.9576C101.188 77.9019 101.223 77.8248 101.226 77.7431C101.229 77.6615 101.199 77.582 101.143 77.5223C100.637 76.6985 100.783 76.8881 99.6534 75.7697C98.3838 74.5097 98.3826 74.5901 97.9008 74.3123C97.8747 74.286 97.8437 74.2651 97.8095 74.2507C97.7753 74.2364 97.7387 74.2289 97.7016 74.2288C97.6646 74.2286 97.6279 74.2357 97.5936 74.2498C97.5593 74.2638 97.5281 74.2844 97.5018 74.3105C97.4754 74.3366 97.4545 74.3676 97.4402 74.4018C97.4258 74.4359 97.4184 74.4726 97.4182 74.5096C97.418 74.5467 97.4252 74.5834 97.4392 74.6177C97.4532 74.652 97.4739 74.6832 97.5 74.7095Z" fill="#00143B"/>
<path d="M97.9422 78.4799C98.4822 77.9969 98.37 78.1643 99.4938 76.6031C100.559 75.1367 100.318 75.5663 100.808 74.5307C100.854 74.4644 100.872 74.3829 100.858 74.3035C100.845 74.2242 100.8 74.1533 100.735 74.1062C100.67 74.0591 100.589 74.0395 100.509 74.0516C100.429 74.0636 100.358 74.1064 100.309 74.1707C100.082 74.3618 99.8692 74.5693 99.6726 74.7917C99.0888 75.4991 97.965 77.0825 97.776 77.4221C97.6534 77.6624 97.5516 77.9127 97.4718 78.1703C97.4307 78.2327 97.4161 78.3088 97.4312 78.382C97.4463 78.4551 97.4898 78.5193 97.5522 78.5603C97.6146 78.6014 97.6907 78.616 97.7638 78.6009C97.837 78.5858 97.9011 78.5423 97.9422 78.4799Z" fill="#00143B"/>
<path d="M102.448 74.1379C102.532 74.3666 102.64 74.5858 102.77 74.7919C103.376 75.5439 104.03 76.2567 104.726 76.9261C104.927 77.0981 105.141 77.2547 105.365 77.3947C105.42 77.4549 105.497 77.4907 105.578 77.4943C105.659 77.4979 105.739 77.469 105.799 77.4139C105.859 77.3588 105.895 77.2822 105.899 77.2007C105.902 77.1192 105.873 77.0397 105.818 76.9795C105.626 76.5788 105.361 76.2169 105.038 75.9115C103.038 73.7329 103.438 74.2033 102.889 73.7887C102.841 73.7351 102.775 73.7018 102.703 73.6956C102.632 73.6894 102.56 73.7108 102.504 73.7554C102.448 73.8 102.41 73.8644 102.4 73.9355C102.389 74.0066 102.406 74.079 102.448 74.1379Z" fill="#00143B"/>
<path d="M102.505 78.228C103.234 77.448 102.828 77.9814 104.114 75.9852C104.418 75.513 104.754 75.0624 105.038 74.58C105.185 74.3316 105.289 74.0742 105.425 73.8204C105.471 73.7553 105.49 73.6753 105.477 73.5969C105.465 73.5185 105.423 73.4478 105.36 73.3996C105.297 73.3513 105.218 73.3293 105.139 73.3381C105.06 73.3468 104.988 73.3857 104.937 73.4466C104.729 73.6251 104.531 73.8148 104.344 74.0148C103.694 74.8626 103.1 75.7521 102.567 76.6776C102.318 77.065 102.133 77.4906 102.021 77.9376C102.001 77.9694 101.987 78.005 101.98 78.0423C101.974 78.0796 101.975 78.1178 101.984 78.1546C101.992 78.1914 102.008 78.2261 102.031 78.2566C102.053 78.2871 102.081 78.3128 102.114 78.3322C102.146 78.3516 102.182 78.3642 102.22 78.3693C102.257 78.3745 102.296 78.372 102.332 78.3622C102.369 78.3523 102.403 78.3351 102.432 78.3118C102.462 78.2884 102.487 78.2593 102.505 78.2262V78.228Z" fill="#00143B"/>
<path d="M115.647 66.7746C116.868 64.7472 116.386 62.1486 115.337 60.0474C116.99 58.9464 117.038 57.1488 116.264 55.32C115.114 52.9509 113.401 50.8997 111.275 49.3458C110.255 48.6858 107.782 47.9928 106.541 48.525C105.81 48.8394 105.405 49.5654 105.779 50.745C106.248 52.2282 107.489 53.3016 108.648 54.297C106.297 54.5502 104.462 56.277 105.493 58.743C106.146 60.0327 107.032 61.1901 108.107 62.1564C104.105 62.8956 105.752 67.8192 108.559 70.413C108.135 70.6358 107.783 70.9746 107.545 71.3898C106.276 73.7568 110.333 77.1594 111.618 78.6954C111.643 78.7282 111.675 78.7555 111.71 78.7759C111.746 78.7962 111.786 78.8092 111.827 78.8139C111.868 78.8187 111.909 78.8152 111.949 78.8036C111.988 78.792 112.025 78.7726 112.057 78.7465C112.089 78.7204 112.115 78.6882 112.135 78.6517C112.154 78.6152 112.166 78.5753 112.169 78.5342C112.173 78.4931 112.168 78.4517 112.155 78.4125C112.142 78.3733 112.122 78.3371 112.094 78.306C111.176 77.1528 107.461 73.7172 108.19 71.9166C108.715 70.6128 109.813 70.8582 110.809 71.478C111.506 71.9821 112.129 72.5811 112.66 73.2576C112.829 73.4376 113.003 73.5978 113.171 73.7766C113.218 73.8421 113.288 73.8868 113.367 73.9013C113.446 73.9158 113.527 73.8989 113.594 73.8543C113.661 73.8096 113.707 73.7407 113.724 73.6622C113.74 73.5837 113.726 73.5018 113.683 73.434C113.576 73.2018 113.479 72.9744 113.353 72.75C112.84 71.9083 112.139 71.1968 111.305 70.6716C111.245 70.6356 106.703 69.3012 106.629 64.9284C106.611 64.6955 106.64 64.4613 106.714 64.2396C106.788 64.0179 106.905 63.8131 107.059 63.6372C108.259 62.3808 109.601 63.3324 110.826 64.443C111.28 64.8558 111.679 65.3244 112.102 65.7576C112.294 65.9532 112.501 66.114 112.692 66.3036C112.74 66.37 112.812 66.4147 112.893 66.4278C112.973 66.441 113.056 66.4216 113.122 66.3738C113.189 66.3261 113.233 66.2539 113.246 66.1733C113.26 66.0926 113.24 66.01 113.192 65.9436C112.806 65.0801 112.214 64.324 111.469 63.741C110.624 62.961 107.41 60.9018 106.36 58.3806C106.124 57.9651 106.055 57.4753 106.168 57.0109C106.28 56.5466 106.566 56.1427 106.966 55.8816C109.006 54.3348 110.462 55.5012 111.49 56.5116C111.917 56.9568 112.318 57.4268 112.69 57.9192C112.862 58.1322 113.053 58.3158 113.224 58.5324C113.263 58.604 113.33 58.6569 113.409 58.6794C113.488 58.7019 113.572 58.6922 113.644 58.6524C113.715 58.6126 113.768 58.546 113.791 58.4673C113.813 58.3885 113.803 58.304 113.764 58.2324C113.674 57.9536 113.563 57.6823 113.431 57.4212C112.818 56.436 112.016 55.5823 111.07 54.9096C109.845 54.1539 108.73 53.2337 107.755 52.1748C107.276 51.6873 106.91 51.1002 106.683 50.4552C106.414 49.6116 106.676 49.3494 107.39 49.2858C108.567 49.27 109.728 49.5634 110.756 50.1366C112.732 51.579 114.323 53.4838 115.392 55.6842C116.07 57.279 116.023 58.6506 114.492 59.4462C114.436 59.4752 114.386 59.515 114.346 59.5635C114.306 59.612 114.276 59.668 114.258 59.7283C114.239 59.7887 114.234 59.852 114.24 59.9147C114.247 59.9773 114.266 60.038 114.297 60.093C115.385 62.0508 115.986 64.6464 114.717 66.4944C114.666 66.5683 114.637 66.6553 114.635 66.7451C114.632 66.8349 114.655 66.9235 114.702 67.0002C116.242 69.5202 116.714 72.396 114.986 74.7618C114.938 74.8274 114.909 74.9052 114.902 74.9864C114.896 75.0676 114.912 75.149 114.95 75.2214C117.175 79.4046 115.173 81.9894 111.036 84.258C111.128 82.542 110.865 80.9796 110.84 79.596C110.84 79.5146 110.808 79.4364 110.75 79.3788C110.692 79.3212 110.614 79.2888 110.533 79.2888C110.451 79.2888 110.373 79.3212 110.315 79.3788C110.258 79.4364 110.225 79.5146 110.225 79.596C110.17 85.4208 110.693 88.8186 104.629 89.4474C102.145 89.7048 99.3811 89.415 97.4587 89.5494C94.3021 89.7792 90.8779 90.0204 89.5507 87.1278C89.5196 87.0613 89.4638 87.0095 89.3951 86.9835C89.3264 86.9575 89.2503 86.9593 89.1829 86.9885C89.1156 87.0177 89.0623 87.0721 89.0343 87.14C89.0064 87.2079 89.0061 87.2841 89.0335 87.3522C90.4609 90.8322 93.7609 90.7362 97.5241 90.4878C99.7789 90.3318 103.183 90.7536 105.953 90.2094C109.124 89.5872 110.641 87.9294 110.981 84.9198C115.642 82.5588 118.084 79.7598 115.845 75.06C117.618 72.4926 117.188 69.4512 115.647 66.7746Z" fill="#00143B"/>
<path d="M22.9728 76.5451C22.7928 76.4065 22.6128 76.2721 22.4328 76.1395C22.5042 76.0141 22.575 75.8893 22.6422 75.7627C23.3238 74.4853 22.578 74.2831 21.9042 75.2185C21.8148 75.3385 21.7308 75.4633 21.6504 75.5911C21.5576 75.523 21.4593 75.4628 21.3564 75.4111C21.2784 75.3733 20.6508 75.1111 20.487 75.3511C20.331 75.5797 20.787 76.0753 20.847 76.1365C20.9574 76.2387 21.0742 76.3337 21.1968 76.4209C21.0367 76.7133 20.9083 77.0221 20.814 77.3419C20.7612 77.5627 20.7114 78.2245 20.9754 78.3019C21.3558 78.4135 21.8472 77.2621 21.975 76.9939C22.1762 77.1501 22.3922 77.2861 22.62 77.4001C23.5638 77.8363 23.9802 77.3293 22.9728 76.5451Z" fill="#00143B"/>
<path d="M26.652 75.5874C26.4762 75.4441 26.2874 75.3175 26.088 75.2095C26.2764 74.8663 26.2938 74.8429 26.3328 74.7505C26.544 74.2561 26.6226 74.0005 26.4174 73.8547C26.1534 73.6645 25.6566 74.1961 25.554 74.3179C25.4461 74.4488 25.3505 74.5894 25.2684 74.7379C25.2084 74.7043 24.8634 74.511 24.7584 74.4702C24.6984 74.4462 24.0444 74.2063 23.8908 74.4481C23.7372 74.6899 24.2364 75.1741 24.2976 75.2281C24.4572 75.3533 24.6266 75.4656 24.804 75.5641C24.6672 75.8077 24.544 76.0586 24.435 76.3159C24.357 76.5061 24.135 77.1643 24.3984 77.3149C24.5898 77.4247 24.75 77.3088 25.1082 76.9134C25.3103 76.644 25.4851 76.3552 25.6302 76.0513C25.9872 76.2499 26.847 76.7443 27.0768 76.3825C27.2478 76.1191 26.7126 75.639 26.652 75.5874Z" fill="#00143B"/>
<path d="M30.303 74.46C30.1224 74.3138 29.9339 74.1776 29.7384 74.052C29.8242 73.8936 30.0384 73.4994 30.1044 73.332C30.2844 72.8646 30.3738 72.5838 30.147 72.4428C29.8686 72.2712 29.3976 72.8466 29.307 72.9612C29.1651 73.1462 29.0373 73.3415 28.9248 73.5456C28.7596 73.4412 28.5848 73.3528 28.4028 73.2816C28.2174 73.2216 27.6396 73.0974 27.5256 73.3596C27.432 73.569 27.5982 73.7196 27.9354 74.0196C28.1038 74.151 28.2805 74.2713 28.4646 74.3796C28.3662 74.5596 28.0764 75.1044 28.0092 75.297C27.5994 76.4676 28.1856 76.563 28.7892 75.711C28.89 75.5712 28.9314 75.4866 29.2692 74.8854C29.4339 74.9971 29.6077 75.0946 29.7888 75.177C29.8608 75.2046 30.534 75.4524 30.6888 75.1668C30.8238 74.9178 30.5886 74.7198 30.303 74.46Z" fill="#00143B"/>
<path d="M100.524 91.9499C100.493 91.9243 100.457 91.9051 100.418 91.8934C100.38 91.8818 100.339 91.8778 100.299 91.8818C100.259 91.8858 100.22 91.8977 100.184 91.9168C100.148 91.9359 100.117 91.9618 100.091 91.9931C98.1049 94.1027 96.6841 96.3557 94.9747 99.1655C88.1539 95.0621 82.0471 92.9855 75.5719 88.6133C76.3969 86.9801 77.2645 84.8705 77.2387 83.0333C77.1073 75.1133 79.1779 67.5737 83.9323 61.4753C85.1923 59.8553 87.5725 56.6597 89.6503 56.7953C90.9199 56.8775 91.1257 59.0615 90.8785 60.2825C90.1981 63.6095 87.5185 66.6155 85.3873 69.2447C85.3158 69.3324 85.279 69.4434 85.284 69.5564C85.289 69.6695 85.3353 69.7768 85.4143 69.8579C87.5482 72.0626 88.9135 74.897 89.3074 77.9399C89.7012 80.9827 89.1024 84.0714 87.6001 86.7467C87.5603 86.8183 87.5506 86.9028 87.5731 86.9816C87.5956 87.0603 87.6484 87.1269 87.7201 87.1667C87.7917 87.2065 87.8761 87.2162 87.9549 87.1937C88.0337 87.1712 88.1003 87.1183 88.1401 87.0467C91.3633 81.3671 90.8779 74.4371 86.3581 69.5147C87.7048 67.9625 88.9444 66.3205 90.0685 64.6001C91.3837 62.4569 92.5285 59.6351 91.5559 57.3017C90.6415 55.0961 88.3255 55.6673 86.4763 57.2093C85.2534 58.3196 84.1491 59.5539 83.1811 60.8921C78.2083 67.2809 76.1671 75.0521 76.3183 83.0507C76.3483 84.4475 75.7873 86.0927 74.9827 87.8219C74.3653 89.1455 70.9549 94.3571 69.0379 98.3819C69.0196 98.4153 69.0082 98.452 69.0045 98.4898C69.0008 98.5277 69.0048 98.5659 69.0162 98.6022C69.0277 98.6385 69.0463 98.672 69.0711 98.7009C69.0958 98.7298 69.1262 98.7534 69.1603 98.7702C69.1944 98.7871 69.2315 98.7968 69.2695 98.799C69.3075 98.8011 69.3455 98.7955 69.3813 98.7825C69.417 98.7696 69.4498 98.7495 69.4776 98.7236C69.5054 98.6976 69.5277 98.6663 69.5431 98.6315C70.0345 97.6751 70.7383 96.5525 71.5231 95.3357C74.3863 97.2077 77.4097 98.3891 80.4085 99.9473C82.0105 100.776 91.3213 105.912 91.3213 105.851C91.3885 105.887 91.4664 105.898 91.541 105.882C91.6156 105.867 91.6823 105.825 91.7293 105.765H91.7083C97.1983 98.0075 92.7223 104.393 97.3189 97.2077C97.9789 96.1793 100.525 92.4461 100.569 92.3843C100.595 92.3529 100.614 92.3167 100.625 92.2778C100.637 92.2389 100.641 92.1981 100.637 92.1578C100.633 92.1174 100.62 92.0783 100.601 92.0426C100.582 92.0069 100.556 91.9754 100.524 91.9499Z" fill="#00143B"/>
</svg>
