<svg width="120" height="120" viewBox="0 0 120 120" fill="none" xmlns="http://www.w3.org/2000/svg">
<path d="M75.9222 53.6364C75.0677 53.9849 74.1365 54.1022 73.2222 53.9766C67.9306 53.8386 62.6406 53.6974 57.3522 53.553C53.0088 53.433 48.981 54.045 45.6768 50.8104C45.4014 50.5392 44.8794 50.8986 45.12 51.2304C47.544 54.636 52.3008 54.2718 55.9842 54.36C61.729 54.5008 67.4738 54.6483 73.2186 54.8028C77.8326 54.9216 76.5 53.3256 75.9222 53.6364ZM81.2106 44.5416C81.51 45.7539 81.5271 47.0187 81.2607 48.2387C80.9943 49.4586 80.4515 50.6012 79.674 51.5784C79.6368 51.6233 79.5911 51.6605 79.5396 51.6878C79.488 51.7151 79.4316 51.732 79.3735 51.7374C79.3154 51.7429 79.2568 51.7369 79.2011 51.7198C79.1453 51.7026 79.0935 51.6746 79.0485 51.6375C79.0036 51.6003 78.9664 51.5546 78.9391 51.503C78.9118 51.4515 78.8949 51.395 78.8894 51.3369C78.8839 51.2789 78.8899 51.2203 78.9071 51.1645C78.9242 51.1087 78.9522 51.0569 78.9894 51.012C79.8778 49.8748 80.4122 48.5016 80.5261 47.063C80.6399 45.6245 80.3281 44.1842 79.6296 42.9216C77.2956 38.8146 73.7208 38.8049 69.6696 38.7018C67.6704 38.6472 59.7324 38.4504 54.6312 38.421C52.3266 38.421 50.8638 38.3124 48.678 38.9136C47.7131 39.1711 46.8128 39.6276 46.0349 40.2539C45.2569 40.8801 44.6186 41.6621 44.1609 42.5497C43.7032 43.4373 43.4363 44.4109 43.3772 45.4078C43.3182 46.4047 43.4683 47.4029 43.818 48.3384C43.8591 48.4305 43.862 48.5352 43.8259 48.6294C43.7899 48.7237 43.7178 48.7997 43.6257 48.8408C43.5336 48.882 43.4289 48.8848 43.3346 48.8488C43.2404 48.8127 43.1643 48.7407 43.1232 48.6486C42.3833 46.8458 42.3408 44.8321 43.0041 42.9998C43.6673 41.1674 44.9888 39.6475 46.7112 38.7359C48.78 37.6427 52.4712 37.5246 54.738 37.569L69.7224 37.884C74.607 37.9974 79.8174 38.8368 81.2106 44.5416Z" fill="#57c2b4"/>
<path d="M70.3524 51.8886C64.5966 51.7686 57.6972 51.6078 52.074 51.519C52.0344 47.949 52.236 43.9458 52.074 40.4592C52.074 40.026 51.4092 40.11 51.3504 40.4892C51.099 42.0696 51.2418 51.2928 51.399 51.7848C51.4638 52.0068 51.4344 52.2774 51.744 52.3122C57.4764 52.6662 64.8378 52.6074 70.5294 52.7256C70.8348 52.7256 71.0862 52.3758 71.106 51.9378C71.2536 48.1458 71.3936 44.3526 71.526 40.5582C71.526 40.3068 71.151 39.9966 70.935 39.9918C65.215 39.8242 59.495 39.7042 53.775 39.6318C53.2824 39.6318 53.3706 40.3554 53.8386 40.365C59.4714 40.5078 65.1102 40.6458 70.7484 40.8132C70.6134 44.5074 70.4754 48.1956 70.3524 51.8886Z" fill="#001A4A"/>
<path d="M66.8958 42.0497C66.231 42.0497 66.3048 42.7739 66.8274 42.8231C67.5108 42.8867 68.235 42.9557 68.9196 42.9803C69.0395 42.976 69.153 42.9253 69.2363 42.839C69.3196 42.7527 69.3661 42.6374 69.3661 42.5174C69.3661 42.3974 69.3196 42.2822 69.2363 42.1958C69.153 42.1095 69.0395 42.0588 68.9196 42.0545C68.7738 42.0185 67.2828 42.0497 66.8958 42.0497ZM56.4078 41.4443C55.4456 41.3711 54.4792 41.3711 53.517 41.4443C53.0736 41.4983 53.0244 42.2321 53.517 42.2471C53.8026 42.2471 56.4714 42.4145 56.5014 42.4145C56.6041 42.3769 56.6913 42.3063 56.7494 42.2137C56.8076 42.1211 56.8333 42.0119 56.8226 41.9031C56.8119 41.7943 56.7653 41.6921 56.6902 41.6127C56.6152 41.5332 56.5158 41.481 56.4078 41.4641V41.4443ZM57.3234 47.8457C56.0124 48.4739 54.7878 49.2785 53.5218 49.9877C53.4467 50.04 53.3954 50.12 53.3793 50.21C53.3631 50.3001 53.3834 50.3929 53.4357 50.468C53.488 50.5431 53.568 50.5944 53.658 50.6105C53.7481 50.6267 53.8409 50.6064 53.916 50.5541C54.4086 50.2877 57.3234 48.7319 57.6036 48.2543C57.7122 48.0671 57.504 47.7599 57.3234 47.8457ZM68.5056 50.0465C66.1284 48.9491 65.6256 47.6981 65.2212 48.2051C65.1703 48.2731 65.1475 48.3581 65.1576 48.4424C65.1676 48.5268 65.2097 48.604 65.2752 48.6581C66.1633 49.4656 67.1575 50.1481 68.2302 50.6867C68.3148 50.7235 68.4105 50.7252 68.4964 50.6915C68.5822 50.6577 68.6511 50.5913 68.688 50.5067C68.7243 50.4214 68.7254 50.3253 68.6913 50.2392C68.6572 50.153 68.5904 50.0838 68.5056 50.0465Z" fill="#57c2b4"/>
<path d="M76.38 48.1758C75.1452 47.46 73.155 48.4956 73.392 50.0124C73.5294 50.9334 74.445 51.4896 74.712 50.997C74.979 50.5044 74.121 50.6178 74.1804 49.707C74.2494 48.5844 76.308 48.3678 76.3404 49.4706C76.3479 49.5734 76.3954 49.6693 76.4727 49.7376C76.55 49.8059 76.6509 49.8412 76.754 49.8361C76.857 49.8309 76.9539 49.7856 77.0239 49.7099C77.094 49.6342 77.1316 49.5341 77.1288 49.431C77.1208 49.1754 77.0478 48.9261 76.9168 48.7065C76.7858 48.4869 76.6011 48.3043 76.38 48.1758Z" fill="#57c2b4"/>
<path d="M49.5678 48.2202C49.389 48.0496 49.1729 47.923 48.9367 47.8505C48.7005 47.7779 48.4507 47.7613 48.207 47.8021C47.9632 47.8428 47.7324 47.9398 47.5326 48.0853C47.3329 48.2307 47.1698 48.4207 47.0562 48.6402C46.6722 49.4202 47.3514 50.5758 48.09 50.7876C49.5234 51.204 50.4684 49.2294 49.5678 48.2202ZM49.08 49.323C48.942 50.3076 47.9916 49.9878 47.79 49.461C47.4108 48.501 49.23 48.1854 49.065 49.323H49.08Z" fill="#57c2b4"/>
<path d="M48.7158 78.9001C46.5936 78.7279 44.7768 76.7629 44.9634 74.7343C45.0132 74.0647 45.417 73.2031 46.2144 73.2343C46.7658 73.2343 46.9284 72.4543 46.3518 72.3685C44.505 72.0775 43.329 74.4265 44.3526 76.8001C44.7133 77.6456 45.2933 78.3794 46.0326 78.9256C46.772 79.4718 47.6438 79.8106 48.558 79.9069C49.1982 79.9561 49.3608 78.9667 48.7158 78.9223V78.9001ZM68.22 83.1601C68.2106 83.0955 68.1886 83.0333 68.1552 82.9771C68.1218 82.921 68.0776 82.872 68.0253 82.8329C67.973 82.7938 67.9134 82.7654 67.8501 82.7494C67.7868 82.7333 67.7209 82.7298 67.6563 82.7392C67.5916 82.7486 67.5295 82.7706 67.4733 82.804C67.4172 82.8374 67.3682 82.8815 67.3291 82.9339C67.29 82.9862 67.2616 83.0458 67.2455 83.1091C67.2295 83.1724 67.226 83.2383 67.2354 83.3029C67.2648 85.0315 67.806 89.0935 68.751 90.6889C68.949 91.0141 69.5544 90.9109 69.4362 90.4921C68.7374 88.1097 68.3259 85.6522 68.2104 83.1721L68.22 83.1601ZM52.4028 83.9581C52.0686 84.8833 51.7188 85.8091 51.3546 86.7253C50.0838 89.9653 52.0938 89.1481 53.2212 84.0415C53.3682 83.1307 52.7874 82.8841 52.3932 83.9581H52.4028ZM75.3228 74.1097C75.0669 73.7243 74.6895 73.4355 74.2506 73.2892C73.8118 73.1429 73.3366 73.1474 72.9006 73.3021C72.4614 73.4941 72.6486 74.1931 73.1214 74.0305C74.1954 73.6615 75.5814 75.3103 74.8056 77.2411C73.7622 79.8811 71.004 78.8665 70.4382 79.3243C70.3832 79.3599 70.3369 79.4074 70.3027 79.4633C70.2685 79.5192 70.2473 79.5821 70.2407 79.6472C70.234 79.7124 70.242 79.7782 70.2641 79.8399C70.2863 79.9016 70.322 79.9575 70.3686 80.0035C70.8612 80.4319 72.6984 80.1313 73.323 79.9345C75.7956 79.1023 76.761 75.9145 75.3228 74.0899V74.1097Z" fill="#001A4A"/>
<path d="M91.0728 49.74C90.3696 48.9222 89.7192 47.1204 88.887 45.9384C86.3792 42.374 82.821 39.6815 78.7092 38.2368C78.2808 38.0892 78.1182 38.754 78.5292 38.9118C82.3472 40.3912 85.6466 42.9595 88.0176 46.2978C88.899 47.5386 89.4018 49.0206 90.219 50.0454C96.162 57.4608 118.395 74.4594 114.539 84.7356C114.492 84.8577 114.494 84.9938 114.547 85.1139C114.6 85.2341 114.698 85.3284 114.82 85.3761C114.942 85.4238 115.078 85.4211 115.198 85.3685C115.318 85.3159 115.413 85.2177 115.46 85.0956C119.532 74.223 97.413 57.1164 91.0752 49.7202L91.0728 49.74ZM32.7468 50.193C25.2908 57.7914 18.6011 66.1055 12.7746 75.015C11.2086 77.415 9.6276 80.1612 10.1598 83.1402C10.248 83.6322 11.0214 83.5638 10.9398 83.061C10.5114 80.3526 11.9694 77.8224 13.3998 75.6408C19.2585 66.7333 25.9543 58.4055 33.396 50.7708C35.9526 48.141 37.476 43.7292 40.7826 41.3166C41.7928 40.6778 42.8516 40.1195 43.9494 39.6468C43.9985 39.6095 44.0337 39.5568 44.0494 39.4971C44.0651 39.4375 44.0603 39.3743 44.0358 39.3176C44.0114 39.261 43.9687 39.2142 43.9145 39.1847C43.8603 39.1552 43.7978 39.1447 43.737 39.1548C41.3579 39.811 39.2669 41.2445 37.797 43.227C36.2412 45.1968 34.2516 48.687 32.7648 50.1996L32.7468 50.193ZM47.2434 45.5592C47.5242 45.2148 48.0414 45.6678 47.7654 45.9828C46.5246 47.376 45.978 49.5426 45.4956 49.9614C44.0184 51.2712 42.2502 50.8824 41.2506 52.3794C36.5778 59.3964 32.7666 68.0334 29.3706 75.6264C29.1906 76.02 28.632 75.69 28.7946 75.3054C32.3892 66.822 35.4816 59.7654 40.5042 51.9606C41.7402 50.0256 43.6242 50.6262 45.015 49.3116C45.3528 48.993 45.8796 47.2356 47.2434 45.561V45.5592ZM79.2 53.484C81.1146 54.144 82.647 53.7054 84.3264 54.9612C87.921 57.6546 96.897 72.2496 98.2368 75.8694C98.3796 76.2534 97.8228 76.6572 97.5918 76.263C93.6528 69.4728 89.3484 60.9984 83.868 55.6506C81.618 53.4498 78.708 56.8716 75.2556 50.5002C75.2326 50.4565 75.2185 50.4087 75.214 50.3596C75.2095 50.3104 75.2147 50.2609 75.2294 50.2137C75.244 50.1666 75.2678 50.1228 75.2994 50.0849C75.331 50.0469 75.3697 50.0156 75.4134 49.9926C75.4571 49.9696 75.5049 49.9555 75.554 49.951C75.6032 49.9465 75.6527 49.9517 75.6999 49.9664C75.747 49.981 75.7908 50.0048 75.8288 50.0364C75.8667 50.068 75.898 50.1067 75.921 50.1504C76.6998 51.5292 77.634 52.9452 79.2 53.484Z" fill="#001A4A"/>
<path d="M19.2348 53.262C14.8956 56.589 9.95279 64.7604 7.86959 69.8616C7.8252 69.9571 7.82055 70.0663 7.85667 70.1652C7.89279 70.2641 7.96672 70.3446 8.06219 70.389C8.15767 70.4334 8.26688 70.4381 8.36578 70.4019C8.46469 70.3658 8.5452 70.2919 8.58959 70.1964C11.8986 62.6184 15.4146 58.4916 19.728 53.7942C19.998 53.4984 19.578 52.9992 19.2348 53.262ZM114.586 54.462C112.301 51.0102 106.072 46.8984 103.438 45.3864C103.015 45.1464 102.675 45.81 103.088 46.0614C105.94 47.7846 111.563 51.9702 113.981 54.7614C114.242 55.0614 114.793 54.7614 114.591 54.4812L114.586 54.462ZM112.523 60.8286C112.76 61.1982 112.218 61.5378 111.952 61.2522C108.347 57.3768 105.034 53.9202 99.4296 50.04C99.0504 49.779 99.4296 49.1832 99.804 49.4292C103.128 51.465 110.146 57.1122 112.523 60.8256V60.8286ZM11.799 53.5722C11.871 53.5115 11.9631 53.4798 12.0572 53.4833C12.1514 53.4868 12.2408 53.5251 12.3082 53.591C12.3756 53.6568 12.4161 53.7453 12.4218 53.8394C12.4275 53.9334 12.398 54.0262 12.339 54.0996C9.48299 57.4086 6.49379 60.993 3.75119 66.4494C3.52979 66.8874 2.81579 66.5922 3.04199 66.144C4.74779 62.712 8.96759 55.941 11.799 53.5722Z" fill="#57c2b4"/>
<path d="M64.7088 12.7608C63.2862 13.5144 61.8732 14.2872 60.4548 15.0606C62.2795 11.5409 63.8097 7.87618 65.0298 4.10403C65.2098 3.52323 64.35 3.29163 64.1328 3.83823C62.5532 8.0213 60.7451 12.1145 58.7166 16.0992C58.6584 16.202 58.6346 16.3206 58.6487 16.4379C58.6628 16.5551 58.7142 16.6648 58.7951 16.7507C58.8761 16.8367 58.9825 16.8944 59.0987 16.9155C59.2149 16.9366 59.3348 16.9199 59.4408 16.8678L63.8724 14.4678C62.0724 18.5202 60.2286 22.5726 58.5984 26.6748C58.3968 27.1668 59.2434 27.5706 59.4798 27.0738C61.6116 22.5738 63.513 17.949 65.4828 13.3746C65.6742 12.9264 65.0886 12.5472 64.7088 12.7494V12.7608ZM51.9066 13.6374C51.8758 13.5236 51.8026 13.4259 51.7019 13.3645C51.6013 13.3031 51.481 13.2825 51.3657 13.3071C51.2504 13.3317 51.1489 13.3996 51.0821 13.4967C51.0153 13.5939 50.9883 13.713 51.0066 13.8294C51.4008 15.6072 52.356 19.4694 53.1066 21.0042C53.1547 21.0892 53.2313 21.1545 53.3229 21.1885C53.4144 21.2225 53.515 21.223 53.607 21.19C53.6989 21.1569 53.7761 21.0925 53.8251 21.008C53.8741 20.9235 53.8916 20.8244 53.8746 20.7282C53.5416 18.6204 52.5252 15.8034 51.9066 13.6374ZM71.5296 16.5918C71.8596 16.3212 72.4356 16.6902 72.15 17.0844C70.308 19.512 68.37 21.8706 66.4824 24.2586C66.1326 24.702 65.3694 24.111 65.6994 23.6628C66.6252 22.437 70.3674 17.5716 71.544 16.5966L71.5296 16.5918Z" fill="#57c2b4"/>
<path d="M13.9854 35.6491C13.49 35.6611 12.9962 35.712 12.5088 35.8015C12.5088 27.1267 14.421 27.1231 10.9818 27.9127C10.6122 27.9967 9.5538 28.1983 9.7314 28.7749C9.909 29.3515 10.8834 28.9549 11.8782 28.7401C11.5218 31.1575 11.3568 33.5993 11.385 36.0427C10.8335 36.1891 10.2937 36.3769 9.7704 36.6043C9.67392 36.648 9.59709 36.726 9.55478 36.8231C9.51247 36.9202 9.50769 37.0295 9.54136 37.13C9.57504 37.2304 9.64477 37.3148 9.73707 37.3667C9.82937 37.4187 9.93766 37.4346 10.041 37.4113C11.3408 37.0039 12.6818 36.7423 14.0394 36.6313C14.104 36.6278 14.1673 36.6115 14.2256 36.5835C14.284 36.5555 14.3362 36.5163 14.3794 36.4681C14.4226 36.4199 14.4558 36.3637 14.4773 36.3026C14.4987 36.2416 14.5079 36.1769 14.5044 36.1123C14.5009 36.0477 14.4846 35.9844 14.4566 35.9261C14.4286 35.8677 14.3894 35.8155 14.3412 35.7723C14.293 35.7291 14.2368 35.6959 14.1757 35.6744C14.1147 35.653 14.05 35.6438 13.9854 35.6473V35.6491Z" fill="#001A4A"/>
<path d="M8.25901 32.4035L8.24881 32.3999C7.64495 32.3856 7.04327 32.4772 6.47101 32.6705C6.40175 32.002 6.26485 31.3422 6.06241 30.7013C5.90521 30.3119 5.22541 30.3467 5.21041 30.8045C5.22843 31.5036 5.31769 32.199 5.47681 32.8799C4.60981 33.0419 3.10321 33.1355 3.22141 33.8639C3.33961 34.5923 4.74781 34.1201 5.64901 33.9239C5.72901 34.4163 5.81261 34.9087 5.89981 35.4011C5.92137 35.5369 5.996 35.6586 6.10728 35.7394C6.21857 35.8202 6.35739 35.8535 6.49321 35.8319C6.62902 35.8104 6.75071 35.7357 6.8315 35.6244C6.91229 35.5132 6.94557 35.3743 6.92401 35.2385C6.85561 34.7219 6.75181 34.2095 6.66301 33.6977C7.29999 33.645 7.92229 33.4781 8.50021 33.2051C8.85961 32.9747 8.60881 32.4599 8.25901 32.4035Z" fill="#001A4A"/>
<path d="M30.393 23.8261C28.6405 24.0861 26.9061 24.4561 25.2 24.9337C24.708 25.1653 24.708 25.6579 24.6342 26.1205C24.309 28.5805 23.8068 31.4191 23.6688 33.5659C23.6688 33.9205 23.6982 34.3831 24.1614 34.2895C25.8156 33.9499 27.4854 33.6547 29.1198 33.2359C29.7942 33.0637 29.8398 31.1185 29.8998 30.6511C30.0918 29.2423 30.294 27.8389 30.4956 26.4307C30.5946 25.7317 31.08 23.7715 30.393 23.8261ZM28.68 32.2705C27.3108 32.5321 25.9518 32.8705 24.5928 33.1963L25.6854 25.7809L29.7054 24.9535C29.4822 26.0365 28.635 31.5001 28.68 32.2705Z" fill="#001A4A"/>
<path d="M38.5422 22.0038C37.188 22.2498 35.5878 22.767 33.8448 23.0838C33.6426 23.1186 33.3522 23.217 33.3522 23.4486C32.8944 26.2896 32.4564 29.1306 32.037 31.953C31.9878 32.2674 32.1804 32.5734 32.7414 32.493C34.2044 32.285 35.6497 31.9673 37.065 31.5426C37.2019 31.4931 37.3214 31.4047 37.4089 31.2884C37.4964 31.172 37.5481 31.0326 37.5576 30.8874C38.0502 28.3122 38.6064 25.3236 39.0348 22.7676C39.0888 22.4718 39.0348 21.9054 38.5422 22.0038ZM36.735 30.6108C36.735 30.6108 34.308 31.2168 33.0864 31.4628C33.5442 28.9572 33.855 26.583 34.2864 24.0768L38.0532 23.2248C37.6902 25.83 37.065 28.5042 36.735 30.6108Z" fill="#001A4A"/>
<path d="M21.7854 25.6285C20.6334 25.8841 19.4844 26.1441 18.3384 26.4085C17.5212 26.5885 16.9584 26.4577 16.8612 27.3001C16.5282 29.9481 16.3343 32.6118 16.2804 35.2801C16.2702 35.8267 16.497 36.0601 16.9746 35.9257C17.3094 35.8267 21.012 34.9405 21.3324 34.7581C21.6528 34.5757 21.7362 33.1183 21.825 32.4781C22.0956 30.3949 22.2582 28.2871 22.6818 26.2243C22.8096 25.5883 22.2924 25.5097 21.7854 25.6285ZM20.64 34.0237L17.1936 35.0083C17.3808 33.8221 17.361 29.9611 17.7648 27.5683L21.6354 26.6719C21.312 28.0531 20.8548 33.1573 20.64 34.0237Z" fill="#001A4A"/>
<path d="M16.812 18.3991L21.3174 10.7401C23.7774 12.4201 26.0694 14.3893 28.3788 16.1569C27.8868 16.2847 25.887 16.6495 25.9788 17.4469C26.0478 18.0085 26.3286 21.6277 26.6046 21.8791C26.8806 22.1305 27.4566 22.1497 27.4368 21.2143C27.3614 19.9839 27.1967 18.7607 26.9442 17.5543L29.574 16.8697C29.8986 16.7863 30.1254 16.1851 29.8494 15.9589C27.3894 13.9495 24.0588 11.4481 21.4338 9.65886C21.1632 9.47886 20.9118 9.47166 20.5626 10.0477C19.0854 12.4555 16.8054 16.1245 15.5826 18.5713C15.5458 18.6395 15.5229 18.7143 15.5151 18.7914C15.5072 18.8685 15.5147 18.9464 15.537 19.0206C15.5593 19.0948 15.596 19.1639 15.645 19.224C15.694 19.284 15.7543 19.3338 15.8226 19.3705C16.0704 19.5037 16.1226 19.4533 18.5394 19.1377C18.6036 19.8865 18.7362 23.7319 19.1892 24.1309C19.3914 24.3109 20.0364 24.3709 19.923 23.3431C19.7508 21.7381 19.647 20.1229 19.4304 18.5275C19.3134 17.8525 17.34 18.3355 16.812 18.3991Z" fill="#57c2b4"/>
<path d="M116.945 26.1793C116.126 17.3653 107.85 10.6927 99.12 11.3035C94.7624 11.5802 90.6825 13.5377 87.7398 16.7635C84.672 20.2399 83.1456 25.1341 84.6864 29.6353C84.7257 29.7404 84.8045 29.826 84.906 29.8738C85.0075 29.9216 85.1237 29.9279 85.2298 29.8912C85.3359 29.8546 85.4234 29.778 85.4738 29.6777C85.5242 29.5774 85.5333 29.4614 85.4994 29.3545C85.1472 28.1335 85.0105 26.8604 85.0956 25.5925L87.0012 26.0125C87.1357 26.0463 87.2781 26.0254 87.3971 25.9543C87.5162 25.8832 87.6021 25.7677 87.636 25.6333C87.6699 25.4988 87.649 25.3564 87.5779 25.2373C87.5067 25.1183 87.3913 25.0323 87.2568 24.9985L85.2168 24.5749C85.7272 21.2777 87.4103 18.2754 89.9568 16.1197C90.2073 16.7572 90.519 17.3691 90.8874 17.9467C90.9187 18.0054 90.9615 18.0572 91.0132 18.0991C91.0649 18.141 91.1245 18.1722 91.1884 18.1907C91.2523 18.2092 91.3193 18.2147 91.3854 18.207C91.4515 18.1992 91.5154 18.1783 91.5733 18.1454C91.6312 18.1126 91.6819 18.0685 91.7225 18.0157C91.763 17.963 91.7926 17.9026 91.8095 17.8382C91.8264 17.7739 91.8302 17.7067 91.8207 17.6409C91.8113 17.575 91.7887 17.5117 91.7544 17.4547C91.3656 16.8337 91.0452 16.1839 90.7152 15.5347C93.6117 13.3806 97.1533 12.273 100.761 12.3931C100.633 13.3777 100.495 14.3923 100.381 15.3967C100.379 15.4654 100.39 15.5339 100.415 15.5981C100.44 15.6622 100.477 15.7208 100.525 15.7703C100.573 15.8197 100.63 15.859 100.693 15.8859C100.756 15.9127 100.825 15.9266 100.893 15.9266C100.962 15.9266 101.03 15.9127 101.093 15.8859C101.157 15.859 101.214 15.8197 101.262 15.7703C101.31 15.7208 101.347 15.6622 101.372 15.5981C101.396 15.5339 101.408 15.4654 101.405 15.3967C101.528 14.4121 101.623 13.4269 101.726 12.4423C105.448 12.7929 108.921 14.4668 111.514 17.1601C110.992 17.6869 110.479 18.2239 109.948 18.7411C109.79 18.8935 109.528 19.0459 109.859 19.3957C110.351 19.8883 111.455 18.5785 112.183 17.8957C114.19 20.1865 115.457 23.0312 115.817 26.0557C115.113 26.0557 114.404 26.0557 113.71 26.1247C113.615 26.1469 113.53 26.2001 113.468 26.2758C113.406 26.3515 113.371 26.4456 113.368 26.5434C113.365 26.6411 113.395 26.7371 113.452 26.8163C113.509 26.8956 113.591 26.9536 113.685 26.9815C114.414 27.0649 115.162 27.0355 115.876 27.0601C115.98 29.7007 115.128 32.2901 113.476 34.3531C112.798 33.7536 112.088 33.1913 111.349 32.6689C111.256 32.6227 111.15 32.6106 111.049 32.6347C110.948 32.6588 110.859 32.7175 110.797 32.8007C110.735 32.8838 110.704 32.9861 110.709 33.0898C110.715 33.1934 110.757 33.2918 110.827 33.3679C111.502 33.9145 112.172 34.4761 112.797 35.0671C112.226 35.6165 111.585 36.0883 110.891 36.4705C110.266 36.8197 110.891 37.7359 111.521 37.3909C115.487 35.1907 117.353 30.5671 116.945 26.1793Z" fill="#001A4A"/>
<path d="M104.753 21.6883C99.7038 18.2365 94.008 22.0231 93.9834 24.4315C93.9834 25.0027 94.8552 25.1257 94.8798 24.5395C94.9488 22.8703 99.804 19.5169 104.137 22.4863C104.674 22.8505 105.285 22.0525 104.753 21.6883Z" fill="#57c2b4"/>
<path d="M50.193 77.1349C47.8638 77.2681 45.717 74.5597 48.1446 71.8549C43.2204 70.6435 44.205 65.7883 47.7246 65.5081C44.2236 63.5035 48.2958 57.4369 51.5802 59.8201C50.9406 57.4861 55.3278 55.2001 57.6372 57.5305C58.7772 54.9211 63.3972 55.0147 64.1418 58.0225C66.4758 55.4131 70.8588 57.6979 69.7854 60.2635C73.7976 59.1901 76.2948 65.1187 73.1088 66.9109C75.852 68.1913 75.2658 72.1111 71.5236 72.7165C73.5672 75.0997 71.277 79.0165 68.5686 78.5521C69.78 80.2117 67.7562 82.1911 66.2838 81.7225C64.9302 85.6867 53.9196 86.4841 52.7082 81.1861C50.9856 81.5125 48.75 79.1047 50.193 77.1349Z" fill="#001A4A"/>
<path d="M108.988 20.8801C109.612 21.3805 103.891 29.3401 102.094 31.7131C100.297 34.0861 96.1506 30.8413 98.9178 28.4191C101.685 25.9969 108.455 20.4547 108.988 20.8801Z" fill="#57c2b4"/>
<path d="M58.9878 45.3833C59.6058 44.9663 62.4342 44.7041 63.0252 45.2033C63.6162 45.7025 64.3548 47.6951 63.7494 48.2663C63.144 48.8375 59.1294 48.9947 58.5936 48.4139C58.0578 47.8331 58.725 45.5609 58.9878 45.3833Z" fill="#001A4A"/>
<path d="M74.3112 43.3404C74.5242 43.248 73.9866 41.3706 75.2112 41.3706C76.4358 41.3706 76.1076 43.0842 76.2702 43.296C76.4328 43.5078 78.3234 43.2612 78.2886 44.316C78.2538 45.3708 76.5066 45.0198 76.1766 45.207C75.8466 45.3942 76.6686 47.0142 75.1914 46.9896C73.7142 46.965 74.571 45.4776 74.2914 45.084C74.0118 44.6904 72.2238 45.2466 72.2088 44.0988C72.1938 42.951 73.8258 43.5504 74.3112 43.3404Z" fill="#57c2b4"/>
<path d="M47.007 43.3403C47.1816 43.1891 46.6722 41.3705 47.898 41.3411C49.1238 41.3117 48.5874 43.2761 48.8436 43.4411C49.0998 43.6061 50.5836 43.2095 50.5836 44.3411C50.5836 45.4727 49.215 44.9219 48.939 45.0989C48.663 45.2759 49.3458 46.8599 47.982 46.8599C48.1692 46.4399 48.627 45.2543 47.9376 44.9399C47.2482 44.6255 45.195 45.3599 45.1602 44.2061C45.1254 43.0523 46.8066 43.5137 47.007 43.3403Z" fill="#57c2b4"/>
<path d="M51.3156 81.7734C45.4656 82.3296 36.1296 82.935 29.856 77.9124C22.8882 72.3438 8.39999 82.3152 11.3118 89.3076C14.2236 96.3 29.7282 115.568 61.5828 116.439C98.0214 117.424 111.554 95.7576 114.055 90.873C117.103 84.9048 104.206 73.146 97.6914 78.2874C87.4146 86.3922 79.605 86.8074 69.264 81.8028C69.264 87.8028 71.2338 89.598 70.7412 90.7896C67.3782 98.9688 52.2954 98.2548 49.7448 88.9896C49.1244 86.6874 51.498 84.4668 51.3156 81.7734Z" fill="#57c2b4"/>
</svg>
