<svg width="120" height="120" viewBox="0 0 120 120" fill="none" xmlns="http://www.w3.org/2000/svg">
<path d="M27.06 97.2281C26.395 96.4502 25.4874 95.9189 24.4836 95.7197C24.4654 95.6961 24.4433 95.6758 24.4182 95.6597H24.4044C22.8696 94.6249 21.0994 93.9924 19.2564 93.8201C19.2072 93.8164 19.1578 93.8248 19.1125 93.8444C19.0673 93.8641 19.0275 93.8946 18.9966 93.9331C18.9658 93.9716 18.9448 94.0171 18.9355 94.0656C18.9262 94.1141 18.9288 94.1641 18.9432 94.2113C19.0215 94.4288 19.0541 94.66 19.0389 94.8906C19.0237 95.1213 18.9611 95.3463 18.855 95.5516C18.7489 95.7569 18.6016 95.9382 18.4223 96.0839C18.2429 96.2297 18.0355 96.337 17.8128 96.3989C17.6292 96.4575 17.4335 96.467 17.2451 96.4264C17.0566 96.3859 16.8821 96.2967 16.7389 96.1677C16.5957 96.0388 16.4888 95.8746 16.4287 95.6914C16.3687 95.5083 16.3577 95.3126 16.3968 95.1239C16.4451 94.887 16.5397 94.6621 16.6752 94.4619C16.8107 94.2617 16.9844 94.0903 17.1864 93.9575C17.2488 93.9144 17.2967 93.8534 17.3238 93.7825C17.3509 93.7117 17.356 93.6343 17.3383 93.5605C17.3207 93.4868 17.2811 93.4201 17.2249 93.3692C17.1687 93.3183 17.0984 93.2855 17.0232 93.2753C16.0848 93.1731 15.1372 93.1905 14.2032 93.3269C14.2599 91.5533 14.4373 89.7856 14.7342 88.0361C14.7438 87.9855 14.7434 87.9335 14.7328 87.8831C14.7223 87.8327 14.7018 87.7848 14.6727 87.7423C14.6436 87.6998 14.6064 87.6635 14.5632 87.6355C14.52 87.6074 14.4717 87.5882 14.421 87.5789C13.685 87.4311 12.9894 87.127 12.381 86.6873C12.2984 86.6273 12.1959 86.6011 12.0947 86.6142C11.9934 86.6272 11.9009 86.6785 11.8362 86.7575C11.044 87.8081 10.5457 89.0506 10.3926 90.3575C10.2672 90.366 10.1454 90.4033 10.0366 90.4665C9.92791 90.5296 9.83517 90.617 9.7656 90.7217C9.56079 90.9979 9.4211 91.3169 9.357 91.6547C9.25732 92.6957 9.41003 93.7453 9.8022 94.7147C8.02955 94.4544 6.21979 94.651 4.5444 95.2859C4.5486 94.4759 4.5726 78.8885 4.5444 77.3297C4.53762 76.9818 4.61976 76.6379 4.78302 76.3305C4.94629 76.0232 5.18529 75.7627 5.4774 75.5735C7.26657 74.4528 9.28516 73.7495 11.3833 73.5157C13.4815 73.2819 15.6054 73.5236 17.5974 74.2229C17.6664 74.2458 17.7416 74.2406 17.8068 74.2083C17.872 74.1761 17.9218 74.1195 17.9454 74.0507C17.9576 74.0162 17.9627 73.9796 17.9605 73.9431C17.9582 73.9066 17.9485 73.871 17.9321 73.8383C17.9157 73.8056 17.8928 73.7766 17.8649 73.753C17.837 73.7294 17.8046 73.7117 17.7696 73.7009C15.6973 72.9251 13.4754 72.6319 11.2727 72.8436C9.07008 73.0553 6.94467 73.7663 5.058 74.9225C4.65234 75.1817 4.31867 75.5391 4.08792 75.9615C3.85718 76.384 3.73682 76.8579 3.738 77.3393C3.7524 78.8993 4.005 95.0033 4.0182 95.5595C3.55092 95.8513 3.20616 96.3036 3.0486 96.8315C2.7402 98.0783 3.8232 98.8523 5.0508 99.2459C6.9612 99.8603 11.7618 99.9965 13.7802 100C17.4012 100.006 23.8914 99.6455 24.5664 99.5945C25.4118 99.5345 26.7354 99.4109 27.2226 98.7077C27.3696 98.4799 27.4338 98.2085 27.4041 97.939C27.3745 97.6695 27.253 97.4185 27.06 97.2281ZM26.6922 98.3357C26.2836 98.8991 24.5208 98.9129 23.7522 98.9393C20.5122 99.0641 6.636 99.8243 4.182 98.0045C4.01399 97.9031 3.88176 97.7519 3.80369 97.5719C3.72561 97.3919 3.70559 97.192 3.7464 97.0001C4.0068 95.7575 6.3474 95.3243 7.5864 95.2271C8.41722 95.1639 9.25224 95.1826 10.0794 95.2829C10.1293 95.3508 10.2012 95.3994 10.2828 95.4203C11.9005 95.794 13.5439 96.0463 15.1992 96.1751C16.4802 97.6547 18.5892 97.8347 19.857 96.2351C21.204 96.2027 22.5978 96.3077 23.9724 96.1751C24.8892 96.4085 26.0214 96.7937 26.544 97.5881C26.775 97.9199 26.8296 98.1563 26.6934 98.3357H26.6922Z" fill="#00143B"/>
<path d="M25.8186 23.4751L33.24 34.9453L52.2108 34.5679V26.5651C56.2861 25.9315 60.3998 25.5756 64.5234 25.5001C68.4173 25.5606 72.2958 26.0027 76.1034 26.8201V33.4903H90.6138L95.3124 23.4751H25.8186Z" fill="#57c2b4"/>
<path d="M67.836 36.99C67.8613 36.1766 67.8385 35.3624 67.7676 34.5516C67.3956 32.0316 65.9712 30.867 64.1184 30.7782C62.184 30.684 60.3816 31.788 59.5284 34.3182C59.1987 35.3983 59.0368 36.5226 59.0484 37.6518C58.5228 37.8225 58.0744 38.1733 57.7824 38.6424C56.9454 39.9414 57.7746 41.55 59.5662 41.6034C59.632 42.2589 59.7783 42.9038 60.0018 43.5234C60.0257 43.5921 60.0758 43.6485 60.1413 43.6802C60.2067 43.7118 60.282 43.7162 60.3507 43.6923C60.4194 43.6685 60.4757 43.6183 60.5074 43.5529C60.5391 43.4874 60.5435 43.4121 60.5196 43.3434C60.4247 43.0023 60.3519 42.6554 60.3018 42.3048C60.153 41.2062 60.3018 41.175 60.111 41.004C59.9034 40.8156 59.5932 41.0232 58.9806 40.7598C57.7476 40.2306 58.2468 38.6952 59.3592 38.4246C59.6498 39.3961 60.2334 40.254 61.0302 40.881C60.7256 42.0069 60.6631 43.1846 60.8466 44.3364C60.8596 44.3999 60.8856 44.4599 60.9231 44.5127C60.9606 44.5655 61.0087 44.6099 61.0644 44.643C61.884 45.1327 62.8384 45.3479 63.7888 45.2572C64.7392 45.1666 65.6358 44.7748 66.348 44.139C66.3913 44.0962 66.4256 44.0451 66.4489 43.9889C66.4723 43.9327 66.4843 43.8723 66.4842 43.8114C66.444 42.0228 66.321 41.241 66.273 40.3632C66.9674 39.6584 67.4442 38.7686 67.6464 37.8C68.0654 37.9087 68.4317 38.1638 68.6788 38.5192C68.9259 38.8746 69.0375 39.3068 68.9934 39.7374C68.9238 40.449 67.9734 40.7832 67.2774 40.956C66.8706 41.043 67.1946 41.436 66.828 42.5712C66.8046 42.6344 66.8073 42.7043 66.8354 42.7655C66.8635 42.8267 66.9148 42.8743 66.978 42.8976C67.0412 42.921 67.1111 42.9184 67.1723 42.8902C67.2335 42.8621 67.281 42.8108 67.3044 42.7476C67.466 42.3506 67.5716 41.933 67.6182 41.5068C68.6244 41.2878 69.63 40.8324 69.7428 39.8184C69.83 39.1948 69.6834 38.561 69.3314 38.0388C68.9794 37.5167 68.4468 37.1432 67.836 36.99ZM61.653 43.9956C61.5533 43.0846 61.5272 42.1671 61.575 41.2518C62.207 41.6294 62.9416 41.7991 63.6752 41.737C64.4088 41.6749 65.1045 41.3841 65.664 40.9056C65.6041 41.8129 65.5973 42.7228 65.6436 43.6308C65.0859 44.0731 64.4114 44.3431 63.7027 44.4079C62.9939 44.4727 62.2816 44.3294 61.653 43.9956ZM66.4194 38.8026C65.7552 39.8514 64.7646 40.7982 63.5262 40.8918C63.5736 40.6314 63.591 39.7458 63.6138 39.369C63.6138 39.009 63.654 37.953 63.3282 37.8756C63.0426 37.8078 62.8374 38.4048 62.8104 38.586C62.7787 38.8379 62.7607 39.0913 62.7564 39.345C62.7185 39.838 62.7141 40.3329 62.7432 40.8264C61.8455 40.5462 61.0743 39.9605 60.5634 39.171C59.6946 38.0238 59.7924 36.633 60.1686 35.1246C60.3774 34.2208 60.8079 33.3832 61.4214 32.6874C62.7846 31.2204 65.4318 31.2054 66.4332 33.0588C66.692 33.5595 66.858 34.1029 66.9234 34.6626C67.1166 36.0492 67.1808 37.6242 66.42 38.8026H66.4194Z" fill="#00143B"/>
<path d="M64.6914 36.3085C64.8481 36.2103 65.0247 36.1481 65.2083 36.1264C65.392 36.1048 65.5781 36.1241 65.7534 36.1831C65.7811 36.2082 65.8136 36.2275 65.849 36.2397C65.8843 36.2519 65.9218 36.2569 65.9591 36.2542C65.9964 36.2516 66.0328 36.2414 66.0661 36.2244C66.0994 36.2073 66.1289 36.1837 66.1528 36.1549C66.1767 36.1261 66.1945 36.0928 66.2052 36.057C66.2159 36.0211 66.2192 35.9835 66.215 35.9463C66.2107 35.9092 66.199 35.8732 66.1805 35.8407C66.162 35.8082 66.1372 35.7798 66.1074 35.7571C65.9971 35.6024 65.8464 35.481 65.6719 35.4059C65.4973 35.3309 65.3055 35.3052 65.1174 35.3316C64.9292 35.358 64.7519 35.4356 64.6048 35.5558C64.4576 35.676 64.3462 35.8342 64.2828 36.0133C64.2437 36.0675 64.2276 36.135 64.2383 36.201C64.2489 36.267 64.2853 36.3261 64.3395 36.3652C64.3937 36.4044 64.4612 36.4204 64.5272 36.4098C64.5932 36.3991 64.6523 36.3627 64.6914 36.3085Z" fill="#00143B"/>
<path d="M61.2036 36.54C61.4789 36.3371 61.8153 36.2344 62.157 36.249C62.2792 36.2679 62.3955 36.3143 62.4972 36.3846C62.5205 36.4126 62.5491 36.4357 62.5815 36.4524C62.6139 36.4692 62.6493 36.4793 62.6856 36.4821C62.7219 36.4849 62.7585 36.4804 62.793 36.4689C62.8276 36.4574 62.8595 36.439 62.8868 36.4149C62.9142 36.3908 62.9364 36.3615 62.9522 36.3286C62.968 36.2958 62.9771 36.2601 62.9788 36.2237C62.9806 36.1873 62.9751 36.151 62.9625 36.1167C62.95 36.0825 62.9307 36.0512 62.9058 36.0246C62.7946 35.8294 62.6291 35.6707 62.4295 35.5678C62.2298 35.4648 62.0046 35.422 61.7811 35.4446C61.5576 35.4671 61.3455 35.5541 61.1705 35.6948C60.9954 35.8356 60.865 36.0241 60.795 36.2376C60.7565 36.2921 60.7407 36.3596 60.7509 36.4256C60.761 36.4916 60.7964 36.5511 60.8496 36.5916C60.9035 36.6314 60.9709 36.6484 61.0372 36.6387C61.1036 36.6291 61.1634 36.5936 61.2036 36.54Z" fill="#00143B"/>
<path d="M61.149 38.1217C61.149 38.2111 61.1631 38.2997 61.1905 38.3823C61.2178 38.4649 61.258 38.54 61.3086 38.6032C61.3592 38.6665 61.4192 38.7166 61.4853 38.7508C61.5514 38.7851 61.6223 38.8027 61.6938 38.8027C61.7653 38.8027 61.8362 38.7851 61.9023 38.7508C61.9684 38.7166 62.0284 38.6665 62.079 38.6032C62.1296 38.54 62.1698 38.4649 62.1971 38.3823C62.2245 38.2997 62.2386 38.2111 62.2386 38.1217C62.2386 38.0322 62.2245 37.9437 62.1971 37.8611C62.1698 37.7784 62.1296 37.7034 62.079 37.6401C62.0284 37.5769 61.9684 37.5267 61.9023 37.4925C61.8362 37.4583 61.7653 37.4407 61.6938 37.4407C61.6223 37.4407 61.5514 37.4583 61.4853 37.4925C61.4192 37.5267 61.3592 37.5769 61.3086 37.6401C61.258 37.7034 61.2178 37.7784 61.1905 37.8611C61.1631 37.9437 61.149 38.0322 61.149 38.1217Z" fill="#00143B"/>
<path d="M64.6218 37.9962C64.6218 38.1768 64.6792 38.35 64.7814 38.4777C64.8835 38.6054 65.0221 38.6772 65.1666 38.6772C65.3111 38.6772 65.4497 38.6054 65.5518 38.4777C65.654 38.35 65.7114 38.1768 65.7114 37.9962C65.7114 37.8156 65.654 37.6424 65.5518 37.5146C65.4497 37.3869 65.3111 37.3152 65.1666 37.3152C65.0221 37.3152 64.8835 37.3869 64.7814 37.5146C64.6792 37.6424 64.6218 37.8156 64.6218 37.9962Z" fill="#00143B"/>
<path d="M69.6876 39.6425C69.6858 39.5763 69.6599 39.513 69.6149 39.4644C69.5699 39.4158 69.5087 39.3853 69.4428 39.3785L68.517 39.2843C68.4802 39.2803 68.443 39.2839 68.4076 39.2946C68.3722 39.3053 68.3393 39.3231 68.3109 39.3468C68.2825 39.3705 68.2591 39.3996 68.2422 39.4325C68.2253 39.4654 68.2152 39.5014 68.2124 39.5383C68.2097 39.5752 68.2144 39.6123 68.2263 39.6473C68.2382 39.6823 68.257 39.7146 68.2816 39.7423C68.3062 39.7699 68.3361 39.7923 68.3695 39.8081C68.403 39.824 68.4392 39.8329 68.4762 39.8345L69.1296 39.9197C69.1865 41.1682 69.0486 42.418 68.721 43.6241C67.9584 46.2791 66.2994 47.9249 63.5322 47.7575C62.3742 47.7049 61.265 47.2758 60.3732 46.5353C59.481 45.759 58.7869 44.781 58.3486 43.6826C57.9103 42.5841 57.7405 41.3969 57.8532 40.2197L58.6434 40.1321C58.6776 40.1337 58.7119 40.1284 58.744 40.1165C58.7762 40.1045 58.8055 40.0862 58.8304 40.0625C58.8552 40.0389 58.875 40.0104 58.8885 39.9789C58.902 39.9474 58.9089 39.9135 58.9089 39.8792C58.9089 39.8449 58.902 39.811 58.8885 39.7794C58.875 39.7479 58.8552 39.7195 58.8304 39.6958C58.8055 39.6722 58.7762 39.6538 58.744 39.6419C58.7119 39.6299 58.6776 39.6246 58.6434 39.6263C58.2966 39.6191 57.9468 39.6941 57.6084 39.6995C57.5458 39.7014 57.4858 39.7249 57.4385 39.766C57.3913 39.8071 57.3597 39.8633 57.3492 39.9251C56.6142 43.6235 59.1192 48.5051 63.762 48.5651C63.8818 50.2898 63.6744 52.0216 63.1506 53.6693C60.2586 62.7197 49.8372 59.4659 47.6802 68.2265C47.2398 70.203 47.2212 72.2501 47.6256 74.2343C47.6401 74.3068 47.6825 74.3707 47.7437 74.4123C47.8048 74.4539 47.8798 74.4699 47.9526 74.4569C47.988 74.4503 48.0217 74.4367 48.0519 74.417C48.082 74.3973 48.1079 74.3718 48.1282 74.342C48.1484 74.3122 48.1626 74.2787 48.1698 74.2435C48.1771 74.2082 48.1773 74.1718 48.1704 74.1365C47.8226 72.2313 47.8782 70.2744 48.3336 68.3921C50.0136 61.9955 56.4054 62.6651 60.7404 58.7741C63.6114 56.1551 64.5996 52.4561 64.2804 48.5507C65.3507 48.4952 66.3784 48.1132 67.2252 47.4563C69.3456 45.7367 69.9504 42.3377 69.6876 39.6425Z" fill="#57c2b4"/>
<path d="M50.2266 76.8336C50.2753 76.8337 50.3229 76.8197 50.3639 76.7934C50.4048 76.767 50.4373 76.7295 50.4574 76.6851C50.4776 76.6408 50.4845 76.5916 50.4774 76.5435C50.4703 76.4953 50.4495 76.4502 50.4174 76.4136C50.337 76.4136 49.7364 75.4842 48.225 73.86C48.1867 73.8222 48.1409 73.7927 48.0906 73.7735C48.0403 73.7543 47.9865 73.7457 47.9327 73.7483C47.879 73.7508 47.8263 73.7646 47.7781 73.7886C47.7298 73.8125 47.6871 73.8463 47.6526 73.8876C46.9157 74.7685 46.2766 75.7267 45.7464 76.7454C45.7127 76.8066 45.696 76.8757 45.6983 76.9454C45.7005 77.0152 45.7215 77.0831 45.7591 77.142C45.7967 77.2008 45.8495 77.2484 45.9119 77.2798C45.9743 77.3112 46.0439 77.3251 46.1136 77.3202C46.5504 77.2854 49.464 76.9464 50.2266 76.8558V76.8336ZM47.9934 74.7072C47.5582 75.2856 47.1537 75.8865 46.7814 76.5072L49.614 76.3428C49.3554 76.0686 48.1842 74.8974 47.9934 74.7072Z" fill="#00143B"/>
<path d="M81.0054 60.5628C80.3043 61.025 79.6754 61.5885 79.1394 62.235C78.7017 62.7258 78.4346 63.3451 78.3782 64.0003C78.3217 64.6555 78.4789 65.3113 78.8262 65.8698C78.8401 65.9029 78.8603 65.9329 78.8858 65.9582C78.9113 65.9834 78.9415 66.0034 78.9747 66.017C79.0079 66.0306 79.0434 66.0376 79.0793 66.0374C79.1152 66.0373 79.1507 66.03 79.1838 66.0162C79.2169 66.0023 79.2469 65.9821 79.2722 65.9566C79.2975 65.9311 79.3175 65.9009 79.3311 65.8677C79.3447 65.8345 79.3516 65.7989 79.3514 65.7631C79.3513 65.7272 79.3441 65.6917 79.3302 65.6586C79.105 65.1802 79.0261 64.6458 79.1036 64.1227C79.1811 63.5997 79.4115 63.1111 79.7658 62.7186C80.2495 62.0956 80.7726 61.5042 81.3318 60.948C81.3571 60.9265 81.3779 60.9003 81.3931 60.8709C81.4082 60.8414 81.4175 60.8092 81.4202 60.7762C81.4229 60.7431 81.4191 60.7099 81.409 60.6783C81.3989 60.6467 81.3826 60.6175 81.3612 60.5922C81.3398 60.5669 81.3136 60.5461 81.2841 60.5309C81.2546 60.5157 81.2224 60.5065 81.1894 60.5038C81.1563 60.5011 81.1231 60.5049 81.0915 60.515C81.06 60.5251 81.0307 60.5413 81.0054 60.5628Z" fill="#00143B"/>
<path d="M80.6508 63.9996C80.6238 64.467 80.5878 64.9218 80.5692 65.3796C80.5464 65.9604 80.5584 67.9998 80.5152 68.568C80.5085 68.6407 80.5303 68.7131 80.5759 68.77C80.6216 68.8269 80.6876 68.8639 80.76 68.873C80.8324 68.8822 80.9055 68.8629 80.9639 68.8192C81.0224 68.7755 81.0615 68.7108 81.0732 68.6388C81.4209 67.1062 81.4489 65.5183 81.1554 63.9744C81.1521 63.9075 81.1223 63.8446 81.0726 63.7997C81.0229 63.7547 80.9574 63.7313 80.8905 63.7347C80.8236 63.738 80.7607 63.7678 80.7158 63.8175C80.6708 63.8672 80.6475 63.9327 80.6508 63.9996Z" fill="#00143B"/>
<path d="M82.3944 65.5199C82.3722 65.9549 82.3128 66.3299 82.3128 66.6425C82.3026 67.3201 82.2434 67.996 82.1358 68.6651C82.1169 68.7346 82.1257 68.8087 82.1602 68.8719C82.1948 68.935 82.2525 68.9823 82.3213 69.0038C82.39 69.0253 82.4644 69.0194 82.5288 68.9872C82.5932 68.955 82.6427 68.8992 82.6668 68.8313C83.1553 67.7781 83.2378 66.5816 82.8984 65.4713C82.891 65.4052 82.8579 65.3448 82.8063 65.3029C82.7546 65.261 82.6886 65.2411 82.6225 65.2475C82.5563 65.2539 82.4953 65.286 82.4526 65.337C82.41 65.3879 82.3891 65.4536 82.3944 65.5199Z" fill="#00143B"/>
<path d="M84.1512 65.5015C83.9941 66.5038 83.7803 67.4964 83.511 68.4745C83.481 68.5413 83.4788 68.6174 83.5048 68.6858C83.5309 68.7543 83.5831 68.8096 83.6499 68.8396C83.7167 68.8696 83.7927 68.8718 83.8612 68.8458C83.9297 68.8197 83.985 68.7675 84.015 68.7007C84.5748 67.6105 84.9384 66.9391 84.6552 65.4859C84.6544 65.4528 84.6471 65.4201 84.6336 65.3898C84.6201 65.3595 84.6008 65.3322 84.5767 65.3094C84.5526 65.2867 84.5242 65.2689 84.4932 65.2572C84.4622 65.2455 84.4291 65.24 84.396 65.2411C84.3295 65.2445 84.2668 65.2735 84.2212 65.3221C84.1756 65.3706 84.1505 65.4349 84.1512 65.5015Z" fill="#00143B"/>
<path d="M85.3362 61.0655C85.7165 61.6238 85.8944 62.2954 85.8402 62.9687C85.761 64.2431 85.6758 66.5009 85.023 68.2289C84.9946 68.2957 84.9939 68.3711 85.0211 68.4385C85.0483 68.5058 85.1011 68.5596 85.1679 68.588C85.2347 68.6164 85.3101 68.6171 85.3775 68.5899C85.4448 68.5628 85.4986 68.5099 85.527 68.4431C86.0777 67.2479 86.4142 65.9652 86.5212 64.6535C86.6718 63.2135 86.7384 61.7957 85.7172 60.7319C85.6953 60.7069 85.6687 60.6864 85.6389 60.6717C85.6091 60.657 85.5766 60.6483 85.5435 60.6461C85.5103 60.6439 85.477 60.6482 85.4455 60.6589C85.414 60.6695 85.3849 60.6863 85.3599 60.7082C85.3349 60.7301 85.3144 60.7567 85.2997 60.7865C85.285 60.8164 85.2763 60.8488 85.2741 60.882C85.2719 60.9151 85.2762 60.9484 85.2869 60.9799C85.2975 61.0114 85.3143 61.0405 85.3362 61.0655Z" fill="#00143B"/>
<path d="M86.2074 59.3069C86.6556 57.6317 86.5074 55.8047 86.4666 54.1199C86.333 47.2577 83.5171 40.7206 78.6222 35.9093C77.7425 35.1432 76.8144 34.4346 75.8436 33.7877C75.8057 33.7597 75.775 33.7231 75.7541 33.6808C75.7333 33.6385 75.7228 33.5919 75.7236 33.5447C75.7236 32.3129 75.7914 28.8005 75.7914 28.2755C75.7909 28.2398 75.7975 28.2042 75.8108 28.171C75.824 28.1378 75.8437 28.1075 75.8686 28.0819C75.919 28.0301 75.9879 28.0005 76.0602 27.9995C76.1324 27.9986 76.2021 28.0264 76.2539 28.0768C76.3056 28.1272 76.3352 28.1961 76.3362 28.2683C76.3782 31.5473 76.3122 31.3043 76.3362 33.3881C77.2869 34.0183 78.2009 34.702 79.074 35.4359C84.144 40.1399 87.0786 47.1485 87.2724 54.0959C87.3246 55.9715 87.4788 57.8609 86.9184 59.7731C86.8932 59.8444 86.8497 59.9077 86.7923 59.9569C86.7349 60.0061 86.6656 60.0393 86.5914 60.0533C84.323 60.4272 82.0155 60.5037 79.7274 60.2807C79.6307 60.2726 79.5407 60.2284 79.4751 60.1569C79.4095 60.0855 79.3732 59.9919 79.3734 59.8949C79.3596 55.0625 78.2556 49.8203 75.1134 46.0997C73.8056 44.6573 72.2799 43.4286 70.5918 42.4583C70.5353 42.4226 70.4951 42.3662 70.4797 42.3011C70.4643 42.2361 70.4751 42.1676 70.5096 42.1103C70.5464 42.0533 70.6041 42.0128 70.6703 41.9976C70.7365 41.9823 70.8061 41.9935 70.8642 42.0287C72.6127 43.0035 74.1981 44.2457 75.5628 45.7103C78.8436 49.4849 80.0088 54.5513 80.1522 59.5307C82.1725 59.6901 84.2044 59.615 86.2074 59.3069Z" fill="#00143B"/>
<path d="M52.2 36.3599C52.2798 28.3283 51.5622 27.8015 52.1316 27.7439C52.1978 27.7381 52.2635 27.7586 52.3146 27.8011C52.3656 27.8436 52.3978 27.9046 52.404 27.9707C52.7202 31.0505 52.7844 33.6191 52.8396 36.5321L52.6902 36.7991C43.599 42.6791 42.3276 52.2851 42.2442 63.1661C44.2302 63.5627 46.3206 63.6911 48.3864 63.9095C48.4344 59.9543 48.7614 55.5383 50.6472 52.0655C52.254 49.1069 54.4536 47.1929 56.8026 45.1265C56.8583 45.0795 56.9304 45.0567 57.0029 45.0628C57.0755 45.069 57.1427 45.1038 57.1896 45.1595C57.2365 45.2152 57.2594 45.2873 57.2532 45.3598C57.2471 45.4324 57.2123 45.4996 57.1566 45.5465C50.502 51.1385 49.14 55.1699 49.14 64.3319C49.1403 64.3851 49.1293 64.4377 49.1076 64.4863C49.086 64.5349 49.0542 64.5783 49.0145 64.6136C48.9747 64.6489 48.9279 64.6753 48.8771 64.6911C48.8263 64.7069 48.7728 64.7117 48.72 64.7051C46.3922 64.5457 44.074 64.2681 41.7744 63.8735C41.6862 63.8536 41.6072 63.8045 41.5504 63.7342C41.4935 63.6638 41.4621 63.5763 41.4612 63.4859C41.4966 52.3589 42.7302 42.4373 52.2 36.3599Z" fill="#00143B"/>
<path d="M43.578 64.7921C41.9022 66.8045 39.5616 69.1535 41.0688 71.3525C41.0881 71.3831 41.1133 71.4096 41.1429 71.4304C41.1725 71.4512 41.2058 71.4661 41.2411 71.474C41.2764 71.4819 41.3129 71.4828 41.3486 71.4767C41.3842 71.4705 41.4183 71.4574 41.4489 71.438C41.4795 71.4187 41.5059 71.3935 41.5268 71.3639C41.5476 71.3344 41.5624 71.301 41.5704 71.2657C41.5783 71.2304 41.5792 71.1939 41.573 71.1582C41.5669 71.1226 41.5537 71.0885 41.5344 71.0579C40.8672 69.8813 41.5746 68.6135 42.3558 67.5077C43.0884 66.4709 43.3302 66.0833 43.9716 65.1017C43.9919 65.0759 44.007 65.0463 44.0159 65.0146C44.0247 64.983 44.0273 64.9499 44.0234 64.9172C44.0195 64.8846 44.0092 64.853 43.9931 64.8243C43.977 64.7957 43.9554 64.7704 43.9296 64.7501C43.9038 64.7298 43.8742 64.7148 43.8425 64.7059C43.8108 64.697 43.7777 64.6944 43.7451 64.6983C43.7124 64.7022 43.6809 64.7125 43.6522 64.7286C43.6235 64.7447 43.5983 64.7663 43.578 64.7921Z" fill="#00143B"/>
<path d="M46.3998 67.6098C45.6509 68.4542 45.1469 69.4872 44.9424 70.5972C44.8945 70.8594 44.9053 71.1289 44.974 71.3864C45.0427 71.6439 45.1676 71.883 45.3397 72.0865C45.5118 72.29 45.7268 72.4528 45.9694 72.5633C46.2119 72.6737 46.4759 72.7291 46.7424 72.7254C46.7756 72.7263 46.8082 72.7336 46.8386 72.7471C46.8689 72.7606 46.8962 72.78 46.9191 72.804C46.9419 72.8281 46.9598 72.8564 46.9717 72.8874C46.9836 72.9184 46.9893 72.9514 46.9884 72.9846C46.9875 73.0178 46.9801 73.0504 46.9666 73.0807C46.9531 73.1111 46.9338 73.1384 46.9097 73.1613C46.8857 73.1841 46.8573 73.202 46.8264 73.2139C46.7954 73.2258 46.7624 73.2315 46.7292 73.2306C46.3708 73.2684 46.0085 73.2234 45.6702 73.0992C45.3319 72.9749 45.0267 72.7746 44.778 72.5138C44.5294 72.2529 44.3439 71.9385 44.2359 71.5946C44.1279 71.2508 44.1003 70.8868 44.1552 70.5306C44.2578 69.1014 45.2052 67.8714 46.1844 66.8676C46.2177 66.832 46.2587 66.8044 46.3043 66.787C46.3499 66.7696 46.3988 66.7628 46.4474 66.7671C46.496 66.7715 46.5429 66.7868 46.5847 66.812C46.6264 66.8372 46.6619 66.8716 46.6884 66.9126L47.3826 67.9992C47.4055 68.0277 47.4224 68.0605 47.4323 68.0956C47.4422 68.1308 47.4449 68.1675 47.4403 68.2038C47.4357 68.24 47.4238 68.2749 47.4054 68.3065C47.387 68.338 47.3624 68.3655 47.3331 68.3873C47.3038 68.4092 47.2704 68.4249 47.2349 68.4335C47.1995 68.4421 47.1626 68.4435 47.1265 68.4376C47.0905 68.4316 47.056 68.4185 47.0252 68.399C46.9943 68.3794 46.9677 68.3538 46.947 68.3238L46.3998 67.6098Z" fill="#00143B"/>
<path d="M48.756 70.6577C48.843 71.4755 48.417 71.6177 48.729 71.8283C49.089 72.0497 49.4064 71.3933 49.4916 70.9775C49.5545 70.6734 49.5356 70.3581 49.437 70.0637C49.2966 69.6929 48.828 68.8037 48.4974 68.9789C48.1866 69.1457 48.5016 69.5135 48.756 70.6577Z" fill="#00143B"/>
<path d="M42.72 68.7396C42.0666 69.7596 41.991 70.878 43.1016 72.3828C43.1396 72.4465 43.2014 72.4924 43.2733 72.5105C43.3452 72.5286 43.4213 72.5174 43.485 72.4794C43.5487 72.4414 43.5946 72.3796 43.6127 72.3077C43.6308 72.2358 43.6196 72.1597 43.5816 72.096C43.064 71.1385 42.9185 70.0235 43.173 68.9652C43.1878 68.9355 43.1966 68.9031 43.1989 68.8699C43.2012 68.8368 43.197 68.8035 43.1864 68.772C43.1759 68.7405 43.1592 68.7114 43.1374 68.6863C43.1156 68.6612 43.089 68.6407 43.0593 68.6259C43.0296 68.6111 42.9972 68.6023 42.964 68.6C42.9309 68.5977 42.8976 68.6019 42.8661 68.6125C42.8346 68.623 42.8055 68.6397 42.7804 68.6615C42.7553 68.6833 42.7348 68.7099 42.72 68.7396Z" fill="#00143B"/>
<path d="M43.1448 89.8157C44.1696 89.9517 45.2029 90.0143 46.2366 90.0029C47.52 90.0197 52.8012 86.7491 53.7132 85.5929C54.354 84.7805 54.2616 83.8163 54.1332 82.7885C54.1252 82.7144 54.0882 82.6465 54.0302 82.5998C53.9722 82.553 53.898 82.5312 53.8239 82.5392C53.7498 82.5472 53.6819 82.5842 53.6352 82.6422C53.5884 82.7002 53.5666 82.7744 53.5746 82.8485C53.655 83.6573 53.6946 84.5633 53.193 85.1591C52.413 86.0897 46.9176 89.2661 46.2204 89.2925C45.214 89.3619 44.2042 89.3685 43.197 89.3123C43.1302 89.3054 43.0635 89.3253 43.0114 89.3676C42.9593 89.4099 42.9261 89.4711 42.9192 89.5379C42.9123 89.6047 42.9322 89.6714 42.9745 89.7235C43.0168 89.7756 43.078 89.8088 43.1448 89.8157Z" fill="#00143B"/>
<path d="M55.2246 82.7328C55.8204 81.4638 56.3472 81.4422 56.0832 81.1086C55.8642 80.787 55.212 81.3612 54.966 81.6318C54.7468 81.8722 54.588 82.1614 54.5028 82.4754C54.4332 82.764 54.3384 83.5446 54.7074 83.565C54.9666 83.58 54.8874 83.4516 55.2246 82.7328Z" fill="#00143B"/>
<path d="M56.6682 87.3499C54.7632 90.9019 54.7758 90.8569 52.2558 93.9199C49.9758 96.6925 46.9008 98.5237 43.3356 97.9999C43.2697 97.9895 43.2104 97.9542 43.1698 97.9012C43.1293 97.8483 43.1107 97.7818 43.1178 97.7155C43.127 97.6489 43.1623 97.5888 43.2158 97.5482C43.2694 97.5076 43.3368 97.4898 43.4034 97.4989C46.6836 97.9141 49.5492 95.9461 51.6432 93.4099C54.4398 90.0223 54.1362 90.3139 56.1372 86.8405C56.331 86.5039 56.6532 86.8183 57.1452 86.4277C58.0788 85.6867 57.6132 83.2969 59.6238 83.0371C59.6963 83.0286 59.7693 83.0483 59.8277 83.0922C59.886 83.1361 59.9251 83.2008 59.937 83.2729C59.9455 83.3465 59.9245 83.4205 59.8786 83.4787C59.8328 83.537 59.7658 83.5747 59.6922 83.5837C59.5124 83.6057 59.3401 83.669 59.1888 83.7687C59.0376 83.8685 58.9115 84.0019 58.8204 84.1585C58.2336 85.1011 58.4604 86.2105 57.5808 86.9485C57.3233 87.1702 57.0056 87.3099 56.6682 87.3499Z" fill="#00143B"/>
<path d="M58.0014 83.073C58.1718 82.902 58.2672 82.8054 58.3788 82.713C58.9356 82.2492 59.247 82.428 59.2236 82.0674C59.1546 81.5874 57.8628 81.8058 57.3966 82.6032C57.2412 82.8642 56.9694 83.4768 57.2448 83.6088C57.4686 83.7144 57.516 83.5446 58.0014 83.073Z" fill="#00143B"/>
<path d="M56.6118 82.7646C56.745 82.5636 56.8194 82.4496 56.9118 82.335C57.3648 81.7698 57.7056 81.8832 57.6114 81.5346C57.4476 81.0774 56.226 81.5484 55.9272 82.4226C55.827 82.7094 55.6818 83.364 55.9788 83.4384C56.22 83.499 56.2302 83.3238 56.6118 82.7646Z" fill="#00143B"/>
<path d="M16.4556 90.6413C16.6422 88.9109 16.7274 88.8647 16.4688 88.7675C16.1058 88.6439 15.903 89.3783 15.7878 89.7437C15.7032 90.0252 15.6665 90.3189 15.6792 90.6125C15.7152 90.9449 15.7812 91.6049 16.1148 91.5785C16.3392 91.5599 16.3158 91.4063 16.4556 90.6413Z" fill="#00143B"/>
<path d="M17.8308 89.6269C17.7531 89.8167 17.7297 90.0244 17.763 90.2269C17.7762 90.4069 17.871 91.0308 18.183 91.0068C18.5118 90.9804 18.4914 90.4752 18.5646 89.9442C18.5646 89.877 18.5508 89.8116 18.5508 89.7438C18.5058 89.3724 18.5412 89.1744 18.3192 89.1168C18.0972 89.0592 17.9808 89.2945 17.8308 89.6269Z" fill="#00143B"/>
<path d="M17.283 75.369V75.3168H17.2692C17.2692 75.0168 17.7768 74.997 17.814 75.3012C17.9676 76.5426 18.4794 78.9348 19.1898 79.9638C20.385 81.696 23.28 82.6722 22.4298 85.7334C22.2956 86.3333 21.9935 86.8825 21.5586 87.3168C20.703 88.14 19.593 88.1454 18.06 88.2C15.8652 88.2774 11.3448 89.058 11.292 85.4862C11.2574 84.4933 11.6032 83.5246 12.2586 82.7778C13.7022 81.0696 15.6402 80.6988 16.7118 77.931C17.0268 77.1107 17.2152 76.2472 17.2704 75.3702L17.283 75.369ZM17.5554 77.0922C17.2911 78.4002 16.674 79.6109 15.771 80.5932C14.1912 82.2342 12.0288 82.9932 12.0804 85.4694C12.0659 85.9025 12.2058 86.3267 12.4752 86.6661C12.7446 87.0055 13.1259 87.2381 13.551 87.3222C14.94 87.729 16.8606 87.4422 18.0318 87.4068C19.7172 87.354 20.8944 87.4278 21.5454 86.0124C21.6779 85.703 21.765 85.376 21.804 85.0416C22.1154 82.8912 19.776 81.9858 18.6582 80.3286C18.1068 79.3215 17.7337 78.2265 17.5554 77.0922Z" fill="#57c2b4"/>
<path d="M14.1366 86.3022C14.076 86.3001 14.0181 86.2766 13.9732 86.2358C13.9283 86.1951 13.8992 86.1398 13.8912 86.0796C13.8331 85.7288 13.7968 85.3748 13.7826 85.0194C13.7416 84.6859 13.8305 84.3494 14.0307 84.0796C14.231 83.8097 14.5273 83.6272 14.8584 83.5698C15.474 83.4514 16.1058 83.4445 16.7238 83.5494C16.9951 83.634 17.2311 83.8051 17.3959 84.0365C17.5608 84.268 17.6452 84.547 17.6364 84.831C17.6991 85.2162 17.6805 85.6103 17.5818 85.9878C17.517 86.1576 17.4008 86.3029 17.2495 86.4034C17.0981 86.504 16.9192 86.5548 16.7376 86.5488C16.194 86.5308 15.3576 86.4888 14.8854 86.4288C14.6337 86.4003 14.3837 86.358 14.1366 86.3022ZM14.3814 85.7862C15.147 85.8467 15.9156 85.8609 16.683 85.8288C16.8822 85.8048 16.8768 85.7226 16.9008 85.6284C16.9096 85.3824 16.8915 85.1362 16.8468 84.894C16.8502 84.7962 16.8325 84.6987 16.7948 84.6083C16.7571 84.5179 16.7004 84.4367 16.6284 84.3702C16.1023 84.2441 15.557 84.2193 15.0216 84.297C14.682 84.3684 14.4492 84.4626 14.3952 85.053C14.3728 85.2968 14.3682 85.5418 14.3814 85.7862Z" fill="#57c2b4"/>
<path d="M16.7172 82.8835C16.8186 82.4737 17.4036 82.6435 17.9568 82.7413C18.5424 82.8343 18.7236 82.7005 18.7602 84.3271C18.7602 84.4261 18.7872 84.5539 18.7872 84.6799C18.7872 84.7399 18.8142 84.7969 18.7872 84.8383C18.6672 85.0051 18.4368 85.0345 18.147 85.0873C18.1098 85.0903 18.0737 85.1008 18.0407 85.1181C18.0077 85.1354 17.9785 85.1593 17.955 85.1882C17.9315 85.2171 17.9141 85.2505 17.9038 85.2863C17.8935 85.3221 17.8906 85.3597 17.8952 85.3967C17.8998 85.4336 17.9119 85.4693 17.9307 85.5015C17.9495 85.5337 17.9746 85.5618 18.0045 85.584C18.0344 85.6062 18.0685 85.6221 18.1048 85.6308C18.141 85.6395 18.1787 85.6408 18.2154 85.6345C18.4317 85.6286 18.6466 85.5973 18.8556 85.5415C19.009 85.4968 19.1472 85.4109 19.2552 85.2932C19.3632 85.1755 19.4369 85.0304 19.4682 84.8737C19.4859 84.6893 19.4906 84.5038 19.482 84.3187C19.536 83.5015 19.5732 82.5379 18.8142 82.1329C18.5741 82.0272 18.3139 81.9751 18.0516 81.9805C17.6433 81.9199 17.2272 81.9382 16.8258 82.0345C16.6505 82.0806 16.4953 82.1834 16.3845 82.3269C16.2737 82.4703 16.2135 82.6464 16.2132 82.8277C16.209 82.8929 16.23 82.9572 16.272 83.0073C16.314 83.0573 16.3736 83.0893 16.4385 83.0965C16.5035 83.1036 16.5687 83.0855 16.6206 83.0459C16.6725 83.0062 16.7071 82.9481 16.7172 82.8835Z" fill="#57c2b4"/>
<path d="M48.6468 83.0539C40.5894 82.3537 32.1336 83.6743 27.8922 90.5617C27.7381 90.9812 27.6712 91.4277 27.6954 91.8739L25.6722 91.7821C25.6482 90.7255 25.176 89.7373 24.1602 89.4649C24.1073 89.1646 24.0254 88.8702 23.9154 88.5859C23.8971 88.5314 23.8666 88.4818 23.8262 88.4409C23.7859 88.3999 23.7368 88.3687 23.6826 88.3495C23.7837 87.7143 23.9912 87.1007 24.2964 86.5345C24.7302 85.8367 25.4004 85.5253 25.89 84.6919C26.4867 83.4322 26.9698 82.1218 27.3336 80.7763C27.8556 79.2217 28.4346 77.6647 28.3686 76.1083C28.2558 73.9981 25.8582 72.9367 24.6372 74.8813C23.5032 76.6615 22.9884 79.8553 21.9402 83.6599C21.9231 83.7249 21.9325 83.794 21.9664 83.8521C22.0003 83.9101 22.0558 83.9524 22.1208 83.9695C22.1858 83.9866 22.2549 83.9772 22.313 83.9433C22.3711 83.9094 22.4133 83.8539 22.4304 83.7889C24.2352 77.4757 24.6372 76.3165 25.2906 75.3019C26.1144 74.0419 27.5106 74.8219 27.5652 76.1449C27.6318 77.5567 27.0516 79.1977 26.6118 80.5435C26.2881 81.8561 25.8463 83.1367 25.2918 84.3697C24.9288 85.0573 24.1782 85.5145 23.7666 86.2123C23.404 86.9692 23.1611 87.7778 23.0466 88.6093C22.859 88.7541 22.6716 88.8967 22.4844 89.0371C22.4844 89.0371 22.4844 88.9807 22.4718 88.4569C23.0214 87.0991 23.214 86.1409 22.4976 84.8899C22.4847 84.8589 22.4658 84.8307 22.4419 84.8071C22.418 84.7835 22.3897 84.7648 22.3585 84.7523C22.3273 84.7398 22.294 84.7336 22.2604 84.7341C22.2268 84.7346 22.1936 84.7419 22.1629 84.7553C22.1321 84.7688 22.1043 84.7883 22.0812 84.8127C22.058 84.837 22.04 84.8657 22.0281 84.8972C22.0162 84.9286 22.0107 84.962 22.0118 84.9956C22.013 85.0292 22.0209 85.0622 22.035 85.0927C22.2189 86.0551 22.2022 87.0452 21.9858 88.0009C21.795 88.0165 21.6678 88.0201 21.5304 88.0201L21.5172 87.1285C21.5199 87.0955 21.516 87.0624 21.5058 87.031C21.4956 86.9995 21.4793 86.9704 21.4577 86.9454C21.4362 86.9203 21.4099 86.8998 21.3803 86.885C21.3508 86.8701 21.3186 86.8614 21.2856 86.8591C21.2186 86.8558 21.1529 86.8785 21.1022 86.9224C21.0515 86.9663 21.0196 87.0281 21.0132 87.0949L20.9316 88.3111C20.9299 88.387 20.9571 88.4608 21.0076 88.5174C21.0582 88.5741 21.1284 88.6095 21.204 88.6165C21.3932 88.6471 21.5842 88.6646 21.7758 88.6687C21.7473 89.0392 21.7383 89.4109 21.7488 89.7823C21.7499 89.8515 21.7699 89.9192 21.8064 89.978C21.843 90.0367 21.8949 90.0845 21.9565 90.1161C22.0181 90.1477 22.0872 90.162 22.1563 90.1574C22.2253 90.1528 22.2919 90.1295 22.3488 90.0901C22.884 89.7343 23.1492 89.5339 23.3298 89.3965C23.3706 89.5435 23.3979 89.6939 23.4114 89.8459C23.4242 89.9346 23.4658 90.0166 23.5298 90.0793C23.5937 90.1421 23.6765 90.1821 23.7654 90.1933C24.6354 90.2689 25.0296 91.2319 24.9774 92.0767C24.9757 92.1227 24.9832 92.1687 24.9996 92.2118C25.016 92.2549 25.0409 92.2942 25.0728 92.3275C25.1982 92.4835 25.2102 92.4367 27.6774 92.4367C27.6426 93.9367 27.7026 96.0883 27.7146 97.5097C27.7149 97.6005 27.7461 97.6884 27.8032 97.759C27.8602 97.8296 27.9397 97.8786 28.0284 97.8979C30.2658 98.2684 32.5286 98.465 34.7964 98.4859C37.2888 98.5897 39.5364 98.6713 42.0144 98.6143C42.113 98.6119 42.2067 98.571 42.2755 98.5004C42.3442 98.4297 42.3825 98.3349 42.3822 98.2363L42.219 88.9243C42.22 88.8464 42.1907 88.7712 42.1373 88.7146C42.0839 88.6579 42.0106 88.6243 41.9328 88.6207C39.7842 88.5235 37.662 88.6207 35.5188 88.6495C35.4536 88.6539 35.3926 88.6833 35.3486 88.7316C35.3046 88.7799 35.281 88.8434 35.2827 88.9087C35.2844 88.974 35.3113 89.0362 35.3578 89.0821C35.4042 89.1281 35.4667 89.1543 35.532 89.1553C37.5504 89.1619 39.6084 89.1061 41.6196 89.2153V97.8721C39.3528 97.8889 31.3056 97.6801 28.5048 97.1743C28.4808 94.9201 28.3944 92.2867 28.5186 91.2091C28.5318 91.1071 28.5594 90.9889 28.5594 90.9625C32.8476 84.2803 40.6896 83.0071 48.606 83.6041C48.6428 83.608 48.68 83.6045 48.7154 83.5938C48.7508 83.583 48.7837 83.5653 48.8121 83.5416C48.8405 83.5179 48.8639 83.4887 48.8808 83.4558C48.8977 83.4229 48.9078 83.387 48.9106 83.3501C48.9133 83.3132 48.9086 83.2761 48.8967 83.241C48.8848 83.206 48.866 83.1737 48.8414 83.1461C48.8168 83.1185 48.7869 83.0961 48.7535 83.0802C48.72 83.0644 48.6838 83.0554 48.6468 83.0539Z" fill="#00143B"/>
<path d="M25.89 77.0029C24.393 80.5099 24.381 81.6505 23.6292 84.4429C23.6097 84.5123 23.6174 84.5865 23.6509 84.6503C23.6844 84.7141 23.741 84.7627 23.8092 84.7861C23.8806 84.8067 23.9573 84.799 24.0232 84.7646C24.0891 84.7302 24.1393 84.6717 24.1632 84.6013C24.5868 83.4277 25.5804 80.1325 25.77 79.4149C25.968 78.6661 26.1462 77.9149 26.37 77.1787C26.3933 77.115 26.3904 77.0447 26.3619 76.9832C26.3333 76.9218 26.2815 76.8741 26.2179 76.8508C26.1542 76.8275 26.0839 76.8304 26.0224 76.8589C25.961 76.8875 25.9133 76.9392 25.89 77.0029Z" fill="#57c2b4"/>
<path d="M115.488 91.029C115.325 90.0516 115.368 87.9762 115.134 86.136C114.671 82.593 113.222 81.2526 110.449 83.4132C108.838 84.6534 107.874 86.0406 106.663 87.3564C95.1804 83.4438 83.8632 80.5632 71.9352 82.806C68.3892 80.166 63.972 79.2168 60.1152 81.3006C57.6702 79.8876 55.0098 78.627 52.911 80.5206C49.6488 83.4942 49.0854 84.3048 47.382 87.6606C47.3467 87.7347 47.3353 87.818 47.3495 87.8989C47.3636 87.9798 47.4025 88.0543 47.4608 88.1121C47.5191 88.1699 47.594 88.2081 47.675 88.2215C47.756 88.2349 47.8392 88.2228 47.913 88.1868C49.0104 87.6366 49.7322 87.2268 50.9364 86.5638C51.6695 86.2467 52.3247 85.7738 52.8564 85.1778C53.5674 84.2286 53.1564 83.4978 53.469 82.6176C53.4994 82.5 53.5662 82.395 53.6598 82.3176C53.6952 82.3028 53.7339 82.2974 53.772 82.3018C53.8101 82.3062 53.8465 82.3203 53.8776 82.3428C53.9246 82.3674 53.976 82.3825 54.0288 82.3873C54.0816 82.392 54.1349 82.3862 54.1855 82.3704C54.2361 82.3545 54.2831 82.3288 54.3237 82.2947C54.3644 82.2606 54.3979 82.2189 54.4224 82.1718C54.5047 82.0036 54.6102 81.8477 54.7356 81.7086C55.1394 81.2712 56.0922 80.5914 56.4516 81.0762C56.5088 81.1596 56.5959 81.2179 56.6948 81.239C56.7937 81.2601 56.8969 81.2424 56.9832 81.1896C57.1689 81.0836 57.3881 81.0529 57.5958 81.1038C57.7308 81.1404 57.7926 81.1914 57.759 81.3804C57.7434 81.4506 57.7472 81.5237 57.7698 81.592C57.7925 81.6603 57.8332 81.7211 57.8876 81.7681C57.9421 81.8151 58.0082 81.8465 58.0791 81.859C58.1499 81.8714 58.2228 81.8644 58.29 81.8388C58.6776 81.6978 59.2794 81.8214 59.19 82.2588C59.1778 82.3227 59.1812 82.3886 59.1999 82.451C59.2187 82.5133 59.2523 82.5701 59.2978 82.6166C59.3433 82.6631 59.3994 82.6979 59.4613 82.7181C59.5232 82.7382 59.589 82.743 59.6532 82.7322C59.7204 82.7137 59.7915 82.7139 59.8586 82.7329C59.9257 82.7518 59.9864 82.7887 60.034 82.8396C60.0817 82.8905 60.1146 82.9534 60.1291 83.0216C60.1436 83.0898 60.1392 83.1607 60.1164 83.2266C60.0294 83.5056 59.7018 83.7018 59.4084 83.9136C57.8142 85.0632 58.6716 87.2538 56.943 87.7782C56.8936 87.7927 56.8476 87.8171 56.8079 87.8499C56.7682 87.8827 56.7356 87.9232 56.712 87.969C55.8672 89.496 54.996 91.0692 53.988 92.5356C52.788 94.2756 50.6382 96.9102 48.5952 97.4166C48.5055 97.4379 48.4261 97.4899 48.3709 97.5637C48.3157 97.6375 48.2881 97.7283 48.2929 97.8203C48.2978 97.9124 48.3348 97.9998 48.3975 98.0673C48.4602 98.1349 48.5446 98.1783 48.636 98.19C57.891 99.3414 68.6304 99.2856 116.607 98.8632V98.8866C116.656 98.8851 116.704 98.8698 116.745 98.8424C116.786 98.815 116.819 98.7767 116.839 98.7318H116.852C117.529 97.3962 115.702 92.46 115.488 91.029ZM76.62 87.8676C76.5908 87.8887 76.5577 87.9037 76.5227 87.9119C76.4876 87.92 76.4512 87.921 76.4158 87.915C76.3803 87.9089 76.3464 87.8957 76.316 87.8764C76.2857 87.857 76.2595 87.8318 76.239 87.8022C75.6294 87.0318 72.7758 83.8344 72.6024 83.6538C72.5523 83.6086 72.5222 83.5453 72.5187 83.4779C72.5152 83.4105 72.5386 83.3445 72.5838 83.2944C72.629 83.2443 72.6923 83.2142 72.7597 83.2107C72.8271 83.2072 72.8931 83.2306 72.9432 83.2758C74.475 84.3973 75.7513 85.8311 76.6878 87.4824C76.7279 87.5431 76.7432 87.6169 76.7306 87.6885C76.718 87.7602 76.6784 87.8242 76.62 87.8676Z" fill="#57c2b4"/>
<path d="M102.06 19.9998C98.7642 20.0196 31.4328 20.568 24.5964 20.631C22.9506 20.6466 22.2726 23.2752 23.3022 24.7326L30.2724 34.68C30.4124 34.9016 30.6051 35.0851 30.8332 35.2143C31.0613 35.3434 31.3177 35.4142 31.5798 35.4204L51.6948 34.959C51.7321 34.9595 51.7692 34.9525 51.8037 34.9384C51.8382 34.9243 51.8696 34.9033 51.8958 34.8768C51.9221 34.8503 51.9427 34.8187 51.9565 34.784C51.9702 34.7493 51.9768 34.7122 51.9759 34.6749C51.975 34.6376 51.9665 34.6009 51.9511 34.5669C51.9356 34.5329 51.9134 34.5024 51.8859 34.4773C51.8583 34.4521 51.826 34.4327 51.7908 34.4203C51.7556 34.4079 51.7182 34.4028 51.681 34.4052L33.441 34.7382C30.807 30.4134 28.6668 27.1938 26.2476 23.808C27.7362 23.8188 90.3912 23.8344 95.3592 23.808C94.0518 26.0676 93.2514 27.5976 92.1792 29.7564C91.9428 30.2364 90.6648 32.868 90.4614 33.4164H77.8674C77.7974 33.4273 77.7339 33.4635 77.6888 33.5181C77.6437 33.5728 77.6201 33.642 77.6226 33.7128C77.622 33.7455 77.6278 33.778 77.6398 33.8084C77.6518 33.8388 77.6697 33.8666 77.6924 33.89C77.7152 33.9135 77.7423 33.9323 77.7724 33.9452C77.8024 33.9581 77.8347 33.965 77.8674 33.9654H96.1032C96.3697 33.9531 96.6289 33.8744 96.8573 33.7364C97.0856 33.5984 97.2758 33.4054 97.4106 33.1752L103.403 23.9868C104.417 22.3686 103.585 19.992 102.06 19.9998ZM102.823 23.604L96.8826 32.8278C96.8003 32.9674 96.6879 33.0869 96.5536 33.1776C96.4193 33.2683 96.2664 33.3279 96.1062 33.3522H91.0932C92.8792 30.257 94.5002 27.0695 95.9496 23.8032C99.024 23.7858 100.846 23.7732 100.846 23.7732C100.88 23.7749 100.915 23.7695 100.948 23.7573C100.981 23.7451 101.01 23.7265 101.036 23.7024C101.061 23.6784 101.081 23.6495 101.095 23.6174C101.108 23.5854 101.115 23.5509 101.115 23.5161C101.115 23.4812 101.108 23.4467 101.095 23.4147C101.081 23.3827 101.061 23.3538 101.036 23.3297C101.01 23.3057 100.981 23.287 100.948 23.2749C100.915 23.2627 100.88 23.2573 100.846 23.259C21.2256 23.298 26.1528 23.2314 25.8858 23.3094C25.8418 23.2653 25.7829 23.2393 25.7207 23.2362C25.6585 23.2332 25.5974 23.2534 25.5493 23.2929C25.5012 23.3324 25.4694 23.3884 25.4603 23.45C25.4512 23.5116 25.4654 23.5744 25.5 23.6262C27.12 26.3754 29.64 30.3066 32.7768 34.7508L31.5666 34.773C31.4116 34.7614 31.2616 34.713 31.129 34.632C30.9964 34.5509 30.885 34.4394 30.804 34.3068L23.8716 24.3294C23.1252 23.235 23.6646 21.3588 24.5916 21.3534C31.428 21.3048 98.7732 20.7576 102.068 20.724C102.949 20.7138 103.517 22.4892 102.82 23.604H102.823Z" fill="#00143B"/>
<path d="M98.3328 29.0166C98.311 28.5659 98.1133 28.1418 97.7823 27.8352C97.4513 27.5286 97.0132 27.364 96.5622 27.3768C96.3382 27.368 96.1147 27.4035 95.9045 27.4812C95.6942 27.5589 95.5014 27.6773 95.3369 27.8296C95.1725 27.9819 95.0397 28.1651 94.9461 28.3688C94.8525 28.5725 94.8 28.7926 94.7916 29.0166C94.7908 29.249 94.8361 29.4793 94.9249 29.6941C95.0137 29.9089 95.1442 30.104 95.3088 30.268C95.4735 30.4321 95.669 30.5619 95.8842 30.6498C96.0993 30.7378 96.3298 30.7823 96.5622 30.7806C96.7957 30.7863 97.028 30.7447 97.2449 30.6581C97.4619 30.5716 97.6591 30.442 97.8246 30.2771C97.9901 30.1122 98.1204 29.9155 98.2078 29.6989C98.2951 29.4822 98.3376 29.2501 98.3328 29.0166ZM97.5972 29.0166C97.5779 29.2778 97.4605 29.522 97.2685 29.7001C97.0764 29.8782 96.8241 29.977 96.5622 29.9766C96.2971 29.9836 96.0396 29.8875 95.8439 29.7084C95.6483 29.5293 95.5298 29.2813 95.5134 29.0166C95.5117 28.7344 95.6205 28.4628 95.8165 28.2599C96.0125 28.0569 96.2802 27.9387 96.5622 27.9306C96.7021 27.9318 96.8403 27.9612 96.9687 28.0168C97.097 28.0725 97.2129 28.1534 97.3094 28.2547C97.4059 28.3559 97.4811 28.4756 97.5306 28.6064C97.58 28.7373 97.6027 28.8768 97.5972 29.0166Z" fill="#00143B"/>
</svg>
