<svg width="120" height="120" viewBox="0 0 120 120" fill="none" xmlns="http://www.w3.org/2000/svg">
<path d="M8.9814 32.8903C8.955 35.2207 8.9286 37.5253 8.9028 39.8563C9.2628 39.7363 8.9472 39.9481 14.0628 42.2653C15.7392 43.0249 17.5722 43.9681 19.4028 44.3605C19.4028 41.6893 19.4028 39.0205 19.4556 36.3733C15.84 35.9017 12.36 34.0945 8.9814 32.8903ZM16.7856 41.8729C14.5773 40.7885 12.303 39.8438 9.9762 39.0445C9.92228 39.029 9.8765 38.9931 9.84849 38.9445C9.82048 38.8959 9.81243 38.8383 9.82604 38.7838C9.83965 38.7294 9.87385 38.6824 9.92145 38.6527C9.96904 38.6229 10.0263 38.6129 10.0812 38.6245C12.5159 39.2364 14.8521 40.1886 17.0208 41.4529C17.0765 41.4841 17.1175 41.5361 17.1349 41.5976C17.1522 41.659 17.1444 41.7248 17.1132 41.7805C17.082 41.8362 17.03 41.8772 16.9685 41.8946C16.9071 41.9119 16.8413 41.9041 16.7856 41.8729ZM20.0592 36.2683C20.0592 39.0445 20.0328 41.7943 20.0064 44.5699C24.681 41.1961 30.3948 38.6341 35.5362 35.5873C37.1562 34.6273 39.6162 33.3463 39.8052 32.9689C39.8316 32.9425 39.9096 32.8903 39.9096 32.8639C39.9228 30.4039 39.9624 27.9403 39.9624 25.4785C33.2058 28.8049 26.6844 32.6023 20.0592 36.2683ZM35.1192 33.7279C30.6615 36.7759 26.027 39.5567 21.24 42.0559C21.0306 42.1621 20.8488 41.8501 21.0564 41.7421C25.8378 39.2527 30.2022 36.0235 34.9104 33.3613C34.9586 33.3391 35.0133 33.3358 35.0638 33.352C35.1143 33.3683 35.1568 33.403 35.1829 33.4492C35.209 33.4954 35.2167 33.5497 35.2046 33.6013C35.1924 33.653 35.1613 33.6982 35.1174 33.7279H35.1192Z" fill="#57c2b4"/>
<path d="M70.1316 41.0867L73.824 39.2267C73.8696 39.2024 73.9203 39.1894 73.9719 39.1887C74.0235 39.1881 74.0745 39.1998 74.1207 39.2229C74.1668 39.2459 74.2068 39.2797 74.2372 39.3214C74.2677 39.3631 74.2877 39.4115 74.2956 39.4625V41.6399C74.228 41.9416 74.1843 42.2481 74.1648 42.5567L82.545 50.5703C82.5894 50.6128 82.6444 50.6425 82.7043 50.6564C82.7642 50.6702 82.8267 50.6676 82.8852 50.6489L91.161 47.4539C91.3704 47.3753 92.2608 46.6421 92.2608 46.8539L92.0778 52.3793C92.0796 52.4546 92.054 52.5279 92.0058 52.5857C91.9576 52.6436 91.89 52.6819 91.8156 52.6937L84.0378 55.5485C83.9809 55.5638 83.9207 55.562 83.8648 55.5433C83.8089 55.5247 83.7597 55.4899 83.7234 55.4435L70.0266 41.6105C69.9905 41.5725 69.964 41.5264 69.9495 41.4761C69.9349 41.4258 69.9327 41.3727 69.943 41.3213C69.9533 41.2699 69.9758 41.2218 70.0087 41.1809C70.0415 41.1401 70.0837 41.1078 70.1316 41.0867Z" fill="#57c2b4"/>
<path d="M31.7916 93.8045C31.6344 94.0139 30.9792 94.1699 30.744 94.2761C29.8782 94.6649 28.989 95.0615 28.1514 95.5331C28.125 95.0359 28.125 94.5376 28.1514 94.0403C29.3225 93.4045 30.5291 92.8361 31.7652 92.3381C31.7652 92.6261 31.7388 92.9381 31.7388 93.2285C31.7461 93.4213 31.7637 93.6136 31.7916 93.8045Z" fill="#57c2b4"/>
<path d="M38.2074 96.06C37.8487 96.2792 37.4609 96.4467 37.0554 96.5574C27.0078 101.096 28.5594 100.55 27.8892 100.774C27.8634 100.119 27.837 99.438 27.7848 98.7834C31.2936 97.1598 34.8294 95.5884 38.3124 93.9126C38.391 94.6428 38.4696 95.7948 38.2074 96.06Z" fill="#57c2b4"/>
<path d="M30.8484 103.783C30.8484 104.176 30.8484 104.542 30.8226 104.935C29.9473 105.189 29.097 105.522 28.2822 105.93C28.2558 105.589 28.2036 105.276 28.1772 104.935C29.0676 104.568 29.958 104.176 30.8484 103.783Z" fill="#57c2b4"/>
<path d="M36.5052 102.42C35.772 102.813 35.0124 103.18 34.2534 103.52C34.2006 103.18 34.1748 102.813 34.1484 102.472C34.8803 102.017 35.6625 101.648 36.4794 101.372C36.48 101.714 36.5052 102.054 36.5052 102.42Z" fill="#57c2b4"/>
<path d="M22.4682 94.5378C20.7373 94.0049 19.0408 93.3665 17.388 92.6262C16.5762 92.2848 15.7116 92.0261 14.952 91.6571C14.2452 91.3163 14.2602 91.3704 14.1924 90.5832C14.1639 90.1997 14.1639 89.8146 14.1924 89.4312C17.8782 90.8382 17.9964 90.9792 21.7086 92.3112C22.0475 92.3732 22.3745 92.4882 22.6776 92.652C22.68 92.6784 22.5204 93.8832 22.4682 94.5378Z" fill="#57c2b4"/>
<path d="M22.0752 99.3042C20.9232 99.0948 19.902 98.4924 18.828 98.0994C18.8544 97.5498 18.7494 97.026 18.7494 96.4758C20.8686 97.224 21.321 97.4358 21.9708 97.5234C22.0447 98.1141 22.0796 98.709 22.0752 99.3042Z" fill="#57c2b4"/>
<path d="M85.452 23.5668C86.472 23.3598 87.4686 22.9398 88.4634 22.6764C88.8564 22.5726 88.7034 21.9522 88.3062 22.0764C87.2626 22.3399 86.2457 22.6994 85.2684 23.1504C85.0068 23.2524 85.1898 23.6196 85.452 23.5668Z" fill="#57c2b4"/>
<path d="M90.48 21.8911C90.782 21.8454 91.0798 21.7751 91.3704 21.6811C91.6836 21.5995 92.0268 21.5809 92.3394 21.4717C92.4016 21.4504 92.4544 21.408 92.4887 21.3519C92.5231 21.2958 92.5367 21.2295 92.5274 21.1644C92.5181 21.0993 92.4864 21.0395 92.4377 20.9953C92.3891 20.951 92.3265 20.9252 92.2608 20.9221C91.598 20.9345 90.9492 21.1147 90.375 21.4459C90.192 21.5767 90.2442 21.9139 90.48 21.8911Z" fill="#57c2b4"/>
<path d="M86.0016 26.8139C86.5333 26.6926 87.0512 26.5171 87.5472 26.2901C87.8886 26.1617 87.7566 25.6109 87.39 25.7405C86.8454 25.9049 86.3189 26.1243 85.8186 26.3951C85.7755 26.4265 85.7444 26.4716 85.7304 26.5231C85.7164 26.5745 85.7205 26.6292 85.7418 26.6781C85.7632 26.7269 85.8005 26.767 85.8478 26.7917C85.895 26.8164 85.9493 26.8243 86.0016 26.8139Z" fill="#57c2b4"/>
<path d="M89.118 25.8713C90.585 25.2431 92.0982 24.7805 93.5964 24.2999C93.6319 24.2906 93.6652 24.2742 93.6942 24.2517C93.7232 24.2292 93.7474 24.2011 93.7654 24.1691C93.7834 24.1371 93.7947 24.1018 93.7987 24.0653C93.8027 24.0288 93.7993 23.9918 93.7888 23.9567C93.7782 23.9215 93.7607 23.8888 93.7373 23.8606C93.7138 23.8323 93.6849 23.8091 93.6523 23.7922C93.6197 23.7754 93.584 23.7653 93.5474 23.7625C93.5108 23.7597 93.474 23.7644 93.4392 23.7761C91.8477 24.1539 90.3086 24.7256 88.8564 25.4783C88.5936 25.6073 88.8564 26.0021 89.118 25.8713Z" fill="#57c2b4"/>
<path d="M85.8708 30.3499C88.3184 29.5652 90.715 28.6294 93.0468 27.5479C93.0978 27.5162 93.1362 27.4676 93.1552 27.4106C93.1742 27.3536 93.1727 27.2918 93.1509 27.2358C93.1291 27.1798 93.0884 27.1332 93.0358 27.1041C92.9833 27.0749 92.9222 27.0651 92.8632 27.0763C90.4476 27.8784 88.0784 28.8138 85.7664 29.8783C85.4754 30.0031 85.5822 30.4531 85.8708 30.3499Z" fill="#57c2b4"/>
<path d="M86.1852 33.0996C86.8646 32.9445 87.5302 32.7342 88.1754 32.4708C88.2426 32.4481 88.2984 32.4002 88.3309 32.3371C88.3635 32.2741 88.3703 32.2009 88.3499 32.1329C88.3295 32.065 88.2835 32.0076 88.2216 31.9729C88.1597 31.9382 88.0868 31.9289 88.0182 31.947C87.3269 32.1353 86.6524 32.3805 86.0016 32.6802C85.7688 32.7906 85.95 33.1536 86.1852 33.0996Z" fill="#57c2b4"/>
<path d="M89.64 31.9471C90.3474 31.6855 91.0602 31.4377 91.7616 31.1353C92.052 31.0105 91.8396 30.5323 91.5522 30.6379C90.8442 30.8977 90.1722 31.2319 89.4828 31.5283C89.226 31.6399 89.4066 32.0521 89.64 31.9471Z" fill="#57c2b4"/>
<path d="M86.0544 35.928C86.865 35.6622 87.678 35.2992 88.4634 34.959C88.7256 34.8282 88.5408 34.3536 88.254 34.461C87.4399 34.7635 86.6441 35.1133 85.8708 35.5086C85.6614 35.64 85.818 36.0054 86.0544 35.928Z" fill="#57c2b4"/>
<path d="M85.9494 37.6799C88.3206 36.8585 90.7278 36.0263 92.994 34.9799C93.2286 34.8725 93.0726 34.4561 92.811 34.5347C90.48 35.3993 88.1754 36.3683 85.8186 37.2059C85.5564 37.3421 85.6596 37.7825 85.9494 37.6799Z" fill="#57c2b4"/>
<path d="M86.421 40.4322C87.0758 40.2932 87.7158 40.0923 88.3326 39.8322C88.6236 39.6804 88.4106 39.3294 88.1232 39.3612C87.4872 39.5076 86.8649 39.7084 86.2632 39.9612C86.0016 40.0656 86.133 40.5372 86.421 40.4322Z" fill="#57c2b4"/>
<path d="M76.1286 18.5124C78.1398 19.8966 80.0094 21.4572 81.9426 22.9386C82.209 23.142 82.4886 22.6824 82.2042 22.4934C80.1852 21.1476 78.4332 19.3764 76.338 18.1458C76.1028 17.9886 75.8952 18.3516 76.1286 18.5124Z" fill="#57c2b4"/>
<path d="M78.4854 23.4881C79.114 24.0181 79.7889 24.4906 80.502 24.8999C80.5675 24.9323 80.643 24.9386 80.7129 24.9174C80.7829 24.8963 80.8423 24.8493 80.8789 24.7861C80.9155 24.7228 80.9267 24.6479 80.9102 24.5767C80.8937 24.5055 80.8507 24.4432 80.79 24.4025C80.0874 24.0023 79.4808 23.3549 78.7212 23.0927C78.4854 23.0429 78.3 23.3573 78.4854 23.4881Z" fill="#57c2b4"/>
<path d="M76.1028 25.6621C77.5734 26.6509 79.014 27.7494 80.5284 28.6476C80.5844 28.6804 80.6505 28.6914 80.7141 28.6786C80.7776 28.6658 80.8343 28.63 80.8731 28.578C80.912 28.5261 80.9304 28.4617 80.9248 28.3971C80.9192 28.3324 80.89 28.2721 80.8428 28.2277C79.509 27.0469 77.8296 26.1876 76.3122 25.2426C76.1022 25.1124 75.8676 25.5037 76.1028 25.6621Z" fill="#57c2b4"/>
<path d="M75.6312 29.7739C76.2284 30.3109 76.8593 30.8093 77.52 31.2661C77.7546 31.4245 78.0216 31.0789 77.8338 30.8737C77.2443 30.3525 76.6139 29.8796 75.9486 29.4595C75.7356 29.2759 75.3942 29.5657 75.6312 29.7739Z" fill="#57c2b4"/>
<path d="M79.0356 32.34C79.308 32.5578 81.108 33.9246 81.4956 34.1472C81.5479 34.1753 81.6085 34.1835 81.6664 34.1704C81.7242 34.1573 81.7754 34.1237 81.8105 34.0759C81.8455 34.028 81.8621 33.9691 81.8572 33.91C81.8523 33.8509 81.8261 33.7956 81.7836 33.7542C81.4945 33.4351 81.1597 33.1607 80.79 32.94C80.3154 32.604 79.8174 32.265 79.3236 31.9446C79.086 31.7928 78.8028 32.1534 79.0356 32.34Z" fill="#57c2b4"/>
<path d="M103.836 21.498C106.219 21.393 108.602 21.2886 110.986 21.1572C110.986 21.9972 111.012 22.86 111.012 23.6976C108.662 23.3877 106.278 23.432 103.941 23.829L103.836 21.498Z" fill="#57c2b4"/>
<path d="M49.128 38.5727C49.0884 39.3767 49.1147 40.1826 49.2066 40.9823C50.9616 40.9823 52.716 40.9559 54.4446 40.9559C54.936 40.9559 56.0598 40.9907 56.3046 40.5629C56.493 40.1855 56.3418 38.8367 56.226 38.2583C53.9056 38.6286 51.5524 38.7515 49.206 38.6249L49.128 38.5727Z" fill="#57c2b4"/>
<path d="M88.647 95.6119C88.7256 96.3187 88.8042 97.0261 88.935 97.7071C88.9348 97.7647 88.9479 97.8217 88.9731 97.8735C88.9984 97.9254 89.0352 97.9708 89.0808 98.0062C89.1263 98.0416 89.1794 98.0661 89.2358 98.0777C89.2923 98.0894 89.3507 98.088 89.4066 98.0736C91.4466 98.0604 93.4656 98.0473 95.508 98.0208C95.3772 97.2618 95.2464 96.5281 95.088 95.7691C95.085 95.7003 95.057 95.6351 95.0094 95.5855C94.983 95.5591 94.9308 95.5609 94.8786 95.5591C93.2274 95.5201 91.5534 95.3892 89.9028 95.2974C88.4742 95.2182 88.4496 95.5068 88.2792 95.5068L88.647 95.6119Z" fill="#57c2b4"/>
<path d="M98.127 49.7293C98.1274 49.667 98.1069 49.6064 98.0687 49.5572C98.0305 49.508 97.9769 49.4731 97.9165 49.458C97.8561 49.4429 97.7924 49.4485 97.7356 49.474C97.6788 49.4995 97.6321 49.5433 97.6032 49.5985C97.1832 50.3053 96.7632 50.9863 96.3726 51.6937C96.189 51.9289 96.582 52.1389 96.7392 51.9031L97.5084 50.7265C97.4592 51.5743 97.3884 52.4257 97.3674 53.2909C97.3674 53.6317 97.9176 53.7109 97.9674 53.3695C98.1127 52.1618 98.1661 50.9449 98.127 49.7293Z" fill="#57c2b4"/>
<path d="M98.4678 55.8833C98.4125 55.8773 98.3571 55.8932 98.3136 55.9277C97.4628 55.7549 97.092 56.8835 96.975 57.6119C96.8436 58.4519 96.5298 60.1523 97.7082 60.4403C98.7816 60.7025 99.2796 59.3405 99.3582 58.5287C99.4368 57.6641 99.672 56.0399 98.4678 55.8833ZM98.4414 56.4833C98.4948 56.4887 98.577 56.6501 98.5992 56.6987C98.1833 57.1994 97.8081 57.7325 97.4772 58.2929C97.5048 57.7121 97.5678 56.3999 98.4414 56.4857V56.4833ZM98.4678 59.4167C98.2356 59.6345 97.8762 59.8235 97.656 59.7311C97.5713 59.6868 97.5069 59.6117 97.4758 59.5213C97.4448 59.431 97.4496 59.3321 97.4892 59.2451C97.5336 59.2379 97.5761 59.2215 97.6138 59.1969C97.6515 59.1723 97.6837 59.1401 97.7082 59.1023C98.0682 58.5623 98.4732 58.0079 98.7846 57.4265C98.88 58.1885 98.7774 59.1281 98.4678 59.4191V59.4167Z" fill="#57c2b4"/>
<path d="M98.4678 66.6732C98.19 65.4987 98.0927 64.2889 98.1792 63.0852C98.1773 63.0216 98.1552 62.9602 98.1161 62.91C98.077 62.8598 98.023 62.8233 97.9618 62.8058C97.9007 62.7883 97.8355 62.7907 97.7758 62.8126C97.7161 62.8346 97.6649 62.875 97.6296 62.928C97.1959 63.5524 96.8105 64.2091 96.477 64.8924C96.4471 64.9444 96.4389 65.0061 96.454 65.0642C96.4691 65.1223 96.5064 65.1721 96.5579 65.203C96.6093 65.2338 96.6709 65.2433 96.7292 65.2293C96.7876 65.2153 96.8381 65.179 96.87 65.1282C97.1058 64.7892 97.3164 64.4262 97.5396 64.0746C97.5112 65.0098 97.6029 65.9449 97.8126 66.8568C97.8247 66.8998 97.8451 66.94 97.8727 66.9751C97.9003 67.0103 97.9345 67.0396 97.9735 67.0615C98.0124 67.0834 98.0553 67.0974 98.0996 67.1028C98.144 67.1081 98.189 67.1046 98.232 67.0926C98.275 67.0805 98.3152 67.0601 98.3504 67.0325C98.3855 67.0049 98.4149 66.9706 98.4368 66.9317C98.4587 66.8928 98.4727 66.8499 98.478 66.8055C98.4833 66.7612 98.4799 66.7162 98.4678 66.6732Z" fill="#57c2b4"/>
<path d="M99.489 69.3708C99.4766 69.3292 99.4545 69.2911 99.4247 69.2595C99.3949 69.228 99.3581 69.2038 99.3172 69.1891C99.2764 69.1743 99.2327 69.1693 99.1896 69.1745C99.1464 69.1797 99.1052 69.195 99.069 69.219C98.9421 69.114 98.7938 69.038 98.6345 68.9963C98.4752 68.9546 98.3086 68.9482 98.1466 68.9777C97.9845 69.0071 97.8309 69.0716 97.6964 69.1667C97.5619 69.2617 97.4498 69.3851 97.368 69.528C96.7176 70.419 96.843 71.754 97.2546 72.7572C97.2459 72.8128 97.2537 72.8697 97.2771 72.9209C97.3004 72.9721 97.3383 73.0153 97.386 73.0452C97.8102 73.8498 98.607 73.89 99.1488 73.1154C99.4745 72.5536 99.6737 71.9274 99.7324 71.2807C99.7912 70.6339 99.7081 69.9821 99.489 69.3708ZM98.9652 69.7908C98.9731 69.8036 98.9823 69.8154 98.9928 69.8262C99.0156 69.9618 99.036 70.0962 99.0528 70.2306C98.5212 70.7563 98.0502 71.3399 97.6488 71.9706C97.5647 71.6707 97.5232 71.3605 97.5258 71.049C97.5246 70.5 98.1 68.6898 98.9652 69.7896V69.7908ZM98.7294 72.567C98.625 72.96 98.4414 73.038 98.1792 72.75C98.1053 72.7049 98.0379 72.65 97.9788 72.5868C98.3146 72.0218 98.6835 71.4771 99.0834 70.9554C99.0787 71.511 98.9581 72.0595 98.7294 72.5658V72.567Z" fill="#57c2b4"/>
<path d="M8.24759 69.0829C11.8098 70.8637 15.8166 71.6755 19.2996 73.6135C19.3631 73.6668 19.4447 73.6938 19.5274 73.6889C19.6102 73.684 19.688 73.6475 19.7448 73.5871C19.759 73.5888 19.7735 73.5873 19.7871 73.5828C19.8007 73.5782 19.8131 73.5707 19.8234 73.5607C26.5278 69.4207 32.7606 64.5259 39.5172 60.4669C39.5753 60.4508 39.6268 60.4168 39.6644 60.3697C39.702 60.3226 39.7237 60.2649 39.7266 60.2047C39.8574 53.3395 40.2066 46.4815 40.4334 39.6469C40.5654 35.6953 40.4598 21.8779 40.4598 19.9003C40.4822 19.8655 40.496 19.8259 40.4999 19.7847C40.5039 19.7435 40.4979 19.7019 40.4825 19.6635C40.4671 19.6251 40.4428 19.5909 40.4115 19.5638C40.3802 19.5368 40.3428 19.5176 40.3026 19.5079C36.5463 18.1872 32.8808 16.6212 29.3298 14.8201C29.2923 14.7756 29.2418 14.744 29.1853 14.7299C29.1289 14.7158 29.0694 14.7199 29.0154 14.7415C25.7196 16.3057 8.69279 24.0175 8.69279 24.3787C8.65122 24.3977 8.61509 24.4268 8.58772 24.4634C8.56036 24.5 8.54264 24.5429 8.53619 24.5881C8.35079 31.0561 7.91819 64.1437 7.95959 68.8207C7.96031 68.8571 7.96844 68.8931 7.98351 68.9263C7.99857 68.9594 8.02023 68.9892 8.04719 69.0138C8.07414 69.0383 8.10581 69.0571 8.14027 69.069C8.17472 69.0809 8.21124 69.0856 8.24759 69.0829ZM39.1506 60.0739C32.5506 64.1329 26.3964 68.8993 19.8234 73.0111C19.8492 69.8161 19.8492 66.5947 19.8756 63.3997C19.902 63.3997 19.9278 63.3997 19.9278 63.3733C26.6844 59.9689 32.9964 55.8601 39.3864 51.8245C39.3078 54.5743 39.2028 57.3241 39.1506 60.0739ZM8.71919 58.8169C10.1498 59.7166 11.6573 60.4878 13.224 61.1215C15.1122 62.0059 17.0472 63.0331 19.0902 63.5305C19.1607 63.5496 19.2359 63.5404 19.2996 63.5047C19.2732 66.6469 19.2468 69.8161 19.221 72.9589C15.7116 71.4133 12.0978 70.0519 8.48099 68.6899C8.61479 65.4163 8.66699 62.1163 8.71919 58.8169ZM8.98139 32.8903C12.3858 34.0687 15.8688 35.9017 19.4304 36.3733C19.404 39.0445 19.404 41.7133 19.3782 44.3605C17.5446 43.9681 15.7092 43.0303 14.0382 42.2653C8.76179 39.8557 9.22199 39.7417 8.87819 39.8563C8.92859 37.5517 8.95499 35.2201 8.98139 32.8903ZM39.9624 32.8903C39.0372 33.6233 38.0363 34.2553 36.9768 34.7755C27.6054 40.1305 24.0984 41.6155 20.0064 44.5699C20.0328 41.7943 20.0592 39.0445 20.0592 36.2683C26.6592 32.6023 33.1794 28.8049 39.9882 25.5049C39.9882 27.9667 39.9882 30.4285 39.96 32.8903H39.9624ZM39.4122 51.1699C33.2322 55.5955 26.5278 59.2357 19.8756 62.9299C19.902 60.0499 19.902 57.1699 19.9278 54.2899C26.58 50.8555 32.9436 46.8223 39.6744 43.5229C39.5958 46.0891 39.4908 48.6295 39.4122 51.1699ZM39.7002 42.8941C39.661 42.9007 39.6246 42.9189 39.5958 42.9463C33.2058 46.8463 26.3958 50.0437 19.9542 53.7883C19.9542 53.7283 20.0322 45.2329 20.0328 45.1723C23.8302 42.6583 27.8124 40.4875 31.7928 38.3113C32.7846 37.7713 39.0798 34.3135 39.9894 33.6235C39.9762 33.9319 39.702 42.8293 39.7002 42.8941ZM40.0146 24.8503C33.3102 28.3597 26.5278 31.7641 20.085 35.7187C20.085 33.6235 20.0592 31.5283 20.0328 29.4331C26.6586 26.2645 33.1008 22.6531 40.0128 20.1361L40.0146 24.8503ZM19.4304 35.8495C15.8424 35.4043 12.438 33.4927 8.98139 32.4451H8.95499C8.98139 29.9569 8.98139 27.4693 8.98139 25.0051C12.4051 26.7001 15.9393 28.162 19.56 29.3809C19.509 31.5283 19.4568 33.6757 19.4304 35.8495ZM8.90279 40.3537C12.2578 42.2155 15.7716 43.7755 19.4028 45.0151C19.4028 47.1103 19.3506 53.1601 19.3506 54.1027L19.3242 54.0769C15.789 52.7413 12.3042 51.1699 8.77019 49.8343C8.77139 47.3221 8.86919 41.6779 8.90279 40.3537ZM19.1688 54.6265C19.197 54.6395 19.2277 54.6463 19.2588 54.6463C19.2899 54.6463 19.3206 54.6395 19.3488 54.6265C19.2618 63.9157 19.3398 63.0067 19.2438 63.0067C17.1589 62.3787 15.1414 61.5455 13.221 60.5191C11.6809 59.8662 10.185 59.1138 8.74259 58.2667C8.76839 55.6477 8.76839 53.0293 8.79479 50.4103C12.1688 52.0141 15.6326 53.4218 19.1688 54.6265ZM29.1726 15.2401C32.7336 17.6143 38.0994 19.1257 39.543 19.7449C36.4355 20.8555 33.4074 22.177 30.48 23.7001C26.943 25.4257 23.409 27.1573 19.926 28.9639C19.9002 28.9639 19.9002 28.9381 19.8474 28.9381C16.1028 27.9181 12.7506 26.0047 9.13679 24.6181C13.2744 22.7833 19.572 19.4299 29.1726 15.2401Z" fill="#001A4A"/>
<path d="M19.9278 54.2861C19.9278 56.7461 19.8756 62.5061 19.8756 62.9021C19.8756 62.5091 23.4372 60.9119 23.9346 60.6497C24.204 60.3803 32.2578 56.2229 39.4386 51.1697C39.5172 48.6293 39.6216 46.0889 39.7002 43.5227C30.7764 47.9843 28.5966 49.7543 19.9278 54.2861ZM32.184 54.2075C28.6896 56.6153 25.1172 58.9283 21.4206 60.9875C21.3722 61.0111 21.3167 61.0154 21.2653 60.9995C21.2139 60.9836 21.1705 60.9488 21.1438 60.902C21.1172 60.8553 21.1093 60.8002 21.1218 60.7478C21.1343 60.6955 21.1663 60.6499 21.2112 60.6203C24.7992 58.3685 28.3872 56.0639 31.9746 53.7851C32.2104 53.6573 32.4174 54.0467 32.184 54.2075Z" fill="#57c2b4"/>
<path d="M8.74561 50.4102C8.71921 53.0292 8.71921 55.6476 8.69281 58.2666C10.1391 59.1066 11.6346 59.8587 13.1712 60.519C14.2806 61.0518 17.1864 62.5368 18.4878 62.799C18.7236 62.8776 18.9852 62.9298 19.221 63.0084H19.2468C19.2732 63.0084 19.2732 63.0084 19.2996 63.0348C19.3254 60.2328 19.3518 57.4302 19.3518 54.6282C18.828 54.6264 12.1884 52.047 8.74561 50.4102ZM16.2876 60.5454C14.0904 59.6034 11.9928 58.476 9.79321 57.5334C9.58381 57.4284 9.74041 57.0636 9.95041 57.1404C12.2291 57.9301 14.4295 58.9295 16.5234 60.126C16.7856 60.2826 16.5468 60.6564 16.2876 60.5454Z" fill="#57c2b4"/>
<path d="M41.1672 82.3865C41.1672 82.3079 41.1144 82.2551 41.0358 82.2029C36.7674 79.8461 32.2668 77.9627 27.9678 75.6821C27.8752 75.646 27.7724 75.646 27.6798 75.6821C22.3398 78.1175 12.0198 84.1145 12.0198 84.3221C11.8998 90.9767 11.7318 97.7021 11.8104 104.356C11.8104 104.412 11.8325 104.465 11.8719 104.505C11.9113 104.544 11.9647 104.566 12.0204 104.566C12.0761 104.566 12.1295 104.544 12.1689 104.505C12.2083 104.465 12.2304 104.412 12.2304 104.356C12.3612 97.8053 12.5184 91.1831 12.4104 84.6623C14.5386 85.8383 25.4634 90.7643 25.662 90.7643C25.191 97.1807 24.9024 103.701 24.9288 110.144C24.9288 110.459 25.3788 110.433 25.4004 110.144C25.8804 103.657 26.0004 97.1327 26.1336 90.6599C26.1383 90.6146 26.129 90.569 26.1072 90.5291C28.5954 89.5865 30.954 88.0445 33.2832 86.8091C35.7468 85.5035 38.2062 84.1091 40.7466 82.9859C40.197 90.1613 40.092 97.4417 40.0656 104.646C40.0656 104.934 40.515 104.934 40.5372 104.646C41.103 97.3721 40.8516 90.0587 41.2182 82.7525C41.242 82.7264 41.2597 82.6955 41.2702 82.6618C41.2807 82.6281 41.2836 82.5925 41.2787 82.5575C41.2738 82.5226 41.2613 82.4891 41.242 82.4596C41.2228 82.43 41.1972 82.4051 41.1672 82.3865ZM33.2058 86.2865C30.7416 87.6185 28.23 88.8533 25.794 90.1865C23.4372 89.1665 14.874 85.3151 12.9096 84.4265C16.7592 82.2527 22.5732 78.2723 27.9156 76.1771C27.942 76.1771 27.942 76.1513 27.9678 76.1513C30.6714 77.9801 33.5712 78.8513 40.4862 82.5149C37.9722 83.6435 35.5866 85.0013 33.2058 86.2883V86.2865Z" fill="#001A4A"/>
<path d="M32.34 91.92C32.3401 91.8709 32.3272 91.8227 32.3024 91.7803C32.2776 91.7379 32.242 91.7029 32.1992 91.6789C32.1563 91.6549 32.1079 91.6428 32.0588 91.6439C32.0097 91.6449 31.9618 91.659 31.92 91.6848C30.5133 92.2242 29.1625 92.8994 27.8868 93.7008C27.8174 93.7011 27.751 93.7289 27.702 93.778C27.653 93.8271 27.6254 93.8936 27.6252 93.963C27.5643 94.6513 27.5643 95.3436 27.6252 96.0318C27.6248 96.081 27.6375 96.1295 27.6622 96.1721C27.6869 96.2147 27.7225 96.2498 27.7655 96.2739C27.8084 96.298 27.857 96.3102 27.9062 96.309C27.9554 96.3079 28.0034 96.2936 28.0452 96.2676C29.3746 95.4961 30.7582 94.8221 32.1852 94.251C32.2291 94.2305 32.2655 94.1967 32.2891 94.1544C32.3126 94.112 32.3223 94.0633 32.3166 94.0152C32.2626 93.3072 32.3676 92.6262 32.34 91.92ZM30.7428 94.2774C29.886 94.686 28.9878 95.0628 28.1502 95.5344C28.1238 95.0372 28.1238 94.5389 28.1502 94.0416C29.3214 93.4058 30.5279 92.8374 31.764 92.3394C31.764 92.6274 31.7376 92.9394 31.7376 93.2298C31.7376 93.4656 31.8162 93.7536 31.7904 93.7794C31.6344 93.9882 30.9552 94.1754 30.744 94.2762L30.7428 94.2774Z" fill="#001A4A"/>
<path d="M37.1076 88.7765C36.0756 89.4299 34.9296 89.8409 33.8604 90.4001C33.4656 90.6065 33.5196 90.6617 33.4938 91.1333C33.4499 91.5954 33.4586 92.061 33.5196 92.5211C33.4152 92.7305 33.5466 93.0467 33.834 92.9411C35.0154 92.5031 36.165 91.9721 37.317 91.4483C37.3638 91.4221 37.4029 91.3841 37.4305 91.3381C37.458 91.2921 37.4731 91.2397 37.4742 91.1861C37.4525 90.4525 37.4701 89.7182 37.527 88.9865C37.5192 88.9416 37.5009 88.8991 37.4737 88.8625C37.4465 88.8259 37.4111 88.7962 37.3703 88.7757C37.3295 88.7553 37.2845 88.7447 37.2388 88.7449C37.1932 88.745 37.1483 88.7558 37.1076 88.7765ZM36.9504 89.4575C36.9246 89.9807 36.8718 90.4775 36.8718 91.0025C35.9028 91.3691 34.9602 91.8425 33.9918 92.2595C34.0311 91.7978 34.0311 91.3335 33.9918 90.8717C34.9866 90.4001 35.9814 89.9807 36.9504 89.4599V89.4575Z" fill="#001A4A"/>
<path d="M36.846 90.9762C36.846 90.4524 36.8982 89.9562 36.9246 89.4312C35.9556 89.955 34.9602 90.4001 33.9648 90.8453C34.0044 91.3071 34.0044 91.7714 33.9648 92.2332C34.9338 91.8144 35.88 91.3428 36.846 90.9762Z" fill="#57c2b4"/>
<path d="M38.8098 93.5431C38.8096 93.497 38.7976 93.4518 38.7749 93.4118C38.7522 93.3718 38.7195 93.3383 38.68 93.3146C38.6406 93.2909 38.5957 93.2778 38.5497 93.2765C38.5037 93.2752 38.4581 93.2858 38.4174 93.3073C34.7442 94.9657 31.0218 96.5857 27.4182 98.3617C27.3878 98.3758 27.3607 98.3962 27.3386 98.4215C27.3166 98.4468 27.3001 98.4764 27.2902 98.5084C27.2803 98.5405 27.2772 98.5743 27.2812 98.6076C27.2852 98.6409 27.2961 98.673 27.3132 98.7019C27.3132 99.5137 27.3264 100.325 27.3396 101.162C27.3425 101.206 27.3546 101.249 27.3751 101.287C27.3956 101.326 27.4241 101.36 27.4586 101.388C27.4932 101.415 27.5331 101.434 27.5758 101.445C27.6185 101.456 27.6629 101.457 27.7062 101.45C29.2248 101.083 30.8208 100.032 32.2368 99.3811C34.3554 98.4067 36.453 97.4167 38.6004 96.5011C38.6567 96.482 38.7064 96.4471 38.7435 96.4006C38.7806 96.3542 38.8036 96.298 38.8098 96.2389C38.8098 95.3497 38.8626 94.4335 38.8098 93.5431ZM38.2098 96.0571C37.8511 96.2763 37.4633 96.4437 37.0578 96.5545C27.9888 100.651 28.5012 100.538 27.8916 100.771C27.8658 100.116 27.8394 99.4351 27.7872 98.7805C31.296 97.1569 34.8072 95.5855 38.2872 93.9097C38.391 94.6429 38.4696 95.7949 38.2074 96.0601L38.2098 96.0571Z" fill="#001A4A"/>
<path d="M31.3722 103.39C31.377 103.18 31.1628 103.102 30.9798 103.154C29.9844 103.574 28.9632 103.994 27.9678 104.437C27.837 104.411 27.6756 104.464 27.6798 104.647C27.693 105.223 27.7062 105.799 27.7584 106.349C27.7603 106.4 27.7751 106.45 27.8014 106.495C27.8278 106.539 27.8648 106.576 27.9092 106.602C27.9536 106.628 28.0038 106.642 28.0552 106.644C28.1067 106.646 28.1577 106.634 28.2036 106.611C29.199 106.139 30.2724 105.851 31.2678 105.406C31.3149 105.382 31.3531 105.344 31.3766 105.297C31.4002 105.25 31.4079 105.196 31.3986 105.144C31.3574 104.56 31.3486 103.974 31.3722 103.39ZM30.8484 103.783C30.8484 104.176 30.8484 104.568 30.8226 104.935C29.9473 105.189 29.097 105.522 28.2822 105.93C28.2558 105.589 28.2036 105.275 28.1772 104.935C29.0676 104.568 29.958 104.176 30.8484 103.783Z" fill="#001A4A"/>
<path d="M36.66 100.718C35.6303 100.995 34.656 101.446 33.78 102.054C33.6888 102.145 33.6228 102.191 33.6228 102.316C33.6153 102.859 33.6504 103.402 33.7278 103.94C33.7518 104.097 33.9078 104.305 34.0944 104.228C35.0681 103.822 36.0208 103.368 36.9486 102.866C36.9934 102.838 37.0309 102.799 37.0582 102.754C37.0855 102.708 37.1018 102.657 37.1058 102.604C37.0926 102.053 37.014 101.531 37.0014 101.006C37.0061 100.963 37 100.918 36.9836 100.877C36.9672 100.836 36.941 100.8 36.9073 100.772C36.8736 100.743 36.8334 100.724 36.7903 100.714C36.7472 100.705 36.7024 100.706 36.66 100.718ZM34.146 102.473C34.8779 102.017 35.6601 101.648 36.477 101.373C36.477 101.714 36.5028 102.08 36.5028 102.421C35.7696 102.814 35.01 103.18 34.251 103.52C34.227 103.154 34.1748 102.814 34.1484 102.473H34.146Z" fill="#001A4A"/>
<path d="M22.9656 92.2333C19.9542 91.2385 17.0022 89.9623 14.0358 88.8289C13.8264 88.7491 13.695 88.9597 13.7214 89.1433C13.6692 89.9551 13.6296 90.7927 13.6164 91.6033C13.6219 91.6658 13.6443 91.7256 13.6811 91.7763C13.718 91.8271 13.768 91.8668 13.8258 91.8913C16.8378 92.8603 19.6188 94.3357 22.6776 95.1913C22.7178 95.2059 22.7611 95.21 22.8034 95.2035C22.8457 95.1969 22.8856 95.1798 22.9196 95.1538C22.9535 95.1277 22.9804 95.0935 22.9977 95.0544C23.0149 95.0152 23.0221 94.9723 23.0184 94.9297C22.9828 94.1329 23.0266 93.3346 23.1492 92.5465C23.1492 92.3905 23.097 92.2597 22.9656 92.2333ZM14.9256 91.6573C14.2164 91.3213 14.2332 91.3705 14.166 90.5833C14.1372 90.2087 14.1372 89.8323 14.166 89.4577C15.606 90.0073 20.6604 91.9717 21.6822 92.3377C22.0138 92.3954 22.3328 92.5106 22.6248 92.6779C22.6512 92.7043 22.5198 93.9349 22.4448 94.5895C20.7062 94.0536 19.0008 93.4153 17.3376 92.6779C16.5756 92.2855 15.7092 92.0287 14.9262 91.6573H14.9256Z" fill="#001A4A"/>
<path d="M22.2066 96.9996C21.5193 96.9021 20.8491 96.7082 20.2158 96.4236C19.665 96.2436 19.1178 96.0528 18.5922 95.8734C18.5434 95.8599 18.4917 95.8606 18.4433 95.8754C18.3949 95.8902 18.3517 95.9185 18.3187 95.9569C18.2858 95.9954 18.2645 96.0425 18.2574 96.0926C18.2502 96.1428 18.2575 96.1939 18.2784 96.24C18.1998 96.9474 18.372 97.6308 18.252 98.3088C18.2286 98.4408 18.3564 98.5446 18.4614 98.571C19.7448 99.0426 20.9214 99.7548 22.311 99.9588C22.3546 99.9688 22.3998 99.9688 22.4434 99.959C22.487 99.9492 22.5278 99.9298 22.563 99.9022C22.5981 99.8746 22.6266 99.8395 22.6465 99.7995C22.6663 99.7595 22.6769 99.7155 22.6776 99.6708C22.6936 98.8458 22.6234 98.0213 22.4682 97.2108C22.461 97.1484 22.4295 97.0913 22.3806 97.0518C22.3317 97.0123 22.2692 96.9936 22.2066 96.9996ZM21.9708 97.5234C22.0494 98.1234 22.0752 98.7018 22.1016 99.3042C20.9828 99.0087 19.8953 98.6052 18.8544 98.0994C18.8802 97.5498 18.7758 97.026 18.7758 96.4758C19.816 96.8965 20.8835 97.2465 21.9708 97.5234Z" fill="#001A4A"/>
<path d="M52.1136 100.325C52.0806 100.925 52.3242 101.923 52.1664 102.499C51.9576 103.259 50.202 103.153 49.4664 103.207C47.6856 103.336 45.903 103.471 44.1264 103.627C44.0707 103.627 44.0173 103.649 43.9779 103.688C43.9385 103.727 43.9164 103.781 43.9164 103.837C43.9164 103.892 43.9385 103.946 43.9779 103.985C44.0173 104.024 44.0707 104.047 44.1264 104.047C46.902 103.864 49.7826 103.497 52.5588 103.523C52.6419 103.522 52.7214 103.489 52.7802 103.43C52.839 103.371 52.8724 103.292 52.8732 103.209C52.7707 102.243 52.727 101.273 52.7424 100.302C52.7472 99.9329 52.1352 99.9323 52.1136 100.325Z" fill="#001A4A"/>
<path d="M54.2352 97.2876C51.7998 97.2876 49.3644 97.4784 46.9284 97.7076C46.8702 97.7128 46.8146 97.734 46.7677 97.7689C46.7208 97.8037 46.6845 97.8509 46.6628 97.9052C46.6411 97.9594 46.6349 98.0186 46.6448 98.0762C46.6547 98.1338 46.6804 98.1875 46.719 98.2314C46.719 98.7288 46.7712 99.1998 46.7976 99.6978C46.7978 99.7671 46.8254 99.8336 46.8744 99.8826C46.9234 99.9316 46.9899 99.9592 47.0592 99.9594C49.4688 99.8286 51.852 99.645 54.2352 99.4356C54.3102 99.4313 54.381 99.3996 54.4341 99.3465C54.4872 99.2934 54.5189 99.2226 54.5232 99.1476C54.5058 98.3832 54.7542 97.2876 54.2352 97.2876ZM51.4854 99.0948C50.7534 99.1638 50.0184 99.2214 49.2852 99.2778C48.9708 99.3024 47.535 99.5874 47.3214 99.4092C47.1924 99.3012 47.1906 98.7018 47.1906 98.3088C48.552 98.2044 49.887 98.064 51.2496 97.995C51.9149 97.8757 52.5936 97.8492 53.2662 97.9164C53.7114 97.7592 53.9472 97.9164 54.0258 98.3874C54.123 99.2652 52.1958 99.0276 51.4854 99.0948Z" fill="#001A4A"/>
<path d="M74.112 42.3439C74.0922 42.3658 74.077 42.3916 74.0676 42.4197C74.0581 42.4477 74.0545 42.4773 74.057 42.5068C74.0595 42.5363 74.068 42.565 74.082 42.591C74.096 42.6171 74.1152 42.64 74.1384 42.6583C76.9146 45.4345 79.6128 48.2917 82.5186 50.9341C82.5587 50.972 82.6091 50.9972 82.6634 51.0065C82.7178 51.0158 82.7737 51.0088 82.8241 50.9865C82.8745 50.9641 82.9172 50.9273 82.9468 50.8807C82.9763 50.8341 82.9914 50.7798 82.9902 50.7247C83.0144 50.7374 83.0414 50.7441 83.0688 50.7441C83.0962 50.7441 83.1231 50.7374 83.1474 50.7247C86.3587 49.8713 89.4606 48.6498 92.3916 47.0845C92.6568 46.9321 92.4156 46.5811 92.1564 46.6915C89.115 47.9863 86.0802 49.1011 83.0166 50.2795C82.9902 50.2795 82.9902 50.3053 82.9638 50.3053C83.2068 47.3767 84.4638 23.3101 84.3522 21.1315C84.378 21.1051 94.8012 17.2033 95.0922 17.0719C95.04 25.1119 94.896 33.1519 94.9092 41.1919C94.9092 41.2613 94.9368 41.3278 94.9858 41.3769C95.0349 41.4259 95.1014 41.4535 95.1708 41.4535C95.2402 41.4535 95.3067 41.4259 95.3558 41.3769C95.4048 41.3278 95.4324 41.2613 95.4324 41.1919C95.3922 16.2691 95.7582 16.6609 95.511 16.4959C92.637 14.0653 89.62 11.809 86.4762 9.7393C86.45 9.69571 86.4102 9.6619 86.363 9.64305C86.3157 9.62419 86.2636 9.62133 86.2146 9.6349C82.398 10.3549 78.7644 12.1933 75.0582 13.3009C74.8782 13.3555 74.9796 13.6939 74.9796 13.7209C75 23.2267 73.6932 32.7853 74.112 42.3439ZM82.545 50.1481C79.8738 47.5555 77.3334 44.7799 74.505 42.3181C74.793 32.8903 75.6048 23.4361 75.474 13.9819C78.354 16.2865 81.234 18.6175 83.934 21.1573C83.6922 23.2201 83.2062 41.6929 82.545 50.1481ZM84.2472 20.6599C83.2518 19.3507 81.5472 18.2761 80.2926 17.2555C78.7746 16.0237 77.2026 14.7955 75.6312 13.6153C79.245 12.6727 82.7022 11.1553 86.2896 10.1059C89.2481 12.1066 92.0896 14.2751 94.8 16.6009C94.7214 16.6267 94.6428 16.6795 94.6164 16.6795C91.8936 17.9365 84.8214 20.4427 84.2472 20.6599Z" fill="#001A4A"/>
<path d="M67.8534 41.1655C70.0794 43.8169 72.2442 45.7405 77.4642 50.9605C76.05 51.6673 74.6574 52.3897 73.1958 53.0005C73.1596 53.0116 73.1261 53.0302 73.0975 53.0551C73.0689 53.08 73.0458 53.1106 73.0298 53.1449C73.0137 53.1793 73.0051 53.2166 73.0043 53.2545C73.0036 53.2924 73.0108 53.33 73.0255 53.3649C73.0402 53.3999 73.0621 53.4313 73.0897 53.4573C73.1173 53.4832 73.1501 53.5031 73.1859 53.5157C73.2216 53.5282 73.2596 53.5331 73.2974 53.53C73.3352 53.527 73.3719 53.516 73.4052 53.4979C74.9257 52.8677 76.3965 52.1236 77.805 51.2719C79.8155 53.1096 81.6641 55.1171 83.3304 57.2719C83.3505 57.3035 83.3767 57.3307 83.4076 57.3519C83.4385 57.3731 83.4734 57.3878 83.5101 57.3952C83.5468 57.4025 83.5847 57.4024 83.6213 57.3947C83.658 57.387 83.6927 57.372 83.7234 57.3505C84.3106 57.2227 84.8816 57.0293 85.4256 56.7739C86.3042 56.4949 87.162 56.1541 87.9924 55.7539C88.0398 55.7225 88.0748 55.6756 88.0915 55.6212C88.1081 55.5668 88.1054 55.5083 88.0837 55.4558C88.062 55.4032 88.0227 55.3598 87.9726 55.333C87.9225 55.3061 87.8646 55.2976 87.8088 55.3087C86.6184 55.5427 84.4434 56.7133 83.6688 56.8537C80.568 52.9429 72.3552 45.5359 68.2962 41.0359C69.079 40.6371 69.8936 40.3042 70.7316 40.0405C70.9926 39.9607 70.8888 39.5437 70.6266 39.6205C69.6656 39.9121 68.7359 40.2982 67.851 40.7731C67.8063 40.8287 67.7819 40.8979 67.7819 40.9693C67.7819 41.0406 67.8063 41.1099 67.851 41.1655H67.8534Z" fill="#001A4A"/>
<path d="M97.5774 22.9385C99.1224 22.9385 100.641 22.8335 102.187 22.8335C102.5 22.8335 102.502 22.3169 102.187 22.3619C100.656 22.5318 99.1162 22.5932 97.5774 22.5455C97.3152 22.5191 97.3152 22.9385 97.5774 22.9385Z" fill="#001A4A"/>
<path d="M104.046 24.1429C106.359 23.7746 108.712 23.7306 111.038 24.0121C111.196 24.0349 111.328 23.8549 111.326 23.7241C111.313 22.8841 111.287 22.0219 111.274 21.1837C111.273 21.1145 111.245 21.0482 111.196 20.9993C111.147 20.9503 111.081 20.9226 111.012 20.9221C103.399 21.3421 103.469 21.2389 103.469 21.5767C103.43 22.3265 103.509 23.0779 103.705 23.8027C103.696 23.8494 103.699 23.8975 103.713 23.9429C103.727 23.9883 103.752 24.0295 103.785 24.0631C103.819 24.0967 103.86 24.1215 103.906 24.1354C103.951 24.1493 103.999 24.1519 104.046 24.1429ZM110.75 22.7029C110.881 23.0431 110.803 23.2789 110.515 23.3839C108.387 23.1654 106.239 23.2181 104.125 23.5405C104.072 22.9405 103.941 22.3099 103.889 21.7075C105.329 21.6553 106.796 21.6085 108.236 21.5503C109.415 21.5029 111.091 20.9743 110.75 22.7029Z" fill="#001A4A"/>
<path d="M44.0478 27.8357C47.1384 28.2425 48.885 27.2357 53.5806 27.6785H53.6328C53.6852 27.9217 53.8139 28.1417 54 28.3067C54.42 28.6163 55.4136 28.4177 55.9116 28.4381C56.8278 28.4753 57.7452 28.5161 58.6356 28.5689C58.5828 29.7473 58.6614 30.9251 58.6878 32.1041C58.6862 32.1424 58.6925 32.1805 58.7064 32.2162C58.7203 32.2519 58.7415 32.2843 58.7686 32.3113C58.7956 32.3384 58.828 32.3596 58.8637 32.3735C58.8994 32.3874 58.9375 32.3937 58.9758 32.3921C59.7876 32.4707 60.5994 32.5493 61.3854 32.6279C61.4376 32.9159 61.4898 33.2039 61.5654 33.4925C61.5833 33.5616 61.6242 33.6225 61.6814 33.6652C61.7385 33.708 61.8085 33.73 61.8798 33.7277C63.2676 33.7277 64.6818 33.7409 66.0696 33.7277C66.8292 33.7205 67.0602 33.5717 66.96 32.8115C66.961 32.238 66.8546 31.6694 66.6462 31.1351C66.4368 30.8735 66.0432 30.8765 65.7294 30.8207C64.3334 30.543 62.9063 30.455 61.4868 30.5591C61.4246 30.5637 61.3652 30.5873 61.3169 30.6267C61.2685 30.6661 61.2333 30.7194 61.2162 30.7794C61.199 30.8393 61.2007 30.9032 61.221 30.9622C61.2413 31.0212 61.2792 31.0725 61.3296 31.1093C61.3038 31.3973 61.3038 31.7093 61.3038 31.9997C60.6228 31.9469 59.9154 31.8947 59.2344 31.8161C59.1558 30.7427 59.1558 29.6423 59.0778 28.5689C59.8894 28.6209 60.7012 28.6809 61.5132 28.7489C61.8792 28.7801 62.5332 28.9607 62.901 28.6967C63.5844 28.2029 63.0714 26.2091 63.0582 25.5281C63.057 25.4451 63.0234 25.3659 62.9647 25.3072C62.906 25.2485 62.8268 25.215 62.7438 25.2137C59.7576 25.2527 56.7696 25.3091 53.8134 25.0565C53.5512 25.0343 53.4468 25.2923 53.4996 25.5017C53.4467 26.0416 53.4467 26.5854 53.4996 27.1253C50.3304 26.7851 47.214 27.7541 44.0712 27.3611C43.8642 27.4163 43.8126 27.8045 44.0478 27.8357ZM65.784 31.5281C66.333 31.6379 66.1554 31.6583 66.2292 32.2091C66.2504 32.4113 66.2855 32.6118 66.3342 32.8091C66.3226 32.873 66.296 32.9332 66.2566 32.9849C66.2173 33.0365 66.1662 33.0781 66.1077 33.1062C66.0491 33.1343 65.9848 33.1481 65.9198 33.1465C65.8549 33.145 65.7913 33.128 65.7342 33.0971C65.3512 33.1364 64.9652 33.1364 64.5822 33.0971H62.1462C61.9721 32.4742 61.8754 31.8321 61.8582 31.1855C63.1749 31.1704 64.4898 31.2851 65.784 31.5281ZM62.484 25.8977C62.5626 26.6309 62.7738 27.9977 62.3532 28.2809C61.8085 28.3007 61.2634 28.2566 60.729 28.1495C59.7498 28.1033 58.8762 27.9953 55.8846 27.8879C55.3942 27.9589 54.8945 27.8571 54.471 27.5999C53.9214 27.1799 53.9472 26.4737 53.9472 25.8191C56.8014 25.9235 59.6298 25.9763 62.4846 25.8977H62.484Z" fill="#001A4A"/>
<path d="M42.6336 40.2749C44.703 40.2491 46.7736 40.1441 48.8664 40.0133C48.8664 40.3277 48.8928 40.6415 48.9186 40.9823C48.9238 41.057 48.9558 41.1273 49.0087 41.1802C49.0616 41.2331 49.1319 41.2651 49.2066 41.2703C51.276 41.2703 53.658 41.5793 55.7016 41.1653C57.1416 40.8737 56.7012 39.3317 56.5134 38.1797C56.4876 38.0225 56.3046 37.9739 56.1732 37.9997C53.8612 38.362 51.518 38.4848 49.1808 38.3663C49.1478 38.3576 49.1134 38.3564 49.0799 38.3627C49.0464 38.3689 49.0147 38.3826 48.9871 38.4027C48.9595 38.4227 48.9368 38.4486 48.9205 38.4786C48.9041 38.5085 48.8947 38.5417 48.8928 38.5757C48.8664 38.8637 48.8664 39.1757 48.84 39.4661C46.7712 39.5969 44.7 39.6869 42.6336 39.8327C42.5794 39.839 42.5294 39.865 42.4931 39.9058C42.4568 39.9466 42.4368 39.9992 42.4368 40.0538C42.4368 40.1084 42.4568 40.161 42.4931 40.2018C42.5294 40.2426 42.5794 40.2686 42.6336 40.2749ZM54.8898 38.7299C55.5978 38.6609 55.863 38.3363 56.0682 39.2537C56.496 41.1635 54.0282 40.6679 52.8996 40.6679C51.771 40.6679 50.6196 40.6679 49.4952 40.6943C49.4424 40.0943 49.3902 39.5153 49.3902 38.9135C51.2254 38.9896 53.0637 38.9282 54.8898 38.7299Z" fill="#001A4A"/>
<path d="M18.435 76.4676C19.0404 76.6968 19.98 77.2476 20.661 77.175C21.42 77.0916 22.0482 76.3878 22.6254 75.9702C22.9314 75.7488 31.4916 69.9168 33.2844 68.7162C45.4896 75.6906 45.2244 76.083 46.431 76.389C46.4946 76.406 46.5621 76.3994 46.6212 76.3705C46.6803 76.3415 46.7269 76.2922 46.7524 76.2315C46.7779 76.1709 46.7807 76.1031 46.7601 76.0406C46.7395 75.9781 46.697 75.9252 46.6404 75.8916C45.8808 75.3414 44.9094 74.9274 44.1 74.4516C39.3876 71.6802 36.7128 69.6606 33.78 68.4282C37.983 65.6262 42.1758 62.6928 46.5336 60.4146C46.5816 60.3835 46.6211 60.3408 46.6485 60.2905C46.6758 60.2402 46.6901 60.1839 46.6901 60.1266C46.6901 60.0694 46.6758 60.013 46.6485 59.9627C46.6211 59.9124 46.5816 59.8697 46.5336 59.8386C45.2508 59.2104 43.8606 58.8186 42.5268 58.2936C42.1338 58.1376 41.9502 58.7928 42.3438 58.9482C43.4154 59.3718 44.5698 59.7078 45.6438 60.1788C38.1876 64.4268 31.1058 69.4896 23.6196 74.583C22.7304 75.1872 21.8358 76.0428 20.817 76.443C20.4234 76.5972 20.007 76.383 19.4292 76.2072C17.0892 75.4872 7.99619 72.1998 3.32339 69.6864C3.08339 69.5586 2.85299 69.9192 3.11399 70.053C7.99199 72.5472 13.443 74.58 18.435 76.4676Z" fill="#001A4A"/>
<path d="M116.485 85.4502C114.007 86.4864 111.514 87.4254 108.969 88.3302C108.002 88.6746 106.847 89.3652 105.853 89.4822C105.206 89.5584 104.062 88.6188 99.5934 85.8684C95.646 83.4378 91.737 80.8398 87.7302 78.5094C89.118 78.1164 90.5058 77.7486 91.8942 77.331C92.1558 77.2518 92.0514 76.833 91.7892 76.911C90.1656 77.304 88.5762 77.751 86.9706 78.1422C86.9193 78.1604 86.8739 78.1921 86.8393 78.2341C86.8047 78.2761 86.7821 78.3267 86.774 78.3805C86.7659 78.4343 86.7727 78.4893 86.7934 78.5396C86.8142 78.5899 86.8483 78.6336 86.892 78.666C90.0348 80.526 93.099 82.4634 96.192 84.426C93.0756 86.2332 90.0156 88.152 86.8428 89.8734C85.1952 90.7674 83.0436 92.4966 81.1602 91.602C79.3506 90.7422 77.6616 89.5122 75.87 88.59C75.8182 88.564 75.7585 88.5585 75.7028 88.5746C75.6471 88.5908 75.5996 88.6274 75.5698 88.6771C75.54 88.7268 75.53 88.786 75.542 88.8427C75.5539 88.8994 75.5869 88.9495 75.6342 88.983C77.4693 90.228 79.3756 91.3647 81.3432 92.3874C82.812 93.117 84.1446 91.9938 85.4832 91.2876C89.3052 89.268 93.1566 87.1758 96.7446 84.7926C97.8444 85.5 102.239 88.284 103.318 88.983C103.905 89.4532 104.537 89.8653 105.203 90.2136C105.7 90.3984 105.937 90.1878 106.487 89.9784C109.917 88.6716 113.836 87.4026 116.831 86.0496C117.221 85.8744 116.876 85.2876 116.485 85.4502Z" fill="#001A4A"/>
<path d="M100.825 91.6308C100.838 93.4122 101.008 95.1924 101.113 96.9708C100.039 96.8922 98.9646 96.8196 97.8912 96.7614C97.446 96.7374 97.4466 97.4148 97.8912 97.4424C99.0966 97.5174 100.274 97.5996 101.479 97.6782C101.568 97.6723 101.651 97.6346 101.713 97.572C101.776 97.5095 101.814 97.4263 101.82 97.338C101.663 95.4522 101.584 93.5364 101.296 91.6548C101.248 91.3422 100.822 91.32 100.825 91.6308Z" fill="#001A4A"/>
<path d="M93.2298 95.1402C91.3284 95.052 88.8666 94.6566 88.0968 95.3238C87.861 95.5068 88.1232 95.9238 88.3848 95.8212H88.4112C88.4376 96.6612 88.3824 98.0532 89.1966 98.3616C89.9022 98.6286 91.3968 98.3616 92.1564 98.3616H95.4822C95.5334 98.3624 95.584 98.3511 95.63 98.3285C95.6759 98.306 95.7159 98.2728 95.7465 98.2318C95.7772 98.1909 95.7977 98.1432 95.8065 98.0928C95.8152 98.0423 95.8118 97.9905 95.7966 97.9416C95.6916 97.3134 95.7438 95.8206 95.22 95.3754C94.8276 94.9572 93.7536 95.1642 93.2298 95.1402ZM91.0824 97.7592C90.585 97.7592 89.6124 97.9722 89.2224 97.6284C88.9584 97.395 88.9344 96.2142 88.908 95.6904C89.9805 95.5906 91.0607 95.6081 92.1294 95.7426C92.679 95.7696 93.858 95.6118 94.329 95.8476C94.9578 96.1614 95.0364 96.9732 95.115 97.6542C93.78 97.7328 92.4444 97.7592 91.08 97.7592H91.0824Z" fill="#001A4A"/>
<path d="M103.86 39.0179C100.351 40.1177 96.9984 41.7941 93.5154 42.9725C93.4536 42.9686 93.3925 42.9879 93.3441 43.0266C93.2957 43.0654 93.2635 43.1207 93.2538 43.1819C92.8086 54.4691 93.5418 65.8091 93.4896 77.0963C93.4714 77.1316 93.4667 77.1723 93.4763 77.2108C93.4859 77.2494 93.5092 77.2831 93.5418 77.3057C96.4746 79.8461 100.398 81.7157 103.808 83.4341C103.874 83.4719 103.952 83.482 104.026 83.4623C104.099 83.4427 104.162 83.3948 104.2 83.3291C107.736 82.3337 111.193 80.9195 114.676 79.7153C114.711 79.7441 114.754 79.7624 114.799 79.768C114.844 79.7737 114.889 79.7665 114.93 79.7473C114.971 79.7281 115.006 79.6977 115.031 79.6595C115.055 79.6213 115.068 79.577 115.069 79.5317C115.095 73.5083 114.769 67.4849 114.728 61.4615C114.689 55.4615 114.911 49.4675 114.886 43.4963C114.907 43.4664 114.921 43.4321 114.927 43.3961C114.933 43.3601 114.931 43.3231 114.92 43.288C114.91 43.2529 114.893 43.2204 114.868 43.193C114.844 43.1656 114.814 43.144 114.781 43.1297C111.361 41.4533 107.657 40.3277 104.122 38.9657C104.078 38.9507 104.03 38.9477 103.984 38.9568C103.938 38.966 103.895 38.987 103.86 39.0179ZM104.174 82.8575C104.41 72.5375 104.462 48.6575 104.515 47.0057C107.736 45.8531 111.062 44.8841 114.309 43.8365C113.995 49.7027 114.074 55.6217 114.1 61.4879C114.126 67.3805 114.074 73.3511 114.545 79.2173C111.091 80.3435 107.58 81.5219 104.177 82.8599L104.174 82.8575ZM104.279 46.6127C102.708 45.9059 100.873 45.5159 99.2772 44.9369C97.626 44.3369 95.9772 43.7057 94.3014 43.2083C97.575 42.1607 101.005 41.0609 104.017 39.4883C107.317 40.8503 110.643 42.0809 113.942 43.4687C110.669 44.3468 107.444 45.3963 104.28 46.6127H104.279ZM93.882 77.0441C94.17 65.8613 93.7776 54.6527 93.702 43.4699C96.951 44.4899 97.4268 45.0011 104.047 47.1365C103.828 50.3291 103.756 80.4875 103.784 82.7531C101.873 81.7055 99.9276 80.7731 98.0244 79.6625C96.603 78.8339 95.2986 77.8295 93.8844 77.0441H93.882Z" fill="#001A4A"/>
<path d="M67.2246 70.26C68.3244 68.1384 70.236 66.8814 71.3364 64.68C71.9888 63.5431 72.5407 62.3514 72.9858 61.1184C73.9698 57.5346 71.5458 57.8706 70.2624 56.5878C69.765 56.0898 70.4724 54.9882 69.7908 54.8328C68.2734 54.4878 65.9928 53.3694 63.5322 52.764C58.4496 51.5136 58.4958 48.9498 55.2042 50.5122C53.8386 51.1596 53.307 53.0538 53.4756 54.4404C53.5385 55.0515 53.7967 55.6261 54.2118 56.0789C54.6269 56.5317 55.1769 56.8387 55.7802 56.9544C54.8037 59.0507 54.1588 61.286 53.8686 63.5802C53.6052 65.5176 53.2194 67.7664 54.366 69.525C55.5246 71.3016 57.666 71.985 59.8656 71.985C59.7606 73.8702 59.787 75.7818 59.787 77.6676C59.787 78.375 59.7108 78.5286 60.2322 78.9768C62.259 80.7198 64.8414 80.6796 66.5958 78.5844C66.6633 78.573 66.7243 78.5375 66.7677 78.4846C66.811 78.4317 66.8337 78.3648 66.8316 78.2964C66.7904 75.612 66.9216 72.9276 67.2246 70.26ZM66.8046 68.9244C66.3196 72.0071 66.1188 75.1278 66.2046 78.2472C65.052 79.3212 63.7704 80.1036 62.145 79.5306C61.4473 79.3223 60.8216 78.9233 60.3384 78.3786C60.3642 78.3786 60.312 78.1686 60.3384 77.9856C60.3384 77.9256 60.3534 72.8574 60.3384 71.9622C62.0322 71.8969 63.6814 71.4014 65.1306 70.5222C65.1896 70.4875 65.2325 70.4308 65.2497 70.3645C65.2669 70.2983 65.2571 70.2279 65.2224 70.1688C65.1877 70.1098 65.131 70.0669 65.0647 70.0497C64.9984 70.0325 64.928 70.0423 64.869 70.077C62.9908 71.2314 60.7522 71.6511 58.5834 71.2554C56.8548 70.9968 55.1442 70.2354 54.4722 68.4798C53.7822 66.6762 54.2538 64.2618 54.5508 62.43C54.85 60.5495 55.4235 58.723 56.253 57.009C56.7958 57.0802 57.3473 57.0447 57.8766 56.9046C59.3365 56.4843 60.89 56.5207 62.3286 57.009C63.927 57.6342 64.7658 59.2074 65.838 60.4662C67.224 62.0922 65.2098 62.4306 65.55 63.4776C65.703 63.9504 66.1782 64.0278 66.6234 63.8976C67.7034 63.5808 67.5096 62.3874 68.3778 62.7192C68.8506 62.8992 69.6534 63.3192 69.4254 63.9762C69.2628 64.446 68.793 64.6494 68.4054 64.8666C66.9996 65.6508 67.0026 67.5396 66.8058 68.9256L66.8046 68.9244Z" fill="#001A4A"/>
<path d="M58.8966 64.8137C58.2186 65.0069 57.3366 65.1797 57.273 64.0805C57.316 63.6508 57.4404 63.2331 57.6396 62.8499C57.9552 62.2066 58.3416 61.6004 58.7916 61.0427C58.9218 60.8585 58.6602 60.7013 58.5036 60.8333C57.4604 61.7867 56.8074 63.0928 56.6706 64.4993C56.6838 65.7041 58.3506 65.6099 59.0802 65.2589C59.3436 65.1317 59.16 64.7399 58.8966 64.8137Z" fill="#001A4A"/>
<path d="M62.4318 66.4638C61.6839 67.2064 60.7537 67.7392 59.7348 68.0088C59.6739 68.0275 59.6227 68.0693 59.5921 68.1252C59.5616 68.1811 59.554 68.2467 59.571 68.3081C59.588 68.3695 59.6283 68.4219 59.6834 68.454C59.7384 68.4862 59.8037 68.4956 59.8656 68.4804C61.0168 68.2737 62.0463 67.6371 62.7456 66.6996C62.8734 66.54 62.589 66.3066 62.4318 66.4638Z" fill="#001A4A"/>
<path d="M55.911 58.8425C56.2745 58.7638 56.6515 58.7728 57.0108 58.8689C57.3242 58.9815 57.6231 59.1309 57.9012 59.3141C57.9413 59.3337 57.9861 59.3417 58.0305 59.3372C58.0749 59.3327 58.1172 59.3159 58.1526 59.2888C58.188 59.2616 58.2151 59.2251 58.2309 59.1833C58.2467 59.1416 58.2505 59.0963 58.242 59.0525C57.9276 58.0571 56.592 58.1621 55.8324 58.4759C55.8071 58.4798 55.7828 58.4888 55.7611 58.5023C55.7394 58.5159 55.7207 58.5338 55.7062 58.5549C55.6916 58.5759 55.6816 58.5998 55.6766 58.6249C55.6716 58.65 55.6717 58.6759 55.6771 58.7009C55.6825 58.7259 55.6929 58.7496 55.7078 58.7705C55.7226 58.7913 55.7416 58.8089 55.7635 58.8222C55.7854 58.8355 55.8098 58.8441 55.8351 58.8476C55.8605 58.8511 55.8863 58.8493 55.911 58.8425Z" fill="#001A4A"/>
<path d="M61.044 59.2878C60.8082 59.2914 60.7296 59.6808 60.9918 59.7078C61.4536 59.7445 61.903 59.8749 62.3127 60.091C62.7225 60.3071 63.0839 60.6044 63.375 60.9648C63.4136 61.0033 63.4637 61.0282 63.5177 61.0356C63.5718 61.043 63.6267 61.0326 63.6743 61.0059C63.7218 60.9792 63.7594 60.9377 63.7811 60.8877C63.8029 60.8377 63.8078 60.782 63.795 60.729C63.5184 59.547 62.04 59.2752 61.044 59.2878Z" fill="#001A4A"/>
<path d="M60.9396 62.7186C61.4736 62.7449 62.0076 62.6648 62.5104 62.4828C62.5806 62.4587 62.6404 62.4111 62.6798 62.3481C62.7191 62.2851 62.7355 62.2105 62.7263 62.1368C62.7171 62.0631 62.6828 61.9948 62.6291 61.9434C62.5755 61.892 62.5058 61.8607 62.4318 61.8546C61.9029 61.7998 61.3685 61.8533 60.861 62.0118C60.7783 62.0345 60.7064 62.0859 60.6583 62.1568C60.6102 62.2278 60.5889 62.3136 60.5984 62.3988C60.6079 62.484 60.6474 62.563 60.71 62.6216C60.7725 62.6803 60.8539 62.7146 60.9396 62.7186Z" fill="#001A4A"/>
<path d="M56.985 61.3045C56.565 60.9661 56.0898 60.7087 55.6494 60.3883C55.3314 60.1567 54.9684 60.6499 55.2294 60.9121C55.6251 61.3333 56.1202 61.6484 56.6694 61.8283C56.958 61.9087 57.246 61.5151 56.985 61.3045Z" fill="#001A4A"/>
<path d="M52.8732 79.14C52.8123 79.1587 52.7611 79.2005 52.7305 79.2564C52.7 79.3123 52.6924 79.3779 52.7094 79.4393C52.7264 79.5007 52.7667 79.5531 52.8218 79.5852C52.8768 79.6174 52.9421 79.6268 53.004 79.6116C54.0006 79.437 54.9924 79.128 55.9896 78.957C57.1398 78.7596 58.2696 78.7134 59.4204 78.5904C59.682 78.5622 59.7084 78.1704 59.4204 78.1704C57.1929 77.9997 54.9556 78.331 52.8732 79.14Z" fill="#001A4A"/>
<path d="M45.174 81.4961C45.1183 81.51 45.0704 81.5454 45.0408 81.5945C45.0112 81.6437 45.0023 81.7026 45.0162 81.7583C45.03 81.814 45.0654 81.8619 45.1146 81.8915C45.1638 81.9211 45.2227 81.93 45.2784 81.9161C47.5074 81.4571 49.677 80.8859 51.9306 80.5541C52.2966 80.5007 52.1394 79.9499 51.7734 80.0045C49.5269 80.266 47.3146 80.766 45.174 81.4961Z" fill="#001A4A"/>
<path d="M80.4234 84.3505C80.688 84.5035 80.8914 84.1207 80.6592 83.9581C77.1252 81.4795 74.7948 81.1081 74.1648 80.6059C72.3804 79.2095 70.2557 78.3145 68.01 78.0133C67.722 77.9605 67.563 78.4135 67.8792 78.4843C69.0693 78.6719 70.2253 79.0338 71.31 79.5583C72.15 80.0293 72.9336 80.6059 73.7982 81.0511C72.9582 81.6007 72.2022 82.2319 71.415 82.8319C70.5522 83.4889 69.66 84.0361 68.7696 84.6649C68.7438 84.6649 67.7496 83.7223 67.6434 83.6449C66.3804 82.7484 65.0496 81.9516 63.663 81.2617C63.219 81.1513 62.718 81.6505 62.3796 81.8617C61.1052 82.8056 59.9216 83.8664 58.8444 85.0303C56.6986 83.8639 54.7539 82.3608 53.0844 80.5783C53.042 80.54 52.9866 80.5195 52.9295 80.5209C52.8725 80.5224 52.8181 80.5457 52.7778 80.5861C52.7374 80.6264 52.7141 80.6808 52.7126 80.7378C52.7112 80.7949 52.7317 80.8503 52.77 80.8927C54.3156 82.6993 56.5674 85.1611 58.977 85.6849C59.157 85.7113 62.697 82.2541 63.4812 81.6523C64.5295 82.1417 65.5291 82.7291 66.4668 83.4067C67.1772 83.9263 67.7502 84.7423 68.5098 85.1875C68.9214 85.7365 70.218 84.4675 74.376 81.2593C76.4638 82.1423 78.4849 83.1754 80.4234 84.3505Z" fill="#001A4A"/>
<path d="M62.301 86.8123C62.301 86.8123 60.756 85.5817 61.6728 84.4291C62.5896 83.2765 63.2112 82.4203 63.8202 82.9363C64.416 83.4415 65.7054 84.3505 65.7054 85.2163C65.7054 86.0017 64.3704 87.7363 63.558 87.8089C63.2442 87.8359 62.301 86.8123 62.301 86.8123Z" fill="#57c2b4"/>
<path d="M62.1702 88.3571C62.1728 88.3278 62.1841 88.2999 62.2026 88.2771C62.2212 88.2543 62.2462 88.2375 62.2744 88.2291C62.3025 88.2206 62.3326 88.2208 62.3607 88.2296C62.3887 88.2384 62.4135 88.2554 62.4318 88.2785C62.7462 88.6985 63.2718 89.3789 63.5322 89.4047C63.8202 89.4575 64.4508 88.6733 64.7892 88.2263C64.8075 88.2032 64.8323 88.1862 64.8603 88.1774C64.8884 88.1686 64.9185 88.1684 64.9467 88.1769C64.9748 88.1853 64.9998 88.2021 65.0184 88.2249C65.037 88.2477 65.0483 88.2756 65.0508 88.3049C66.5856 104.964 66.525 103.958 66.465 104.018L64.4484 107.816C64.4388 107.838 64.4235 107.857 64.4041 107.871C64.3847 107.885 64.3619 107.894 64.338 107.897C64.3141 107.899 64.2899 107.896 64.2679 107.886C64.2459 107.876 64.2268 107.861 64.2126 107.841C61.098 103.62 61.3848 104.047 61.3848 103.941L62.1702 88.3571Z" fill="#57c2b4"/>
<path d="M118.673 29.6211C117.86 28.7327 116.173 28.138 115.302 29.1266C115.16 28.3662 114.752 27.6779 114.149 27.1803C113.545 26.6826 112.783 26.4067 111.994 26.4C111.205 26.3934 110.439 26.6563 109.826 27.1437C109.214 27.6311 108.794 28.3124 108.639 29.0703C107.86 28.7219 106.999 28.5881 106.149 28.6832C105.298 28.7782 104.49 29.0986 103.811 29.6098C102.008 30.9434 102.111 32.7338 103.123 32.9691C103.147 32.9729 103.171 32.9678 103.191 32.9549C103.211 32.942 103.225 32.9221 103.231 32.8993C103.236 32.8765 103.233 32.8525 103.221 32.8321C103.21 32.8117 103.19 32.7964 103.168 32.7892C102.307 32.5292 102.651 31.3738 102.996 30.8455C103.599 29.9711 104.511 29.3457 105.556 29.0887C106.601 28.8317 107.706 28.9612 108.66 29.4525C108.752 29.4959 108.901 29.4638 108.913 29.3515C109.036 28.6256 109.416 27.9652 109.986 27.4864C110.556 27.0076 111.281 26.741 112.032 26.7334C112.799 26.7783 113.524 27.0966 114.069 27.6285C114.614 28.1603 114.942 28.869 114.99 29.6211C115.002 29.778 115.256 29.8907 115.334 29.7108C116.16 27.9582 119.267 29.5873 118.775 31.2164C118.27 32.8794 115.69 32.823 114.291 32.9578C111.101 33.2033 107.9 33.252 104.704 33.1039C104.659 33.1039 104.615 33.1216 104.583 33.1533C104.55 33.1849 104.532 33.2278 104.532 33.2725C104.532 33.3172 104.55 33.3601 104.583 33.3917C104.615 33.4233 104.659 33.4411 104.704 33.4411C107.97 33.6882 111.251 33.6469 114.509 33.3175C115.493 33.2704 116.47 33.1197 117.421 32.8681C118.902 32.4074 119.844 30.9005 118.673 29.6211Z" fill="#001A4A"/>
<path d="M41.3344 15.8985C45.1579 16.2687 57.6226 15.5107 63.5575 15.4617C63.7755 15.4617 63.7755 15.145 63.5575 15.1052C58.8989 14.6095 46.4686 16.0997 40.5399 15.1052C38.8743 14.8275 38.3589 13.8354 38.2396 13.2807C37.8236 11.4754 39.509 9.45585 40.9926 8.65951C41.961 8.19296 43.0533 8.04909 44.1094 8.24899C45.1655 8.44889 46.1298 8.98204 46.8609 9.77026C46.9093 9.81684 46.9715 9.84643 47.0382 9.85456C47.1048 9.86269 47.1723 9.84893 47.2305 9.81536C47.2886 9.78178 47.3343 9.7302 47.3606 9.66839C47.3869 9.60658 47.3924 9.5379 47.3763 9.47268C46.8211 6.22 50.7464 4.65332 53.3632 4.59442C54.7025 4.52006 56.0218 4.945 57.0662 5.78709C58.1105 6.62919 58.8057 7.82866 59.0175 9.15369C59.0362 9.20604 59.069 9.25228 59.1121 9.28743C59.1552 9.32258 59.207 9.34531 59.2621 9.35317C59.3171 9.36104 59.3733 9.35375 59.4245 9.33208C59.4757 9.31041 59.5201 9.27518 59.5527 9.23019C60.6631 7.02858 63.4589 7.56406 64.9256 9.03205C66.1545 10.2614 67.2052 12.5418 66.3724 14.2676C66.234 14.5651 66.65 14.803 66.809 14.5254C67.8995 12.4232 66.5315 9.60732 64.8858 8.23877C63.2998 6.9299 60.7625 6.69199 59.4342 8.33746C58.6213 5.38311 55.7636 3.73688 52.7132 4.03446C50.0367 4.29225 46.786 5.89871 46.7064 8.81404C46.1261 8.35147 45.4594 8.00929 44.7453 7.80751C44.0312 7.60573 43.284 7.54839 42.5475 7.63885C41.811 7.7293 41.0999 7.96574 40.4558 8.33434C39.8117 8.70294 39.2476 9.19629 38.7963 9.78556C37.9047 10.9162 37.2302 12.5028 37.8251 13.9103C38.4201 15.3033 39.9289 15.7616 41.3344 15.8985Z" fill="#001A4A"/>
</svg>
