<svg width="120" height="120" viewBox="0 0 120 120" fill="none" xmlns="http://www.w3.org/2000/svg">
<path d="M98.1464 30.9002C96.9979 35.6322 92.9286 52.0787 88.41 69.2048C88.3312 69.5032 88.2104 69.5533 87.9136 69.4858C83.1201 68.388 70.8607 65.2174 68.8749 64.7261C53.5457 60.9542 49.9166 59.8067 49.4488 59.7351C49.1371 59.6875 49.0455 59.5375 49.1253 59.2187C49.1386 59.1675 54.8687 35.3994 58.7588 20.8532C58.8924 20.3532 58.9277 20.3414 59.4395 20.454C67.4997 22.2202 78.7187 25.2848 84.0971 26.5556C84.4303 26.6344 95.8172 29.482 97.6827 30.0552C98.2334 30.2267 98.2876 30.3193 98.1464 30.9002Z" fill="white"/>
<path d="M97.6811 30.0597C98.2344 30.2291 98.2871 30.3218 98.1464 30.9026C96.1816 39.0299 88.6987 68.1099 88.41 69.2072C88.3317 69.5056 88.2104 69.5558 87.9136 69.4882C83.2332 68.4165 70.7865 65.2014 68.8749 64.7285C53.5406 60.9582 49.9166 59.8092 49.4488 59.7375C49.1371 59.6899 49.0455 59.54 49.1253 59.2211C49.1397 59.1638 55.2023 34.1536 58.7588 20.8557C58.8924 20.3556 58.9277 20.3439 59.4395 20.4565C65.4403 21.7728 96.1227 29.5797 97.6811 30.0597ZM52.7575 49.0528C53.2944 48.8993 52.7979 48.9832 57.7071 46.2753C60.1678 44.9181 62.6055 43.5204 65.0539 42.1406C65.4659 41.9082 65.6138 41.9507 65.8917 42.3586C67.1804 44.2522 69.9118 49.0697 71.2829 51.6896C71.4288 51.9685 71.5557 51.9823 71.7732 51.7884L83.786 42.2081C84.6089 41.5556 84.7021 42.0203 85.9202 43.8336C86.8455 45.2108 89.3947 49.8405 90.0396 50.9936C91.2582 53.1733 91.2167 53.1487 91.338 53.1308C91.5013 53.1062 91.4649 52.9025 91.5013 52.7726C91.5156 52.7214 94.2941 41.3135 96.9452 31.3285C97.0209 31.0434 96.9872 30.9257 96.6678 30.8515C90.4567 29.4113 67.9081 23.6813 60.1448 21.6013C59.7773 21.5031 59.6534 21.5829 59.5643 21.9488C57.6359 29.8985 56.1655 35.6316 52.7575 49.0528ZM90.4388 57.2466L90.3497 57.2236C90.4659 56.6888 90.6092 56.1601 90.7786 55.6396C91.0616 54.8837 91.0698 54.2194 90.4444 53.6196C90.3932 53.5684 85.3777 45.2774 84.3925 43.2051C84.2901 42.9881 84.1852 42.8791 83.9641 43.0869C83.657 43.376 65.5682 58.0824 61.1893 61.2831C60.4539 61.82 60.8101 61.3046 87.1971 68.2471C87.5221 68.3321 87.6869 68.3152 87.7708 67.9334C88.756 63.4547 89.1526 62.1169 90.4388 57.2466ZM50.284 58.479C50.1632 58.9345 50.1817 58.9565 50.6633 59.0635C60.1161 61.1803 59.8843 61.5713 60.3433 61.1619C62.5082 59.2216 64.5247 57.6151 70.5178 52.7782C70.7117 52.6211 70.8167 52.5269 70.634 52.2321C65.1286 43.352 65.7069 42.6969 65.081 43.0608C63.9909 43.6944 62.8905 44.3121 61.7958 44.9391C55.077 48.7882 54.254 49.3272 52.6741 50.0268C52.5993 50.065 52.5354 50.1214 52.4883 50.1908C52.4411 50.2602 52.4123 50.3404 52.4044 50.4239L50.284 58.479Z" fill="#00143B"/>
<path d="M64.4893 35.4067C62.3397 34.813 61.0602 32.8585 61.6048 30.777C61.7389 30.2745 61.9718 29.8039 62.2901 29.3927C62.6084 28.9815 63.0061 28.638 63.4585 28.3823C63.9114 28.1266 64.411 27.9639 64.9274 27.9037C65.4437 27.8435 65.9673 27.887 66.4668 28.0317C67.4443 28.2753 68.2862 28.8961 68.8072 29.7583C69.3288 30.6207 69.4874 31.6543 69.2489 32.6332C68.9674 33.6207 68.3144 34.4608 67.4269 34.9777C66.54 35.4947 65.4873 35.6484 64.4893 35.4067ZM64.6837 34.5822C65.1346 34.7045 65.6055 34.7353 66.0686 34.6728C66.7918 34.5866 67.4551 34.2288 67.9239 33.6718C68.3932 33.1148 68.6327 32.4003 68.5949 31.6732C68.5386 30.9942 68.2683 30.3505 67.8241 29.8342C67.3793 29.3179 66.7831 28.9555 66.1198 28.7989C65.5123 28.6364 64.87 28.6637 64.2784 28.8769C63.6868 29.0901 63.1745 29.4792 62.8106 29.9919C62.5439 30.4001 62.3807 30.8669 62.3341 31.3521C62.2875 31.8374 62.3597 32.3267 62.5439 32.7781C62.7282 33.2294 63.0189 33.6293 63.3915 33.9436C63.7646 34.2578 64.2078 34.4769 64.6837 34.5822Z" fill="#00143B"/>
<path d="M107.261 51.0943C103.839 58.6345 91.001 85.871 90.5132 86.8941C90.3807 87.1725 90.2533 87.2012 89.9728 87.0768C85.4972 85.1146 74.0049 79.6779 72.1624 78.8334C57.7944 72.241 54.4191 70.4323 54.0163 70.2865C53.7195 70.1795 53.6581 70.0173 53.7947 69.7184C53.8218 69.6595 63.7803 47.6223 70.451 33.8417C70.6762 33.3765 70.7135 33.3714 71.1946 33.5777C78.6832 36.7871 105.236 49.2682 106.96 50.1797C107.473 50.4484 107.507 50.5492 107.261 51.0943Z" fill="white"/>
<path d="M106.96 50.1779C105.516 49.419 76.9653 36.0479 71.1954 33.5759C70.7143 33.3712 70.6764 33.3743 70.4517 33.84C63.7027 47.835 53.8185 69.6654 53.7955 69.7166C53.6573 70.0155 53.7198 70.1798 54.0171 70.2847C54.4224 70.4275 58.2112 72.4342 72.1632 78.8316C74.0312 79.6879 85.4882 85.1052 89.9735 87.0751C90.253 87.1979 90.383 87.1708 90.514 86.8924C97.9862 71.2315 105.035 56.0006 107.261 51.0925C107.508 50.5485 107.473 50.4471 106.96 50.1779ZM63.9146 73.7526C57.6196 70.8354 57.2614 70.6819 55.3391 69.8523C54.8887 69.6578 54.8718 69.6317 55.076 69.2074L58.6724 61.6922C58.7471 61.5361 58.8141 61.398 59.0112 61.3524C60.2231 61.0704 60.654 60.964 72.5035 56.8358C73.1893 56.5973 72.5112 57.1245 76.2396 66.8864C76.364 67.2119 76.2432 67.2841 76.0226 67.4018C73.7738 68.5994 71.5265 69.8011 69.2802 71.0069C63.995 73.8493 64.3988 73.9768 63.9146 73.7526ZM95.3842 74.0085C95.1002 74.4737 91.9373 81.2729 90.1209 85.5197C89.9674 85.878 89.8021 85.8652 89.4991 85.7204C64.8665 73.9461 64.4336 74.3934 65.257 74.0034C70.1042 71.7049 90.6598 60.6405 91.0432 60.3989C91.2991 60.2372 91.382 60.3636 91.4424 60.5965C92.0151 62.8033 95.3944 71.9097 95.4344 71.9613C95.9605 72.6538 95.8054 73.3217 95.3852 74.0101L95.3842 74.0085ZM105.999 51.2901C101.478 60.6671 96.6565 71.2817 96.6309 71.3329C96.5705 71.4542 96.5685 71.6614 96.4027 71.6543C96.2727 71.6492 96.3003 71.6282 95.529 69.3113C95.1488 68.1685 93.4773 63.0347 92.8252 61.5054C91.9654 59.4915 91.9634 59.0212 91.034 59.5094L77.4372 66.6663C77.1874 66.8153 77.0656 66.7774 76.9766 66.477C76.1065 63.6109 74.3209 58.3533 73.4304 56.3C73.2343 55.8476 73.0972 55.778 72.6489 55.9284C69.9875 56.822 67.3288 57.7397 64.6577 58.6118C59.4083 60.3247 59.8178 60.3647 59.2748 60.4122C65.146 47.8503 67.6763 42.479 71.0413 35.0688C71.1949 34.7254 71.333 34.6706 71.6759 34.8359C78.2126 37.9927 99.7651 48.1154 105.816 50.7721C106.116 50.9042 106.128 51.0265 106 51.2916L105.999 51.2901Z" fill="#00143B"/>
<path d="M76.6809 42.3359C76.2173 42.1003 75.7116 41.9596 75.1932 41.9221C74.6747 41.8845 74.1537 41.9508 73.6614 42.1171C73.1685 42.2833 72.714 42.5462 72.3246 42.8903C71.9346 43.2344 71.6178 43.6528 71.3916 44.121C70.4704 46.0627 71.3547 48.2225 73.3574 49.2087C74.2924 49.6335 75.3549 49.68 76.3237 49.3387C77.292 48.9974 78.0909 48.2946 78.5526 47.3775C78.9702 46.4604 79.0076 45.4153 78.657 44.4705C78.3064 43.5258 77.596 42.7583 76.6809 42.3359ZM78.0899 46.3104C77.9922 47.0325 77.6232 47.6902 77.0576 48.1498C76.4921 48.6094 75.7725 48.8363 75.0458 48.7844C74.5795 48.7582 74.123 48.6392 73.7028 48.4344C73.2545 48.2418 72.8599 47.9434 72.5523 47.5647C72.2452 47.186 72.0344 46.7384 71.9382 46.2602C71.8414 45.782 71.8629 45.2876 71.9996 44.8195C72.1367 44.3513 72.385 43.9233 72.7238 43.5724C73.1772 43.1369 73.753 42.8506 74.3743 42.752C74.9951 42.6533 75.6313 42.7471 76.1973 43.0206C76.8202 43.2987 77.3386 43.7668 77.6789 44.3578C78.0193 44.9487 78.1641 45.6323 78.092 46.3104H78.0899Z" fill="#00143B"/>
<path d="M66.3561 70.2084C57.1541 72.1378 19.5348 79.0624 19.4836 79.0747C19.1182 79.1734 18.9467 79.0834 18.8838 78.7599C18.8735 78.7087 13.6354 53.2307 11.2873 39.9384C11.1972 39.4297 11.2304 39.4021 11.8461 39.269C18.5967 37.8099 55.7425 30.7656 58.4054 30.373C59.0927 30.2707 59.1956 30.33 59.3164 30.9155C61.0851 39.4855 66.5183 68.346 66.7691 69.7293C66.8244 70.0308 66.7154 70.1331 66.3561 70.2084Z" fill="white"/>
<path d="M66.7689 69.7296C66.5667 68.6144 60.9534 38.8435 59.3162 30.9158C59.1954 30.3303 59.0925 30.272 58.4052 30.3733C56.4803 30.6569 19.3258 37.6536 11.8459 39.2693C11.2318 39.4024 11.197 39.4295 11.287 39.9387C13.7355 53.7991 18.8749 78.7085 18.8836 78.7602C18.947 79.0832 19.118 79.1727 19.4834 79.075C19.8775 78.9726 60.6453 71.3981 66.3558 70.2087C66.7151 70.1334 66.8241 70.0311 66.7689 69.7296ZM18.0586 67.9773C17.7489 66.2377 14.3952 48.8199 12.6965 40.5519C12.6208 40.1834 12.7185 40.0554 13.1689 39.9751C29.6225 37.0461 53.8415 32.3437 57.6687 31.5474C58.0546 31.4675 58.1478 31.5576 58.1995 31.8478C60.419 44.3284 61.8945 50.6434 62.3782 53.5749C62.4002 53.708 62.5368 53.8738 62.3685 53.971C62.2395 54.0447 62.2815 54.0335 59.9298 52.6486C58.6846 51.9136 53.6931 48.9268 52.0134 48.1121C49.8235 47.0496 49.4954 46.6673 48.8997 47.633L40.2427 61.7252C40.0958 61.9995 39.9489 62.0441 39.6572 61.8613C36.7963 60.067 31.5474 57.0316 29.3154 55.9609C28.8175 55.7224 28.6353 55.7516 28.2919 56.1487C26.2539 58.506 24.2405 60.8756 22.1811 63.2202C18.1072 67.8544 18.5606 67.6077 18.0586 67.9773ZM20.5034 77.9152C19.9266 78.0386 19.8928 78.0294 19.8094 77.5652L18.3252 69.3704C18.2947 69.2885 18.2887 69.1994 18.3078 69.114C18.3268 69.029 18.3702 68.9507 18.4327 68.8898C19.8145 67.5617 20.4343 66.7403 26.0415 60.1504C26.9458 59.0874 27.8614 58.029 28.7596 56.962C29.276 56.3478 28.9306 57.1718 39.2048 62.6429C39.5462 62.824 39.4745 62.9561 39.3353 63.1864C35.1386 70.1191 33.5956 72.6269 32.1313 75.364C31.8191 75.9479 31.8391 75.4863 20.5034 77.9152ZM64.9807 69.4251C32.7255 75.2974 32.5617 75.9044 33.1124 75.0881C36.5204 70.0357 49.3419 48.6679 49.5092 48.3383C49.6551 48.0506 49.8204 48.1003 50.0364 48.2482C52.0764 49.6438 61.566 54.8073 61.6177 54.8196C62.0046 54.8827 62.3541 55.0873 62.5983 55.3936C62.8429 55.6999 62.9647 56.0862 62.9401 56.4773C62.9719 57.0223 64.4003 64.3364 65.4597 68.8811C65.5503 69.2634 65.3778 69.3525 64.9807 69.4251Z" fill="#00143B"/>
<path d="M23.1812 49.2334C24.2188 49.0512 25.1458 48.4747 25.7681 47.6246C26.3905 46.7744 26.6599 45.7166 26.5201 44.6724C26.1766 42.6764 24.0389 41.2874 21.8536 41.7147C19.6529 42.1451 17.9834 44.0178 18.4035 46.2963C18.7935 48.411 20.8648 49.627 23.1812 49.2334ZM19.2153 45.0634C19.3535 44.4286 19.6794 43.8501 20.1506 43.4029C20.6218 42.9557 21.2166 42.6604 21.8577 42.5556C22.545 42.4035 23.2626 42.4687 23.9112 42.7423C24.5598 43.0159 25.1074 43.4843 25.478 44.0828C25.8273 44.7356 25.9071 45.4991 25.7004 46.21C25.4937 46.9209 25.0169 47.5227 24.3721 47.8864C23.9543 48.1439 23.4912 48.3191 23.0076 48.4028C20.7261 48.7913 18.8929 47.1535 19.2153 45.0634Z" fill="#00143B"/>
<path d="M94.3691 97.1556C86.7398 99.3118 57.4422 104.87 40.0034 104.997C34.3993 105.038 30.48 104.792 28.4093 99.668C27.1416 96.5307 25.0995 88.6885 24.4475 85.6776C21.6838 72.9228 22.0682 69.6273 20.716 59.5077C19.609 51.2223 20.7969 50.6306 31.6853 48.9253C37.7654 47.9729 44.5098 47.0404 46.648 52.7587C49.0304 59.1279 47.5887 59.1177 65.3996 55.1349C72.4147 53.5619 79.5506 52.5843 86.7306 52.2126C97.3943 51.6496 95.863 52.6609 100.798 80.4671C103.313 94.6371 99.7649 95.6289 94.3691 97.1556Z" fill="#57c2b4"/>
<path d="M69.3569 86.9602C69.3313 86.06 77.0185 84.7549 92.6368 82.0225C93.9526 81.7927 94.9665 81.5434 95.1037 82.3398C95.2459 83.1663 94.8529 83.2431 88.0532 84.4581C78.0001 85.5001 69.3569 86.9602 69.3569 86.9602Z" fill="white"/>
<path d="M72.75 91.6206C71.317 91.4671 70.6485 91.9441 71.6362 91.6206C73.9142 90.876 80.6647 89.6308 82.6188 89.2997C88.2756 88.3406 89.6759 87.8155 89.8652 88.8334C90.0367 89.7546 88.6508 89.2789 85.125 90C83.0978 90.4141 76.4784 91.2823 72.75 91.6206Z" fill="white"/>
<path d="M108.49 19.661L107.978 32.0899C107.964 32.432 107.883 32.768 107.739 33.0787C107.594 33.3893 107.391 33.6687 107.139 33.9006C106.887 34.1325 106.592 34.3126 106.27 34.4304C105.949 34.5482 105.607 34.6016 105.265 34.5874L85.6048 33.7783C85.2629 33.7642 84.9267 33.6829 84.616 33.539C84.3054 33.3951 84.0259 33.1913 83.7941 32.9394C83.5622 32.6875 83.3821 32.3924 83.2644 32.0709C83.1462 31.7494 83.0929 31.4078 83.1073 31.0658L83.6191 18.6369C83.6482 17.9462 83.9502 17.2952 84.4589 16.8269C84.9671 16.3585 85.6406 16.1111 86.3316 16.1388L105.992 16.9485C106.334 16.9625 106.67 17.0438 106.98 17.1877C107.291 17.3316 107.57 17.5354 107.802 17.7873C108.035 18.0391 108.215 18.3343 108.332 18.6558C108.45 18.9772 108.504 19.3188 108.49 19.661Z" fill="white"/>
<path d="M106.01 16.4563L86.3492 15.6472C85.9423 15.6303 85.5365 15.6939 85.1542 15.8341C84.7719 15.9744 84.4208 16.1886 84.1214 16.4645C83.822 16.7404 83.5799 17.0726 83.4089 17.4421C83.238 17.8117 83.1413 18.2113 83.1249 18.6181L82.6131 31.0465C82.5809 31.8677 82.8751 32.6682 83.4325 33.2726C83.9893 33.877 84.7631 34.2359 85.5841 34.2708L105.244 35.0799C106.065 35.1125 106.865 34.8184 107.469 34.262C108.074 33.7056 108.433 32.9322 108.468 32.1115L108.98 19.6827C109.013 18.8611 108.719 18.0601 108.162 17.4553C107.605 16.8504 106.831 16.4912 106.01 16.4563ZM107.482 32.0696C107.471 32.3474 107.406 32.6204 107.29 32.8728C107.173 33.1252 107.008 33.352 106.803 33.5403C106.599 33.7285 106.359 33.8745 106.098 33.9696C105.837 34.0647 105.559 34.1073 105.281 34.0947L85.6235 33.2846C85.0631 33.261 84.5354 33.016 84.1557 32.6034C83.7759 32.1907 83.5753 31.6442 83.5983 31.0839L84.1101 18.655C84.1321 18.1102 84.364 17.595 84.757 17.2172C85.1501 16.8393 85.6741 16.6281 86.2192 16.6278L105.969 17.439C106.529 17.4625 107.056 17.7072 107.436 18.1193C107.815 18.5314 108.016 19.0773 107.993 19.6371L107.482 32.0696Z" fill="#00143B"/>
<path d="M99.422 25.1816L94.5154 22.1784C94.4248 22.1123 94.3174 22.0726 94.2053 22.0637C94.0932 22.0548 93.9811 22.0771 93.8808 22.1281C93.781 22.179 93.6971 22.2567 93.6382 22.3525C93.5794 22.4483 93.5487 22.5584 93.5487 22.6708V28.0154C93.5481 28.1171 93.5732 28.2172 93.6218 28.3066C93.6705 28.396 93.7406 28.4719 93.8255 28.5272C93.911 28.5824 94.0088 28.6154 94.1101 28.623C94.2114 28.6306 94.3133 28.6126 94.4059 28.5707L99.3053 26.2676C99.4123 26.2288 99.5064 26.1608 99.5765 26.0712C99.6467 25.9817 99.6902 25.8742 99.7024 25.761C99.7147 25.6479 99.6948 25.5336 99.6451 25.4312C99.5955 25.3287 99.5182 25.2423 99.422 25.1816Z" fill="#00143B"/>
<path d="M20.3085 32.5881C18.9779 32.5682 18.767 31.2165 19.8326 30.6802C21.1903 29.9964 21.5379 30.8552 21.5629 30.1341C21.5962 29.1525 20.8648 27.8822 20.4595 25.9527C20.2548 24.9803 20.5839 24.4936 21.5409 24.2126C22.8333 23.7841 24.1637 23.4799 25.514 23.3042C26.3231 23.2249 26.5887 23.404 26.751 24.2111C27.0964 25.9292 27.6333 27.6038 27.9342 29.3316C28.2925 31.39 25.6967 31.7979 25.2872 30.5179C25.2391 30.2217 25.3027 29.9181 25.4658 29.666C25.6288 29.414 25.8796 29.2315 26.1696 29.154C26.3871 29.0762 26.7392 29.1386 26.8027 28.9447C26.8717 28.7318 25.9838 25.6912 25.82 24.5356C25.7233 23.8657 25.427 24.14 21.456 25.1804C21.0977 25.2746 21.0849 25.2572 22.1725 28.632C22.7825 30.5307 22.3045 32.6188 20.3085 32.5881Z" fill="#00143B"/>
<path d="M34.0829 22.6832C32.1171 15.6445 32.1529 15.8441 32.1468 15.5908C32.1304 15.4665 32.1593 15.3404 32.2282 15.2356C32.297 15.1308 32.4012 15.0543 32.5218 15.02C32.6424 14.9856 32.7713 14.9958 32.885 15.0487C32.9987 15.1015 33.0897 15.1935 33.1412 15.3078C33.6018 16.2802 33.3495 16.21 35.432 22.8695C35.974 24.6029 34.2037 25.692 32.873 25.3322C31.4405 24.9443 31.6201 23.0271 34.0829 22.6832Z" fill="#00143B"/>
</svg>
