<svg width="120" height="120" viewBox="0 0 120 120" fill="none" xmlns="http://www.w3.org/2000/svg">
<path d="M40.875 39.75L39.75 38.25C39.75 37.65 42.25 35.5 43.5 34.5L45.375 36.375L62.625 48.75C69.225 52.35 75.875 56.25 78.375 57.75L55.125 76.875C54 74.25 51.75 61.125 51.75 59.625C51.75 58.425 50.5 57.125 49.875 56.625L40.875 39.75Z" fill="#57c2b4"/>
<path d="M69 78.375L72.75 75C72.375 75.75 72.75 76.6875 73.125 76.875C74.0344 77.3297 75 77.625 77.625 75L80.625 78.75L74.25 84L69 78.375Z" fill="#57c2b4"/>
<path d="M116.534 25.9415C111.35 28.1243 103.003 24.4913 98.6417 20.8577C97.6681 20.1288 96.9441 19.1162 96.5693 17.9591L96.6209 17.7665C96.6416 17.6896 96.6309 17.6077 96.5912 17.5387C96.5515 17.4698 96.486 17.4194 96.4091 17.3987C96.3323 17.378 96.2504 17.3887 96.1814 17.4284C96.1124 17.4682 96.062 17.5336 96.0413 17.6105C95.4695 19.7441 93.3779 27.4703 92.4095 31.2137C92.235 31.8668 92.2112 32.5511 92.3399 33.2147C89.7503 39.2117 87.2111 44.6909 84.6437 50.0519L44.4635 5.40711C43.657 4.48933 42.5313 3.9131 41.3152 3.79552C40.099 3.67794 38.8838 4.02784 37.9163 4.77411C15.8699 21.6929 4.66494 30.2999 4.62774 30.3359C1.90854 32.6807 2.34774 37.6559 4.13514 39.6725L69.0341 114.54C69.4484 115.024 69.9544 115.42 70.523 115.707C71.0915 115.994 71.7113 116.165 72.3465 116.211C72.9817 116.257 73.6196 116.176 74.2233 115.973C74.8271 115.771 75.3847 115.451 75.8639 115.031L108.48 86.3813C110.511 84.6305 111.44 80.0213 109.31 77.3435C108.379 76.1747 105.298 72.8345 93.4223 59.6591C94.0608 59.9705 94.7487 60.168 95.4551 60.2429C96.4512 60.3049 97.4493 60.1595 98.3863 59.8157C99.3232 59.472 100.179 58.9375 100.898 58.2461C101.558 57.6167 101.243 57.8303 101.513 57.8639C102.351 57.9545 103.199 57.8789 104.008 57.6415C104.817 57.4041 105.571 57.0095 106.227 56.4803C106.597 56.1934 106.884 55.8138 107.06 55.3799C107.089 55.2314 107.109 55.081 107.12 54.9299C107.842 54.5873 108.519 54.1543 109.132 53.6411C109.492 53.3445 109.779 52.9685 109.97 52.5425C110.161 52.1166 110.25 51.6523 110.232 51.1859C110.167 50.7215 110.025 50.2712 109.812 49.8533C109.582 49.3241 109.349 48.7883 109.092 48.2693C110.041 44.9459 110.652 41.9327 108.979 38.9177C110.272 37.5591 111.389 36.0422 112.301 34.4033C113.18 32.9669 115.061 30.1775 117.259 26.2871C117.415 26.0081 117.213 25.6595 116.534 25.9415ZM108.149 83.3531L75.5357 112.005C74.6889 112.739 73.5886 113.111 72.4705 113.043C71.3524 112.975 70.3056 112.471 69.5543 111.64L4.79994 37.0127C2.87274 34.7801 3.33534 32.1989 5.01654 30.7943C5.36574 30.5021 37.9565 5.50251 38.2817 5.25111C39.1295 4.59777 40.1941 4.29166 41.2594 4.39497C42.3247 4.49828 43.3107 5.00325 44.0171 5.80731L84.3599 50.6399L83.2415 52.9595L42.1523 6.99111C42.1019 6.93449 42.032 6.89907 41.9565 6.89194C41.881 6.88482 41.8056 6.90653 41.7455 6.95271L7.61214 33.1643C7.57973 33.1891 7.55272 33.2203 7.53278 33.2559C7.51284 33.2916 7.50038 33.3309 7.49617 33.3715C7.49196 33.4121 7.49608 33.4532 7.50828 33.4921C7.52049 33.5311 7.54051 33.5672 7.56714 33.5981C63.5273 98.3075 71.3207 107.746 72.6425 108.914C72.8651 109.112 72.9041 109.073 72.9587 109.025C98.9231 86.2997 104.966 80.9933 106.319 79.7309C106.778 79.3025 106.811 79.3673 106.373 78.8549C105.469 77.7959 102.016 73.9637 89.2259 59.6345L90.6737 57.5093C104.615 72.9773 107.982 76.6607 108.831 77.6981C109.428 78.5611 109.689 79.613 109.563 80.6549C109.437 81.6969 108.935 82.6567 108.149 83.3531ZM76.3529 83.1863L87.3407 95.5961L72.7901 108.376L61.6199 95.4107C74.6819 84.5669 76.2539 83.2721 76.3529 83.1863ZM76.3475 83.1809L76.3529 83.1863C76.3313 83.2025 76.2653 83.2541 76.3475 83.1809ZM87.8723 72.8309L87.0239 73.5353L82.9859 68.8025C83.1803 68.5163 83.3723 68.2313 83.5619 67.9499L87.8723 72.8309ZM83.9123 67.4375L84.5807 66.4559L84.4829 68.0843L83.9123 67.4375ZM93.2303 68.3831L90.9593 70.2689C91.1801 67.8209 91.2983 65.3705 91.3133 62.8727L93.3365 65.1389C93.3094 65.1849 93.2953 65.2373 93.2957 65.2907C93.2225 68.4257 93.1277 68.2667 93.2285 68.3831H93.2303ZM95.3543 67.3991L105.941 79.2599L94.2509 89.5265C83.3489 77.1521 83.5151 77.3291 83.4545 77.2769L95.3543 67.3991ZM93.8381 67.8791L93.9323 65.8079L94.9523 66.9521L93.8381 67.8791ZM90.6545 62.3213C90.6545 66.7325 90.1913 70.6307 90.2681 70.8413L88.3361 72.4457L87.6725 71.6945C87.9239 71.4365 87.5357 69.7343 88.4759 62.1863C88.4872 62.1204 88.4791 62.0527 88.4525 61.9913L89.6321 60.9875L90.6857 62.1677C90.664 62.2156 90.6527 62.2675 90.6527 62.3201L90.6545 62.3213ZM87.7505 61.7999L88.8779 60.1451L89.2301 60.5405L87.7505 61.7999ZM87.7655 62.5751C87.4151 65.3993 87.1763 68.2235 87.0989 71.0477L85.0865 68.7677C85.1123 68.7029 85.0919 68.9099 85.3031 65.3909L86.4935 63.6437C86.5535 63.6161 86.4887 63.6593 87.7655 62.5751ZM86.5229 73.9505L85.4747 74.8205L81.7673 70.5479C82.0537 70.1511 82.3337 69.7549 82.6073 69.3593L86.5229 73.9505ZM84.9731 75.2375L83.8445 76.1747L80.4845 72.2405C80.7899 71.8607 81.0845 71.4749 81.3749 71.0873L84.9731 75.2375ZM83.3435 76.5911L82.2575 77.4911L79.0775 73.8629C79.4177 73.5029 79.7459 73.1291 80.0639 72.7505L83.3435 76.5911ZM81.7559 77.9111L81.0923 78.4625L77.9909 74.9435C78.2153 74.7367 78.4353 74.5247 78.6509 74.3075L81.7559 77.9111ZM82.9997 77.6585C83.0363 77.7185 82.4813 77.0777 93.7997 89.9249L87.7907 95.2049L76.8095 82.7999L82.9997 77.6585ZM58.5659 91.1717C58.5235 91.1691 58.4809 91.1752 58.4409 91.1897C58.4009 91.2042 58.3643 91.2268 58.3334 91.2561C58.3025 91.2854 58.278 91.3207 58.2613 91.3598C58.2446 91.399 58.2362 91.4412 58.2365 91.4837L56.1599 89.0759C56.9151 88.5206 57.6389 87.9237 58.3277 87.2879C58.3602 87.356 58.4149 87.411 58.4828 87.4439C58.5506 87.4768 58.6277 87.4856 58.7012 87.4689C58.7748 87.4522 58.8405 87.411 58.8876 87.3521C58.9346 87.2931 58.9602 87.2199 58.9601 87.1445C58.9627 87.0914 58.952 87.0384 58.9288 86.9905C58.9056 86.9426 58.8708 86.9013 58.8275 86.8703L61.3475 84.7631L61.8929 85.3745C61.8241 85.3929 61.7638 85.4346 61.7222 85.4925C61.6807 85.5503 61.6604 85.6208 61.6649 85.6919C61.6653 85.7676 61.6914 85.8409 61.7389 85.8997C61.7865 85.9585 61.8527 85.9994 61.9266 86.0156C62.0005 86.0319 62.0777 86.0224 62.1456 85.9889C62.2134 85.9553 62.2678 85.8997 62.2997 85.8311L66.5159 90.5615L62.1959 94.1519V94.1429C62.1904 94.0571 62.1539 93.9763 62.0932 93.9155C62.0325 93.8546 61.9517 93.818 61.8659 93.8123C61.3523 93.8123 61.3439 94.4723 61.8089 94.4723L61.2269 94.9523C58.3169 91.5749 58.5047 91.8281 58.5647 91.8281C58.6107 91.833 58.6572 91.8282 58.7012 91.814C58.7452 91.7998 58.7857 91.7765 58.8201 91.7456C58.8546 91.7147 58.8821 91.6769 58.901 91.6347C58.9199 91.5925 58.9297 91.5468 58.9297 91.5006C58.9298 91.4543 58.9202 91.4086 58.9015 91.3663C58.8827 91.324 58.8553 91.2862 58.821 91.2551C58.7867 91.2241 58.7463 91.2007 58.7024 91.1863C58.6584 91.172 58.6119 91.167 58.5659 91.1717ZM70.4291 87.3155L70.3421 86.7329C70.3375 86.6886 70.3239 86.6458 70.3022 86.6069C70.2805 86.568 70.2512 86.5339 70.216 86.5067C70.1808 86.4794 70.1404 86.4596 70.0973 86.4483C70.0543 86.4371 70.0094 86.4347 69.9653 86.4412C69.9213 86.4478 69.879 86.4632 69.8411 86.4865C69.8032 86.5098 69.7704 86.5406 69.7447 86.5769C69.7189 86.6132 69.7008 86.6544 69.6914 86.6979C69.682 86.7414 69.6815 86.7864 69.6899 86.8301L69.8357 87.8081L66.9821 90.1781L61.8125 84.3779L67.1351 79.9319L67.0535 80.6837C67.0441 80.7708 67.0696 80.858 67.1244 80.9262C67.1793 80.9945 67.259 81.0381 67.346 81.0476C67.4331 81.0571 67.5203 81.0316 67.5886 80.9767C67.6568 80.9219 67.7005 80.8421 67.7099 80.7551L67.8593 79.3751C67.8683 79.2959 67.7711 79.3979 68.5193 78.7715L70.3415 80.8379L69.5555 80.8979C69.468 80.9011 69.3853 80.9389 69.3257 81.003C69.2661 81.0672 69.2344 81.1524 69.2375 81.2399C69.2407 81.3274 69.2785 81.4101 69.3427 81.4697C69.4068 81.5294 69.492 81.5611 69.5795 81.5579C69.6065 81.5579 70.8629 81.4637 70.8893 81.4613L73.6733 84.6191L70.4291 87.3155ZM55.7945 88.6499L19.0799 46.0415C23.4761 42.5177 52.2707 19.4675 52.3847 19.3415C84.3845 55.1369 82.9055 53.4935 82.9655 53.5313C81.9011 55.7279 73.0835 73.7213 72.7763 74.4569C72.7199 74.4797 55.8455 88.5599 55.7945 88.6499ZM20.5415 33.6095L15.4871 27.8729L41.8901 7.59771L46.6685 12.9425L20.5415 33.6095ZM47.0693 13.3895L51.9893 18.8945C51.9293 18.9377 50.3993 20.1677 25.9589 39.7583L20.9375 34.0583L47.0693 13.3895ZM20.0693 33.9809L13.3031 39.3353L8.22894 33.4469L15.0089 28.2389L20.0693 33.9809ZM20.4665 34.4315L25.4909 40.1315L18.6905 45.5879L13.6949 39.7901L20.4665 34.4315ZM100.481 57.8111C97.8413 60.3245 93.9899 60.4181 91.3493 57.3125C90.288 56.0121 89.4135 54.5697 88.7513 53.0273C88.7207 52.9539 88.6621 52.8956 88.5886 52.8653C88.515 52.8351 88.4324 52.8353 88.3589 52.8659C88.2855 52.8965 88.2272 52.9551 88.197 53.0287C88.1667 53.1023 88.1669 53.1849 88.1975 53.2583C88.7565 54.5719 89.4699 55.8143 90.3227 56.9591C84.1595 66.0065 84.6695 65.2193 84.6545 65.2799C81.8705 69.3665 79.2761 73.6637 75.4391 76.1957C73.5227 77.4149 72.4067 76.5089 73.4933 74.3357C80.3489 60.0425 86.3333 48.5663 92.6081 34.1069C93.4097 36.0599 95.4281 37.5419 97.2983 38.5343C97.2848 38.5791 97.282 38.6263 97.29 38.6724C97.298 38.7184 97.3167 38.762 97.3445 38.7995C98.7135 40.6663 99.4408 42.9263 99.4174 45.2411C99.394 47.5559 98.6213 49.8008 97.2149 51.6395C97.1737 51.6934 97.1519 51.7597 97.1532 51.8275C97.1544 51.8954 97.1787 51.9608 97.2219 52.0131C97.2652 52.0654 97.3249 52.1015 97.3913 52.1155C97.4577 52.1295 97.5269 52.1205 97.5875 52.0901C98.6977 51.5356 99.8953 51.177 101.128 51.0299C101.183 51.0596 101.245 51.0719 101.308 51.0654C101.37 51.0589 101.429 51.0337 101.477 50.9933C102.159 50.9332 102.845 50.9352 103.527 50.9993C105.01 50.9993 104.782 52.2077 103.996 53.4497C103.011 55.0443 101.83 56.5095 100.481 57.8111ZM106.481 55.2101C106.121 56.1101 104.058 57.4517 101.837 57.2933C102.835 56.2063 103.726 55.027 104.501 53.7713C105.889 51.5777 105.075 50.4275 103.553 50.4011C102.889 50.3389 102.221 50.3333 101.556 50.3843C101.517 49.6646 101.524 48.9431 101.579 48.2243C101.558 47.9433 101.605 47.6615 101.716 47.4025C101.827 47.1434 101.998 46.9148 102.216 46.7357C102.756 46.4399 103.603 46.9121 104.156 47.5259C105.808 49.4459 106.282 52.0901 106.526 54.3953C106.536 54.6676 106.522 54.9403 106.484 55.2101H106.481ZM109.265 50.1101C109.445 50.4617 109.568 50.8399 109.629 51.2303C109.641 51.5999 109.568 51.9674 109.416 52.3045C109.264 52.6415 109.036 52.9393 108.751 53.1749C108.245 53.5952 107.696 53.9612 107.114 54.2669C106.891 52.2011 106.445 49.6685 105.049 47.7011C105.092 47.7003 105.135 47.6902 105.173 47.6716C105.212 47.6529 105.247 47.6261 105.274 47.593C105.302 47.5598 105.322 47.5212 105.333 47.4796C105.344 47.438 105.347 47.3944 105.34 47.3519C105.318 46.9868 105.376 46.6213 105.51 46.2809C105.579 46.1386 105.686 46.0176 105.818 45.9307C105.951 45.8438 106.104 45.7942 106.262 45.7871C107.118 46.0271 108.042 47.5427 108.447 48.3323C108.434 48.3977 108.443 48.4655 108.473 48.5252C108.502 48.5848 108.551 48.6329 108.611 48.6617C108.84 49.1249 109.051 49.6109 109.267 50.1077L109.265 50.1101ZM108.679 47.5055C108.3 46.8204 107.813 46.2008 107.236 45.6707C106.979 45.4192 106.652 45.2506 106.298 45.1865C106.016 45.1883 105.739 45.2706 105.502 45.4238C105.264 45.5771 105.075 45.7949 104.957 46.0517C104.537 47.3171 104.881 47.4539 104.606 47.1347C103.891 46.3397 102.785 45.7469 101.893 46.2347C101.588 46.4672 101.345 46.7714 101.186 47.1203C101.027 47.4691 100.957 47.8519 100.981 48.2345C100.923 48.9705 100.916 49.7096 100.958 50.4467C100.049 50.5639 99.1562 50.7899 98.3003 51.1199C99.438 49.2965 100.033 47.187 100.016 45.0379C99.9991 42.8887 99.3707 40.7889 98.2043 38.9837C99.6667 39.6713 101.207 40.1787 102.792 40.4945C103.773 40.7316 104.794 40.7494 105.783 40.5466C106.771 40.3439 107.703 39.9256 108.511 39.3215C109.904 41.9261 109.479 44.5913 108.682 47.5031L108.679 47.5055Z" fill="#00143B"/>
<path d="M69.82 97.1897C69.8266 97.3985 69.7342 97.2755 72.9136 99.6005C73.141 99.7673 73.3336 99.5507 73.5238 99.3929C73.5833 99.4833 73.6734 99.5491 73.7776 99.5783C74.4304 99.9143 74.9932 98.9963 74.5054 98.5931L75.6568 97.6547C75.7054 97.7558 75.7819 97.841 75.8772 97.9003C75.9725 97.9595 76.0827 97.9904 76.1949 97.9893C76.3071 97.9883 76.4167 97.9553 76.5109 97.8942C76.605 97.8332 76.6798 97.7465 76.7266 97.6445C76.7949 97.523 76.8191 97.3816 76.7953 97.2442C76.7715 97.1068 76.701 96.9818 76.5958 96.8903L76.8454 96.6863C76.8963 96.645 76.9322 96.5881 76.9477 96.5244C76.9632 96.4607 76.9574 96.3936 76.9312 96.3335L75.9208 94.0157C75.8889 93.9428 75.8294 93.8854 75.7553 93.8563C75.6812 93.8273 75.5986 93.8288 75.5257 93.8606C75.4527 93.8925 75.3954 93.952 75.3663 94.0261C75.3372 94.1002 75.3387 94.1828 75.3706 94.2557L76.2904 96.3647L73.081 98.9795L70.6054 97.1639L77.641 91.2695C77.6726 91.2447 77.699 91.2138 77.7184 91.1786C77.7379 91.1434 77.7501 91.1046 77.7543 91.0646C77.7585 91.0246 77.7546 90.9842 77.7428 90.9457C77.7311 90.9072 77.7117 90.8715 77.6859 90.8407C77.66 90.8099 77.6282 90.7845 77.5924 90.7662C77.5566 90.7479 77.5175 90.737 77.4773 90.7342C77.4372 90.7313 77.3969 90.7365 77.3589 90.7495C77.3208 90.7626 77.2857 90.7831 77.2558 90.8099C69.3484 97.4489 69.8128 96.9713 69.82 97.1897Z" fill="#00143B"/>
<path d="M61.2071 89.983C61.2946 89.983 61.3785 89.9482 61.4404 89.8863C61.5023 89.8245 61.5371 89.7405 61.5371 89.653C61.5371 89.5655 61.5023 89.4815 61.4404 89.4197C61.3785 89.3578 61.2946 89.323 61.2071 89.323C61.1196 89.323 61.0356 89.3578 60.9737 89.4197C60.9118 89.4815 60.8771 89.5655 60.8771 89.653C60.8771 89.7405 60.9118 89.8245 60.9737 89.8863C61.0356 89.9482 61.1196 89.983 61.2071 89.983Z" fill="#00143B"/>
<path d="M63.2537 89.653C63.2592 89.7387 63.2957 89.8195 63.3564 89.8802C63.4172 89.941 63.498 89.9775 63.5837 89.983C63.6277 89.9856 63.6718 89.9789 63.713 89.9632C63.7542 89.9476 63.7916 89.9234 63.8228 89.8922C63.854 89.861 63.8782 89.8236 63.8939 89.7823C63.9095 89.7411 63.9163 89.697 63.9137 89.653C63.9137 89.6097 63.9051 89.5667 63.8885 89.5267C63.872 89.4867 63.8477 89.4503 63.817 89.4197C63.7864 89.389 63.75 89.3647 63.71 89.3481C63.6699 89.3315 63.627 89.323 63.5837 89.323C63.5403 89.323 63.4974 89.3315 63.4574 89.3481C63.4173 89.3647 63.381 89.389 63.3503 89.4197C63.3197 89.4503 63.2954 89.4867 63.2788 89.5267C63.2622 89.5667 63.2537 89.6097 63.2537 89.653Z" fill="#00143B"/>
<path d="M60.9432 92.8198C60.9882 92.8225 61.0333 92.816 61.0757 92.8006C61.1181 92.7853 61.1569 92.7614 61.1897 92.7305C61.2225 92.6996 61.2487 92.6623 61.2666 92.6209C61.2844 92.5795 61.2937 92.5349 61.2937 92.4898C61.2937 92.4447 61.2844 92.4001 61.2666 92.3587C61.2487 92.3173 61.2225 92.28 61.1897 92.2491C61.1569 92.2182 61.1181 92.1943 61.0757 92.1789C61.0333 92.1636 60.9882 92.1571 60.9432 92.1598C60.8982 92.1571 60.8531 92.1636 60.8107 92.1789C60.7683 92.1943 60.7295 92.2182 60.6966 92.2491C60.6638 92.28 60.6376 92.3173 60.6198 92.3587C60.6019 92.4001 60.5927 92.4447 60.5927 92.4898C60.5927 92.5349 60.6019 92.5795 60.6198 92.6209C60.6376 92.6623 60.6638 92.6996 60.6966 92.7305C60.7295 92.7614 60.7683 92.7853 60.8107 92.8006C60.8531 92.816 60.8982 92.8225 60.9432 92.8198Z" fill="#00143B"/>
<path d="M63.0557 92.2944C63.1007 92.2971 63.1458 92.2906 63.1882 92.2752C63.2306 92.2599 63.2694 92.236 63.3022 92.2051C63.3351 92.1742 63.3612 92.1369 63.3791 92.0955C63.397 92.0541 63.4062 92.0095 63.4062 91.9644C63.4062 91.9193 63.397 91.8747 63.3791 91.8333C63.3612 91.7919 63.3351 91.7546 63.3022 91.7237C63.2694 91.6928 63.2306 91.6689 63.1882 91.6536C63.1458 91.6382 63.1007 91.6317 63.0557 91.6344C63.0107 91.6317 62.9656 91.6382 62.9232 91.6536C62.8808 91.6689 62.842 91.6928 62.8092 91.7237C62.7763 91.7546 62.7502 91.7919 62.7323 91.8333C62.7144 91.8747 62.7052 91.9193 62.7052 91.9644C62.7052 92.0095 62.7144 92.0541 62.7323 92.0955C62.7502 92.1369 62.7763 92.1742 62.8092 92.2051C62.842 92.236 62.8808 92.2599 62.9232 92.2752C62.9656 92.2906 63.0107 92.2971 63.0557 92.2944Z" fill="#00143B"/>
<path d="M63.1877 88.0026C63.2311 88.0026 63.274 87.9941 63.314 87.9775C63.3541 87.9609 63.3904 87.9366 63.4211 87.9059C63.4517 87.8753 63.476 87.8389 63.4926 87.7989C63.5092 87.7588 63.5177 87.7159 63.5177 87.6726C63.5177 87.6293 63.5092 87.5863 63.4926 87.5463C63.476 87.5063 63.4517 87.4699 63.4211 87.4392C63.3904 87.4086 63.3541 87.3843 63.314 87.3677C63.274 87.3511 63.2311 87.3426 63.1877 87.3426C63.1437 87.34 63.0996 87.3467 63.0584 87.3624C63.0172 87.378 62.9797 87.4022 62.9486 87.4334C62.9174 87.4646 62.8932 87.502 62.8775 87.5433C62.8618 87.5845 62.8551 87.6286 62.8577 87.6726C62.8632 87.7583 62.8998 87.8391 62.9605 87.8998C63.0212 87.9605 63.102 87.9971 63.1877 88.0026Z" fill="#00143B"/>
<path d="M21.2634 26.4036C20.9079 26.3902 20.5566 26.4834 20.2546 26.6711C19.9525 26.8588 19.7134 27.1326 19.5681 27.4572C19.4228 27.7818 19.3778 28.1425 19.4389 28.4928C19.5001 28.8432 19.6646 29.1673 19.9113 29.4235C20.158 29.6797 20.4756 29.8563 20.8234 29.9306C21.1712 30.0049 21.5333 29.9735 21.8632 29.8405C22.193 29.7075 22.4756 29.479 22.6746 29.1842C22.8736 28.8894 22.9799 28.5419 22.98 28.1862C22.9885 27.7223 22.8125 27.2739 22.4906 26.9396C22.1687 26.6054 21.7273 26.4126 21.2634 26.4036Z" fill="#00143B"/>
<path d="M25.3565 26.9314C26.3045 26.9314 27.0731 26.1333 27.0731 25.1488C27.0731 24.1643 26.3045 23.3662 25.3565 23.3662C24.4084 23.3662 23.6399 24.1643 23.6399 25.1488C23.6399 26.1333 24.4084 26.9314 25.3565 26.9314Z" fill="#00143B"/>
<path d="M29.3843 20.1316C29.0289 20.1182 28.6776 20.2114 28.3755 20.3991C28.0735 20.5869 27.8344 20.8606 27.6891 21.1852C27.5437 21.5098 27.4987 21.8705 27.5599 22.2209C27.621 22.5712 27.7855 22.8953 28.0322 23.1515C28.2789 23.4077 28.5966 23.5843 28.9444 23.6586C29.2922 23.7329 29.6543 23.7016 29.9842 23.5686C30.314 23.4356 30.5966 23.207 30.7956 22.9122C30.9946 22.6174 31.1009 22.2699 31.1009 21.9142C31.1094 21.4503 30.9334 21.0019 30.6115 20.6677C30.2897 20.3334 29.8483 20.1406 29.3843 20.1316Z" fill="#00143B"/>
<path d="M33.4799 17.0945C33.1245 17.0811 32.7732 17.1743 32.4711 17.362C32.169 17.5498 31.93 17.8235 31.7846 18.1481C31.6393 18.4727 31.5943 18.8334 31.6555 19.1837C31.7166 19.5341 31.8811 19.8582 32.1278 20.1144C32.3745 20.3706 32.6922 20.5472 33.04 20.6215C33.3878 20.6958 33.7499 20.6645 34.0797 20.5315C34.4096 20.3985 34.6922 20.1699 34.8912 19.8751C35.0902 19.5803 35.1965 19.2328 35.1965 18.8771C35.205 18.4132 35.029 17.9648 34.7071 17.6306C34.3853 17.2963 33.9439 17.1035 33.4799 17.0945Z" fill="#00143B"/>
<path d="M37.5707 13.9253C37.2312 13.9253 36.8993 14.026 36.617 14.2146C36.3347 14.4032 36.1147 14.6713 35.9848 14.985C35.8549 15.2986 35.8209 15.6438 35.8871 15.9768C35.9533 16.3098 36.1168 16.6156 36.3569 16.8557C36.597 17.0958 36.9028 17.2593 37.2358 17.3255C37.5688 17.3917 37.914 17.3577 38.2276 17.2278C38.5413 17.0979 38.8094 16.8779 38.998 16.5956C39.1866 16.3133 39.2873 15.9814 39.2873 15.6419C39.2873 15.1866 39.1065 14.75 38.7845 14.4281C38.4626 14.1061 38.026 13.9253 37.5707 13.9253Z" fill="#00143B"/>
<path d="M39.948 12.6048C39.948 12.9443 40.0487 13.2762 40.2373 13.5585C40.4259 13.8408 40.694 14.0608 41.0077 14.1907C41.3214 14.3206 41.6665 14.3546 41.9995 14.2884C42.3325 14.2222 42.6383 14.0587 42.8784 13.8186C43.1185 13.5785 43.282 13.2727 43.3482 12.9397C43.4144 12.6067 43.3805 12.2615 43.2505 11.9479C43.1206 11.6342 42.9006 11.3661 42.6183 11.1775C42.336 10.9889 42.0041 10.8882 41.6646 10.8882C41.2093 10.8882 40.7727 11.069 40.4508 11.391C40.1289 11.7129 39.948 12.1495 39.948 12.6048Z" fill="#00143B"/>
<path d="M27.1698 35.3885C27.1714 35.468 27.2045 35.5437 27.2619 35.5989C27.3193 35.654 27.3962 35.6841 27.4758 35.6825C27.5553 35.6809 27.631 35.6478 27.6861 35.5904C27.7413 35.533 27.7714 35.456 27.7698 35.3765L27.7458 34.1999C27.9444 34.2371 28.7286 34.3625 28.7904 34.3625C28.866 34.3618 28.9387 34.3326 28.9937 34.2806C29.0487 34.2287 29.0821 34.1579 29.0871 34.0823C29.0921 34.0068 29.0684 33.9322 29.0207 33.8735C28.973 33.8147 28.9049 33.7761 28.83 33.7655C28.443 33.7133 28.0782 33.6539 27.7332 33.5855L27.7032 32.1407C27.6992 32.0619 27.6653 31.9876 27.6085 31.933C27.5516 31.8784 27.476 31.8475 27.3972 31.8467C27.3177 31.8483 27.2421 31.8813 27.187 31.9386C27.1319 31.9958 27.1017 32.0726 27.1032 32.1521L27.1302 33.4547C26.7431 33.363 26.3612 33.2509 25.986 33.1187C25.912 33.0956 25.832 33.102 25.7627 33.1366C25.6933 33.1711 25.6401 33.2312 25.614 33.3042C25.588 33.3771 25.5912 33.4573 25.6229 33.528C25.6547 33.5987 25.7125 33.6543 25.7844 33.6833C26.229 33.8403 26.6826 33.9708 27.1428 34.0739L27.1698 35.3885Z" fill="#00143B"/>
<path d="M28.9883 32.2493C29.6027 32.2493 29.7299 31.8935 30.1097 31.6289C30.2155 31.5884 30.3324 31.5882 30.4383 31.6284C30.5442 31.6685 30.6316 31.7462 30.6839 31.8467C30.8921 32.4719 30.2231 32.8565 29.6111 32.6549C29.5737 32.6424 29.5342 32.6375 29.4949 32.6403C29.4556 32.6431 29.4173 32.6536 29.382 32.6712C29.3468 32.6889 29.3154 32.7133 29.2896 32.743C29.2637 32.7728 29.2441 32.8074 29.2316 32.8448C29.2192 32.8822 29.2142 32.9216 29.217 32.9609C29.2198 33.0002 29.2303 33.0386 29.248 33.0739C29.2656 33.1091 29.29 33.1405 29.3198 33.1663C29.3495 33.1921 29.3841 33.2118 29.4215 33.2243C29.6543 33.3007 29.9012 33.3241 30.1441 33.293C30.3871 33.2619 30.6201 33.1769 30.8261 33.0443C31.0376 32.8816 31.1916 32.6556 31.2655 32.3992C31.3395 32.1429 31.3295 31.8696 31.2371 31.6193C31.1208 31.3752 30.9171 31.1836 30.6664 31.0824C30.4157 30.9812 30.1361 30.9777 29.8829 31.0727C29.6682 31.1996 29.4733 31.3575 29.3045 31.5413C28.8245 32.0141 28.6481 30.7187 29.3909 30.8591C29.4689 30.875 29.55 30.8593 29.6164 30.8154C29.6828 30.7715 29.729 30.703 29.7449 30.6251C29.7608 30.5471 29.7451 30.466 29.7012 30.3996C29.6573 30.3332 29.5889 30.287 29.5109 30.2711C29.2923 30.2312 29.0666 30.2622 28.8668 30.3594C28.6669 30.4566 28.5033 30.615 28.3996 30.8116C28.296 31.0082 28.2577 31.2327 28.2904 31.4525C28.3231 31.6723 28.4251 31.876 28.5815 32.0339C28.6313 32.0953 28.693 32.1461 28.7629 32.1831C28.8328 32.2201 28.9095 32.2426 28.9883 32.2493Z" fill="#00143B"/>
<path d="M34.6002 28.0234C34.7976 28.0234 34.7664 28.051 35.3094 27.8218C35.4147 27.7913 35.5278 27.8038 35.624 27.8566C35.7201 27.9093 35.7914 27.998 35.8224 28.1032C35.8495 28.2239 35.8465 28.3495 35.8136 28.4687C35.7808 28.588 35.7191 28.6974 35.634 28.7872C35.5098 28.878 35.3671 28.9403 35.2161 28.9697C35.0652 28.9992 34.9096 28.995 34.7604 28.9576C34.7228 28.9446 34.6831 28.9392 34.6434 28.9416C34.6038 28.9441 34.565 28.9544 34.5294 28.972C34.4937 28.9896 34.462 29.0141 34.4359 29.044C34.4098 29.074 34.3899 29.1088 34.3774 29.1465C34.3649 29.1843 34.36 29.2241 34.363 29.2637C34.366 29.3033 34.3768 29.3419 34.3948 29.3773C34.4129 29.4127 34.4378 29.4442 34.4681 29.4699C34.4984 29.4956 34.5335 29.515 34.5714 29.527C34.8074 29.5932 35.0552 29.6061 35.2968 29.5645C35.5384 29.523 35.7678 29.4282 35.9682 29.287C36.1513 29.134 36.2896 28.9341 36.3682 28.7088C36.4468 28.4834 36.4628 28.241 36.4146 28.0072C36.3857 27.8732 36.3301 27.7465 36.2509 27.6347C36.1718 27.5228 36.0708 27.4282 35.954 27.3565C35.8373 27.2847 35.7072 27.2374 35.5716 27.2174C35.4361 27.1973 35.2979 27.205 35.1654 27.2398C34.6122 27.4264 34.7856 27.4198 34.6002 27.4198C34.5516 27.425 34.5025 27.4193 34.4565 27.403C34.4104 27.3868 34.3686 27.3604 34.3341 27.3259C34.2995 27.2914 34.2732 27.2495 34.2569 27.2035C34.2407 27.1575 34.235 27.1083 34.2402 27.0598V26.9818C34.2688 26.8917 34.3315 26.8162 34.4148 26.7714C34.4981 26.7266 34.5956 26.716 34.6866 26.7418C34.7603 26.7714 34.8428 26.7705 34.9159 26.7394C34.9891 26.7082 35.0468 26.6493 35.0766 26.5756C35.238 26.173 34.6332 26.0074 34.1988 26.2096C34.0555 26.276 33.9301 26.3755 33.833 26.5C33.7358 26.6245 33.6697 26.7703 33.6402 26.9254V27.058C33.6335 27.1861 33.6537 27.3141 33.6995 27.4339C33.7453 27.5537 33.8157 27.6626 33.9061 27.7535C33.9966 27.8445 34.1051 27.9154 34.2246 27.9619C34.3441 28.0084 34.472 28.0294 34.6002 28.0234Z" fill="#00143B"/>
<path d="M40.5762 25.3986C40.6423 25.3545 40.6883 25.286 40.7039 25.208C40.7196 25.13 40.7036 25.049 40.6596 24.9828C40.3786 24.5649 40.0663 24.169 39.7254 23.7984H40.608C40.6875 23.7984 40.7638 23.7668 40.8201 23.7106C40.8763 23.6543 40.908 23.578 40.908 23.4984V23.0526C41.2062 23.3843 41.525 23.697 41.8626 23.9886C41.8921 24.0153 41.9266 24.0358 41.9641 24.049C42.0016 24.0621 42.0414 24.0677 42.0811 24.0654C42.1208 24.0631 42.1596 24.0529 42.1954 24.0354C42.2311 24.018 42.263 23.9936 42.2892 23.9637C42.3154 23.9337 42.3354 23.8989 42.348 23.8612C42.3607 23.8235 42.3657 23.7837 42.3628 23.744C42.3599 23.7043 42.3491 23.6657 42.3311 23.6302C42.3131 23.5947 42.2882 23.5632 42.258 23.5374C40.7088 22.1808 40.9236 21.7668 40.518 21.891C40.4564 21.9097 40.4025 21.9476 40.3641 21.9993C40.3258 22.0509 40.305 22.1135 40.305 22.1778V23.1978H39.0234C38.964 23.1978 38.906 23.2155 38.8566 23.2485C38.8073 23.2815 38.7688 23.3284 38.7462 23.3832C38.5884 23.763 39.177 23.8404 40.1604 25.3152C40.2045 25.3814 40.273 25.4274 40.351 25.443C40.429 25.4586 40.5099 25.4427 40.5762 25.3986Z" fill="#00143B"/>
<path d="M45.3264 21.18C45.459 21.3438 45.6042 21.3222 45.7998 21.1872C46.1094 20.9742 46.5444 20.4774 47.2506 19.9824C47.2844 19.9604 47.3135 19.9319 47.3361 19.8985C47.3587 19.8651 47.3743 19.8274 47.382 19.7878C47.3897 19.7482 47.3894 19.7075 47.381 19.668C47.3726 19.6286 47.3563 19.5912 47.3331 19.5582C47.3099 19.5252 47.2803 19.4972 47.2461 19.4758C47.2119 19.4545 47.1737 19.4403 47.1338 19.4341C47.0939 19.4279 47.0532 19.4298 47.0141 19.4396C46.975 19.4495 46.9383 19.4672 46.9062 19.4916C46.4533 19.828 46.0189 20.1885 45.6048 20.5716L44.4048 19.0878C44.3547 19.0259 44.2821 18.9864 44.203 18.978C44.1238 18.9696 44.0446 18.993 43.9827 19.0431C43.9208 19.0931 43.8813 19.1657 43.8729 19.2449C43.8645 19.324 43.8879 19.4033 43.938 19.4652L45.3264 21.18Z" fill="#00143B"/>
<path d="M19.4807 41.5588C19.5349 41.5585 19.588 41.5436 19.6344 41.5156C19.6808 41.4876 19.7187 41.4476 19.7441 41.3998L20.0705 40.7998C20.7305 40.69 20.8841 40.7092 20.9549 40.4878C20.9717 40.4353 20.9737 40.3792 20.9607 40.3256C20.9477 40.2721 20.9201 40.2231 20.8811 40.1842L20.3945 39.697L20.5031 38.9896C20.5121 38.9326 20.5045 38.8742 20.4811 38.8214C20.4578 38.7686 20.4197 38.7237 20.3714 38.692C20.3231 38.6603 20.2667 38.6433 20.209 38.6428C20.1513 38.6424 20.0947 38.6586 20.0459 38.6896L19.4633 39.0604L18.8225 38.74C18.7713 38.7145 18.7138 38.7042 18.6568 38.7103C18.5999 38.7165 18.5459 38.7388 18.5012 38.7746C18.4565 38.8104 18.423 38.8583 18.4047 38.9126C18.3864 38.9668 18.384 39.0252 18.3977 39.0808L18.5543 39.709L18.0803 40.183C18.0413 40.2219 18.0138 40.2709 18.0008 40.3244C17.9878 40.378 17.9898 40.4341 18.0065 40.4866C18.0773 40.7074 18.2201 40.687 18.8909 40.7986C19.2215 41.4106 19.2551 41.5588 19.4807 41.5588Z" fill="#00143B"/>
<path d="M14.7665 31.7663C14.7179 31.7036 14.6464 31.6627 14.5677 31.6526C14.4889 31.6425 14.4094 31.664 14.3465 31.7123L12.2999 33.2999C12.237 33.3486 12.196 33.4203 12.1859 33.4993C12.1758 33.5782 12.1975 33.6579 12.2462 33.7208C12.2949 33.7838 12.3666 33.8248 12.4455 33.8349C12.5245 33.8449 12.6042 33.8232 12.6671 33.7745L14.7143 32.1899C14.7457 32.1657 14.7721 32.1355 14.7917 32.101C14.8114 32.0665 14.824 32.0285 14.8289 31.9891C14.8337 31.9496 14.8307 31.9097 14.82 31.8714C14.8093 31.8332 14.7911 31.7975 14.7665 31.7663Z" fill="#00143B"/>
<path d="M13.0373 34.642C13.0859 34.7047 13.1574 34.7457 13.2361 34.7558C13.3149 34.7659 13.3944 34.7444 13.4573 34.696L15.5039 33.1108C15.5668 33.0621 15.6078 32.9904 15.6179 32.9115C15.628 32.8326 15.6063 32.7529 15.5576 32.6899C15.5089 32.627 15.4372 32.586 15.3583 32.5759C15.2793 32.5658 15.1996 32.5875 15.1367 32.6362L13.0895 34.2214C13.0269 34.2703 12.9862 34.3421 12.9764 34.4209C12.9666 34.4998 12.9885 34.5793 13.0373 34.642Z" fill="#00143B"/>
<path d="M13.7574 35.4916C13.7804 35.5238 13.8095 35.5511 13.8431 35.5719C13.8767 35.5928 13.9141 35.6068 13.9531 35.6132C13.9922 35.6195 14.0321 35.6181 14.0706 35.609C14.109 35.5998 14.1453 35.5832 14.1774 35.56L16.29 34.042C16.3547 33.9955 16.3982 33.9253 16.4111 33.8467C16.424 33.7681 16.4051 33.6876 16.3587 33.6229C16.3122 33.5582 16.2419 33.5146 16.1633 33.5018C16.0848 33.4889 16.0043 33.5077 15.9396 33.5542L13.827 35.0728C13.7949 35.0957 13.7676 35.1247 13.7468 35.1582C13.7259 35.1916 13.7118 35.2289 13.7054 35.2678C13.6989 35.3067 13.7002 35.3465 13.7091 35.3849C13.718 35.4233 13.7344 35.4595 13.7574 35.4916Z" fill="#00143B"/>
<path d="M62.2841 48.3155C60.3041 46.2113 59.1431 44.0123 57.5555 41.2781C58.5701 41.6303 59.5919 41.9429 60.6029 42.2087C60.6531 42.2218 60.7057 42.2218 60.7558 42.2085C60.806 42.1952 60.8518 42.1691 60.8888 42.1329C60.9258 42.0966 60.9529 42.0514 60.9672 42.0016C60.9816 41.9518 60.9828 41.8991 60.9707 41.8487C60.3815 39.3587 60.0395 36.8087 59.1875 34.3853C58.9937 33.6095 52.7267 33.6413 51.7475 33.6965C49.409 33.8327 47.1304 34.4886 45.0773 35.6165C44.7486 35.2134 44.3828 34.8419 43.9847 34.5071C43.9351 34.4454 43.8734 34.3945 43.8035 34.3573C43.7336 34.3202 43.6568 34.2977 43.5779 34.2911C43.4169 34.3016 43.2643 34.3664 43.1447 34.4747C41.6989 35.4646 40.4085 36.6644 39.3161 38.0345C39.2727 38.0887 39.2494 38.1564 39.2503 38.2259C39.2511 38.2953 39.2761 38.3624 39.3209 38.4155C40.4759 39.7859 40.3841 39.6845 40.4489 39.7355C37.7933 43.8953 37.9289 47.2859 37.8557 50.1485C37.7747 53.1965 37.9091 53.4215 38.1743 53.5463C39.7668 54.2352 41.4121 54.795 43.0943 55.2203C45.6035 55.9451 45.4463 55.9487 45.5609 55.9487C45.6054 55.9487 45.6493 55.9388 45.6895 55.9198C45.7297 55.9007 45.7652 55.8729 45.7933 55.8385C45.8215 55.804 45.8416 55.7637 45.8523 55.7205C45.8629 55.6773 45.8638 55.6323 45.8549 55.5887C45.6527 54.5759 45.4085 53.5919 45.1601 52.6331C51.0119 58.4837 50.3435 57.7589 50.8325 58.4759C51.2603 59.4359 50.9771 58.5083 52.5941 67.5857C53.1854 70.8576 53.9821 74.089 54.9797 77.2607C54.9945 77.3079 55.0208 77.3507 55.0561 77.3853C55.0915 77.4199 55.1349 77.4452 55.1824 77.459C55.2299 77.4728 55.2801 77.4746 55.3285 77.4643C55.3769 77.454 55.4219 77.4319 55.4597 77.3999C56.7041 76.3481 76.6307 59.7035 78.6395 57.9185C78.6707 57.8908 78.6957 57.857 78.7131 57.8191C78.7305 57.7813 78.7398 57.7402 78.7404 57.6985C78.741 57.6569 78.733 57.6156 78.7167 57.5772C78.7005 57.5388 78.6764 57.5043 78.6461 57.4757C76.1663 55.1351 62.9639 49.0295 62.2841 48.3155ZM40.2737 38.6135L39.9407 38.2181C40.9824 36.9539 42.1971 35.843 43.5491 34.9181C43.6271 34.9985 43.7675 35.0981 44.0591 35.3873L40.2737 38.6135ZM40.6607 39.0725L44.4707 35.8241C44.5811 35.9519 44.6867 36.0839 44.7911 36.2231C44.8361 36.2832 44.902 36.3242 44.9757 36.3381C45.0495 36.352 45.1258 36.3377 45.1895 36.2981C45.2267 36.4273 45.2633 36.5561 45.2993 36.6845C44.2043 37.5737 43.1315 38.5355 42.0455 39.5993C40.7921 39.3371 40.9691 39.4391 40.6607 39.0725ZM44.5151 40.1159L42.7535 39.7475C43.6607 38.8721 44.5601 38.0675 45.4739 37.3163C45.6161 37.8425 45.7487 38.3627 45.8729 38.8817L44.5151 40.1159ZM45.2405 40.2677L46.0295 39.5507C46.0991 39.8591 46.1661 40.1671 46.2305 40.4747L45.2405 40.2677ZM59.0207 47.8457L51.2357 54.7985C51.5344 53.9891 51.7441 53.1495 51.8609 52.2947L56.8049 47.6687C57.5379 47.7845 58.2787 47.8437 59.0207 47.8457ZM56.0741 47.5301L51.9503 51.3893C51.9909 50.7053 51.974 50.0191 51.8999 49.3379C52.7135 48.5511 53.5525 47.7871 54.4169 47.0459C54.9574 47.2455 55.5112 47.4073 56.0741 47.5301ZM52.2341 45.9899C52.7354 46.2929 53.2566 46.5618 53.7941 46.7945C53.1141 47.3829 52.4501 47.9861 51.8021 48.6041C51.6979 47.989 51.5473 47.3827 51.3515 46.7903C51.6371 46.5095 51.9313 46.2427 52.2341 45.9899ZM51.7031 45.6527C51.5071 45.8203 51.3147 45.9933 51.1259 46.1717C50.3543 44.1995 49.8887 44.4431 51.7031 45.6527ZM50.2319 56.8631C50.3799 56.6231 50.5185 56.3781 50.6477 56.1281L59.9477 47.8241C60.2181 47.8109 60.4943 47.7909 60.7763 47.7641C61.0827 47.9739 61.3662 48.2152 61.6223 48.4841L50.9591 57.6257C50.741 57.3494 50.4975 57.0941 50.2319 56.8631ZM51.3065 58.1189C62.5085 48.5075 62.0075 48.9485 62.0465 48.8885C62.3201 49.0775 62.8217 49.3607 63.5603 49.7525C63.5603 49.7525 55.1885 57.1409 51.9113 60.0815C51.8197 59.3983 51.6153 58.7351 51.3065 58.1189ZM52.0265 60.7865C55.4075 57.7505 64.1237 50.0555 64.1291 50.0501C64.6271 50.3105 65.2071 50.6105 65.8691 50.9501L52.3307 62.5541L52.0265 60.7865ZM52.4501 63.2363C52.5053 63.2033 66.3875 51.3083 66.4265 51.2333L68.2169 52.1489L52.8647 65.6399L52.4501 63.2363ZM52.9799 66.3029C53.0741 66.2729 52.1165 67.0955 68.7905 52.4429C69.3905 52.7519 70.0055 53.0693 70.6169 53.3885L53.4641 68.9285C53.2199 67.7225 53.1521 67.3025 52.9799 66.3029ZM53.6009 69.5939C53.6735 69.5627 52.4261 70.6805 71.1809 53.6867C71.8733 54.0509 72.5609 54.4157 73.2149 54.7739L53.9873 71.3399C53.8517 70.7595 53.7227 70.1775 53.6003 69.5939H53.6009ZM54.1439 71.9939L73.7777 55.0799C74.5055 55.4819 75.1901 55.8713 75.8021 56.2373L54.6629 74.0273C54.4813 73.3537 54.3081 72.6763 54.1433 71.9951L54.1439 71.9939ZM55.4183 76.6523C55.2183 75.9943 55.0249 75.3313 54.8381 74.6633L76.3433 56.5673C76.9134 56.9096 77.4616 57.2869 77.9849 57.6971C74.5745 60.6863 59.7911 72.9725 55.4177 76.6535L55.4183 76.6523Z" fill="#00143B"/>
<path d="M95.7293 81.5627C96.2026 81.4757 96.653 81.2923 97.0524 81.0239C97.4519 80.7555 97.7919 80.4079 98.0513 80.0026C98.3107 79.5972 98.4841 79.1429 98.5605 78.6678C98.637 78.1927 98.615 77.7069 98.4958 77.2406C98.3766 76.7744 98.1629 76.3376 97.8678 75.9574C97.5727 75.5773 97.2027 75.2618 96.7805 75.0307C96.3584 74.7996 95.8933 74.6577 95.4141 74.6139C94.9348 74.5701 94.4517 74.6253 93.9947 74.7761C91.3295 75.6293 90.9017 78.9125 92.1347 80.1353C92.5548 80.669 93.1086 81.0822 93.7398 81.3328C94.3711 81.5835 95.0575 81.6628 95.7293 81.5627ZM94.1693 75.3503C94.6386 75.1882 95.142 75.1504 95.6303 75.2405C96.1186 75.3307 96.5752 75.5457 96.9558 75.8646C97.3363 76.1836 97.6279 76.5956 97.802 77.0606C97.9761 77.5257 98.0268 78.0278 97.9493 78.5183C97.5731 81.1037 94.3709 81.9641 92.5823 79.7357C91.5947 78.7475 91.9799 76.0511 94.1687 75.3503H94.1693Z" fill="#00143B"/>
<path d="M67.3494 87.7144L65.9694 87.0184C65.8912 86.9786 65.8005 86.9715 65.7171 86.9986C65.6337 87.0257 65.5645 87.0849 65.5248 87.163C65.485 87.2411 65.4779 87.3319 65.505 87.4153C65.5321 87.4986 65.5912 87.5678 65.6694 87.6076L67.0494 88.3036C67.1275 88.3434 67.2182 88.3505 67.3016 88.3234C67.3429 88.31 67.3811 88.2885 67.4141 88.2603C67.4471 88.2321 67.4743 88.1977 67.494 88.159C67.5137 88.1203 67.5255 88.0781 67.5289 88.0349C67.5323 87.9916 67.5272 87.948 67.5137 87.9068C67.5003 87.8655 67.4789 87.8272 67.4507 87.7942C67.4225 87.7612 67.388 87.7341 67.3494 87.7144Z" fill="#00143B"/>
<path d="M71.142 83.8126L71.397 85.339C71.4042 85.3818 71.4197 85.4227 71.4427 85.4594C71.4657 85.4962 71.4956 85.528 71.5309 85.5532C71.5662 85.5784 71.6061 85.5963 71.6484 85.606C71.6906 85.6158 71.7344 85.6171 71.7771 85.6099C71.8198 85.6028 71.8608 85.5872 71.8975 85.5642C71.9343 85.5413 71.9661 85.5113 71.9913 85.476C72.0164 85.4407 72.0344 85.4008 72.0441 85.3585C72.0539 85.3163 72.0552 85.2726 72.048 85.2298L71.793 83.7034C71.7858 83.6607 71.7703 83.6198 71.7473 83.583C71.7243 83.5463 71.6943 83.5144 71.6591 83.4893C71.6238 83.4641 71.5839 83.4461 71.5416 83.4364C71.4994 83.4267 71.4556 83.4254 71.4129 83.4325C71.3266 83.447 71.2495 83.4952 71.1987 83.5665C71.1479 83.6378 71.1275 83.7263 71.142 83.8126Z" fill="#00143B"/>
<path d="M64.4814 82.8388C64.4394 82.8284 64.3959 82.8263 64.3532 82.8328C64.3105 82.8392 64.2694 82.854 64.2324 82.8763C64.1954 82.8985 64.1632 82.9279 64.1375 82.9627C64.1119 82.9974 64.0933 83.0369 64.083 83.0788L63.7686 84.3664C63.7509 84.4502 63.7666 84.5377 63.8122 84.6102C63.8578 84.6827 63.9299 84.7346 64.0131 84.7549C64.0964 84.7753 64.1842 84.7624 64.2582 84.7192C64.3321 84.6759 64.3863 84.6055 64.4094 84.523L64.7238 83.236C64.7442 83.1512 64.7301 83.0617 64.6847 82.9873C64.6392 82.9128 64.5661 82.8594 64.4814 82.8388Z" fill="#00143B"/>
<path d="M66.9312 84.6234C66.9662 84.5981 66.996 84.566 67.0186 84.5292C67.0413 84.4923 67.0565 84.4513 67.0634 84.4086C67.0702 84.3659 67.0686 84.3222 67.0586 84.2801C67.0486 84.238 67.0303 84.1983 67.005 84.1632C66.9796 84.1282 66.9476 84.0984 66.9107 84.0758C66.8739 84.0531 66.8329 84.0379 66.7901 84.031C66.7474 84.0242 66.7038 84.0258 66.6616 84.0358C66.6195 84.0458 66.5798 84.0641 66.5448 84.0894L65.3028 84.9894C65.2451 85.0299 65.202 85.0878 65.1796 85.1546C65.1572 85.2214 65.1568 85.2935 65.1784 85.3606C65.1999 85.4276 65.2424 85.486 65.2996 85.5272C65.3567 85.5684 65.4255 85.5902 65.496 85.5894C65.64 85.5846 65.5854 85.596 66.9312 84.6234Z" fill="#00143B"/>
<path d="M69.3834 84.7769L68.0664 86.2169C68.0072 86.2814 67.976 86.3668 67.9798 86.4543C67.9836 86.5418 68.0219 86.6242 68.0865 86.6834C68.151 86.7426 68.2364 86.7737 68.3239 86.77C68.4114 86.7662 68.4938 86.7278 68.553 86.6633L69.873 85.2233C69.9322 85.1588 69.9633 85.0734 69.9595 84.9859C69.9558 84.8984 69.9174 84.816 69.8529 84.7568C69.7883 84.6976 69.7029 84.6665 69.6155 84.6702C69.528 84.674 69.4456 84.7124 69.3864 84.7769H69.3834Z" fill="#00143B"/>
<path d="M66.72 82.4237C67.2394 82.6419 67.7755 82.8179 68.3232 82.9499C68.4011 82.9494 68.4763 82.9214 68.5356 82.8708C68.5948 82.8203 68.6343 82.7503 68.6469 82.6734C68.6596 82.5966 68.6446 82.5177 68.6047 82.4508C68.5648 82.3839 68.5024 82.3333 68.4288 82.3079L66.9324 81.7991C66.891 81.7837 66.847 81.7767 66.8029 81.7786C66.7588 81.7805 66.7155 81.7913 66.6757 81.8102C66.6358 81.8291 66.6001 81.8559 66.5708 81.8888C66.5414 81.9218 66.519 81.9603 66.5048 82.0021C66.4905 82.0439 66.4849 82.0881 66.488 82.1321C66.4912 82.1761 66.5032 82.2191 66.5233 82.2584C66.5433 82.2977 66.5711 82.3326 66.6049 82.361C66.6387 82.3894 66.6778 82.4107 66.72 82.4237Z" fill="#00143B"/>
<path d="M65.4899 90.6431C65.4149 90.6431 65.3416 90.6653 65.2792 90.707C65.2169 90.7486 65.1683 90.8079 65.1396 90.8771C65.1109 90.9464 65.1034 91.0227 65.118 91.0962C65.1326 91.1698 65.1688 91.2374 65.2218 91.2904C65.2748 91.3434 65.3424 91.3795 65.4159 91.3942C65.4895 91.4088 65.5657 91.4013 65.635 91.3726C65.7043 91.3439 65.7635 91.2953 65.8052 91.2329C65.8469 91.1706 65.8691 91.0973 65.8691 91.0223C65.8691 90.9725 65.8593 90.9232 65.8403 90.8771C65.8212 90.8311 65.7933 90.7893 65.7581 90.7541C65.7228 90.7189 65.681 90.691 65.635 90.6719C65.589 90.6529 65.5397 90.6431 65.4899 90.6431Z" fill="#00143B"/>
<path d="M58.7183 88.896C58.6433 88.896 58.57 88.9182 58.5076 88.9599C58.4453 89.0016 58.3967 89.0608 58.368 89.1301C58.3393 89.1994 58.3318 89.2756 58.3464 89.3492C58.361 89.4227 58.3971 89.4903 58.4502 89.5433C58.5032 89.5964 58.5708 89.6325 58.6443 89.6471C58.7179 89.6617 58.7941 89.6542 58.8634 89.6255C58.9327 89.5968 58.9919 89.5482 59.0336 89.4859C59.0753 89.4235 59.0975 89.3502 59.0975 89.2752C59.0975 89.1746 59.0576 89.0782 58.9864 89.0071C58.9153 88.9359 58.8189 88.896 58.7183 88.896Z" fill="#00143B"/>
<path d="M60.936 86.76C60.861 86.76 60.7876 86.7822 60.7253 86.8239C60.6629 86.8656 60.6143 86.9248 60.5856 86.9941C60.5569 87.0634 60.5494 87.1396 60.5641 87.2132C60.5787 87.2867 60.6148 87.3543 60.6678 87.4073C60.7209 87.4604 60.7884 87.4965 60.862 87.5111C60.9355 87.5257 61.0118 87.5182 61.0811 87.4895C61.1504 87.4608 61.2096 87.4122 61.2513 87.3499C61.2929 87.2875 61.3152 87.2142 61.3152 87.1392C61.3152 87.0386 61.2752 86.9422 61.2041 86.8711C61.133 86.8 61.0365 86.76 60.936 86.76Z" fill="#00143B"/>
</svg>
