<svg width="120" height="120" viewBox="0 0 120 120" fill="none" xmlns="http://www.w3.org/2000/svg">
<path d="M32.58 113.176H91.4592C92.1183 113.174 92.7496 112.911 93.2156 112.445C93.6816 111.979 93.9445 111.348 93.9468 110.689V103.636C93.9445 102.977 93.6816 102.346 93.2156 101.88C92.7496 101.414 92.1183 101.151 91.4592 101.149H32.58C31.921 101.151 31.2896 101.414 30.8236 101.88C30.3576 102.346 30.0948 102.977 30.0924 103.636V110.689C30.0913 111.016 30.1549 111.34 30.2795 111.642C30.4041 111.944 30.5873 112.219 30.8185 112.45C31.0498 112.681 31.3244 112.865 31.6267 112.989C31.9291 113.114 32.253 113.177 32.58 113.176Z" fill="#57c2b4"/>
<path d="M63.1656 35.8201C62.8674 35.7602 62.5595 35.7697 62.2656 35.8477C62.2121 35.8636 62.1645 35.8951 62.1288 35.938C62.0931 35.9809 62.071 36.0335 62.0651 36.089C62.0593 36.1445 62.07 36.2005 62.096 36.2499C62.1219 36.2994 62.162 36.34 62.211 36.3667C62.7947 36.5485 63.4138 36.5859 64.0152 36.4759C64.2882 36.4489 64.425 36.0115 64.0968 35.9293C63.7674 35.8735 63.4668 35.8465 63.1656 35.8201Z" fill="#001A4A"/>
<path d="M61.4166 34.9199C61.6647 34.5125 62.0287 34.1883 62.4619 33.9887C62.8952 33.789 63.3781 33.723 63.849 33.7991C64.068 33.8273 64.1754 33.4487 63.9588 33.3617C63.6722 33.2477 63.3655 33.1927 63.0571 33.2001C62.7487 33.2075 62.445 33.2771 62.1641 33.4048C61.8833 33.5324 61.6312 33.7154 61.4228 33.9429C61.2144 34.1704 61.0542 34.4376 60.9516 34.7285C60.8742 34.9997 61.2756 35.1329 61.4166 34.9199Z" fill="#001A4A"/>
<path d="M63.9312 40.9032C62.6424 40.9032 62.2152 39.9768 61.608 39.6732C61.5623 39.6467 61.5091 39.636 61.4566 39.6429C61.4042 39.6497 61.3555 39.6737 61.3181 39.711C61.2807 39.7484 61.2567 39.797 61.2498 39.8494C61.2428 39.9018 61.2534 39.955 61.2798 40.0008C61.5789 40.4304 61.981 40.778 62.4492 41.012C62.9175 41.2459 63.4369 41.3587 63.96 41.34C64.0146 41.3319 64.0641 41.3036 64.0987 41.2607C64.1333 41.2177 64.1505 41.1634 64.1469 41.1083C64.1433 41.0533 64.1191 41.0016 64.0791 40.9636C64.0392 40.9256 63.9863 40.9041 63.9312 40.9032Z" fill="#001A4A"/>
<path d="M37.3891 67.1718C37.5211 67.4202 37.8841 67.1976 37.7719 66.9528C36.9433 65.1402 34.5727 65.0112 33.1249 66.2148C30.8275 68.1264 30.9991 71.6796 31.9771 74.2242C32.593 75.7145 33.4117 77.1127 34.4101 78.3792C35.1715 79.3932 35.9701 80.6946 37.1977 81.222C37.6003 81.4117 38.0527 81.469 38.4898 81.3854C38.927 81.3019 39.3264 81.0818 39.6307 80.757C40.5775 79.7904 40.5307 78.4062 40.4233 77.1486C40.42 77.0783 40.3897 77.012 40.3388 76.9634C40.2879 76.9149 40.2203 76.8878 40.15 76.8878C40.0796 76.8878 40.012 76.9149 39.9611 76.9634C39.9102 77.012 39.88 77.0783 39.8767 77.1486C39.8767 78.1332 39.9001 79.5222 39.0841 80.2086C37.7641 81.321 36.6241 79.935 35.9131 79.0602C34.6463 77.5908 33.5885 75.9535 32.7697 74.1948C31.9735 72.3378 31.6255 70.167 32.4145 68.2632C33.2113 66.342 36.0553 64.6554 37.3891 67.1718Z" fill="#001A4A"/>
<path d="M29.9544 68.8393C30.2274 68.8081 30.2544 68.3743 29.9544 68.3743C25.6902 68.6203 27.4998 75.2605 28.4784 77.5861C29.2476 79.4161 30.4746 81.6571 32.223 82.7527C33.399 83.4895 35.202 83.5597 35.886 82.1239C36.0174 81.8479 35.6652 81.4933 35.421 81.7687C32.967 84.5377 30.0372 79.3897 29.1612 77.4487C28.26 75.4537 26.2584 69.2569 29.9544 68.8393Z" fill="#001A4A"/>
<path d="M19.8949 75.8639C19.2328 77.0944 18.9257 78.4847 19.0078 79.8796C19.0899 81.2745 19.558 82.6192 20.3598 83.7635C21.663 85.5743 24.444 87.5369 26.7558 86.5793C26.8359 86.5547 26.9034 86.5001 26.9443 86.4269C26.9851 86.3537 26.9961 86.2676 26.975 86.1865C26.9538 86.1054 26.9022 86.0356 26.8309 85.9916C26.7595 85.9477 26.674 85.9329 26.5921 85.9505C21.3355 86.8841 18.48 80.4131 20.3052 76.1105C20.4198 75.8399 20.0323 75.5909 19.8949 75.8639Z" fill="#001A4A"/>
<path d="M18.8016 74.6071C19.3084 74.742 19.8399 74.7554 20.3529 74.6461C20.8659 74.5368 21.3458 74.308 21.7536 73.9783C21.5452 75.5245 21.8122 77.0976 22.5192 78.4885C23.6501 80.5258 25.1629 82.3262 26.9748 83.7913C28.1814 84.7981 29.8116 85.5625 31.0476 84.2011C31.1092 84.1395 31.1438 84.056 31.1438 83.9689C31.1438 83.8818 31.1092 83.7983 31.0476 83.7367C30.986 83.6751 30.9025 83.6405 30.8154 83.6405C30.7283 83.6405 30.6448 83.6751 30.5832 83.7367C28.2432 85.6633 24.351 80.2375 23.3394 78.5431C22.08 76.4401 21.2076 71.9869 24.84 71.6275C25.1136 71.6005 25.1136 71.1841 24.84 71.1901C24.3165 71.1733 23.7983 71.2992 23.3409 71.5544C22.8834 71.8095 22.504 72.1843 22.2432 72.6385C21.9979 70.7342 22.0811 68.802 22.4892 66.9259C23.3243 66.277 24.201 65.6836 25.1136 65.1493C29.1012 62.7385 33.3414 62.4703 37.7424 63.8893H37.8C37.8877 64.4285 38.0729 64.9471 38.3466 65.4199C38.3725 65.4618 38.4087 65.4964 38.4518 65.5204C38.4948 65.5443 38.5433 65.5568 38.5926 65.5567C41.0972 65.6784 43.4948 66.6087 45.426 68.2081C45.4259 68.2418 45.4334 68.2751 45.4479 68.3054C45.4624 68.3358 45.4837 68.3626 45.51 68.3836C45.5363 68.4047 45.567 68.4195 45.5998 68.427C45.6327 68.4346 45.6668 68.4346 45.6996 68.4271C47.6814 69.9947 49.2253 72.047 50.1822 74.3857C50.7201 75.604 50.9095 76.9476 50.7294 78.2671C50.4294 79.6615 49.473 78.9757 48.6792 78.4585C47.2878 77.5525 46.0488 76.4185 44.6334 75.5611C44.2764 75.3451 43.9458 75.8953 44.3058 76.1353C46.9116 77.8717 48.6108 79.7239 50.0184 79.8799C52.3134 80.1343 51.3828 75.8077 51.0024 74.6863C50.0454 72.0097 48.2899 69.6913 45.9732 68.0443C45.9168 65.2447 45.3948 63.8005 46.1916 59.8165C48.105 60.0349 50.0916 59.8069 51.3576 58.9417C54.186 57.0067 56.3052 54.6217 56.9616 49.9759C57.7147 50.7061 58.6649 51.2002 59.6952 51.3973C59.5308 58.7773 59.4792 66.1615 59.0118 73.5109C58.9872 73.8937 59.5608 73.8667 59.5854 73.5109C60.0996 66.1909 60.3786 58.7779 60.1596 51.4519C61.2117 51.6402 62.2963 51.5029 63.2683 51.0584C64.2403 50.6139 65.0535 49.8833 65.5992 48.9643C65.6368 48.9983 65.6853 49.0176 65.736 49.0189C70.2357 49.0181 74.682 49.993 78.7685 51.8764C82.8551 53.7597 86.4847 56.5067 89.4072 59.9281C91.1375 62.1184 92.4446 64.612 93.2616 67.2811C93.9882 69.4717 94.8738 72.8575 93.1518 74.7163C93.351 71.1331 91.062 68.6743 88.095 66.6799C85.6284 65.0215 83.3388 63.9661 80.3592 63.9199C78.2559 63.8949 76.1563 64.1058 74.1 64.5487C74.0754 63.5254 73.7831 62.5264 73.2522 61.6513C73.2216 61.6037 73.1739 61.5696 73.1189 61.5561C73.064 61.5427 73.0059 61.5509 72.9568 61.579C72.9077 61.6071 72.8712 61.653 72.8549 61.7072C72.8387 61.7614 72.8439 61.8198 72.8694 61.8703C73.422 62.8783 74.0694 64.5733 73.4436 65.6971C72.975 66.5419 71.94 66.2419 71.1204 66.4351C70.5453 66.5766 69.9865 66.7777 69.453 67.0351C69.8257 64.5383 69.7701 61.9963 69.2886 59.5183C69.2376 59.2711 68.8236 59.3269 68.8512 59.5729C69.1919 62.1695 69.1644 64.8013 68.7696 67.3903C68.1749 67.7411 67.6001 68.1245 67.0476 68.5387C64.5036 70.4497 62.3814 72.6415 61.3074 75.7003C60.846 77.0137 60.2364 79.3387 61.0884 80.5933C62.5026 82.6753 66.3402 79.0117 67.3752 78.0781C67.6752 77.8063 67.9752 77.5333 68.2752 77.2855C68.604 77.0137 68.1408 76.5511 67.8102 76.8211C66.8616 77.5957 65.8704 78.4075 64.8306 79.1173C64.2306 79.5277 62.487 80.9965 61.7706 80.2651C61.4775 79.8212 61.3426 79.2915 61.3878 78.7615C61.2378 75.0463 64.0224 71.7769 66.7452 69.5773C68.3466 68.2837 70.0152 67.1611 72.0486 66.8983C72.846 66.7957 73.8594 67.5355 73.989 65.0671C80.3136 63.9019 84.1998 63.9973 88.9962 68.1829C89.3911 70.0331 89.4743 71.9363 89.2422 73.8139C88.9614 73.3967 88.5832 73.0542 88.1402 72.8162C87.6972 72.5781 87.2029 72.4516 86.7 72.4477C86.4258 72.4249 86.427 72.8545 86.7 72.8845C92.9676 73.5811 86.499 86.6335 81.0144 84.8845C80.9389 84.8682 80.86 84.8791 80.7916 84.9151C80.7232 84.9511 80.6697 85.0101 80.6404 85.0816C80.6111 85.1531 80.6078 85.2326 80.6312 85.3063C80.6546 85.3799 80.7032 85.443 80.7684 85.4845C83.9202 87.0805 87.0966 83.2243 88.5588 80.8921C89.4972 79.3921 90.2262 76.6825 89.6796 74.7415C89.7066 74.7145 89.7066 74.6599 89.7342 74.6323C89.652 74.7967 91.047 75.7507 91.2102 75.8323C92.394 76.4443 93.5436 75.5101 94.1346 74.5471C95.8026 71.8321 94.1136 67.2793 92.7684 64.4071C95.3922 61.7827 96.7014 60.2161 101.789 54.8125C102.584 53.9677 103.589 53.1991 104.057 52.1065C104.385 51.1296 104.46 50.0859 104.276 49.0723C104.114 47.5249 104.167 47.1373 102.854 16.9813C102.794 15.6145 103.126 13.7305 101.87 12.7987C100.457 11.8899 98.9436 11.147 97.3602 10.5847C95.3645 9.75547 93.3085 9.07932 91.2102 8.56208C77.3124 5.09708 68.4894 6.98647 59.9664 11.9821C59.3112 12.3655 58.3722 12.7147 57.9708 13.4035C57.6078 14.0275 57.7836 15.4537 57.7248 16.1917C57.597 17.8051 57.4728 19.3915 57.315 21.0025C57.267 21.4951 57.18 25.3525 56.9598 25.4305C56.3892 25.6327 55.809 25.8355 55.2102 26.1139C54.0631 26.5943 53.0489 27.3447 52.2542 28.3013C51.4594 29.2579 50.9075 30.3923 50.6454 31.6081C50.3712 33.0295 50.4276 34.3963 49.9344 35.7901C49.4683 37.0909 48.7534 38.2886 47.8296 39.3163C44.7456 42.7651 36.4008 43.7593 35.502 47.9563C35.4148 48.3139 35.3963 48.6849 35.4474 49.0495C26.3724 52.0837 18.4824 58.8373 16.6956 68.5393C16.3516 70.0689 16.4657 71.666 17.0238 73.1311C17.4422 73.8015 18.0657 74.3191 18.8016 74.6071ZM63.1656 50.4703C61.4028 51.2023 58.434 50.8405 57.0456 49.0213C57.3552 45.0013 57.063 42.3169 57.5652 39.2905C58.0548 36.3379 59.0958 33.7963 58.9044 30.7105C58.9044 30.7105 62.0208 34.0453 67.1052 32.0773C67.4954 33.2341 67.7253 34.4389 67.7886 35.6581C67.18 35.0896 66.5213 34.5771 65.8206 34.1269C65.7731 34.1013 65.7181 34.0935 65.6653 34.1048C65.6126 34.1161 65.5655 34.1458 65.5327 34.1885C65.4998 34.2313 65.4832 34.2844 65.4858 34.3382C65.4884 34.3921 65.5101 34.4433 65.547 34.4827C66.4806 35.2861 67.366 36.144 68.1984 37.0519C68.601 38.0047 67.434 37.9087 66.5034 38.3911C66.2868 38.5039 66.3672 38.9143 66.6402 38.8831C66.8592 38.8585 67.1598 38.8015 67.4604 38.7469C66.2346 42.7741 62.3088 44.3635 59.0958 42.5461C58.851 42.4075 58.5792 42.7615 58.7958 42.9289C59.3876 43.3927 60.0725 43.7232 60.8038 43.8978C61.5352 44.0724 62.2956 44.087 63.033 43.9405C63.033 44.4871 62.9652 45.0601 62.9232 45.6079C62.8836 46.1263 62.6232 46.9195 62.814 47.3845V47.4121C62.8408 47.4725 62.8777 47.5279 62.9232 47.5759C63.6411 48.0212 64.3903 48.414 65.1648 48.7513C64.6452 49.4756 63.9597 50.0651 63.1656 50.4703ZM78.1182 50.8531C75.1174 49.7229 71.9851 48.9789 68.7966 48.6391C68.2176 48.5518 67.6331 48.5061 67.0476 48.5023C66.6461 48.5554 66.2381 48.5275 65.8476 48.4201C65.4781 48.2462 65.1218 48.0457 64.7814 47.8201C64.3277 47.5871 63.8625 47.3772 63.3876 47.1913C63.4786 46.7417 63.5063 46.2817 63.4698 45.8245C63.4856 45.168 63.4672 44.5111 63.4146 43.8565C66.0168 43.1467 67.6956 41.0767 68.2806 38.4445C69.1338 37.9927 69.3606 37.2001 68.4444 36.2845C68.3805 34.7938 68.0663 33.3245 67.515 31.9381C68.2793 31.6048 69.0113 31.2021 69.702 30.7351C69.702 30.7351 66.996 25.7605 61.8024 24.9949C61.8294 24.1201 61.9386 20.5123 61.9386 19.5829C61.9386 19.0363 61.7526 18.1363 61.9662 17.6419C62.19 17.1247 62.8662 16.8169 63.36 16.4941C67.8396 13.5757 73.119 12.9109 78.3672 12.9403C85.6752 12.9817 92.0568 14.4733 96.0252 16.1113C96.897 16.395 97.725 16.7989 98.4852 17.3113C99.2484 17.9431 99.012 19.6345 99.0594 20.5915C99.1896 23.2423 99.2178 25.9219 99.2508 28.5715C99.5466 52.6315 99.5682 44.5615 99.6606 48.5515C99.6978 50.1643 98.6196 50.9821 97.5834 52.1323C95.1996 54.7789 92.6634 57.3259 90.3666 60.0319C87.2266 55.8837 82.9827 52.7028 78.12 50.8531H78.1182ZM58.683 15.6733C58.7718 14.4439 58.71 13.8133 59.7762 13.1035C68.5176 7.27628 77.9094 6.57008 88.314 8.53868C92.0476 9.22947 95.6772 10.3962 99.114 12.0103C99.987 12.4243 101.795 13.0207 102.148 14.0059C102.451 14.8525 102.281 16.0831 102.312 16.9855C102.385 19.0903 103.282 40.1929 103.679 48.6391C103.732 49.7599 104.011 51.1831 103.433 52.1923C102.922 52.9012 102.335 53.5521 101.683 54.1333C100.637 55.2469 94.6032 61.7323 92.6628 63.9187C92.1063 62.7111 91.4384 61.5582 90.6678 60.4747C93.0186 57.9601 95.3304 55.4071 97.665 52.8757C98.507 52.0989 99.2674 51.238 99.9342 50.3065C100.457 49.4065 100.204 48.2293 100.153 47.2177C99.7704 39.6127 100.052 31.9627 99.6336 20.7301C99.5964 19.7467 99.8412 17.9509 99.1686 17.1217C98.6362 16.6402 98.0139 16.2687 97.3374 16.0285C94.0764 14.4529 88.0788 12.7501 80.7996 12.3385C74.9502 12.0079 68.9154 12.4039 63.6882 15.3451C63.0054 15.7291 61.4082 16.4323 61.0638 17.1769C60.8646 17.6107 61.0818 18.4069 61.0914 18.8989C61.1322 21.0169 61.0476 21.8353 60.9822 24.9121C59.9544 24.8597 58.9244 24.9518 57.9222 25.1857C58.1364 21.9877 58.455 18.8179 58.683 15.6733ZM18.2274 65.9689C19.1213 63.1496 20.5713 60.5382 22.4916 58.2889C26.0964 54.2753 30.6844 51.2699 35.8038 49.5685C37.0038 51.8095 42.2532 51.5359 40.9152 56.5933C40.5324 58.0417 42.9108 59.2993 45.6444 59.7097C45.0387 62.2899 44.9368 64.9628 45.3444 67.5817C43.9799 66.5981 42.4657 65.8412 40.86 65.3401C40.233 65.1703 39.0558 65.2585 38.5914 64.7935C37.5528 63.7549 38.4 61.8961 39.2202 61.0735C39.4116 60.8827 39.1122 60.5833 38.9202 60.7735C38.5531 61.104 38.2607 61.5091 38.0627 61.9617C37.8647 62.4143 37.7655 62.9039 37.7718 63.3979C31.605 61.1389 26.511 62.6725 21.672 66.7579C19.7304 68.3977 18.1182 70.8037 18.3918 73.4827C16.56 71.6275 17.472 68.2045 18.2274 65.9689Z" fill="#001A4A"/>
<path d="M101.653 54.1056C102.3 53.519 102.886 52.869 103.403 52.1652C103.996 51.1218 103.699 49.7322 103.649 48.6114C103.265 40.1664 102.356 19.0914 102.282 16.9578C102.251 16.083 102.421 14.8248 102.118 13.9782C101.765 12.9936 99.9577 12.3954 99.0835 11.9832C95.6452 10.3728 92.0161 9.20619 88.2835 8.51161C77.9449 6.54781 68.6635 7.13161 59.7463 13.0764C58.6801 13.7868 58.7401 14.4432 58.6525 15.6456C58.4215 18.8178 58.1059 21.96 57.8875 25.131C58.8853 24.8713 59.9193 24.7788 60.9475 24.8574C61.0327 20.8614 61.0567 22.7436 61.0567 18.8442C61.0567 18.3522 60.8317 17.5842 61.0297 17.1216C61.3477 16.3794 62.9719 15.6756 63.6535 15.2904C68.8567 12.3552 74.9148 11.9718 80.7654 12.2838C87.8022 12.6588 93.8311 14.319 97.3027 15.9738C97.9817 16.2085 98.605 16.5807 99.1339 17.067C99.7873 17.8896 99.5539 19.7184 99.5989 20.6754C99.7369 23.5992 100.282 48.9954 100.282 48.9954L100.228 49.1046C100.215 49.5136 100.112 49.9148 99.9277 50.28C99.3931 51.2436 98.3731 52.0602 97.6585 52.8498C95.3473 55.4026 93.0149 57.9356 90.6613 60.4488C91.4309 61.5329 92.0987 62.6858 92.6563 63.8928C95.2801 60.9 98.1372 57.936 101.653 54.1056Z" fill="#57c2b4"/>
<path d="M116.906 97.0489C114.16 93.8299 111.485 90.5221 108.787 87.2629C107.636 85.8715 106.516 84.0673 105.152 82.8895C104.33 82.1803 102.364 82.6159 101.325 82.6159C98.9472 82.6159 96.5964 82.6567 94.218 82.6705C94.1458 82.6762 94.0784 82.7089 94.0292 82.7621C93.9801 82.8153 93.9528 82.8851 93.9528 82.9576C93.9528 83.03 93.9801 83.0998 94.0292 83.153C94.0784 83.2062 94.1458 83.2389 94.218 83.2447C105.318 83.4007 103.891 83.2345 104.605 83.2993C105.781 84.4993 106.799 85.9441 107.885 87.2353C109.647 89.3299 114.965 95.7913 115.894 96.9121C79.1142 95.7055 38.9292 98.1769 4.041 96.8845C9.441 89.5255 14.1612 83.3539 14.1 83.3539C14.7432 83.2665 15.3939 83.2482 16.041 83.2993C16.641 83.2687 17.241 83.2477 17.8452 83.2171C18.3372 83.1925 18.3372 82.4557 17.8452 82.4791C17.1618 82.5121 16.4508 82.5289 15.7674 82.5613C15.165 82.5093 14.5584 82.5369 13.9632 82.6435C12.9876 83.0203 12.0762 84.7741 11.4762 85.5679C8.6274 89.3359 5.7648 93.1375 3.06 97.0201C3.02723 97.0741 3.00926 97.1358 3.0079 97.199C3.00653 97.2621 3.02182 97.3246 3.05222 97.38C3.08262 97.4353 3.12707 97.4818 3.1811 97.5145C3.23512 97.5473 3.29683 97.5653 3.36 97.5667C41.1 98.1799 97.6038 96.4867 116.662 97.6213C116.729 97.6228 116.795 97.6043 116.851 97.568C116.908 97.5317 116.952 97.4793 116.978 97.4177C117.004 97.356 117.011 97.2879 116.999 97.2222C116.986 97.1564 116.953 97.096 116.906 97.0489Z" fill="#001A4A"/>
<path d="M38.7 83.2201C44.715 83.2885 50.7546 83.3023 56.7684 83.3023C61.47 83.3023 66.2046 83.5153 70.9002 83.1931C71.2002 83.1721 71.2002 82.7011 70.9002 82.7281C60.1602 83.0017 49.4154 82.3183 38.673 82.7011C38.346 82.6705 38.346 83.2135 38.7 83.2201Z" fill="#001A4A"/>
<path d="M93.0426 85.4863C92.8482 85.2703 92.5272 85.5918 92.7144 85.8138C93.5502 86.8052 94.4354 87.754 95.3664 88.6567L83.1749 88.8211C82.1634 87.7273 81.171 86.6143 80.1678 85.4863C79.9752 85.2691 79.6733 85.5972 79.8401 85.8138C80.6471 86.8626 81.5346 87.8371 82.3823 88.8481L75.1656 88.9302C74.346 87.7818 73.5071 86.6742 72.7056 85.5102C72.5376 85.2672 72.159 85.4833 72.3228 85.7293C72.9227 86.8225 73.6073 87.8611 74.3183 88.9273C71.7215 88.9543 64.7513 89.0094 63.8783 89.0094C63.5172 87.8317 63.0966 86.6731 62.6183 85.5379C62.5891 85.4862 62.5417 85.4472 62.4854 85.4285C62.429 85.4097 62.3677 85.4125 62.3134 85.4363C62.259 85.4601 62.2153 85.5033 62.1909 85.5574C62.1664 85.6115 62.1629 85.6727 62.181 85.7293C62.5877 86.8141 62.8919 87.9156 63.2472 89.0094C60.7326 89.0364 58.1903 89.0365 55.6757 89.0641C55.6481 87.9979 55.6073 86.9322 55.5935 85.893C55.5891 85.8272 55.5598 85.7655 55.5115 85.7204C55.4633 85.6754 55.3998 85.6503 55.3337 85.6503C55.2677 85.6503 55.2042 85.6754 55.156 85.7204C55.1077 85.7655 55.0784 85.8272 55.0739 85.893C55.0602 86.9592 55.0739 88.0248 55.1015 89.091L44.8511 89.1732C45.3431 88.0248 45.7938 86.871 46.2725 85.7532C46.3787 85.506 45.9479 85.3176 45.8351 85.5618C45.2771 86.7726 44.7143 87.9673 44.1947 89.1703C41.3519 89.1973 38.5091 89.1972 35.6663 89.2248C36.3773 88.0494 37.0943 86.9059 37.8533 85.7809C38.0183 85.5355 37.6397 85.3194 37.4705 85.5618C36.6203 86.7822 35.7755 87.9673 35.0105 89.2219C32.7143 89.2219 30.3905 89.2495 28.0949 89.2765C28.7963 88.246 29.4089 87.1579 29.9261 86.0239C30.0389 85.7515 29.6783 85.503 29.5163 85.7778C28.8245 86.9484 28.1219 88.1011 27.3839 89.2765C27.3023 89.2765 19.5665 89.331 15.7943 89.304C16.5593 88.2102 17.3627 87.1519 18.1451 86.0785C18.4217 85.6981 17.7941 85.3434 17.5163 85.7232C15.7403 88.149 14.0165 90.5928 12.4865 93.1578C12.4563 93.2105 12.4404 93.2702 12.4404 93.331C12.4405 93.3918 12.4565 93.4514 12.4869 93.5041C12.5173 93.5567 12.5609 93.6004 12.6135 93.6308C12.6661 93.6613 12.7258 93.6773 12.7865 93.6774C27.8465 93.744 48.2118 93.5346 107.119 93.6498C107.178 93.6476 107.235 93.6286 107.284 93.595C107.332 93.5614 107.37 93.5146 107.393 93.4601C107.416 93.4056 107.423 93.3457 107.413 93.2873C107.404 93.229 107.377 93.1747 107.338 93.1309C105.087 90.4873 102.472 88.1832 100.039 85.7508C99.8202 85.5324 99.5196 85.86 99.711 86.079C100.477 86.9538 101.297 87.7735 102.116 88.5937C100.148 88.6213 98.1528 88.6758 96.1848 88.7028C95.0928 87.618 94.0386 86.5933 93.0426 85.4863ZM95.8584 89.1216C97.1976 90.4338 98.6184 91.6639 99.9858 92.9485C95.6394 92.9209 91.2659 92.9208 86.9195 92.8938C86.9195 92.682 87.0468 92.9539 83.6394 89.2855C84.5574 89.3773 94.92 89.142 95.8584 89.1216ZM82.8467 89.34C83.9129 90.54 85.0338 91.7454 86.1545 92.9208H77.8446C77.1335 91.7454 76.341 90.5701 75.5484 89.4223L82.8467 89.34ZM63.4392 89.559C63.7943 90.6798 64.1771 91.8 64.5869 92.8938H55.8671C55.7855 91.8 55.7309 90.7069 55.6763 89.6137C58.2731 89.6137 60.8699 89.586 63.4392 89.559ZM55.1292 89.6406C55.1567 90.7344 55.2389 91.8276 55.3205 92.9208C51.2477 92.9208 47.1749 92.9209 43.1297 92.9485C43.6488 91.9099 44.1407 90.8436 44.6327 89.7504C48.1043 89.7228 51.603 89.6952 55.1292 89.64V89.6406ZM32.9609 92.9485H25.7999C26.4833 91.9645 27.0599 90.8982 27.6857 89.8884C30.0095 89.8614 32.3327 89.8615 34.6289 89.8339C34.0185 90.842 33.4618 91.8816 32.9609 92.9485ZM13.4165 92.9485C14.0165 91.9099 14.6765 90.8982 15.3575 89.9142C19.2389 89.9412 23.0933 89.9412 26.9747 89.9142C26.2775 90.8853 25.6557 91.9083 25.1147 92.9742C24.8153 92.9755 17.0249 92.9755 13.4165 92.9485ZM33.5621 92.9485C34.1087 91.8823 34.7105 90.8436 35.2841 89.8321C37.7717 89.8051 43.5395 89.7774 43.9241 89.7774C43.4593 90.8438 42.9673 91.9098 42.4481 92.9754C39.4937 92.9484 36.5147 92.9485 33.5621 92.9485ZM65.1341 92.8117C64.7513 91.7455 64.3961 90.6516 64.0679 89.586C67.6211 89.559 71.1479 89.5044 74.7011 89.4492C75.4937 90.6247 76.341 91.773 77.1336 92.9208C63.8231 92.9208 65.2931 92.9707 65.1341 92.8117ZM102.5 88.9302C103.84 90.2694 105.179 91.5817 106.436 93.0031C99.1272 92.8957 101.267 93.0972 100.751 92.8392C99.4116 91.5792 98.0448 90.3792 96.678 89.1192C102.71 88.9464 102.408 89.0226 102.5 88.9302Z" fill="#001A4A"/>
<path d="M86.2092 106.916C86.1193 106.572 85.9175 106.266 85.6355 106.049C85.3536 105.831 85.0073 105.713 84.651 105.713C84.2947 105.713 83.9485 105.831 83.6665 106.049C83.3846 106.266 83.1828 106.572 83.0928 106.916C83.0946 106.931 83.0931 106.946 83.0883 106.961C83.0835 106.975 83.0757 106.988 83.0652 106.999C82.9987 107.242 82.9894 107.498 83.0378 107.746C83.0863 107.994 83.1913 108.228 83.3447 108.428C83.4981 108.629 83.6957 108.792 83.9222 108.904C84.1487 109.016 84.398 109.074 84.6507 109.074C84.9034 109.074 85.1527 109.016 85.3792 108.904C85.6057 108.792 85.8034 108.629 85.9567 108.428C86.1101 108.228 86.2151 107.994 86.2636 107.746C86.3121 107.498 86.3027 107.242 86.2362 106.999C86.226 106.988 86.2182 106.975 86.2136 106.96C86.2089 106.946 86.2074 106.931 86.2092 106.916Z" fill="#001A4A"/>
<path d="M77.3526 106.916C77.2626 106.572 77.0609 106.266 76.7789 106.049C76.4969 105.831 76.1507 105.713 75.7944 105.713C75.4381 105.713 75.0919 105.831 74.8099 106.049C74.5279 106.266 74.3262 106.572 74.2362 106.916C74.238 106.931 74.2365 106.946 74.2318 106.96C74.2272 106.975 74.2194 106.988 74.2092 106.999C74.1425 107.242 74.133 107.498 74.1814 107.746C74.2297 107.995 74.3347 108.228 74.488 108.429C74.6414 108.63 74.8391 108.793 75.0657 108.905C75.2922 109.017 75.5416 109.075 75.7944 109.075C76.0472 109.075 76.2966 109.017 76.5231 108.905C76.7497 108.793 76.9474 108.63 77.1008 108.429C77.2541 108.228 77.3591 107.995 77.4074 107.746C77.4558 107.498 77.4463 107.242 77.3796 106.999C77.3815 106.984 77.38 106.969 77.3754 106.954C77.3707 106.94 77.3629 106.927 77.3526 106.916Z" fill="#001A4A"/>
<path d="M68.5236 106.916C68.4336 106.572 68.2319 106.266 67.9499 106.049C67.6679 105.831 67.3217 105.713 66.9654 105.713C66.6091 105.713 66.2629 105.831 65.9809 106.049C65.699 106.266 65.4972 106.572 65.4072 106.916C65.409 106.931 65.4075 106.946 65.4029 106.96C65.3982 106.975 65.3905 106.988 65.3802 106.999C65.3135 107.242 65.304 107.498 65.3524 107.746C65.4007 107.995 65.5057 108.228 65.6591 108.429C65.8124 108.63 66.0101 108.793 66.2367 108.905C66.4633 109.017 66.7126 109.075 66.9654 109.075C67.2182 109.075 67.4676 109.017 67.6942 108.905C67.9207 108.793 68.1184 108.63 68.2718 108.429C68.4252 108.228 68.5301 107.995 68.5785 107.746C68.6268 107.498 68.6173 107.242 68.5506 106.999C68.5404 106.988 68.5326 106.975 68.528 106.96C68.5233 106.946 68.5218 106.931 68.5236 106.916Z" fill="#001A4A"/>
<path d="M59.667 106.916C59.577 106.572 59.3752 106.266 59.0933 106.049C58.8113 105.831 58.4651 105.713 58.1088 105.713C57.7525 105.713 57.4063 105.831 57.1243 106.049C56.8423 106.266 56.6406 106.572 56.5506 106.916C56.5524 106.931 56.5509 106.946 56.5462 106.96C56.5416 106.975 56.5338 106.988 56.5236 106.999C56.4571 107.242 56.4477 107.498 56.4962 107.746C56.5447 107.994 56.6497 108.228 56.8031 108.428C56.9565 108.629 57.1541 108.792 57.3806 108.904C57.6071 109.016 57.8564 109.074 58.1091 109.074C58.3618 109.074 58.6111 109.016 58.8376 108.904C59.0641 108.792 59.2617 108.629 59.4151 108.428C59.5685 108.228 59.6735 107.994 59.722 107.746C59.7705 107.498 59.7611 107.242 59.6946 106.999C59.6842 106.988 59.6763 106.975 59.6715 106.961C59.6667 106.946 59.6652 106.931 59.667 106.916Z" fill="#001A4A"/>
<path d="M50.8104 106.916C50.7202 106.572 50.5184 106.267 50.2366 106.049C49.9547 105.832 49.6086 105.714 49.2525 105.714C48.8964 105.714 48.5504 105.832 48.2685 106.049C47.9866 106.267 47.7848 106.572 47.6946 106.916C47.6964 106.931 47.6949 106.946 47.6901 106.961C47.6853 106.975 47.6775 106.988 47.667 106.999C47.6005 107.242 47.5912 107.498 47.6397 107.746C47.6881 107.994 47.7931 108.228 47.9465 108.429C48.0999 108.629 48.2975 108.792 48.524 108.904C48.7505 109.016 48.9998 109.074 49.2525 109.074C49.5052 109.074 49.7545 109.016 49.981 108.904C50.2075 108.792 50.4052 108.629 50.5585 108.429C50.7119 108.228 50.8169 107.994 50.8654 107.746C50.9139 107.498 50.9045 107.242 50.838 106.999C50.838 106.971 50.8104 106.943 50.8104 106.916Z" fill="#001A4A"/>
<path d="M41.9815 106.916C41.8913 106.572 41.6895 106.267 41.4076 106.049C41.1257 105.832 40.7796 105.714 40.4235 105.714C40.0675 105.714 39.7214 105.832 39.4395 106.049C39.1576 106.267 38.9558 106.572 38.8657 106.916C38.8675 106.931 38.8659 106.946 38.8611 106.961C38.8564 106.975 38.8485 106.988 38.8381 106.999C38.7716 107.242 38.7622 107.498 38.8107 107.746C38.8591 107.994 38.9642 108.228 39.1175 108.429C39.2709 108.629 39.4686 108.792 39.6951 108.904C39.9216 109.016 40.1709 109.074 40.4235 109.074C40.6762 109.074 40.9255 109.016 41.152 108.904C41.3786 108.792 41.5762 108.629 41.7296 108.429C41.8829 108.228 41.988 107.994 42.0364 107.746C42.0849 107.498 42.0755 107.242 42.0091 106.999C41.9986 106.988 41.9907 106.975 41.986 106.961C41.9812 106.946 41.9796 106.931 41.9815 106.916Z" fill="#001A4A"/>
<path d="M96.24 28.4934C96.4608 28.221 96.072 27.8064 95.8302 28.083C91.9116 32.565 87.924 36.903 83.6388 41.067C80.0556 44.547 79.8588 44.7198 79.3746 44.8938C78.7488 45.12 78.747 44.9748 78.2268 44.5662C76.14 42.9258 72.9342 38.9598 70.2468 36.2016C70.2064 36.1651 70.1535 36.1455 70.099 36.1468C70.0446 36.1482 69.9927 36.1704 69.9542 36.209C69.9157 36.2475 69.8934 36.2994 69.892 36.3538C69.8907 36.4083 69.9103 36.4612 69.9468 36.5016C71.4978 38.3154 73.0866 40.113 74.6754 41.9412C75.9053 43.5074 77.3717 44.8724 79.0218 45.987C79.091 46.026 79.1709 46.0417 79.2497 46.0318C79.3284 46.0218 79.4019 45.9868 79.4592 45.9318C82.083 42.843 85.3638 40.2738 88.206 37.3764C90.993 34.5342 93.72 31.5996 96.24 28.4934Z" fill="#001A4A"/>
<path d="M96.2952 26.2517C95.5806 25.6547 95.1744 25.1585 94.4916 24.6659C94.2598 24.4939 93.9731 24.4129 93.6856 24.4381C93.3981 24.4633 93.1299 24.593 92.9316 24.8027C88.152 29.7827 83.7966 33.7061 79.2366 38.9627C79.1957 39.0141 79.1437 39.0556 79.0845 39.0841C79.0254 39.1126 78.9606 39.1274 78.8949 39.1274C78.8292 39.1274 78.7644 39.1126 78.7052 39.0841C78.6461 39.0556 78.5941 39.0141 78.5532 38.9627L73.305 33.1949C73.2363 33.1056 73.1503 33.031 73.0522 32.9756C72.9541 32.9202 72.8458 32.8851 72.7339 32.8724C72.6219 32.8597 72.5085 32.8696 72.4005 32.9016C72.2924 32.9336 72.1919 32.9871 72.105 33.0587C71.3135 33.6722 70.5646 34.3387 69.8634 35.0537C69.7079 35.2138 69.6188 35.4268 69.6137 35.6499C69.6087 35.873 69.6883 36.0898 69.8364 36.2567L69.918 36.3389C69.9255 36.3016 69.943 36.2671 69.9685 36.2389C69.994 36.2107 70.0267 36.1899 70.063 36.1786C70.0993 36.1674 70.138 36.1662 70.175 36.175C70.212 36.1839 70.2459 36.2026 70.2732 36.2291C73.4418 39.4583 76.3368 43.1243 78.2532 44.5937C78.7932 45.0095 78.7932 45.1265 79.4016 44.9219C79.8068 44.7447 80.1699 44.4838 80.4672 44.1563C85.8943 39.1011 91.0325 33.7442 95.8572 28.1111C95.8835 28.0792 95.9175 28.0545 95.956 28.0394C95.9945 28.0243 96.0362 28.0192 96.0772 28.0247C96.1182 28.0302 96.1572 28.046 96.1904 28.0706C96.2236 28.0953 96.2499 28.128 96.267 28.1657C96.3492 28.0565 96.4614 27.9497 96.567 27.8105C96.7283 27.5648 96.79 27.2669 96.7395 26.9773C96.689 26.6878 96.5301 26.4283 96.2952 26.2517Z" fill="#57c2b4"/>
<path d="M74.619 81.6865C72.4968 82.6387 72.1452 79.8007 72.1314 78.4063C72.1314 78.0511 71.6118 78.0781 71.5848 78.4063C71.4732 79.7731 71.4456 81.4993 72.7602 82.3423C73.6602 82.9195 74.6454 82.6687 75.4938 82.0963C77.4864 80.7529 78.7704 78.1039 79.6758 75.9463C80.6286 73.6759 81.0702 70.6435 79.6758 68.4565C78.4758 66.5701 75.3132 65.7703 74.2092 68.2105C74.0982 68.4559 74.4606 68.6779 74.592 68.4295C75.771 66.1933 79.3104 66.9775 79.7856 70.8895C79.9452 72.6164 79.6342 74.3543 78.8856 75.9187C78.087 77.6857 76.2552 80.9527 74.619 81.6865Z" fill="#001A4A"/>
<path d="M76.5055 83.0257C76.2625 82.7497 75.9055 83.1079 76.0405 83.3815C76.6693 84.8299 78.471 84.7447 79.6212 84.0097C81.3402 82.9117 82.5247 80.6497 83.2813 78.8437C84.2455 76.5505 86.0382 69.9325 81.8322 69.6037C81.5322 69.5803 81.5592 70.0141 81.8322 70.0687C85.413 70.5061 83.4912 76.5433 82.6524 78.5425C81.8544 80.4529 78.9733 85.8379 76.5055 83.0257Z" fill="#001A4A"/>
<path d="M84.159 86.0873C83.7762 86.0597 83.7198 86.6393 84.0768 86.7431C85.3539 87.0998 86.7051 87.0944 87.9793 86.7276C89.2536 86.3608 90.4009 85.647 91.293 84.6659C93.054 82.5701 92.8134 79.4369 91.6758 77.1215C91.5414 76.8473 91.1514 77.0963 91.266 77.3675C92.208 79.5995 92.3124 82.7075 90.4734 84.5015C88.731 86.2037 86.4552 86.2511 84.159 86.0873Z" fill="#001A4A"/>
<path d="M45.1583 17.868C45.9822 18.0767 46.7472 18.4616 47.3969 18.9944C48.0465 19.5272 48.5643 20.1942 48.9119 20.9463C49.5416 22.4733 49.1326 24.4172 47.7699 25.3969C46.2524 26.4887 44.1424 26.2915 42.3618 26.3312C37.4692 26.4396 33.184 26.4335 10.8625 26.4691C9.88974 26.4691 8.83915 26.4527 8.04107 25.9086C6.8488 25.0962 6.68131 23.4072 7.08395 22.0589C7.40714 21.0161 7.9881 20.0651 8.7766 19.2882C9.5651 18.5114 10.5374 17.9319 11.6094 17.6001C10.3378 17.8593 9.17392 18.4764 8.26408 19.3738C7.35423 20.2712 6.7391 21.4088 6.49607 22.6435C6.37175 23.1893 6.36808 23.7544 6.48528 24.3018C6.60248 24.8491 6.83791 25.3663 7.17615 25.8195C8.26692 27.1035 10.2327 27.2021 11.9554 27.2001C36.7397 27.1702 38.6691 27.1334 42.2704 27.0295C44.5463 26.964 47.627 27.0704 48.9529 24.8774C50.6958 21.9996 48.7465 18.0893 45.1583 17.868Z" fill="#001A4A"/>
<path d="M34.1824 10.0929C37.0049 10.1822 40.357 10.5509 42.3817 12.9821C43.6569 14.5136 44.1119 16.5445 44.5147 18.5035C44.6924 19.3681 44.7745 19.4783 44.7981 18.5481C44.8366 16.504 44.2675 14.5014 43.1762 12.8407C41.2246 10.0318 37.3516 9.18059 34.231 9.78316C33.4342 9.93715 33.3635 10.067 34.1824 10.0929Z" fill="#001A4A"/>
<path d="M15.8351 9.84578C17.949 8.24172 20.7999 7.9237 23.4604 7.90007C25.1777 7.84413 26.8904 8.09499 28.5011 8.63838C30.6069 9.43055 32.2862 10.9412 33.1779 12.8455C33.4053 13.3076 33.5 13.5838 33.5679 13.5993C33.6844 13.6345 33.5201 12.2435 32.4584 10.7611C31.5805 9.55536 30.3436 8.60057 28.8916 8.00776C27.2376 7.32561 25.4344 7.20669 23.6379 7.20011C20.8592 7.19043 17.6614 7.62001 15.7011 9.59206C15.3192 9.97593 15.1839 10.2386 15.2014 10.2765C15.2245 10.3308 15.4105 10.1681 15.8351 9.84578Z" fill="#001A4A"/>
<path d="M9.14592 17.0663C9.14219 16.0522 9.37801 15.052 9.83361 14.1495C11.3321 11.4553 15.6286 11.584 18.0002 12.8105C18.228 12.9256 18.4472 13.0574 18.6561 13.2048C19.2517 13.6335 19.4001 13.6488 18.8905 13.0323C17.0443 10.7978 13.1938 10.7419 10.8535 12.1368C9.21115 13.1159 8.55974 15.1774 8.87851 17.0171C9.00692 17.7565 9.11861 17.8136 9.14592 17.0663Z" fill="#001A4A"/>
<path d="M21.103 17.0268C20.8764 17.8908 20.8504 18.8547 20.3792 19.6281C19.9346 20.3575 19.1374 20.7052 18.5563 21.2937C18.3319 21.5203 18.3367 21.635 18.6521 21.5906C20.7099 21.2991 22.1822 18.9521 21.3753 16.937C21.2985 16.7452 21.179 16.7638 21.1311 16.937C21.1191 16.966 21.1097 16.996 21.103 17.0268Z" fill="#001A4A"/>
<path d="M33.3375 18.6077C32.8582 19.5515 32.5186 20.2964 31.6107 20.8511C30.6282 21.4524 27.9676 22.3178 29.0577 22.3909C31.0358 22.5238 33.6548 21.1768 33.5992 18.722C33.5909 18.3529 33.5023 18.2825 33.3375 18.6077Z" fill="#001A4A"/>
<path d="M41.2736 36.4595C40.1702 35.2295 37.8824 34.4063 36.7004 35.7749C36.5083 34.7222 35.9552 33.7693 35.1364 33.0803C34.3175 32.3914 33.2841 32.0094 32.214 32.0002C31.1439 31.9909 30.1041 32.355 29.2735 33.0297C28.4429 33.7045 27.8734 34.6476 27.6632 35.6969C26.6067 35.2147 25.4388 35.0294 24.285 35.161C23.1311 35.2926 22.0349 35.7361 21.1142 36.4439C18.668 38.2901 18.8084 40.7687 20.1812 41.0945C20.2132 41.0998 20.246 41.0928 20.2731 41.0749C20.3001 41.0569 20.3194 41.0295 20.327 40.9979C20.3346 40.9664 20.33 40.9331 20.3141 40.9048C20.2981 40.8766 20.2721 40.8554 20.2412 40.8455C19.0742 40.4855 19.541 38.8859 20.0078 38.1545C20.8269 36.9441 22.0636 36.0782 23.4812 35.7224C24.8988 35.3666 26.3977 35.546 27.6914 36.2261C27.8162 36.2861 28.0184 36.2417 28.034 36.0863C28.2007 35.0813 28.7161 34.167 29.4897 33.5042C30.2634 32.8413 31.2459 32.4723 32.2646 32.4617C33.3061 32.5239 34.2889 32.9646 35.0281 33.7009C35.7672 34.4372 36.2118 35.4183 36.278 36.4595C36.2936 36.6767 36.638 36.8327 36.7442 36.5837C37.8644 34.1573 42.0794 36.4127 41.411 38.6681C40.7264 40.9703 37.2266 40.8923 35.3288 41.0789C31.0029 41.4187 26.6599 41.4862 22.3256 41.2811C22.2637 41.2811 22.2043 41.3057 22.1606 41.3495C22.1168 41.3932 22.0922 41.4526 22.0922 41.5145C22.0922 41.5764 22.1168 41.6358 22.1606 41.6795C22.2043 41.7233 22.2637 41.7479 22.3256 41.7479C26.7547 42.0901 31.2057 42.0329 35.6246 41.5769C36.9601 41.5116 38.2847 41.303 39.5756 40.9547C41.5844 40.3169 42.8618 38.2307 41.2736 36.4595Z" fill="#001A4A"/>
</svg>
