<svg width="200" height="200" viewBox="0 0 200 200" fill="none" xmlns="http://www.w3.org/2000/svg">
<path d="M148.28 68.924C144.123 70.2577 140.125 72.0423 136.357 74.2459C135.734 72.8519 135.112 71.4583 134.49 70.0649C123.527 72.6399 112.86 81.0059 106.642 90.1439C108.343 94.9014 111.573 98.9605 115.828 101.686C115.284 105.849 115.175 110.057 115.503 114.243C122.717 114.285 129.927 114.622 137.141 114.685C139.431 114.705 152.324 114.669 155.241 115.111C154.641 111.088 157.279 108.13 160.093 106.287C159.386 105.32 158.663 104.37 157.915 103.432C158.295 101.953 158.973 100.568 159.909 99.3609C162.642 95.5325 166.659 92.8136 171.23 91.6999C172.193 92.6169 173.038 93.6629 173.904 94.6709C174.313 93.4979 174.813 92.3519 175.204 91.1709C170.691 83.5859 160.234 73.834 148.28 68.924ZM140.117 91.5779C140.024 94.5859 139.837 98.3229 139.785 101.078C139.791 101.278 139.758 101.477 139.687 101.664C139.615 101.85 139.507 102.021 139.369 102.165C139.231 102.31 139.065 102.425 138.881 102.505C138.698 102.584 138.501 102.626 138.301 102.628C137.986 102.637 130.775 102.866 128.837 102.711C128.321 102.666 127.842 102.429 127.492 102.048C127.143 101.667 126.949 101.168 126.95 100.651C126.93 97.4759 127.074 94.4289 127.262 91.2689C127.292 90.744 127.519 90.2498 127.897 89.8852C128.276 89.5207 128.779 89.3127 129.305 89.3029C132.424 89.2449 135.076 89.3909 138.141 89.4959C138.678 89.5122 139.187 89.7401 139.557 90.1301C139.927 90.52 140.128 91.0404 140.117 91.5779Z" fill="#57c2b4"/>
<path d="M137.033 60.5875C137.308 60.8713 137.642 61.0897 138.013 61.2263C138.383 61.363 138.78 61.4144 139.173 61.3767C139.566 61.339 139.946 61.2133 140.283 61.0088C140.621 60.8043 140.908 60.5263 141.124 60.1955C141.395 59.7661 141.55 59.2744 141.576 58.7675C141.588 58.7204 141.59 58.6714 141.583 58.6234C141.576 58.5754 141.559 58.5293 141.533 58.488C141.508 58.4467 141.474 58.4109 141.434 58.3829C141.395 58.3548 141.35 58.335 141.302 58.3247C141.255 58.3144 141.206 58.3137 141.158 58.3227C141.11 58.3317 141.065 58.3503 141.024 58.3772C140.984 58.4041 140.949 58.439 140.923 58.4796C140.896 58.5201 140.878 58.5657 140.869 58.6135C140.706 58.9365 140.492 59.2313 140.235 59.4865C139.914 59.892 139.458 60.169 138.95 60.2672C138.442 60.3654 137.916 60.2782 137.467 60.0215C137.038 59.7905 136.7 60.2435 137.033 60.5875Z" fill="#00143B"/>
<path d="M135.493 56.7529C135.723 56.8479 135.955 56.9319 136.177 57.0339C136.27 57.0604 136.348 57.1227 136.395 57.2071C136.442 57.2915 136.453 57.3911 136.427 57.4839C136.4 57.5767 136.338 57.6552 136.254 57.7021C136.169 57.749 136.07 57.7604 135.977 57.7339C135.272 57.6399 134.27 57.7229 134.358 56.9919C134.392 55.19 134.851 53.4215 135.698 51.8309C135.731 51.7449 135.797 51.6751 135.881 51.6364C135.964 51.5976 136.06 51.593 136.147 51.6233C136.234 51.6537 136.306 51.7167 136.348 51.7991C136.389 51.8814 136.397 51.9768 136.37 52.0649C136.19 53.5493 135.917 55.0208 135.553 56.4709C135.534 56.5629 135.513 56.6579 135.493 56.7529Z" fill="#00143B"/>
<path d="M138.938 52.6915C138.938 52.9686 139.018 53.2344 139.162 53.4304C139.306 53.6264 139.5 53.7365 139.703 53.7365C139.907 53.7365 140.101 53.6264 140.245 53.4304C140.389 53.2344 140.469 52.9686 140.469 52.6915C140.469 52.4143 140.389 52.1485 140.245 51.9526C140.101 51.7566 139.907 51.6465 139.703 51.6465C139.5 51.6465 139.306 51.7566 139.162 51.9526C139.018 52.1485 138.938 52.4143 138.938 52.6915Z" fill="#00143B"/>
<path d="M134.514 92.1451C134.157 92.0106 133.772 91.9651 133.393 92.0125C133.015 92.0599 132.653 92.1987 132.341 92.4171C132.159 92.5708 132.012 92.7608 131.909 92.9749C131.805 93.189 131.748 93.4224 131.741 93.6601C131.733 94.0308 131.838 94.3952 132.04 94.706C132.243 95.0167 132.534 95.2596 132.876 95.4031C133.218 95.5466 133.595 95.5842 133.958 95.5109C134.322 95.4376 134.655 95.2568 134.915 94.9921C135.117 94.7976 135.27 94.5579 135.362 94.2926C135.454 94.0273 135.481 93.744 135.442 93.466C135.403 93.188 135.298 92.9233 135.137 92.6937C134.976 92.464 134.762 92.276 134.514 92.1451Z" fill="#00143B"/>
<path d="M136.222 99.1631C136.075 98.4207 135.646 97.764 135.026 97.3299C134.406 96.8958 133.642 96.7178 132.894 96.8331C132.403 96.9877 131.949 97.239 131.557 97.5722C131.164 97.9054 130.843 98.3137 130.611 98.7731C130.554 98.8674 130.523 98.9755 130.522 99.086C130.52 99.1965 130.55 99.3052 130.605 99.4005C130.661 99.4958 130.742 99.5741 130.839 99.6271C130.936 99.68 131.046 99.7056 131.156 99.7011C132.301 99.6441 132.356 99.7901 135.856 99.6331C135.915 99.6374 135.974 99.6272 136.028 99.6033C136.082 99.5794 136.129 99.5425 136.165 99.496C136.201 99.4495 136.225 99.3948 136.235 99.3368C136.245 99.2787 136.241 99.219 136.222 99.1631Z" fill="#00143B"/>
<path d="M115.007 77.5433C115.243 76.8673 115.836 75.3273 116.156 74.4113C118.435 67.8983 118.79 65.1383 120.296 63.1823C121.369 61.7893 122.606 61.5663 124.584 61.3903C124.678 61.381 124.765 61.3356 124.826 61.2635C124.887 61.1915 124.917 61.0986 124.911 61.0045C124.904 60.9104 124.862 60.8224 124.792 60.7593C124.722 60.6962 124.63 60.6628 124.535 60.6663C121.535 60.7923 119.835 61.0313 118.263 64.3383C117.758 65.4043 115.101 73.7593 114.793 75.0383C114.606 75.8093 114.458 76.5823 114.318 77.3623C114.294 77.4536 114.308 77.5508 114.355 77.6324C114.403 77.7139 114.481 77.7733 114.572 77.7973C114.664 77.8213 114.761 77.808 114.842 77.7604C114.924 77.7127 114.983 77.6346 115.007 77.5433Z" fill="#00143B"/>
<path d="M156.344 101.35C156.663 101.615 156.914 101.89 157.192 101.665C157.783 101.178 154.785 97.2005 154.11 97.6715C153.339 98.1995 155.617 100.744 156.344 101.35Z" fill="#00143B"/>
<path d="M165.994 103.311C164.909 103.673 163.914 104.264 163.077 105.044C162.304 104.088 161.466 103.186 160.57 102.344C160.511 102.271 160.425 102.223 160.331 102.213C160.237 102.203 160.143 102.23 160.069 102.289C159.996 102.348 159.948 102.434 159.938 102.528C159.928 102.622 159.955 102.717 160.014 102.79C160.647 103.833 161.357 104.826 162.138 105.761C159.189 108.255 156.004 111.628 156.938 115.393C156.958 115.487 157.015 115.57 157.096 115.622C157.177 115.674 157.275 115.692 157.369 115.672C157.463 115.652 157.546 115.595 157.598 115.515C157.65 115.434 157.668 115.335 157.648 115.241C157.248 112.635 159.418 109.967 161.318 108.134C164.128 105.419 164.318 105.9 166.382 103.919C166.451 103.863 166.498 103.783 166.512 103.696C166.526 103.608 166.507 103.517 166.459 103.442C166.411 103.367 166.338 103.312 166.252 103.288C166.166 103.264 166.074 103.272 165.994 103.311Z" fill="#00143B"/>
<path d="M171.707 93.4871C172.428 94.3515 173.1 95.2566 173.717 96.1981C176.843 100.744 179.823 104.024 177.65 109.109C176.946 110.866 175.845 112.436 174.434 113.697C174.399 113.729 174.37 113.768 174.35 113.811C174.33 113.854 174.318 113.901 174.316 113.948C174.314 113.996 174.321 114.043 174.337 114.088C174.353 114.133 174.378 114.174 174.41 114.209C174.442 114.244 174.481 114.273 174.524 114.293C174.567 114.313 174.614 114.325 174.661 114.327C174.709 114.329 174.756 114.322 174.801 114.306C174.846 114.29 174.887 114.265 174.922 114.233C176.515 112.989 177.801 111.395 178.679 109.574C181.088 104.493 178.42 100.623 175.065 96.1011C174.234 94.9572 173.276 93.9106 172.21 92.9811C172.142 92.9185 172.053 92.8848 171.96 92.8868C171.868 92.8889 171.78 92.9266 171.715 92.992C171.65 93.0575 171.613 93.1456 171.611 93.2379C171.61 93.3302 171.644 93.4195 171.707 93.4871Z" fill="#00143B"/>
<path d="M116.713 100.48C116.805 100.127 116.913 99.7932 116.999 99.4382C117.222 98.5202 118.208 92.8382 118.342 91.6792C118.424 90.9792 117.921 90.7682 117.63 90.3572C117.606 90.316 117.575 90.2798 117.537 90.2508C117.499 90.2218 117.456 90.2005 117.41 90.1882C117.364 90.1758 117.316 90.1727 117.269 90.1788C117.222 90.185 117.176 90.2004 117.135 90.2242C117.094 90.248 117.058 90.2796 117.029 90.3174C117 90.3551 116.978 90.3982 116.966 90.4442C116.954 90.4901 116.95 90.5381 116.957 90.5853C116.963 90.6325 116.978 90.678 117.002 90.7192C117.14 91.0252 117.448 91.3422 117.402 91.4962C116.638 94.181 116.154 96.9377 115.957 99.7222C115.964 99.9562 115.982 100.179 116 100.412C115.991 100.507 116.02 100.601 116.08 100.674C116.141 100.747 116.228 100.794 116.323 100.803C116.417 100.812 116.511 100.783 116.585 100.722C116.658 100.662 116.704 100.575 116.713 100.48Z" fill="#00143B"/>
<path d="M152.346 72.2235C149.755 74.7887 147.331 77.5188 145.091 80.3966C144.542 79.9506 143.999 79.4965 143.456 79.0426C146.987 74.9426 147.898 74.2776 152.247 69.2785C152.305 69.2098 152.334 69.1222 152.329 69.0329C152.325 68.9436 152.287 68.8592 152.224 68.7964C152.16 68.7336 152.075 68.6969 151.986 68.6936C151.897 68.6903 151.81 68.7206 151.741 68.7785C148.42 71.6907 145.339 74.8653 142.526 78.2716C141.167 77.0835 139.706 76.0183 138.158 75.0885C138.082 75.0327 137.987 75.0095 137.894 75.0239C137.8 75.0384 137.716 75.0893 137.66 75.1656C137.605 75.2418 137.581 75.3371 137.596 75.4305C137.61 75.5239 137.661 75.6077 137.737 75.6636C138.782 76.5576 138.83 76.7116 141.749 79.1916C139.557 81.8498 137.548 84.6535 135.735 87.5835C135.692 87.663 135.68 87.7557 135.702 87.8434C135.724 87.9312 135.777 88.0077 135.853 88.0579C135.928 88.108 136.019 88.1282 136.108 88.1144C136.198 88.1007 136.279 88.054 136.335 87.9836C137.991 85.5766 140.955 81.9926 142.667 79.9686C143.379 80.5686 144.094 81.1592 144.814 81.7405C144.878 81.7918 144.951 81.8296 145.03 81.8518C145.108 81.8739 145.191 81.88 145.271 81.8696C145.682 81.8166 145.454 81.8126 147.786 78.9256C147.867 78.8256 152.564 73.0775 152.881 72.7145C152.947 72.6436 152.981 72.5497 152.977 72.4535C152.973 72.3573 152.93 72.2667 152.859 72.2015C152.789 72.1364 152.695 72.1022 152.598 72.1063C152.502 72.1104 152.412 72.1526 152.346 72.2235Z" fill="#00143B"/>
<path d="M135.664 74.9829C135.473 75.0419 135.294 75.0929 135.102 75.1619C133.817 75.771 132.597 76.5081 131.46 77.3619C131.42 72.4049 131.574 75.5079 131.422 70.2699C131.426 70.1772 131.394 70.0866 131.332 70.0173C131.27 69.948 131.184 69.9056 131.091 69.8991C130.999 69.8926 130.907 69.9224 130.836 69.9824C130.765 70.0423 130.721 70.1276 130.712 70.2199C130.243 72.8927 130.089 75.6113 130.253 78.3199C129.807 78.7199 129.596 78.9349 129.3 79.2289C129.228 79.2892 129.183 79.3746 129.173 79.4675C129.163 79.5604 129.189 79.6536 129.246 79.7276C129.303 79.8017 129.386 79.851 129.479 79.8652C129.571 79.8794 129.665 79.8575 129.742 79.8039C129.922 79.6979 130.103 79.5949 130.284 79.4929C130.385 82.2963 130.661 85.0906 131.108 87.8599C131.118 87.9554 131.166 88.0429 131.241 88.1031C131.316 88.1633 131.411 88.1913 131.507 88.1809C131.602 88.1706 131.69 88.1227 131.75 88.0479C131.81 87.9731 131.838 87.8774 131.828 87.7819C131.828 87.6819 131.508 80.3419 131.479 78.7819C132.127 78.3659 132.694 77.9749 133.327 77.5579C134.311 77.0352 135.217 76.3775 136.019 75.6039C136.101 75.5569 136.161 75.479 136.186 75.3875C136.211 75.296 136.199 75.1983 136.152 75.1159C136.105 75.0336 136.027 74.9733 135.935 74.9484C135.844 74.9234 135.746 74.9359 135.664 74.9829Z" fill="#00143B"/>
<path d="M85.0313 80.2008C85.3974 80.8102 85.6911 81.4603 85.9063 82.1378C86.3113 83.4428 86.0223 84.1948 85.6393 85.9618C85.2211 87.2745 85.2127 88.6833 85.6153 90.0008C85.8198 90.4446 86.1229 90.8357 86.5016 91.1444C86.8803 91.453 87.3245 91.6711 87.8003 91.7818C87.8905 91.8151 87.9902 91.8112 88.0775 91.771C88.1648 91.7308 88.2325 91.6575 88.2658 91.5673C88.2991 91.4772 88.2952 91.3775 88.255 91.2902C88.2148 91.2029 88.1415 91.1351 88.0513 91.1018C86.0733 90.1908 86.3413 88.3708 86.8263 86.2258C87.3733 83.8018 87.9263 81.8918 85.5823 79.7448C85.5524 79.7087 85.5156 79.6787 85.4741 79.6568C85.4326 79.6348 85.3872 79.6212 85.3404 79.6168C85.2937 79.6124 85.2465 79.6172 85.2016 79.6311C85.1567 79.6449 85.115 79.6674 85.0788 79.6973C85.0426 79.7273 85.0127 79.7641 84.9908 79.8056C84.9688 79.8471 84.9552 79.8925 84.9508 79.9393C84.9464 79.986 84.9512 80.0332 84.9651 80.0781C84.9789 80.1229 85.0014 80.1647 85.0313 80.2008Z" fill="#00143B"/>
<path d="M82.1468 91.641C80.6708 90.9925 79.1555 90.4374 77.6098 89.979C77.5218 89.9515 77.4479 89.891 77.4035 89.8102C77.3591 89.7295 77.3477 89.6347 77.3716 89.5457C77.3955 89.4567 77.4529 89.3804 77.5318 89.3327C77.6106 89.285 77.7049 89.2697 77.7948 89.29C79.4839 89.6694 81.1454 90.1629 82.7678 90.767C83.0578 90.881 82.9678 90.904 83.8428 92.967C86.5608 99.393 89.6748 106.255 95.7318 110.639C97.1932 111.795 98.8809 112.631 100.686 113.094C102.491 113.557 104.372 113.637 106.21 113.327C108.799 112.942 111.259 111.943 113.383 110.412C113.458 110.352 113.554 110.325 113.65 110.337C113.745 110.348 113.832 110.397 113.892 110.472C113.951 110.547 113.978 110.643 113.967 110.739C113.956 110.834 113.907 110.921 113.832 110.981C111.647 112.668 109.096 113.818 106.386 114.34C94.3448 116.639 86.1478 103.216 82.1468 91.641Z" fill="#00143B"/>
<path d="M107.108 96.0269L105.737 97.0879C103.137 94.8519 95.6121 88.6539 90.8051 85.0119C90.7336 84.9536 90.6423 84.9253 90.5504 84.9328C90.4584 84.9404 90.373 84.9833 90.312 85.0525C90.2509 85.1216 90.219 85.2118 90.223 85.3039C90.2269 85.3961 90.2664 85.4832 90.3331 85.5469C90.8231 86.0469 91.7781 87.0469 92.5731 87.7619C94.2731 89.3079 100.207 94.1889 104.726 97.5169C104.396 97.7554 104.095 98.0301 103.826 98.3359C103.426 98.7919 103.192 99.0139 103.377 99.2849C103.562 99.5559 103.877 99.3999 104.222 99.2599C105.457 98.5218 106.586 97.6192 107.578 96.5769C107.642 96.5121 107.68 96.4258 107.683 96.3348C107.686 96.2438 107.655 96.1549 107.596 96.0857C107.537 96.0165 107.454 95.9721 107.364 95.9612C107.273 95.9503 107.182 95.9737 107.108 96.0269Z" fill="#00143B"/>
<path d="M77.9942 86.3784C79.053 86.9262 80.1775 87.3366 81.3402 87.5994C81.3851 87.6154 81.4326 87.6224 81.4802 87.6199C81.5277 87.6175 81.5743 87.6058 81.6173 87.5853C81.6603 87.5649 81.6989 87.5362 81.7308 87.5009C81.7627 87.4656 81.7873 87.4243 81.8032 87.3794C81.8192 87.3346 81.8262 87.2871 81.8237 87.2395C81.8213 87.192 81.8096 87.1454 81.7891 87.1024C81.7687 87.0594 81.74 87.0208 81.7047 86.9889C81.6694 86.957 81.6281 86.9324 81.5832 86.9164C80.536 86.3086 79.3876 85.8949 78.1932 85.6954C77.7062 85.6574 77.5622 86.1474 77.9942 86.3784Z" fill="#00143B"/>
<path d="M79.55 83.1292C80.3482 83.7485 81.261 84.2036 82.236 84.4683C82.2794 84.4914 82.327 84.5054 82.376 84.5095C82.425 84.5137 82.4743 84.5078 82.521 84.4923C82.5676 84.4768 82.6106 84.452 82.6474 84.4194C82.6842 84.3867 82.7139 84.347 82.7349 84.3025C82.7558 84.258 82.7675 84.2098 82.7693 84.1606C82.771 84.1115 82.7628 84.0625 82.745 84.0167C82.7272 83.9708 82.7003 83.9291 82.666 83.8939C82.6316 83.8588 82.5904 83.831 82.545 83.8122C81.7312 83.2314 80.8289 82.7859 79.873 82.4932C79.391 82.3882 79.177 82.8002 79.55 83.1292Z" fill="#00143B"/>
<path d="M81.8321 81.0326C82.5197 81.8193 83.3539 82.4647 84.2881 82.9326C84.3264 82.9608 84.3699 82.9812 84.4161 82.9927C84.4622 83.0041 84.5102 83.0063 84.5572 82.9992C84.6043 82.9921 84.6494 82.9758 84.6902 82.9512C84.7309 82.9267 84.7664 82.8943 84.7946 82.8561C84.8229 82.8178 84.8433 82.7743 84.8547 82.7281C84.8662 82.682 84.8684 82.634 84.8613 82.587C84.8542 82.5399 84.8379 82.4948 84.8133 82.454C84.7888 82.4133 84.7564 82.3778 84.7181 82.3496C84.0051 81.6039 83.1814 80.9725 82.2761 80.4776C81.8251 80.2706 81.5341 80.6386 81.8321 81.0326Z" fill="#00143B"/>
<path d="M141.183 63.926C141.04 64.002 140.899 64.063 140.756 64.136C139.731 64.7534 138.613 65.1983 137.444 65.453C133.912 65.57 132.63 60.493 132.776 56.925C132.914 53.551 132.888 53.883 133.085 51.725C133.094 51.6352 133.069 51.5453 133.015 51.4733C132.96 51.4013 132.88 51.3527 132.791 51.3374C132.703 51.322 132.611 51.341 132.536 51.3905C132.46 51.44 132.406 51.5163 132.385 51.604C132.349 51.747 132.363 51.804 132.285 51.853C131.739 51.9025 131.222 52.1234 130.809 52.4842C130.396 52.8451 130.107 53.3273 129.985 53.862C129.412 55.93 130.84 58.411 131.58 58.533C131.796 62.082 133.373 66.358 136.944 66.555L137.173 70.748C137.175 70.8443 137.216 70.9357 137.285 71.0022C137.355 71.0687 137.448 71.1048 137.544 71.1025C137.641 71.1003 137.732 71.0598 137.799 70.9902C137.865 70.9205 137.901 70.8273 137.899 70.731C137.893 69.112 137.994 68.239 138.012 66.522C138.573 66.4477 139.12 66.2882 139.633 66.049C140.402 65.6743 141.083 65.1421 141.633 64.487C141.693 64.4233 141.728 64.34 141.732 64.2524C141.735 64.1648 141.707 64.0788 141.652 64.0104C141.597 63.942 141.52 63.8958 141.433 63.8803C141.347 63.8648 141.258 63.881 141.183 63.926Z" fill="#00143B"/>
<path d="M130.5 64.7335C129.869 64.6335 127.931 64.6705 127.287 65.2475C125.461 63.8235 127.919 60.9675 128.987 59.0725C129.534 59.4445 130.181 59.6406 130.842 59.6345C130.938 59.6422 131.033 59.6116 131.106 59.5493C131.179 59.487 131.225 59.3983 131.232 59.3025C131.24 59.2068 131.209 59.1119 131.147 59.0388C131.085 58.9656 130.996 58.9202 130.9 58.9125C129.12 58.5735 127.991 56.1665 128.5 54.1895C128.711 53.4363 129.152 52.768 129.762 52.2785C129.845 52.2376 129.909 52.1661 129.94 52.0792C129.971 51.9923 129.968 51.8967 129.93 51.8125C129.892 51.7282 129.823 51.6619 129.737 51.6274C129.652 51.5929 129.556 51.593 129.47 51.6275C126.705 52.3455 126.536 56.5275 128.358 58.5275C125.997 60.4735 124.001 64.8375 126.871 66.1425C126.9 67.6845 129.91 68.1595 131.286 67.1555C132.423 66.3345 131.852 64.9435 130.5 64.7335Z" fill="#00143B"/>
<path d="M136.776 119.867C136.524 120.096 136.322 120.373 136.182 120.682C136.041 120.991 135.964 121.325 135.957 121.664C135.949 122.004 136.01 122.341 136.137 122.656C136.264 122.971 136.453 123.257 136.694 123.497C136.937 123.743 137.226 123.938 137.545 124.071C137.864 124.205 138.206 124.274 138.551 124.274C138.897 124.275 139.239 124.207 139.559 124.075C139.878 123.942 140.168 123.748 140.412 123.503C140.656 123.261 140.849 122.973 140.98 122.655C141.111 122.337 141.176 121.996 141.172 121.653C141.169 121.309 141.096 120.97 140.958 120.655C140.82 120.34 140.62 120.056 140.371 119.82C139.85 119.431 139.215 119.224 138.565 119.233C137.915 119.241 137.286 119.464 136.776 119.867ZM139.595 120.597C139.849 120.88 139.986 121.249 139.978 121.629C139.97 122.009 139.819 122.372 139.554 122.645C139.286 122.911 138.925 123.061 138.548 123.062C138.17 123.064 137.808 122.916 137.539 122.652C136.193 121.342 138.123 118.832 139.6 120.6L139.595 120.597Z" fill="#00143B"/>
<path d="M143.346 136.068C147.643 136.762 151.994 137.066 156.346 136.978C156.439 136.976 156.528 136.939 156.595 136.873C156.661 136.807 156.7 136.719 156.702 136.625C156.705 136.532 156.671 136.441 156.609 136.372C156.546 136.302 156.459 136.26 156.366 136.253C152.122 135.829 146.777 135.063 143.378 135.353C143.283 135.349 143.19 135.382 143.12 135.446C143.05 135.51 143.009 135.6 143.004 135.695C143 135.789 143.034 135.882 143.098 135.952C143.162 136.022 143.251 136.064 143.346 136.068Z" fill="#00143B"/>
<path d="M70.8195 79.9007C71.2135 79.9248 71.6027 79.9998 71.9775 80.1237C73.3445 80.6167 73.4775 81.8467 72.8975 83.1917C71.9835 85.3167 71.5185 84.5917 71.0975 87.4497C70.8775 88.9397 70.7355 90.5907 69.8125 91.7657C69.7574 91.8445 69.6734 91.8981 69.5787 91.9149C69.4841 91.9317 69.3867 91.9102 69.308 91.8552C69.2292 91.8002 69.1755 91.7161 69.1587 91.6215C69.1419 91.5269 69.1634 91.4295 69.2185 91.3507C70.3185 89.5627 69.4425 86.4307 70.8685 84.2977C71.2615 83.7107 72.2825 82.1677 71.9475 81.5407C71.8175 81.2977 71.4275 81.2037 71.1535 81.1557C70.4535 81.0347 70.1445 81.1477 69.9335 80.7617C69.1376 79.4004 68.5084 77.9483 68.0595 76.4367C68.0245 76.3506 68.0245 76.2544 68.0593 76.1683C68.0942 76.0822 68.1612 76.0131 68.2461 75.9757C68.3311 75.9382 68.4273 75.9353 68.5144 75.9676C68.6015 75.9999 68.6725 76.0649 68.7125 76.1487C68.7855 76.2807 70.7355 79.7477 70.8195 79.9007Z" fill="#00143B"/>
<path d="M67.0137 80.2935C67.1023 80.6557 67.2594 80.9854 67.4504 81.2102C67.6415 81.4349 67.8509 81.5362 68.0325 81.4918C68.2141 81.4473 68.3531 81.2609 68.4189 80.9733C68.4847 80.6858 68.4719 80.3208 68.3833 79.9585C68.2947 79.5963 68.1376 79.2666 67.9466 79.0419C67.7555 78.8171 67.5461 78.7158 67.3645 78.7603C67.1829 78.8047 67.0439 78.9912 66.9781 79.2787C66.9123 79.5662 66.9251 79.9313 67.0137 80.2935Z" fill="#00143B"/>
<path d="M194.989 70.7199C194.875 68.1199 193.764 61.7969 189.971 59.9899C189.096 59.5683 188.134 59.3566 187.162 59.3719C174.099 59.7949 163.91 58.8779 149.949 59.9719C149.858 59.9814 149.773 60.026 149.714 60.0963C149.655 60.1665 149.625 60.2571 149.63 60.3489C149.636 60.4408 149.677 60.527 149.744 60.5894C149.812 60.6518 149.901 60.6856 149.993 60.6839C160.511 60.2179 174.928 60.9509 187.198 60.5839C189.125 60.5249 191.842 61.9529 192.027 64.2989C192.003 65.766 191.836 67.2273 191.527 68.6619C190.908 72.6619 182.8 107.562 181.202 113.655C181.181 113.746 181.195 113.843 181.243 113.924C181.292 114.005 181.369 114.064 181.46 114.089C181.551 114.114 181.648 114.102 181.73 114.057C181.813 114.011 181.875 113.936 181.902 113.846C184.102 106.081 192.08 74.1809 193.135 66.1739C194.385 69.5259 193.906 73.5739 193.284 77.0539C192.452 81.7399 185.555 111.592 183.95 116.46C182.815 119.901 181.396 122.56 178.722 124.742C180.047 122.473 180.646 119.562 181.222 117.025H181.405C181.502 117.025 181.594 116.987 181.662 116.919C181.73 116.85 181.768 116.758 181.768 116.662C181.768 116.566 181.73 116.473 181.662 116.405C181.594 116.337 181.502 116.299 181.405 116.299C180.925 116.064 106.332 115.158 106.232 115.157C106.091 115.154 105.954 115.201 105.844 115.29C105.735 115.378 105.66 115.503 105.632 115.641C103.871 124.341 106.711 127.432 114.874 128.056C114.974 128.063 114.674 128.288 137.974 128.072C138.794 130.533 139.379 132.536 140.374 135.1C137.814 136.126 134.774 136.884 132.048 137.7C131.909 137.736 131.788 137.822 131.706 137.941C131.624 138.059 131.588 138.203 131.604 138.346C131.62 138.49 131.687 138.622 131.793 138.72C131.898 138.818 132.035 138.875 132.179 138.88C134.388 139.034 137.301 139.348 140.22 139.694C152.513 141.15 152.252 141.406 152.631 141.208C152.731 141.154 160.625 137.236 160.731 137.186C162.066 136.53 162.045 134.823 161.341 133.505C160.382 131.726 159.507 130.053 158.441 128.283C173.47 128.588 173.302 128.375 173.841 128.283C176.455 127.815 180.475 124.808 182.213 122.374C183.397 120.664 184.328 118.793 184.978 116.818C186.978 111.099 193.671 81.9099 194.45 77.2639C194.84 75.1049 195.021 72.9135 194.989 70.7199ZM160.489 133.943C160.868 134.697 161.047 135.886 160.279 136.236C158.998 136.826 152.346 140.022 152.245 140.074C147.477 139.369 140.522 138.443 135.501 137.951C137.489 137.41 139.438 136.737 141.336 135.937C141.475 135.878 141.584 135.767 141.64 135.627C141.696 135.488 141.695 135.332 141.636 135.194C140.752 133.209 139.624 130.23 138.768 128.068C145.019 128.024 151.42 128.141 157.568 128.268C158.578 130.057 159.614 132.191 160.484 133.943H160.489ZM173.676 127.293C172.109 127.546 155.136 126.962 144.855 126.872C141.997 126.847 117.813 127.061 114.964 126.843C107.67 126.287 105.289 123.899 106.715 116.375C111.696 116.458 85.8584 116.243 180.474 117.025C180.046 119.043 179.441 121.019 178.666 122.931C177.279 126.019 175.658 126.971 173.671 127.293H173.676Z" fill="#00143B"/>
<path d="M16.1508 132.306C17.5888 130.506 19.6278 125.941 20.2508 124.77C20.2912 124.691 20.3012 124.599 20.2787 124.513C20.2562 124.427 20.2029 124.352 20.1288 124.303C20.0548 124.254 19.9652 124.233 19.877 124.245C19.7889 124.258 19.7084 124.302 19.6508 124.37C17.8612 126.655 16.4679 129.224 15.5288 131.97C15.4968 132.051 15.4956 132.141 15.5255 132.223C15.5553 132.304 15.6141 132.373 15.6907 132.414C15.7673 132.455 15.8565 132.467 15.9413 132.447C16.026 132.427 16.1006 132.377 16.1508 132.306Z" fill="#00143B"/>
<path d="M79.2569 155.109C81.2709 156.857 82.9019 158.948 85.4569 160.344C88.7489 162.186 92.4993 163.048 96.2653 162.827C100.031 162.607 103.655 161.313 106.71 159.099C110.187 156.699 112.619 153.569 115.666 151.059C119.142 148.193 120.372 148.586 120.094 147.902C120.057 147.813 119.987 147.742 119.898 147.705C119.81 147.667 119.71 147.666 119.621 147.702C114.089 149.902 110.512 155.07 106.036 158.115C103.138 160.156 99.7286 161.349 96.1904 161.561C92.6522 161.773 89.1248 160.995 86.0039 159.315C83.8429 158.194 81.7899 156.243 79.7119 154.561C79.6385 154.508 79.5478 154.485 79.4582 154.497C79.3685 154.508 79.2866 154.553 79.2288 154.623C79.1711 154.692 79.1419 154.781 79.1471 154.871C79.1523 154.962 79.1915 155.046 79.2569 155.109Z" fill="#00143B"/>
<path d="M116.613 143.832C117.74 143.833 118.863 143.968 119.959 144.232C120.004 144.251 120.053 144.26 120.101 144.26C120.15 144.259 120.198 144.249 120.243 144.229C120.288 144.21 120.328 144.181 120.361 144.146C120.395 144.111 120.421 144.069 120.438 144.023C120.455 143.977 120.463 143.929 120.46 143.88C120.458 143.831 120.446 143.784 120.425 143.74C120.404 143.696 120.374 143.656 120.338 143.624C120.301 143.592 120.258 143.567 120.212 143.552C119.087 142.995 117.804 142.843 116.58 143.124C116.024 143.274 116.243 143.877 116.613 143.832Z" fill="#00143B"/>
<path d="M116.994 146.706C117.985 146.434 118.999 146.26 120.023 146.184C120.116 146.174 120.202 146.129 120.263 146.057C120.323 145.986 120.354 145.894 120.348 145.801C120.343 145.707 120.301 145.62 120.232 145.556C120.164 145.493 120.073 145.458 119.979 145.46C118.901 145.374 117.818 145.563 116.833 146.011C116.319 146.273 116.623 146.795 116.994 146.706Z" fill="#00143B"/>
<path d="M121.368 141.941C115.407 137.949 108.508 137.841 101.621 139.82C101.134 139.22 99.7683 137.473 98.7603 136.15C98.7067 136.074 98.6257 136.023 98.5347 136.006C98.4437 135.989 98.3497 136.008 98.2727 136.06C98.1957 136.111 98.1417 136.191 98.1222 136.281C98.1028 136.372 98.1193 136.466 98.1683 136.545C99.6683 139.127 101.997 143.026 104.232 144.992C104.295 145.065 104.383 145.11 104.479 145.118C104.575 145.126 104.67 145.095 104.743 145.033C104.816 144.971 104.862 144.882 104.869 144.786C104.877 144.691 104.847 144.596 104.784 144.523C104.549 144.157 104.334 143.779 104.084 143.401C103.653 142.741 102.979 141.856 102.293 140.855C106.874 139.467 111.751 139.378 116.379 140.597C120.55 141.785 121.059 143.077 121.473 142.442C121.525 142.361 121.543 142.263 121.523 142.17C121.503 142.076 121.448 141.994 121.368 141.941Z" fill="#00143B"/>
<path d="M6.53888 132.252C4.11588 136.658 4.36388 143.272 8.65288 146.57C8.72601 146.627 8.81841 146.654 8.911 146.646C9.00359 146.637 9.08933 146.593 9.15051 146.523C9.2117 146.453 9.24367 146.362 9.23983 146.269C9.23599 146.176 9.19664 146.088 9.12988 146.024C5.57088 142.476 5.81388 137.375 7.19788 132.524C7.23395 132.436 7.23383 132.338 7.19754 132.251C7.16125 132.164 7.09177 132.094 7.00438 132.058C6.917 132.022 6.81886 132.022 6.73156 132.059C6.64426 132.095 6.57495 132.164 6.53888 132.252Z" fill="#00143B"/>
<path d="M162.846 149.768C162.726 152.559 159.738 154.629 157.197 155.784C154.369 157.069 150.71 157.764 147.955 156.352C140.834 152.702 150.631 141.264 160.282 145.767C161.033 146.138 161.668 146.707 162.12 147.412C162.571 148.117 162.823 148.931 162.846 149.768ZM157.092 145.76C149.858 145.202 143.544 152.715 148.509 155.274C151.761 156.951 157.073 155.101 159.929 152.847C162.442 150.864 162.679 148.233 160.129 146.592C159.196 146.081 158.156 145.796 157.092 145.76Z" fill="#00143B"/>
<path d="M155.282 148.097C155.282 148.334 155.417 148.561 155.656 148.729C155.896 148.897 156.221 148.991 156.559 148.991C156.898 148.991 157.223 148.897 157.462 148.729C157.702 148.561 157.836 148.334 157.836 148.097C157.836 147.86 157.702 147.633 157.462 147.465C157.223 147.297 156.898 147.203 156.559 147.203C156.221 147.203 155.896 147.297 155.656 147.465C155.417 147.633 155.282 147.86 155.282 148.097Z" fill="#00143B"/>
<path d="M141.9 142.763C134.926 141.649 130.777 141.572 121.143 140.594C121.049 140.586 120.962 140.541 120.901 140.468C120.84 140.396 120.811 140.303 120.819 140.208C120.827 140.114 120.872 140.027 120.944 139.966C121.017 139.906 121.11 139.876 121.204 139.884C124.917 140.147 134.172 140.25 142.65 141.653C142.803 141.678 142.941 141.761 143.035 141.884C143.129 142.007 143.172 142.161 143.156 142.315C142.956 144.329 143.251 145.071 142.756 145.393C136.679 149.383 126.968 155.104 126.017 155.747C125.948 155.814 125.862 155.86 125.768 155.881C125.675 155.901 125.577 155.896 125.486 155.865C122.624 155.161 119.713 154.671 116.777 154.399C116.73 154.394 116.684 154.379 116.643 154.356C116.601 154.333 116.564 154.302 116.535 154.265C116.505 154.227 116.483 154.185 116.47 154.139C116.457 154.093 116.453 154.045 116.458 153.998C116.464 153.951 116.478 153.905 116.501 153.863C116.525 153.822 116.556 153.785 116.593 153.755C116.63 153.726 116.673 153.704 116.718 153.691C116.764 153.678 116.812 153.674 116.859 153.679C119.775 153.861 122.675 154.239 125.539 154.813C127.424 153.526 138.31 146.852 141.832 144.546C141.855 144.028 141.869 143.238 141.9 142.763Z" fill="#00143B"/>
<path d="M125.173 151.276C127.421 150.411 132.973 146.501 138.759 143.924C138.845 143.888 138.942 143.887 139.029 143.921C139.115 143.955 139.186 144.021 139.226 144.106C139.265 144.19 139.27 144.287 139.241 144.375C139.211 144.464 139.148 144.537 139.066 144.581C134.754 146.711 126.204 152.737 125.11 152.481C125.21 152.522 121.564 151.981 121.463 151.961C120.163 151.761 118.382 151.407 117.791 151.318C117.7 151.306 117.617 151.26 117.559 151.189C117.501 151.118 117.472 151.027 117.48 150.936C117.487 150.844 117.529 150.759 117.597 150.698C117.666 150.636 117.755 150.604 117.847 150.607C120.302 150.649 122.751 150.873 125.173 151.276Z" fill="#00143B"/>
<path d="M123.718 144.029C124.422 144.176 125.142 144.229 125.86 144.188C126.36 144.166 126.431 143.637 125.973 143.471C125.283 143.206 124.556 143.049 123.817 143.006C123.417 143.056 123.245 143.106 123.194 143.393C123.143 143.68 123.288 143.865 123.718 144.029Z" fill="#00143B"/>
<path d="M128.3 144.446C129.219 144.837 130.236 144.941 131.216 144.746C131.723 144.651 131.768 144.246 131.326 144.029C129.321 143.036 127.12 143.849 128.3 144.446Z" fill="#00143B"/>
<path d="M124.573 146.808C125.073 146.82 125.19 146.308 124.739 146.102C124.093 145.778 123.384 145.602 122.663 145.586C122.307 145.665 122.11 145.686 122.063 145.974C121.928 146.745 123.79 146.79 124.573 146.808Z" fill="#00143B"/>
<path d="M126.634 147.237C126.938 147.457 127.288 147.606 127.657 147.672C128.027 147.738 128.406 147.719 128.767 147.618C129.182 147.542 129.325 147.218 128.948 146.918C127.836 146.031 125.865 146.42 126.634 147.237Z" fill="#00143B"/>
<path d="M63.6769 139.473C64.7952 141.775 66.2439 143.901 67.9769 145.784C69.5862 147.762 71.3862 149.577 73.3509 151.202C73.4212 151.263 73.5118 151.293 73.6041 151.289C73.6964 151.284 73.7835 151.244 73.8475 151.178C73.9114 151.111 73.9474 151.022 73.948 150.93C73.9487 150.837 73.9139 150.748 73.8509 150.68C67.9329 144.164 67.4639 143.064 64.2739 139.091C64.2193 139.022 64.1407 138.975 64.0534 138.96C63.9661 138.945 63.8764 138.963 63.8018 139.011C63.7272 139.059 63.6731 139.133 63.65 139.218C63.6269 139.304 63.6365 139.395 63.6769 139.473Z" fill="#00143B"/>
<path d="M90.7921 122.714C85.2061 116.655 76.1461 109.829 69.2221 105.322L32.4481 106.088C22.2431 110.378 12.9931 120.482 6.9541 129.376C9.42336 131.381 12.1248 133.082 15.0001 134.441C12.8577 139.251 11.2753 144.291 10.2841 149.462C10.0231 150.734 10.0371 152.036 9.8161 153.304L76.7871 154.851C83.0251 146.507 90.9101 139.433 98.3471 132.193C96.1485 128.791 93.6177 125.616 90.7921 122.714ZM29.7771 110.633C21.9901 116.533 17.4221 121.724 11.8311 127.933C11.7728 128.008 11.6872 128.056 11.5934 128.067C11.4995 128.079 11.405 128.052 11.3306 127.994C11.2562 127.935 11.208 127.85 11.1967 127.756C11.1853 127.662 11.2118 127.568 11.2701 127.493C15.0501 121.954 21.7821 115.324 29.3511 110.049C29.4288 109.999 29.5227 109.98 29.6137 109.997C29.7046 110.014 29.7857 110.065 29.8402 110.14C29.8947 110.215 29.9185 110.307 29.9068 110.399C29.8951 110.491 29.8487 110.575 29.7771 110.633Z" fill="#57c2b4"/>
<path d="M77.465 96.7726C72.8231 98.5066 68.7461 95.5625 68.0451 91.0885C67.701 88.8965 68.1071 88.1775 67.4831 87.9886C67.3836 87.9582 67.2773 87.9591 67.1784 87.9911C67.0795 88.0232 66.9928 88.0847 66.9301 88.1676C66.6893 88.452 66.3894 88.6806 66.0512 88.8373C65.713 88.9939 65.3447 89.0749 64.9721 89.0745C63.0591 89.1075 62.4441 87.0476 63.4551 85.5996C63.6983 85.228 64.0404 84.9316 64.4428 84.7436C64.8452 84.5557 65.292 84.4836 65.7331 84.5356C65.8243 84.5483 65.9173 84.539 66.0042 84.5086C66.0912 84.4781 66.1696 84.4274 66.2331 84.3606C66.5511 84.0236 66.3641 83.9886 65.5931 79.7876C65.4541 79.0296 65.3231 78.2726 65.2101 77.5156C67.8116 76.1847 69.8285 73.938 70.8721 71.2086C70.9045 71.117 70.9143 71.019 70.9006 70.9228C70.8868 70.8267 70.8499 70.7353 70.7931 70.6565C68.8761 68.0045 67.4341 65.2796 64.5121 63.4216C58.9121 59.8626 49.8901 59.7546 45.0121 64.5376C44.0796 65.5276 43.3282 66.6737 42.7921 67.9236C39.3671 68.6396 37.3871 71.8526 36.7441 75.2926C35.2091 83.5065 37.7301 94.6875 32.1691 100.18C31.8596 100.586 31.4336 100.888 30.948 101.046C30.4623 101.203 29.9401 101.209 29.4511 101.063C29.3494 101.022 29.2386 101.011 29.131 101.03C29.0234 101.049 28.9231 101.097 28.8414 101.17C28.7596 101.243 28.6996 101.336 28.6679 101.441C28.6363 101.546 28.6342 101.657 28.6621 101.763C31.3391 112.103 45.8251 114.505 56.9021 111.533C64.6151 109.463 73.6911 104.367 77.9111 97.2945C77.9516 97.2296 77.9703 97.1535 77.9646 97.0771C77.9589 97.0008 77.9291 96.9283 77.8793 96.8701C77.8296 96.8119 77.7627 96.7711 77.6882 96.7535C77.6137 96.736 77.5355 96.7427 77.465 96.7726ZM39.7441 88.2815C39.5181 89.4816 38.5011 89.4816 38.6141 88.0676C38.6241 87.9496 38.7061 86.9106 38.7141 86.7466C38.7821 85.8246 39.8521 85.8465 39.8571 86.7796C39.8486 87.282 39.8109 87.7835 39.7441 88.2815ZM43.9811 70.3616C39.4101 73.4995 40.8001 78.3446 40.0071 83.5136C39.999 83.6093 39.9532 83.6979 39.8798 83.7599C39.8063 83.8219 39.7113 83.8521 39.6156 83.844C39.5198 83.836 39.4312 83.7902 39.3692 83.7168C39.3072 83.6433 39.277 83.5483 39.2851 83.4526C39.3701 78.7816 38.1461 71.9196 43.6491 69.7306C43.7321 69.6923 43.8267 69.6874 43.9132 69.7168C43.9998 69.7462 44.0718 69.8077 44.1144 69.8886C44.1569 69.9695 44.1668 70.0636 44.142 70.1517C44.1172 70.2397 44.0596 70.3148 43.9811 70.3616Z" fill="#00143B"/>
<path d="M150.414 48.2901C151.681 45.4111 149.914 41.2681 146.791 40.4141C145.767 38.9444 144.248 37.8918 142.513 37.4481C136.989 35.9481 131.138 40.0481 128.413 45.1741C127.637 46.4484 127.107 47.8566 126.85 49.3261C126.84 49.4447 126.865 49.5636 126.922 49.668C126.98 49.7724 127.066 49.8576 127.172 49.9131C130.572 51.6791 134.531 50.7431 138.023 49.1691C138.93 48.7975 139.809 48.3631 140.656 47.8691C141.507 49.5674 142.947 50.8973 144.708 51.6101C143.48 54.0431 143.64 56.9021 145.635 58.6951C145.272 59.2031 144.046 60.8511 144.093 61.2951C143.93 63.8822 144.018 66.479 144.356 69.0491C144.362 69.1422 144.404 69.2292 144.473 69.292C144.542 69.3548 144.633 69.3887 144.726 69.3865C144.82 69.3843 144.909 69.3462 144.974 69.2803C145.04 69.2143 145.079 69.1254 145.081 69.0321C145.22 66.5161 145.213 67.5541 145.234 64.5141C145.278 60.2401 145.16 61.9471 146.064 59.9921C146.177 59.7456 146.277 59.4932 146.364 59.2361C149.564 61.1741 152.831 58.4511 153.038 53.9211C153.141 51.7001 152.422 49.2511 150.414 48.2901ZM140.531 39.3001C137.565 39.9579 134.844 41.4345 132.676 43.5621C132.616 43.6315 132.532 43.6751 132.44 43.6841C132.349 43.693 132.258 43.6665 132.186 43.6101C132.114 43.5537 132.066 43.4717 132.052 43.381C132.039 43.2904 132.061 43.198 132.114 43.1231C133.241 40.9611 136.381 38.7361 140.427 38.5821C140.52 38.5721 140.614 38.5987 140.688 38.6563C140.762 38.7139 140.811 38.7981 140.825 38.891C140.838 38.984 140.815 39.0785 140.76 39.1548C140.705 39.2311 140.623 39.2832 140.531 39.3001ZM151.913 53.3001C151.943 54.8338 151.471 56.3353 150.568 57.5751C149.279 59.1751 147.555 56.8531 147.391 56.4951C147.009 55.6673 146.843 54.7564 146.908 53.8471C146.973 52.9379 147.268 52.0599 147.764 51.2951C149.611 48.4001 151.955 49.2561 151.913 53.3001Z" fill="#00143B"/>
<path d="M139.785 101.073C139.837 98.3224 140.024 94.5854 140.117 91.5734C140.13 91.0352 139.93 90.5136 139.56 90.1227C139.189 89.7318 138.679 89.5034 138.141 89.4874C135.076 89.3824 132.424 89.2364 129.305 89.2944C128.779 89.3042 128.277 89.5121 127.898 89.8767C127.519 90.2413 127.292 90.7355 127.262 91.2604C127.074 94.4204 126.93 97.4674 126.95 100.642C126.95 101.16 127.144 101.658 127.493 102.039C127.842 102.421 128.322 102.657 128.837 102.702C130.775 102.857 137.986 102.628 138.301 102.619C138.501 102.617 138.698 102.576 138.881 102.496C139.064 102.417 139.23 102.302 139.368 102.158C139.506 102.014 139.614 101.844 139.686 101.658C139.757 101.472 139.791 101.273 139.785 101.073ZM139.07 101.073C139.067 101.17 139.045 101.265 139.004 101.352C138.964 101.44 138.907 101.518 138.836 101.584C138.765 101.649 138.681 101.699 138.59 101.732C138.5 101.764 138.403 101.779 138.307 101.773C130.794 101.465 130.107 101.616 128.934 101.515C128.719 101.492 128.521 101.39 128.377 101.228C128.233 101.067 128.155 100.858 128.156 100.641C128.138 97.5464 128.295 94.4414 128.472 91.3344C128.484 91.1136 128.58 90.9055 128.739 90.7518C128.898 90.5981 129.109 90.5101 129.33 90.5054C132.06 90.4464 135.172 90.5734 138.11 90.6334C138.353 90.6379 138.585 90.7372 138.756 90.9103C138.927 91.0833 139.023 91.3163 139.024 91.5594C139.016 93.4994 138.969 101.062 139.07 101.077V101.073Z" fill="#00143B"/>
</svg>
