<svg width="200" height="200" viewBox="0 0 200 200" fill="none" xmlns="http://www.w3.org/2000/svg">
<path d="M109.843 51.5327C111.879 49.4057 113.143 51.4647 113.682 50.5327C113.84 50.2597 113.676 49.9837 113.475 49.7397C112.188 48.1847 109.544 49.0167 108.792 50.6207C108.691 50.7686 108.643 50.9465 108.656 51.1252C108.669 51.304 108.743 51.473 108.864 51.6047C109.005 51.7213 109.186 51.7789 109.368 51.7655C109.551 51.7521 109.721 51.6687 109.843 51.5327Z" fill="#191919"/>
<path d="M99.3637 49.8071C100.045 49.7954 100.721 49.9277 101.348 50.1955C101.974 50.4633 102.537 50.8606 103 51.3611C103.106 51.4696 103.251 51.5318 103.404 51.5346C103.556 51.5375 103.703 51.4805 103.814 51.3761C104.044 51.1561 103.962 50.8441 103.829 50.5631C103.472 49.6927 102.801 48.9888 101.948 48.5922C101.095 48.1956 100.124 48.1356 99.2287 48.4241C98.2497 48.7911 98.5087 49.7441 99.3637 49.8071Z" fill="#191919"/>
<path d="M105.275 53.8694C104.493 55.8874 103.897 60.1774 104.638 62.7744C104.855 63.5374 105.705 63.4554 105.788 62.6864C106.057 60.1864 106.588 54.8304 106.632 54.1704C106.665 54.077 106.678 53.9777 106.669 53.8791C106.661 53.7805 106.632 53.6847 106.584 53.5982C106.536 53.5117 106.47 53.4364 106.39 53.3772C106.311 53.318 106.22 53.2763 106.123 53.2549C106.027 53.2335 105.927 53.2328 105.83 53.2528C105.733 53.2729 105.641 53.3133 105.561 53.3714C105.481 53.4295 105.414 53.5039 105.365 53.5897C105.315 53.6756 105.285 53.7709 105.275 53.8694Z" fill="#191919"/>
<path d="M103.608 66.44C103.977 70.84 110.122 70.375 109.845 64.824C109.805 64.016 108.992 63.917 108.711 64.624C107.866 66.76 105.882 68.318 104.955 66.1C104.91 65.9214 104.796 65.768 104.638 65.6736C104.479 65.5792 104.29 65.5515 104.112 65.5965C103.933 65.6416 103.78 65.7558 103.685 65.914C103.591 66.0722 103.563 66.2614 103.608 66.44Z" fill="#191919"/>
<path d="M108.747 73.3564C108.347 72.7254 107.003 73.1564 105.888 73.2894C102.927 73.6894 100.472 72.5414 99.4629 69.5754C98.8931 67.4589 98.5647 65.2847 98.4839 63.0944C98.4575 62.8156 98.3302 62.556 98.1261 62.3644C97.9219 62.1727 97.6548 62.0621 97.3749 62.0534C92.9059 61.9224 93.9209 56.1324 97.0899 56.2054C97.2454 56.2118 97.4004 56.1841 97.5441 56.1244C97.6878 56.0646 97.8168 55.9742 97.9219 55.8594C98.027 55.7447 98.1058 55.6083 98.1528 55.46C98.1998 55.3116 98.2138 55.1547 98.1939 55.0004C97.9091 53.134 97.7963 51.2454 97.8569 49.3584C97.8613 49.1864 97.8021 49.0188 97.6908 48.8876C97.5794 48.7564 97.4236 48.6709 97.2532 48.6473C97.0828 48.6236 96.9096 48.6636 96.7668 48.7596C96.624 48.8555 96.5215 49.0007 96.4789 49.1674C96.1363 50.8038 95.98 52.4738 96.0129 54.1454C91.0129 55.1454 90.4859 63.2114 96.2769 64.2454C96.6039 67.9054 96.9529 71.9804 99.9969 74.0934C99.9741 75.9519 100.104 77.8091 100.385 79.6464L100.022 79.8224C99.8878 79.8818 99.7814 79.99 99.7244 80.1251C99.6674 80.2602 99.6641 80.412 99.7151 80.5494C99.7661 80.6869 99.8676 80.7998 99.9989 80.865C100.13 80.9302 100.282 80.9429 100.422 80.9004L101.322 80.6724C101.465 80.6271 101.588 80.5348 101.671 80.4107C101.755 80.2865 101.794 80.1377 101.783 79.9884L102.083 75.2154C103.427 75.6869 104.872 75.7905 106.27 75.5154C107.8 75.1594 109.117 73.9354 108.747 73.3564Z" fill="#191919"/>
<path d="M111.26 53.2871C111.969 53.2871 112.544 54.1051 112.544 55.1211C112.544 56.1371 111.969 56.9441 111.26 56.9441C110.551 56.9441 109.98 56.1251 109.98 55.1211C109.98 54.1171 110.555 53.2871 111.26 53.2871Z" fill="#191919"/>
<path d="M101.744 53.2871C102.454 53.2871 103.024 54.1051 103.024 55.1211C103.024 56.1371 102.454 56.9441 101.744 56.9441C101.034 56.9441 100.465 56.1251 100.465 55.1211C100.465 54.1171 101.034 53.2871 101.744 53.2871Z" fill="#191919"/>
<path d="M109.519 97.0073C109.284 96.7018 109.03 96.4112 108.758 96.1373C108.431 95.8033 106.248 93.7373 105.893 93.4223C105.561 93.1373 105.209 92.8683 104.841 92.6093C104.622 92.4603 104.356 92.3941 104.093 92.4224C103.829 92.4508 103.584 92.572 103.401 92.7643C101.855 94.3085 100.47 96.0059 99.268 97.8303C99.1735 97.9771 99.114 98.1436 99.0942 98.317C99.0745 98.4904 99.0949 98.6661 99.154 98.8303L100.842 103.466C101.292 104.606 102.634 104.215 106.603 104.036C106.797 104.018 106.982 103.948 107.14 103.834C107.299 103.721 107.424 103.567 107.503 103.389C108.833 100.24 109.156 99.2713 109.813 98.0333C109.869 97.9488 109.907 97.8531 109.922 97.7528C109.938 97.6524 109.931 97.5499 109.903 97.4523C109.875 97.3547 109.827 97.2643 109.76 97.1875C109.694 97.1107 109.612 97.0492 109.519 97.0073Z" fill="#57c2b4"/>
<path d="M108.323 112.238C108.287 110.094 108.058 107.959 107.639 105.856C107.574 105.623 107.432 105.42 107.237 105.277C107.041 105.135 106.804 105.063 106.562 105.073C105.122 105.241 103.669 105.254 102.226 105.11C101.954 105.055 101.671 105.103 101.431 105.243C101.192 105.383 101.012 105.607 100.926 105.871C100.311 107.714 99.8332 109.509 99.3772 111.134C98.9994 112.079 98.7706 113.077 98.6992 114.092C98.7502 115.809 100.999 120.273 101.884 122.841C101.927 123.064 102.027 123.272 102.175 123.445C102.322 123.618 102.512 123.75 102.726 123.827C102.939 123.904 103.169 123.925 103.393 123.887C103.617 123.848 103.828 123.752 104.003 123.608C104.894 122.866 105.303 120.166 105.903 118.908C107.183 115.997 107.495 115.084 108.348 112.894C108.399 112.791 108.423 112.677 108.419 112.563C108.415 112.448 108.382 112.337 108.323 112.238Z" fill="#57c2b4"/>
<path d="M25.7063 91.6421L25.9343 92.6321C25.9895 92.808 25.9731 92.9985 25.8886 93.1623C25.8042 93.3261 25.6586 93.45 25.4833 93.5071C25.3963 93.5356 25.3045 93.5464 25.2132 93.5388C25.1219 93.5312 25.0331 93.5054 24.952 93.4629C24.8709 93.4204 24.7991 93.362 24.741 93.2913C24.6828 93.2206 24.6394 93.1389 24.6133 93.0511L23.6913 91.4251C23.6074 91.2092 23.6042 90.9703 23.6823 90.7523C23.7604 90.5342 23.9145 90.3517 24.1163 90.2381C24.3953 90.0381 24.8163 89.7381 25.3853 89.3891C27.0993 88.3581 34.1063 84.6891 36.0513 83.8411C36.6053 83.6031 37.0923 83.4411 37.4803 83.3021C37.6042 83.2441 37.7389 83.213 37.8756 83.211C38.0124 83.209 38.148 83.2361 38.2734 83.2905C38.3989 83.3449 38.5114 83.4253 38.6035 83.5264C38.6955 83.6275 38.765 83.7471 38.8073 83.8771L39.1073 86.0111C39.1356 86.0812 39.1497 86.1561 39.149 86.2316C39.1483 86.3072 39.1327 86.3818 39.1031 86.4513C39.0735 86.5208 39.0306 86.5838 38.9766 86.6367C38.9227 86.6896 38.8589 86.7314 38.7888 86.7596C38.7188 86.7878 38.6438 86.802 38.5683 86.8013C38.4928 86.8005 38.4181 86.785 38.3486 86.7554C38.2791 86.7258 38.2161 86.6828 38.1632 86.6289C38.1103 86.575 38.0686 86.5112 38.0403 86.4411C37.8403 86.1411 37.6723 85.8461 37.5013 85.5301C36.8183 85.9721 27.0403 91.0571 25.7063 91.6421Z" fill="#191919"/>
<path d="M20.6268 79.9211C16.4332 78.1519 12.9849 74.9803 10.8718 70.9491C9.96597 69.0491 9.32983 67.032 8.98176 64.9561C8.92063 64.7824 8.931 64.5915 9.01061 64.4255C9.09022 64.2594 9.23254 64.1318 9.40626 64.0706C9.57997 64.0095 9.77086 64.0199 9.93692 64.0995C10.103 64.1791 10.2306 64.3214 10.2918 64.4951L12.8458 69.9131C14.8511 73.5721 18.0565 76.4279 21.9218 77.9991C22.082 78.0596 22.2266 78.1552 22.345 78.2789C22.4634 78.4027 22.5525 78.5514 22.6058 78.7141C23.5348 81.7801 22.6558 78.4141 24.5838 85.6811C24.6436 85.8212 24.6453 85.9792 24.5886 86.1205C24.5318 86.2618 24.4213 86.3748 24.2813 86.4346C24.1412 86.4944 23.9832 86.4962 23.8419 86.4394C23.7005 86.3827 23.5876 86.2722 23.5278 86.1321C22.2942 84.1971 21.3189 82.109 20.6268 79.9211Z" fill="#191919"/>
<path d="M12.7483 63.5189C13.6396 66.0479 15.0856 68.3454 16.9803 70.2429C17.2703 70.4869 18.8043 71.6049 19.2643 71.1749C19.7243 70.7449 18.5813 68.8749 18.3893 68.6009C17.497 67.4579 16.6662 66.2682 15.9003 65.0369C15.4863 64.3369 15.1493 63.5919 14.8003 62.8869C13.8753 60.9569 13.6183 60.8229 13.1793 60.9129C12.4003 61.0539 12.5813 62.7739 12.7483 63.5189Z" fill="#191919"/>
<path d="M17.2907 59.9007C17.7717 61.5437 21.5297 67.8197 22.8807 66.8477C23.4027 66.4717 22.6307 64.7107 22.3417 64.1797C21.8237 63.2797 20.7417 61.8277 19.6327 59.7397C19.2737 59.0657 18.1827 57.2117 17.4667 57.4817C16.7927 57.7267 17.1117 59.3237 17.2907 59.9007Z" fill="#191919"/>
<path d="M23.4785 62.2613C24.3523 63.5239 25.3953 64.6606 26.5785 65.6393C26.9715 65.9183 28.7785 66.9753 29.1895 66.4113C29.5375 65.9503 28.4095 64.5853 28.0035 64.1003C27.0656 63.0891 26.1836 62.0276 25.3615 60.9203C24.5743 59.7932 23.8695 58.6108 23.2525 57.3823C22.2035 55.5373 21.9695 55.2183 21.4245 55.3873C19.8385 55.8563 22.1805 60.4233 23.4785 62.2613Z" fill="#191919"/>
<path d="M32.4591 58.4416C33.226 59.8861 33.8926 61.3816 34.4541 62.9176C35.0193 64.5524 35.0643 66.3222 34.5831 67.9836C34.0381 69.9836 33.1311 71.0636 32.5161 72.5476C31.9424 73.9184 31.8086 75.4335 32.1331 76.8836C32.4934 78.2017 33.0299 79.4651 33.7281 80.6396C33.753 80.7111 33.7917 80.7769 33.8421 80.8334C33.8924 80.8899 33.9534 80.9359 34.0215 80.9688C34.0896 81.0017 34.1635 81.0209 34.239 81.0252C34.3146 81.0296 34.3902 81.019 34.4616 80.9941C34.5331 80.9692 34.5989 80.9305 34.6554 80.8802C34.7119 80.8299 34.7579 80.7689 34.7908 80.7008C34.8237 80.6327 34.8429 80.5588 34.8472 80.4832C34.8516 80.4077 34.841 80.3321 34.8161 80.2606C34.4741 78.3986 34.3361 77.5206 34.2461 76.5366C33.8811 72.8606 35.7211 72.5646 36.8001 68.5896C37.485 66.1744 37.2718 63.5928 36.2001 61.3226C35.523 59.9746 34.6465 58.7363 33.6001 57.6496C33.5481 57.5748 33.4819 57.5109 33.4052 57.4616C33.3285 57.4124 33.2429 57.3787 33.1532 57.3626C33.0635 57.3464 32.9715 57.3481 32.8824 57.3675C32.7934 57.3869 32.709 57.4236 32.6341 57.4756C32.5593 57.5276 32.4954 57.5939 32.4461 57.6706C32.3969 57.7472 32.3632 57.8329 32.3471 57.9226C32.3309 58.0123 32.3326 58.1043 32.352 58.1933C32.3714 58.2824 32.4081 58.3668 32.4601 58.4416H32.4591Z" fill="#191919"/>
<path d="M128.219 101.5C128 96.841 127.219 94.293 127.432 88.839C127.431 88.7478 127.447 88.6573 127.481 88.5726C127.515 88.4879 127.565 88.4107 127.628 88.3453C127.692 88.2799 127.767 88.2277 127.851 88.1916C127.935 88.1555 128.025 88.1363 128.116 88.135C128.207 88.1336 128.298 88.1503 128.382 88.184C128.467 88.2176 128.544 88.2676 128.61 88.3312C128.675 88.3947 128.727 88.4704 128.763 88.5541C128.799 88.6378 128.819 88.7278 128.82 88.819C129.151 94.259 130.303 96.672 130.493 102.665C130.498 102.821 130.47 102.977 130.411 103.122C130.352 103.267 130.263 103.398 130.15 103.506C130.036 103.615 129.901 103.697 129.754 103.75C129.606 103.802 129.449 103.823 129.293 103.81C127.493 103.674 125.066 103.698 123.243 103.758C124.279 105.571 127.643 111.373 128.195 112.394C128.316 112.616 128.361 112.872 128.321 113.122C128.282 113.372 128.161 113.603 127.978 113.777C118.13 123.036 116.863 124.007 110.278 129.229C110.163 129.327 110.015 129.376 109.864 129.367C109.714 129.357 109.573 129.288 109.472 129.176C109.371 129.064 109.318 128.916 109.325 128.766C109.331 128.615 109.396 128.472 109.506 128.369C118.771 118.894 118.096 120.024 125.741 112.736L120.327 103.251C120.233 103.081 120.184 102.89 120.185 102.695C120.185 102.501 120.235 102.31 120.33 102.141C120.425 101.971 120.562 101.828 120.727 101.726C120.892 101.624 121.081 101.566 121.275 101.557C123.386 101.456 126.1 101.387 128.219 101.5Z" fill="#191919"/>
<path d="M87.5437 107.219C85.8032 107.451 84.0916 107.864 82.4367 108.451C82.2496 108.528 82.0453 108.553 81.8452 108.524C81.6451 108.495 81.4565 108.412 81.2991 108.285C81.1418 108.158 81.0215 107.991 80.9509 107.802C80.8803 107.612 80.8619 107.407 80.8977 107.208C81.8187 102.145 81.9727 96.9571 83.4157 89.8291C83.4271 89.7372 83.4568 89.6484 83.5031 89.5681C83.5494 89.4879 83.6113 89.4177 83.6851 89.3617C83.759 89.3057 83.8433 89.2651 83.9331 89.2422C84.0228 89.2193 84.1163 89.2146 84.2079 89.2285C84.2996 89.2423 84.3875 89.2743 84.4665 89.3227C84.5456 89.371 84.6141 89.4347 84.6682 89.51C84.7222 89.5853 84.7606 89.6706 84.7812 89.761C84.8017 89.8513 84.8039 89.9449 84.7877 90.0361C84.2977 94.7361 84.3457 99.3541 83.4257 105.736C85.0767 105.253 87.8047 104.903 89.6987 104.488C89.9225 104.439 90.1557 104.459 90.3685 104.543C90.5813 104.628 90.7639 104.774 90.8928 104.964C91.0218 105.153 91.0913 105.376 91.0923 105.606C91.0934 105.835 91.0259 106.059 90.8987 106.249C89.0737 108.998 86.8927 112.823 85.4487 115.003C92.0347 121.387 94.0247 122.721 99.7097 129.259C99.7645 129.312 99.8081 129.376 99.838 129.447C99.8678 129.517 99.8834 129.593 99.8836 129.669C99.8839 129.745 99.869 129.821 99.8396 129.892C99.8103 129.962 99.7671 130.027 99.7127 130.08C99.6583 130.134 99.5938 130.176 99.5228 130.205C99.4518 130.233 99.3759 130.247 99.2995 130.246C99.223 130.245 99.1476 130.228 99.0775 130.198C99.0075 130.167 98.9443 130.123 98.8917 130.067C95.0317 126.59 91.2847 123.81 83.1747 115.982C82.9832 115.797 82.8628 115.55 82.8344 115.285C82.8061 115.02 82.8717 114.754 83.0197 114.532C84.5997 112.145 86.0257 109.653 87.5437 107.219Z" fill="#191919"/>
<path d="M165.683 120.921C158.469 101.39 140.325 90.3431 122.371 79.8881C122.238 79.8104 122.091 79.761 121.938 79.7428C121.785 79.7246 121.63 79.7381 121.483 79.7824C121.336 79.8267 121.199 79.9008 121.082 80.0002C120.965 80.0996 120.869 80.2221 120.801 80.3601C120.589 80.7854 120.379 81.2117 120.17 81.6391C119.265 80.2378 118.201 78.9456 117 77.7881C116.812 77.6419 116.58 77.564 116.342 77.5669C116.103 77.5698 115.873 77.6534 115.689 77.8041C111.521 81.0515 107.714 84.738 104.335 88.8001C101.979 85.5001 99.1269 81.5331 97.0749 77.9931C96.9365 77.748 96.7095 77.5653 96.4406 77.4825C96.1716 77.3997 95.8811 77.4232 95.6289 77.5481C93.976 78.4233 92.432 79.4903 91.0289 80.7271C90.8829 80.2411 90.8149 79.8571 90.3179 79.6091C90.1764 79.5393 90.0222 79.4987 89.8647 79.4898C89.7071 79.4808 89.5494 79.5037 89.4009 79.5571C87.8319 80.1574 86.3146 80.8849 84.8639 81.7321C82.9279 82.8321 74.4869 88.0881 68.7069 92.2691C57.3539 100.492 54.9749 103.625 50.4069 107.457C48.7129 104.546 47.1069 101.578 45.5579 98.5731C40.1769 88.0961 40.7579 87.9261 39.8289 87.6481C39.6776 87.6024 39.5185 87.5885 39.3615 87.6073C39.2046 87.626 39.0532 87.677 38.9169 87.7571C35.3999 89.8601 23.5999 96.8001 21.2279 98.1331C21.0269 98.2482 20.8661 98.4222 20.767 98.6316C20.668 98.841 20.6355 99.0757 20.6739 99.3041C21.6527 105.492 23.362 111.541 25.7659 117.326C31.5139 130.576 41.0889 137.519 52.3659 139.207C59.6453 140.185 67.0536 139.168 73.7999 136.264C73.5999 140.347 73.6319 144.492 73.7629 148.564C73.7725 148.744 73.8519 148.914 73.9843 149.037C74.1168 149.16 74.2918 149.226 74.4724 149.222C74.653 149.218 74.8249 149.144 74.9518 149.015C75.0786 148.887 75.1504 148.714 75.1519 148.533C75.0049 139.516 75.7099 128.957 75.4989 120.844C75.4975 120.769 75.4813 120.694 75.4511 120.625C75.4209 120.556 75.3774 120.493 75.3231 120.441C75.2687 120.388 75.2045 120.347 75.1342 120.319C75.064 120.292 74.9889 120.278 74.9134 120.28C74.8379 120.281 74.7634 120.297 74.6942 120.327C74.6249 120.358 74.5623 120.401 74.5099 120.455C74.4575 120.51 74.4163 120.574 74.3886 120.644C74.361 120.715 74.3475 120.79 74.3489 120.865C73.9273 125.385 73.7827 129.927 73.9159 134.465C59.8869 140.365 43.9649 138.608 33.9739 126.714C27.7499 119.343 24.7089 109.186 23.0179 99.6991C25.1699 98.4851 35.8359 92.2331 38.9999 90.3421C42.1209 96.9951 45.4199 103.517 49.1119 109.768C49.1953 109.909 49.3082 110.031 49.443 110.124C49.5779 110.218 49.7313 110.281 49.8928 110.309C50.0544 110.338 50.2202 110.331 50.3788 110.289C50.5375 110.248 50.6852 110.172 50.8119 110.068C56.3519 105.602 58.0059 102.837 70.0459 94.1191C73.7099 91.4751 84.8629 84.0001 89.0569 82.1781C91.9479 91.9271 94.3459 101.878 97.3569 111.617C103.24 130.663 103.782 124.517 104.076 139.353C104.188 145.035 103.998 149.864 105.107 149.864C105.914 149.864 106.331 144.443 106.339 144.342C106.457 140.567 106.344 136.789 106 133.028C105.718 129.984 105.124 126.977 104.225 124.055C105.874 120.117 121.025 85.0121 122.281 82.4371C139.331 92.3101 156.986 103.283 164.028 121.542C166.663 128.347 166.915 136.49 162.313 142.232C160.519 144.479 157.72 146.102 155.129 147.376C155.061 147.409 155 147.455 154.95 147.511C154.899 147.568 154.861 147.633 154.836 147.705C154.811 147.776 154.8 147.851 154.805 147.927C154.809 148.002 154.828 148.076 154.861 148.144C154.894 148.212 154.94 148.273 154.996 148.323C155.052 148.374 155.118 148.412 155.189 148.437C155.261 148.462 155.336 148.473 155.412 148.468C155.487 148.464 155.561 148.445 155.629 148.412C158.482 147.024 161.27 145.565 163.353 143.081C168.43 137 168.414 128.348 165.683 120.921ZM102.977 121.055C98.2339 108.329 95.2839 95.2001 91.4659 82.2001C93.0039 81.3361 94.9779 80.3151 95.6709 79.9821C97.7289 83.5121 99.7879 86.3821 102.187 89.7361C99.7701 92.2982 97.7768 95.2289 96.2819 98.4181C96.2374 98.4799 96.2056 98.55 96.1884 98.6243C96.1712 98.6985 96.1689 98.7755 96.1817 98.8506C96.1945 98.9258 96.2221 98.9976 96.263 99.062C96.3038 99.1263 96.357 99.1819 96.4195 99.2256C96.482 99.2692 96.5526 99.2999 96.6271 99.316C96.7016 99.3321 96.7785 99.3333 96.8535 99.3194C96.9284 99.3054 96.9999 99.2768 97.0636 99.235C97.1274 99.1932 97.1822 99.1392 97.2249 99.0761C102.157 93.4441 102.115 92.9131 104.472 90.6941C104.587 90.5851 104.077 90.2941 107.812 94.4051C109.121 95.7682 110.352 97.2038 111.5 98.7051C111.546 98.786 111.609 98.8568 111.683 98.9134C111.757 98.9699 111.842 99.0111 111.932 99.0344C112.023 99.0576 112.117 99.0626 112.209 99.049C112.301 99.0354 112.39 99.0035 112.47 98.9551C104.377 117.862 106.51 113.077 102.977 121.055ZM116.616 89.3421C112.203 99.3241 112.91 98.3721 112.707 98.0171C110.907 94.1801 108.692 92.1621 106.621 89.6251C109.642 86.1696 112.914 82.9422 116.411 79.9691C117.869 81.0691 119.324 82.5841 119.676 82.6611C118.616 84.8691 117.6 87.1001 116.616 89.3421Z" fill="#191919"/>
<path d="M163.072 39.1003C160.353 38.3643 159.183 34.9373 160.803 33.1173C161.188 32.6877 161.677 32.3638 162.222 32.1762C162.768 31.9885 163.353 31.9435 163.921 32.0453C164.105 32.0404 164.283 32.1088 164.417 32.2355C164.55 32.3622 164.628 32.5367 164.633 32.7208C164.638 32.9049 164.57 33.0833 164.443 33.217C164.316 33.3506 164.142 33.4284 163.958 33.4333C163.75 33.4818 163.547 33.5488 163.351 33.6333C163.193 33.7064 163.045 33.7987 162.911 33.9083C162.637 34.136 162.441 34.4436 162.351 34.788C162.261 35.1324 162.28 35.4964 162.407 35.8291C162.534 36.1618 162.761 36.4466 163.058 36.6437C163.354 36.8408 163.705 36.9403 164.061 36.9283C164.348 36.9289 164.625 37.0363 164.837 37.2297C165.05 37.423 165.183 37.6884 165.211 37.9743C165.299 38.6799 165.517 39.363 165.854 39.9893C166.816 41.8573 167.501 41.6483 167.501 42.5643C167.454 42.9943 167.444 43.4183 167.401 43.8433C167.334 44.5323 167.215 45.1693 167.116 45.8533C167.124 46.0057 167.071 46.1551 166.969 46.2687C166.867 46.3822 166.724 46.4508 166.572 46.4593C166.496 46.464 166.42 46.4536 166.349 46.4288C166.277 46.4039 166.211 46.365 166.155 46.3143C166.098 46.2637 166.053 46.2023 166.02 46.1338C165.988 46.0653 165.969 45.991 165.966 45.9153C165.662 44.9951 165.456 44.0456 165.35 43.0823C164.238 41.9902 163.45 40.6122 163.072 39.1003Z" fill="#191919"/>
<path d="M171.841 42.4767C171.902 43.6734 171.807 44.873 171.561 46.0457C171.57 46.1982 171.518 46.348 171.416 46.4622C171.315 46.5764 171.172 46.6456 171.02 46.6547C170.867 46.6637 170.717 46.6118 170.603 46.5103C170.489 46.4088 170.42 46.2662 170.411 46.1137C169.99 44.8416 169.716 43.5258 169.593 42.1917C169.511 41.3917 170.193 41.3117 171.048 39.5137C171.351 38.8984 171.541 38.2334 171.608 37.5507C171.626 37.262 171.752 36.9908 171.961 36.791C172.171 36.5913 172.447 36.4776 172.737 36.4727C173.364 36.4939 173.979 36.2923 174.472 35.9037C174.626 35.7363 174.728 35.5277 174.766 35.3033C174.804 35.0789 174.775 34.8483 174.685 34.6397C174.573 34.2928 174.388 33.9745 174.141 33.7067C173.96 33.5052 173.751 33.3322 173.519 33.1937C173.422 33.1748 173.33 33.1356 173.249 33.0788C173.169 33.022 173.101 32.9487 173.051 32.8639C173 32.7791 172.969 32.6846 172.957 32.5866C172.946 32.4886 172.956 32.3893 172.985 32.2953C173.015 32.2012 173.065 32.1146 173.13 32.0409C173.196 31.9673 173.276 31.9083 173.366 31.868C173.456 31.8276 173.554 31.8067 173.652 31.8066C173.751 31.8066 173.849 31.8274 173.939 31.8677C174.702 32.006 175.409 32.3624 175.975 32.8937C177.78 34.4937 177.355 37.9307 173.763 38.6697C173.43 40.0722 172.772 41.3765 171.841 42.4767Z" fill="#191919"/>
<path d="M167.344 31.515C166.908 33.2984 166.937 35.1638 167.427 36.933C167.532 37.226 167.701 37.501 168.017 37.488C168.333 37.475 168.49 37.201 168.577 36.888C168.931 35.1502 168.983 33.3646 168.732 31.609C168.574 30.659 167.631 30.6 167.344 31.515Z" fill="#191919"/>
<path d="M162.816 30.5541C162.482 29.2613 162.482 27.9049 162.816 26.6121C163.332 24.4461 165.633 22.8281 167.872 22.5121C170.065 22.2021 171.996 24.0931 174.472 24.7711C175.123 24.9879 175.813 25.0672 176.497 25.0038C177.181 24.9405 177.844 24.7359 178.445 24.4031C178.927 24.1604 179.336 23.7933 179.629 23.3398C179.923 22.8862 180.089 22.3626 180.113 21.8231C180.106 21.5767 180.044 21.335 179.933 21.1154C179.821 20.8959 179.661 20.7041 179.466 20.5541C179.352 20.4532 179.203 20.4013 179.051 20.4097C178.9 20.4181 178.758 20.4861 178.656 20.5988C178.554 20.7116 178.501 20.86 178.508 21.0117C178.515 21.1635 178.582 21.3063 178.694 21.4091C178.787 21.5181 178.725 21.6571 178.704 21.7871C178.462 22.1243 178.141 22.396 177.768 22.5778C177.396 22.7596 176.984 22.8456 176.57 22.8281C173.712 22.9731 171.298 19.6881 167.541 20.2381C164.341 20.7091 161.37 23.0001 160.693 26.1381C160.416 27.8249 160.707 29.556 161.522 31.0591C161.588 31.2314 161.72 31.3704 161.889 31.4455C162.058 31.5205 162.249 31.5254 162.422 31.4591C162.594 31.3928 162.733 31.2607 162.808 31.0919C162.883 30.9231 162.888 30.7314 162.822 30.5591L162.816 30.5541Z" fill="#191919"/>
<path d="M168.51 25.9005C168.762 25.8343 169.03 25.8702 169.256 26.0005C169.416 26.0745 169.568 26.1668 169.707 26.2755C171.73 27.5845 172.507 30.6235 175.107 32.0825C175.867 32.4641 176.705 32.664 177.555 32.6666C178.406 32.6692 179.245 32.4744 180.007 32.0975C181.226 31.4975 182.646 30.0975 182.068 28.8655C182.035 28.7164 181.943 28.5868 181.814 28.5051C181.685 28.4235 181.529 28.3964 181.38 28.43C181.231 28.4635 181.101 28.5549 181.019 28.684C180.938 28.8132 180.911 28.9694 180.944 29.1185C180.944 29.2325 180.851 29.2845 180.81 29.3625C179.936 29.8696 178.978 30.2136 177.981 30.3775C177.406 30.4402 176.824 30.3468 176.297 30.1072C175.77 29.8675 175.318 29.4904 174.987 29.0155C173.51 27.3315 172.07 24.3325 169.61 24.2085C169.292 24.1683 168.969 24.1919 168.66 24.2777C168.351 24.3635 168.062 24.51 167.81 24.7085C167.728 24.7528 167.656 24.8131 167.598 24.8859C167.539 24.9586 167.496 25.0424 167.471 25.1321C167.446 25.2218 167.439 25.3157 167.451 25.4081C167.463 25.5006 167.493 25.5897 167.54 25.6702C167.587 25.7507 167.65 25.821 167.724 25.8767C167.799 25.9325 167.884 25.9727 167.975 25.995C168.065 26.0172 168.159 26.021 168.251 26.0061C168.343 25.9913 168.431 25.9581 168.51 25.9085V25.9005Z" fill="#191919"/>
<path d="M176.088 27.6193C176.415 27.8557 176.786 28.0251 177.179 28.1179C177.572 28.2107 177.979 28.225 178.378 28.16C178.776 28.0949 179.158 27.9518 179.501 27.7389C179.844 27.526 180.142 27.2475 180.377 26.9193C180.541 26.6473 180.67 26.3623 180.477 26.1113C180.377 25.9993 180.24 25.9274 180.091 25.909C179.942 25.8906 179.792 25.9269 179.668 26.0113C179.209 26.2745 178.7 26.4396 178.174 26.4958C177.648 26.5521 177.116 26.4985 176.612 26.3383C176.441 26.2728 176.251 26.2761 176.082 26.3475C175.913 26.4188 175.778 26.5528 175.706 26.7213C175.56 27.0703 175.792 27.3723 176.088 27.6193Z" fill="#191919"/>
<path d="M193.9 28.5915C193.614 24.2745 193.53 19.7355 190.166 16.9825C185.096 12.8365 176.866 14.9925 156.422 17.1025C147.472 18.0235 147.862 17.4025 147.439 17.9655C147.366 17.9652 147.294 17.9763 147.225 17.9985C145.942 18.4091 144.784 19.1388 143.86 20.1191C142.935 21.0994 142.275 22.2983 141.941 23.6035C140.774 27.2325 141.049 31.5885 141.133 34.7305C141.711 56.5075 142.033 59.1365 143.562 62.1385C146.562 68.0065 153.562 66.1015 159.419 65.8575C159.419 65.8575 176.404 64.7805 177.575 64.7025C181.401 64.4285 185.89 64.4395 189.557 62.6025C192.987 60.8735 194.582 58.0185 194.442 54.0865C194.423 53.4936 194.361 52.9028 194.259 52.3185C194.347 52.3434 194.439 52.3474 194.528 52.3301C194.618 52.3128 194.702 52.2747 194.774 52.2188C194.846 52.1629 194.904 52.0908 194.943 52.0084C194.982 51.926 195.001 51.8356 194.999 51.7445C194.776 35.7005 194.67 41.1065 193.9 28.5915ZM193.628 51.8915C193.553 51.9011 193.48 51.9255 193.414 51.9632C193.348 52.0009 193.29 52.0513 193.244 52.1114C193.197 52.1714 193.163 52.2401 193.143 52.3134C193.124 52.3867 193.118 52.4631 193.128 52.5385C193.178 53.0515 193.192 53.5674 193.17 54.0825C192.842 62.0965 185.286 62.0355 177.437 62.4825L170.122 62.9175C170.622 59.8785 170.231 59.4975 170.06 55.2655C170.06 54.8933 170.025 54.5219 169.955 54.1565C171.141 55.3715 172.655 56.1515 174.035 57.5635C174.173 57.7007 174.344 57.8007 174.531 57.854C174.719 57.9073 174.917 57.9122 175.106 57.8682C175.296 57.8243 175.472 57.7329 175.617 57.6026C175.762 57.4724 175.871 57.3075 175.935 57.1235C176.913 54.2325 178.369 52.7555 178.92 50.0115C182.297 51.8036 184.978 54.6734 186.536 58.1645C186.589 58.3044 186.694 58.4184 186.829 58.4825C186.964 58.5466 187.118 58.5558 187.26 58.5081C187.402 58.4604 187.519 58.3595 187.588 58.2268C187.657 58.094 187.672 57.9398 187.629 57.7965C185.812 50.8555 179.445 46.0815 172.834 46.2965C172.665 46.3029 172.499 46.3465 172.349 46.4243C172.198 46.5021 172.067 46.6121 171.964 46.7465C171.292 47.6295 169.764 49.6255 168.887 50.8755C164.673 46.3755 165.1 46.0525 164.241 45.9335C159.308 45.3075 155.113 48.1075 152.378 52.1445C151.017 54.2532 149.95 56.538 149.208 58.9355C149.166 59.1035 149.189 59.2809 149.27 59.4335C149.352 59.5861 149.487 59.703 149.65 59.7617C149.813 59.8203 149.992 59.8166 150.152 59.7512C150.312 59.6858 150.443 59.5633 150.518 59.4075C151.409 57.2379 152.604 55.206 154.067 53.3725C155.58 51.199 157.702 49.5225 160.167 48.5545C159.753 51.6865 160.487 54.3775 161.002 57.8605C161.036 58.0693 161.127 58.2648 161.264 58.4256C161.402 58.5864 161.581 58.7063 161.782 58.7721C161.983 58.838 162.198 58.8473 162.404 58.799C162.61 58.7508 162.799 58.6468 162.95 58.4985C164.335 57.1125 166.083 55.6925 167.05 54.7525C168.093 53.7285 168.121 53.5275 168.061 53.7165C167.877 54.2759 167.8 54.8646 167.833 55.4525C167.808 57.9933 168.091 60.5277 168.676 63.0005L159.318 63.5565C153.807 63.7865 147.855 65.4865 145.606 61.0915C144.905 59.4881 144.521 57.7639 144.477 56.0145C144.342 54.3255 143.13 31.2225 143.13 29.2745C143.13 25.1235 143.738 20.7425 147.663 19.3135C147.795 19.2691 147.911 19.1862 147.996 19.0755C160.466 19.5155 165.675 18.0165 176.332 17.2255C180.244 16.9115 185.646 16.2485 188.698 18.7585C191.391 20.9695 191.379 25.2585 191.63 28.7405C191.852 31.8335 192.096 34.9205 192.396 37.9875C192.578 39.8365 193.685 49.0055 193.847 51.7875C193.861 52.0255 193.942 51.8565 193.626 51.8925L193.628 51.8915ZM170.638 52.3915C171.494 51.1695 172.566 49.7455 173.46 48.5695C174.896 48.5909 176.315 48.8802 177.645 49.4225C176.306 51.054 175.208 52.8692 174.385 54.8125C173.221 53.8792 171.965 53.0676 170.636 52.3905L170.638 52.3915ZM167.183 52.4135C165.612 53.156 164.175 54.1528 162.929 55.3635C162.163 50.5635 162.49 52.2305 161.777 48.1805C162.344 48.1091 162.918 48.0971 163.488 48.1445C164.672 49.6635 165.869 50.9885 167.181 52.4125L167.183 52.4135Z" fill="#191919"/>
<path d="M148.411 26.0204C148.411 26.7484 148.7 27.4466 149.215 27.9614C149.73 28.4762 150.428 28.7654 151.156 28.7654C151.884 28.7654 152.582 28.4762 153.097 27.9614C153.612 27.4466 153.901 26.7484 153.901 26.0204C153.901 25.2924 153.612 24.5942 153.097 24.0794C152.582 23.5646 151.884 23.2754 151.156 23.2754C150.428 23.2754 149.73 23.5646 149.215 24.0794C148.7 24.5942 148.411 25.2924 148.411 26.0204Z" fill="#57c2b4"/>
<path d="M32.116 22.54C27.916 14.667 14.916 17.24 14.835 26.684C14.8302 28.069 15.1401 29.437 15.7412 30.6847C16.3423 31.9325 17.2189 33.0274 18.305 33.8868C19.3911 34.7463 20.6581 35.3478 22.0106 35.6461C23.3631 35.9443 24.7657 35.9315 26.1125 35.6085C27.4593 35.2856 28.7151 34.6609 29.7853 33.7817C30.8554 32.9025 31.7119 31.7917 32.29 30.5332C32.8682 29.2747 33.1529 27.9013 33.1228 26.5166C33.0927 25.1319 32.7484 23.7722 32.116 22.54Z" fill="#57c2b4"/>
<path d="M41.7496 146.763C42.1286 145.145 42.7546 140.819 42.7706 140.19C42.7776 139.89 42.7176 137.958 42.0866 137.848C41.4556 137.738 40.7496 139.579 40.6676 139.838C40.1891 142.01 39.8276 144.206 39.5846 146.416C39.2896 149.856 40.9996 149.966 41.7496 146.763Z" fill="#191919"/>
<path d="M49.7727 102.001C50.0857 99.9838 52.7307 86.5378 53.0357 84.8078C53.6427 81.3468 54.0467 74.2398 55.1707 68.6078C56.5517 61.7008 57.8997 59.8008 65.9607 59.3248C68.3537 59.1698 88.5257 58.2578 90.2147 58.2108C90.3644 58.209 90.5077 58.149 90.6141 58.0436C90.7206 57.9383 90.7819 57.7957 90.7853 57.6459C90.7887 57.4961 90.7338 57.3509 90.6322 57.2409C90.5306 57.1308 90.3902 57.0645 90.2407 57.0558C82.1122 56.4474 73.9498 56.4424 65.8207 57.0408C61.8687 57.2788 57.5927 57.8778 55.3617 61.1278C52.0707 65.9208 51.7517 79.0608 50.8447 84.4278C49.6267 91.6938 49.0667 95.2708 48.3947 101.818C48.3914 101.989 48.4513 102.156 48.5629 102.287C48.6746 102.417 48.8303 102.502 49.0004 102.525C49.1705 102.548 49.3431 102.508 49.4855 102.412C49.6279 102.316 49.7301 102.171 49.7727 102.005V102.001Z" fill="#191919"/>
<path d="M127.4 57.4991C129.337 57.4861 135.816 57.3991 137.745 57.0791C137.981 57.0391 140.745 56.5261 140.656 55.7431C140.562 54.9431 137.566 54.9811 136.647 54.9921C135.6 55.0021 130.347 55.1371 128.768 55.2091C127.602 55.2691 123.168 55.3821 123.277 56.6701C123.362 57.5671 125.205 57.5201 127.4 57.4991Z" fill="#191919"/>
<path d="M188.28 67.1644C187.27 74.9104 187.339 79.6884 186.793 84.1914C185.726 93.6764 180.136 141.919 180.012 143.504C180.002 143.58 180.007 143.656 180.027 143.729C180.046 143.802 180.08 143.871 180.126 143.931C180.173 143.991 180.23 144.042 180.296 144.08C180.362 144.118 180.434 144.142 180.509 144.152C180.584 144.162 180.661 144.157 180.734 144.137C180.807 144.117 180.876 144.083 180.936 144.037C180.996 143.991 181.047 143.933 181.084 143.868C181.122 143.802 181.147 143.73 181.157 143.654C181.468 141.883 182.695 134.822 182.965 133.054C183.322 130.691 188.248 91.3694 189.005 84.4384C189.698 77.6514 189.248 72.7864 189.663 67.3224C189.673 67.2315 189.665 67.1396 189.639 67.0518C189.614 66.964 189.571 66.8822 189.514 66.811C189.456 66.7398 189.385 66.6806 189.305 66.6369C189.225 66.5932 189.137 66.5659 189.046 66.5564C188.864 66.5377 188.682 66.5909 188.539 66.7045C188.396 66.8181 188.303 66.9831 188.28 67.1644Z" fill="#191919"/>
<path d="M146.037 129.147C145.555 128.016 141.891 129.518 140.588 129.981C139.702 130.281 138.833 130.633 137.988 131.035C137.5 120.967 137.541 120.158 136.628 120.158C135.773 120.146 135.646 121.458 135.566 125.115C135.466 128.758 136.098 139.835 136.375 142.65C136.59 144.685 136.951 147.973 137.742 147.934C138.678 147.903 138.561 143.213 138.535 141.997C138.475 139.697 138.341 138.239 138.098 133.297C138.875 133.066 143.662 131.378 144.476 130.936C144.722 130.799 146.344 129.876 146.037 129.147Z" fill="#191919"/>
<path d="M177.435 149.924C174.372 149.924 43.6346 150.399 38.7146 152.799C30.8736 156.642 22.1626 159.924 14.1346 163.237C11.6856 164.247 6.13463 165.204 5.18863 168.609C4.15563 172.353 7.53463 176.169 10.6946 178.446C18.1946 183.83 29.9946 181.983 38.5176 182.134C50.3746 182.362 97.8356 183.916 109.688 184.398C122.421 184.898 142.46 187.685 154.295 180.746C156.149 179.611 157.938 178.371 159.651 177.032C168.8 170.082 179.811 161.921 178.01 150.54C178.008 150.384 177.948 150.235 177.841 150.121C177.735 150.007 177.59 149.937 177.435 149.924ZM176.943 151.324C174.57 151.365 46.3866 154.147 42.0426 154.541C41.259 154.567 40.4798 154.671 39.7166 154.851C31.4966 158.851 23.0776 162.018 15.0066 165.357C13.1066 166.145 7.96263 167.219 7.40663 169.216C6.69363 171.84 9.81663 174.968 12.0426 176.572C18.8316 181.446 30.4426 179.667 38.5656 179.83C50.4326 180.063 97.9246 181.664 109.783 182.166C117.455 182.503 125.841 183.394 133.983 183.197C148.951 182.84 153.612 179.216 158.583 175.597C167.031 169.423 177.909 161.838 176.943 151.328V151.324Z" fill="#191919"/>
<path d="M14.9096 173.009C19.6656 173.209 21.2376 172.966 25.1096 173.076C28.2596 173.144 50.2856 173.599 51.0206 173.63C54.0156 173.76 56.9986 173.978 59.9926 174.055C66.7836 174.226 73.0426 174.019 80.1236 174.211C85.5006 174.361 90.8727 174.765 96.2496 174.998C97.6016 175.055 142.705 175.817 145.466 175.827C145.617 175.832 145.765 175.776 145.876 175.672C145.987 175.568 146.052 175.425 146.057 175.273C146.059 175.197 146.047 175.121 146.021 175.049C145.994 174.978 145.953 174.912 145.901 174.857C145.849 174.801 145.787 174.756 145.717 174.724C145.648 174.693 145.573 174.675 145.497 174.673C131.239 173.851 128.628 173.199 117.525 173.036C110.153 172.922 103.546 173.036 96.3476 172.699C90.9606 172.466 85.5776 172.057 80.1856 171.906C78.8386 171.87 65.4016 171.906 60.0446 171.782C52.8936 171.608 53.0026 171.018 25.1206 171.238C21.6266 171.291 18.4206 171.638 14.9516 171.622C14.8605 171.619 14.7697 171.634 14.6845 171.667C14.5992 171.699 14.5212 171.748 14.4548 171.81C14.3884 171.873 14.3349 171.948 14.2975 172.031C14.2601 172.114 14.2394 172.204 14.2366 172.295C14.2339 172.386 14.2491 172.477 14.2814 172.562C14.3138 172.647 14.3626 172.725 14.4251 172.792C14.4876 172.858 14.5625 172.912 14.6457 172.949C14.7288 172.987 14.8185 173.007 14.9096 173.01V173.009Z" fill="#191919"/>
<path d="M174.6 154.353C173.169 155.328 171.6 156.286 170.01 157.445C168.555 158.466 167.266 159.545 160.074 164.434C152.427 169.634 154.197 168.224 149.491 172.095C149.365 172.178 149.276 172.309 149.245 172.457C149.215 172.606 149.244 172.761 149.326 172.888C149.409 173.015 149.539 173.104 149.687 173.136C149.835 173.168 149.99 173.14 150.118 173.059C152.513 171.964 154.817 170.68 157.008 169.22C161.276 166.482 169.828 160.734 173.797 157.052C174.372 156.523 174.916 155.98 175.475 155.43C175.613 155.312 175.7 155.145 175.717 154.965C175.733 154.784 175.679 154.604 175.564 154.463C175.45 154.323 175.285 154.232 175.105 154.212C174.925 154.191 174.744 154.241 174.6 154.353Z" fill="#191919"/>
<path d="M166.21 153.68C168.442 154.492 169.123 156.69 166.893 157.637C165.161 158.248 163.298 158.393 161.493 158.057C160.437 157.778 159.102 157.035 158.815 156.104C158.351 154.646 160.207 153.662 161.747 153.566C164.573 153.414 165.018 153.344 166.21 153.68Z" fill="#191919"/>
<path d="M45.9059 157.475C40.4669 160.189 33.0799 164.408 27.6299 167.117C43.0359 168.496 73.0379 168.204 93.2299 168.837C97.7519 168.972 102.249 169.49 106.771 169.578C112.511 169.697 118.292 170.078 124.026 170.065C127.926 170.065 131.786 169.879 135.671 170.265L136.334 169.312C141.261 165.359 152.916 157.566 152.807 157.478L45.9059 157.475ZM136.297 164.392C136.023 164.381 134.604 164.371 132.371 164.344C131.861 164.96 131.314 165.544 130.732 166.094C129.832 166.839 129.309 167.214 128.832 166.835C128.232 166.373 129.008 164.919 129.455 164.31L120.88 164.21C120.634 164.543 120.38 164.87 120.152 165.21C119.741 165.834 118.794 167.038 118.117 166.722C117.44 166.406 117.8 164.867 118.175 164.177L109.498 164.077C109.329 164.29 108.825 164.934 108.737 165.038C107.098 166.86 105.818 166.282 106.837 164.048L98.4519 163.957C98.1779 164.3 97.5059 165.167 97.4269 165.257C97.0739 165.644 96.1269 166.468 95.5819 166.138C95.0369 165.808 95.3699 164.438 95.6679 163.931L86.4749 163.836C85.7419 164.706 85.8949 164.527 85.8349 164.593C84.2959 166.277 83.1609 165.761 83.8739 163.811C79.7389 163.771 76.3379 163.74 74.1889 163.726C73.9789 163.965 73.3699 164.66 73.2709 164.763C71.2169 166.622 70.3839 165.619 71.3709 163.722C65.3319 163.739 65.1139 163.887 62.2029 163.808C61.4899 164.482 59.5979 166.45 58.8099 165.754C58.3299 165.33 58.8209 164.327 59.2579 163.68C57.7079 163.597 51.5369 163.214 50.2119 163.164C49.7369 163.624 48.6069 164.753 48.5039 164.841C46.1179 166.876 45.4129 165.072 47.1869 163.001C47.0718 162.917 46.9854 162.8 46.9395 162.665C46.8935 162.531 46.8903 162.385 46.9303 162.249C46.9702 162.112 47.0514 161.991 47.1627 161.903C47.274 161.814 47.4099 161.762 47.5519 161.754C48.9759 161.626 47.9279 161.954 49.7979 160.438C50.6219 159.77 52.0239 159.299 52.3679 159.713C52.6149 160.013 52.1559 161.013 51.7739 161.574C54.0849 161.542 56.7019 161.583 61.1199 161.639C61.9408 160.852 62.8273 160.136 63.7699 159.5C64.0519 159.345 65.6139 158.67 65.9769 159.174C66.2519 159.555 65.3689 160.797 65.2929 160.899C65.093 161.168 64.8624 161.414 64.6059 161.631C68.4559 161.503 70.3809 161.485 73.1059 161.479C73.2549 161.315 73.3989 161.146 73.5499 160.986C74.7439 159.748 76.3499 158.705 76.9169 159.375C77.2169 159.718 76.5689 161.003 76.2029 161.482C79.3649 161.5 82.4029 161.548 85.3809 161.567C85.7229 161.175 86.0689 160.783 86.4459 160.427C87.1239 159.77 88.4179 159.234 88.7659 159.551C89.0889 159.838 88.7079 161.03 88.3869 161.57C88.6259 161.57 94.5209 161.557 97.4519 161.564C97.5439 161.464 97.6349 161.354 97.7309 161.257C98.5309 160.398 99.4169 160.036 99.9739 160.407C100.262 160.598 100.195 161.1 100.038 161.575C102.75 161.589 105.566 161.619 108.468 161.67C108.775 161.288 109.088 160.915 109.432 160.558C110.165 159.803 111.489 159.191 111.871 159.548C112.205 159.859 111.688 161.267 111.371 161.73C113.38 161.776 118.945 161.962 119.676 161.992C119.924 161.685 120.164 161.371 120.439 161.092C121.256 160.251 122.554 159.792 122.899 160.134C123.186 160.421 122.754 161.596 122.452 162.126C124.581 162.236 125.499 162.27 130.766 162.709C131.536 161.77 132.365 160.881 133.247 160.048C133.347 159.973 134.837 158.97 135.272 159.348C135.726 159.748 134.898 161.305 134.811 161.448C134.433 161.986 134.019 162.499 133.572 162.982C134.501 163.074 135.428 163.156 136.361 163.253C136.438 163.254 136.515 163.271 136.585 163.302C136.656 163.334 136.72 163.379 136.772 163.436C136.825 163.493 136.866 163.56 136.892 163.632C136.918 163.705 136.929 163.783 136.925 163.86C136.92 163.937 136.9 164.013 136.866 164.082C136.831 164.152 136.783 164.213 136.724 164.263C136.665 164.314 136.597 164.351 136.523 164.374C136.449 164.398 136.371 164.405 136.294 164.398L136.297 164.392Z" fill="#57c2b4"/>
<path d="M118.748 53.8718C119.515 51.3048 120.206 48.7198 119.204 46.2368C118.419 44.3228 116.94 43.2318 115.195 42.1448C113.708 41.3987 112.426 40.3001 111.46 38.9448C110.233 37.1578 109.502 35.2118 107.16 33.1538C105.423 31.4892 103.131 30.5273 100.726 30.4538C98.509 30.3413 96.321 30.9995 94.5337 32.3166C92.7463 33.6337 91.4697 35.5286 90.9204 37.6798C90.3736 39.8222 90.6993 42.0941 91.8259 43.9966C92.9525 45.8992 94.7879 47.2771 96.9294 47.8278C97.0917 47.8753 97.263 47.8842 97.4294 47.8538C100.942 47.1402 104.536 46.9084 108.111 47.1648C110.235 47.3481 112.291 47.9968 114.135 49.0648C114.058 50.4888 113.861 51.9808 114.312 53.0328C115.49 55.7838 118.501 53.7668 118.86 57.2958C118.861 58.0828 118.601 58.8478 118.121 59.4718C117.642 60.0958 116.969 60.5437 116.208 60.7458C115.974 60.8257 115.771 60.9792 115.63 61.1834C115.489 61.3877 115.418 61.6318 115.426 61.8798C115.424 62.9597 115.284 64.0349 115.011 65.0798C114.433 67.8268 113.264 70.9798 110.955 72.5798C110.812 72.6742 110.693 72.8014 110.608 72.951C110.523 73.1005 110.475 73.2681 110.468 73.4398C110.353 75.5203 110.42 77.6069 110.668 79.6758C110.664 79.847 110.724 80.0137 110.836 80.1432C110.948 80.2727 111.104 80.3556 111.274 80.3758L112.093 80.3908C112.165 80.4139 112.241 80.4226 112.316 80.4165C112.391 80.4104 112.464 80.3895 112.531 80.3551C112.598 80.3207 112.658 80.2735 112.707 80.216C112.756 80.1585 112.793 80.092 112.816 80.0203C112.839 79.9485 112.848 79.8729 112.842 79.7977C112.836 79.7226 112.815 79.6494 112.78 79.5823C112.746 79.5152 112.699 79.4555 112.641 79.4067C112.584 79.3579 112.517 79.3209 112.445 79.2977L112.103 79.1978C112.429 76.6287 112.481 76.7498 112.652 74.1108C113.65 73.3346 114.493 72.3788 115.139 71.2928C116.611 68.6111 117.487 65.6437 117.708 62.5928C121.821 60.5778 122.005 55.5608 118.748 53.8718ZM102.555 33.7408C102.28 34.4608 101.869 33.9408 100.266 34.2588C99.2361 34.4532 98.2828 34.9377 97.5184 35.6553C96.754 36.3729 96.2104 37.2938 95.9514 38.3098C95.7804 39.0965 95.7944 39.9123 95.9924 40.6928C96.4164 42.6318 96.9534 42.7678 96.4694 43.1998C95.7924 43.7998 94.2244 41.9608 93.8274 40.8488C92.3554 36.5918 96.8664 31.7878 100.4 32.2648C101.329 32.3998 102.888 32.8588 102.555 33.7408Z" fill="#191919"/>
</svg>
