<svg width="200" height="200" viewBox="0 0 200 200" fill="none" xmlns="http://www.w3.org/2000/svg">
<path d="M179.422 28.1373C179.172 26.1843 178.041 26.2373 175.752 26.1713C171.323 26.0413 157.147 25.8713 153.639 26.5833C152.994 26.7133 153.024 27.7473 153.692 27.7323C159.944 27.5873 167.338 27.5323 177.621 27.8073C174.183 31.0723 169.364 35.4853 165.003 37.0473C161.367 34.7429 157.923 32.1499 154.703 29.2933C154.181 28.8323 153.539 29.6483 153.953 30.1793C155.112 31.6663 160.206 35.7793 163.005 37.5953C164.305 38.4353 165.255 38.8003 166.758 38.0753C170.507 36.2663 175.014 32.4313 178.017 29.6083C178.294 34.5323 178.497 39.4083 178.339 43.9523C170.056 44.5024 161.749 44.5953 153.457 44.2303C152.984 39.2463 152.74 34.7303 152.707 29.2933C152.7 28.2653 151.431 27.9273 151.431 29.1803C151.431 33.0463 151.505 39.2803 151.859 43.0513C152.008 44.6513 152.204 45.5903 154.11 45.7013C162.139 46.0386 170.181 45.9718 178.204 45.5013C179.893 45.4223 179.878 45.3223 179.976 43.6473C180.271 38.4713 180.086 33.2791 179.422 28.1373Z" fill="#57c2b4"/>
<path d="M29.0939 30.067C12.3459 27.611 5.5849 43.567 13.5719 50.288C12.2438 53.0346 11.1318 55.8805 10.2459 58.8C10.1049 59.5 10.5849 59.906 11.2369 59.633C13.4479 58.705 18.0979 55.385 19.6739 54.319C31.5329 60.319 44.0329 50.785 41.2739 39.697C39.7999 33.768 34.8049 30.905 29.0939 30.067ZM36.0669 51.294C31.8489 54.964 25.9669 55.333 21.0019 53.14C18.7889 52.162 20.1649 52.679 12.1019 57.426C13.0109 55.265 13.7669 53.035 14.8019 50.934C15.2019 50.108 15.2019 49.91 14.7019 49.434C13.0909 47.8644 12.089 45.7741 11.8746 43.5352C11.6601 41.2962 12.2471 39.0538 13.5309 37.207C16.5479 32.807 21.8859 31.043 27.0419 31.375C41.7209 32.321 42.8709 45.374 36.0669 51.294Z" fill="#57c2b4"/>
<path d="M105.677 175.525C105.211 172.298 101.692 169.398 98.3131 168.687C91.1461 167.18 85.7411 173.187 86.7541 178.528C84.7541 178.077 81.0891 178.649 79.5711 180.637C75.9421 185.391 79.7211 190.242 87.0771 190.53C91.5771 190.706 102.299 190.92 108.927 190.462C116.305 189.952 120.473 184.989 116.29 177.95C114.006 174.106 107.868 174.101 105.677 175.525ZM108.822 188.925C101.953 189.525 90.6221 189.015 87.1141 189.015C81.5901 189.015 78.1211 185.272 80.7341 181.637C81.7681 180.2 84.7341 179.637 86.3791 179.986C87.2951 180.18 88.6311 181.067 88.3451 178.928C88.1417 178.022 88.1192 177.085 88.279 176.17C88.4387 175.255 88.7776 174.381 89.2761 173.598C92.7941 167.984 102.031 169.374 103.913 175.227C104.661 177.555 105.106 177.373 106.772 176.627C109.211 175.527 113.683 176.279 115.072 178.927C118.343 185.134 114.721 188.41 108.822 188.923V188.925Z" fill="#57c2b4"/>
<path d="M46.7551 53.1004C46.2971 53.7384 43.7001 57.3864 43.7981 58.3544C43.8651 59.0224 44.5561 59.1704 45.2311 58.1664C46.1311 56.8224 46.9951 55.4494 47.8961 54.0984C48.0287 53.9471 48.0958 53.7494 48.0826 53.5486C48.0693 53.3478 47.9769 53.1606 47.8256 53.0279C47.6743 52.8953 47.4765 52.8283 47.2758 52.8415C47.075 52.8547 46.8877 52.9471 46.7551 53.0984V53.1004Z" fill="#57c2b4"/>
<path d="M38.7692 67.709C38.5062 68.58 37.4482 71.919 37.5902 72.828C37.6622 73.286 38.2982 73.67 38.6412 73.204C39.1542 72.504 40.0152 68.933 40.2852 68.032C40.328 67.8309 40.2892 67.6211 40.1774 67.4487C40.0655 67.2762 39.8897 67.1553 39.6887 67.1125C39.4877 67.0696 39.2778 67.1084 39.1054 67.2203C38.933 67.3322 38.812 67.5079 38.7692 67.709Z" fill="#57c2b4"/>
<path d="M98.7109 165.616C99.9169 165.762 101.135 165.774 102.344 165.653C104.213 165.338 103.432 164.032 102.689 164.069C101.503 164.129 100.31 164.196 99.1159 164.242C96.8649 164.329 96.5659 165.365 98.7109 165.616Z" fill="#57c2b4"/>
<path d="M57.2633 44.1566C55.941 44.9461 54.7675 45.9615 53.7963 47.1566C53.0963 48.1996 53.9663 48.6566 54.7793 48.0276C55.8563 47.1976 56.8923 46.2966 57.9923 45.4756C59.4283 44.4056 58.5473 43.4886 57.2633 44.1566Z" fill="#57c2b4"/>
<path d="M36.8169 82.3603C35.6239 82.3093 35.9169 84.3863 35.9089 85.2353C35.9089 85.8653 35.6539 87.9223 36.5319 87.9973C37.4099 88.0723 37.3799 85.9973 37.4179 85.3703C37.4559 84.7433 37.9279 82.4073 36.8169 82.3603Z" fill="#57c2b4"/>
<path d="M111.824 164.927C113.585 164.719 115.315 164.306 116.98 163.696C117.656 163.448 117.731 162.045 116.297 162.296C114.665 162.677 113.054 163.145 111.471 163.696C110.443 164.139 110.638 164.949 111.824 164.927Z" fill="#57c2b4"/>
<path d="M82.1003 163.763C82.7663 164.127 86.7213 165.029 87.3543 164.763C87.4679 164.713 87.5675 164.637 87.6442 164.539C87.721 164.442 87.7724 164.327 87.7939 164.205C87.8154 164.083 87.8063 163.958 87.7674 163.84C87.7286 163.723 87.6612 163.617 87.5713 163.532C85.8579 163.05 84.0951 162.766 82.3173 162.684C82.1927 162.693 82.0745 162.742 81.9808 162.825C81.887 162.907 81.8229 163.018 81.7983 163.141C81.7737 163.263 81.7899 163.39 81.8444 163.502C81.899 163.615 81.9888 163.706 82.1003 163.763Z" fill="#57c2b4"/>
<path d="M128.187 157.127C126.772 157.747 125.393 158.448 124.059 159.227C123.075 159.978 123.571 160.727 124.712 160.405C126.233 159.83 127.711 159.145 129.133 158.356C129.748 158.066 129.59 156.6 128.187 157.127Z" fill="#57c2b4"/>
<path d="M139.115 147.491C138.048 148.481 137.095 149.586 136.271 150.786C135.417 152.026 136.429 152.586 137.771 151.131C138.171 150.694 140.013 148.879 140.06 148.286C140.071 148.165 140.053 148.043 140.007 147.931C139.961 147.819 139.888 147.72 139.795 147.641C139.702 147.563 139.592 147.509 139.473 147.483C139.355 147.456 139.232 147.459 139.115 147.491Z" fill="#57c2b4"/>
<path d="M136.023 44.193C137.289 44.936 138.561 45.681 139.776 46.445C140.608 46.969 141.532 45.823 140.729 45.245C135.638 41.576 134.033 43.025 136.023 44.193Z" fill="#57c2b4"/>
<path d="M58.5319 148.871C57.8859 148.196 57.0319 148.323 57.3319 149.426C57.9481 150.706 58.7957 151.862 59.8319 152.834C60.8979 153.819 61.5389 152.441 60.9509 151.806C60.5379 151.361 59.2519 149.622 58.5319 148.871Z" fill="#57c2b4"/>
<path d="M147.807 52.7197C146.807 51.9687 146.081 52.5847 146.884 53.6727C147.687 54.7607 148.384 55.7957 149.136 56.7957C149.978 57.9197 150.92 56.8567 150.494 56.0897C149.782 54.8314 148.875 53.6939 147.807 52.7197Z" fill="#57c2b4"/>
<path d="M154.578 62.1327C154.187 61.7427 153.396 62.1327 153.624 62.6657C154.165 63.9455 154.803 65.1824 155.531 66.3657C155.656 66.5249 155.84 66.6277 156.041 66.6515C156.242 66.6753 156.445 66.6182 156.604 66.4927C156.763 66.3673 156.866 66.1838 156.89 65.9826C156.914 65.7813 156.856 65.5789 156.731 65.4197C156.126 64.2543 155.405 63.153 154.578 62.1327Z" fill="#57c2b4"/>
<path d="M71.5698 159.379C70.3978 158.641 69.0768 158.022 67.8168 157.232C67.1708 156.832 66.5628 157.45 67.0658 158.156C68.1369 159.239 69.4126 160.098 70.8188 160.685C71.9898 161.075 72.5388 159.99 71.5698 159.379Z" fill="#57c2b4"/>
<path d="M70.7073 36.6991C69.2668 37.1484 67.8914 37.7845 66.6163 38.5911C65.2873 39.5521 66.2033 40.3171 67.3163 39.8221C68.6603 39.2281 69.8763 38.6511 71.2493 38.1411C72.6223 37.6311 72.1353 36.2651 70.7073 36.6991Z" fill="#57c2b4"/>
<path d="M128.089 37.7223C127.023 37.2423 123.089 35.9163 121.882 36.5593C121.792 36.6063 121.716 36.6759 121.662 36.7614C121.607 36.8469 121.576 36.9451 121.572 37.0464C121.567 37.1476 121.589 37.2482 121.636 37.3382C121.682 37.4282 121.752 37.5045 121.837 37.5593C122.243 37.8213 125.064 37.9643 127.459 39.0593C127.548 39.1236 127.651 39.1674 127.759 39.1876C127.868 39.2078 127.979 39.204 128.086 39.1764C128.192 39.1487 128.291 39.098 128.376 39.0277C128.461 38.9574 128.529 38.8693 128.576 38.7697C128.623 38.6701 128.648 38.5613 128.648 38.4512C128.648 38.341 128.624 38.2321 128.578 38.1323C128.531 38.0324 128.464 37.944 128.379 37.8733C128.295 37.8027 128.196 37.7514 128.089 37.7233V37.7223Z" fill="#57c2b4"/>
<path d="M159.509 74.134C158.803 73.046 158.309 73.804 158.301 74.134C158.526 75.4046 158.836 76.6584 159.231 77.887C159.454 79.074 161.061 79.102 160.731 77.475C160.493 76.3066 160.081 75.1804 159.509 74.134Z" fill="#57c2b4"/>
<path d="M168.809 155.1C168.362 151.8 167.824 148.727 167.54 145.342C167.379 143.413 165.926 143.517 166.04 145.542C166.243 148.845 166.801 152.116 167.706 155.299C167.747 155.43 167.835 155.541 167.953 155.612C168.07 155.683 168.21 155.709 168.345 155.685C168.48 155.66 168.602 155.588 168.687 155.48C168.773 155.372 168.816 155.237 168.809 155.1Z" fill="#00143B"/>
<path d="M149.774 155.258C150.502 151.887 150.97 148.464 151.174 145.02C151.256 143.893 149.89 143.459 149.756 144.9C149.378 148.968 148.998 151.9 148.435 155.176C148.217 156.459 149.451 156.665 149.774 155.258Z" fill="#00143B"/>
<path d="M173.673 157.352C166.7 157.637 154.338 157.543 144.782 157.584C143.431 157.59 142.951 158.884 144.782 158.984C151.702 159.345 165.941 159.315 173.613 158.984C174.678 158.934 174.716 157.309 173.673 157.352Z" fill="#00143B"/>
<path d="M190.043 132.149C169.61 132.563 144.311 132.164 124.043 132.014C123.397 132.014 123.562 133.048 124.118 133.072C140.136 133.749 173.318 133.972 189.952 133.545C190.846 133.522 190.944 132.13 190.043 132.149Z" fill="#00143B"/>
<path d="M190.8 88.8244C169.948 88.7184 144.407 88.8504 124.1 88.9444C123.424 88.9444 123.349 90.1674 124.055 90.1674C146.34 90.1674 168.637 90.5574 190.917 90.0844C191.793 90.0664 191.664 88.8284 190.8 88.8244Z" fill="#00143B"/>
<path d="M194.629 95.091C194.41 87.585 194.729 82.538 185.622 82.391C167.608 82.1 150.059 81.933 132.022 81.948C124.922 81.954 120.98 83.554 120.809 91.706C120.529 104.961 120.509 119.583 120.909 131.284C121.182 139.331 122.733 142.224 130.779 142.438C148.621 142.912 166.579 142.956 184.244 142.648C192.861 142.498 195.092 140.817 195 132.14C194.885 121.5 194.979 107.055 194.629 95.091ZM184.3 141.29C166.879 141.561 147.521 141.658 131.008 141.162C123.66 140.942 122.376 138.302 122.346 131.405C122.293 118.805 121.962 105.005 122.279 91.683C122.447 84.605 125.799 83.19 132.337 83.183C148.722 83.173 168.297 83.712 185.493 83.738C193.412 83.75 193.001 87.318 193.255 94.997C193.648 106.931 193.585 120.232 193.6 132.226C193.611 140.337 191.049 141.185 184.3 141.29Z" fill="#00143B"/>
<path d="M9.83431 135.8C9.84931 136.468 10.9233 136.205 10.8993 135.657C10.6163 129.172 10.5173 113.065 10.4993 104.598C10.4843 99.0286 10.1463 95.2576 16.7593 95.1626C32.3943 94.9386 48.0213 94.9396 63.6483 94.8326C71.7173 94.7766 71.1393 99.7636 71.2223 105.821C71.3613 116 71.2783 126.521 71.4103 136.055C71.4193 136.755 72.5643 136.611 72.5733 135.98C72.6733 129.225 72.9783 114.814 72.9633 105.821C72.9503 98.0746 72.3483 93.3086 63.1083 93.3086C47.6233 93.3086 32.2143 93.5946 16.7593 93.7586C8.97531 93.8416 8.84631 98.2586 8.95331 104.485C9.11731 114.344 9.62031 126.676 9.83431 135.8Z" fill="#00143B"/>
<path d="M67.4939 98.8731C50.7479 98.9641 28.9519 99.1061 12.4229 99.1731C11.6729 99.1731 11.7399 100.426 12.4229 100.434C18.8479 100.515 26.2869 100.539 33.9429 100.524C31.6444 101.256 29.6842 102.787 28.4179 104.84C24.8229 102.13 20.5969 107.602 27.7179 116.962C27.0049 119.552 28.2429 123.455 30.8699 123.455C31.302 126.439 31.5328 129.448 31.5609 132.462C31.5609 133.325 32.6059 134.211 32.7089 131.711C32.7629 130.411 32.2739 122.884 31.5679 122.389C30.9899 121.983 29.0119 122.289 28.9789 118.531C28.9599 116.467 29.8899 115.931 31.7179 116.831C32.2449 117.092 32.5879 116.597 32.7319 116.17C33.104 114.175 33.1942 112.137 32.9999 110.117C36.6629 110.192 47.2939 108.311 48.4399 105.898C48.8821 104.984 48.9943 103.945 48.7573 102.958C48.5203 101.971 47.9488 101.097 47.1399 100.483H67.3059C68.2999 100.423 68.4619 98.8681 67.4939 98.8731Z" fill="#00143B"/>
<path d="M77.1686 138.437C55.8146 138.566 27.6916 138.193 7.13064 138.016C5.25464 138 4.86464 137.785 5.03064 140.035C5.33064 144.106 7.95764 145.135 11.6506 145.357C30.8646 146.51 52.9326 145.957 72.2506 145.557C76.3336 145.473 78.6066 143.913 78.5256 139.77C78.4996 138.361 78.5496 138.428 77.1686 138.437ZM72.1176 144.051C59.5756 144.489 22.7956 144.659 12.0096 143.908C7.69364 143.608 6.70964 142.069 6.38764 139.225C27.4046 139.975 55.9266 139.9 77.0786 139.975C77.0486 143.499 75.2626 143.941 72.1176 144.051Z" fill="#00143B"/>
<path d="M110.826 16.3306C103.387 16.4616 91.426 16.6916 83.804 16.6916C82.881 16.6916 82.633 18.0096 83.737 18.0126C90.425 18.0306 104.753 18.1126 110.998 17.8626C112.589 17.7996 112.815 16.2996 110.826 16.3306Z" fill="#00143B"/>
<path d="M111.711 63.6406C102.779 63.6746 93.0291 63.7306 84.1801 63.7606C83.0691 63.7606 82.9861 65.1246 84.1801 65.1496C93.0741 65.3306 102.839 65.1496 111.861 65.1496C112.837 65.1496 112.687 63.6366 111.711 63.6406Z" fill="#00143B"/>
<path d="M115.457 18.5376C115.506 13.2836 114.391 9.43756 108.484 9.35056C101.909 9.25056 94.605 9.18656 88.045 9.43256C83.632 9.59856 80.5391 10.7916 80.7041 18.2596C81.0491 33.7746 80.8831 49.3046 81.1321 64.5866C81.1991 68.7076 82.566 71.4636 87.242 71.6796C93.659 71.9796 100.895 71.8866 107.388 71.7246C114.414 71.5496 115.688 69.3676 115.644 62.4996C115.543 47.8786 115.32 33.1516 115.457 18.5376ZM106.765 70.1636C100.31 70.1756 93.502 70.4636 87.099 70.2836C83.407 70.1786 82.389 67.6946 82.408 64.4436C82.43 60.7436 82.4681 56.9376 82.4681 53.0796C84.5239 51.8956 86.8151 51.1787 89.1791 50.9796C89.1791 51.2646 89.0961 51.5496 89.0791 51.8346C89.0791 52.3226 89.9221 52.5846 90.0401 52.0606C92.2341 42.3026 93.3661 41.0076 92.8701 40.8236C92.4291 40.6606 90.244 40.6236 90.393 37.5236C90.499 35.3086 92.0721 34.5236 92.8021 35.5186C92.9891 35.7746 93.3241 35.6596 93.6881 35.3616C95.5674 33.7973 96.8851 31.6626 97.4411 29.2816C100.398 30.7816 110.246 31.9616 111.822 30.5656C113.676 28.9216 115.222 19.5656 100.916 19.1486C87.9761 18.7746 85.0861 32.9976 82.4441 38.8066C82.3841 31.8786 82.2791 24.8386 82.2491 17.7906C82.2301 13.5196 83.442 11.0356 88.118 10.9296C94.641 10.7816 101.952 10.8006 108.572 10.8696C113.503 10.9206 113.925 14.9376 113.961 18.6756C114.092 32.0516 114.126 45.4116 114.276 58.7756C111.976 54.3556 110.036 49.7569 108.476 45.0246C108.7 44.2913 108.848 43.537 108.919 42.7736C109 41.9546 107.951 41.9026 107.831 42.7286C107.538 44.7476 105.895 48.7936 104.145 49.9716C101.489 51.7596 98.5861 49.5076 96.3451 48.1476C95.8781 47.8646 95.4641 48.3746 95.8451 48.8156C96.8826 49.9898 98.1991 50.8839 99.673 51.4156C99.673 52.4056 99.591 53.3156 99.546 54.2596C99.5289 54.3903 99.5629 54.5225 99.641 54.6288C99.7191 54.735 99.8353 54.8069 99.9651 54.8295C100.095 54.8521 100.229 54.8236 100.338 54.75C100.447 54.6764 100.524 54.5634 100.552 54.4346C100.571 54.3216 100.727 53.1186 100.747 52.9686C104.642 54.2146 109.439 58.9686 110.662 62.3886C111.33 62.4886 112.662 62.3886 114.31 62.4416C114.316 68.3686 113.036 70.1516 106.765 70.1636Z" fill="#00143B"/>
<path d="M142.35 116.699C142.608 120.15 144.25 122.089 147.372 123.237C147.069 124.386 146.922 125.57 146.937 126.757C146.962 126.876 147.025 126.982 147.117 127.061C147.209 127.139 147.325 127.185 147.445 127.191C147.566 127.197 147.685 127.163 147.785 127.094C147.884 127.025 147.958 126.925 147.995 126.81C148.22 125.752 148.453 124.701 148.678 123.642C152.131 124.521 157.449 124.068 160.004 121.864C160.504 121.429 160.004 120.564 159.464 120.843C157.806 121.824 155.956 122.435 154.041 122.635C152.125 122.836 150.189 122.622 148.364 122.006C145.121 121.016 143.941 119.364 143.628 116.106C143.251 112.195 144.258 105.199 145.444 100.876C145.492 100.743 145.484 100.596 145.424 100.468C145.363 100.34 145.254 100.241 145.121 100.193C144.987 100.146 144.841 100.153 144.712 100.213C144.584 100.274 144.486 100.383 144.438 100.516C142.662 105.716 141.951 111.22 142.35 116.699Z" fill="#00143B"/>
<path d="M155.448 92.9223C153.948 89.5823 147.807 91.0223 148.123 93.6723C146.892 91.1133 142.178 91.9233 142.576 96.2993C143.041 101.418 157.587 100.991 161.491 101.088C160.815 104.601 161.747 110.404 163.142 109.388C164.028 108.743 165.236 107.888 166.347 108.637C168.005 109.756 166.522 113.437 164.733 114.597C162.423 116.089 162.565 115.445 162.774 118.042C162.895 119.542 162.846 123.842 163.525 125.893C163.664 126.312 164.385 126.374 164.448 125.893C164.578 124.893 164.118 118.725 164.02 116.766C165.904 116.06 170.303 112.36 167.893 108.097C177.771 100.868 168.246 92.4243 163.937 95.9973C165.4 90.9783 156.754 89.3713 155.448 92.9223Z" fill="#00143B"/>
<path d="M140.789 130.429C142.519 129.669 143.649 128.86 145.563 128.124C149.171 131.787 158.763 132.811 165.972 128.072C167.593 129.264 169.358 130.245 171.226 130.992C172.188 131.368 172.659 130.332 171.691 129.866C169.919 129.012 168.777 128.032 167.191 127.096C165.691 126.216 165.78 126.474 164.548 127.209C161.983 128.763 159.06 129.629 156.062 129.724C153.065 129.818 150.093 129.138 147.435 127.749C145.755 126.839 146.267 126.301 144.08 127.149C142.652 127.699 141.314 128.458 140.109 129.4C139.348 130.159 139.743 130.888 140.789 130.429Z" fill="#00143B"/>
<path d="M157.955 104.008C157.622 103.431 157.147 102.948 156.576 102.604C156.005 102.26 155.356 102.066 154.69 102.041C154.497 102.042 154.312 102.112 154.167 102.239C154.022 102.366 153.927 102.541 153.901 102.731C153.875 102.922 153.918 103.116 154.023 103.277C154.128 103.439 154.288 103.557 154.473 103.61C155.375 103.683 156.218 104.09 156.837 104.751C157.46 105.629 158.453 104.881 157.955 104.008Z" fill="#00143B"/>
<path d="M148.145 102.626C148.339 102.626 148.526 102.55 148.665 102.415C148.805 102.28 148.887 102.096 148.894 101.902C148.901 101.708 148.832 101.518 148.702 101.374C148.572 101.229 148.392 101.14 148.198 101.126C147.684 101.025 147.152 101.092 146.68 101.318C146.208 101.543 145.821 101.916 145.578 102.379C145.23 103.035 145.901 103.47 146.426 103.047C146.663 102.853 146.94 102.714 147.238 102.641C147.535 102.569 147.845 102.563 148.145 102.626Z" fill="#00143B"/>
<path d="M151.335 111.746C150.825 111.354 149.152 111.625 149.083 111.385C148.927 110.837 150.283 108.556 150.292 107.242C150.292 106.709 149.78 106.58 149.459 107.017C148.968 107.683 147.469 111.138 147.777 111.986C148.24 113.257 152.666 112.768 151.335 111.746Z" fill="#00143B"/>
<path d="M153.9 106.688C152.977 106.636 152.623 108.65 153.322 108.797C154.307 109 154.848 106.741 153.9 106.688Z" fill="#00143B"/>
<path d="M146.359 107.393C147.334 107.748 147.771 105.55 147.109 105.314C146.248 105.008 145.435 107.057 146.359 107.393Z" fill="#00143B"/>
<path d="M156.664 114.232C156.5 111.595 155.657 113.954 150.982 114.622C149.848 114.784 149.803 115.182 150.314 116.122C151.829 118.914 156.962 119.001 156.664 114.232ZM155.501 114.397C155.597 114.905 155.502 115.43 155.236 115.873C154.969 116.316 154.549 116.646 154.056 116.8C153.562 116.954 153.029 116.921 152.558 116.707C152.087 116.494 151.711 116.115 151.501 115.643C152.897 115.468 154.251 115.047 155.5 114.401L155.501 114.397Z" fill="#00143B"/>
<path d="M26.7591 136.494C25.8891 137.584 26.9251 137.882 27.5591 137.334C28.5259 136.408 29.6763 135.694 30.9361 135.24C33.8861 135.991 39.1181 137.709 41.9921 137.935C43.6141 138.062 46.9391 135.03 48.1921 133.904C49.7137 134.757 51.1848 135.697 52.5981 136.719C53.9761 137.719 54.3561 136.612 53.0341 135.683C51.8791 134.871 50.4341 133.729 49.2341 133.071C48.1611 132.484 48.0101 132.245 47.0721 133.171C45.6951 134.701 44.0393 135.954 42.1931 136.864C38.7101 136.286 32.1731 134.258 31.2721 134.155C29.8821 133.992 27.6381 135.392 26.7591 136.494Z" fill="#00143B"/>
<path d="M35.5638 128.358C38.0258 129.93 41.5088 131.608 44.7738 131.098C44.7738 131.916 45.0808 133.35 45.7118 133.398C46.3428 133.446 46.2368 131.806 45.9668 130.798C51.7468 128.786 50.6188 121.859 49.9528 117.047C49.6408 114.796 48.8188 109.991 47.9188 108.077C47.8575 107.967 47.7598 107.883 47.6428 107.839C47.5258 107.795 47.397 107.793 47.2789 107.834C47.1608 107.875 47.0609 107.957 46.9967 108.064C46.9325 108.172 46.9081 108.298 46.9278 108.422C47.7651 111.496 48.4093 114.62 48.8568 117.775C49.4128 121.758 50.1788 128.068 45.2008 129.492C41.9668 130.417 38.3008 128.728 35.9618 127.24C35.1538 126.725 34.7708 127.852 35.5638 128.358Z" fill="#00143B"/>
<path d="M40.495 122.271C39.323 123.031 41.805 125.063 43.835 124.523C44.635 124.311 44.519 123.593 43.745 123.667C41.344 123.901 41.386 121.693 40.495 122.271Z" fill="#00143B"/>
<path d="M39.8719 110.973C39.2643 110.968 38.6736 111.172 38.1997 111.553C37.7259 111.933 37.3981 112.466 37.2719 113.06C37.1719 113.886 37.9549 114.148 38.2919 113.443C38.4754 113.127 38.7363 112.862 39.0501 112.674C39.364 112.487 39.7204 112.382 40.0859 112.37C40.8629 112.242 40.9309 111.086 39.8719 110.973Z" fill="#00143B"/>
<path d="M40.1122 114.749C39.3642 114.996 39.5192 117.081 40.5632 116.768C41.3202 116.541 41.1062 114.421 40.1122 114.749Z" fill="#00143B"/>
<path d="M44.7139 119.882C47.0209 119.435 46.5589 119.176 45.0059 115.333C44.9857 115.282 44.9555 115.234 44.917 115.194C44.8785 115.154 44.8325 115.122 44.7816 115.1C44.7307 115.078 44.6759 115.066 44.6204 115.065C44.5649 115.063 44.5096 115.073 44.4579 115.093C44.4062 115.114 44.3589 115.144 44.3189 115.182C44.2788 115.221 44.2467 115.267 44.2244 115.318C44.2021 115.369 44.1901 115.423 44.189 115.479C44.1878 115.535 44.1977 115.59 44.2179 115.641C44.5804 116.613 44.8483 117.618 45.0179 118.641C44.9499 118.911 43.7419 118.858 43.3969 119.241C43.1899 119.439 42.8669 120.24 44.7139 119.882Z" fill="#00143B"/>
<path d="M45.975 113.548C45.313 113.794 45.614 115.571 46.41 115.409C47.355 115.218 46.807 113.238 45.975 113.548Z" fill="#00143B"/>
<path d="M46.4251 109.915C46.1453 109.741 45.8302 109.632 45.5029 109.596C45.1755 109.559 44.8442 109.596 44.5331 109.705C43.9701 109.953 43.7831 110.876 44.6331 110.966C45.0611 111.011 45.6911 110.778 46.2171 111.003C46.7431 111.228 47.2581 110.5 46.4251 109.915Z" fill="#00143B"/>
<path d="M104.994 39.2832C104.416 39.2832 104.708 41.0832 104.753 41.9182C104.254 41.8782 103.752 41.8782 103.253 41.9182C102.503 42.1362 102.953 43.0182 105.212 42.8492C105.812 42.8042 105.769 41.9252 105.73 41.4902C105.657 40.6872 105.474 39.2832 104.994 39.2832Z" fill="#00143B"/>
<path d="M100.558 33.5425C101.239 33.3679 101.946 33.3221 102.644 33.4075C103.95 33.6635 103.717 32.2295 102.719 32.0715C101.809 31.9199 100.876 32.1302 100.119 32.6575C100.044 32.7355 99.9951 32.8346 99.9787 32.9414C99.9623 33.0482 99.9793 33.1574 100.027 33.2542C100.075 33.351 100.152 33.4306 100.247 33.4822C100.342 33.5338 100.45 33.5549 100.558 33.5425Z" fill="#00143B"/>
<path d="M102.081 44.8606C100.081 44.3276 100.29 42.5936 99.4021 42.8866C97.7781 43.4226 100.602 46.0236 102.111 45.7996C102.7 45.7116 103 45.1046 102.081 44.8606Z" fill="#00143B"/>
<path d="M106.7 34.0297C107.211 34.1602 107.713 34.3273 108.2 34.5297C108.8 34.6797 108.89 34.2367 108.74 33.8767C108.526 33.5471 108.224 33.2835 107.869 33.1151C107.514 32.9466 107.119 32.8801 106.728 32.9227C106.022 33.0767 105.977 33.8997 106.7 34.0297Z" fill="#00143B"/>
<path d="M108.056 38.3238C107.569 38.1768 106.975 39.5158 107.778 39.6368C108.371 39.7268 108.47 38.4478 108.056 38.3238Z" fill="#00143B"/>
<path d="M101.668 36.9584C100.835 36.8294 100.73 38.4584 101.323 38.5194C101.916 38.5804 102.389 37.0694 101.668 36.9584Z" fill="#00143B"/>
<path d="M95.2358 35.6375C95.7754 35.6779 96.3118 35.7531 96.8418 35.8625C96.1418 39.2325 96.3618 39.4245 99.8898 39.9755C102.712 40.4165 103.465 40.5415 103.868 39.2245C104.075 38.535 104.226 37.8296 104.318 37.1155C104.588 37.0283 104.876 37.0067 105.156 37.0524C105.437 37.0981 105.703 37.2099 105.932 37.3785C105.768 38.0727 105.68 38.7824 105.669 39.4955C105.665 39.8435 105.78 40.1824 105.996 40.4554C106.212 40.7284 106.515 40.919 106.855 40.9955C107.706 41.2103 108.572 41.3656 109.445 41.4605C110.245 41.5375 110.711 41.3705 111.103 39.4415C111.32 38.3755 111.903 36.7415 110.54 36.3195C109.595 36.0195 106.99 35.4555 106.54 36.1195C106.216 35.8932 105.842 35.7479 105.45 35.6957C105.058 35.6435 104.66 35.686 104.288 35.8195C104.488 34.5195 100.205 33.9475 98.3658 33.9735C97.7128 33.9825 97.3828 34.1235 97.1868 34.5285C94.1398 33.8655 94.5148 35.5835 95.2358 35.6375ZM107.245 37.0185C108.209 37.1104 109.163 37.2837 110.098 37.5365C110.008 38.4545 109.829 39.3617 109.565 40.2455C108.62 40.1355 107.682 39.9685 106.757 39.7455C106.872 38.8318 107.048 37.9268 107.283 37.0365L107.245 37.0185ZM103.237 36.1245C103.138 37.1248 102.932 38.1115 102.622 39.0675C100.97 38.932 99.3296 38.681 97.7128 38.3165C97.8314 37.2508 98.0371 36.1966 98.3278 35.1645C99.9943 35.3039 101.641 35.6258 103.237 36.1245Z" fill="#00143B"/>
<path d="M109.324 35.0893C109.28 35.9743 110.197 35.8763 110.285 35.3143C110.46 34.2729 110.433 33.2073 110.203 32.1763C110.171 32.0612 110.097 31.9627 109.994 31.901C109.892 31.8393 109.77 31.8192 109.653 31.8449C109.537 31.8705 109.435 31.94 109.368 32.0389C109.301 32.1378 109.274 32.2586 109.294 32.3763C109.364 33.279 109.374 34.1854 109.324 35.0893Z" fill="#00143B"/>
<path d="M84.3448 55.0471C85.4769 54.4279 86.6691 53.9253 87.9028 53.5471C89.8675 55.6268 92.147 57.3846 94.6578 58.7561C96.0738 59.5351 96.6888 59.5251 97.9148 58.7031C99.0161 57.9544 100.069 57.1371 101.068 56.2561C103.84 57.8738 106.3 59.9734 108.334 62.4561C108.897 63.0491 109.591 62.8981 109.234 61.9161C108.434 59.7161 102.946 55.1491 100.978 54.8831C100.278 54.7891 98.1708 57.397 96.2868 58.163C93.5411 56.7886 91.0121 55.0184 88.7808 52.9091C88.2168 52.3831 88.0258 52.2551 87.2808 52.4661C85.9989 52.8432 84.8027 53.4661 83.7588 54.3001C83.0538 55.047 83.6178 55.4331 84.3448 55.0471Z" fill="#00143B"/>
</svg>
