<svg width="60" height="60" viewBox="0 0 60 60" fill="none" xmlns="http://www.w3.org/2000/svg">
<path d="M39.5 41.8999L18 20.0999C18 20.0999 29 7.79991 40.8 18.5999C47.1 24.3999 39.5 41.8999 39.5 41.8999Z" fill="#57c2b4"/>
<path d="M18.5999 17.3999L40.0999 39.0999C40.0999 39.0999 29.0999 51.3999 17.2999 40.5999C10.8999 34.8999 18.5999 17.3999 18.5999 17.3999Z" fill="#57c2b4"/>
<path d="M17.0001 41.9C15.9001 41.8 14.8001 41.6 13.7001 41.5L10.5001 41.0999C9.5001 40.9999 8.3001 41.2 7.4001 40.7C6.9001 40.5 6.5001 40.1999 6.0001 39.7999C5.5001 39.3999 5.1001 39 4.6001 38.4V38C5.2001 37.5 5.8001 37.2 6.4001 37C7.0001 36.8 7.6001 36.7 8.2001 36.7C9.4001 36.7 10.3001 37.5 11.3001 37.9C12.3001 38.4 13.3001 38.9 14.2001 39.5C15.1001 40.1 16.1001 40.7 16.9001 41.4L17.0001 41.9Z" fill="#001A4A"/>
<path d="M29.6001 44.4001C31.6001 44.2001 33.6001 43.7001 35.3001 42.8C37.0001 41.9 38.5001 40.5 39.7001 39C42.3001 36 43.2001 32.3 42.7001 28.5C42.5001 26.6 42.0001 24.7 41.3001 22.9C41.2001 22.4 41.0001 22 40.8001 21.5L40.3001 20.1C39.9001 19.2 39.7001 18.3 39.3001 17.3C38.6001 15.3 38.1001 13.3 37.8001 11.2C37.5001 9.10005 37.4001 6.90005 37.8001 4.80005H38.2001C39.7001 8.70005 41.4001 12.3 43.0001 15.9C44.8001 19.6 45.8001 24 45.9001 28.3C45.9001 30.5 45.7001 32.8001 44.9001 34.9001C44.1001 37 42.8001 38.9001 41.2001 40.4001C39.7001 41.9001 37.9001 43.2001 35.9001 44C33.9001 44.8 31.7001 45 29.7001 44.9001L29.6001 44.4001Z" fill="#001A4A"/>
<path d="M41.4998 17.2L48.6998 18.2C49.8998 18.4 51.0998 18.1 52.0998 18.6C52.5998 18.8 53.1998 19.1 53.6998 19.4C54.1998 19.6999 54.7998 20.1 55.3998 20.7V21.1C54.7998 21.7 54.0998 22 53.3998 22.2C52.6998 22.4 52.0998 22.5 51.3998 22.5C50.0998 22.6 48.8998 21.7 47.7998 21.2C46.5998 20.7 45.4998 20.1 44.3998 19.5C43.2998 18.9 42.2998 18.2 41.2998 17.5L41.4998 17.2Z" fill="#001A4A"/>
<path d="M20.3999 55.6999C19.9999 51.4999 18.3999 47.4999 16.6999 43.6999C15.7999 41.7999 14.8999 39.7999 14.1999 37.6999C13.4999 35.5999 12.8999 33.4999 12.5999 31.1999C12.2999 28.8999 12.2999 26.4999 12.8999 24.0999C13.4999 21.6999 14.8999 19.4999 16.5999 17.8999C18.2999 16.2999 20.2999 14.8999 22.5999 14.1999C24.8999 13.4999 27.2999 13.5999 29.3999 14.1999V14.5999C27.2999 15.0999 25.2999 15.7999 23.6999 16.7999C22.0999 17.7999 20.6999 19.0999 19.4999 20.5999C18.2999 22.0999 17.2999 23.5999 16.5999 25.1999C15.8999 26.8999 15.5999 28.7999 15.6999 30.7999C15.7999 32.7999 16.0999 34.7999 16.5999 36.7999C17.0999 38.7999 17.6999 40.7999 18.3999 42.7999C18.9999 44.8999 19.5999 46.9999 19.9999 49.0999C20.3999 51.1999 20.6999 53.3999 20.5999 55.5999L20.3999 55.6999Z" fill="#001A4A"/>
<path d="M18.7999 18.8C22.5999 22.1 26.2999 25.5 29.9999 28.9C33.6999 32.3 37.3999 35.7 41.0999 39.1L38.7999 41.4001C36.7999 39.9001 34.8999 38.2001 33.0999 36.4001C31.2999 34.7001 29.5999 32.8 27.8999 31C26.1999 29.1 24.5999 27.2 22.9999 25.3C21.3999 23.3 19.8999 21.3001 18.4999 19.1L18.7999 18.8ZM18.7999 18.8C20.9999 20.2 22.9999 21.7 24.9999 23.3C26.9999 24.9 28.8999 26.5001 30.6999 28.2001C32.4999 29.9001 34.3999 31.6001 36.0999 33.4001C37.7999 35.2001 39.4999 37.1 41.0999 39.1L38.7999 41.4001C35.2999 37.7001 31.9999 34 28.4999 30.3C25.0999 26.6 21.6999 22.9001 18.3999 19.1L18.7999 18.8Z" fill="#001A4A"/>
</svg>
