<svg width="60" height="60" viewBox="0 0 60 60" fill="none" xmlns="http://www.w3.org/2000/svg">
<path d="M45.7998 56.8C45.4998 55.1 45.2998 53.4 44.9998 51.6C44.7998 49.9 44.5998 48.2 44.3998 46.4C44.1998 44.7 43.6998 43 43.9998 41.2C44.2998 39.5 44.6998 37.8 45.7998 36H46.1998C47.2998 37.7 47.6998 39.4 47.9998 41.2C48.2998 42.9 47.7998 44.6 47.5998 46.4C47.3998 48.1 47.1998 49.8 46.9998 51.6C46.6998 53.3 46.4998 55 46.1998 56.8H45.7998Z" fill="#001A4A"/>
<path d="M35.7002 46.3C37.4002 46 39.1002 45.8 40.9002 45.5C42.6002 45.3 44.3002 45.1001 46.1002 44.9001C47.8002 44.7001 49.5002 44.2 51.3002 44.5C53.0002 44.8 54.7002 45.2 56.5002 46.3V46.7C54.8002 47.8 53.1002 48.2 51.3002 48.5C49.6002 48.8 47.9002 48.3 46.1002 48.1C44.4002 47.9 42.7002 47.7 40.9002 47.5C39.2002 47.2 37.5002 47 35.7002 46.7V46.3Z" fill="#001A4A"/>
<path d="M4.0998 18.9002C4.3998 21.3002 6.2998 23.2002 8.5998 23.4002C10.3998 23.6002 12.1998 23.8002 13.9998 23.8002C15.7998 23.8002 17.6998 23.6002 19.3998 23.4002C21.7998 23.1002 23.6998 21.2002 23.8998 18.9002C24.0998 17.1002 24.1998 15.3002 24.1998 13.5002C24.1998 11.7002 24.1998 9.9002 23.9998 8.1002C23.6998 5.7002 21.7998 3.8002 19.4998 3.6002C17.6998 3.4002 15.8998 3.2002 14.0998 3.2002C12.2998 3.2002 10.3998 3.4002 8.6998 3.6002C6.1998 3.8002 4.2998 5.8002 4.0998 8.1002C3.8998 9.9002 3.7998 11.7002 3.7998 13.5002C3.7998 15.3002 3.8998 17.2002 4.0998 18.9002Z" fill="#57c2b4"/>
<path d="M4.29982 18.9001C4.39982 19.6001 4.59982 20.3001 4.99982 20.9001C5.39982 21.5001 5.89982 22.0001 6.49982 22.4001C7.09982 22.8001 7.79982 23.0001 8.49982 23.1001C9.19982 23.2001 9.99982 23.2001 10.6998 23.2001C13.6998 23.3001 16.4998 22.9001 19.3998 22.4001C20.5998 22.2001 21.5998 21.5001 22.2998 20.5001C22.5998 20.0001 22.7998 19.5001 22.8998 18.9001C22.8998 18.7001 22.9998 18.2001 22.9998 17.9001L23.0998 16.8001C23.2998 13.9001 23.0998 11.1001 22.5998 8.2001C22.3998 7.2001 21.7998 6.3001 20.9998 5.8001C20.5998 5.6001 20.0998 5.4001 19.5998 5.4001H19.1998H18.6998L17.5998 5.3001C16.1998 5.2001 14.7998 5.2001 13.3998 5.3001C11.9998 5.3001 10.5998 5.4001 9.09982 5.6001C7.99982 5.6001 6.99982 6.0001 6.29982 6.7001C5.99982 7.1001 5.69982 7.5001 5.49982 8.1001C5.39982 8.3001 5.29982 8.8001 5.19982 9.1001L4.99982 10.1001C4.69982 11.5001 4.39982 13.0001 4.29982 14.4001C4.09982 15.9001 4.19982 17.4001 4.29982 18.9001ZM3.89982 18.9001C3.49982 16.0001 2.99982 13.0001 2.79982 9.9001V8.8001C2.79982 8.4001 2.69982 8.1001 2.79982 7.6001C2.89982 6.7001 3.09982 5.7001 3.59982 4.8001C4.09982 4.0001 4.79982 3.2001 5.59982 2.6001C6.39982 2.0001 7.39982 1.7001 8.39982 1.5001C9.89982 1.3001 11.3998 1.1001 12.9998 1.1001C14.5998 1.1001 16.1998 1.2001 17.6998 1.4001L18.7998 1.6001L19.3998 1.7001H19.6998L19.9998 1.8001C20.9998 2.0001 21.9998 2.4001 22.7998 3.0001C24.3998 4.2001 25.4998 6.0001 25.5998 8.0001C25.6998 9.5001 25.7998 11.0001 25.7998 12.6001C25.7998 14.1001 25.6998 15.7001 25.4998 17.2001L25.3998 18.3001C25.2998 18.7001 25.2998 19.0001 25.1998 19.5001C24.9998 20.4001 24.5998 21.3001 24.0998 22.0001C22.9998 23.5001 21.2998 24.4001 19.5998 24.6001C18.0998 24.7001 16.5998 24.8001 15.0998 24.7001C13.5998 24.6001 12.0998 24.5001 10.5998 24.2001C9.89982 24.1001 9.09981 24.0001 8.39982 23.8001C7.59981 23.7001 6.89982 23.3001 6.29982 22.9001C4.89982 21.9001 4.09982 20.5001 3.89982 18.9001Z" fill="#001A4A"/>
<path d="M4.10004 51.9002C4.40004 54.3002 6.30004 56.2002 8.60004 56.4002C10.4 56.6002 12.2 56.8002 14 56.8002C15.8 56.8002 17.7 56.6002 19.4 56.4002C21.8 56.1002 23.7 54.2002 23.9 51.9002C24.1 50.1002 24.2 48.3002 24.2 46.5002C24.2 44.7002 24 42.9002 23.9 41.1002C23.6 38.7002 21.7 36.8002 19.4 36.6002C17.6 36.4002 15.8 36.2002 14 36.2002C12.2 36.2002 10.3 36.4002 8.60004 36.6002C6.20004 36.9002 4.30004 38.8002 4.10004 41.1002C3.90004 42.9002 3.80004 44.7002 3.80004 46.5002C3.70004 48.3002 3.90004 50.1002 4.10004 51.9002Z" fill="#57c2b4"/>
<path d="M4.30021 51.9001C4.40021 52.6001 4.60021 53.3001 5.00021 53.9001C5.40021 54.5001 5.90021 55.0001 6.50021 55.4001C7.10021 55.8001 7.80021 56.0001 8.50021 56.1001C9.20021 56.2001 10.0002 56.2001 10.7002 56.2001C13.7002 56.3001 16.5002 55.9001 19.4002 55.4001C20.6002 55.2001 21.6002 54.5001 22.3002 53.5001C22.6002 53.0001 22.8002 52.5001 22.9002 51.9001C22.9002 51.7001 23.0002 51.2001 23.0002 50.9001L23.1002 49.8001C23.3002 46.9001 23.1002 44.1001 22.6002 41.2001C22.4002 40.2001 21.8002 39.3001 21.0002 38.8001C20.6002 38.6001 20.1002 38.4001 19.6002 38.4001H19.2002H18.7002L17.6002 38.3001C16.2002 38.2001 14.8002 38.2001 13.4002 38.3001C12.0002 38.3001 10.6002 38.4001 9.10021 38.6001C8.20021 38.6001 7.30021 39.0001 6.60021 39.8001C6.00021 40.1001 5.70021 40.5001 5.50021 41.0001C5.40021 41.2001 5.30021 41.7001 5.20021 42.0001L5.00021 43.1001C4.70021 44.5001 4.40021 46.0001 4.30021 47.4001C4.10021 48.9001 4.20021 50.4001 4.30021 51.9001ZM3.90021 51.9001C3.50021 49.0001 3.00021 46.0001 2.80021 42.9001L2.70021 41.8001C2.70021 41.4001 2.60021 41.1001 2.70021 40.6001C2.80021 39.7001 3.00021 38.7001 3.50021 37.8001C4.00021 37.0001 4.70021 36.2001 5.50021 35.6001C6.30021 35.0001 7.30021 34.7001 8.30021 34.5001C9.80021 34.3001 11.3002 34.1001 12.9002 34.1001C14.5002 34.1001 16.1002 34.2001 17.6002 34.4001L18.7002 34.6001L19.3002 34.7001H19.6002L20.0002 34.8001C21.0002 35.0001 21.9002 35.4001 22.7002 36.0001C24.3002 37.2001 25.4002 39.0001 25.5002 41.0001C25.6002 42.5001 25.7002 44.0001 25.7002 45.6001C25.7002 47.1001 25.6002 48.7001 25.4002 50.2001L25.3002 51.3001C25.2002 51.7001 25.2002 52.0001 25.1002 52.5001C24.9002 53.4001 24.5002 54.3001 24.0002 55.0001C22.9002 56.5001 21.2002 57.4001 19.5002 57.6001C18.0002 57.7001 16.5002 57.8001 15.0002 57.7001C13.5002 57.6001 12.0002 57.5001 10.5002 57.2001C9.80021 57.1001 9.00021 57.0001 8.30021 56.8001C7.50021 56.7001 6.80021 56.3001 6.20021 55.9001C4.90021 54.8001 4.10021 53.4001 3.90021 51.9001Z" fill="#001A4A"/>
<path d="M36.0002 18.9002C36.3002 21.3002 38.2002 23.2002 40.5002 23.4002C42.3002 23.6002 44.1002 23.8002 45.9002 23.8002C47.7002 23.8002 49.6002 23.6002 51.3002 23.4002C53.7002 23.1002 55.6002 21.2002 55.8002 18.9002C56.0002 17.1002 56.1002 15.3002 56.1002 13.5002C56.1002 11.7002 55.9002 9.9002 55.8002 8.1002C55.5002 5.7002 53.6002 3.8002 51.3002 3.6002C49.5002 3.4002 47.7002 3.2002 45.9002 3.2002C44.1002 3.2002 42.2002 3.4002 40.5002 3.6002C38.1002 3.9002 36.2002 5.8002 36.0002 8.1002C35.8002 9.9002 35.7002 11.7002 35.7002 13.5002C35.7002 15.3002 35.8002 17.2002 36.0002 18.9002Z" fill="#57c2b4"/>
<path d="M36.2001 18.9001C36.3001 19.6001 36.5001 20.3001 36.9001 20.9001C37.3001 21.5001 37.8001 22.0001 38.4001 22.4001C39.0001 22.8001 39.7001 23.0001 40.4001 23.1001C41.1001 23.2001 41.9001 23.2001 42.6001 23.2001C45.6001 23.3001 48.4001 22.9001 51.3001 22.4001C52.5001 22.2001 53.5001 21.5001 54.2001 20.5001C54.5001 20.0001 54.7001 19.5001 54.8001 18.9001C54.8001 18.7001 54.9001 18.2001 54.9001 17.9001L55.0001 16.8001C55.2001 13.9001 55.0001 11.1001 54.5001 8.2001C54.3001 7.2001 53.7001 6.3001 52.9001 5.8001C52.5001 5.6001 52.0001 5.4001 51.5001 5.4001H51.1001H50.6001L49.5001 5.3001C48.1001 5.2001 46.7001 5.2001 45.3001 5.3001C43.9001 5.3001 42.5001 5.4001 41.0001 5.6001C40.1001 5.6001 39.2001 6.0001 38.5001 6.8001C38.2001 7.2001 37.8001 7.6001 37.7001 8.1001C37.6001 8.3001 37.5001 8.8001 37.4001 9.1001L37.1001 10.2001C36.8001 11.6001 36.5001 13.1001 36.4001 14.5001C36.1001 15.9001 36.1001 17.4001 36.2001 18.9001ZM35.8001 18.9001C35.4001 16.0001 34.9001 13.0001 34.7001 9.9001L34.6001 8.8001C34.6001 8.4001 34.5001 8.1001 34.6001 7.6001C34.7001 6.7001 34.9001 5.7001 35.4001 4.8001C35.9001 4.0001 36.6001 3.2001 37.4001 2.6001C38.2001 2.0001 39.2001 1.7001 40.2001 1.5001C41.7001 1.3001 43.2001 1.1001 44.8001 1.1001C46.4001 1.1001 48.0001 1.2001 49.5001 1.4001L50.6001 1.6001L51.2001 1.7001H51.5001L52.0001 1.8001C53.0001 2.0001 53.9001 2.4001 54.7001 3.0001C56.3001 4.2001 57.4001 6.0001 57.5001 8.0001C57.6001 9.5001 57.7001 11.0001 57.7001 12.6001C57.7001 14.1001 57.6001 15.7001 57.4001 17.2001L57.3001 18.3001C57.2001 18.7001 57.2001 19.0001 57.1001 19.5001C56.9001 20.4001 56.5001 21.3001 56.0001 22.0001C54.9001 23.5001 53.2001 24.4001 51.5001 24.6001C50.0001 24.7001 48.5001 24.8001 47.0001 24.7001C45.5001 24.6001 44.0001 24.5001 42.5001 24.2001C41.8001 24.1001 41.0001 24.0001 40.3001 23.8001C39.5001 23.7001 38.8001 23.3001 38.2001 22.9001C36.9001 21.9001 36.0001 20.5001 35.8001 18.9001Z" fill="#001A4A"/>
</svg>
