<svg width="60" height="60" viewBox="0 0 60 60" fill="none" xmlns="http://www.w3.org/2000/svg">
<path d="M43.9997 16.0001C50.9997 16.9001 56.2997 22.8001 56.2997 30.0001C56.2997 37.2001 50.8997 43.1001 43.9997 44.0001C43.0997 51.0001 37.1997 56.3001 29.9997 56.3001C22.7997 56.3001 16.8997 50.9001 15.9997 44.0001C8.99971 43.1001 3.69971 37.2001 3.69971 30.0001C3.69971 22.8001 9.09971 16.9001 15.9997 16.0001C16.8997 9.00007 22.7997 3.70007 29.9997 3.70007C37.1997 3.70007 43.0997 9.10007 43.9997 16.0001Z" fill="#57c2b4"/>
<path d="M44.0998 15.9C44.4998 15.9 44.8998 16 45.2998 16L46.5998 16.3L47.7998 16.7L48.9998 17.2C50.5998 18 51.9998 19 53.0998 20.3C55.4998 22.9 56.8998 26.3 56.8998 29.9C56.9998 33.4 55.6998 37 53.3998 39.8C51.0998 42.5 47.6998 44.4 44.0998 44.9L44.9998 44C44.5998 47.6 42.7998 51.1 40.0998 53.6C37.3998 56.1 33.6998 57.5 29.9998 57.6C26.2998 57.7 22.5998 56.3 19.6998 53.9C16.7998 51.5 14.8998 47.9 14.3998 44.2L15.7998 45.6C11.9998 45.2 8.39981 43.3 5.89981 40.5C3.29981 37.7 1.8998 33.9 1.7998 30.1C1.7998 26.3 3.1998 22.4 5.6998 19.5C8.1998 16.6 11.7998 14.6 15.6998 14.1L13.9998 15.8C14.5998 12 16.6998 8.40001 19.5998 6.10001C22.4998 3.70001 26.2998 2.50001 29.8998 2.60001C33.5998 2.70001 37.0998 4.30001 39.6998 6.70001C40.9998 8.00001 42.0998 9.40001 42.7998 11L43.2998 12.2L43.6998 13.4L43.9998 14.7L44.0998 15.9ZM43.7998 16.2C43.6998 15.8 43.5998 15.3 43.4998 14.9L43.0998 13.7L42.5998 12.6L41.9998 11.5C41.1998 10.1 40.0998 8.80001 38.7998 7.80001C36.2998 5.80001 32.9998 4.70001 29.8998 4.90001C26.7998 5.00001 23.7998 6.40001 21.5998 8.50001C19.3998 10.6 18.0998 13.5 17.8998 16.4L17.7998 18H16.2998C13.3998 18.3 10.5998 19.7 8.6998 21.9C6.6998 24.1 5.5998 27 5.4998 30C5.4998 33 6.4998 35.9 8.4998 38.2C10.3998 40.5 13.2998 42 16.1998 42.4L17.4998 42.6L17.5998 43.8C17.8998 46.8 19.3998 49.7 21.5998 51.7C23.7998 53.8 26.8998 55 29.9998 55C33.0998 55.1 36.1998 53.9 38.5998 51.9C40.9998 49.9 42.5998 47 42.9998 43.8L43.0998 43L43.8998 42.9C46.9998 42.6 50.0998 41.1 52.1998 38.7C54.3998 36.3 55.6998 33.2 55.6998 29.9C55.7998 26.6 54.5998 23.4 52.4998 20.8C51.3998 19.5 50.0998 18.5 48.6998 17.7L47.5998 17.1L46.3998 16.6L45.1998 16.3C44.6998 16.4 44.2998 16.3 43.7998 16.2Z" fill="#001A4A"/>
<path d="M29.7998 22.8999C30.8998 20.2999 32.8998 18.0999 35.3998 16.4999C36.6998 15.6999 38.0998 15.1999 39.4998 14.7999C40.1998 14.5999 40.9998 14.4999 41.6998 14.3999C42.4998 14.2999 43.1998 14.3999 43.9998 14.3999H44.9998L45.3998 15.7999C45.5998 16.4999 45.7998 17.2999 45.8998 18.0999C45.8998 18.8999 45.8998 19.6999 45.7998 20.4999C45.5998 22.0999 44.9998 23.5999 44.1998 24.9999C43.3998 26.3999 42.2998 27.4999 41.0998 28.3999C39.8998 29.2999 38.3998 29.9999 36.8998 30.1999L36.6998 29.8999C37.5998 28.6999 38.3998 27.5999 38.9998 26.5999C39.5998 25.4999 40.1998 24.3999 40.5998 23.2999C40.9998 22.1999 41.2998 21.0999 41.5998 19.8999C41.6998 19.2999 41.7998 18.6999 41.8998 18.1999C41.9998 17.5999 41.9998 16.9999 42.1998 16.3999L43.5998 17.7999C42.3998 17.5999 41.0998 17.4999 39.8998 17.5999C38.5998 17.6999 37.3998 17.9999 36.1998 18.4999C33.7998 19.3999 31.5998 21.0999 29.9998 23.2999L29.7998 22.8999Z" fill="#001A4A"/>
<path d="M29.7999 23.1C28.1999 20.9 25.9999 19.2 23.5999 18.3C22.3999 17.8 21.1999 17.5 19.8999 17.4C18.5999 17.3 17.3999 17.4 16.1999 17.6L17.5999 16.2C17.7999 16.8 17.7999 17.4 17.8999 18C17.9999 18.6 18.0999 19.2 18.1999 19.7C18.3999 20.8 18.7999 22 19.1999 23.1C19.5999 24.2 20.1999 25.3 20.7999 26.4C21.4999 27.5 22.1999 28.6 23.0999 29.7L22.8999 30C21.3999 29.8 19.9999 29.2 18.6999 28.2C17.3999 27.3 16.3999 26.1 15.5999 24.8C14.7999 23.4 14.1999 21.9 13.9999 20.3C13.8999 19.5 13.8999 18.7 13.8999 17.9C13.9999 17.1 14.0999 16.3 14.3999 15.6L14.7999 14.2H15.7999C16.5999 14.2 17.2999 14.2 18.0999 14.2C18.8999 14.3 19.5999 14.4 20.2999 14.6C21.7999 15 23.1999 15.5 24.3999 16.3C26.8999 17.9 28.8999 20.1 29.9999 22.7L29.7999 23.1Z" fill="#001A4A"/>
<path d="M30.1998 23C30.4998 24.2 30.7998 25.3 30.9998 26.5C31.1998 27.7 31.3998 28.8 31.5998 30C31.7998 31.2 32.2998 32.3 31.9998 33.5C31.8998 34.1 31.6998 34.7 31.3998 35.2C31.0998 35.8 30.7998 36.4 30.1998 36.9H29.7998C29.1998 36.3 28.8998 35.7 28.5998 35.2C28.2998 34.6 28.0998 34 27.9998 33.5C27.6998 32.3 28.1998 31.2 28.3998 30C28.5998 28.8 28.7998 27.7 28.9998 26.5C29.1998 25.3 29.4998 24.2 29.7998 23H30.1998Z" fill="#001A4A"/>
<path d="M37.0998 29.7999C39.6998 30.8999 41.8998 32.8999 43.4998 35.3999C44.2998 36.6999 44.7998 38.0999 45.1998 39.4999C45.3998 40.1999 45.4998 40.9999 45.5998 41.6999C45.6998 42.4999 45.5998 43.1999 45.5998 43.9999V44.9999L44.1998 45.3999C43.4998 45.5999 42.6998 45.7999 41.8998 45.8999C41.0998 45.8999 40.2998 45.8999 39.4998 45.7999C37.8998 45.5999 36.3998 44.9999 34.9998 44.1999C33.5998 43.3999 32.4998 42.2999 31.5998 41.0999C30.6998 39.8999 29.9998 38.3999 29.7998 36.8999L30.0998 36.6999C31.2998 37.5999 32.3998 38.3999 33.3998 38.9999C34.4998 39.5999 35.5998 40.1999 36.6998 40.5999C37.7998 40.9999 38.8998 41.2999 40.0998 41.5999C40.6998 41.6999 41.2998 41.7999 41.7998 41.8999C42.3998 41.9999 42.9998 41.9999 43.5998 42.1999L42.1998 43.5999C42.3998 42.3999 42.4998 41.0999 42.3998 39.8999C42.2998 38.5999 41.9998 37.3999 41.4998 36.1999C40.5998 33.7999 38.8998 31.5999 36.6998 29.9999L37.0998 29.7999Z" fill="#001A4A"/>
<path d="M37.0001 30.1999C35.8001 30.4999 34.7001 30.7999 33.5001 30.9999C32.3001 31.1999 31.2001 31.3999 30.0001 31.5999C28.8001 31.7999 27.7001 32.2999 26.5001 31.9999C25.9001 31.8999 25.3001 31.6999 24.8001 31.3999C24.2001 31.0999 23.6001 30.7999 23.1001 30.1999V29.7999C23.7001 29.1999 24.3001 28.8999 24.8001 28.5999C25.4001 28.2999 26.0001 28.0999 26.5001 27.9999C27.7001 27.6999 28.8001 28.1999 30.0001 28.3999C31.2001 28.5999 32.3001 28.7999 33.5001 28.9999C34.7001 29.1999 35.8001 29.4999 37.0001 29.7999V30.1999Z" fill="#001A4A"/>
<path d="M30.2001 37.0999C29.1001 39.6999 27.1001 41.8999 24.6001 43.4999C23.3001 44.2999 21.9001 44.7999 20.5001 45.1999C19.8001 45.3999 19.0001 45.4999 18.3001 45.5999C17.5001 45.6999 16.8001 45.5999 16.0001 45.5999H15.0001L14.6001 44.1999C14.4001 43.4999 14.2001 42.6999 14.1001 41.8999C14.1001 41.0999 14.1001 40.2999 14.2001 39.4999C14.4001 37.8999 15.0001 36.3999 15.8001 34.9999C16.6001 33.5999 17.7001 32.4999 18.9001 31.5999C20.1001 30.6999 21.6001 29.9999 23.1001 29.7999L23.3001 30.0999C22.4001 31.2999 21.6001 32.3999 21.0001 33.3999C20.4001 34.4999 19.8001 35.5999 19.4001 36.6999C19.0001 37.7999 18.7001 38.8999 18.4001 40.0999C18.3001 40.6999 18.2001 41.2999 18.1001 41.7999C18.0001 42.3999 18.0001 42.9999 17.8001 43.5999L16.4001 42.1999C17.6001 42.3999 18.9001 42.4999 20.1001 42.3999C21.4001 42.2999 22.6001 41.9999 23.8001 41.4999C26.2001 40.5999 28.4001 38.8999 30.0001 36.6999L30.2001 37.0999Z" fill="#001A4A"/>
</svg>
