<svg width="60" height="60" viewBox="0 0 60 60" fill="none" xmlns="http://www.w3.org/2000/svg">
<path d="M46.7002 3.19995H13.3002C10.8002 3.19995 8.80018 5.39995 9.10018 7.89995C10.3002 17 12.8002 25.4 17.0002 32H24.0002L28.0002 22C28.0002 22 30.7002 18.7 32.6002 23.7C33.9002 26.9 35.0002 29.5 35.8002 31.4L43.0002 32C47.2002 25.4 49.7002 17 50.9002 7.89995C51.2002 5.39995 49.3002 3.19995 46.7002 3.19995Z" fill="#57c2b4"/>
<path d="M16.9 32.1001C14.5 28.7001 12.8 24.9001 11.4 21.0001C10 17.0001 9 13.0001 8.2 8.9001L8.1 8.1001C8.1 7.9001 8 7.5001 8 7.2001C8 6.6001 8.1 5.9001 8.4 5.3001C8.9 4.1001 9.9 3.1001 11.1 2.5001C11.7 2.2001 12.3 2.1001 13 2.0001C13.4 2.0001 13.6 2.0001 13.8 2.0001H14.6L17.7 1.9001L30 1.6001L42.3 1.2001L45.4 1.1001H46.2C46.5 1.1001 46.7 1.1001 47.1 1.1001C47.9 1.1001 48.6 1.3001 49.3 1.6001C50.7 2.2001 51.9 3.4001 52.5 4.8001C52.8 5.6001 53 6.4001 53 7.2001C53 7.6001 53 8.0001 52.9 8.3001L52.8 9.0001C52.1 13.1001 51 17.2001 49.5 21.2001C48 25.1001 45.9 28.9001 43.2 32.1001L42.9 31.9001C46.3 24.4001 48 16.5001 48.9 8.5001L49 7.8001C49 7.6001 49 7.6001 49 7.6001C49 7.5001 49 7.5001 49 7.4001C49 7.1001 48.9 6.9001 48.8 6.7001C48.6 6.2001 48.2 5.9001 47.7 5.6001C47.5 5.5001 47.2 5.4001 46.9 5.4001C46.8 5.4001 46.5 5.4001 46.2 5.4001H45.4L42.3 5.3001L30 4.8001L17.7 4.5001L14.6 4.4001H13.8C13.6 4.4001 13.2 4.4001 13.1 4.4001C12.7 4.4001 12.4 4.5001 12 4.6001C11.3 4.9001 10.7 5.4001 10.4 6.1001C10.2 6.4001 10.1 6.8001 10.1 7.2001C10.1 7.4001 10.1 7.6001 10.1 7.8001L10.2 8.6001C11.1 16.7001 13.1 24.8001 17.2 31.9001L16.9 32.1001Z" fill="#001A4A"/>
<path d="M23.7999 3.19995C24.0999 4.49995 24.2999 5.79995 24.5999 7.09995C24.7999 8.39995 24.9999 9.69995 25.1999 11C25.3999 12.3 25.8999 13.6 25.5999 14.9C25.2999 16.2 24.8999 17.5 23.7999 18.8H23.3999C22.2999 17.5 21.8999 16.2 21.5999 14.9C21.2999 13.6 21.7999 12.3 21.9999 11C22.1999 9.69995 22.3999 8.39995 22.5999 7.09995C22.8999 5.79995 23.0999 4.49995 23.3999 3.19995H23.7999Z" fill="#001A4A"/>
<path d="M36.6002 3.19995C36.9002 4.49995 37.1002 5.79995 37.4002 7.09995C37.6002 8.39995 37.8002 9.69995 38.0002 11C38.2002 12.3 38.7002 13.6 38.4002 14.9C38.1002 16.2 37.7002 17.5 36.6002 18.8H36.2002C35.1002 17.5 34.7002 16.2 34.4002 14.9C34.1002 13.6 34.6002 12.3 34.8002 11C35.0002 9.69995 35.2002 8.39995 35.4002 7.09995C35.7002 5.79995 35.9002 4.49995 36.2002 3.19995H36.6002Z" fill="#001A4A"/>
<path d="M27.8002 21.9C28.1002 21.3 28.6002 20.7 29.3002 20.6C30.0002 20.4 30.7002 20.5 31.3002 20.9C31.6002 21.1 31.8002 21.4 32.0002 21.6C32.2002 21.9 32.3002 22.2 32.4002 22.5L33.1002 24.3C34.1002 26.6 35.1002 28.9 36.2002 31.3L35.9002 31L42.4002 31.3L45.7002 31.5H46.1002H46.3002H46.6002C47.0002 31.5 47.3002 31.7 47.7002 31.9C48.4002 32.3 48.9002 32.9 49.0002 33.7C49.2002 34.4 49.1002 35.3 48.7002 36C48.5002 36.3 48.2002 36.7 48.0002 36.9L47.4002 37.4L44.9002 39.5L42.4002 41.6L41.8002 42.1L41.5002 42.4L41.4002 42.5C41.2002 42.7 41.2002 43 41.2002 43.2L42.7002 49.4L43.4002 52.6L43.5002 53V53.2L43.6002 53.5C43.7002 53.9 43.6002 54.4 43.5002 54.8C43.3002 55.7 42.7002 56.5 41.9002 56.9C41.2002 57.4 40.2002 57.6 39.3002 57.4C38.8002 57.3 38.4002 57.1 38.1002 56.9L37.4002 56.5L34.7002 54.7L29.2002 51.2H31.0002L25.6002 54.9L22.9002 56.8L22.2002 57.3C21.8002 57.6 21.3002 57.8 20.8002 57.9C19.8002 58.2 18.7002 58 17.8002 57.4C16.9002 56.9 16.2002 56 15.9002 55C15.8002 54.5 15.7002 53.9 15.8002 53.4L15.9002 53V52.8L16.0002 52.4L16.7002 49.2C16.9002 48.1 17.1002 47.1 17.4002 46L17.7002 44.4L17.9002 43.6L18.0002 43.2V43.1C18.0002 43.1 18.0002 43.1 18.0002 43L17.7002 42.7L17.1002 42.2L14.6002 40.1C13.8002 39.4 13.0002 38.7 12.2002 37.9L11.6002 37.3C11.3002 37 10.9002 36.6 10.7002 36.2C10.2002 35.3 10.1002 34.3 10.4002 33.4C10.7002 32.5 11.3002 31.7 12.1002 31.2C12.5002 31 13.0002 30.8 13.4002 30.8H13.7002H13.9002H14.3002H17.6002C19.8002 30.8 22.0002 30.8 24.2002 30.7L23.7002 31.1C24.5002 29.6 25.1002 28 25.9002 26.5C26.5002 25 27.2002 23.5 27.8002 21.9ZM28.2002 22.1C27.6002 23.7 27.0002 25.2 26.4002 26.8C25.8002 28.4 25.3002 30 24.7002 31.6L24.6002 31.9L24.2002 32C22.0002 32.3 19.9002 32.7 17.7002 33.1L14.5002 33.6L14.1002 33.7H13.9002H13.8002C13.7002 33.7 13.6002 33.8 13.6002 33.8C13.5002 33.9 13.4002 34.1 13.4002 34.2C13.4002 34.4 13.5002 34.5 13.5002 34.5C13.5002 34.5 13.6002 34.6 13.7002 34.6L14.4002 35.1C15.3002 35.7 16.1002 36.4 17.0002 37.1L19.6002 39.1L20.2002 39.6L20.5002 39.9C20.7002 40.1 20.9002 40.3 21.1002 40.5C21.8002 41.3 22.1002 42.4 22.1002 43.5C22.1002 43.6 22.1002 43.8 22.1002 43.9L22.0002 44.1L21.9002 44.5L21.7002 45.3L21.4002 46.9C21.2002 48 20.9002 49 20.7002 50.1L20.0002 53.3L19.9002 53.7V53.9C19.9002 53.9 19.9002 54 20.0002 54L20.1002 54.1C20.1002 54.1 20.1002 54.1 20.2002 54.1L20.9002 53.7L23.7002 52L29.2002 48.5L30.2002 47.9L31.1002 48.5L36.5002 52.2L39.0002 54L39.7002 54.5C39.8002 54.6 39.9002 54.6 40.0002 54.6C40.2002 54.6 40.3002 54.6 40.5002 54.5C40.7002 54.4 40.8002 54.2 40.9002 54.1C40.9002 54 40.9002 53.9 40.9002 53.8V53.7V53.5L40.8002 53.1L40.1002 50L39.5002 46.8L39.2002 45.2L39.0002 44.4C39.0002 44.1 38.9002 43.9 38.8002 43.4C38.7002 42.6 39.0002 41.7 39.6002 41.1C39.7002 40.9 39.9002 40.8 40.0002 40.7L40.3002 40.4L40.9002 39.9L43.5002 37.9L46.1002 35.9L46.7002 35.4C46.8002 35.3 46.9002 35.2 47.0002 35.1C47.2002 34.9 47.2002 34.5 47.2002 34.2C47.1002 33.9 46.9002 33.6 46.7002 33.4C46.6002 33.3 46.4002 33.2 46.2002 33.2H46.1002H45.9002L45.5002 33L42.3002 32.6L35.8002 31.8H35.6002L35.5002 31.6C34.6002 29.2 33.7002 26.9 32.8002 24.5L32.1002 22.7C32.0002 22.4 31.9002 22.1 31.7002 21.8C31.5002 21.6 31.3002 21.3 31.1002 21.2C30.6002 20.9 30.0002 20.8 29.4002 21C28.9002 21.1 28.4002 21.5 28.2002 22.1Z" fill="#001A4A"/>
</svg>
