<svg width="32" height="32" viewBox="0 0 32 32" fill="none" xmlns="http://www.w3.org/2000/svg">
<g clip-path="url(#clip0_6596_5649)">
<path d="M28.0001 18.9867C28.0001 20.0533 27.5735 21.0667 26.8268 21.8133C26.0801 22.56 25.0668 22.9867 24.0001 22.9867H8.00012C6.93346 22.9867 5.92012 22.56 5.17346 21.8133C4.42679 21.0667 4.00012 20.0533 4.00012 18.9867C4.00012 17.92 4.42679 16.9067 5.17346 16.16C5.92012 15.4133 6.93346 14.9867 8.00012 14.9867H24.0001C25.0668 14.9867 26.0801 15.4133 26.8268 16.16C27.5735 16.9067 28.0001 17.92 28.0001 18.9867Z" fill="#57c2b4"/>
<path d="M28.1069 18.9867C28.1069 20.2133 27.5202 21.3867 26.5602 22.1867C26.0802 22.56 25.5469 22.88 24.9602 23.04C24.6402 23.0933 24.3736 23.2 24.0536 23.2L23.1469 23.2533C20.7469 23.36 18.4002 23.52 16.0002 23.5733L8.85357 23.7333H7.9469C7.57357 23.7333 7.25357 23.68 6.88024 23.6267C6.1869 23.4667 5.49357 23.1467 4.96024 22.72C3.84024 21.8667 3.09357 20.4267 3.09357 18.9333C3.04024 17.4933 3.73357 16 4.85357 15.04C5.44024 14.56 6.08024 14.1867 6.8269 14.0267C7.20024 13.92 7.57357 13.8667 7.9469 13.8667L8.85357 13.8133C11.2536 13.76 13.6002 13.76 16.0002 13.8133C18.4002 13.8667 20.7469 14.08 23.1469 14.3467L24.0536 14.4533C24.3736 14.5067 24.6936 14.56 25.0136 14.6667C25.6536 14.88 26.1869 15.2 26.6669 15.6267C27.6269 16.5333 28.1602 17.76 28.1069 18.9867ZM27.8936 18.9867C27.8936 18.4 27.7336 17.8133 27.4669 17.3333C27.2002 16.8533 26.8269 16.4267 26.3469 16.1067C25.8669 15.7867 25.3869 15.6267 24.8536 15.52C24.5869 15.4667 24.3202 15.4667 24.0536 15.52L23.1469 15.6267C20.7469 15.8933 18.4002 16.1067 16.0002 16.16C13.6002 16.2133 11.2536 16.2133 8.85357 16.16L8.00024 16.1067C7.7869 16.1067 7.57357 16.1067 7.36024 16.16C6.93357 16.2133 6.5069 16.4267 6.13357 16.6933C5.44024 17.2267 4.96024 18.08 4.9069 19.04C4.85357 19.9467 5.28024 20.9067 6.0269 21.4933C6.40024 21.8133 6.8269 22.0267 7.25357 22.1333C7.4669 22.1867 7.73357 22.24 7.9469 22.24H8.85357L16.0002 22.4533C18.4002 22.5067 20.7469 22.6667 23.1469 22.7733L24.0536 22.8267C24.3202 22.8267 24.6402 22.8267 24.9069 22.7733C25.4402 22.6667 26.0269 22.4 26.4536 22.08C26.9336 21.7067 27.3069 21.28 27.5202 20.7467C27.7869 20.16 27.8936 19.5733 27.8936 18.9867Z" fill="#001A4A"/>
<path d="M28.0001 26.9867C28.0001 28.0533 27.5735 29.0667 26.8268 29.8133C26.0801 30.56 25.0668 30.9867 24.0001 30.9867H8.00012C6.93346 30.9867 5.92012 30.56 5.17346 29.8133C4.42679 29.0667 4.00012 28.0533 4.00012 26.9867C4.00012 25.92 4.42679 24.9067 5.17346 24.16C5.92012 23.4133 6.93346 22.9867 8.00012 22.9867H24.0001C25.0668 22.9867 26.0801 23.4133 26.8268 24.16C27.5735 24.9067 28.0001 25.92 28.0001 26.9867Z" fill="#57c2b4"/>
<path d="M28.1069 26.9867C28.1069 28.2133 27.5202 29.3867 26.5602 30.1867C26.0802 30.56 25.5469 30.88 24.9602 31.04C24.6402 31.0933 24.3736 31.2 24.0536 31.2L23.1469 31.2533C20.7469 31.36 18.4002 31.52 16.0002 31.5733L8.85357 31.7333H7.9469C7.57357 31.7333 7.25357 31.68 6.88024 31.6267C6.1869 31.4667 5.49357 31.1467 4.96024 30.72C3.84024 29.8667 3.09357 28.4267 3.09357 26.9333C3.04024 25.4933 3.73357 24 4.85357 23.04C5.44024 22.56 6.08024 22.1867 6.8269 22.0267C7.20024 21.92 7.57357 21.8667 7.9469 21.8667L8.85357 21.8133C11.2536 21.76 13.6002 21.76 16.0002 21.8133C18.4002 21.8667 20.7469 22.08 23.1469 22.3467L24.0536 22.4533C24.3736 22.5067 24.6936 22.56 25.0136 22.6667C25.6536 22.88 26.1869 23.2 26.6669 23.6267C27.6269 24.5333 28.1602 25.76 28.1069 26.9867ZM27.8936 26.9867C27.8936 26.4 27.7336 25.8133 27.4669 25.3333C27.2002 24.8533 26.8269 24.4267 26.3469 24.1067C25.8669 23.7867 25.3869 23.6267 24.8536 23.52C24.5869 23.4667 24.3202 23.4667 24.0536 23.52L23.1469 23.6267C20.7469 23.8933 18.4002 24.1067 16.0002 24.16C13.6002 24.2133 11.2536 24.2133 8.85357 24.16L8.00024 24.1067C7.7869 24.1067 7.57357 24.1067 7.36024 24.16C6.93357 24.2133 6.5069 24.4267 6.13357 24.6933C5.44024 25.2267 4.96024 26.08 4.9069 27.04C4.85357 27.9467 5.28024 28.9067 6.0269 29.4933C6.40024 29.8133 6.8269 30.0267 7.25357 30.1333C7.4669 30.1867 7.73357 30.24 7.9469 30.24H8.85357L16.0002 30.4533C18.4002 30.5067 20.7469 30.6667 23.1469 30.7733L24.0536 30.8267C24.3202 30.8267 24.6402 30.8267 24.9069 30.7733C25.4402 30.6667 26.0269 30.4 26.4536 30.08C26.9336 29.7067 27.3069 29.28 27.5202 28.7467C27.7869 28.16 27.8936 27.5733 27.8936 26.9867Z" fill="#001A4A"/>
<path d="M16 18.9866C16.16 18.56 16.32 18.2933 16.48 18.1333C16.64 17.9733 16.8 17.92 16.96 17.92C17.12 17.92 17.28 17.9733 17.44 18.1333C17.6 18.2933 17.76 18.5066 17.92 18.9866C17.76 19.4133 17.6 19.68 17.44 19.84C17.28 20 17.12 20.0533 16.96 20.0533C16.8 20.0533 16.64 20 16.48 19.84C16.32 19.68 16.16 19.4666 16 18.9866Z" fill="#001A4A"/>
<path d="M22.0266 18.9866C22.1866 18.56 22.3466 18.2933 22.5066 18.1333C22.6666 17.9733 22.8266 17.92 22.9866 17.92C23.1466 17.92 23.3066 17.9733 23.4666 18.1333C23.6266 18.2933 23.7866 18.5066 23.9466 18.9866C23.7866 19.4133 23.6266 19.68 23.4666 19.84C23.3066 20 23.1466 20.0533 22.9866 20.0533C22.8266 20.0533 22.6666 20 22.5066 19.84C22.3466 19.68 22.1866 19.4666 22.0266 18.9866Z" fill="#001A4A"/>
<path d="M9.01332 19.52C8.85332 20 8.37332 20.16 7.99999 20C7.62665 19.8933 7.35999 19.4667 7.35999 18.9867C7.35999 18.56 7.62665 18.1333 7.99999 17.9733C8.37332 17.8133 8.85332 17.9733 9.01332 18.4533C8.90665 18.9333 9.11999 19.2 9.27999 19.2533C9.49332 19.3067 9.65332 19.1467 9.65332 18.9867C9.65332 18.8267 9.49332 18.6667 9.27999 18.72C9.06665 18.7733 8.85332 19.04 9.01332 19.52Z" fill="#001A4A"/>
<path d="M9.01354 19.52C9.1202 19.04 8.90687 18.7733 8.74687 18.72C8.53354 18.6667 8.37354 18.8267 8.37354 18.9867C8.37354 19.1467 8.53354 19.3067 8.74687 19.2533C8.9602 19.2 9.17354 18.9333 9.01354 18.4533C9.17354 17.9733 9.65354 17.8133 10.0269 17.9733C10.4002 18.08 10.6669 18.5067 10.6669 18.9867C10.6669 19.4133 10.4002 19.84 10.0269 20C9.6002 20.1067 9.1202 20 9.01354 19.52Z" fill="#001A4A"/>
<path d="M9.01332 27.52C8.85332 28 8.37332 28.16 7.99999 28C7.62665 27.8933 7.35999 27.4667 7.35999 26.9867C7.35999 26.56 7.62665 26.1333 7.99999 25.9733C8.37332 25.8133 8.85332 25.9733 9.01332 26.4533C8.90665 26.9333 9.11999 27.2 9.27999 27.2533C9.49332 27.3067 9.65332 27.1467 9.65332 26.9867C9.65332 26.8267 9.49332 26.6667 9.27999 26.72C9.06665 26.7733 8.85332 27.04 9.01332 27.52Z" fill="#001A4A"/>
<path d="M9.01354 27.52C9.1202 27.04 8.90687 26.7733 8.74687 26.72C8.53354 26.6667 8.37354 26.8267 8.37354 26.9867C8.37354 27.1467 8.53354 27.3067 8.74687 27.2533C8.9602 27.2 9.17354 26.9333 9.01354 26.4533C9.17354 25.9733 9.65354 25.8133 10.0269 25.9733C10.4002 26.08 10.6669 26.5067 10.6669 26.9867C10.6669 27.4133 10.4002 27.84 10.0269 28C9.6002 28.1067 9.1202 28 9.01354 27.52Z" fill="#001A4A"/>
<path d="M16 26.9866C16.16 26.56 16.32 26.2933 16.48 26.1333C16.64 25.9733 16.8 25.92 16.96 25.92C17.12 25.92 17.28 25.9733 17.44 26.1333C17.6 26.2933 17.76 26.5066 17.92 26.9866C17.76 27.4133 17.6 27.68 17.44 27.84C17.28 28 17.12 28.0533 16.96 28.0533C16.8 28.0533 16.64 28 16.48 27.84C16.32 27.68 16.16 27.4666 16 26.9866Z" fill="#001A4A"/>
<path d="M22.0266 26.9866C22.1866 26.56 22.3466 26.2933 22.5066 26.1333C22.6666 25.9733 22.8266 25.92 22.9866 25.92C23.1466 25.92 23.3066 25.9733 23.4666 26.1333C23.6266 26.2933 23.7866 26.5066 23.9466 26.9866C23.7866 27.4133 23.6266 27.68 23.4666 27.84C23.3066 28 23.1466 28.0533 22.9866 28.0533C22.8266 28.0533 22.6666 28 22.5066 27.84C22.3466 27.68 22.1866 27.4666 22.0266 26.9866Z" fill="#001A4A"/>
<path d="M30.72 16C30.9866 14.72 30.8266 13.44 30.2933 12.2667C29.8133 11.0933 28.96 10.1333 27.9467 9.49333C26.9333 8.85333 25.7066 8.53333 24.48 8.58667C23.3067 8.64 22.1333 9.01333 21.1733 9.76C20.9067 9.97333 20.48 9.92 20.2666 9.65333C20.2133 9.6 20.16 9.49333 20.16 9.38667V9.33333C19.6266 6.77333 17.92 4.48 15.68 3.25333C14.56 2.61333 13.3333 2.24 12.0533 2.13333C10.7733 2.02667 9.54665 2.18667 8.37331 2.61333C6.02665 3.41333 3.94665 5.01333 2.77331 7.30667C1.54665 9.49333 1.22665 12.2667 1.97331 14.9867C1.97331 15.04 1.97331 15.0933 1.86665 15.1467C1.81331 15.1467 1.75998 15.1467 1.75998 15.0933C0.159981 12.6933 -0.106685 9.33333 1.01331 6.45333C1.54665 5.01333 2.50665 3.68 3.62665 2.61333C4.79998 1.54667 6.18665 0.746667 7.67998 0.320001C10.72 -0.533333 14.08 6.33299e-07 16.64 1.70667C19.2533 3.36 21.0133 6.13333 21.4933 9.12L20.48 8.69333C21.7066 7.89333 23.0933 7.46667 24.5333 7.52C25.9733 7.57333 27.3067 8.05333 28.4266 8.85333C29.5466 9.65333 30.4 10.8267 30.8266 12.1067C31.2533 13.3867 31.3067 14.7733 30.9333 16.0533C30.9333 16.1067 30.8267 16.16 30.7733 16.1067C30.72 16.1067 30.72 16.0533 30.72 16Z" fill="#001A4A"/>
</g>
<defs>
<clipPath id="clip0_6596_5649">
<rect width="32" height="32" fill="white"/>
</clipPath>
</defs>
</svg>
