<svg width="60" height="60" viewBox="0 0 60 60" fill="none" xmlns="http://www.w3.org/2000/svg">
<g clip-path="url(#clip0_3389_21928)">
<rect x="-1" width="60" height="60" rx="10" fill="white"/>
<path d="M5.6001 52.2L3.6001 52.3H3.1001C2.9001 52.3 2.7001 52.3 2.5001 52.2C2.1001 52.1 1.8001 51.8 1.6001 51.4C1.5001 51.2 1.5001 51 1.5001 50.8V50.3V49.3L1.4001 47.3L1.2001 39.4C1.2001 38.1 1.1001 36.8 1.1001 35.4C1.1001 34 1.2001 32.7 1.4001 31.3C1.8001 28.6 2.5001 26 3.6001 23.5C5.8001 18.5 9.6001 14.2 14.2001 11.1C18.9001 8.09998 24.4001 6.39998 30.0001 6.29998C35.6001 6.19998 41.2001 7.59998 46.1001 10.5C51.0001 13.4 55.0001 17.8 57.3001 23C58.4001 25.6 59.3001 28.3 59.6001 31.1C59.8001 32.5 59.9001 33.9 59.8001 35.3C59.8001 36.7 59.7001 38 59.6001 39.3C59.5001 41.9 59.3001 44.6 59.1001 47.2L58.9001 49.2L58.8001 50.2V50.7C58.8001 50.9 58.7001 51.2 58.6001 51.4C58.4001 51.9 58.0001 52.2 57.6001 52.4C57.4001 52.5 57.1001 52.5 56.9001 52.5H56.4001L54.4001 52.3C54.3001 52.3 54.2001 52.2 54.2001 52.1C54.2001 52 54.3001 51.9 54.4001 51.9L56.4001 51.7H56.9001C57.0001 51.7 57.1001 51.6 57.2001 51.6C57.4001 51.5 57.5001 51.3 57.5001 51.2L57.2001 47.5C57.0001 44.9 56.8001 42.2 56.7001 39.6L56.5001 35.7C56.4001 34.5 56.2001 33.2 56.0001 32C55.5001 29.6 54.7001 27.3 53.6001 25.1C51.4001 20.8 48.1001 17 44.0001 14.3C40.0001 11.6 35.1001 9.99998 30.1001 9.89998C25.1001 9.79998 20.1001 11.1 15.9001 13.7C11.6001 16.3 8.0001 20.1 5.8001 24.6C4.7001 26.9 3.8001 29.3 3.3001 31.8C2.8001 34.3 2.8001 36.9 2.7001 39.5L2.5001 47.4L2.4001 49.4V50.4V50.9C2.4001 51 2.4001 51.1 2.5001 51.2C2.6001 51.4 2.8001 51.6 3.0001 51.7C3.1001 51.7 3.2001 51.8 3.4001 51.8H3.9001L5.9001 51.9C6.0001 51.9 6.1001 52 6.1001 52.1C5.8001 52.1 5.7001 52.2 5.6001 52.2Z" fill="#001A4A"/>
<path d="M14.6999 29C14.4999 31.5 14.3999 34.5 14.3999 37C14.3999 40.4 14.7999 44.5 15.0999 47.4C15.3999 49.6 16.5999 51.6 18.5999 52.5C21.0999 53.6 24.9999 54.9 29.3999 54.9C33.8999 54.9 37.6999 53.6 40.1999 52.5C42.1999 51.6 43.4999 49.6 43.6999 47.4C43.9999 44.5 44.3999 40.3 44.3999 37C44.3999 34.4 44.1999 31.9 43.9999 29.4" fill="#57c2b4"/>
<path d="M14.9999 29L15.0999 33.5C15.0999 35 15.0999 36.5 15.1999 38C15.3999 41 15.7999 43.9 16.2999 46.9C16.3999 47.3 16.3999 47.6 16.4999 47.9C16.5999 48.2 16.6999 48.5 16.7999 48.8C16.9999 49.4 17.3999 49.9 17.7999 50.3C18.1999 50.7 18.6999 51.1 19.1999 51.3C19.7999 51.5 20.4999 51.8 21.1999 52C23.8999 52.9 26.6999 53.4 29.4999 53.3C32.2999 53.2 34.9999 52.6 37.5999 51.5C38.1999 51.2 38.8999 51 39.4999 50.7C39.9999 50.5 40.2999 50.2 40.5999 49.9C41.1999 49.2 41.6999 48.3 41.8999 47.2C42.3999 44.3 42.7999 41.4 43.1999 38.4C43.3999 37 43.4999 35.5 43.5999 34C43.7999 32.5 43.8999 31 44.1999 29.5C44.1999 29.4 44.2999 29.3 44.4999 29.3C44.5999 29.3 44.6999 29.4 44.6999 29.5C45.0999 31 45.3999 32.5 45.6999 34C45.8999 35.5 46.2999 37 46.3999 38.6C46.5999 41.7 46.4999 44.7 46.2999 47.8C46.1999 49.7 45.3999 51.7 43.9999 53.1C43.2999 53.8 42.2999 54.4 41.4999 54.8C40.7999 55.1 39.9999 55.4 39.1999 55.6C36.0999 56.5 32.8999 57 29.6999 56.8C26.4999 56.7 23.2999 55.9 20.3999 54.8C19.6999 54.5 18.9999 54.2 18.1999 53.8C17.3999 53.4 16.6999 52.8 16.0999 52.1C14.8999 50.7 14.3999 48.9 14.3999 47.3C14.1999 44.3 14.0999 41.3 14.1999 38.2C14.2999 35.2 14.6999 32.2 14.9999 29.2C14.9999 29.1 15.0999 29 15.1999 29C14.8999 28.8 14.9999 28.9 14.9999 29Z" fill="#001A4A"/>
<path d="M30.2001 35.1C37.9873 35.1 44.3001 32.1899 44.3001 28.6C44.3001 25.0102 37.9873 22.1 30.2001 22.1C22.4129 22.1 16.1001 25.0102 16.1001 28.6C16.1001 32.1899 22.4129 35.1 30.2001 35.1Z" fill="#57c2b4"/>
<path d="M30.2 35C33 35.1 35.9 34.8 38.5 33.8C39.8 33.3 41 32.6 41.9 31.7C42.8 30.8 43.2 29.7 43.2 28.6C43.1 26.3 40.8 25 38.2 24.4C35.6 23.8 32.9 23.7 30.1 23.8C27.4 23.9 24.6 24.3 22.2 25.1C21 25.5 19.9 26 19.2 26.6C18.5 27.2 18.2 27.8 18.1 28.6C18.1 29.4 18.2 30.1 18.9 30.9C19.6 31.7 20.7 32.5 21.9 33C24.5 34.3 27.3 34.9 30.2 35ZM30.2 35.4C27.3 35.5 24.5 35.7 21.4 35.3C19.9 35.1 18.3 34.7 16.8 33.7C16 33.2 15.3 32.5 14.8 31.6C14.3 30.7 14 29.6 14 28.6C14 27.6 14.2 26.5 14.7 25.5C15.2 24.6 15.9 23.7 16.6 23.1C18.1 21.9 19.7 21.3 21.3 20.9C24.4 20.2 27.4 20.2 30.4 20.2C33.3 20.3 36.3 20.6 39.3 21.5C40.8 22 42.2 22.6 43.5 23.8C44.1 24.3 44.7 25.1 45.1 25.9C45.5 26.7 45.6 27.6 45.6 28.5C45.5 29.4 45.3 30.2 44.9 31C44.5 31.7 43.9 32.4 43.2 32.8C41.9 33.7 40.4 34.2 39 34.5C35.9 35.2 33 35.3 30.2 35.4Z" fill="#001A4A"/>
<path d="M14.5996 41.1C23.9996 45.9 35.0996 45.9 44.4996 41.1H14.5996Z" fill="#57c2b4"/>
<path d="M14.5998 41C16.9998 41.9 19.4998 42.5 21.9998 42.8L23.8998 43L25.7998 43.1H27.6998L29.4998 43C30.0998 42.9 30.6998 42.9 31.2998 42.8L33.0998 42.4C33.6998 42.2 34.2998 42.1 34.8998 42C35.4998 41.9 36.0998 41.8 36.6998 41.7C39.0998 41.4 41.4998 41 44.3998 40.9C44.4998 40.9 44.5998 41 44.5998 41.1C44.5998 41.2 44.5998 41.2 44.4998 41.3C42.6998 43.5 40.1998 45 37.5998 45.9C36.8998 46.1 36.2998 46.3 35.5998 46.4C34.8998 46.5 34.1998 46.6 33.4998 46.6H31.3998C30.6998 46.5 29.9998 46.5 29.3998 46.5L27.3998 46.3L25.3998 46L23.3998 45.5L21.4998 44.9C18.9998 44 16.5998 42.9 14.3998 41.4C14.2998 41.3 14.2998 41.2 14.2998 41.1C14.4998 41 14.5998 40.9 14.5998 41Z" fill="#001A4A"/>
</g>
<defs>
<clipPath id="clip0_3389_21928">
<rect width="60" height="60" fill="white"/>
</clipPath>
</defs>
</svg>
