<svg width="60" height="60" viewBox="0 0 60 60" fill="none" xmlns="http://www.w3.org/2000/svg">
<path d="M29.6 37.8001C29.2 35.8001 27.4 34.4001 25.4 34.4001H8.39995C5.69995 34.4001 3.69995 36.9001 4.19995 39.5001L6.79995 52.4001C7.19995 54.4001 8.99995 55.8001 11 55.8001H33.2L29.6 37.8001Z" fill="#57c2b4"/>
<path d="M29.4 37.8C29.1 36.4 28.1 35.1001 26.7 34.7001C26 34.5001 25.3 34.5 24.5 34.5L22.3 34.6L13.3 35.1C11.8 35.2 10.3 35.2 8.80001 35.3C8.60001 35.3 8.40001 35.3 8.30001 35.3C8.20001 35.3 8.00001 35.3001 7.90001 35.4001C7.60001 35.5001 7.30001 35.5001 7.10001 35.7001C6.60001 35.9001 6.20001 36.3 5.80001 36.8C5.50001 37.3 5.30001 37.8 5.30001 38.3C5.30001 38.6 5.30001 38.8 5.30001 39.1C5.30001 39.4 5.50001 39.8 5.50001 40.1L6.50001 44.5L7.50001 48.9001L8.10001 51L8.30001 52.1C8.40001 52.3 8.50001 52.5 8.60001 52.8C9.10001 53.6 10 54.1 10.9 54.1L15.3 54C21.3 53.8 27.2 53.7 33.2 54.1L31.5 56.2001C31.1 53.2001 30.9 50.1 30.6 47C30.5 45.5 30.3 43.9001 30.1 42.4001C29.9 40.9001 29.7 39.3 29.4 37.8ZM29.8 37.8C30.1 39.3 30.5 40.8 30.9 42.3C31.3 43.8 31.8 45.2001 32.2 46.7001C33.1 49.6 34.1 52.6 34.9 55.5L35.4 57.5L33.1 57.7001C27.1 58.1 21.2 58.1 15.2 57.8L10.6 57.6C8.50001 57.5 6.60001 56.2 5.70001 54.3C5.50001 53.8 5.30001 53.4001 5.20001 52.9001L5.00001 51.8L4.60001 49.6L4.00001 45L3.20001 40.6C3.10001 40.2 3.10001 39.9001 3.00001 39.4001C2.90001 39.0001 3.00001 38.5 3.00001 38C3.10001 37.1 3.50001 36.2001 4.10001 35.4001C4.70001 34.7001 5.40001 34.1001 6.30001 33.7001C6.70001 33.5001 7.20001 33.4 7.60001 33.3C7.80001 33.3 8.10001 33.3 8.30001 33.3C8.50001 33.3 8.70001 33.3 8.90001 33.3C10.4 33.4 11.9 33.4 13.4 33.5L22.4 34L24.6 34.1C25.3 34.1 26.1 34.1001 26.9 34.4001C28.3 34.9001 29.5 36.2 29.8 37.8Z" fill="#001A4A"/>
<path d="M39.0998 28.9999C41.3998 29.0999 43.7998 27.9999 45.1998 26.1999C46.6998 24.3999 47.2998 22.1999 47.1998 20.0999C47.0998 17.9999 46.0998 15.9999 44.5998 14.5999C43.0998 13.1999 41.0998 12.4999 39.0998 12.5999C37.0998 12.6999 35.2998 13.5999 34.0998 15.0999C32.8998 16.4999 32.1998 18.2999 31.9998 20.0999C31.8998 21.8999 32.1998 23.8999 33.3998 25.7999C33.9998 26.6999 34.7998 27.4999 35.7998 28.0999C36.7998 28.6999 37.8998 28.9999 39.0998 28.9999ZM39.0998 29.3999C36.6998 29.4999 34.0998 28.8999 31.8998 27.2999C30.7998 26.4999 29.7998 25.4999 29.0998 24.1999C28.3998 22.9999 27.9998 21.4999 27.8998 20.0999C27.7998 17.1999 28.9998 14.1999 31.1998 12.2999C33.2998 10.2999 36.1998 9.29989 38.9998 9.39989C41.7998 9.49989 44.4998 10.6999 46.3998 12.6999C48.2998 14.6999 49.1998 17.3999 49.0998 20.0999C48.9998 22.7999 47.6998 25.1999 45.6998 26.7999C43.8998 28.4999 41.4998 29.2999 39.0998 29.3999Z" fill="#001A4A"/>
<path d="M33.2002 56.5999C37.1002 56.2999 41.0002 56.0999 44.9002 55.7999C48.8002 55.5999 52.7002 55.3999 56.6002 55.1999L55.0002 56.6999C55.0002 54.2999 54.6002 51.8999 53.9002 49.5999C53.2002 47.2999 52.3002 45.0999 51.2002 43.0999C50.0002 41.0999 48.6002 39.1999 46.8002 37.5999C45.0002 35.9999 42.9002 34.6999 40.5002 33.6999L40.6002 33.2999C43.3002 33.1999 46.0002 33.8999 48.5002 35.2999C50.9002 36.6999 53.1002 38.6999 54.7002 40.9999C56.3002 43.2999 57.3002 45.9999 57.9002 48.6999C58.4002 51.3999 58.5002 54.1999 58.3002 56.8999L58.2002 58.4999L56.7002 58.3999C52.8002 58.1999 48.9002 57.9999 45.0002 57.7999C41.1002 57.4999 37.2002 57.2999 33.3002 56.9999V56.5999H33.2002Z" fill="#001A4A"/>
</svg>
