<svg width="60" height="60" viewBox="0 0 60 60" fill="none" xmlns="http://www.w3.org/2000/svg">
<g clip-path="url(#clip0_3389_21845)">
<rect x="1" width="60" height="60" rx="10" fill="white"/>
<path d="M24.0998 57.7C19.2998 56.8 14.5998 54.6 10.8998 51.4C7.09983 48.2 4.19983 43.9 2.49983 39.1C0.799827 34.3 0.399827 29.1 1.29983 24.1C2.19983 19.1 4.49983 14.3 7.79983 10.3C11.0998 6.30002 15.4998 3.20002 20.3998 1.40002C25.2998 -0.399975 30.7998 -0.799975 35.8998 0.300025C38.4998 0.900025 40.8998 1.80002 43.1998 3.00002C45.4998 4.20002 47.5998 5.70002 49.4998 7.50002C53.1998 11.1 55.7998 15.6 56.8998 20.5C56.8998 20.6 56.8998 20.7 56.6998 20.8C56.5998 20.8 56.4998 20.8 56.4998 20.7C54.2998 16.4 51.1998 12.7 47.4998 9.90002C43.7998 7.00002 39.4998 5.20002 34.9998 4.50002C30.5998 3.80002 25.9998 4.10002 21.6998 5.40002C17.3998 6.70002 13.3998 9.20003 10.2998 12.6C7.19983 15.9 4.99983 20.1 3.99983 24.7C2.99983 29.2 3.09983 34 4.49983 38.5C5.79983 43 8.39983 47.2 11.7998 50.4C15.1998 53.7 19.5998 56.1 24.1998 57.3C24.2998 57.3 24.3998 57.4 24.3998 57.6C24.2998 57.7 24.1998 57.7 24.0998 57.7Z" fill="#001A4A"/>
<path d="M12.2999 52C12.8999 47.7 13.5999 43.5 14.1999 39.3C14.2999 38.9 14.5999 38.7 14.8999 38.6H14.9999L17.0999 38.5H17.5999C17.7999 38.5 17.8999 38.5 17.9999 38.5C18.2999 38.5 18.4999 38.4 18.6999 38.2C19.1999 38 19.4999 37.6 19.7999 37.2C20.0999 36.8 20.1999 36.3 20.1999 35.8C20.1999 35.6 20.1999 35.3 20.0999 35.1L19.7999 34.1L19.1999 32.1L17.9999 28V27.6V27.4C17.9999 27.3 17.8999 27.2 17.8999 27.1C17.7999 26.9 17.6999 26.7 17.4999 26.6C17.1999 26.3 16.7999 26.1 16.3999 26C16.1999 26 15.9999 25.9 15.7999 26L14.6999 26.1L12.5999 26.2L4.0999 26.7C2.8999 26.8 1.9999 25.9 1.8999 24.7C1.8999 24.4 1.8999 24.2 1.9999 23.9L2.0999 23.7C2.4999 22.5 2.8999 21.4 3.4999 20.3C4.0999 19.2 4.6999 18.1 5.9999 17C6.2999 16.7 6.7999 16.4 7.3999 16.2C7.5999 16.1 7.7999 16.1 7.9999 16C8.4999 16 8.9999 15.8 9.4999 15.5L12.4999 14.1C13.4999 13.6 14.4999 13.2 15.6999 12.8L16.0999 12.7L16.2999 12.6C16.3999 12.5 16.4999 12.5 16.5999 12.4C16.7999 12.2 16.9999 12 17.1999 11.5C17.2999 11.1 17.3999 10.6 17.4999 10L17.5999 9.50002C17.5999 9.40002 17.6999 9.00002 17.6999 9.10002C17.6999 9.00002 17.7999 8.80002 17.6999 8.60002C17.5999 7.80002 16.9999 6.70002 15.9999 6.80002C15.8999 6.80002 15.7999 6.70002 15.7999 6.60002C15.7999 6.50002 15.7999 6.40002 15.8999 6.40002C16.4999 6.10002 17.2999 6.20002 17.7999 6.60002C18.3999 7.00002 18.7999 7.50002 19.0999 8.10002C19.1999 8.40002 19.3999 8.80002 19.2999 9.30002C19.2999 9.60002 19.2999 9.60002 19.2999 9.70002V10.1C19.2999 10.6 19.3999 11.2 19.2999 11.9C19.1999 12.6 19.0999 13.4 18.4999 14.1C18.2999 14.4 17.8999 14.7 17.5999 15C17.3999 15.1 17.2999 15.2 17.0999 15.3L16.6999 15.5L13.9999 17.2C13.0999 17.8 12.0999 18.4 11.0999 19C10.5999 19.3 10.0999 19.6 9.4999 19.8C9.1999 19.9 8.8999 20.1 8.5999 20.2C8.6999 20.2 8.6999 20.2 8.5999 20.3C8.3999 20.5 8.1999 20.8 7.9999 21.2C7.7999 21.6 7.4999 22 7.2999 22.4C6.7999 23.3 6.3999 24.3 5.9999 25.1L3.8999 22.2L12.3999 22.5L14.4999 22.6H15.5999C16.0999 22.6 16.5999 22.7 17.0999 22.8C18.0999 23.1 18.8999 23.7 19.5999 24.4C19.8999 24.8 20.1999 25.2 20.3999 25.7C20.4999 25.9 20.5999 26.2 20.6999 26.4L20.7999 26.7L20.8999 27L21.7999 31.1L22.1999 33.2L22.3999 34.2C22.4999 34.6 22.5999 35.1 22.4999 35.6C22.4999 36.5 22.0999 37.4 21.5999 38.2C21.0999 38.9 20.2999 39.5 19.4999 39.8C19.0999 40 18.5999 40.1 18.1999 40.1C17.9999 40.1 17.6999 40.1 17.5999 40.1H17.0999L14.9999 40.2L15.7999 39.5C14.7999 43.7 13.7999 47.8 12.6999 52C12.6999 52.1 12.5999 52.2 12.3999 52.2C12.2999 52.2 12.2999 52.1 12.2999 52Z" fill="#001A4A"/>
<path d="M52.4998 13.3C50.5998 13.5 48.6998 13.7 46.7998 13.9L43.8998 14.2L42.4998 14.3C42.0998 14.3 41.7998 14.4 41.4998 14.6C40.8998 14.9 40.4998 15.4 40.2998 15.9C40.2998 16 40.1998 16.2 40.1998 16.3L40.0998 17L39.8998 18.4C39.5998 20.3 39.3998 22.2 38.9998 24.1L38.6998 22.3C38.5998 22.1 38.5998 22.2 38.5998 22.2C38.5998 22.2 38.5998 22.2 38.6998 22.3C38.7998 22.3 38.7998 22.4 38.8998 22.5C39.0998 22.6 39.2998 22.7 39.5998 22.9C39.8998 23 40.1998 23.1 40.4998 23.2H40.7998H40.8998C40.8998 23.2 40.9998 23.2 41.0998 23.2C41.4998 23.3 41.7998 23.3 42.0998 23.4C42.7998 23.6 43.3998 24.1 43.8998 24.5C44.2998 25 44.5998 25.5 44.7998 26.1C45.0998 27.2 45.0998 28.2 44.8998 29.2C44.8998 29.3 44.6998 29.4 44.5998 29.4C44.4998 29.4 44.4998 29.3 44.4998 29.3C43.9998 28.5 43.4998 27.8 42.8998 27.3C42.5998 27.1 42.2998 26.9 42.0998 26.8C41.7998 26.8 41.6998 26.7 41.4998 26.8C41.3998 26.8 41.2998 26.9 41.1998 26.9H41.0998H40.8998H40.4998C39.8998 26.9 39.3998 26.9 38.7998 26.8C38.1998 26.7 37.5998 26.5 36.9998 26.2C36.6998 26.1 36.3998 25.9 36.0998 25.7C35.9998 25.6 35.7998 25.5 35.6998 25.3L35.4998 25.1C35.3998 25 35.3998 25 35.1998 24.7C34.7998 24.2 34.7998 23.5 34.8998 22.9C35.3998 21.1 36.1998 19.3 36.7998 17.5L37.1998 16.1L37.3998 15.4C37.4998 15.1 37.5998 14.8 37.7998 14.5C38.4998 13.3 39.5998 12.4 40.7998 12.1C41.3998 11.9 42.0998 11.9 42.5998 11.9L43.9998 12L46.8998 12.3C48.7998 12.5 50.6998 12.7 52.5998 12.9C52.6998 12.9 52.7998 13 52.7998 13.1C52.6998 13.3 52.5998 13.3 52.4998 13.3Z" fill="#001A4A"/>
<path d="M33.8002 50.6C36.893 50.6 39.4002 48.0928 39.4002 45C39.4002 41.9072 36.893 39.4 33.8002 39.4C30.7074 39.4 28.2002 41.9072 28.2002 45C28.2002 48.0928 30.7074 50.6 33.8002 50.6Z" fill="#57c2b4"/>
<path d="M33.8 50.4C35.2 50.5 36.7 49.8 37.5 48.6C38.3 47.5 38.5001 46.1 38.4001 44.9C38.2001 42.5 35.9 40.7 33.8 41C32.8 41.1 31.9 41.7 31.3 42.4C30.7 43.2 30.4 44 30.3 44.9C30.2 45.8 30.1 46.9 30.6 48.1C31.1 49.3 32.3 50.3 33.8 50.4ZM33.8 50.8C32.3 50.9 30.6 50.7 29 49.7C28.2 49.2 27.5 48.6 26.9 47.7C26.4 47 26 46 26 45C25.9 43 26.7 40.8 28.3 39.5C29.8 38.2 31.9 37.5 33.8 37.6C35.7 37.7 37.6 38.6 38.8 40C40 41.4 40.6 43.2 40.5 45C40.4 46.8 39.4 48.4 38.1 49.3C36.8 50.3 35.3 50.7 33.8 50.8Z" fill="#001A4A"/>
<path d="M52.4999 58.1C55.5927 58.1 58.0999 55.5928 58.0999 52.5C58.0999 49.4072 55.5927 46.9 52.4999 46.9C49.4071 46.9 46.8999 49.4072 46.8999 52.5C46.8999 55.5928 49.4071 58.1 52.4999 58.1Z" fill="#57c2b4"/>
<path d="M52.4998 57.9C53.8998 58 55.3998 57.3 56.1998 56.1C56.9998 55 57.1998 53.6 57.0998 52.4C56.8998 50 54.5998 48.2 52.4998 48.5C51.4998 48.6 50.5998 49.2 49.9998 49.9C49.3998 50.7 49.0998 51.5 48.9998 52.4C48.8998 53.3 48.7998 54.4 49.2998 55.6C49.7998 56.8 51.0998 57.8 52.4998 57.9ZM52.4998 58.3C50.9998 58.4 49.2998 58.2 47.6998 57.2C46.8998 56.7 46.1998 56.1 45.5998 55.2C45.0998 54.4 44.6998 53.4 44.6998 52.4C44.5998 50.4 45.3998 48.2 46.9998 46.9C48.4998 45.6 50.5998 44.9 52.4998 45C54.3998 45.1 56.2998 46 57.4998 47.4C58.6998 48.8 59.2998 50.6 59.1998 52.4C59.0998 54.2 58.0998 55.8 56.7998 56.7C55.4998 57.8 53.9998 58.2 52.4998 58.3Z" fill="#001A4A"/>
<path d="M52.4999 39.4C55.5927 39.4 58.0999 36.8928 58.0999 33.8C58.0999 30.7072 55.5927 28.2 52.4999 28.2C49.4071 28.2 46.8999 30.7072 46.8999 33.8C46.8999 36.8928 49.4071 39.4 52.4999 39.4Z" fill="#57c2b4"/>
<path d="M52.4998 39.2C53.8998 39.3 55.3998 38.6 56.1998 37.4C56.9998 36.3 57.1998 34.9 57.0998 33.7C56.8998 31.3 54.5998 29.5 52.4998 29.8C51.4998 29.9 50.5998 30.5 49.9998 31.2C49.3998 32 49.0998 32.8 48.9998 33.7C48.8998 34.6 48.7998 35.7 49.2998 36.9C49.7998 38.1 51.0998 39.1 52.4998 39.2ZM52.4998 39.6C50.9998 39.7 49.2998 39.5 47.6998 38.5C46.8998 38 46.1998 37.4 45.5998 36.5C45.0998 35.7 44.6998 34.7 44.6998 33.7C44.5998 31.7 45.3998 29.5 46.9998 28.2C48.4998 26.9 50.5998 26.2 52.4998 26.3C54.3998 26.4 56.2998 27.3 57.4998 28.7C58.6998 30.1 59.2998 31.9 59.1998 33.7C59.0998 35.5 58.0998 37.1 56.7998 38C55.4998 39 53.9998 39.5 52.4998 39.6Z" fill="#001A4A"/>
<path d="M38.3997 41.9C38.9997 41.2 39.5997 40.5 40.1997 39.8L41.1997 38.8L42.1997 37.9C42.4997 37.6 42.7997 37.2 43.0997 36.9C43.3997 36.6 43.7997 36.3 44.1997 36.2C44.5997 36.1 45.0997 36 45.6997 36.1C46.1997 36.1 46.7997 36.2 47.4997 36.5C47.5997 36.6 47.6997 36.7 47.6997 36.9C47.5997 37.7 47.4997 38.2 47.1997 38.7C46.9997 39.2 46.6997 39.6 46.3997 39.9C46.0997 40.2 45.6997 40.5 45.1997 40.6C44.6997 40.7 44.2997 40.8 43.7997 40.9L42.4997 41.3L41.1997 41.7C40.2997 41.9 39.3997 42.2 38.4997 42.3C38.3997 42.3 38.2997 42.2 38.1997 42.1C38.3997 42.1 38.3997 42 38.3997 41.9Z" fill="#001A4A"/>
<path d="M39.0997 46.9C39.8997 46.9 40.6997 46.9 41.4997 46.9L42.6997 47L43.7997 47.1C44.1997 47.2 44.5997 47.1 44.9997 47.1C45.3997 47.1 45.6997 47.2 45.9997 47.5C46.2997 47.8 46.5997 48.1 46.7997 48.5C46.9997 48.9 47.1997 49.4 47.3997 50.1C47.3997 50.3 47.3997 50.4 47.1997 50.5C46.5997 50.9 46.0997 51.2 45.6997 51.3C45.1997 51.5 44.7997 51.5 44.3997 51.5C43.9997 51.5 43.6997 51.3 43.3997 51.1C43.0997 50.8 42.7997 50.5 42.4997 50.3L41.5997 49.6L40.6997 48.9C40.0997 48.4 39.4997 47.9 38.8997 47.3C38.7997 47.2 38.7997 47.1 38.8997 47C38.8997 46.9 38.9997 46.9 39.0997 46.9Z" fill="#001A4A"/>
</g>
<defs>
<clipPath id="clip0_3389_21845">
<rect width="60" height="60" fill="white"/>
</clipPath>
</defs>
</svg>
