<svg width="60" height="60" viewBox="0 0 60 60" fill="none" xmlns="http://www.w3.org/2000/svg">
<g clip-path="url(#clip0_3705_22090)">
<path d="M35.9804 28.5924C42.6025 25.288 45.292 17.241 41.9877 10.619C38.6833 3.9969 30.6363 1.30737 24.0142 4.61175C17.3922 7.91612 14.7027 15.9631 18.007 22.5852C21.3114 29.2072 29.3584 31.8968 35.9804 28.5924Z" fill="#57c2b4"/>
<path d="M30.0004 29.8C33.5004 29.9 36.9004 28.4 39.2004 25.8C41.5004 23.2 42.5004 19.9 42.4004 16.6C42.3004 13.3 40.9004 10.2 38.6004 8.00004C36.3004 5.80004 33.1004 4.60004 30.0004 4.80004C26.9004 4.90004 23.9004 6.30004 21.9004 8.50004C19.9004 10.7 18.7004 13.6 18.6004 16.6C18.5004 19.6 19.3004 22.7 21.3004 25.3C23.2004 27.9 26.5004 29.7 30.0004 29.8ZM30.0004 30.2C26.5004 30.3 22.8004 29.2 19.8004 26.8C16.8004 24.5 14.7004 20.6 14.6004 16.6C14.5004 12.6 16.2004 8.50004 19.1004 5.70004C22.1004 3.00004 26.1004 1.50004 30.0004 1.60004C33.9004 1.70004 37.8004 3.40004 40.4004 6.20004C43.1004 9.00004 44.5004 12.8 44.4004 16.6C44.3004 20.4 42.5004 24 39.8004 26.4C37.1004 28.8 33.6004 30.1 30.0004 30.2Z" fill="#001A4A"/>
<path d="M53.8001 45.4C59.5001 49.2 55.9001 56.7999 49.0001 56.7999H11.0001C4.10009 56.7999 0.500085 49.3 6.20008 45.4C13.0001 40.9 21.2001 38.2 30.0001 38.2C38.8001 38.2 47.0001 40.9 53.8001 45.4Z" fill="#57c2b4"/>
<path d="M53.8999 45.2C54.9999 46 55.8999 46.9 56.3999 48.2C56.8999 49.4 56.9999 50.8 56.4999 52.1C55.6999 54.6 53.3999 56.5 50.6999 57.1C50.3999 57.2 49.9999 57.2 49.6999 57.3C49.3999 57.3 48.9999 57.4 48.6999 57.4L46.7999 57.5H42.9999C40.4999 57.6 37.8999 57.7 35.3999 57.7L20.0999 58L12.4999 58.2H11.4999H10.9999H10.3999C9.99994 58.2 9.69994 58.2 9.29994 58.1L8.19994 57.9C6.69994 57.5 5.29994 56.8 4.19994 55.7C3.09994 54.6 2.19994 53.2 1.79994 51.6C1.39994 50 1.69994 48.2 2.49994 46.7C2.69994 46.4 2.89994 46 3.19994 45.7L3.99994 44.8C4.59994 44.3 5.19994 43.8 5.79994 43.4C6.89994 42.7 7.99994 42 9.19994 41.3C13.8999 38.7 19.0999 37.1 24.3999 36.5C29.6999 35.9 35.0999 36.6 40.0999 38.2C45.0999 39.9 49.6999 42.3 53.8999 45.2ZM53.6999 45.6C49.3999 42.8 44.4999 41.1 39.5999 40.4C34.6999 39.7 29.6999 39.8 24.8999 40.5C20.0999 41.2 15.3999 42.7 11.0999 44.8C9.99994 45.3 8.89994 45.9 7.89994 46.6C7.29994 46.9 6.99994 47.2 6.59994 47.5C6.29994 47.7 6.19994 47.8 5.99994 48C5.79994 48.2 5.79994 48.4 5.59994 48.5C5.19994 49.3 4.99994 50.1 5.09994 51C5.19994 51.9 5.69994 52.8 6.39994 53.5C7.09994 54.2 7.99994 54.7 8.99994 55L9.79994 55.2C10.0999 55.3 10.2999 55.3 10.5999 55.3H10.9999H11.4999H12.4999L20.0999 55.5L35.3999 55.8C37.8999 55.9 40.4999 55.9 42.9999 56L46.7999 56.2L48.6999 56.3C48.9999 56.3 49.2999 56.3 49.5999 56.3C49.8999 56.3 50.1999 56.3 50.4999 56.2C52.8999 55.9 55.1999 54.3 55.9999 51.9C56.3999 50.7 56.3999 49.4 55.8999 48.3C55.5999 47.2 54.6999 46.3 53.6999 45.6Z" fill="#001A4A"/>
</g>
<defs>
<clipPath id="clip0_3705_22090">
<rect width="60" height="60" fill="white"/>
</clipPath>
</defs>
</svg>
