<svg width="60" height="60" viewBox="0 0 60 60" fill="none" xmlns="http://www.w3.org/2000/svg">
<g clip-path="url(#clip0_3389_22061)">
<rect width="60" height="60" rx="10" fill="white"/>
<path d="M5.0999 50.9C5.2999 53 6.9999 54.6 8.9999 54.8C15.6999 55.5 22.6999 56.5 29.9999 56.5C37.2999 56.5 44.2999 55.5 50.9999 54.8C53.0999 54.6 54.6999 52.9 54.8999 50.9C55.5999 44.2 56.5999 37.2 56.5999 30C56.5999 22.8 55.6999 15.8 54.8999 9.1C54.6999 7 52.9999 5.4 50.9999 5.2C44.2999 4.5 37.2999 3.5 29.9999 3.5C22.6999 3.5 15.6999 4.5 8.9999 5.2C6.9999 5.4 5.2999 7 5.0999 9.1C4.3999 15.8 3.3999 22.8 3.3999 30C3.3999 37.2 4.3999 44.2 5.0999 50.9Z" fill="#57c2b4"/>
<path d="M5.30013 50.9C5.50013 52.8 7.10013 54.5 9.00013 54.7L15.0001 55.4C19.0001 55.8 23.0001 56.1 27.0001 56.2C35.0001 56.3 42.8001 55 50.8001 53.9C52.4001 53.8 53.6001 52.5 53.8001 51L54.4001 45C54.8001 41 55.1001 37.1 55.2001 33.1C55.4001 25.2 54.3001 17.4 53.3001 9.39999C53.0001 8.09999 52.0001 6.99999 50.8001 6.99999L44.8001 6.39999C40.8001 5.99999 36.9001 5.69999 33.0001 5.59999C25.2001 5.39999 17.4001 6.59999 9.30013 7.29999C8.20013 7.29999 7.20013 8.19999 7.10013 9.29999L6.20013 15.2C5.60013 19.1 5.00013 23.1 4.60013 27C3.80013 34.9 4.50013 42.9 5.30013 50.9ZM4.90013 50.9C3.90013 43 2.50013 35 2.40013 26.9C2.30013 22.8 2.50013 18.8 2.70013 14.8L3.10013 8.79999C3.30013 7.29999 3.90013 5.89999 5.00013 4.89999C6.00013 3.89999 7.50013 3.19999 8.90013 2.99999C12.8001 2.49999 16.8001 1.99999 20.9001 1.59999C24.9001 1.29999 29.1001 1.09999 33.2001 1.29999C37.3001 1.49999 41.3001 1.99999 45.3001 2.49999L51.2001 3.29999C52.6001 3.49999 53.9001 4.09999 54.9001 5.09999C55.9001 6.09999 56.5001 7.39999 56.6001 8.79999C57.4001 16.7 58.3001 24.8 57.9001 33C57.7001 37.1 57.3001 41.1 56.8001 45.1L56.1001 51.1C55.9001 52.4 55.3001 53.5 54.4001 54.4C53.5001 55.3 52.3001 55.8 51.1001 55.9C47.1001 56.2 43.1001 56.7 39.1001 56.9C35.1001 57.1 31.0001 57.2 27.0001 56.9C23.0001 56.6 19.0001 56.2 15.0001 55.7L9.00013 55C6.90013 54.8 5.10013 53 4.90013 50.9Z" fill="#001A4A"/>
<path d="M17.1002 41C17.2002 42 18.0002 42.8 19.1002 43C22.6002 43.4 26.3002 43.9 30.1002 43.9C33.9002 43.9 37.6002 43.4 41.1002 43C42.1002 42.9 42.9002 42.1 43.1002 41C43.5002 37.5 44.0002 33.8 44.0002 30C44.0002 26.2 43.5002 22.6 43.1002 19C43.0002 18 42.2002 17.2 41.1002 17C37.6002 16.6 33.9002 16.1 30.1002 16.1C26.3002 16.1 22.6002 16.6 19.1002 17C18.1002 17.1 17.3002 17.9 17.1002 19C16.7002 22.5 16.2002 26.2 16.2002 30C16.2002 33.8 16.7002 37.4 17.1002 41Z" fill="#57c2b4"/>
<path d="M17.3002 40.9C17.4002 41.9 18.2002 42.7 19.2002 42.7L22.3002 43C24.4002 43.2 26.5002 43.3 28.5002 43.3C32.6002 43.2 36.7002 42.4 40.8002 41.8C41.4002 41.7 41.8002 41.3 41.8002 40.7L42.1002 37.6C42.3002 35.5 42.4002 33.5 42.4002 31.5C42.4002 27.5 41.8002 23.4 41.2002 19.3C41.2002 19.2 41.1002 19.1 41.0002 19L40.9002 18.9C40.9002 18.9 40.9002 18.9 40.8002 18.9C40.8002 18.9 40.8002 18.9 40.6002 18.9L37.5002 18.6C35.4002 18.4 33.4002 18.3 31.4002 18.3C27.4002 18.3 23.5002 18.8 19.2002 19.2C19.1002 19.2 19.1002 19.2 19.1002 19.2C19.1002 19.2 19.1002 19.2 19.0002 19.2V19.3C18.8002 20.3 18.6002 21.4 18.4002 22.4C18.0002 24.4 17.6002 26.4 17.3002 28.5C16.7002 32.6 16.9002 36.8 17.3002 40.9ZM16.8002 41C16.3002 36.9 15.3002 32.8 15.0002 28.5C14.8002 26.4 14.8002 24.2 14.9002 22.1L15.0002 19V18.9V18.7C15.0002 18.6 15.0002 18.5 15.1002 18.3C15.2002 18.1 15.2002 17.8 15.3002 17.6C15.5002 17.1 15.8002 16.7 16.1002 16.3C16.8002 15.6 17.8002 15.1 18.7002 15C22.8002 14.4 27.1002 13.8 31.5002 14.1C33.7002 14.2 35.8002 14.5 37.9002 14.8L41.0002 15.2C41.1002 15.2 41.4002 15.2 41.6002 15.3C41.8002 15.4 42.1002 15.4 42.3002 15.5C42.7002 15.7 43.1002 16 43.5002 16.3C44.2002 16.9 44.6002 17.8 44.7002 18.8C45.0002 22.9 45.5002 27.2 45.2002 31.5C45.1002 33.6 44.8002 35.7 44.5002 37.8L44.1002 41C44.0002 41.7 43.7002 42.5 43.1002 43.1C42.6002 43.7 41.8002 44 41.0002 44C36.9002 44.3 32.6002 44.7 28.4002 44.3C26.3002 44.1 24.2002 43.8 22.2002 43.5C21.2002 43.4 20.1002 43.2 19.1002 43.1C18.0002 43.1 16.9002 42.1 16.8002 41Z" fill="#001A4A"/>
<path d="M43.7999 30.2C41.4999 30.5 39.1999 30.8 36.8999 31.1L33.3999 31.5L29.9999 31.7C28.7999 31.8 27.6999 32 26.4999 32.1C25.2999 32.2 24.1999 32.3 22.9999 32.1C20.6999 31.8 18.3999 31.4 16.0999 30.2C15.9999 30.1 15.8999 30 15.9999 29.9L16.0999 29.8C18.3999 28.6 20.6999 28.1 22.9999 27.9C24.1999 27.8 25.2999 27.8 26.4999 27.9C27.6999 28 28.7999 28.2 29.9999 28.3L33.4999 28.6L36.9999 29C39.2999 29.3 41.5999 29.5 43.8999 29.9C43.9999 29.9 44.0999 30 44.0999 30.1C43.9999 30.1 43.8999 30.2 43.7999 30.2Z" fill="#001A4A"/>
<path d="M6.60021 6.29999C7.80021 6.99999 8.90021 7.69999 10.0002 8.39999L11.6002 9.49999L13.2002 10.6C13.7002 11 14.3002 11.3 14.8002 11.7C15.3002 12.1 15.8002 12.5 16.2002 13C16.9002 14.1 17.5002 15.3 17.5002 17.1C17.5002 17.3 17.4002 17.4 17.2002 17.4C15.5002 17.3 14.2002 16.8 13.1002 16.1C12.6002 15.7 12.1002 15.3 11.8002 14.7C11.5002 14.1 11.1002 13.6 10.7002 13.1L9.60021 11.5L8.40021 9.99999C7.70021 8.89999 7.00021 7.79999 6.30021 6.59999C6.20021 6.49999 6.30021 6.39999 6.40021 6.29999C6.50021 6.29999 6.60021 6.29999 6.60021 6.29999Z" fill="#001A4A"/>
<path d="M53.5001 53.7C52.4001 53 51.3001 52.3 50.2001 51.6L48.6001 50.5L47.0001 49.4C46.5001 49 45.9001 48.7 45.4001 48.3C44.8001 47.9 44.4001 47.5 44.0001 47C43.3001 45.9 42.7001 44.7 42.6001 42.9C42.6001 42.7 42.7001 42.6 42.9001 42.6C44.6001 42.7 45.9001 43.2 47.0001 44C47.5001 44.4 48.0001 44.8 48.3001 45.4C48.6001 46 49.0001 46.5 49.4001 47L50.6001 48.6L51.7001 50.2C52.4001 51.3 53.1001 52.4 53.8001 53.5C53.9001 53.6 53.8001 53.7 53.7001 53.8C53.6001 53.8 53.6001 53.8 53.5001 53.7Z" fill="#001A4A"/>
<path d="M53.8001 6.5C53.1001 7.6 52.4001 8.7 51.7001 9.8L50.6001 11.4L49.4001 13C49.0001 13.5 48.7001 14.1 48.3001 14.7C47.9001 15.3 47.5001 15.7 47.0001 16.1C45.9001 16.8 44.7001 17.4 42.9001 17.5C42.7001 17.5 42.6001 17.4 42.6001 17.2C42.7001 15.5 43.2001 14.2 44.0001 13.1C44.4001 12.6 44.8001 12.1 45.4001 11.8C46.0001 11.4 46.5001 11.1 47.1001 10.7L48.7001 9.5L50.3001 8.4C51.4001 7.7 52.5001 7 53.6001 6.3C53.7001 6.2 53.8001 6.3 53.9001 6.4C53.8001 6.4 53.8001 6.5 53.8001 6.5Z" fill="#001A4A"/>
<path d="M6.2002 53.4C6.9002 52.3 7.6002 51.2 8.3002 50.1L9.4002 48.5L10.6002 46.9C11.0002 46.4 11.3002 45.8 11.7002 45.3C12.1002 44.7 12.5002 44.3 13.0002 43.9C14.1002 43.2 15.3002 42.6 17.1002 42.5C17.3002 42.5 17.4002 42.6 17.4002 42.8C17.3002 44.5 16.8002 45.8 16.0002 46.9C15.6002 47.4 15.2002 47.9 14.6002 48.2C14.0002 48.6 13.5002 48.9 13.0002 49.3L11.4002 50.5L9.8002 51.6C8.7002 52.3 7.6002 53 6.5002 53.7C6.4002 53.8 6.3002 53.7 6.2002 53.6C6.2002 53.6 6.2002 53.5 6.2002 53.4Z" fill="#001A4A"/>
</g>
<defs>
<clipPath id="clip0_3389_22061">
<rect width="60" height="60" fill="white"/>
</clipPath>
</defs>
</svg>
