<svg width="20" height="20" viewBox="0 0 20 20" fill="none" xmlns="http://www.w3.org/2000/svg">
<path d="M17.5 8.06673H2.5C2.53333 6.76673 2.56667 5.46673 2.66667 4.1334C2.73333 2.76673 3.83333 1.66673 5.2 1.5334C8.46667 1.30007 11.5333 1.30007 14.8 1.5334C16.1667 1.6334 17.2667 2.7334 17.3333 4.1334C17.4 5.46673 17.4667 6.76673 17.5 8.06673Z" fill="#57c2b4"/>
<path d="M17.5336 8.1334L10.1002 8.3334C7.60023 8.40006 5.06689 8.46673 2.50023 8.5334H2.06689V8.10006L2.13356 4.90006L2.16689 4.10006C2.16689 3.80007 2.23356 3.46673 2.36689 3.16673C2.56689 2.56673 2.96689 2.0334 3.46689 1.66673C3.73356 1.46673 4.00023 1.3334 4.30023 1.20007C4.60023 1.10007 4.93356 1.0334 5.23356 1.00007C5.76689 0.933398 6.30023 0.900065 6.83356 0.866732C7.90023 0.766732 8.96689 0.733398 10.0336 0.733398C11.1002 0.733398 12.1669 0.766732 13.2336 0.866732C13.7669 0.900065 14.3002 0.966732 14.8336 1.00007C15.1336 1.0334 15.4669 1.10007 15.7669 1.2334C16.0669 1.36673 16.3336 1.50007 16.6002 1.70007C17.1002 2.10006 17.4669 2.6334 17.6336 3.2334C17.7336 3.5334 17.7669 3.8334 17.8002 4.1334C17.8002 4.4334 17.8002 4.70006 17.7669 5.00006C17.6669 6.06673 17.6002 7.1334 17.5336 8.1334ZM17.4336 8.0334C17.3002 6.90006 17.1336 5.86673 17.0002 4.86673L16.9002 4.1334C16.8669 3.90006 16.8002 3.70006 16.7002 3.50007C16.5336 3.10006 16.2336 2.76673 15.8669 2.5334C15.5002 2.30006 15.1002 2.16673 14.6669 2.16673C14.1336 2.1334 13.6336 2.1334 13.1002 2.1334C12.0669 2.10006 11.0002 2.10007 9.96689 2.10007C8.93356 2.10007 7.86689 2.10006 6.83356 2.1334C6.30023 2.1334 5.80023 2.16673 5.26689 2.20006C4.83356 2.20006 4.43356 2.3334 4.10023 2.60007C3.76689 2.8334 3.46689 3.16673 3.33356 3.56673C3.26689 3.76673 3.20023 3.96673 3.16689 4.20007L3.13356 4.96673L2.93356 8.1334L2.50023 7.70006C4.93356 7.7334 7.40023 7.80006 9.90023 7.90006L17.4336 8.0334Z" fill="#001A4A"/>
<path d="M2.73343 15.8333C2.76676 16.4333 3.0001 16.9999 3.4001 17.4666C3.8001 17.8999 4.33343 18.2333 4.93343 18.3333C5.53343 18.3999 6.13343 18.3999 6.73343 18.4333C7.33343 18.4666 7.93343 18.4666 8.56676 18.4666C9.76676 18.4666 11.0001 18.3999 12.2001 18.3333C12.8001 18.2999 13.4001 18.2666 14.0001 18.1999C14.3001 18.1666 14.6334 18.1666 14.9001 18.0999C15.1668 18.0666 15.4334 17.9666 15.6668 17.8666C16.1334 17.6333 16.5334 17.2333 16.7668 16.7333C16.8668 16.4999 16.9334 16.2333 16.9668 15.9666C16.9668 15.8333 17.0001 15.6999 17.0001 15.5333L17.0334 15.0666C17.0668 13.8666 17.1001 12.6333 17.1001 11.4333C17.1001 8.99992 17.0001 6.59992 16.8334 4.16659C16.8001 3.66659 16.6001 3.19992 16.2668 2.83325C15.9334 2.46659 15.5001 2.23325 15.0334 2.16659C14.8334 2.13325 14.5001 2.13325 14.2001 2.09992L13.3001 2.06659C12.7001 2.03325 12.1001 2.03325 11.5001 2.03325C10.3001 1.99992 9.1001 2.03325 7.9001 2.09992C7.3001 2.13325 6.7001 2.13325 6.1001 2.16659L5.63343 2.19992C5.5001 2.19992 5.3001 2.19992 5.2001 2.23325C4.96676 2.26659 4.73343 2.33325 4.53343 2.39992C4.1001 2.59992 3.76676 2.93325 3.53343 3.33325C3.43343 3.53325 3.33343 3.76659 3.3001 3.99992C3.26676 4.09992 3.26676 4.26659 3.26676 4.43325L3.23343 4.89992C3.06676 6.13325 2.93343 7.33325 2.86676 8.56659C2.76676 9.76659 2.7001 10.9666 2.66676 12.1999C2.66676 13.3999 2.66676 14.6333 2.73343 15.8333ZM2.6001 15.8666C2.5001 14.6666 2.43343 13.4333 2.36676 12.1999C2.3001 10.9666 2.2001 9.76659 2.16676 8.53325C2.13343 7.29992 2.1001 6.09992 2.1001 4.86659V4.39992C2.1001 4.23325 2.1001 4.09992 2.13343 3.89992C2.16676 3.53325 2.26676 3.16659 2.4001 2.83325C2.7001 2.16659 3.26676 1.56659 3.93343 1.23325C4.26676 1.06659 4.63343 0.966585 5.03343 0.899919C5.23343 0.866585 5.36676 0.866585 5.53343 0.866585L6.0001 0.833252C6.6001 0.799919 7.23343 0.766585 7.83343 0.733252C9.06676 0.699919 10.3001 0.699919 11.5334 0.733252C12.1334 0.766585 12.7668 0.799919 13.3668 0.833252L14.3001 0.899919C14.6001 0.933252 14.9001 0.933252 15.2668 0.999919C16.0001 1.13325 16.6668 1.53325 17.1334 2.09992C17.6001 2.66659 17.9001 3.36659 17.9334 4.09992C18.0334 6.53325 18.0668 8.99992 18.0001 11.4333C17.9668 12.6666 17.9001 13.8666 17.8334 15.0999L17.8001 15.5666C17.8001 15.7333 17.7668 15.8666 17.7668 16.0333C17.7334 16.3666 17.6334 16.6999 17.4668 17.0333C17.1668 17.6666 16.6334 18.1666 16.0334 18.4666C15.7334 18.5999 15.4001 18.6999 15.0668 18.7333C14.7334 18.7666 14.4334 18.7666 14.1334 18.7666C13.5334 18.7999 12.9001 18.7999 12.3001 18.7999C11.0668 18.7999 9.86676 18.7666 8.63343 18.6999C7.4001 18.6333 6.2001 18.5666 4.96676 18.4333C3.63343 18.2333 2.66676 17.0999 2.6001 15.8666Z" fill="#001A4A"/>
<path d="M9.7998 4.66659C10.2998 4.56659 10.7665 4.49992 11.2665 4.39992C11.7665 4.33325 12.2331 4.26659 12.7331 4.19992C13.2331 4.13325 13.6998 3.96659 14.1998 4.06659C14.6998 4.16659 15.1665 4.29992 15.6665 4.66659V4.79992C15.1665 5.16659 14.6998 5.29992 14.1998 5.39992C13.6998 5.49992 13.2331 5.33325 12.7331 5.26659C12.2331 5.19992 11.7665 5.13325 11.2665 5.06659C10.7665 4.96659 10.2998 4.89992 9.7998 4.79992V4.66659Z" fill="#001A4A"/>
<path d="M5.4668 13.5001C5.5668 13.4001 5.6668 13.3001 5.7668 13.2334C5.8668 13.1667 5.9668 13.1001 6.0668 13.0334C6.1668 12.9667 6.2668 12.8001 6.3668 12.9001C6.43346 12.9334 6.4668 13.0001 6.53346 13.1001C6.60013 13.2001 6.63346 13.3001 6.70013 13.5001V13.6334C6.63346 13.8334 6.60013 13.9334 6.53346 14.0334C6.4668 14.1334 6.43346 14.2001 6.3668 14.2334C6.2668 14.3334 6.1668 14.1667 6.0668 14.1001C5.9668 14.0334 5.8668 13.9667 5.7668 13.9001C5.6668 13.8334 5.5668 13.7334 5.4668 13.6334V13.5001Z" fill="#001A4A"/>
<path d="M9.1333 13.5001C9.2333 13.4001 9.3333 13.3001 9.4333 13.2334C9.5333 13.1667 9.6333 13.1001 9.7333 13.0334C9.8333 12.9667 9.9333 12.8001 10.0333 12.9001C10.0666 12.9334 10.1333 13.0001 10.1666 13.1001C10.2 13.2001 10.2666 13.3001 10.3 13.5001V13.6334C10.2666 13.8334 10.2 13.9334 10.1666 14.0334C10.1333 14.1334 10.0666 14.2001 10.0333 14.2334C9.9333 14.3334 9.8333 14.1667 9.7333 14.1001C9.6333 14.0334 9.5333 13.9667 9.4333 13.9001C9.3333 13.8334 9.2333 13.7334 9.1333 13.6334V13.5001Z" fill="#001A4A"/>
<path d="M12.8335 13.5001C12.9335 13.4001 13.0335 13.3001 13.1335 13.2334C13.2335 13.1667 13.3335 13.1001 13.4335 13.0334C13.5335 12.9667 13.6335 12.8001 13.7335 12.9001C13.8002 12.9334 13.8335 13.0001 13.9002 13.1001C13.9668 13.2001 14.0002 13.3001 14.0668 13.5001V13.6334C14.0002 13.8334 13.9668 13.9334 13.9002 14.0334C13.8335 14.1334 13.8002 14.2001 13.7335 14.2334C13.6335 14.3334 13.5335 14.1667 13.4335 14.1001C13.3335 14.0334 13.2335 13.9667 13.1335 13.9001C13.0335 13.8334 12.9335 13.7334 12.8335 13.6334V13.5001Z" fill="#001A4A"/>
<path d="M5.4668 10.2999C5.5668 10.1999 5.6668 10.0999 5.7668 10.0332C5.8668 9.96655 5.9668 9.89989 6.0668 9.83322C6.1668 9.76655 6.2668 9.59989 6.3668 9.69989C6.43346 9.73322 6.4668 9.79989 6.53346 9.89989C6.60013 9.99989 6.63346 10.0999 6.70013 10.2999V10.4332C6.63346 10.6332 6.60013 10.7332 6.53346 10.8332C6.4668 10.9332 6.43346 10.9999 6.3668 11.0332C6.2668 11.1332 6.1668 10.9666 6.0668 10.8999C5.9668 10.8332 5.8668 10.7666 5.7668 10.6999C5.6668 10.6332 5.5668 10.5332 5.4668 10.4332V10.2999Z" fill="#001A4A"/>
<path d="M9.1333 10.2999C9.2333 10.1999 9.3333 10.0999 9.4333 10.0332C9.5333 9.96655 9.6333 9.89989 9.7333 9.83322C9.8333 9.76655 9.9333 9.59989 10.0333 9.69989C10.0666 9.73322 10.1333 9.79989 10.1666 9.89989C10.2 9.99989 10.2666 10.0999 10.3 10.2999V10.4332C10.2666 10.6332 10.2 10.7332 10.1666 10.8332C10.1333 10.9332 10.0666 10.9999 10.0333 11.0332C9.9333 11.1332 9.8333 10.9666 9.7333 10.8999C9.6333 10.8332 9.5333 10.7666 9.4333 10.6999C9.3333 10.6332 9.2333 10.5332 9.1333 10.4332V10.2999Z" fill="#001A4A"/>
<path d="M12.8335 10.2999C12.9335 10.1999 13.0335 10.0999 13.1335 10.0332C13.2335 9.96655 13.3335 9.89989 13.4335 9.83322C13.5335 9.76655 13.6335 9.59989 13.7335 9.69989C13.8002 9.73322 13.8335 9.79989 13.9002 9.89989C13.9668 9.99989 14.0002 10.0999 14.0668 10.2999V10.4332C14.0002 10.6332 13.9668 10.7332 13.9002 10.8332C13.8335 10.9332 13.8002 10.9999 13.7335 11.0332C13.6335 11.1332 13.5335 10.9666 13.4335 10.8999C13.3335 10.8332 13.2335 10.7666 13.1335 10.6999C13.0335 10.6332 12.9335 10.5332 12.8335 10.4332V10.2999Z" fill="#001A4A"/>
<path d="M5.4668 16.3668C5.5668 16.2668 5.6668 16.1668 5.7668 16.1001C5.8668 16.0334 5.9668 15.9668 6.0668 15.9001C6.1668 15.8334 6.2668 15.6668 6.3668 15.7668C6.43346 15.8001 6.4668 15.8668 6.53346 15.9668C6.60013 16.0668 6.63346 16.1668 6.70013 16.3668V16.5001C6.63346 16.7001 6.60013 16.8001 6.53346 16.9001C6.4668 17.0001 6.43346 17.0668 6.3668 17.1001C6.2668 17.2001 6.1668 17.0334 6.0668 16.9668C5.9668 16.9001 5.8668 16.8334 5.7668 16.7668C5.6668 16.7001 5.5668 16.6001 5.4668 16.5001V16.3668Z" fill="#001A4A"/>
<path d="M9.1333 16.3668C9.2333 16.2668 9.3333 16.1668 9.4333 16.1001C9.5333 16.0334 9.6333 15.9668 9.7333 15.9001C9.8333 15.8334 9.9333 15.6668 10.0333 15.7668C10.0666 15.8001 10.1333 15.8668 10.1666 15.9668C10.2 16.0668 10.2666 16.1668 10.3 16.3668V16.5001C10.2666 16.7001 10.2 16.8001 10.1666 16.9001C10.1333 17.0001 10.0666 17.0668 10.0333 17.1001C9.9333 17.2001 9.8333 17.0334 9.7333 16.9668C9.6333 16.9001 9.5333 16.8334 9.4333 16.7668C9.3333 16.7001 9.2333 16.6001 9.1333 16.5001V16.3668Z" fill="#001A4A"/>
<path d="M12.8335 16.3668C12.9335 16.2668 13.0335 16.1668 13.1335 16.1001C13.2335 16.0334 13.3335 15.9668 13.4335 15.9001C13.5335 15.8334 13.6335 15.6668 13.7335 15.7668C13.8002 15.8001 13.8335 15.8668 13.9002 15.9668C13.9668 16.0668 14.0002 16.1668 14.0668 16.3668V16.5001C14.0002 16.7001 13.9668 16.8001 13.9002 16.9001C13.8335 17.0001 13.8002 17.0668 13.7335 17.1001C13.6335 17.2001 13.5335 17.0334 13.4335 16.9668C13.3335 16.9001 13.2335 16.8334 13.1335 16.7668C13.0335 16.7001 12.9335 16.6001 12.8335 16.5001V16.3668Z" fill="#001A4A"/>
</svg>
