<svg width="60" height="60" viewBox="0 0 60 60" fill="none" xmlns="http://www.w3.org/2000/svg">
<path d="M44.6 25.3C44.2 24.3 44 23.3 43.7 22.3C43.4 21.3 43.2 20.3 43 19.3C42.8 18.3 42.2 17.3 42.5 16.3C42.6 15.8 42.8 15.3 43 14.8C43.3 14.3 43.6 13.8 44.1 13.2H44.5C45.1 13.7 45.5 14.2 45.8 14.6C46.1 15.1 46.3 15.6 46.4 16.1C46.7 17.1 46.2 18.1 46.1 19.1C46 20.1 45.8 21.1 45.6 22.1C45.4 23.1 45.2 24.1 44.9 25.1L44.6 25.3Z" fill="#001A4A"/>
<path d="M21.1999 48.2999C19.2999 48.2 17.2999 48.2999 15.2999 48.2C13.2999 48.1 11.2999 47.5 9.49994 46.5C8.59994 46 7.79994 45.4 6.99994 44.7C6.19994 44 5.49994 43.1999 4.89994 42.2999C3.69994 40.5999 2.79994 38.5 2.49994 36.2999L1.69994 30.4C1.39994 28.4 1.19994 26.4 1.29994 24.4C1.39994 22.4 1.59994 20.4 1.99994 18.5C2.39994 16.5 2.79994 14.6 3.59994 12.7H3.99994C4.89994 16.7 5.19994 20.6 5.39994 24.4C5.49994 26.3 5.49994 28.2 5.39994 30.2C5.39994 32.1 5.39994 34.1 5.49994 36C5.69994 39.5 7.49994 42.9 10.3999 45.2C11.7999 46.4 13.5999 47.0999 15.4999 47.5C17.3999 47.7 19.3999 47.7 21.2999 47.9L21.1999 48.2999Z" fill="#001A4A"/>
<path d="M24.0998 21.1C28.0998 21.2 32.1998 20.8 36.0998 19.6C37.9998 19 39.7998 18.1 41.2998 16.9C41.9998 16.3 42.5998 15.6 42.9998 14.8C43.3998 14 43.4998 13.2 43.4998 12.3C43.3998 11.4 43.1998 10.6 42.7998 9.89998C42.2998 9.19998 41.7998 8.49998 40.9998 7.99998C39.5998 6.89998 37.6998 6.29998 35.8998 5.79998C32.0998 4.89998 28.0998 4.79998 24.1998 4.79998C20.1998 4.89998 16.1998 5.29998 12.5998 6.39998C10.7998 6.99998 8.9998 7.69998 7.7998 8.69998C7.0998 9.19998 6.6998 9.69998 6.2998 10.3C5.9998 10.9 5.7998 11.5 5.7998 12.2C5.7998 12.9 5.8998 13.6 6.1998 14.2C6.4998 14.8 6.89981 15.5 7.5998 16C8.7998 17.2 10.5998 18.1 12.3998 18.8C15.9998 20.4 20.0998 21 24.0998 21.1ZM24.0998 21.5C19.9998 21.5 15.8998 21.7 11.6998 21C9.5998 20.6 7.4998 20.1 5.4998 18.8C4.4998 18.2 3.5998 17.2 2.8998 16.1C2.1998 14.9 1.8998 13.6 1.7998 12.3C1.7998 11 2.0998 9.59998 2.6998 8.39998C3.3998 7.19998 4.2998 6.19998 5.2998 5.49998C7.2998 3.99998 9.39981 3.29998 11.5998 2.69998C15.8998 1.69998 20.0998 1.59998 24.1998 1.69998C28.2998 1.79998 32.4998 2.19998 36.5998 3.39998C38.5998 3.99998 40.6998 4.79998 42.4998 6.29998C43.3998 6.99998 44.1998 7.89998 44.7998 8.89998C45.3998 9.99998 45.5998 11.2 45.5998 12.3C45.4998 13.5 45.1998 14.6 44.5998 15.7C43.9998 16.7 43.1998 17.5 42.2998 18.1C40.4998 19.4 38.4998 20 36.3998 20.4C32.1998 21.2 28.1998 21.4 24.0998 21.5Z" fill="#001A4A"/>
<path d="M27.1 34.3C25.1 34.6 23 34.8 21 34.9L17.9 35H14.8C13.8 35 12.8 35.1 11.7 35C10.6 35 9.5 34.7 8.4 34.3C6.3 33.4 4.5 31.9 3.5 29.8L3.7 29.5C6 29.8 7.7 30.2 9.5 30.5C10.4 30.7 11.3 30.9 12.1 31.1C13 31.3 14 31.6 15 31.8L21 32.9C23 33.3 25 33.6 27 33.9V34.3H27.1Z" fill="#001A4A"/>
<path d="M34.5998 38.2C34.3998 37 34.2998 35.9 34.1998 34.7C34.0998 33.4 34.2998 32.1 34.8998 30.8C35.4998 29.6 36.3998 28.5 37.5998 27.7C38.7998 26.9 40.1998 26.5 41.5998 26.4C42.9998 26.3 44.5998 26.5 45.9998 27.2C47.3998 27.8 48.5998 29 49.1998 30.3C49.8998 31.7 50.0998 33.2 49.7998 34.7C49.4998 35.9 49.1998 37.1 48.5998 38.3H48.1998C47.5998 37.1 47.2998 35.9 46.9998 34.8C46.6998 33.9 46.2998 33.1 45.6998 32.4C45.1998 31.7 44.5998 31.2 43.8998 30.7C43.1998 30.2 42.3998 29.8 41.4998 29.7C39.6998 29.5 37.6998 30.3 36.4998 32C35.8998 32.8 35.3998 33.8 35.2998 34.9C35.1998 36.1 34.9998 37.2 34.8998 38.4H34.5998V38.2Z" fill="#001A4A"/>
<path d="M30.6 51.2999C30.8 52.2999 31.6 53.0999 32.6 53.1999C35.5 53.3999 38.5 53.6999 41.5 53.6999C44.6 53.6999 47.6 53.3999 50.4 53.1999C51.4 53.0999 52.3 52.2999 52.4 51.2999C52.7 49.4999 53 47.6999 53 45.7999C53 43.8999 52.7 42.0999 52.4 40.2999C52.2 39.2999 51.4 38.4999 50.4 38.3999C47.5 38.1999 44.5 37.8999 41.5 37.8999C38.4 37.8999 35.4 38.1999 32.6 38.3999C31.6 38.4999 30.7 39.2999 30.6 40.2999C30.3 42.0999 30 43.8999 30 45.7999C30 47.6999 30.3 49.5999 30.6 51.2999Z" fill="#57c2b4"/>
<path d="M30.8001 51.3C30.9001 52 31.3001 52.6 31.9001 52.8C32.2001 53 32.5001 53 32.9001 53L34.0001 53.1C35.5001 53.2 36.9001 53.2 38.4001 53.2C41.3001 53.1 44.2001 52.8 47.0001 52.5L49.2001 52.3L50.3001 52.2C50.6001 52.2 50.7001 52.1 50.9001 52C51.0001 51.9 51.2001 51.8 51.2001 51.6C51.2001 51.5 51.3001 51.4 51.3001 51.4C51.3001 51.3 51.3001 51.3 51.4001 51C51.5001 50.3 51.6001 49.6 51.7001 48.9C51.8001 47.5 51.9001 46.2 51.7001 44.8C51.6001 43.4 51.3001 42.1 51.0001 40.6C50.9001 40.4 50.8001 40.2 50.6001 40.2H50.5001C50.5001 40.2 50.5001 40.2 50.4001 40.2H50.1001H49.0001C47.5001 40 46.1001 40 44.6001 40C41.8001 40 39.0001 40.1 36.1001 40.2C35.4001 40.2 34.7001 40.2 33.9001 40.2C33.5001 40.2 33.2001 40.2 32.8001 40.2C32.7001 40.2 32.7001 40.2 32.7001 40.2C32.7001 40.2 32.7001 40.2 32.6001 40.2H32.5001C32.4001 40.2 32.3001 40.2 32.2001 40.3C32.1001 40.3 32.1001 40.4 32.1001 40.4C32.1001 40.5 32.0001 40.5 32.0001 40.7L31.4001 42.8C31.0001 44.2 30.7001 45.5 30.6001 47C30.5001 48.4 30.6001 49.9 30.8001 51.3ZM30.4001 51.4C30.1001 50 29.8001 48.5 29.5001 47.1C29.2001 45.6 29.1001 44.1 29.1001 42.6C29.1001 41.8 29.1001 41.1 29.1001 40.4C29.1001 40.3 29.1001 39.9 29.2001 39.6C29.3001 39.3 29.4001 39 29.5001 38.7C29.8001 38.2 30.2001 37.7 30.7001 37.3C31.0001 37.1 31.3001 37 31.6001 36.9C31.8001 36.8 31.9001 36.8 32.1001 36.8L32.5001 36.7C32.9001 36.6 33.2001 36.6 33.6001 36.5C34.3001 36.4 35.0001 36.3 35.8001 36.2C38.7001 35.9 41.8001 35.8 44.8001 36.1C46.3001 36.2 47.7001 36.4 49.2001 36.6L50.3001 36.7H50.6001C50.7001 36.7 50.9001 36.7 51.1001 36.8C51.4001 36.9 51.7001 37 52.0001 37.1C53.2001 37.7 54.0001 38.8 54.1001 40C54.3001 41.4 54.5001 42.9 54.5001 44.5C54.6001 46.1 54.4001 47.7 54.1001 49.1C54.0001 49.8 53.8001 50.6 53.7001 51.3C53.7001 51.4 53.6001 51.7 53.5001 52C53.4001 52.3 53.3001 52.5 53.1001 52.7C52.8001 53.2 52.4001 53.5 51.9001 53.8C51.4001 54.1 50.8001 54.2 50.4001 54.2H49.3001L47.1001 54.3C44.2001 54.4 41.2001 54.3 38.3001 53.9L34.0001 53.5L32.9001 53.4C32.6001 53.4 32.1001 53.3 31.8001 53.2C31.1001 52.9 30.6001 52.2 30.4001 51.4Z" fill="#001A4A"/>
</svg>
