<svg width="60" height="60" viewBox="0 0 60 60" fill="none" xmlns="http://www.w3.org/2000/svg">
<path d="M30.0002 3.80005C23.0002 3.80005 15.7002 3.80005 9.6002 5.00005C7.0002 5.50005 4.9002 7.60005 4.2002 10.2C3.2002 14.3 3.2002 17.3 3.2002 23.9C3.2002 30.5 3.2002 33.6 4.2002 37.6C4.8002 40.2 6.9002 42.3 9.6002 42.8C15.7002 44 23.0002 44 30.0002 44C37.0002 44 44.3002 44 50.4002 42.8C53.0002 42.3 55.1002 40.2 55.8002 37.6C56.8002 33.5 56.8002 30.5 56.8002 23.9C56.8002 17.3 56.8002 14.2 55.8002 10.2C55.2002 7.60005 53.1002 5.50005 50.4002 5.00005C44.3002 3.80005 37.0002 3.80005 30.0002 3.80005Z" fill="#57c2b4"/>
<path d="M30.0002 4C26.5002 4 23.0002 4 19.5002 4.1C16.0002 4.3 12.5002 4.7 9.10015 5.5C7.50015 6 6.20015 7.1 5.50015 8.6C5.10015 9.3 4.90015 10 4.70015 10.9C4.50015 11.7 4.40015 12.6 4.30015 13.4C4.00015 16.8 4.20015 20.4 4.20015 23.9C4.30015 27.4 4.20015 30.9 4.70015 34.3C4.80015 35.1 5.00015 36 5.20015 36.8L5.40015 37.4C5.50015 37.6 5.50015 37.8 5.60015 37.9C5.70015 38.2 5.90015 38.6 6.10015 38.9C6.80015 40.1 8.10015 41.1 9.40015 41.4C9.60015 41.5 9.70015 41.5 9.90015 41.5L10.5002 41.6C10.9002 41.7 11.3002 41.7 11.8002 41.8C12.6002 41.9 13.5002 42 14.4002 42.1C16.1002 42.3 17.8002 42.3 19.6002 42.4C23.1002 42.5 26.6002 42.4 30.1002 42.4C33.6002 42.3 37.1001 42.3 40.6001 42.1C42.3001 42 44.0001 41.8 45.7001 41.6C46.5001 41.5 47.4002 41.4 48.2001 41.2C48.6002 41.1 49.0001 41.1 49.4002 41L50.0001 40.9C50.2001 40.9 50.3001 40.8 50.5001 40.8C51.7001 40.4 52.7001 39.6 53.3001 38.5C53.4001 38.2 53.6002 37.9 53.7001 37.6C53.8001 37.5 53.8001 37.3 53.8001 37.1L53.9002 36.5C54.1002 35.7 54.2001 34.9 54.3001 34.1C54.7001 30.9 54.7001 27.4 54.8001 23.9C54.8001 22.1 54.9002 20.4 54.9002 18.7C54.9002 17 54.9001 15.3 54.8001 13.6C54.7001 12.8 54.6001 11.9 54.5001 11.1L54.4002 10.5C54.4002 10.3 54.3001 10.2 54.3001 10C54.2001 9.7 54.1002 9.3 53.9002 9C53.3002 7.7 52.2001 6.7 50.8001 6.2C50.5001 6.1 50.4002 6 50.2001 6L49.6001 5.9C49.2001 5.8 48.8001 5.7 48.3001 5.6C47.5001 5.4 46.6002 5.3 45.7001 5.1C44.0001 4.8 42.2001 4.6 40.5001 4.5C37.0001 4.1 33.5002 4 30.0002 4ZM30.0002 3.6C33.5002 3.5 37.0001 3.5 40.6001 3.5C42.4001 3.5 44.1002 3.5 45.9002 3.6C46.8002 3.6 47.7001 3.7 48.6001 3.8C49.0001 3.8 49.5001 3.9 49.9002 3.9L50.6001 4C50.8001 4 51.1001 4.1 51.3001 4.1C53.3001 4.6 55.1002 5.9 56.2001 7.6C56.5001 8 56.8002 8.5 56.9002 9C57.0001 9.2 57.1002 9.5 57.2001 9.7L57.4002 10.4C57.7001 11.3 57.9002 12.2 58.0001 13.1C58.7001 16.8 58.6002 20.3 58.7001 23.9C58.7001 27.4 58.9002 31 58.4002 34.7C58.3002 35.6 58.1002 36.6 57.9002 37.5L57.7001 38.2C57.6002 38.5 57.6002 38.7 57.4002 39C57.2001 39.5 57.0001 40 56.7001 40.5C55.6002 42.4 53.7001 44 51.4002 44.6C51.1002 44.7 50.8001 44.7 50.6001 44.8L49.9002 44.9C49.4002 45 49.0001 45 48.5001 45.1C47.6001 45.2 46.7001 45.3 45.8001 45.4C44.0001 45.6 42.2001 45.6 40.4002 45.7C36.8002 45.8 33.3001 45.7 29.8001 45.7C26.3001 45.6 22.8002 45.6 19.2002 45.4C17.4002 45.3 15.6002 45.2 13.9002 45C13.0002 44.9 12.1002 44.8 11.2002 44.6C10.8002 44.5 10.3001 44.5 9.90015 44.4L9.20015 44.3C9.20015 44 8.90015 44 8.60015 43.9C6.60015 43.3 4.90015 41.9 3.90015 40.1C3.70015 39.6 3.40015 39.2 3.30015 38.7C3.20015 38.5 3.20015 38.2 3.10015 38L3.00015 37.3C2.80015 36.4 2.70015 35.5 2.50015 34.6C2.00015 30.9 2.20015 27.4 2.20015 23.9C2.30015 20.4 2.30015 16.8 2.80015 13.3C2.90015 12.4 3.10015 11.5 3.40015 10.7C3.60015 9.8 4.00015 8.8 4.50015 8C5.50015 6.4 7.10015 5.2 8.90015 4.7C12.4002 4 15.9002 3.8 19.5002 3.7C23.0002 3.6 26.5002 3.6 30.0002 3.6Z" fill="#001A4A"/>
<path d="M30.1998 43.9C30.4998 44.9 30.7998 45.9 30.9998 47C31.1998 48 31.3998 49 31.5998 50.1C31.7998 51.1 32.2998 52.1 31.9998 53.2C31.8998 53.7 31.6998 54.2 31.3998 54.7C31.0998 55.2 30.7998 55.7 30.1998 56.2H29.7998C29.1998 55.7 28.8998 55.2 28.5998 54.7C28.2998 54.2 28.0998 53.7 27.9998 53.2C27.6998 52.2 28.1998 51.2 28.3998 50.1C28.5998 49.1 28.7998 48.1 28.9998 47C29.1998 46 29.4998 45 29.7998 43.9H30.1998Z" fill="#001A4A"/>
<path d="M18.7998 56C20.6998 55.7 22.4998 55.5 24.3998 55.2C26.2998 55 28.0998 54.8 29.9998 54.6C31.8998 54.4 33.6998 53.9 35.5998 54.2C37.4998 54.5 39.2998 54.9 41.1998 56V56.4C39.2998 57.5 37.4998 57.9 35.5998 58.2C33.6998 58.5 31.8998 58 29.9998 57.8C28.0998 57.6 26.2998 57.4 24.3998 57.2C22.4998 56.9 20.6998 56.7 18.7998 56.4V56Z" fill="#001A4A"/>
<path d="M20.4998 16.2999L11.7998 24.8999L20.3998 33.5999" fill="#57c2b4"/>
<path d="M20.5998 16.4C19.3998 18.1 18.0998 19.7 16.7998 21.3C15.4998 22.9 14.1998 24.5 12.8998 26.1V23.8C13.8998 24.3 14.6998 24.9 15.3998 25.6C16.0998 26.3 16.7998 27 17.4998 27.9C18.0998 28.7 18.6998 29.6 19.1998 30.5C19.6998 31.4 20.1998 32.4 20.4998 33.5L20.1998 33.8C19.0998 33.5 18.0998 33 17.1998 32.5C16.2998 32 15.3998 31.4 14.5998 30.7C13.7998 30.1 13.0998 29.4 12.3998 28.6C11.6998 27.8 11.0998 27 10.5998 26.1L9.7998 24.5L10.5998 23.8C12.1998 22.5 13.7998 21.2 15.3998 19.9C16.9998 18.6 18.5998 17.3 20.2998 16.1L20.5998 16.4Z" fill="#001A4A"/>
<path d="M40.5001 16.8999L48.2001 24.8999L40.1001 33.0999" fill="#57c2b4"/>
<path d="M40.6 16.7C42.1 17.8 43.6 19 45 20.2C46.4 21.4 47.9 22.5999 49.3 23.7999L50 24.4L49.3 26C48.9 26.9 48.3 27.7 47.6 28.4C47 29.0999 46.3 29.7999 45.5 30.4C44.7 31 43.9 31.5 43.1 32C42.2 32.5 41.3 32.9 40.2 33.2L40 33C40.3 31.9 40.7 31 41.2 30.1C41.7 29.2 42.2 28.4 42.8 27.6C43.4 26.8 44 26.1 44.7 25.5C45.4 24.9 46.2 24.2999 47.1 23.7999V26C45.9 24.6 44.8 23.1 43.7 21.6C42.6 20.1 41.5 18.6 40.4 17L40.6 16.7Z" fill="#001A4A"/>
<path d="M25.7002 35.7999C26.1002 33.5999 26.6002 31.5 27.0002 29.4C27.5002 27.3 28.0002 25.2 28.5002 23.1C28.8002 22 29.0002 21 29.2002 19.9C29.4002 18.8 29.8002 17.8 30.2002 16.8C30.7002 15.8 31.2002 14.8 31.8002 13.9C32.4002 13 33.1002 12 34.0002 11.2L34.4002 11.3C34.6002 12.5 34.6002 13.6 34.5002 14.8C34.4002 15.9 34.2002 17 34.0002 18C33.8002 19.1 33.4002 20.1 32.9002 21.1C32.4002 22.1 31.9002 23.1 31.5002 24.1C30.7002 26.1 29.8002 28.1 28.9002 30.1C28.0002 32.1 27.1002 34.1 26.1002 36L25.7002 35.7999Z" fill="#001A4A"/>
</svg>
