<svg width="60" height="60" viewBox="0 0 60 60" fill="none" xmlns="http://www.w3.org/2000/svg">
<g clip-path="url(#clip0_3389_21820)">
<rect x="-1" width="60" height="60" rx="10" fill="white"/>
<path d="M41.3004 58.2C50.634 58.2 58.2004 50.6336 58.2004 41.3C58.2004 31.9664 50.634 24.4 41.3004 24.4C31.9668 24.4 24.4004 31.9664 24.4004 41.3C24.4004 50.6336 31.9668 58.2 41.3004 58.2Z" fill="#57c2b4"/>
<path d="M41.3002 57.9C45.7002 58 50.1002 56.1 52.9002 52.9C55.8002 49.7 57.2002 45.4 57.1002 41.3C57.0002 37.2 55.2002 33.1 52.2002 30.4C49.3002 27.6 45.2002 26.1 41.3002 26.2C37.3002 26.3 33.5002 28.1 30.9002 30.9C28.3002 33.7 26.7002 37.5 26.6002 41.3C26.5002 45.1 27.6002 49.2 30.2002 52.4C32.7002 55.6 36.9002 57.9 41.3002 57.9ZM41.3002 58.3C36.8002 58.4 32.2002 57 28.6002 54C26.8002 52.5 25.2002 50.6 24.1002 48.4C23.0002 46.2 22.4002 43.7 22.3002 41.3C22.1002 36.3 24.2002 31.3 27.9002 27.9C31.5002 24.5 36.5002 22.6 41.3002 22.7C46.2002 22.8 50.9002 24.9 54.2002 28.4C57.5002 31.8 59.4002 36.6 59.2002 41.3C59.1002 46 56.9002 50.5 53.5002 53.6C50.1002 56.6 45.7002 58.3 41.3002 58.3Z" fill="#001A4A"/>
<path d="M25.3001 46.7C28.0001 46.4 30.6001 46.1 33.3001 45.8L37.3001 45.4L41.3001 45.1C42.6001 45 44.0001 44.8 45.3001 44.7C46.6001 44.6 48.0001 44.5 49.3001 44.7C52.0001 45 54.6001 45.4 57.3001 46.6C57.4001 46.7 57.5001 46.8 57.4001 46.9C57.4001 47 57.3001 47 57.3001 47C54.6001 48.2 52.0001 48.7 49.3001 48.9C48.0001 49 46.6001 49 45.3001 48.9C44.0001 48.8 42.6001 48.6 41.3001 48.5L37.3001 48.2L33.3001 47.8C30.6001 47.5 28.0001 47.3 25.3001 46.9C25.2001 46.9 25.1001 46.8 25.1001 46.7C25.2001 46.7 25.2001 46.7 25.3001 46.7Z" fill="#001A4A"/>
<path d="M25.3001 35.4C28.0001 35.1 30.6001 34.8 33.3001 34.5L37.3001 34.1L41.3001 33.8C42.6001 33.7 44.0001 33.5 45.3001 33.4C46.6001 33.3 48.0001 33.2 49.3001 33.4C52.0001 33.7 54.6001 34.1 57.3001 35.3C57.4001 35.4 57.5001 35.5 57.4001 35.6C57.4001 35.7 57.3001 35.7 57.3001 35.7C54.6001 36.9 52.0001 37.4 49.3001 37.6C48.0001 37.7 46.6001 37.7 45.3001 37.6C44.0001 37.5 42.6001 37.3 41.3001 37.2L37.3001 36.9L33.3001 36.5C30.6001 36.2 28.0001 36 25.3001 35.6C25.2001 35.6 25.1001 35.5 25.1001 35.4C25.2001 35.5 25.2001 35.4 25.3001 35.4Z" fill="#001A4A"/>
<path d="M37.7998 24.8C37.3998 27.6 37.0998 30.4 36.9998 33.1V35.2L37.0998 37.3L37.1998 39.4L37.3998 41.4C37.4998 42.1 37.5998 42.8 37.6998 43.4L38.0998 45.4C38.2998 46.1 38.3998 46.7 38.4998 47.4C38.5998 48.1 38.6998 48.7 38.7998 49.4C38.9998 52.1 39.2998 54.8 39.0998 57.9C39.0998 58 38.9998 58.1 38.8998 58.1C38.7998 58.1 38.7998 58.1 38.6998 58C36.5998 55.7 35.3998 53 34.4998 50.2C34.2998 49.5 34.1998 48.8 33.9998 48.1C33.8998 47.4 33.8998 46.6 33.7998 45.9V43.7C33.7998 43 33.7998 42.2 33.8998 41.5L33.9998 39.3L34.1998 37.1L34.4998 35L34.8998 32.9C35.4998 30.1 36.2998 27.3 37.3998 24.7C37.3998 24.6 37.5998 24.5 37.6998 24.6C37.7998 24.6 37.7998 24.7 37.7998 24.8Z" fill="#001A4A"/>
<path d="M45.1 24.7C46.2 27.3 47 30.1 47.6 32.9C47.9 34.3 48.1 35.7 48.3 37.2C48.5 38.6 48.5 40.1 48.6 41.5C48.6 43 48.7 44.4 48.7 45.9C48.7 47.4 48.5 48.8 48.1 50.2C47.3 53 46 55.7 43.9 58C43.8 58.1 43.7 58.1 43.6 58C43.6 58 43.5 57.9 43.5 57.8C43.3 54.8 43.6 52 43.8 49.3C43.9 48 44.1 46.6 44.4 45.3C44.7 44 45 42.6 45.1 41.3C45.2 39.9 45.3 38.6 45.4 37.2C45.5 35.8 45.5 34.4 45.4 33.1C45.4 30.3 45.1 27.6 44.6 24.8C44.6 24.7 44.7 24.6 44.8 24.6C45 24.6 45.1 24.6 45.1 24.7Z" fill="#001A4A"/>
<path d="M54.2 18.8L54 10.9L53.9 7.00001V6.00001C53.9 5.70001 53.8 5.40001 53.8 5.20001C53.7 4.70001 53.4 4.20001 53 3.80001C52.5 3.30001 52 3.00001 51.5 2.80001C51.2 2.70001 51 2.70001 50.7 2.60001C50.6 2.60001 50.4 2.60001 50.3 2.60001H49.8L45.9 2.70001L38 2.90001L6.5 3.60001H6C5.8 3.60001 5.8 3.60001 5.7 3.60001C5.5 3.60001 5.3 3.70001 5.2 3.70001C4.8 3.90001 4.5 4.10001 4.3 4.40001C4 4.70001 3.9 5.00001 3.8 5.40001C3.8 5.60001 3.8 5.80001 3.8 5.90001V6.90001L4 14.7C4.1 20 4.1 25.2 4 30.5L3.7 38.4L3.5 42.3L3.4 44.3V44.8C3.4 44.9 3.4 45 3.4 45.1C3.4 45.3 3.4 45.5 3.5 45.7C3.7 46.5 4.4 47.2 5.3 47.5C5.5 47.6 5.7 47.6 6 47.6L7 47.7L9 47.8C11.6 48 14.3 48.2 16.9 48.6C17 48.6 17.1 48.7 17.1 48.8C17.1 48.9 17 49 16.9 49C14.3 49.3 11.6 49.5 9 49.8L7 49.9L6 50C5.7 50 5.2 50 4.8 49.9C3.1 49.6 1.5 48.4 0.8 46.8C0.6 46.4 0.5 46 0.4 45.5C0.4 45.3 0.3 45.1 0.3 44.8V44.3L0.2 42.3L0 38.4L-0.3 30.5C-0.4 25.2 -0.4 20 -0.3 14.7L0 6.90001V5.90001C0 5.40001 0.1 4.90001 0.2 4.50001C0.5 3.50001 0.9 2.70001 1.6 2.00001C2.2 1.30001 3.1 0.800012 4 0.500012C4.4 0.300012 4.9 0.300012 5.4 0.200012C5.6 0.200012 5.9 0.200012 6.1 0.200012H6.6L38 0.800012L45.9 1.00001L49.8 1.10001H50.3C50.5 1.10001 50.7 1.10001 50.9 1.10001C51.3 1.20001 51.7 1.30001 52 1.40001C52.7 1.70001 53.4 2.20001 53.8 2.70001C54.3 3.30001 54.6 4.00001 54.8 4.70001C54.9 5.20001 55 5.60001 55 5.90001V6.90001L54.9 10.8L54.7 18.7C54.7 18.8 54.6 18.9 54.5 18.9C54.3 19 54.2 18.9 54.2 18.8Z" fill="#001A4A"/>
<path d="M1.9002 12.9C6.3002 12.6 10.7002 12.3 15.0002 12L21.6002 11.6L28.2002 11.3C30.4002 11.2 32.6002 11 34.8002 10.9C37.0002 10.8 39.2002 10.8 41.4002 10.9C43.6002 11 45.8002 11.2 48.0002 11.5C50.2002 11.8 52.4002 12.2 54.6002 12.8C54.7002 12.8 54.8002 13 54.8002 13.1C54.8002 13.2 54.7002 13.2 54.6002 13.3C52.4002 13.9 50.2002 14.3 48.0002 14.6C45.8002 14.9 43.6002 15.1 41.4002 15.2C39.2002 15.3 37.0002 15.3 34.8002 15.2C32.6002 15.1 30.4002 14.9 28.2002 14.8L21.6002 14.5L15.0002 14.2C10.6002 13.9 6.2002 13.7 1.9002 13.3C1.8002 13.3 1.7002 13.2 1.7002 13.1C1.7002 13 1.8002 12.9 1.9002 12.9Z" fill="#001A4A"/>
<path d="M17.1001 1.90003C17.4001 2.80003 17.7001 3.80003 18.0001 4.70003L18.4001 6.10003L18.7001 7.50003C18.7001 8.00003 18.9001 8.40003 19.0001 8.90003C19.1001 9.40003 19.1001 9.80003 19.0001 10.3C18.9001 10.8 18.7001 11.2 18.4001 11.7C18.1001 12.2 17.7001 12.6 17.1001 13.1C17.0001 13.2 16.8001 13.2 16.7001 13.1C16.1001 12.6 15.7001 12.2 15.4001 11.7C15.1001 11.2 14.9001 10.8 14.8001 10.3C14.7001 9.80003 14.7001 9.40003 14.8001 8.90003C14.9001 8.40003 15.1001 8.00003 15.2001 7.50003L15.5001 6.10003L15.9001 4.70003C16.2001 3.80003 16.4001 2.80003 16.8001 1.90003C16.8001 1.80003 17.0001 1.70003 17.1001 1.80003C17.0001 1.80003 17.1001 1.80003 17.1001 1.90003Z" fill="#001A4A"/>
<path d="M28.2999 1.90003C28.5999 2.80003 28.8999 3.80003 29.1999 4.70003L29.5999 6.10003L29.8999 7.50003C29.9999 8.00003 30.1999 8.40003 30.2999 8.90003C30.3999 9.40003 30.3999 9.80003 30.2999 10.3C30.1999 10.8 29.9999 11.2 29.6999 11.7C29.3999 12.2 28.9999 12.6 28.3999 13.1C28.2999 13.2 28.0999 13.2 27.9999 13.1C27.3999 12.6 26.9999 12.2 26.6999 11.7C26.3999 11.2 26.1999 10.8 26.0999 10.3C25.9999 9.80003 25.9999 9.40003 26.0999 8.90003C26.1999 8.40003 26.3999 8.00003 26.4999 7.50003L26.7999 6.10003L27.1999 4.70003C27.4999 3.80003 27.6999 2.80003 28.0999 1.90003C28.0999 1.80003 28.2999 1.70003 28.3999 1.80003C28.2999 1.80003 28.2999 1.80003 28.2999 1.90003Z" fill="#001A4A"/>
</g>
<defs>
<clipPath id="clip0_3389_21820">
<rect width="60" height="60" fill="white"/>
</clipPath>
</defs>
</svg>
