<svg width="60" height="60" viewBox="0 0 60 60" fill="none" xmlns="http://www.w3.org/2000/svg">
<path d="M31.0031 55.6784C45.1855 55.1237 56.2329 43.1769 55.6782 28.9945C55.1235 14.8122 43.1767 3.76478 28.9944 4.31948C14.812 4.87418 3.76461 16.8209 4.31931 31.0033C4.87401 45.1857 16.8208 56.2331 31.0031 55.6784Z" fill="#57c2b4"/>
<path d="M29.9998 55.5C33.2998 55.5 36.6998 54.9 39.7998 53.6C42.8998 52.3 45.5998 50.3 47.8998 47.9C52.3998 43.1 54.8998 36.5 54.6998 30C54.5998 23.5 51.8998 17.2 47.1998 12.7C42.5998 8.19999 36.2998 5.69999 29.8998 5.79999C26.6998 5.89999 23.5998 6.49999 20.6998 7.79999C17.7998 9.09999 15.1998 10.9 13.0998 13.1C8.89981 17.7 6.3998 23.8 6.2998 30C6.1998 33.1 6.6998 36.2 7.7998 39.2C8.7998 42.2 10.4998 45 12.5998 47.4C14.6998 49.8 17.3998 51.9 20.3998 53.3C23.2998 54.7 26.6998 55.4 29.9998 55.5ZM29.9998 55.9C26.5998 56 23.1998 55.4 19.9998 54.2C16.7998 53 13.6998 51.3 11.0998 48.9C8.4998 46.6 6.2998 43.7 4.6998 40.4C3.1998 37.2 2.3998 33.6 2.2998 30C2.2998 26.4 2.8998 22.7 4.2998 19.4C5.6998 16 7.7998 13 10.3998 10.5C15.5998 5.49999 22.7998 2.59999 29.9998 2.79999C37.1998 2.89999 44.1998 5.89999 49.0998 11C54.0998 16.1 56.7998 23.1 56.6998 30.1C56.5998 33.6 55.7998 37.1 54.3998 40.2C52.9998 43.4 50.8998 46.2 48.3998 48.6C43.4998 53.2 36.7998 55.8 29.9998 55.9Z" fill="#001A4A"/>
<path d="M30.0001 54.1C35.4677 54.1 39.9001 43.5787 39.9001 30.6C39.9001 17.6213 35.4677 7.09998 30.0001 7.09998C24.5325 7.09998 20.1001 17.6213 20.1001 30.6C20.1001 43.5787 24.5325 54.1 30.0001 54.1Z" fill="#57c2b4"/>
<path d="M40.1 30.6C40.1 32.8 39.9 35 39.6 37.2C39.3 39.4 38.7 41.5 37.9 43.6C37.1 45.7 36 47.7 34.8 49.5C33.6 51.4 32.2 53.1 30.8 54.8L30 55.6L29.2 54.8C26.2 51.6 23.2 48.1 21.3 43.9C19.3 39.7 18.6 35.1 18.5 30.6C18.4 26.1 18.8 21.4 20.6 17C21.5 14.8 22.7 12.8 24.1 10.9C25.5 9 27 7.3 28.5 5.7L30.1 4L31.5 5.7C32.9 7.4 34.3 9.1 35.6 11.1C36.8 13 37.9 15.1 38.6 17.3C39.3 19.5 39.7 21.7 39.9 24C40.1 26.2 40.1 28.4 40.1 30.6ZM39.7 30.6C39.6 28.4 39.4 26.2 38.9 24.1C38.4 22 37.6 20 36.6 18.1C35.6 16.3 34.3 14.6 32.9 13C31.5 11.4 30 9.9 28.5 8.3H31.5C28.7 11.6 26 14.8 24.3 18.4C22.5 22 21.9 26.2 21.8 30.4C21.7 34.6 22.2 38.8 23.8 42.7C25.4 46.6 28 50 30.8 53.3H29.3C32.3 50.1 35.2 46.9 37.1 43.1C38.1 41.2 38.8 39.1 39.2 37C39.6 35 39.7 32.8 39.7 30.6Z" fill="#001A4A"/>
<path d="M4.2998 29.8C8.5998 29.5 12.8998 29.3 17.1998 29C21.4998 28.8 25.7998 28.6 30.0998 28.4C34.3998 28.2 38.6998 27.7 42.9998 28C45.0998 28.1 47.2998 28.3 49.3998 28.6C51.4998 28.9 53.6998 29.2 55.7998 29.8V30.2C53.6998 30.8 51.4998 31.1 49.3998 31.4C47.2998 31.7 45.0998 31.9 42.9998 32C38.6998 32.3 34.3998 31.8 30.0998 31.6C25.7998 31.4 21.4998 31.2 17.1998 31C12.8998 30.7 8.5998 30.5 4.2998 30.2V29.8Z" fill="#001A4A"/>
</svg>
