<svg width="60" height="60" viewBox="0 0 60 60" fill="none" xmlns="http://www.w3.org/2000/svg">
<g clip-path="url(#clip0_3389_21901)">
<rect y="1" width="60" height="60" rx="10" fill="white"/>
<path d="M6.8998 13.8C6.8998 8.29999 17.2998 3.79999 29.9998 3.79999C42.6998 3.79999 53.0998 8.29999 53.0998 13.8C53.0998 13.8 53.6998 20.1 53.6998 30.1C53.6998 40.1 53.0998 46.4 53.0998 46.4C53.0998 51.9 42.6998 56.4 29.9998 56.4C17.1998 56.4 6.8998 51.9 6.8998 46.4C6.8998 46.4 6.2998 40.1 6.2998 30.1C6.2998 20.1 6.8998 13.8 6.8998 13.8Z" fill="#57c2b4"/>
<path d="M6.6999 13.7C6.6999 12.5 7.1999 11.4 7.8999 10.5C8.2999 10.1 8.5999 9.6 9.0999 9.3C9.4999 8.9 9.9999 8.6 10.4999 8.2C12.3999 6.9 14.4999 6 16.6999 5.3C18.8999 4.6 21.0999 4.1 23.2999 3.7C25.4999 3.3 27.7999 3.1 30.0999 3C34.6999 2.9 39.2999 3.3 43.6999 4.5C45.8999 5.1 48.0999 6 50.1999 7.3C50.6999 7.6 51.1999 8 51.6999 8.4C52.1999 8.8 52.5999 9.3 52.9999 9.8C53.7999 10.8 54.3999 12.2 54.3999 13.6V13.5C54.6999 16.3 54.8999 19 54.9999 21.7C55.0999 24.4 55.1999 27.2 55.2999 29.9C55.2999 32.6 55.2999 35.4 55.2999 38.1C55.1999 40.8 55.0999 43.5 54.8999 46.3V46.1C54.8999 47.7 54.2999 49.1 53.3999 50.3C52.9999 51 52.4999 51.5 51.9999 51.9C51.4999 52.4 50.9999 52.7 50.4999 53.1C48.3999 54.6 46.1999 55.5 43.8999 56.2C41.5999 56.9 39.2999 57.4 36.9999 57.8C34.6999 58.2 32.2999 58.3 29.9999 58.3C25.2999 58.3 20.5999 57.8 15.9999 56.4C13.6999 55.7 11.4999 54.7 9.3999 53.2C8.8999 52.8 8.3999 52.4 7.8999 52C7.3999 51.6 6.9999 51 6.4999 50.5C5.6999 49.3 5.0999 47.8 5.0999 46.2V46.4C4.9999 43.6 4.9999 40.9 5.0999 38.2C5.1999 35.5 5.2999 32.7 5.4999 30C5.6999 27.3 5.7999 24.6 5.9999 21.9C6.1999 19.1 6.2999 16.4 6.6999 13.7ZM7.0999 13.8C6.8999 16.5 6.7999 19.2 6.7999 21.9C6.7999 24.6 6.8999 27.3 6.9999 30C7.1999 32.7 7.3999 35.4 7.5999 38.1C7.8999 40.8 8.1999 43.5 8.4999 46.1V46.3C8.5999 47 8.8999 47.6 9.3999 48.3C9.6999 48.6 9.9999 48.9 10.3999 49.2C10.6999 49.5 11.0999 49.8 11.4999 50C13.0999 51 15.0999 51.8 17.0999 52.4C19.0999 53 21.1999 53.4 23.3999 53.7C25.4999 54 27.6999 54.1 29.8999 54.2C34.1999 54.2 38.5999 53.8 42.6999 52.7C44.6999 52.1 46.6999 51.3 48.3999 50.3C48.7999 50 49.1999 49.8 49.5999 49.4C49.9999 49.1 50.2999 48.8 50.4999 48.4C50.9999 47.7 51.2999 47 51.3999 46.4V46.2C51.6999 43.6 51.8999 40.9 51.9999 38.2C52.0999 35.5 52.1999 32.8 52.2999 30.1C52.2999 27.4 52.2999 24.7 52.2999 22C52.1999 19.3 52.0999 16.6 51.8999 14V13.9C51.8999 13.1 51.5999 12.3 50.9999 11.5C50.6999 11.1 50.3999 10.7 49.9999 10.4C49.6999 10 49.1999 9.7 48.7999 9.4C47.0999 8.2 45.0999 7.3 42.9999 6.6C38.7999 5.2 34.3999 4.6 29.8999 4.4C25.4999 4.3 20.8999 4.6 16.5999 5.9C14.3999 6.5 12.3999 7.4 10.4999 8.6C9.9999 8.9 9.5999 9.2 9.1999 9.6C8.7999 10 8.3999 10.4 8.0999 10.8C7.5999 11.6 7.0999 12.7 7.0999 13.8Z" fill="#001A4A"/>
<path d="M53.3002 13.7C53.4002 14.9 52.9002 16.1 52.3002 17.1C51.9002 17.6 51.6002 18.1 51.2002 18.5C50.8002 18.9 50.3002 19.3 49.9002 19.7C48.0002 21.1 45.9002 22.1 43.7002 23C41.5002 23.8 39.3002 24.4 37.0002 24.8C34.7002 25.2 32.4002 25.4 30.1002 25.5C27.8002 25.6 25.4002 25.6 23.1002 25.5C20.8002 25.3 18.4002 24.9 16.1002 24C13.8002 23.2 11.6002 22.1 9.70021 20.4C8.80021 19.6 7.90021 18.6 7.30021 17.5C6.70021 16.3 6.40021 15 6.70021 13.8C6.70021 13.7 6.90021 13.6 7.00021 13.6C7.10021 13.6 7.10021 13.7 7.20021 13.7C7.90021 15.8 9.70021 16.9 11.5002 17.8C13.3002 18.7 15.4002 19.3 17.4002 19.8C21.5002 20.7 25.7002 21.8 30.1002 22C34.5002 22.2 38.9002 21.9 43.1002 20.8C45.2002 20.3 47.3002 19.6 49.2002 18.5C49.7002 18.2 50.1002 17.9 50.5002 17.6C50.9002 17.3 51.3002 16.9 51.7002 16.5C52.4002 15.7 52.9002 14.7 53.0002 13.7C53.0002 13.6 53.1002 13.5 53.2002 13.5C53.3002 13.6 53.3002 13.6 53.3002 13.7Z" fill="#001A4A"/>
<path d="M54 30.3C54.1 31.5 53.6 32.7 52.9 33.7L52.3 34.4C52.1 34.6 51.9 34.8 51.7 35C51.3 35.4 50.8 35.8 50.3 36.1C48.3 37.5 46.2 38.5 43.9 39.2C41.6 40 39.3 40.6 37 41C34.7 41.4 32.3 41.6 30 41.7C27.6 41.8 25.3 41.8 22.9 41.7C20.5 41.5 18.1 41.1 15.8 40.3C13.5 39.5 11.3 38.4 9.29997 36.9C8.29997 36.1 7.39997 35.2 6.69997 34C6.09997 32.9 5.69997 31.5 5.99997 30.3C5.99997 30.2 6.19997 30.1 6.29997 30.1C6.39997 30.1 6.39997 30.2 6.49997 30.2C7.19997 32.4 9.09997 33.4 11 34.2C12.9 35 15 35.6 17.1 36.1C21.3 37 25.6 38 30.1 38.2C34.5 38.4 39 38.1 43.4 37.1C45.6 36.6 47.7 36 49.6 34.9C50.1 34.6 50.6 34.4 51 34C51.2 33.8 51.4 33.7 51.7 33.5L52.3 32.9C53 32.1 53.6 31.2 53.7 30.1C53.7 30 53.8 29.9 53.9 29.9C53.9 30.1 54 30.2 54 30.3Z" fill="#001A4A"/>
<path d="M14.4002 29.8C14.5002 29.5 14.3002 29.2 14.1002 29.1C14.0002 29.1 13.8002 29.1 13.7002 29.1C13.6002 29.2 13.4002 29.3 13.3002 29.4C13.2002 29.5 13.1002 29.7 13.0002 30C12.9002 30.2 13.1002 30.5 13.3002 30.5C13.7002 30.6 14.5002 30.2 14.4002 29V28.8C14.4002 28.7 14.4002 28.6 14.4002 28.6C14.6002 27.4 15.7002 27.2 16.4002 27.5C16.7002 27.7 17.0002 28 17.0002 28.4C17.0002 28.8 16.9002 29.2 16.8002 29.5C16.7002 29.8 16.5002 30.1 16.4002 30.3C16.2002 30.5 15.9002 30.6 15.7002 30.7C15.2002 30.8 14.7002 30.7 14.5002 30.3C14.4002 30.2 14.4002 30.1 14.5002 30L14.4002 29.8Z" fill="#001A4A"/>
<path d="M14.3999 30.2C14.1999 30.5 13.6999 30.7 13.1999 30.6C12.9999 30.5 12.6999 30.4 12.4999 30.2C12.2999 30 12.1999 29.7 12.0999 29.4C11.9999 29.1 11.8999 28.7 11.8999 28.3C11.8999 27.9 12.0999 27.6 12.4999 27.4C13.1999 27.1 14.1999 27.3 14.4999 28.5C14.4999 28.6 14.4999 28.7 14.4999 28.7V28.9C14.3999 30.1 15.0999 30.5 15.5999 30.4C15.7999 30.4 15.9999 30.1 15.8999 29.9C15.7999 29.7 15.6999 29.5 15.5999 29.3C15.4999 29.2 15.3999 29.1 15.1999 29C15.0999 28.9 14.8999 28.9 14.7999 29C14.4999 29.1 14.3999 29.4 14.4999 29.7V29.8C14.3999 30 14.3999 30.1 14.3999 30.2Z" fill="#001A4A"/>
<path d="M14.4002 46C14.5002 45.7 14.3002 45.4 14.1002 45.3C14.0002 45.3 13.8002 45.3 13.7002 45.3C13.6002 45.4 13.4002 45.5 13.3002 45.6C13.2002 45.8 13.0002 46 13.0002 46.2C12.9002 46.4 13.1002 46.7 13.3002 46.7C13.7002 46.8 14.5002 46.4 14.4002 45.2V45C14.4002 44.9 14.4002 44.8 14.4002 44.8C14.6002 43.6 15.7002 43.4 16.4002 43.7C16.7002 43.9 17.0002 44.2 17.0002 44.6C17.0002 45 16.9002 45.4 16.8002 45.7C16.7002 46 16.5002 46.3 16.4002 46.5C16.2002 46.7 15.9002 46.8 15.7002 46.9C15.2002 47 14.7002 46.9 14.5002 46.5C14.4002 46.4 14.4002 46.3 14.5002 46.2L14.4002 46Z" fill="#001A4A"/>
<path d="M14.3999 46.5C14.1999 46.8 13.6999 47 13.1999 46.9C12.9999 46.8 12.6999 46.7 12.4999 46.5C12.2999 46.3 12.1999 46 12.0999 45.7C11.9999 45.4 11.8999 45 11.8999 44.6C11.8999 44.2 12.0999 43.9 12.4999 43.7C13.1999 43.4 14.1999 43.6 14.4999 44.8C14.4999 44.9 14.4999 45 14.4999 45V45.2C14.3999 46.4 15.0999 46.8 15.5999 46.7C15.7999 46.7 15.9999 46.4 15.8999 46.2C15.7999 46 15.6999 45.8 15.5999 45.6C15.4999 45.5 15.3999 45.4 15.1999 45.3C15.0999 45.2 14.8999 45.2 14.7999 45.3C14.4999 45.4 14.3999 45.7 14.4999 46V46.1C14.3999 46.3 14.3999 46.4 14.3999 46.5Z" fill="#001A4A"/>
<path d="M22.4998 32C22.5998 31.7 22.3998 31.4 22.1998 31.3C22.0998 31.3 21.8998 31.3 21.7998 31.3C21.6998 31.4 21.4998 31.5 21.3998 31.6C21.2998 31.7 21.1998 31.9 21.0998 32.2C20.9998 32.4 21.1998 32.7 21.3998 32.7C21.7998 32.8 22.5998 32.4 22.4998 31.2V31C22.4998 30.9 22.4998 30.8 22.4998 30.8C22.6998 29.6 23.7998 29.4 24.4998 29.7C24.7998 29.9 25.0998 30.2 25.0998 30.6C25.0998 31 24.9998 31.4 24.8998 31.7C24.7998 32 24.5998 32.3 24.4998 32.5C24.2998 32.7 23.9998 32.8 23.7998 32.9C23.2998 33 22.7998 32.9 22.5998 32.5C22.4998 32.4 22.4998 32.3 22.5998 32.2L22.4998 32Z" fill="#001A4A"/>
<path d="M22.5 32.4C22.3 32.7 21.8 32.9 21.3 32.8C21.1 32.7 20.8 32.6 20.6 32.4C20.4 32.2 20.3 31.9 20.2 31.6C20.1 31.3 20 30.9 20 30.5C20 30.1 20.2 29.8 20.6 29.6C21.3 29.3 22.3 29.5 22.6 30.7C22.6 30.8 22.6 30.9 22.6 30.9V31.1C22.5 32.3 23.2 32.7 23.7 32.6C23.9 32.6 24.1 32.3 24 32.1C23.9 31.9 23.8 31.7 23.7 31.5C23.6 31.4 23.5 31.3 23.3 31.2C23.2 31.1 23 31.1 22.9 31.2C22.6 31.3 22.5 31.6 22.6 31.9V32C22.6 32.2 22.6 32.3 22.5 32.4Z" fill="#001A4A"/>
<path d="M22.4998 48.2C22.5998 47.9 22.3998 47.6 22.1998 47.5C22.0998 47.5 21.8998 47.5 21.7998 47.5C21.6998 47.6 21.4998 47.7 21.3998 47.8C21.2998 47.9 21.1998 48.1 21.0998 48.4C20.9998 48.6 21.1998 48.9 21.3998 48.9C21.7998 49 22.5998 48.6 22.4998 47.4V47.2C22.4998 47.1 22.4998 47 22.4998 47C22.6998 45.8 23.7998 45.6 24.4998 45.9C24.7998 46.1 25.0998 46.4 25.0998 46.8C25.0998 47.2 24.9998 47.6 24.8998 47.9C24.7998 48.2 24.5998 48.5 24.4998 48.7C24.2998 48.9 23.9998 49 23.7998 49.1C23.2998 49.2 22.7998 49.1 22.5998 48.7C22.4998 48.6 22.4998 48.5 22.5998 48.4L22.4998 48.2Z" fill="#001A4A"/>
<path d="M22.5 48.7C22.3 49 21.8 49.2 21.3 49.1C21.1 49 20.8 48.9 20.6 48.7C20.4 48.5 20.3 48.2 20.2 47.9C20.1 47.6 20 47.2 20 46.8C20 46.4 20.2 46.1 20.6 45.9C21.3 45.6 22.3 45.8 22.6 47C22.6 47.1 22.6 47.2 22.6 47.2V47.4C22.5 48.6 23.2 49 23.7 48.9C23.9 48.9 24.1 48.6 24 48.4C23.9 48.2 23.8 48 23.7 47.8C23.6 47.7 23.5 47.6 23.3 47.5C23.2 47.4 23 47.4 22.9 47.5C22.6 47.6 22.5 47.9 22.6 48.2V48.3C22.6 48.5 22.6 48.6 22.5 48.7Z" fill="#001A4A"/>
</g>
<defs>
<clipPath id="clip0_3389_21901">
<rect width="60" height="60" fill="white"/>
</clipPath>
</defs>
</svg>
