<svg width="60" height="60" viewBox="0 0 60 60" fill="none" xmlns="http://www.w3.org/2000/svg">
<path d="M9.1001 53.8L27.1001 16.8L43.4001 29.6L45.3001 55.8L9.1001 53.8Z" fill="#57c2b4"/>
<path d="M29.4 55.8H45.3H29.4ZM45.8 32.8C45.8 24.7 45.7 16.7 45.4 8.40002C45.3 6.40002 43.9 4.70002 41.9 4.50002C35.9 3.70002 30.2 3.70002 24.3 4.50002C22.3 4.80002 20.9 6.50002 20.8 8.40002C20.6 12.5 20.5 16.5 20.5 20.4" fill="#57c2b4"/>
<path d="M29.3999 55.6001C30.6999 55.3001 32.0999 55.1001 33.3999 54.8001C34.6999 54.6001 36.0999 54.4001 37.3999 54.2001C38.6999 54.0001 40.0999 53.5001 41.3999 53.8001C42.6999 54.1001 44.0999 54.5001 45.3999 55.6001V56.0001C44.0999 57.1001 42.6999 57.5001 41.3999 57.8001C40.0999 58.1001 38.6999 57.6001 37.3999 57.4001C36.0999 57.2001 34.6999 57.0001 33.3999 56.8001C32.0999 56.5001 30.6999 56.3001 29.3999 56.0001V55.6001Z" fill="#001A4A"/>
<path d="M45.6001 32.8C45.2001 27.3 44.9001 21.9 44.5001 16.4L44.1001 8.30005C44.0001 7.40005 43.4001 6.50005 42.6001 6.10005C42.4001 6.00005 42.2001 5.90005 42.0001 5.90005C41.9001 5.90005 41.8001 5.90005 41.7001 5.90005H41.2001C40.5001 5.80005 39.9001 5.80005 39.2001 5.70005C36.5001 5.50005 33.9001 5.60005 31.2001 5.80005C29.9001 5.90005 28.6001 6.00005 27.3001 6.20005C26.6001 6.30005 26.0001 6.30005 25.3001 6.40005C24.5001 6.50005 24.3001 6.50005 24.0001 6.60005C23.4001 6.80005 22.8001 7.50005 22.6001 8.30005V8.40005V8.60005L22.5001 9.10005L22.4001 10.1C22.3001 10.8 22.2001 11.5 22.1001 12.1C21.7001 14.8 21.3001 17.5 20.7001 20.3H20.3001C19.8001 17.6 19.5001 14.8 19.3001 12.1C19.2001 11.4 19.2001 10.7 19.2001 10L19.1001 9.00005V8.50005V8.20005V7.80005C19.2001 5.90005 20.3001 4.00005 22.1001 2.90005C22.5001 2.60005 23.0001 2.50005 23.5001 2.30005C24.1001 2.20005 24.3001 2.20005 24.7001 2.10005C25.4001 2.10005 26.1001 2.00005 26.8001 2.00005C28.2001 1.90005 29.6001 1.80005 31.0001 1.80005C33.8001 1.90005 36.6001 2.10005 39.4001 2.50005C40.1001 2.60005 40.8001 2.70005 41.5001 2.80005L42.0001 2.90005C42.2001 2.90005 42.4001 3.00005 42.7001 3.00005C43.2001 3.10005 43.6001 3.30005 44.0001 3.60005C45.6001 4.50005 46.6001 6.30005 46.7001 8.10005L46.6001 16.4C46.4001 21.9 46.3001 27.4 46.1001 32.8H45.6001Z" fill="#001A4A"/>
<path d="M8.5 54.6C8.5 52.1 8.6 24.7 8.7 22.2C8.8 20.2 10.2 18.5 12.2 18.5C16.5 18.6 20.8 20.3 24.8 22C26.3 22.6 27.3 24.1 27.4 25.8C27.6 31 27.7 33.7 27.7 39.6" fill="#57c2b4"/>
<path d="M8.3002 54.6C8.0002 48.8 7.8002 43 7.6002 37.1L7.4002 28.3L7.2002 24V22.9C7.2002 22.5 7.2002 22.2001 7.2002 21.7001C7.3002 20.7001 7.6002 19.7 8.2002 18.9C8.8002 18.1 9.7002 17.4 10.8002 17C11.3002 16.8 12.0002 16.8 12.4002 16.8C12.8002 16.8 13.2002 16.8 13.6002 16.8C15.2002 16.9 16.7002 17.1 18.2002 17.5C19.7002 17.9 21.2002 18.3 22.6002 18.9C23.3002 19.2 24.0002 19.5001 24.7002 19.7001L25.7002 20.2001C26.2002 20.4001 26.6002 20.7 27.1002 21.1C27.9002 21.8 28.5002 22.7001 28.9002 23.7001C29.3002 24.6001 29.3002 25.9 29.3002 26.5C29.2002 28 29.2002 29.4 29.0002 30.9C28.8002 33.8 28.5002 36.8001 28.0002 39.7001H27.6002C27.0002 36.8001 26.5002 33.9 26.2002 31C26.0002 29.6 25.9002 28.1 25.7002 26.7001C25.6002 25.8001 25.6002 25.6 25.4002 25.2001C25.2002 24.8001 24.9002 24.5 24.6002 24.3C24.4002 24.2 24.3002 24.1 24.1002 24L23.1002 23.6L21.1002 22.8C19.8002 22.3 18.5002 21.8 17.2002 21.4C15.9002 21 14.6002 20.6 13.3002 20.4C13.0002 20.3 12.6002 20.3 12.3002 20.3C12.0002 20.3 11.9002 20.3 11.7002 20.3C11.4002 20.4 11.0002 20.6 10.8002 20.9C10.5002 21.2 10.3002 21.6 10.2002 22.1C10.2002 22.3 10.2002 22.7 10.1002 23.1V24.2001L10.0002 28.5L9.6002 37.2001C9.3002 43 9.0002 48.8 8.7002 54.6H8.3002Z" fill="#001A4A"/>
<path d="M29.2998 55.8H49.3998C51.6998 55.8 53.5998 54 53.5998 51.8C53.7998 46.7 53.7998 41.9 53.5998 36.8C53.4998 34.8 51.9998 33.1 49.8998 32.9C47.4998 32.7 45.1998 32.7 42.6998 32.9C40.6998 33.1 39.0998 34.8 38.9998 36.8C38.7998 40.3 38.5998 43.4 38.6998 47.1" fill="#57c2b4"/>
<path d="M29.2998 55.6C35.1998 55.3 41.0998 55.1 46.9998 54.8L49.1998 54.7C49.7998 54.7 50.2998 54.5 50.7998 54.3C51.6998 53.8 52.2998 52.7 52.2998 51.7C52.2998 48.8 52.2998 45.9 52.0998 42.9C51.9998 41.4 51.8998 40 51.7998 38.5L51.6998 37.4V36.9C51.6998 36.7 51.6998 36.7 51.5998 36.6C51.4998 36.2 51.2998 35.8 50.9998 35.6C50.6998 35.3 50.3998 35.1 50.0998 35.1C50.0998 35 49.9998 35 49.9998 35C49.8998 35 49.8998 35 49.6998 35L48.5998 34.9C47.1998 34.8 45.7998 34.8 44.3998 34.8C43.6998 34.8 42.7998 34.8 42.5998 34.8C42.1998 34.9 41.8998 35 41.4998 35.3C41.1998 35.6 40.8998 35.9 40.6998 36.4C40.5998 36.7 40.4998 37.6 40.2998 38.3C39.7998 41.2 39.3998 44.1 38.7998 47H38.3998C37.7998 44.1 37.4998 41 37.4998 38.1C37.4998 37.3 37.3998 36.7 37.4998 35.6C37.6998 34.6 38.0998 33.6 38.7998 32.8C39.4998 32 40.3998 31.4 41.4998 31.1C41.9998 30.9 42.5998 30.9 42.8998 30.8L43.9998 30.7C45.4998 30.6 47.0998 30.5 48.5998 30.6C48.9998 30.6 49.3998 30.6 49.6998 30.7C49.7998 30.7 50.1998 30.8 50.4998 30.8C50.7998 30.9 51.0998 30.9 51.2998 31C52.3998 31.4 53.2998 32.1 53.9998 32.9C54.6998 33.8 55.0998 34.8 55.1998 35.9C55.1998 36.1 55.1998 36.5 55.1998 36.7V37.3V38.4C55.1998 39.9 55.1998 41.4 55.0998 42.9C54.9998 45.9 54.8998 48.8 54.6998 51.8C54.5998 53.7 53.2998 55.5 51.5998 56.3C50.7998 56.7 49.7998 56.9 48.8998 56.8H46.9998C41.0998 56.5 35.1998 56.3 29.2998 56V55.6Z" fill="#001A4A"/>
<path d="M45.6002 24.6C44.4002 24.9 43.3002 25.2 42.1002 25.4C40.9002 25.6 39.8002 25.8 38.6002 26C37.4002 26.2 36.3002 26.7 35.1002 26.4C34.5002 26.3 33.9002 26.1 33.4002 25.8C32.8002 25.5 32.2002 25.2 31.7002 24.6V24.2C32.3002 23.6 32.9002 23.3 33.4002 23C34.0002 22.7 34.6002 22.5 35.1002 22.4C36.3002 22.1 37.4002 22.6 38.6002 22.8C39.8002 23 40.9002 23.2 42.1002 23.4C43.3002 23.6 44.4002 23.9 45.6002 24.2V24.6Z" fill="#001A4A"/>
<path d="M45.6002 14.6C44.4002 14.9 43.3002 15.2 42.1002 15.4C40.9002 15.6 39.8002 15.8 38.6002 16C37.4002 16.2 36.3002 16.7 35.1002 16.4C34.5002 16.3 33.9002 16.1 33.4002 15.8C32.8002 15.5 32.2002 15.2 31.7002 14.6V14.2C32.3002 13.6 32.9002 13.3 33.4002 13C34.0002 12.7 34.6002 12.5 35.1002 12.4C36.3002 12.1 37.4002 12.6 38.6002 12.8C39.8002 13 40.9002 13.2 42.1002 13.4C43.3002 13.6 44.4002 13.9 45.6002 14.2V14.6Z" fill="#001A4A"/>
</svg>
