<svg width="60" height="60" viewBox="0 0 60 60" fill="none" xmlns="http://www.w3.org/2000/svg">
<g clip-path="url(#clip0_3389_21872)">
<rect width="60" height="60" rx="10" fill="white"/>
<path d="M9.40014 20.4C10.0001 20.1 10.7001 19.8 11.3001 19.5L12.2001 19.1L13.1001 18.8C13.4001 18.7 13.7001 18.5 14.0001 18.4C14.3001 18.3 14.6001 18.3 14.9001 18.4C15.2001 18.5 15.5001 18.7 15.8001 19C16.1001 19.3 16.4001 19.7 16.7001 20.3C16.8001 20.4 16.8001 20.6 16.7001 20.7C16.4001 21.3 16.1001 21.7 15.8001 22C15.5001 22.3 15.2001 22.5 14.9001 22.6C14.6001 22.7 14.3001 22.7 14.0001 22.6C13.7001 22.5 13.4001 22.3 13.1001 22.2L12.2001 21.9L11.3001 21.5C10.7001 21.2 10.0001 21 9.40014 20.6C9.30014 20.8 9.20014 20.6 9.40014 20.4C9.30014 20.4 9.30014 20.5 9.40014 20.4Z" fill="#001A4A"/>
<path d="M9.40014 29.8C10.0001 29.5 10.7001 29.2 11.3001 28.9L12.2001 28.5L13.1001 28.2C13.4001 28.1 13.7001 27.9 14.0001 27.8C14.3001 27.7 14.6001 27.7 14.9001 27.8C15.2001 27.9 15.5001 28.1 15.8001 28.4C16.1001 28.7 16.4001 29.1 16.7001 29.7C16.8001 29.8 16.8001 30 16.7001 30.1C16.4001 30.7 16.1001 31.1 15.8001 31.4C15.5001 31.7 15.2001 31.9 14.9001 32C14.6001 32.1 14.3001 32.1 14.0001 32C13.7001 31.9 13.4001 31.7 13.1001 31.6L12.2001 31.3L11.3001 30.9C10.7001 30.6 10.0001 30.4 9.40014 30C9.30014 30.2 9.20014 30 9.40014 29.8C9.30014 29.8 9.30014 29.8 9.40014 29.8Z" fill="#001A4A"/>
<path d="M9.40014 39.2C10.0001 38.9 10.7001 38.6 11.3001 38.3L12.2001 37.9L13.1001 37.6C13.4001 37.5 13.7001 37.3 14.0001 37.2C14.3001 37.1 14.6001 37.1 14.9001 37.2C15.2001 37.3 15.5001 37.5 15.8001 37.8C16.1001 38.1 16.4001 38.5 16.7001 39.1C16.8001 39.2 16.8001 39.4 16.7001 39.5C16.4001 40.1 16.1001 40.5 15.8001 40.8C15.5001 41.1 15.2001 41.3 14.9001 41.4C14.6001 41.5 14.3001 41.5 14.0001 41.4C13.7001 41.3 13.4001 41.1 13.1001 41L12.2001 40.7L11.3001 40.3C10.7001 40 10.0001 39.8 9.40014 39.4C9.30014 39.5 9.20014 39.4 9.40014 39.2C9.30014 39.2 9.30014 39.2 9.40014 39.2Z" fill="#001A4A"/>
<path d="M43.0999 20.4C43.6999 20.1 44.3999 19.8 44.9999 19.5L45.8999 19.1L46.7999 18.8C47.0999 18.7 47.3999 18.5 47.6999 18.4C47.9999 18.3 48.2999 18.3 48.5999 18.4C48.8999 18.5 49.1999 18.7 49.4999 19C49.7999 19.3 50.0999 19.7 50.3999 20.3C50.4999 20.4 50.4999 20.6 50.3999 20.7C50.0999 21.3 49.7999 21.7 49.4999 22C49.1999 22.3 48.8999 22.5 48.5999 22.6C48.2999 22.7 47.9999 22.7 47.6999 22.6C47.3999 22.5 47.0999 22.3 46.7999 22.2L45.8999 21.9L44.9999 21.7C44.3999 21.4 43.6999 21.2 43.0999 20.8C42.9999 20.8 42.9999 20.6 43.0999 20.4C43.0999 20.4 43.0999 20.5 43.0999 20.4Z" fill="#001A4A"/>
<path d="M43.0999 29.8C43.6999 29.5 44.3999 29.2 44.9999 28.9L45.8999 28.5L46.7999 28.2C47.0999 28.1 47.3999 27.9 47.6999 27.8C47.9999 27.7 48.2999 27.7 48.5999 27.8C48.8999 27.9 49.1999 28.1 49.4999 28.4C49.7999 28.7 50.0999 29.1 50.3999 29.7C50.4999 29.8 50.4999 30 50.3999 30.1C50.0999 30.7 49.7999 31.1 49.4999 31.4C49.1999 31.7 48.8999 31.9 48.5999 32C48.2999 32.1 47.9999 32.1 47.6999 32C47.3999 31.9 47.0999 31.7 46.7999 31.6L45.8999 31.3L44.9999 31.1C44.3999 30.8 43.6999 30.6 43.0999 30.2C42.9999 30.2 42.9999 30 43.0999 29.8Z" fill="#001A4A"/>
<path d="M43.0999 39.2C43.6999 38.9 44.3999 38.6 44.9999 38.3L45.8999 37.9L46.7999 37.6C47.0999 37.5 47.3999 37.3 47.6999 37.2C47.9999 37.1 48.2999 37.1 48.5999 37.2C48.8999 37.3 49.1999 37.5 49.4999 37.8C49.7999 38.1 50.0999 38.5 50.3999 39.1C50.4999 39.2 50.4999 39.4 50.3999 39.5C50.0999 40.1 49.7999 40.5 49.4999 40.8C49.1999 41.1 48.8999 41.3 48.5999 41.4C48.2999 41.5 47.9999 41.5 47.6999 41.4C47.3999 41.3 47.0999 41.1 46.7999 41L45.8999 40.7L44.9999 40.4C44.3999 40.1 43.6999 39.9 43.0999 39.5C42.9999 39.5 42.9999 39.4 43.0999 39.2Z" fill="#001A4A"/>
<path d="M24.2 9.40002C23.9 8.80002 23.6 8.10002 23.3 7.50002L22.9 6.60002L22.6 5.70002C22.5 5.40002 22.3 5.10002 22.2 4.80002C22.1 4.50002 22.1 4.20002 22.2 3.90002C22.3 3.60002 22.5 3.30002 22.8 3.00002C23.1 2.70002 23.5 2.40002 24.1 2.10002C24.2 2.00002 24.4 2.00002 24.5 2.10002C25.1 2.40002 25.5 2.70002 25.8 3.00002C26.1 3.30002 26.3 3.60002 26.4 3.90002C26.5 4.20002 26.5 4.50002 26.4 4.80002C26.3 5.10002 26.1 5.40002 26 5.70002L25.7 6.60002L25.3 7.50002C25 8.10002 24.8 8.80002 24.4 9.40002C24.5 9.50002 24.4 9.50002 24.2 9.40002Z" fill="#001A4A"/>
<path d="M35.4002 9.40002C35.1002 8.80002 34.8002 8.10002 34.5002 7.50002L34.1002 6.60002L33.8002 5.70002C33.7002 5.40002 33.5002 5.10002 33.4002 4.80002C33.3002 4.50002 33.3002 4.20002 33.4002 3.90002C33.5002 3.60002 33.7002 3.30002 34.0002 3.00002C34.3002 2.70002 34.7002 2.40002 35.3002 2.10002C35.4002 2.00002 35.6002 2.00002 35.7002 2.10002C36.3002 2.40002 36.7002 2.70002 37.0002 3.00002C37.3002 3.30002 37.5002 3.60002 37.6002 3.90002C37.7002 4.20002 37.7002 4.50002 37.6002 4.80002C37.5002 5.10002 37.3002 5.40002 37.2002 5.70002L36.9002 6.60002L36.5002 7.50002C36.2002 8.10002 36.0002 8.80002 35.6002 9.40002C35.8002 9.50002 35.6002 9.50002 35.4002 9.40002C35.4002 9.40002 35.5002 9.40002 35.4002 9.40002Z" fill="#001A4A"/>
<path d="M24.2 58.1C23.9 57.5 23.6 56.8 23.3 56.2L22.9 55.3L22.6 54.4C22.5 54.1 22.3 53.8 22.2 53.5C22.1 53.2 22.1 52.9 22.2 52.6C22.3 52.3 22.5 52 22.8 51.7C23.1 51.4 23.5 51.1 24.1 50.8C24.2 50.7 24.4 50.7 24.5 50.8C25.1 51.1 25.5 51.4 25.8 51.7C26.1 52 26.3 52.3 26.4 52.6C26.5 52.9 26.5 53.2 26.4 53.5C26.3 53.8 26.1 54.1 26 54.4L25.7 55.3L25.3 56.2C25 56.8 24.8 57.5 24.4 58.1C24.5 58.2 24.4 58.3 24.2 58.1C24.2 58.2 24.2 58.2 24.2 58.1Z" fill="#001A4A"/>
<path d="M35.4002 58.1C35.1002 57.5 34.8002 56.8 34.5002 56.2L34.1002 55.3L33.8002 54.4C33.7002 54.1 33.5002 53.8 33.4002 53.5C33.3002 53.2 33.3002 52.9 33.4002 52.6C33.5002 52.3 33.7002 52 34.0002 51.7C34.3002 51.4 34.7002 51.1 35.3002 50.8C35.4002 50.7 35.6002 50.7 35.7002 50.8C36.3002 51.1 36.7002 51.4 37.0002 51.7C37.3002 52 37.5002 52.3 37.6002 52.6C37.7002 52.9 37.7002 53.2 37.6002 53.5C37.5002 53.8 37.3002 54.1 37.2002 54.4L36.9002 55.3L36.5002 56.2C36.2002 56.8 36.0002 57.5 35.6002 58.1C35.8002 58.2 35.6002 58.3 35.4002 58.1C35.4002 58.2 35.5002 58.2 35.4002 58.1Z" fill="#001A4A"/>
<path d="M39.4003 9.40002H20.6003C18.5003 9.40002 16.8003 11.1 16.8003 13.2V47C16.8003 49.1 18.5003 50.8 20.6003 50.8H39.4003C41.5003 50.8 43.2003 49.1 43.2003 47V13.1C43.1003 11.1 41.4003 9.40002 39.4003 9.40002Z" fill="#57c2b4"/>
<path d="M39.4001 9.6C34.0001 9.5 28.7001 9.6 23.3001 9.8L21.3001 9.9C20.6001 9.9 20.1001 9.9 19.5001 10.2C18.5001 10.6 17.8001 11.7 17.7001 12.7L17.9001 20.6L18.2001 36.7L18.4001 44.7V46.7C18.4001 47.2 18.5001 47.5 18.7001 47.8C19.1001 48.5 19.8001 48.9 20.6001 48.8L36.7001 48.4H38.7001C39.5001 48.4 39.6001 48.4 39.9001 48.3C40.4001 48.1 40.8001 47.6 40.9001 47.1L41.0001 39.4C41.1001 34 41.5001 28.7 42.0001 23.3C42.2001 20.6 42.5001 17.9 42.6001 15.3L42.7001 13.3C42.8001 12.7 42.7001 12.1 42.4001 11.5C41.8001 10.4 40.6001 9.6 39.4001 9.6ZM39.4001 9.2C40.8001 9.2 42.2001 10 43.0001 11.2C43.4001 11.8 43.6001 12.6 43.6001 13.3L43.7001 15.3C43.9001 18 44.1001 20.7 44.3001 23.3C44.8001 28.7 45.2001 34 45.3001 39.4L45.4001 43.4V45.4V46.4V46.9C45.4001 47.2 45.4001 47.4 45.3001 47.7C45.0001 49.8 43.5001 51.7 41.5001 52.4C41.0001 52.6 40.5001 52.7 39.9001 52.7C39.3001 52.7 39.1001 52.7 38.7001 52.7H36.7001L20.6001 52.3C18.6001 52.3 16.8001 51.1 15.9001 49.4C15.5001 48.6 15.2001 47.5 15.3001 46.7V44.7L15.5001 36.7L15.8001 20.6L15.9001 16.6L16.0001 14.6V13.6V13.1C16.0001 12.9 16.0001 12.7 16.1001 12.5C16.4001 10.9 17.6001 9.5 19.1001 9C19.8001 8.7 20.7001 8.8 21.3001 8.8L23.3001 8.9C28.7001 9.2 34.0001 9.2 39.4001 9.2Z" fill="#001A4A"/>
</g>
<defs>
<clipPath id="clip0_3389_21872">
<rect width="60" height="60" fill="white"/>
</clipPath>
</defs>
</svg>
