<svg width="60" height="60" viewBox="0 0 60 60" fill="none" xmlns="http://www.w3.org/2000/svg">
<path d="M31.0732 56.7786C45.8626 56.1859 57.3713 43.7163 56.7787 28.9269C56.186 14.1375 43.7164 2.6288 28.927 3.22146C14.1376 3.81411 2.62888 16.2837 3.22154 31.0731C3.8142 45.8625 16.2838 57.3712 31.0732 56.7786Z" fill="#57c2b4"/>
<path d="M30.0001 56.6C33.6001 56.6 37.2001 56.2 40.6001 55.1C44.0001 54 47.1001 52.1 49.6001 49.6C52.0001 47 53.7001 43.8 54.6001 40.5C55.6001 37.1 55.9001 33.6 55.8001 30.1C55.7001 26.6 55.3001 23.1 54.2001 19.8C53.1001 16.5 51.4001 13.5 48.9001 11.2C46.5001 8.89997 43.4001 7.19998 40.2001 6.19998C36.9001 5.19998 33.5001 4.89998 30.0001 4.89998C26.5001 4.99998 23.1001 5.39998 19.9001 6.49998C16.7001 7.59998 13.8001 9.29998 11.6001 11.6C9.3001 13.9 7.7001 16.9 6.8001 20C5.8001 23.2 5.4001 26.6 5.3001 30C5.2001 33.4 5.6001 36.9 6.4001 40.1C7.3001 43.4 8.7001 46.5 11.0001 49C13.3001 51.5 16.3001 53.5 19.6001 54.7C22.8001 56 26.4001 56.5 30.0001 56.6ZM30.0001 57C26.4001 57 22.8001 56.7 19.2001 55.7C15.7001 54.8 12.2001 53.1 9.4001 50.6C6.6001 48.1 4.5001 44.7 3.1001 41.2C1.8001 37.6 1.2001 33.8 1.1001 30.1C1.1001 26.4 1.5001 22.5 2.7001 18.8C3.9001 15.1 5.9001 11.6 8.7001 8.79998C11.6001 6.09998 15.1001 4.19998 18.8001 3.09998C22.5001 1.99998 26.3001 1.59998 30.0001 1.59998C33.7001 1.69998 37.5001 2.19998 41.1001 3.39998C44.7001 4.59998 48.1001 6.59998 50.8001 9.29998C53.5001 12.1 55.3001 15.5 56.4001 19.1C57.5001 22.7 57.9001 26.4 57.8001 30.1C57.7001 33.8 57.2001 37.5 56.0001 41C54.8001 44.5 52.8001 47.7 50.2001 50.3C47.5001 52.8 44.2001 54.6 40.8001 55.6C37.2001 56.5 33.6001 56.9 30.0001 57Z" fill="#001A4A"/>
<path d="M29.7998 16.3C29.4998 15.8 29.1998 15.3 28.9998 14.8C28.7998 14.3 28.5998 13.8 28.3998 13.3C28.1998 12.8 27.6998 12.3 27.9998 11.8C28.0998 11.6 28.2998 11.3 28.5998 11.1C28.8998 10.9 29.1998 10.6 29.7998 10.4H30.1998C30.7998 10.6 31.0998 10.9 31.3998 11.1C31.6998 11.3 31.8998 11.6 31.9998 11.8C32.2998 12.3 31.7998 12.8 31.5998 13.3C31.3998 13.8 31.1998 14.3 30.9998 14.8C30.7998 15.3 30.4998 15.8 30.1998 16.3H29.7998Z" fill="#001A4A"/>
<path d="M29.7998 49.8999C29.4998 49.3999 29.1998 48.8999 28.9998 48.3999C28.7998 47.8999 28.5998 47.3999 28.3998 46.8999C28.1998 46.3999 27.6998 45.8999 27.9998 45.3999C28.0998 45.0999 28.2998 44.8999 28.5998 44.5999C28.8998 44.2999 29.1998 44.0999 29.7998 43.7999H30.1998C30.7998 44.0999 31.0998 44.2999 31.3998 44.5999C31.6998 44.8999 31.8998 45.0999 31.9998 45.3999C32.2998 45.8999 31.7998 46.3999 31.5998 46.8999C31.3998 47.3999 31.1998 47.8999 30.9998 48.3999C30.7998 48.8999 30.4998 49.3999 30.1998 49.8999H29.7998Z" fill="#001A4A"/>
<path d="M38.9997 22.7999C38.9997 19.2999 36.0997 16.2999 29.9997 16.2999C23.8997 16.2999 20.9997 19.0999 20.9997 22.7999C20.9997 25.6999 23.8997 28.3999 29.9997 29.2999C36.0997 30.1999 40.2997 32.1999 40.2997 36.4999C40.2997 40.3999 35.9997 43.6999 29.9997 43.6999C23.9997 43.6999 19.6997 40.8999 19.6997 37.1999" fill="#57c2b4"/>
<path d="M38.7998 22.8C38.6998 21.2 37.9998 19.7 36.7998 18.8C35.5998 17.8 34.0998 17.3 32.5998 17.1C31.0998 16.9 29.4998 17 27.8998 17.2C26.3998 17.5 24.8998 18 23.8998 18.9C22.7998 19.8 22.2998 21 22.1998 22.4C22.0998 23.7 22.7998 24.8 23.7998 25.6C24.8998 26.4 26.1998 27 27.6998 27.3C28.3998 27.5 29.1998 27.6 29.8998 27.7C30.6998 27.8 31.5998 27.9 32.3998 28.1C34.0998 28.4 35.7998 28.8 37.4998 29.6C38.3998 30 39.1998 30.5 39.9998 31.3C40.7998 32 41.3998 33 41.7998 34C42.1998 35.1 42.3998 36.0999 42.1998 37.2999C42.0998 38.4 41.6998 39.5 41.1998 40.5C40.0998 42.4 38.2998 43.6 36.5998 44.4C34.7998 45.1 32.9998 45.5 31.1998 45.5C29.3998 45.5 27.5998 45.2999 25.8998 44.7999C24.1998 44.2999 22.4998 43.4 21.1998 42.2C20.5998 41.5 19.9998 40.8 19.6998 39.9C19.3998 39.1 19.2998 38.0999 19.3998 37.2999H19.7998C20.0998 38.9 21.0998 40 22.3998 40.7999C23.6998 41.5 25.0998 41.8999 26.5998 42.0999C29.4998 42.3999 32.6998 42.0999 34.9998 40.7999C36.1998 40.1999 37.1998 39.3 37.6998 38.4C37.9998 37.9 38.1998 37.5 38.1998 37C38.2998 36.5 38.1998 35.9 38.0998 35.5C37.8998 34.5 36.9998 33.7 35.8998 33C34.6998 32.2999 33.2998 31.8 31.7998 31.5C30.9998 31.3 30.2998 31.2 29.4998 31C28.5998 30.8 27.7998 30.6 26.9998 30.4C25.2998 29.9 23.5998 29.1 22.1998 27.8C21.4998 27.2 20.8998 26.4 20.3998 25.4C19.9998 24.5 19.7998 23.3 19.8998 22.4C19.9998 20.5 21.0998 18.6 22.5998 17.5C24.0998 16.4 25.8998 16 27.5998 15.8C29.2998 15.6 30.9998 15.7 32.6998 16.1C34.3998 16.4 35.9998 17.1 37.2998 18.4C38.5998 19.6 39.1998 21.4 39.0998 23H38.7998V22.8Z" fill="#001A4A"/>
</svg>
