<svg width="60" height="60" viewBox="0 0 60 60" fill="none" xmlns="http://www.w3.org/2000/svg">
<path d="M30.0998 40.5C28.6998 40.5 27.1998 40.5 25.6998 40.4C23.3998 40.3 21.3998 42.1 21.2998 44.4C21.1998 45.3 21.1998 46.2 21.0998 47.1V47.8C20.9998 49.8 19.4998 51.4 17.5998 51.8C16.0998 52.1 14.4998 52.3 12.8998 52.3C11.2998 52.3 9.6998 52.1 8.1998 51.8C6.2998 51.4 4.7998 49.8 4.6998 47.8V47.1C4.4998 44 4.2998 40.8 4.2998 37.6C4.2998 35.1 4.3998 32.7 4.5998 30.4C4.6998 26.6 5.0998 22.8 5.5998 19C6.3998 13.1 11.2998 8.59998 17.1998 8.19998C21.3998 7.89998 25.7998 7.59998 30.2998 7.59998C34.7998 7.59998 39.0998 7.89998 43.3998 8.19998C49.0998 8.59998 53.9998 13.1 54.6998 19C55.4998 24.9 55.9998 30.8 55.4998 36.7C55.4998 37 55.4998 37.4 55.4998 37.7C55.4998 41 55.2998 44.2 55.0998 47.2C55.0998 47.4 55.0998 47.7 55.0998 47.9C54.9998 49.9 53.4998 51.5 51.5998 51.9C50.0998 52.2 48.4998 52.4 46.8998 52.4C45.2998 52.4 43.6998 52.2 42.1998 51.9C40.2998 51.5 38.7998 49.9 38.6998 47.9C38.6998 47.7 38.6998 47.4 38.6998 47.2C38.5998 46.3 38.5998 45.4 38.4998 44.5C38.3998 42.2 36.3998 40.4 34.0998 40.5C32.6998 40.5 31.3998 40.5 30.0998 40.5Z" fill="#57c2b4"/>
<path d="M30.0998 40.7L25.6998 40.6C24.2998 40.6 22.8998 41.4 22.0998 42.6C21.6998 43.2 21.4998 43.9 21.4998 44.6L21.3998 46.8V48C21.3998 48.4 21.2998 48.8 21.1998 49.2C20.9998 49.9 20.4998 50.6 19.8998 51.2C19.2998 51.7 18.5998 52.1 17.7998 52.3C17.0998 52.5 16.2998 52.6 15.5998 52.7C14.0998 52.9 12.5998 53 11.0998 52.9C10.2998 52.8 9.5998 52.8 8.8998 52.6C8.1998 52.5 7.2998 52.3 6.5998 51.9C5.8998 51.5 5.1998 50.8 4.7998 50.1C4.5998 49.7 4.3998 49.3 4.2998 48.9C4.0998 48.4 3.9998 47.9 3.9998 47.6L3.3998 38.7C3.3998 38.3 3.2998 38 3.2998 37.6V36.5L3.3998 34.3L3.4998 29.8C3.5998 26.8 3.7998 23.8 4.0998 20.8C4.1998 20 4.1998 19.3 4.3998 18.6C4.4998 17.8 4.6998 17 4.9998 16.2C5.4998 14.6 6.29981 13.2 7.39981 11.9C9.4998 9.39997 12.3998 7.59997 15.6998 6.99997C16.0998 6.89997 16.4998 6.89997 16.8998 6.79997C17.2998 6.79997 17.6998 6.69997 17.9998 6.69997L20.1998 6.49997C21.6998 6.39997 23.1998 6.29997 24.6998 6.19997C30.6998 5.79997 36.6998 5.99997 42.6998 6.39997C43.3998 6.39997 44.2998 6.49997 45.0998 6.59997C45.8998 6.69997 46.7998 6.99997 47.5998 7.29997C49.1998 7.89997 50.6998 8.79997 51.9998 9.89997C54.5998 12.1 56.3998 15.3 56.8998 18.7C57.7998 24.6 58.1998 30.7 57.5998 36.9V36.7C57.5998 38.7 57.3998 40.6 57.2998 42.5L57.0998 45.4L56.9998 46.9L56.8998 47.6C56.8998 47.8 56.8998 48 56.7998 48.4C56.5998 49.7 55.8998 50.9 54.9998 51.8C54.4998 52.2 53.9998 52.6 53.3998 52.8C53.0998 52.9 52.7998 53 52.4998 53.1C52.2998 53.1 52.1998 53.2 51.9998 53.2L51.5998 53.3C49.6998 53.6 47.5998 53.7 45.5998 53.4C44.5998 53.3 43.5998 53.1 42.6998 52.9C42.2998 52.8 41.5998 52.7 41.0998 52.4C40.5998 52.2 40.0998 51.8 39.6998 51.4C38.8998 50.6 38.3998 49.6 38.2998 48.5C38.1998 47.9 38.2998 47.5 38.1998 47V45.6C38.1998 45.1 38.1998 44.6 38.0998 44.2C37.9998 43.8 37.8998 43.4 37.6998 43C37.2998 42.2 36.6998 41.6 35.7998 41.2C35.3998 41 34.9998 40.9 34.4998 40.9C34.0998 40.9 33.5998 40.9 33.0998 40.9L30.0998 40.7ZM30.0998 40.3L32.9998 40.2C33.4998 40.2 33.8998 40.2 34.4998 40.2C34.9998 40.2 35.4998 40.3 35.9998 40.5C36.9998 40.9 37.7998 41.6 38.2998 42.5C38.5998 42.9 38.7998 43.4 38.8998 44C38.9998 44.5 38.9998 45 39.0998 45.5L39.1998 46.9C39.2998 47.4 39.2998 47.9 39.3998 48.3C39.5998 49.1 39.9998 49.8 40.6998 50.3C40.9998 50.6 41.3998 50.7 41.6998 50.9C42.0998 51 42.3998 51.1 42.8998 51.1C43.7998 51.2 44.7998 51.3 45.6998 51.3C47.4998 51.4 49.2998 51 51.0998 50.6C51.3998 50.5 51.4998 50.5 51.6998 50.4C51.8998 50.3 51.9998 50.3 52.0998 50.2C52.3998 50 52.5998 49.8 52.7998 49.6C53.1998 49.1 53.3998 48.5 53.4998 47.9V47.3V46.6V45.2V42.4C53.4998 40.5 53.5998 38.6 53.5998 36.7V36.6V36.5C53.9998 30.8 53.3998 25 52.7998 19.2C52.4998 16.7 51.2998 14.4 49.3998 12.7C48.4998 11.9 47.3998 11.2 46.1998 10.7C45.5998 10.5 44.9998 10.3 44.3998 10.1C43.7998 9.99997 43.1998 9.89997 42.3998 9.79997C36.4998 9.29997 30.6998 8.89997 24.7998 9.19997C23.2998 9.19997 21.8998 9.29997 20.3998 9.39997L18.1998 9.49997C17.7998 9.49997 17.3998 9.49997 17.0998 9.59997C16.7998 9.59997 16.3998 9.69997 16.0998 9.69997C13.4998 10.1 10.9998 11.5 9.2998 13.5C8.3998 14.5 7.7998 15.7 7.2998 16.9C7.0998 17.5 6.8998 18.2 6.7998 18.8C6.69981 19.5 6.5998 20.2 6.4998 21C6.0998 23.9 5.7998 26.8 5.6998 29.8L5.4998 34.2L5.3998 36.4L5.2998 37.5C5.2998 37.9 5.2998 38.2 5.2998 38.6L5.4998 47.4C5.4998 47.8 5.4998 48.1 5.5998 48.4C5.6998 48.7 5.7998 49 5.8998 49.3C6.1998 49.9 6.5998 50.3 7.0998 50.7C7.5998 51.1 8.1998 51.2 8.9998 51.4C9.6998 51.5 10.3998 51.7 11.1998 51.8C12.5998 52 14.0998 52 15.4998 51.8C16.1998 51.7 16.9998 51.6 17.6998 51.5C18.3998 51.4 18.9998 51.1 19.4998 50.6C19.9998 50.2 20.3998 49.6 20.6998 48.9C20.9998 48.3 20.9998 47.5 20.9998 46.8L21.1998 44.6C21.1998 43.8 21.4998 43.1 21.8998 42.4C22.6998 41.1 24.1998 40.2 25.7998 40.2L30.0998 40.3Z" fill="#001A4A"/>
<path d="M19 30C18.7 29.2 18.4 28.3 18.2 27.5C18 26.7 17.8 25.8 17.6 25C17.4 24.2 16.9 23.3 17.2 22.5C17.3 22.1 17.5 21.7 17.8 21.2C18.1 20.8 18.4 20.4 19 19.9H19.4C20 20.3 20.3 20.7 20.6 21.2C20.9 21.6 21.1 22 21.2 22.5C21.5 23.3 21 24.2 20.8 25C20.6 25.8 20.4 26.7 20.2 27.5C20 28.3 19.7 29.2 19.4 30H19Z" fill="#001A4A"/>
<path d="M14.2002 24.8C15.0002 24.5 15.9002 24.2 16.7002 24C17.5002 23.8 18.4002 23.6 19.2002 23.4C20.0002 23.2 20.9002 22.7 21.7002 23C22.1002 23.1 22.5002 23.3 23.0002 23.6C23.4002 23.9 23.8002 24.2 24.3002 24.8V25.2C23.9002 25.8 23.5002 26.1 23.0002 26.4C22.6002 26.7 22.2002 26.9 21.7002 27C20.9002 27.3 20.0002 26.8 19.2002 26.6C18.4002 26.4 17.5002 26.2 16.7002 26C15.9002 25.8 15.0002 25.5 14.2002 25.2V24.8Z" fill="#001A4A"/>
<path d="M41.2999 29.6C44.0061 29.6 46.1999 27.4062 46.1999 24.7001C46.1999 21.9939 44.0061 19.8 41.2999 19.8C38.5937 19.8 36.3999 21.9939 36.3999 24.7001C36.3999 27.4062 38.5937 29.6 41.2999 29.6Z" fill="#57c2b4"/>
<path d="M41.3001 29.4C42.5001 29.5 43.8001 28.9 44.4001 27.9C45.1001 26.9 45.2001 25.8 45.1001 24.8C44.9001 22.7 43.0001 21.3 41.2001 21.5C40.3001 21.6 39.6001 22.1 39.2001 22.7C38.8001 23.3 38.5001 24 38.4001 24.7C38.3001 25.4 38.2001 26.3 38.6001 27.4C39.0001 28.4 40.1001 29.3 41.3001 29.4ZM41.3001 29.8C40.0001 29.9 38.5001 29.7 37.1001 28.9C36.4001 28.5 35.8001 27.9 35.3001 27.2C34.8001 26.5 34.5001 25.6 34.5001 24.7C34.4001 22.9 35.2001 21 36.5001 19.9C37.9001 18.7 39.7001 18.2 41.3001 18.3C43.0001 18.4 44.6001 19.2 45.7001 20.4C46.8001 21.6 47.3001 23.2 47.2001 24.8C47.1001 26.3 46.2001 27.7 45.1001 28.5C43.9001 29.3 42.6001 29.7 41.3001 29.8Z" fill="#001A4A"/>
</svg>
