<svg width="60" height="60" viewBox="0 0 60 60" fill="none" xmlns="http://www.w3.org/2000/svg">
<path d="M18 10.3999C15.3 10.9999 11.7 10.5999 10.5 13.2999C10.2 13.8999 10.1 14.4999 10.1 15.1999L10 17.2999L9.9 21.6999C9.7 27.4999 9.8 33.2999 10 39.0999C10.1 41.9999 10.3 44.8999 10.5 47.7999L10.7 49.9999L10.8 51.0999C10.8 51.2999 10.8 51.4999 10.8 51.5999C10.8 51.6999 10.8 51.8999 10.9 51.9999C11.1 52.9999 12 53.7999 12.9 54.0999C13.2 54.1999 13.3 54.1999 13.7 54.1999L14.8 54.2999L17 54.3999C18.4 54.4999 19.9 54.4999 21.3 54.5999C24.2 54.6999 27.1 54.6999 30 54.6999C32.9 54.5999 35.8 54.4999 38.7 54.2999C40.1 54.1999 41.6 54.0999 43 53.9999L45.2 53.7999L46.3 53.6999C46.5 53.6999 46.6 53.6999 46.7 53.5999C46.8 53.5999 46.9 53.5999 47 53.4999C47.7 53.2999 48.3 52.5999 48.4 51.8999C48.4 51.7999 48.4 51.6999 48.4 51.5999C48.4 51.4999 48.4 51.2999 48.4 51.0999L48.5 49.9999L48.6 47.7999C48.8 44.8999 48.9 41.9999 49 39.0999C49.3 33.2999 49.4 27.4999 49.4 21.6999V17.2999V15.0999C49.4 14.6999 49.4 14.3999 49.4 14.1999C49.4 13.8999 49.3 13.5999 49.2 13.3999C48.8 12.2999 47.7 11.4999 46.4 11.1999C45 10.8999 43.5 10.5999 42.1 10.2999V9.8999C43.6 9.8999 45 9.9999 46.5 10.0999C48.1 10.0999 49.8 11.0999 50.7 12.5999C50.9 12.9999 51.1 13.3999 51.2 13.7999C51.3 14.1999 51.4 14.6999 51.4 14.9999L51.7 17.1999C51.9 18.6999 52 20.0999 52.2 21.5999C52.8 27.3999 53 33.2999 53 39.1999C53 42.0999 52.9 45.0999 52.7 47.9999L52.6 50.1999L52.5 51.2999C52.5 51.4999 52.5 51.5999 52.4 51.8999C52.4 52.1999 52.3 52.3999 52.3 52.6999C51.8 54.7999 50.1 56.5999 48.1 57.1999C47.8 57.2999 47.6 57.2999 47.3 57.3999C47 57.3999 46.7 57.4999 46.6 57.4999L45.5 57.5999L43.3 57.6999C41.8 57.7999 40.4 57.7999 38.9 57.7999C36 57.8999 33 57.8999 30.1 57.7999C27.2 57.6999 24.2 57.5999 21.3 57.3999C19.8 57.2999 18.4 57.1999 16.9 57.0999L14.7 56.8999L13.6 56.7999C13.2 56.7999 12.7 56.6999 12.2 56.4999C10.4 55.8999 8.9 54.2999 8.6 52.4999C8.5 52.2999 8.5 51.9999 8.5 51.7999C8.5 51.5999 8.5 51.3999 8.5 51.1999L8.4 50.0999L8.3 47.8999C8.1 44.9999 8.1 42.0999 8 39.1999C8 33.3999 8.2 27.4999 8.6 21.6999L8.9 17.2999L9.1 15.0999C9.1 14.3999 9.3 13.4999 9.7 12.7999C10.5 11.3999 12 10.4999 13.5 10.3999L17.8 9.9999L18 10.3999Z" fill="#001A4A"/>
<path d="M35.8003 3.19995H24.2003C20.7003 3.19995 17.8003 5.99995 17.8003 9.59995C17.8003 13.1 20.6003 16 24.2003 16H35.7003C39.2003 16 42.1003 13.2 42.1003 9.59995C42.1003 6.09995 39.3003 3.19995 35.8003 3.19995Z" fill="#57c2b4"/>
<path d="M35.8002 3.40007C33.2002 3.30007 30.6002 3.40007 27.9002 3.60007C26.6002 3.80007 25.2002 3.80007 24.0002 4.00007C23.4002 4.10007 22.9002 4.20007 22.4002 4.50007C21.9002 4.70007 21.4002 5.00007 21.0002 5.40007C19.3002 6.80007 18.7002 9.30007 19.6002 11.3001C20.3002 13.3001 22.4002 14.5001 24.4002 14.4001C27.0002 14.3001 29.6002 14.2001 32.3002 14.0001L34.3002 13.9001H36.2002C36.6002 13.9001 37.1002 13.8001 37.5002 13.7001C37.9002 13.6001 38.3002 13.4001 38.7002 13.1001C39.4002 12.6001 40.1002 11.9001 40.5002 11.0001C40.9002 10.1001 41.1002 9.00007 41.0002 7.90007C40.9002 6.80007 40.3002 5.70007 39.4002 4.90007C38.3002 4.00007 37.0002 3.50007 35.8002 3.40007ZM35.8002 3.00007C38.5002 2.90007 41.4002 4.40007 42.8002 7.10007C43.5002 8.50007 43.8002 10.1001 43.5002 11.8001C43.2002 13.4001 42.3002 15.0001 41.0002 16.1001C39.7002 17.2001 38.0002 17.9001 36.2002 18.0001C35.7002 18.0001 35.5002 18.0001 35.1002 18.0001H34.1002L32.1002 17.9001C29.5002 17.8001 26.9002 17.6001 24.2002 17.5001C22.6002 17.4001 20.9002 16.9001 19.7002 15.9001C18.4002 14.9001 17.4002 13.6001 17.0002 12.0001C16.5002 10.5001 16.6002 8.80007 17.0002 7.40007C17.5002 5.90007 18.4002 4.60007 19.7002 3.70007C20.9002 2.80007 22.4002 2.30007 23.9002 2.40007C25.3002 2.50007 26.5002 2.60007 27.9002 2.70007C30.5002 3.00007 33.1002 3.10007 35.8002 3.00007Z" fill="#001A4A"/>
<path d="M25.1001 24.8C26.5001 24.5 27.8001 24.3 29.2001 24C30.6001 23.8 31.9001 23.6 33.3001 23.4C34.7001 23.2 36.0001 22.7 37.4001 23C38.8001 23.3 40.1001 23.7 41.5001 24.8V25.2C40.1001 26.3 38.8001 26.7 37.4001 27C36.0001 27.3 34.7001 26.8 33.3001 26.6C31.9001 26.4 30.6001 26.2 29.2001 26C27.8001 25.7 26.5001 25.5 25.1001 25.2V24.8Z" fill="#001A4A"/>
<path d="M16.7998 24.8C17.0998 24.5 17.4998 24.2 17.7998 24C18.0998 23.8 18.4998 23.6 18.7998 23.4C19.0998 23.2 19.4998 22.7 19.7998 23C19.9998 23.1 20.0998 23.3 20.2998 23.6C20.4998 23.9 20.5998 24.2 20.7998 24.8V25.2C20.5998 25.8 20.4998 26.1 20.2998 26.4C20.0998 26.7 19.9998 26.9 19.7998 27C19.4998 27.3 19.0998 26.8 18.7998 26.6C18.4998 26.4 18.0998 26.2 17.7998 26C17.4998 25.8 17.0998 25.5 16.7998 25.2V24.8Z" fill="#001A4A"/>
<path d="M25.1001 35.8C26.5001 35.5 27.8001 35.3 29.2001 35C30.6001 34.8 31.9001 34.6001 33.3001 34.4001C34.7001 34.2001 36.0001 33.7 37.4001 34C38.8001 34.3 40.1001 34.7 41.5001 35.8V36.2C40.1001 37.3 38.8001 37.7 37.4001 38C36.0001 38.3 34.7001 37.8 33.3001 37.6C31.9001 37.4 30.6001 37.2 29.2001 37C27.8001 36.7 26.5001 36.5 25.1001 36.2V35.8Z" fill="#001A4A"/>
<path d="M16.7998 35.8C17.0998 35.5 17.4998 35.2 17.7998 35C18.0998 34.8 18.4998 34.6001 18.7998 34.4001C19.0998 34.2001 19.4998 33.7 19.7998 34C19.9998 34.1 20.0998 34.3 20.2998 34.6C20.4998 34.9 20.5998 35.2 20.7998 35.8V36.2C20.5998 36.8 20.4998 37.1001 20.2998 37.4001C20.0998 37.7001 19.9998 37.9 19.7998 38C19.4998 38.3 19.0998 37.8 18.7998 37.6C18.4998 37.4 18.0998 37.2 17.7998 37C17.4998 36.8 17.0998 36.5 16.7998 36.2V35.8Z" fill="#001A4A"/>
<path d="M25.1001 45.8C26.5001 45.5 27.8001 45.3 29.2001 45C30.6001 44.8 31.9001 44.6001 33.3001 44.4001C34.7001 44.2001 36.0001 43.7 37.4001 44C38.8001 44.3 40.1001 44.7 41.5001 45.8V46.2C40.1001 47.3 38.8001 47.7 37.4001 48C36.0001 48.3 34.7001 47.8 33.3001 47.6C31.9001 47.4 30.6001 47.2 29.2001 47C27.8001 46.7 26.5001 46.5 25.1001 46.2V45.8Z" fill="#001A4A"/>
<path d="M16.7998 45.8C17.0998 45.5 17.4998 45.2 17.7998 45C18.0998 44.8 18.4998 44.6001 18.7998 44.4001C19.0998 44.2001 19.4998 43.7 19.7998 44C19.9998 44.1 20.0998 44.3 20.2998 44.6C20.4998 44.9 20.5998 45.2 20.7998 45.8V46.2C20.5998 46.8 20.4998 47.1001 20.2998 47.4001C20.0998 47.7001 19.9998 47.9 19.7998 48C19.4998 48.3 19.0998 47.8 18.7998 47.6C18.4998 47.4 18.0998 47.2 17.7998 47C17.4998 46.8 17.0998 46.5 16.7998 46.2V45.8Z" fill="#001A4A"/>
</svg>
