<svg width="60" height="60" viewBox="0 0 60 60" fill="none" xmlns="http://www.w3.org/2000/svg">
<path d="M30.0003 13.9C23.3003 13.9 16.4003 13.9 10.6003 15C7.90029 15.5 5.90029 17.5 5.30029 20.2C4.30029 24.7 4.30029 28.9 4.30029 35.4C4.30029 41.8 4.30029 46 5.30029 50.6C5.90029 53.2 7.90029 55.3 10.6003 55.8C16.4003 56.9 23.4003 56.9 30.0003 56.9C36.6003 56.9 43.6003 56.9 49.4003 55.8C52.1003 55.3 54.1003 53.3 54.7003 50.6C55.7003 46.1 55.7003 41.9 55.7003 35.4C55.7003 29 55.7003 24.8 54.7003 20.2C54.1003 17.6 52.1003 15.5 49.4003 15C43.6003 13.9 36.7003 13.9 30.0003 13.9Z" fill="#57c2b4"/>
<path d="M30.0002 14.1C26.5002 14.1 22.9002 14.1 19.4002 14.3C17.6002 14.4 15.9002 14.6 14.1002 14.8C13.2002 14.9 12.4002 15.1 11.5002 15.2C10.6002 15.4 9.80018 15.5 9.10018 15.9C7.60018 16.7 6.50018 18.1 6.10018 19.6C5.70018 21.2 5.50018 23 5.40018 24.7C5.20018 28.2 5.30018 31.7 5.40018 35.3C5.50018 38.8 5.50018 42.4 5.80018 45.8C5.90018 46.7 6.00018 47.5 6.20018 48.4C6.30018 48.8 6.40018 49.2 6.40018 49.7L6.50018 50.3C6.60018 50.5 6.60018 50.7 6.70018 50.8C7.20018 52.2 8.20018 53.3 9.50018 53.9C10.2002 54.2 10.8002 54.3 11.7002 54.5C12.5002 54.6 13.4002 54.7 14.3002 54.8C16.0002 55 17.8002 55.1 19.5002 55.1C23.0002 55.2 26.5002 55.2 30.1002 55.1C33.6002 55 37.2002 55 40.7002 54.8C42.4002 54.7 44.2002 54.5 45.9002 54.3C46.8002 54.2 47.6002 54.1 48.4002 53.9C49.3002 53.7 49.8002 53.6 50.4002 53.3C51.5002 52.7 52.4002 51.7 52.7002 50.5C52.8002 50.4 52.8002 50.2 52.8002 50L52.9002 49.4C53.0002 49 53.0002 48.6 53.1002 48.2C53.2002 47.4 53.3002 46.5 53.4002 45.7C53.7002 42.3 53.7002 38.8 53.8002 35.3L53.9002 30C53.9002 28.3 53.9002 26.5 53.8002 24.8C53.7002 23.9 53.7002 23.1 53.6002 22.3C53.6002 21.9 53.5002 21.5 53.4002 21L53.3002 20.4C53.3002 20.2 53.2002 20.1 53.2002 19.9C52.9002 18.5 51.9002 17.3 50.6002 16.5C49.9002 16.1 49.3002 15.9 48.4002 15.7C47.6002 15.5 46.7002 15.3 45.8002 15.2C44.1002 14.9 42.3002 14.7 40.6002 14.5C37.1002 14.3 33.5002 14.2 30.0002 14.1ZM30.0002 13.7C33.5002 13.6 37.1002 13.6 40.7002 13.6C42.5002 13.6 44.3002 13.6 46.1002 13.7C47.0002 13.8 47.9002 13.8 48.8002 13.9C49.7002 14 50.7002 14.1 51.7002 14.6C53.6002 15.4 55.2002 17 55.9002 19C56.0002 19.2 56.1002 19.5 56.2002 19.8L56.4002 20.5C56.5002 20.9 56.6002 21.4 56.7002 21.8C56.9002 22.7 57.1002 23.6 57.2002 24.5C57.7002 28.2 57.8002 31.7 57.8002 35.3C57.8002 38.8 57.9002 42.4 57.6002 46.1C57.5002 47 57.4002 47.9 57.2002 48.9C57.1002 49.4 57.0002 49.8 56.9002 50.3L56.7002 51C56.6002 51.3 56.6002 51.6 56.5002 51.8C55.8002 54 54.1002 55.8 52.0002 56.8C51.0002 57.3 49.7002 57.5 48.9002 57.6C48.0002 57.7 47.1002 57.8 46.2002 57.9C44.4002 58.1 42.6002 58.2 40.8002 58.2C37.2002 58.3 33.6002 58.3 30.1002 58.2C26.6002 58.1 23.0002 58.1 19.4002 57.9C17.6002 57.8 15.8002 57.6 14.0002 57.4C13.1002 57.3 12.2002 57.1 11.3002 57C10.5002 56.9 9.30018 56.6 8.40018 56.1C6.50018 55.1 5.00018 53.4 4.40018 51.4C4.30018 51.2 4.30018 50.9 4.20018 50.6L4.00018 50.2C3.90018 49.8 3.80018 49.3 3.80018 48.8C3.70018 47.9 3.60018 47 3.50018 46.1C3.20018 42.5 3.30018 38.9 3.30018 35.4C3.40018 31.9 3.40018 28.3 3.90018 24.7C4.00018 23.8 4.10018 22.9 4.30018 22C4.50018 21.1 4.60018 20.3 5.00018 19.3C5.60018 17.5 7.00018 16 8.70018 15.2C9.50018 14.8 10.5002 14.6 11.4002 14.5C12.3002 14.4 13.2002 14.3 14.1002 14.2C15.9002 14 17.7002 14 19.4002 13.9C22.9002 13.8 26.5002 13.8 30.0002 13.7Z" fill="#001A4A"/>
<path d="M19.0999 14.1L18.8999 11.9C18.8999 11.1 18.8999 10.3 18.9999 9.50002C19.2999 7.90002 19.9999 6.40002 21.0999 5.10002C22.1999 3.80002 23.5999 2.80002 25.2999 2.30002C25.9999 2.00002 26.8999 1.80002 27.6999 1.80002L29.9999 1.60002L32.2999 1.40002C33.1999 1.40002 34.0999 1.40002 34.9999 1.60002C36.7999 2.00002 38.4999 3.00002 39.6999 4.40002C40.8999 5.80002 41.6999 7.50002 41.7999 9.30002C41.8999 10.2 41.7999 11.1 41.5999 11.9C41.3999 12.6 41.1999 13.4 40.8999 14.1H40.4999C40.1999 13.4 39.9999 12.6 39.7999 11.9C39.5999 11.2 39.3999 10.6 39.0999 10C38.4999 8.90002 37.6999 7.90002 36.8999 7.20002C35.9999 6.50002 35.0999 5.90002 33.9999 5.50002C33.4999 5.30002 32.8999 5.10002 32.2999 5.00002C31.5999 4.90002 30.7999 4.90002 30.0999 4.80002L27.8999 4.70002C27.2999 4.70002 26.5999 4.70002 25.9999 4.80002C24.7999 5.00002 23.5999 5.60002 22.4999 6.50002C21.4999 7.40002 20.6999 8.50002 20.1999 9.80002C19.8999 10.5 19.7999 11.1 19.6999 11.9L19.4999 14.1H19.0999Z" fill="#001A4A"/>
<path d="M30.1998 26.8C30.4998 28.2 30.6998 29.7 30.9998 31.1C31.1998 32.5001 31.3998 34.0001 31.5998 35.4001C31.7998 36.8001 32.2998 38.3001 31.9998 39.7001C31.6998 41.1 31.2998 42.6 30.1998 44H29.7998C28.6998 42.6 28.2998 41.1 27.9998 39.7001C27.6998 38.3001 28.1998 36.8001 28.3998 35.4001C28.5998 34.0001 28.7998 32.5001 28.9998 31.1C29.2998 29.7 29.4998 28.2 29.7998 26.8H30.1998Z" fill="#001A4A"/>
<path d="M21.3999 35.2C22.7999 34.9 24.2999 34.7 25.6999 34.4C27.0999 34.2 28.5999 33.9999 29.9999 33.7999C31.3999 33.5999 32.8999 33.1 34.2999 33.4C35.6999 33.7 37.1999 34.1 38.5999 35.2V35.5999C37.1999 36.6999 35.6999 37.1 34.2999 37.4C32.8999 37.7 31.3999 37.2 29.9999 37C28.5999 36.8 27.0999 36.6 25.6999 36.4C24.2999 36.1 22.7999 35.8999 21.3999 35.5999V35.2Z" fill="#001A4A"/>
</svg>
