<svg width="60" height="60" viewBox="0 0 60 60" fill="none" xmlns="http://www.w3.org/2000/svg">
<path d="M29.9999 4C23.0999 4 15.7999 4 9.7999 5.1C7.1999 5.6 5.0999 7.7 4.3999 10.3C3.3999 14.3 3.3999 17.3 3.3999 23.9C3.3999 30.5 3.3999 33.5 4.3999 37.5C4.9999 40.1 7.0999 42.2 9.7999 42.7C15.7999 43.9 23.0999 43.9 29.9999 43.9C36.8999 43.9 44.1999 43.9 50.1999 42.7C52.7999 42.2 54.8999 40.1 55.5999 37.5C56.0999 35.5 56.2999 33.8 56.4999 31.7" fill="#57c2b4"/>
<path d="M30 4.20006C25.1 4.30006 20.2 4.50006 15.4 5.00006C14.2 5.10006 13 5.30006 11.8 5.50006C11.2 5.60006 10.6 5.70006 9.99996 5.80006C9.39996 6.00006 8.89996 6.20006 8.49996 6.40006C7.49996 6.90006 6.69996 7.70006 6.19996 8.60006C5.59996 9.50006 5.39996 10.5001 5.19996 11.7001C4.79996 14.0001 4.69996 16.4001 4.69996 18.8001C4.69996 21.2001 4.79996 23.7001 4.79996 26.1001C4.89996 28.5001 4.89996 31.0001 5.19996 33.3001C5.39996 34.5001 5.59996 35.6001 5.89996 36.7001C5.89996 37.1001 5.99996 37.3001 5.99996 37.6001C6.09996 37.8001 6.19996 38.0001 6.29996 38.3001C6.49996 38.7001 6.79996 39.1001 7.09996 39.5001C7.69996 40.2001 8.59996 40.7001 9.39996 41.0001C9.59996 41.1001 9.79996 41.1001 10.1 41.2001L11 41.3001C11.6 41.4001 12.2 41.5001 12.8 41.5001C15.2 41.7001 17.6 41.8001 20 41.9001C24.8 42.0001 29.7 41.9001 34.6 42.0001C37 42.1001 39.5 42.1001 41.9 42.0001C44.3 42.0001 46.7 41.8001 49.1 41.6001L50 41.5001C50.3 41.5001 50.5 41.4001 50.7 41.4001C51.2 41.3001 51.6 41.1001 52.1 40.9001C53 40.4001 53.8 39.7001 54.3 38.7001C54.6 38.2001 54.8 37.8001 55 37.2001C55.2 36.6001 55.4 36.1001 55.5 35.5001C55.8 34.3001 56.1 33.1001 56.3 31.9001H56.7C56.8 33.1001 56.8 34.4001 56.7 35.6001C56.7 36.2001 56.6 36.9001 56.5 37.5001C56.4 38.1001 56.3 38.8001 56 39.5001C55.5 40.8001 54.6 41.9001 53.4 42.8001C52.8 43.2001 52.2 43.6001 51.5 43.9001C51.2 44.0001 50.8 44.1001 50.5 44.2001L49.6 44.4001C44.7 45.5001 39.7 45.8001 34.7 46.0001C29.8 46.1001 24.9 46.2001 19.9 45.9001C17.4 45.7001 14.9 45.5001 12.4 45.1001C11.8 45.0001 11.2 44.9001 10.5 44.8001L9.59996 44.6001C9.19996 44.5001 8.89996 44.4001 8.49996 44.3001C7.09996 43.8001 5.79996 42.9001 4.79996 41.7001C4.29996 41.1001 3.89996 40.5001 3.59996 39.8001C3.29996 39.1001 3.09996 38.3001 2.89996 37.7001C2.59996 36.4001 2.39996 35.2001 2.29996 33.9001C2.09996 31.3001 2.09996 28.9001 2.19996 26.4001C2.29996 23.9001 2.29996 21.5001 2.39996 19.0001C2.49996 16.5001 2.69996 14.0001 3.29996 11.5001C3.39996 10.9001 3.59996 10.3001 3.79996 9.60006C3.99996 8.90006 4.39996 8.30006 4.69996 7.80006C5.39996 6.50006 6.49996 5.60006 7.79996 5.00006C8.39996 4.70006 9.09996 4.50006 9.79996 4.40006C10.4 4.30006 11 4.20006 11.6 4.10006C12.8 4.00006 14 3.90006 15.3 3.80006C20.2 3.50006 25.1 3.60006 30 3.80006V4.20006Z" fill="#001A4A"/>
<path d="M34.6002 18.4C34.9002 19.1 35.2002 19.8 35.4002 20.5C35.6002 21.2 35.8002 21.9 36.0002 22.6C36.2002 23.3 36.7002 24 36.4002 24.7C36.3002 25 36.1002 25.4 35.8002 25.7C35.5002 26 35.2002 26.4 34.6002 26.7H34.2002C33.6002 26.4 33.3002 26 33.0002 25.7C32.7002 25.4 32.5002 25 32.4002 24.7C32.1002 24 32.6002 23.3 32.8002 22.6C33.0002 21.9 33.2002 21.2 33.4002 20.5C33.6002 19.8 33.9002 19.1 34.2002 18.4H34.6002Z" fill="#001A4A"/>
<path d="M44.2999 12.4C44.5999 13.6 44.8999 14.9 45.0999 16.1C45.2999 17.3 45.4999 18.6 45.6999 19.8C45.8999 21 46.3999 22.3 46.0999 23.5C45.9999 24.1 45.7999 24.7 45.4999 25.3C45.1999 25.9 44.8999 26.5 44.2999 27.1H43.8999C43.2999 26.5 42.9999 25.9 42.6999 25.3C42.3999 24.7 42.1999 24.1 42.0999 23.5C41.7999 22.3 42.2999 21 42.4999 19.8C42.6999 18.6 42.8999 17.3 43.0999 16.1C43.2999 14.9 43.5999 13.6 43.8999 12.4H44.2999Z" fill="#001A4A"/>
<path d="M54.0001 17.9C54.3001 18.7 54.6001 19.4 54.8001 20.2C55.0001 21 55.2001 21.7 55.4001 22.5C55.6001 23.3 56.1001 24 55.8001 24.8C55.7001 25.2 55.5001 25.6 55.2001 25.9C54.9001 26.3 54.6001 26.7 54.0001 27H53.6001C53.0001 26.6 52.7001 26.2 52.4001 25.9C52.1001 25.5 51.9001 25.1 51.8001 24.8C51.5001 24 52.0001 23.3 52.2001 22.5C52.4001 21.7 52.6001 21 52.8001 20.2C53.0001 19.4 53.3001 18.7 53.6001 17.9H54.0001Z" fill="#001A4A"/>
<path d="M18.8999 55.8C20.7999 55.5 22.5999 55.3 24.4999 55C26.3999 54.8 28.1999 54.6001 30.0999 54.4001C31.9999 54.2001 33.7999 53.7 35.6999 54C37.5999 54.3 39.3999 54.7 41.2999 55.8V56.2C39.3999 57.3 37.5999 57.7 35.6999 58C33.7999 58.3 31.9999 57.8 30.0999 57.6C28.1999 57.4 26.3999 57.2 24.4999 57C22.5999 56.7 20.7999 56.5 18.8999 56.2V55.8Z" fill="#001A4A"/>
<path d="M30.1998 43.8C30.4998 44.8 30.7998 45.8 30.9998 46.8C31.1998 47.8 31.3998 48.8 31.5998 49.8C31.7998 50.8 32.2998 51.8 31.9998 52.8C31.8998 53.3 31.6998 53.8 31.3998 54.3C31.0998 54.8 30.7998 55.3 30.1998 55.8H29.7998C29.1998 55.3 28.8998 54.8 28.5998 54.3C28.2998 53.8 28.0998 53.3 27.9998 52.8C27.6998 51.8 28.1998 50.8 28.3998 49.8C28.5998 48.8 28.7998 47.8 28.9998 46.8C29.1998 45.8 29.4998 44.8 29.7998 43.8H30.1998Z" fill="#001A4A"/>
<path d="M32.8999 15.8C34.5999 14.4 36.3999 13 38.0999 11.6C38.9999 10.9 39.8999 10.2 40.6999 9.49998C41.5999 8.79998 42.4999 8.09998 43.3999 7.49998L43.9999 7.09998L44.7999 7.39998C46.2999 7.89998 47.8999 8.39998 49.4999 8.89998C50.2999 9.09998 51.0999 9.39998 51.7999 9.69998C52.5999 9.99998 53.2999 10.4 53.9999 10.8L51.7999 11.3C52.5999 10.6 53.4999 9.79998 54.4999 9.19998C54.9999 8.89998 55.4999 8.59998 55.9999 8.29998C56.4999 7.99998 56.9999 7.69998 57.5999 7.49998L57.8999 7.79998C57.6999 8.39998 57.4999 8.89998 57.2999 9.49998C57.0999 9.99998 56.7999 10.6 56.4999 11.1C55.9999 12.1 55.2999 13.1 54.6999 14L53.9999 14.7L52.4999 14.3C51.6999 14.1 50.8999 13.8 50.1999 13.5C49.3999 13.2 48.6999 12.8 47.9999 12.4C46.5999 11.6 45.0999 10.8 43.6999 10.1L45.0999 9.99998C44.0999 10.5 43.0999 11.1 42.0999 11.6C41.0999 12.1 40.0999 12.7 39.0999 13.2C37.0999 14.2 35.0999 15.3 33.0999 16.2L32.8999 15.8Z" fill="#001A4A"/>
</svg>
