<svg width="60" height="60" viewBox="0 0 60 60" fill="none" xmlns="http://www.w3.org/2000/svg">
<g clip-path="url(#clip0_3389_21946)">
<rect width="60" height="60" rx="10" fill="white"/>
<path d="M30.1997 1.90001C30.4997 3.60001 30.7997 5.30001 31.0997 7.00001L31.4997 9.60001L31.7997 12.2C31.8997 13.1 32.0997 13.9 32.1997 14.8C32.2997 15.7 32.2997 16.5 32.1997 17.4C31.8997 19.1 31.4997 20.8 30.2997 22.5C30.1997 22.6 30.0997 22.6 29.8997 22.6C29.8997 22.6 29.8997 22.6 29.7997 22.5C28.5997 20.8 28.0997 19.1 27.8997 17.4C27.7997 16.5 27.7997 15.7 27.8997 14.8C27.9997 13.9 28.1997 13.1 28.2997 12.2L28.5997 9.60001L28.9997 7.00001C29.2997 5.30001 29.4997 3.60001 29.8997 1.90001C29.8997 1.80001 29.9997 1.70001 30.1997 1.70001C30.0997 1.80001 30.1997 1.80001 30.1997 1.90001Z" fill="#001A4A"/>
<path d="M49.9998 10.3C48.9998 11.8 47.8998 13.2 46.8998 14.6L45.2998 16.7L43.5998 18.8C42.9998 19.5 42.4998 20.2 41.9998 20.9C41.4998 21.6 40.8998 22.2 40.1998 22.8C38.7998 23.8 37.1998 24.7 35.0998 25.1C34.9998 25.1 34.7998 25 34.7998 24.9V24.8C35.1998 22.7 36.0998 21.2 37.0998 19.7C37.5998 19 38.2998 18.4 38.9998 17.9C39.6998 17.4 40.4998 16.9 41.0998 16.3L43.1998 14.6L45.2998 13C46.6998 11.9 48.0998 10.9 49.5998 9.9C49.6998 9.8 49.7998 9.9 49.8998 10C50.0998 10.1 50.0998 10.2 49.9998 10.3Z" fill="#001A4A"/>
<path d="M58.1 30.2C56.3 30.5 54.6 30.8 52.8 31.1L50.2 31.5L47.6 31.8C46.7 31.9 45.8 32.1 45 32.2C44.1 32.3 43.2 32.3 42.4 32.2C40.6 31.9 38.9 31.5 37.1 30.3C37 30.2 37 30.1 37 29.9C37 29.9 37 29.8 37.1 29.8C38.9 28.6 40.6 28.1 42.4 27.9C43.3 27.8 44.2 27.8 45 27.9C45.9 28 46.8 28.2 47.6 28.3L50.2 28.6L52.8 29C54.6 29.3 56.3 29.5 58.1 29.9C58.2 29.9 58.3 30 58.3 30.2C58.3 30.2 58.2 30.2 58.1 30.2Z" fill="#001A4A"/>
<path d="M49.6998 50.1C48.1998 49.1 46.7998 48 45.3998 47L43.2998 45.4L41.1998 43.7C40.4998 43.1 39.7998 42.6 39.0998 42.1C38.3998 41.6 37.7998 41 37.1998 40.3C36.1998 38.9 35.1998 37.3 34.7998 35.2C34.7998 35.1 34.8998 34.9 34.9998 34.9H35.0998C37.1998 35.3 38.6998 36.2 40.1998 37.3C40.8998 37.8 41.4998 38.5 41.9998 39.2C42.4998 39.9 42.9998 40.7 43.5998 41.3L45.2998 43.4L46.8998 45.5C47.9998 46.9 48.9998 48.3 49.9998 49.8C50.0998 49.9 49.9998 50 49.8998 50.1C49.8998 50.1 49.7998 50.1 49.6998 50.1Z" fill="#001A4A"/>
<path d="M29.7996 58.2C29.4996 56.4 29.1996 54.7 28.8996 52.9L28.4996 50.3L28.1996 47.7C28.0996 46.8 27.8996 45.9 27.7996 45.1C27.6996 44.2 27.6996 43.3 27.7996 42.5C28.0996 40.7 28.4996 39 29.6996 37.2C29.7996 37.1 29.8996 37.1 30.0996 37.1C30.0996 37.1 30.1996 37.1 30.1996 37.2C31.3996 39 31.8996 40.7 32.0996 42.5C32.1996 43.4 32.1996 44.3 32.0996 45.1C31.9996 46 31.7996 46.9 31.6996 47.7L31.3996 50.3L30.9996 52.9C30.6996 54.7 30.4996 56.4 30.0996 58.2C30.0996 58.3 29.9996 58.4 29.7996 58.4C29.8996 58.3 29.7996 58.2 29.7996 58.2Z" fill="#001A4A"/>
<path d="M9.9999 49.8C10.9999 48.3 12.0999 46.9 13.0999 45.5L14.6999 43.4L16.3999 41.3C16.9999 40.6 17.4999 39.9 17.9999 39.1C18.4999 38.4 19.0999 37.8 19.7999 37.2C21.1999 36.2 22.7999 35.2 24.8999 34.8C24.9999 34.8 25.1999 34.9 25.1999 35V35.1C24.7999 37.2 23.8999 38.8 22.7999 40.2C22.2999 40.9 21.5999 41.5 20.8999 42C20.1999 42.5 19.3999 43 18.6999 43.6L16.5999 45.3L14.4999 46.9C13.0999 48 11.5999 49 10.1999 50C10.0999 50.1 9.9999 50 9.8999 49.9C9.8999 49.9 9.8999 49.8 9.9999 49.8Z" fill="#001A4A"/>
<path d="M1.9998 29.8C3.7998 29.5 5.4998 29.2 7.2998 28.9L9.8998 28.5L12.4998 28.2C13.3998 28.1 14.2998 27.9 15.0998 27.8C15.9998 27.7 16.8998 27.7 17.6998 27.8C19.4998 28.1 21.1998 28.5 22.9998 29.7C23.0998 29.8 23.0998 29.9 23.0998 30.1C23.0998 30.1 23.0998 30.2 22.9998 30.2C21.1998 31.4 19.4998 31.9 17.6998 32.1C16.7998 32.2 15.8998 32.2 15.0998 32.1C14.1998 32 13.2998 31.8 12.4998 31.7L9.8998 31.4L7.2998 31C5.4998 30.7 3.7998 30.5 1.9998 30.1C1.8998 30.1 1.7998 30 1.7998 29.8C1.7998 29.9 1.8998 29.8 1.9998 29.8Z" fill="#001A4A"/>
<path d="M10.2999 9.99999C11.7999 11 13.1999 12.1 14.5999 13.1L16.6999 14.7L18.7999 16.4C19.4999 17 20.1999 17.5 20.8999 18C21.5999 18.5 22.1999 19.1 22.7999 19.8C23.7999 21.2 24.6999 22.8 25.0999 24.9C25.0999 25 24.9999 25.2 24.8999 25.2H24.7999C22.6999 24.8 21.1999 23.9 19.6999 22.9C18.9999 22.4 18.3999 21.7 17.8999 21C17.3999 20.3 16.8999 19.5 16.2999 18.9L14.5999 16.8L12.9999 14.7C11.9999 13.2 10.9999 11.8 9.99992 10.3C9.89992 10.2 9.99992 10.1 10.0999 9.99999C10.0999 9.89999 10.1999 9.89999 10.2999 9.99999Z" fill="#001A4A"/>
<path d="M9.59975 30C9.49975 35.4 11.7997 40.7 15.6997 44.3C19.5997 47.9 24.8997 49.7 29.9997 49.6C35.0997 49.5 40.0997 47.3 43.5997 43.6C47.0997 40 48.9997 35 48.8997 30C48.7997 27.5 48.2997 25.1 47.2997 22.8C46.2997 20.6 44.7997 18.5 43.0997 16.9C39.5997 13.6 34.8997 11.6 29.9997 11.5C25.1997 11.4 20.1997 12.9 16.1997 16.2C14.1997 17.8 12.5997 19.9 11.3997 22.3C10.2997 24.7 9.59975 27.4 9.59975 30ZM9.19975 30C9.09975 24.6 10.8997 19 14.5997 14.6C16.3997 12.4 18.7997 10.6 21.3997 9.3C23.9997 8 26.9997 7.29999 29.9997 7.19999C35.9997 6.99999 41.9997 9.49999 46.0997 13.9C50.1997 18.2 52.4997 24.1 52.3997 30C52.2997 35.9 49.7997 41.6 45.5997 45.6C41.4997 49.6 35.6997 51.9 29.9997 51.7C24.2997 51.6 18.7997 49 15.0997 44.9C11.2997 40.9 9.19975 35.5 9.19975 30Z" fill="#001A4A"/>
<path d="M23 30C23 31.9 23.7 33.6 25.1 34.9C26.4 36.2 28.2 37 30 37C31.8 37 33.6 36.3 34.9 34.9C36.2 33.6 37 31.8 37 30C37 28.2 36.3 26.4 34.9 25.1C33.6 23.7 31.9 23 30 23C28.1 23 26.4 23.7 25.1 25.1C23.7 26.4 23 28.1 23 30Z" fill="#57c2b4"/>
<path d="M23.1999 30C23.0999 31.8 23.9999 33.6 25.3999 34.6C26.7999 35.7 28.4999 36 29.9999 35.9C31.5999 35.8 32.9999 35 33.8999 33.9C34.8999 32.8 35.2999 31.3 35.1999 30C35.0999 28.6 34.3999 27.3 33.3999 26.6C32.3999 25.8 31.1999 25.3 29.9999 25.2C28.6999 25.1 27.2999 25.2 25.8999 25.9C24.3999 26.6 23.2999 28.2 23.1999 30ZM22.7999 30C22.6999 28.1 23.0999 26.1 24.2999 24.2C24.8999 23.3 25.6999 22.5 26.6999 21.8C27.6999 21.2 28.8999 20.8 30.0999 20.8C32.4999 20.7 34.9999 21.7 36.5999 23.5C38.1999 25.3 38.9999 27.7 38.8999 30C38.7999 32.3 37.7999 34.5 36.0999 36C34.4999 37.5 32.2999 38.2 30.0999 38.1C27.9999 38 25.9999 36.8 24.7999 35.3C23.4999 33.7 22.8999 31.9 22.7999 30Z" fill="#001A4A"/>
</g>
<defs>
<clipPath id="clip0_3389_21946">
<rect width="60" height="60" fill="white"/>
</clipPath>
</defs>
</svg>
