<svg width="60" height="60" viewBox="0 0 60 60" fill="none" xmlns="http://www.w3.org/2000/svg">
<path d="M5.30004 50.8999C5.50004 52.7999 7.10004 54.4999 9.10004 54.6999L15.1 55.3999C19.1 55.7999 23.1 56.0999 27.1 56.1999C35.1 56.2999 43 54.9999 50.9 53.8999C52.5 53.7999 53.8 52.3999 53.9 50.8999L54.5 44.8999C54.9 40.8999 55.2 36.9999 55.3 32.9999C55.5 25.0999 54.4 17.1999 53.4 9.19994C53.3 7.89994 52.1 6.89994 50.9 6.79994L44.9 6.19994C40.9 5.79994 37 5.49994 33 5.39994C25.1 5.19994 17.3 6.39994 9.30004 7.09994C8.10004 7.09994 7.10004 7.99994 6.90004 9.19994L6.00004 15.0999C5.40004 19.0999 4.90004 22.9999 4.50004 26.9999C4.20004 30.9999 4.10004 34.8999 4.30004 38.8999C4.50004 42.8999 4.90004 46.8999 5.30004 50.8999ZM4.90004 50.9999L3.30004 38.9999C2.80004 34.9999 2.40004 30.9999 2.40004 26.8999C2.30004 22.7999 2.50004 18.7999 2.80004 14.7999L3.30004 8.79994C3.40004 7.39994 4.00004 5.99994 5.00004 4.99994C6.00004 3.99994 7.40004 3.29994 8.80004 3.19994C12.8 2.69994 16.7 2.19994 20.8 1.79994C24.8 1.49994 29 1.29994 33.1 1.49994C37.2 1.69994 41.2 2.19994 45.2 2.69994L51.2 3.49994C52.6 3.69994 53.9 4.29994 54.8 5.29994C55.8 6.29994 56.4 7.59994 56.5 8.99994C57.3 16.8999 58.2 24.9999 57.8 33.1999C57.6 37.2999 57.2 41.2999 56.7 45.2999L56 51.2999C55.8 52.4999 55.2 53.6999 54.3 54.5999C53.4 55.4999 52.2 55.9999 51 56.0999C47 56.4999 43 56.8999 39 57.0999C35 57.1999 31 57.1999 27 56.9999C23 56.7999 19 56.2999 15 55.7999L9.00004 54.9999C6.90004 54.8999 5.10004 53.0999 4.90004 50.9999Z" fill="#001A4A"/>
<path d="M55.9001 18.2C55.7001 16.3 55.5001 14.4 55.3001 12.5C55.2001 11.4 55.0001 10.2 54.9001 9.10002C54.7001 7.00002 53.1001 5.40002 51.0001 5.10002C49.7001 5.00002 48.5001 4.80002 47.2001 4.70002C41.7001 4.10002 35.9001 3.40002 30.0001 3.40002C24.1001 3.40002 18.3001 4.10002 12.8001 4.70002C11.5001 4.90002 10.2001 5.00002 9.0001 5.10002C6.9001 5.40002 5.3001 7.00002 5.1001 9.10002C5.0001 10.2 4.9001 11.4 4.7001 12.5C4.5001 14.4 4.3001 16.3 4.1001 18.2H55.9001Z" fill="#57c2b4"/>
<path d="M55.8 18C55.3 15 54.9 12.2 54.5 9.20005C54.3 7.80005 53.5 6.60005 52.3 6.10005C51.7 5.80005 51.1 5.80005 50.3 5.70005L48 5.50005C42 4.90005 36 4.40005 30 4.50005C24 4.60005 18.1 5.40005 12.1 6.20005L9.9 6.50005C9 6.60005 8.7 6.70005 8.2 7.00005C7.3 7.40005 6.7 8.30005 6.7 9.30005L5.9 18.3L4.1 16.3C8.3 16.2 12.5 16.1 16.7 16.1C20.9 16.1 25.1 16.3 29.3 16.5C33.5 16.7 37.9 16.9 42.3 17.2L55.8 18ZM56.1 18.3C52.1 18.6 48 18.9 43.7 19.2C39.5 19.5 35.1 19.7 30.7 19.9C26.3 20.1 21.9 20.2 17.4 20.3C12.9 20.3 8.5 20.2 4 20.1L2 19.9L2.3 17.9L3.5 8.90005C3.6 7.00005 5 5.00005 6.8 4.20005C7.3 4.00005 7.8 3.80005 8.3 3.70005C8.9 3.60005 9.2 3.60005 9.6 3.60005L11.8 3.40005C17.8 2.80005 23.9 2.20005 30 2.30005C36.1 2.40005 42.2 3.30005 48.1 4.10005L50.3 4.40005C50.7 4.50005 51 4.50005 51.5 4.60005C51.9 4.70005 52.3 4.80005 52.7 5.00005C54.2 5.80005 55.3 7.40005 55.3 9.00005L55.7 13.6L56.1 18.3Z" fill="#001A4A"/>
<path d="M22.3999 37.4C22.3999 38.9 22.5999 40.9 22.8999 42.7C23.1999 45.1 25.5999 46.7 27.8999 45.9C31.8999 44.5 35.4999 42.5 38.1999 39.6C39.3999 38.3 39.3999 36.4 38.1999 35.1C35.4999 32.2 31.7999 30.2 27.8999 28.8C25.5999 28 23.1999 29.5 22.8999 32C22.5999 33.8 22.3999 35.9 22.3999 37.4Z" fill="#57c2b4"/>
<path d="M22.6001 37.4C22.6001 38.5 22.7001 39.6 22.8001 40.7C23.0001 41.8 23.1001 43 23.6001 43.8C24.1001 44.6 25.1001 45.2 25.9001 45.3C26.3001 45.4 26.8001 45.3 27.2001 45.2L27.5001 45.1L27.9001 44.9L28.6001 44.6C30.6001 43.7 32.5001 42.6 34.1001 41.4C34.9001 40.8 35.7001 40.1 36.4001 39.3C36.6001 39.1 36.7001 38.9 36.9001 38.7C37.0001 38.5 37.1001 38.4 37.2001 38.3C37.3001 38 37.4001 37.7 37.4001 37.5C37.4001 37.2 37.3001 37 37.1001 36.7C37.0001 36.6 36.9001 36.5 36.8001 36.4C36.6001 36.2 36.4001 36.1 36.2001 35.9C35.4001 35.2 34.6001 34.7 33.7001 34.1C32.0001 33 30.1001 32.1 28.2001 31.3L27.5001 31L27.1001 30.8C27.0001 30.8 27.0001 30.7 26.9001 30.7C26.6001 30.6 26.4001 30.5 26.0001 30.5C25.4001 30.5 24.6001 30.7 24.0001 31.4C23.7001 31.7 23.5001 32.1 23.3001 32.6C23.1001 33.1 23.0001 33.7 22.8001 34.2C22.8001 35.2 22.6001 36.3 22.6001 37.4ZM22.2001 37.4L22.1001 34V32.3C22.1001 32 22.1001 31.7 22.1001 31.3C22.1001 31 22.2001 30.6 22.3001 30.3C22.7001 28.9 23.9001 27.7 25.4001 27.2C26.2001 26.9 27.0001 26.9 27.9001 27L28.5001 27.1L28.9001 27.2L29.7001 27.5C31.9001 28.2 34.1001 29.3 36.0001 30.8C37.0001 31.5 37.9001 32.4 38.7001 33.3C38.9001 33.5 39.1001 33.8 39.3001 34C39.5001 34.3 39.8001 34.7 40.0001 35C40.4001 35.8 40.6001 36.6 40.6001 37.4C40.6001 38.2 40.3001 39.1 39.9001 39.8C39.7001 40.1 39.4001 40.5 39.2001 40.7C39.0001 40.9 38.8001 41.1 38.5001 41.3C37.6001 42.1 36.6001 42.8 35.6001 43.5C33.6001 44.8 31.4001 45.7 29.3001 46.4L28.5001 46.7L28.1001 46.8L27.6001 46.9C26.9001 47 26.2001 47 25.6001 46.8C24.3001 46.4 23.3001 45.4 22.8001 44.3C22.6001 43.7 22.5001 43.1 22.4001 42.5L22.3001 40.8C22.3001 39.6 22.2001 38.5 22.2001 37.4Z" fill="#001A4A"/>
<path d="M23.2999 3.7C23.2999 5 23.1999 6.3 23.0999 7.5C22.9999 8.8 22.8999 10 22.6999 11.3C22.4999 12.6 22.6999 13.9 22.0999 15C21.4999 16.1 20.7999 17.2 19.3999 18.1L18.9999 18C18.2999 16.5 18.1999 15.2 18.2999 13.9C18.2999 12.6 19.1999 11.5 19.6999 10.4C20.1999 9.2 20.6999 8.1 21.2999 6.9C21.8999 5.8 22.3999 4.6 23.0999 3.5L23.2999 3.7Z" fill="#001A4A"/>
<path d="M40.8998 4C40.8998 5.3 40.7998 6.5 40.6998 7.8C40.5998 9 40.4998 10.3 40.2998 11.5C40.0998 12.7 40.2998 14 39.6998 15.1C39.3998 15.7 39.0998 16.2 38.5998 16.7C38.1998 17.2 37.6998 17.7 36.9998 18.2L36.5998 18.1C36.1998 17.4 35.9998 16.7 35.8998 16C35.7998 15.3 35.7998 14.7 35.7998 14.1C35.7998 12.8 36.6998 11.8 37.1998 10.7C37.6998 9.6 38.1998 8.4 38.6998 7.3C39.2998 6.2 39.7998 5.1 40.3998 4H40.8998Z" fill="#001A4A"/>
</svg>
