<svg width="60" height="60" viewBox="0 0 60 60" fill="none" xmlns="http://www.w3.org/2000/svg">
<g clip-path="url(#clip0_3389_22042)">
<rect width="60" height="60" rx="10" fill="white"/>
<path d="M5.6001 52.2L3.6001 52.3H3.1001C2.9001 52.3 2.7001 52.3 2.5001 52.2C2.1001 52.1 1.8001 51.8 1.6001 51.4C1.5001 51.2 1.5001 51 1.5001 50.8V50.3V49.3L1.4001 47.3L1.2001 39.4C1.2001 38.1 1.1001 36.8 1.1001 35.4C1.1001 34 1.2001 32.7 1.4001 31.3C1.8001 28.6 2.5001 26 3.6001 23.5C5.8001 18.5 9.6001 14.2 14.2001 11.1C18.9001 8.10001 24.4001 6.40001 30.0001 6.30001C35.6001 6.20001 41.2001 7.60001 46.1001 10.5C51.0001 13.4 55.0001 17.8 57.3001 23C58.4001 25.6 59.3001 28.3 59.6001 31.1C59.8001 32.5 59.9001 33.9 59.8001 35.3C59.8001 36.7 59.7001 38 59.6001 39.3C59.5001 41.9 59.3001 44.6 59.1001 47.2L58.9001 49.2L58.8001 50.2V50.7C58.8001 50.9 58.7001 51.2 58.6001 51.4C58.4001 51.9 58.0001 52.2 57.6001 52.4C57.4001 52.5 57.1001 52.5 56.9001 52.5H56.4001L54.4001 52.3C54.3001 52.3 54.2001 52.2 54.2001 52.1C54.2001 52 54.3001 51.9 54.4001 51.9L56.4001 51.7H56.9001C57.0001 51.7 57.1001 51.6 57.2001 51.6C57.4001 51.5 57.5001 51.3 57.5001 51.2L57.2001 47.5C57.0001 44.9 56.8001 42.2 56.7001 39.6L56.5001 35.7C56.4001 34.5 56.2001 33.2 56.0001 32C55.5001 29.6 54.7001 27.3 53.6001 25.1C51.4001 20.8 48.1001 17 44.0001 14.3C40.0001 11.6 35.1001 10 30.1001 9.90001C25.1001 9.80001 20.1001 11.1 15.9001 13.7C11.6001 16.3 8.0001 20.1 5.8001 24.6C4.7001 26.9 3.8001 29.3 3.3001 31.8C2.8001 34.3 2.8001 36.9 2.7001 39.5L2.5001 47.4L2.4001 49.4V50.4V50.9C2.4001 51 2.4001 51.1 2.5001 51.2C2.6001 51.4 2.8001 51.6 3.0001 51.7C3.1001 51.7 3.2001 51.8 3.4001 51.8H3.9001L5.9001 51.9C6.0001 51.9 6.1001 52 6.1001 52.1C5.8001 52.1 5.7001 52.2 5.6001 52.2Z" fill="#001A4A"/>
<path d="M30.0001 37H16.9001C16.4001 37 15.9001 37.2 15.6001 37.5C15.2001 37.9 15.1001 38.3 15.1001 38.8V50.1C15.1001 50.6 15.3001 51.1 15.6001 51.4C16.0001 51.8 16.4001 51.9 16.9001 51.9H30.0001V37Z" fill="#57c2b4"/>
<path d="M29.8999 37.2C26.0999 37.4 22.5999 37.7 19.0999 37.9L17.7999 38C17.3999 38 16.7999 38 16.6999 38.1C16.4999 38.2 16.2999 38.3 16.2999 38.5C16.2999 38.6 16.1999 38.7 16.1999 38.8C16.1999 38.9 16.1999 38.9 16.1999 39.2L16.4999 44.6L16.6999 50V50.2C16.6999 50.3 16.6999 50.2 16.6999 50.2C16.6999 50.2 16.6999 50.2 16.7999 50.3H16.8999C16.6999 50.3 17.4999 50.3 17.8999 50.2L19.2999 50.1C21.0999 50 22.8999 49.9 24.6999 49.8C26.4999 49.7 28.2999 49.7 30.0999 49.8L27.8999 52C27.9999 50.9 28.0999 49.8 28.1999 48.6C28.3999 47.4 28.4999 46.3 28.6999 45.1L29.2999 41.3L29.8999 37.2ZM30.1999 36.8C30.3999 37.8 30.5999 39 30.8999 40.1C31.0999 41.3 31.2999 42.5 31.4999 43.8C31.6999 45.1 31.7999 46.4 31.9999 47.8C32.0999 49.2 32.1999 50.5 32.2999 51.9C32.2999 53 31.4999 54 30.2999 54.1H30.0999C28.2999 54.2 26.4999 54.2 24.6999 54.1C22.8999 54 21.0999 53.9 19.2999 53.8L17.8999 53.7H17.1999C17.0999 53.7 16.4999 53.7 16.0999 53.6C15.2999 53.4 14.4999 52.8 13.9999 52.1C13.7999 51.7 13.5999 51.3 13.4999 50.9C13.4999 50.7 13.3999 50.5 13.3999 50.3C13.3999 50.2 13.3999 50.1 13.3999 50V49.8L13.5999 44.4L13.8999 39C13.8999 38.8 13.8999 38.4 13.9999 38C14.0999 37.7 14.2999 37.3 14.4999 37C14.8999 36.4 15.5999 36 16.2999 35.9C16.5999 35.8 16.9999 35.8 17.1999 35.9H17.8999L19.2999 36L30.1999 36.8Z" fill="#001A4A"/>
<path d="M43.1 37H30V52H43.1C43.3 52 43.6 52 43.8 51.9C44 51.8 44.2 51.7 44.4 51.5C44.6 51.3 44.7 51.1 44.8 50.9C44.9 50.7 44.9 50.4 44.9 50.2V38.9C44.9 38.4 44.7 37.9 44.4 37.6C44.1 37.2 43.6 37 43.1 37Z" fill="#57c2b4"/>
<path d="M43.1002 37.2C42.0002 37.2 40.9002 37.1 39.8002 37.2C38.7002 37.2 37.6002 37.3 36.5002 37.4C34.3002 37.6 32.1002 37.8 29.9002 38L30.9002 37C31.1002 39.5 31.2002 42 31.3002 44.5L31.6002 52L30.0002 50.3C32.5002 50.2 35.0002 50.1 37.6002 49.9C38.9002 49.8 40.1002 49.8 41.4002 49.7C41.7002 49.7 42.0002 49.7 42.3002 49.7H43.1002C43.0002 49.7 42.9002 49.8 42.9002 49.9V50C42.9002 49.7 42.9002 49.4 43.0002 49.1C43.1002 48.5 43.1002 47.8 43.2002 47.2C43.4002 45.9 43.6002 44.7 43.8002 43.4C44.0002 42.1 44.3002 40.9 44.5002 39.6L44.6002 38.7C44.6002 38.5 44.6002 38.2 44.5002 38C44.2002 37.6 43.7002 37.2 43.1002 37.2ZM43.1002 36.8C43.8002 36.8 44.5002 37.1 45.0002 37.7C45.2002 38 45.4002 38.4 45.4002 38.7L45.5002 39.7C45.7002 41 45.9002 42.2 46.2002 43.5C46.4002 44.8 46.7002 46 46.8002 47.3C46.9002 47.9 47.0002 48.6 47.0002 49.2C47.0002 49.5 47.0002 49.8 47.1002 50.1C47.1002 50.8 47.0002 51.4 46.7002 52C46.1002 53.2 44.8002 54.1 43.4002 54.2H42.3002C42.0002 54.2 41.7002 54.2 41.4002 54.2C40.1002 54.2 38.9002 54.1 37.6002 54C35.1002 53.8 32.6002 53.7 30.0002 53.6H29.9002C29.0002 53.6 28.3002 52.8 28.4002 51.9L28.7002 44.4C28.8002 41.9 28.9002 39.4 29.1002 36.9V36.8C29.1002 36.3 29.6002 35.9 30.1002 36C32.3002 36.1 34.5002 36.4 36.7002 36.6C37.8002 36.7 38.9002 36.8 40.0002 36.8C40.9002 36.8 42.0002 36.8 43.1002 36.8Z" fill="#001A4A"/>
<path d="M35.6001 20H24.4001C23.9001 20 23.4001 20.2 23.1001 20.5C22.7001 20.9 22.6001 21.3 22.6001 21.8V35H37.6001V21.9C37.6001 21.7 37.6001 21.4 37.5001 21.2C37.4001 21 37.3001 20.8 37.1001 20.6C36.9001 20.4 36.7001 20.3 36.5001 20.2C36.1001 20 35.9001 20 35.6001 20Z" fill="#57c2b4"/>
<path d="M35.6003 20.2C33.3003 20.1 31.0003 20.2 28.8003 20.4L25.4003 20.7L24.5003 20.8C24.3003 20.8 24.3003 20.8 24.2003 20.8C24.1003 20.8 24.1003 20.9 24.0003 20.9C23.7003 21.1 23.6003 21.3 23.5003 21.6L23.8003 28.1L24.1003 34.9L22.5003 33.3C25.0003 33.2 27.5003 33.1 30.0003 32.9C32.5003 32.7 35.0003 32.6 37.5003 32.7L35.3003 35C35.3003 33.7 35.4003 32.3 35.6003 31C35.8003 29.7 36.0003 28.3 36.2003 27C36.5003 25.7 36.7003 24.3 36.9003 23L37.0003 22C37.0003 21.7 37.0003 21.5 36.9003 21.2C36.8003 20.6 36.2003 20.2 35.6003 20.2ZM35.6003 19.8C36.3003 19.8 37.1003 20.2 37.5003 20.8C37.7003 21.1 37.9003 21.5 37.9003 21.9L38.0003 22.9C38.2003 24.2 38.5003 25.6 38.7003 26.9C39.0003 28.2 39.2003 29.6 39.3003 30.9C39.5003 32.2 39.5003 33.6 39.6003 34.9C39.6003 36.1 38.7003 37.1 37.5003 37.1H37.4003C34.9003 37.2 32.4003 37.1 29.9003 36.9C27.4003 36.7 24.9003 36.6 22.4003 36.5H22.3003C21.4003 36.5 20.8003 35.7 20.8003 34.9L21.1003 28.1L21.3003 24.7L21.4003 23V22.1V21.6C21.4003 21.4 21.5003 21.2 21.5003 21C21.8003 20.2 22.5003 19.5 23.3003 19.2C23.5003 19.1 23.7003 19.1 23.9003 19.1C24.1003 19.1 24.3003 19.1 24.5003 19.1L25.4003 19.2L28.8003 19.5C31.1003 19.8 33.4003 19.9 35.6003 19.8Z" fill="#001A4A"/>
</g>
<defs>
<clipPath id="clip0_3389_22042">
<rect width="60" height="60" fill="white"/>
</clipPath>
</defs>
</svg>
