<svg width="60" height="60" viewBox="0 0 60 60" fill="none" xmlns="http://www.w3.org/2000/svg">
<path d="M29.0998 54.1001C25.9998 56.9001 21.3998 57.0001 18.0998 54.4002C15.7998 52.6002 13.4998 50.7001 11.3998 48.6001C9.29983 46.5001 7.39983 44.2001 5.59983 41.9002C3.09983 38.6002 3.09984 34.0001 5.89984 30.9001C11.7998 24.3001 17.9998 18.3001 24.7998 12.4001C26.0998 11.3001 27.5998 10.6001 29.1998 10.5001C34.0998 10.1001 44.4998 9.50015 47.4998 12.5001C50.4998 15.5001 49.8998 25.9001 49.4998 30.8001C49.3998 32.5001 48.6998 34.0001 47.5998 35.2001C41.6998 42.0001 35.6998 48.2001 29.0998 54.1001Z" fill="#57c2b4"/>
<path d="M29.2998 54.2001C26.9998 56.2001 23.6998 56.9001 20.7998 56.0001C20.0998 55.8001 19.3998 55.5001 18.6998 55.1001C17.9998 54.7001 17.4998 54.2001 16.8998 53.8001C15.6998 52.9001 14.4998 52.0001 13.3998 51.1001C10.9998 49.2001 8.8998 47.0001 6.9998 44.8001L5.4998 43.1001C4.9998 42.5001 4.4998 41.9001 4.0998 41.2001C3.2998 39.8001 2.7998 38.2001 2.7998 36.5001C2.7998 34.9001 3.1998 33.2001 3.9998 31.7001C4.1998 31.3001 4.3998 31.0001 4.6998 30.6001C4.9998 30.3001 5.1998 29.9001 5.4998 29.7001L6.9998 28.0001C8.9998 25.8001 10.9998 23.6001 13.0998 21.5001C15.1998 19.4001 17.2998 17.3001 19.4998 15.2001C20.5998 14.2001 21.6998 13.2001 22.7998 12.2001C23.3998 11.7001 23.7998 11.2001 24.5998 10.6001C25.2998 10.1001 26.0998 9.60008 26.8998 9.30008C27.6998 9.00008 28.5998 8.80008 29.4998 8.70008L31.6998 8.50008C33.1998 8.40008 34.6998 8.30008 36.1998 8.20008C39.1998 8.20008 42.2998 8.10008 45.5998 9.00008C46.3998 9.20008 47.2998 9.60008 48.0998 10.1001C48.4998 10.4001 48.9998 10.7001 49.3998 11.2001C49.5998 11.4001 49.7998 11.6001 49.8998 11.8001C49.9998 12.0001 50.1998 12.2001 50.2998 12.4001C51.1998 14.1001 51.4998 15.7001 51.7998 17.3001C52.1998 20.5001 52.1998 23.5001 51.9998 26.5001L51.5998 29.0001L51.4998 30.1001L51.3998 31.3001C51.0998 33.1001 50.1998 34.8001 49.0998 36.1001C46.9998 38.3001 44.8998 40.3001 42.6998 42.4001C38.1998 46.4001 33.6998 50.3001 29.2998 54.2001ZM28.9998 53.9001C33.2998 49.9001 37.2998 45.5001 40.9998 40.9001C42.7998 38.6001 44.6998 36.3001 46.3998 34.0001C47.0998 33.0001 47.4998 31.9001 47.5998 30.8001L47.6998 28.7001L47.7998 26.5001C47.8998 23.6001 47.7998 20.7001 47.4998 18.0001C47.2998 16.7001 46.9998 15.3001 46.4998 14.4001L46.2998 14.1001C46.1998 14.0001 46.1998 14.0001 46.0998 13.9001C46.0998 13.8001 45.9998 13.8001 45.8998 13.7001C45.7998 13.6001 45.7998 13.6001 45.6998 13.5001C45.2998 13.3001 44.7998 13.0001 44.1998 12.8001C41.7998 12.0001 38.7998 11.8001 35.9998 11.8001C34.5998 11.8001 33.0998 11.8001 31.6998 11.9001L29.4998 12.0001C28.8998 12.0001 28.2998 12.1001 27.7998 12.3001C27.1998 12.5001 26.6998 12.8001 26.1998 13.1001C25.7998 13.4001 25.0998 14.0001 24.5998 14.4001L21.2998 17.3001C19.0998 19.2001 16.8998 21.2001 14.7998 23.3001C12.6998 25.3001 10.5998 27.4001 8.5998 29.5001L6.9998 31.3001C6.6998 31.6001 6.4998 31.8001 6.2998 32.1001C6.0998 32.4001 5.8998 32.6001 5.7998 32.9001C5.0998 34.0001 4.7998 35.3001 4.6998 36.6001C4.6998 37.9001 4.9998 39.2001 5.5998 40.4001C5.8998 41.0001 6.2998 41.5001 6.6998 42.1001L7.9998 43.9001C9.7998 46.2001 11.6998 48.5001 13.7998 50.5001C14.8998 51.5001 15.9998 52.5001 17.0998 53.4001C17.6998 53.9001 18.1998 54.3001 18.7998 54.8001C19.3998 55.2001 20.0998 55.5001 20.6998 55.7001C22.0998 56.1001 23.5998 56.3001 24.9998 56.0001C26.5998 55.6001 27.8998 54.9001 28.9998 53.9001Z" fill="#001A4A"/>
<path d="M56.4001 3.9001C55.2001 5.5001 53.9001 7.1001 52.7001 8.7001C51.4001 10.3001 50.2001 11.8001 48.9001 13.4001C47.6001 14.9001 46.6001 16.7001 44.9001 17.9001C43.3001 19.1001 41.6001 20.2001 39.4001 20.9001L39.1001 20.6001C39.7001 18.4001 40.9001 16.7001 42.1001 15.1001C43.3001 13.5001 45.1001 12.4001 46.6001 11.1001C48.1001 9.8001 49.7001 8.5001 51.3001 7.3001C52.9001 6.1001 54.5001 4.8001 56.1001 3.6001L56.4001 3.9001Z" fill="#001A4A"/>
</svg>
