<svg width="60" height="60" viewBox="0 0 60 60" fill="none" xmlns="http://www.w3.org/2000/svg">
<path d="M54.6002 40.4C40.8002 51.5 13.2002 32.2999 3.2002 46.0999V8.89995C13.3002 -4.10005 41.9002 13.5 53.5002 3.19995C53.5002 3.19995 56.7002 10.7 56.7002 21.5C56.7002 32.2999 54.6002 40.4 54.6002 40.4Z" fill="#57c2b4"/>
<path d="M54.8001 40.5C51.2001 43.5999 46.4001 44.4 41.9001 44.5C37.3001 44.5 32.8001 43.7999 28.4001 43.0999C24.0001 42.3999 19.5001 41.7 15.1001 41.7999C12.9001 41.8999 10.8001 42.2 8.8001 43C6.9001 43.7999 5.2001 45.0999 4.0001 46.7999L2.0001 49.5999V46.2L1.6001 8.89995V8.39995L1.9001 7.89995C3.4001 5.89995 5.5001 4.39995 7.8001 3.49995C10.1001 2.59995 12.5001 2.19995 14.8001 2.09995C19.4001 1.89995 23.9001 2.49995 28.3001 3.09995C30.5001 3.39995 32.6001 3.69995 34.8001 3.99995C36.9001 4.29995 39.1001 4.49995 41.2001 4.59995C45.3001 4.79995 49.5001 4.29995 52.3001 1.89995L54.3001 0.199951L55.2001 2.59995C55.8001 4.29995 56.3001 5.79995 56.6001 7.39995C57.0001 8.99995 57.3001 10.6 57.5001 12.2C58.0001 15.4 58.1001 18.6 58.0001 21.9C57.8001 25.1 57.5001 28.2999 57.0001 31.4C56.7001 33 56.4001 34.5 56.1001 36.0999C55.9001 36.8999 55.7001 37.6 55.5001 38.4L55.2001 39.5L55.0001 39.9L54.9001 40.2C54.9001 40.2999 54.9001 40.2999 54.8001 40.5ZM54.5001 40.2999L54.8001 38L55.1001 35.7C55.3001 34.1 55.4001 32.5999 55.5001 31C55.7001 27.9 55.7001 24.8 55.6001 21.7C55.5001 18.6 55.1001 15.6 54.5001 12.6C54.2001 11.1 53.8001 9.59995 53.4001 8.19995C53.0001 6.79995 52.5001 5.29995 51.9001 3.99995L54.8001 4.69995C52.9001 6.39995 50.5001 7.49995 48.2001 8.09995C45.8001 8.69995 43.5001 8.79995 41.2001 8.79995C36.6001 8.69995 32.2001 7.89995 27.9001 7.19995C23.4001 6.39995 19.2001 5.69995 15.0001 5.69995C12.9001 5.69995 10.9001 5.99995 9.1001 6.69995C7.3001 7.29995 5.7001 8.39995 4.5001 9.89995L4.8001 8.89995L4.3001 46.0999L2.3001 45.4C3.8001 43.4 5.8001 41.8999 8.1001 41.0999C10.4001 40.1999 12.8001 40 15.1001 40C19.7001 40 24.2001 41 28.6001 41.7999C33.0001 42.5999 37.4001 43.5 41.9001 43.5999C44.1001 43.6999 46.4001 43.5 48.5001 43C49.0001 42.9 49.6001 42.7 50.1001 42.5C50.6001 42.2999 51.1001 42.1 51.6001 41.9C52.1001 41.7 52.6001 41.3999 53.1001 41.0999L54.5001 40.2999Z" fill="#001A4A"/>
<path d="M20.7998 15.8L11.7998 24.8L20.4998 33.4001" fill="#57c2b4"/>
<path d="M20.9998 15.9001C19.6998 17.6001 18.3998 19.3001 16.9998 21.0001C15.5998 22.7001 14.2998 24.3001 12.8998 26.0001V23.7001C13.8998 24.2001 14.6998 24.8001 15.3998 25.5001C16.1998 26.2001 16.7998 26.9001 17.4998 27.7001C18.0998 28.5001 18.6998 29.3001 19.2998 30.3001C19.7998 31.2001 20.2998 32.2001 20.5998 33.3001L20.2998 33.6001C19.1998 33.3001 18.1998 32.8001 17.2998 32.3001C16.3998 31.8001 15.4998 31.2001 14.6998 30.6001C13.8998 30.0001 13.0998 29.3001 12.3998 28.5001C11.6998 27.7001 11.0998 27.0001 10.5998 26.0001L9.7998 24.4001L10.5998 23.7001C12.1998 22.3001 13.8998 21.0001 15.5998 19.6001C17.2998 18.3001 18.9998 16.9001 20.6998 15.6001L20.9998 15.9001Z" fill="#001A4A"/>
<path d="M39.9003 16.7002L48.2003 24.8002L39.8003 33.4002" fill="#57c2b4"/>
<path d="M40.0002 16.6001C41.6002 17.7001 43.2002 18.9001 44.7002 20.1001C46.2002 21.3001 47.8002 22.5001 49.3002 23.7001L50.1002 24.4001L49.4002 26.0001C48.9002 27.0001 48.3002 27.7001 47.7002 28.5001C47.0002 29.2001 46.3002 29.9001 45.5002 30.6001C44.7002 31.2001 43.9002 31.8001 43.0002 32.3001C42.1002 32.8001 41.1002 33.3001 40.0002 33.6001L39.7002 33.3001C40.0002 32.2001 40.4002 31.2001 40.9002 30.3001C41.4002 29.4001 42.0002 28.5001 42.6002 27.7001C43.2002 26.9001 43.9002 26.2001 44.6002 25.5001C45.3002 24.8001 46.1002 24.2001 47.1002 23.7001V26.0001C45.8002 24.5001 44.6002 23.0001 43.3002 21.5001C42.1002 20.0001 40.9002 18.4001 39.7002 16.9001L40.0002 16.6001Z" fill="#001A4A"/>
<path d="M25.7002 35.2C26.0002 33.2 26.5002 31.2 26.8002 29.2C27.2002 27.2 27.6002 25.2 28.1002 23.3C28.6002 21.3 28.7002 19.2 29.6002 17.4C30.5002 15.6 31.5002 13.8 33.2002 12.2L33.6002 12.3C34.0002 14.6 33.8002 16.6 33.4002 18.6C33.1002 20.6 31.9002 22.4 31.1002 24.2C30.3002 26.1 29.5002 27.9 28.6002 29.7999C27.7002 31.5999 26.9002 33.5 26.0002 35.2999L25.7002 35.2Z" fill="#001A4A"/>
<path d="M3.4 38.3999C3.7 39.9999 3.9 41.5999 4.2 43.1999C4.4 44.7999 4.6 46.3999 4.8 47.9999C5 49.5999 5.5 51.1999 5.2 52.7999C4.9 54.3999 4.5 55.9999 3.4 57.5999H3C1.9 55.9999 1.5 54.3999 1.2 52.7999C0.9 51.1999 1.4 49.5999 1.6 47.9999C1.8 46.3999 2 44.7999 2.2 43.1999C2.5 41.5999 2.7 39.9999 3 38.3999H3.4Z" fill="#001A4A"/>
</svg>
