<svg width="60" height="60" viewBox="0 0 60 60" fill="none" xmlns="http://www.w3.org/2000/svg">
<path d="M45.3 17.8C49.3317 17.8 52.6 14.5316 52.6 10.5C52.6 6.46827 49.3317 3.19995 45.3 3.19995C41.2683 3.19995 38 6.46827 38 10.5C38 14.5316 41.2683 17.8 45.3 17.8Z" fill="#57c2b4"/>
<path d="M45.3 17.6C47.2 17.7 49 16.8 50.1 15.4C51.2 14 51.6 12.2 51.5 10.6C51.4 9 50.6 7.4 49.4 6.4C48.2 5.4 46.7 4.8 45.2 4.9C43.7 5 42.3 5.7 41.5 6.8C40.6 7.9 40.1 9.2 40 10.5C39.9 11.9 40 13.4 40.9 14.9C41.7 16.4 43.4 17.5 45.3 17.6ZM45.3 18C43.4 18.1 41.3 17.7 39.4 16.4C38.5 15.8 37.7 14.9 37 13.9C36.4 12.9 36 11.7 36 10.5C35.9 8.1 36.9 5.6 38.7 4C40.5 2.4 42.9 1.6 45.2 1.7C47.5 1.8 49.8 2.8 51.3 4.5C52.8 6.2 53.6 8.4 53.5 10.6C53.4 12.8 52.3 14.8 50.7 16C49.1 17.2 47.2 17.9 45.3 18Z" fill="#001A4A"/>
<path d="M33.8001 28.9C33.5001 25.9 34.7001 22.8 36.7001 20.4C37.8001 19.2 39.0001 18.2 40.5001 17.5C42.0001 16.8 43.6001 16.3 45.3001 16.2C47.0001 16.1 48.7001 16.3 50.3001 16.9C51.9001 17.5 53.4001 18.4 54.5001 19.7C56.8001 22.2 57.8001 25.9 56.7001 29H56.3001C55.7001 27.6 55.0001 26.4 54.3001 25.3C53.5001 24.2 52.6001 23.3 51.7001 22.6C50.8001 21.8 49.8001 21.2 48.7001 20.6C47.6001 20 46.4001 19.6 45.2001 19.5C42.7001 19.3 40.1001 20.2 38.0001 21.9C35.9001 23.6 34.4001 26.2 34.1001 29L33.8001 28.9Z" fill="#001A4A"/>
<path d="M21.8999 20.8C23.4999 20.9 25.0999 20.1 25.9999 18.9C26.8999 17.6 27.2999 16.1 27.0999 14.8C26.9999 13.4 26.2999 12.1 25.2999 11.3C24.2999 10.4 22.9999 10 21.7999 10.1C20.5999 10.2 19.4999 10.8 18.7999 11.7C18.0999 12.6 17.6999 13.6 17.5999 14.7C17.4999 15.8 17.4999 17.1 18.1999 18.4C18.8999 19.7 20.2999 20.7 21.8999 20.8ZM21.8999 21.2C20.1999 21.3 18.3999 21 16.6999 19.9C15.8999 19.4 15.0999 18.6 14.5999 17.7C13.9999 16.8 13.6999 15.7 13.6999 14.7C13.5999 12.5 14.4999 10.3 16.0999 8.90002C17.6999 7.50002 19.8999 6.80002 21.8999 6.90002C23.9999 7.00002 25.8999 7.90002 27.2999 9.40002C28.5999 10.9 29.2999 12.9 29.1999 14.8C29.0999 16.7 28.0999 18.5 26.6999 19.5C25.2999 20.5 23.5999 21.1 21.8999 21.2Z" fill="#001A4A"/>
<path d="M29.7999 28.9C29.3999 26.9 28.3999 25.2 26.8999 24.1C25.4999 23 23.6999 22.4 22.0999 22.5C21.2999 22.5 20.4999 22.8 19.8999 23.2C19.1999 23.6 18.5999 23.9999 17.8999 24.4C16.5999 25.3 15.2999 26.4 13.9999 28.2H13.5999C12.6999 26 13.4999 23.3 15.1999 21.5C16.0999 20.6 17.1999 19.9 18.3999 19.6C19.5999 19.3 20.8999 19.2 22.0999 19.4C23.2999 19.5 24.4999 19.9 25.4999 20.5C26.4999 21.1 27.3999 21.8999 28.0999 22.7999C29.4999 24.5999 30.1999 26.9 29.8999 29L29.7999 28.9Z" fill="#001A4A"/>
<path d="M14.4997 42.7999C10.4997 42.7999 7.19971 39.5 7.19971 35.5C7.19971 31.5 10.4997 28.2 14.4997 28.2C18.4997 28.2 21.7997 31.5 21.7997 35.5C21.7997 39.6 18.4997 42.7999 14.4997 42.7999Z" fill="#57c2b4"/>
<path d="M14.4999 43C12.5999 42.9 10.5999 42.2 9.09987 41C7.49987 39.8 6.39987 37.7 6.29987 35.6C6.19987 33.4 6.99987 31.2 8.49987 29.5C9.99987 27.8 12.2999 26.8 14.5999 26.7C16.8999 26.6 19.2999 27.4 21.0999 29C22.8999 30.6 23.9999 33.1 23.7999 35.5C23.6999 36.7 23.3999 37.9 22.7999 38.9C22.1999 39.9 21.3999 40.8 20.3999 41.4C18.5999 42.7 16.4999 43.1 14.4999 43ZM14.4999 42.6C16.3999 42.5 18.0999 41.4 18.8999 39.9C19.6999 38.4 19.8999 36.9 19.7999 35.5C19.6999 34.1 19.1999 32.8 18.2999 31.8C17.3999 30.7 16.0999 30 14.5999 29.9C13.0999 29.8 11.5999 30.3 10.3999 31.4C9.19987 32.4 8.39987 33.9 8.29987 35.6C8.19987 37.2 8.59987 39 9.69987 40.4C10.7999 41.8 12.6999 42.7 14.4999 42.6Z" fill="#001A4A"/>
<path d="M25.5999 54C25.1999 51.1 23.7999 48.6 21.6999 46.9C19.5999 45.2 16.9999 44.3 14.4999 44.5C13.2999 44.6 12.0999 44.9999 10.9999 45.5999C9.8999 46.1999 8.99989 46.8999 7.99989 47.5999C7.09989 48.3999 6.19989 49.2999 5.39989 50.2999C4.5999 51.4 3.99989 52.6 3.39989 54H2.99989C1.89989 51 2.99989 47.3 5.19989 44.7C6.29989 43.4 7.79989 42.4 9.39989 41.9C10.9999 41.3 12.7999 41.2 14.3999 41.2C16.0999 41.3 17.6999 41.7 19.1999 42.5C20.6999 43.2 21.8999 44.3 22.9999 45.4C25.0999 47.8 26.1999 50.9 25.8999 53.9L25.5999 54Z" fill="#001A4A"/>
<path d="M42.1 46C40.4 45.9 38.8 45.2999 37.4 44.2999C36 43.1999 35 41.4999 34.9 39.5999C34.8 37.6999 35.5 35.7 36.8 34.2C38.1 32.7 40.1 31.8 42.2 31.7C44.3 31.6 46.4 32.3 48 33.7C49.6 35.1 50.6 37.4 50.4 39.5C50.3 40.6 50 41.6 49.5 42.5C48.9 43.4 48.2 44.1 47.4 44.7C45.6 45.8 43.8 46.1 42.1 46ZM42.1 45.5999C43.7 45.4999 45.2 44.5 45.8 43.2C46.5 41.9 46.5 40.6 46.4 39.5C46.3 38.4 45.9 37.4 45.2 36.5C44.5 35.6 43.4 34.9 42.2 34.9C41 34.8 39.7 35.1999 38.7 36.0999C37.7 36.8999 37 38.1999 36.9 39.5999C36.8 40.9999 37.1 42.5 38 43.7C38.9 45 40.5 45.6999 42.1 45.5999Z" fill="#001A4A"/>
<path d="M49.2002 54.5C48.8002 52.7 47.8002 51.1 46.5002 50.2C45.2002 49.2 43.6002 48.8 42.1002 48.9C41.4002 49 40.7002 49.3 40.1002 49.7L38.4002 50.9C37.2002 51.7 36.1002 52.8 35.0002 54.5H34.6002C33.5002 52.5 34.1002 49.8 35.6002 48C36.4002 47.1 37.4002 46.4 38.6002 46C39.8002 45.7 41.0002 45.6 42.1002 45.6C43.3002 45.7 44.4002 46 45.4002 46.5C46.4002 47 47.2002 47.8 47.9002 48.6C49.2002 50.3 49.9002 52.4 49.6002 54.4L49.2002 54.5Z" fill="#001A4A"/>
<path d="M29.8999 28.7C30.1999 28.4 30.5999 28.1 30.8999 27.9C31.1999 27.7 31.5999 27.5 31.8999 27.3C32.1999 27.1 32.5999 26.6 32.8999 26.9C33.0999 27 33.1999 27.2 33.3999 27.5C33.5999 27.8 33.6999 28.1 33.8999 28.7V29.1C33.6999 29.7 33.5999 30 33.3999 30.3C33.1999 30.6 33.0999 30.8 32.8999 30.9C32.5999 31.2 32.1999 30.7 31.8999 30.5C31.5999 30.3 31.1999 30.1 30.8999 29.9C30.5999 29.7 30.1999 29.4 29.8999 29.1V28.7Z" fill="#001A4A"/>
</svg>
