<svg width="60" height="60" viewBox="0 0 60 60" fill="none" xmlns="http://www.w3.org/2000/svg">
<path d="M25.2002 54.8001C30.5002 54.8001 35.9002 54.6001 41.1002 54.3001C43.4002 54.2001 45.8002 54.0001 48.0002 53.8001C48.3002 53.8001 48.7002 53.7001 49.0002 53.7001C53.0002 53.4001 56.1002 50.2001 56.3002 46.2001C56.7002 38.9001 56.9002 31.1001 56.9002 23.4001C56.9002 21.0001 55.0002 19.1001 52.6002 19.1001H50.0002" fill="#57c2b4"/>
<path d="M25.2002 54.6C30.8002 54.3 36.4002 53.9 42.0002 53.2L46.2002 52.7C47.6002 52.5 49.1002 52.5 50.1002 52.1C52.4002 51.4 54.1002 49.5 54.6002 47.3C54.6002 47 54.7002 46.7 54.7002 46.5V46.1V45.6V43.5L54.6002 39.3C54.5002 36.5 54.6002 33.7 54.8002 30.9L55.1002 26.7L55.3002 24.6L55.4002 23.6C55.4002 23.3 55.5002 23.1 55.4002 22.9C55.3002 22 54.8002 21 53.8002 20.4C53.6002 20.2 53.3002 20.1 53.0002 20C52.9002 20 52.7002 19.9 52.6002 19.9L52.1002 19.8C51.4002 19.7 50.7002 19.6 50.0002 19.4V19C50.7002 18.9 51.4002 18.7 52.1002 18.6L52.6002 18.5C52.8002 18.5 53.0002 18.5 53.2002 18.5C53.6002 18.5 54.0002 18.5 54.5002 18.7C56.2002 19.1 57.7002 20.5 58.2002 22.3C58.3002 22.7 58.4002 23.3 58.4002 23.7L58.5002 24.8L58.6002 26.9L58.7002 31.1C58.7002 33.9 58.7002 36.7 58.5002 39.6L58.2002 43.8L58.1002 45.9V46.4L58.0002 47C57.9002 47.4 57.8002 47.8 57.7002 48.2C56.8002 51.5 54.0002 54 50.8002 54.8C50.0002 54.9 49.1002 55 48.5002 55L46.4002 55.1L42.2002 55.3C36.6002 55.4 30.9002 55.4 25.3002 55.1V54.6H25.2002Z" fill="#001A4A"/>
<path d="M4 45.8001C4.4 49.9001 7.6 53.3001 11.7 53.8001C15.5 54.3001 19.5 54.8001 23.5 54.8001C28.8 54.8001 33.9 54.7001 38.8 54.3001C40.9 54.1001 42.5 52.5001 42.6 50.4001C43.1 43.9001 43.9 36.6001 43.9 29.9001C43.9 23.2001 43.2 16.8001 42.6 10.6001C42.4 8.5001 40.8 6.9001 38.8 6.6001C33.9 5.9001 28.8 5.1001 23.5 5.1001C18.2 5.1001 13 6.0001 8.1 6.7001C6.1 7.0001 4.5 8.6001 4.3 10.7001C3.7 16.9001 3 23.3001 3 30.0001C3 35.4001 3.5 40.7001 4 45.8001Z" fill="#57c2b4"/>
<path d="M4.20002 45.7001C4.30001 47.4001 4.90002 49 6.00002 50.3C7.00002 51.6 8.40002 52.6001 10 53.2001C10.8 53.5 11.6 53.6001 12.4 53.7001L14.9 54C16.6 54.2001 18.3 54.3001 20 54.4001C21.7 54.5 23.4 54.4 25.1 54.3L30.2 54.1C31.9 54 33.6 53.9 35.3 53.8L37.8 53.6L38.4 53.5H38.7H38.9C39.2 53.4001 39.5 53.3 39.8 53.2001C40.4 52.9001 40.8 52.4001 41.1 51.9001C41.3 51.6001 41.4 51.3 41.4 51C41.4 50.8 41.4 50.7001 41.5 50.5V49.9001L41.9 44.8C42.1 41.4 42.3 38.1001 42.4 34.7001C42.6 28 42 21.3 41.3 14.6L41 11.8L40.9 11.2V10.9V10.7C40.8 10.4 40.8 10.2 40.6 10C40.4 9.50005 40 9.10005 39.5 8.90005C39.3 8.80005 39 8.70005 38.8 8.60005C38.7 8.60005 38.6 8.60005 38.4 8.50005L37.8 8.40005C34.4 8.00005 31.1 7.60005 27.8 7.40005C24.5 7.20005 21.3 7.30005 18 7.60005C16.4 7.70005 14.7 8.00005 13 8.20005L8.20002 8.70005C7.30001 8.90005 6.40001 9.60005 6.20002 10.6L5.50002 15.5C5.00002 18.9 4.50002 22.2001 4.20002 25.5C3.90002 28.8 3.70002 32.2 3.70002 35.6C3.70002 39 3.90002 42.4001 4.20002 45.7001ZM3.80002 45.8C3.40002 42.4 3.00002 39 2.70002 35.6C2.40002 32.2 2.10002 28.8 2.10002 25.4C2.00002 22 2.10002 18.6 2.20002 15.2L2.30002 12.7L2.40002 11.4C2.40002 11 2.40002 10.6 2.50002 9.90005C2.90002 7.50005 4.80001 5.40005 7.20002 4.90005C7.90001 4.80005 8.20002 4.70005 8.60002 4.70005L9.90001 4.50005L12.5 4.00005C14.2 3.80005 15.9 3.50005 17.6 3.40005C21.1 3.10005 24.6 3.10005 28.1 3.40005C31.6 3.70005 35 4.30005 38.3 4.90005L38.9 5.00005C39.1 5.00005 39.5 5.10005 39.7 5.20005C40.3 5.40005 40.8 5.60005 41.3 5.90005C42.3 6.50005 43.1 7.40005 43.6 8.50005C43.8 9.00005 44 9.60005 44.1 10.2V10.6V10.9V11.5L44.3 14C44.8 20.8 45.3 27.7001 44.8 34.5C44.6 37.9001 44.3 41.3 44 44.7001L43.5 49.8L43.4 50.4001C43.4 50.6001 43.3 50.9001 43.3 51.2001C43.2 51.7001 43 52.2001 42.7 52.7001C42.2 53.6001 41.4 54.4 40.4 54.8C39.9 55 39.4 55.2001 38.9 55.2001H38.5H38.2H37.6L35 55.3C33.3 55.3 31.6 55.4001 29.9 55.4001C28.2 55.4001 26.5 55.4 24.8 55.3C23.1 55.3 21.4 55.2001 19.7 55C18 54.9001 16.3 54.6001 14.6 54.4001L12.1 54C11.3 53.9001 10.4 53.7001 9.60002 53.4001C6.50002 52.4001 4.10002 49.3 3.80002 45.8Z" fill="#001A4A"/>
<path d="M14.7998 27.7001C14.8998 28.7001 15.7998 29.5001 16.7998 29.6001C18.9998 29.8001 21.2998 30.0001 23.5998 30.0001C25.8998 30.0001 28.1998 29.8001 30.3998 29.6001C31.3998 29.5001 32.2998 28.7001 32.3998 27.7001C32.5998 26.1001 32.8998 24.5001 32.8998 22.8001C32.8998 21.1001 32.6998 19.5001 32.3998 17.9001C32.2998 16.9001 31.3998 16.1001 30.3998 16.0001C28.1998 15.8001 25.8998 15.6001 23.5998 15.6001C21.2998 15.6001 18.9998 15.8001 16.7998 16.0001C15.7998 16.1001 14.8998 16.9001 14.7998 17.9001C14.5998 19.5001 14.2998 21.1001 14.2998 22.8001C14.2998 24.5001 14.4998 26.1001 14.7998 27.7001Z" fill="#57c2b4"/>
<path d="M14.8998 27.7001C14.9998 28.3001 15.2998 28.8001 15.6998 29.1001C16.1998 29.5001 16.7998 29.4001 17.3998 29.5001C18.5998 29.6001 19.8998 29.6001 21.0998 29.6001C23.5998 29.5001 25.8998 29.2001 28.3998 28.8001L30.1998 28.6001C30.5998 28.5001 30.7998 28.4001 30.9998 28.1001C31.1998 27.8001 31.1998 27.7001 31.1998 26.9001C31.2998 26.3001 31.2998 25.7001 31.2998 25.1001C31.3998 23.9001 31.3998 22.8001 31.2998 21.6001C31.1998 20.5001 30.9998 19.3001 30.6998 18.1001C30.5998 17.9001 30.4998 17.8001 30.3998 17.7001C30.2998 17.7001 30.2998 17.7001 30.1998 17.7001C30.1998 17.7001 30.1998 17.7001 30.0998 17.7001H29.8998H29.3998C28.1998 17.7001 26.9998 17.6001 25.7998 17.6001C23.3998 17.6001 21.1998 17.7001 18.6998 17.8001C18.0998 17.8001 17.4998 17.8001 16.8998 17.8001C16.7998 17.8001 16.7998 17.8001 16.7998 17.8001H16.6998C16.5998 17.8001 16.4998 17.8001 16.4998 17.8001C16.3998 17.8001 16.2998 17.9001 16.2998 18.0001C16.1998 18.0001 16.0998 18.4001 15.9998 18.7001L15.4998 20.5001C15.1998 21.7001 14.8998 22.8001 14.7998 24.0001C14.6998 25.2001 14.7998 26.4001 14.8998 27.7001ZM14.5998 27.7001L13.8998 24.0001C13.6998 22.8001 13.4998 21.5001 13.3998 20.2001C13.3998 19.6001 13.2998 18.9001 13.2998 18.3001C13.2998 17.9001 13.2998 17.8001 13.3998 17.2001C13.4998 16.7001 13.6998 16.2001 13.9998 15.7001C14.2998 15.3001 14.6998 14.9001 15.1998 14.6001C15.3998 14.5001 15.6998 14.3001 15.9998 14.3001C16.0998 14.3001 16.2998 14.2001 16.3998 14.2001L16.7998 14.1001C17.3998 14.0001 17.9998 13.9001 18.5998 13.8001C20.9998 13.5001 23.6998 13.3001 26.2998 13.6001C27.5998 13.7001 28.7998 13.9001 29.9998 14.1001L30.4998 14.2001H30.6998C30.7998 14.2001 30.9998 14.2001 31.0998 14.3001C31.5998 14.4001 32.0998 14.6001 32.5998 15.0001C33.4998 15.6001 34.0998 16.6001 34.1998 17.7001C34.2998 18.9001 34.4998 20.2001 34.4998 21.5001C34.4998 22.8001 34.3998 24.2001 34.2998 25.4001C34.1998 26.0001 34.0998 26.7001 33.9998 27.3001C33.8998 27.6001 33.8998 27.8001 33.7998 28.4001C33.6998 28.9001 33.3998 29.3001 33.0998 29.6001C32.4998 30.3001 31.4998 30.7001 30.6998 30.8001L28.8998 30.9001C26.3998 31.0001 23.8998 30.9001 21.3998 30.5001C20.1998 30.3001 18.8998 30.1001 17.6998 30.0001C17.3998 30.0001 17.0998 29.9001 16.7998 29.9001C16.4998 29.8001 16.1998 29.7001 15.8998 29.5001C15.0998 29.0001 14.6998 28.4001 14.5998 27.7001Z" fill="#001A4A"/>
<path d="M37.9999 37.7999C35.5999 38.0999 33.1999 38.2999 30.8999 38.5999C28.4999 38.7999 26.0999 38.9999 23.7999 39.1999C22.5999 39.2999 21.3999 39.3999 20.1999 39.5999C18.9999 39.6999 17.7999 39.6999 16.5999 39.5999C15.3999 39.4999 14.1999 39.2999 12.9999 38.9999C11.7999 38.6999 10.5999 38.3999 9.3999 37.7999V37.3999C10.5999 36.7999 11.7999 36.4999 12.9999 36.1999C14.1999 35.8999 15.3999 35.6999 16.5999 35.5999C17.7999 35.4999 18.9999 35.4999 20.1999 35.5999C21.3999 35.6999 22.5999 35.8999 23.7999 35.9999C26.1999 36.1999 28.5999 36.3999 30.8999 36.5999C33.2999 36.8999 35.6999 37.0999 37.9999 37.3999V37.7999Z" fill="#001A4A"/>
<path d="M37.6 46.7C35.2 47 32.8 47.2 30.5 47.5C28.1 47.7 25.7 47.9 23.4 48.1C22.2 48.2 21 48.3 19.8 48.5C18.6 48.6 17.4 48.6 16.2 48.5C15 48.4 13.8 48.2001 12.6 47.9001C11.4 47.6001 10.2 47.3 9 46.7V46.3C10.2 45.7 11.4 45.4 12.6 45.1C13.8 44.8 15 44.6 16.2 44.5C17.4 44.4 18.6 44.4 19.8 44.5C21 44.6 22.2 44.8001 23.4 44.9001C25.8 45.1001 28.2 45.3 30.5 45.5C32.9 45.8 35.3 46 37.6 46.3V46.7Z" fill="#001A4A"/>
</svg>
