<svg width="60" height="60" viewBox="0 0 60 60" fill="none" xmlns="http://www.w3.org/2000/svg">
<path d="M30.0002 56.8001C26.9002 56.8001 26.9002 54.6001 24.2002 52.6001C19.6002 49.3001 12.5002 45.4001 6.8002 44.6001C5.8002 44.5001 4.9002 44.0001 4.2002 43.2001C3.5002 42.4001 3.2002 41.5001 3.2002 40.4001V7.30006C3.2002 6.70006 3.3002 6.10006 3.6002 5.60006C3.8002 5.10006 4.2002 4.60006 4.7002 4.20006C5.1002 3.80006 5.7002 3.50006 6.2002 3.40006C6.8002 3.20006 7.4002 3.20006 7.9002 3.30006C16.4002 4.70006 24.2002 9.00006 30.0002 15.3001V56.8001Z" fill="#57c2b4"/>
<path d="M30.1002 56.9001C29.8002 57.0001 29.4002 57.0001 29.2002 56.9001C28.9002 56.9001 28.7002 56.8001 28.4002 56.7001C27.9002 56.5001 27.4002 56.2001 27.0002 55.8001C26.2002 55.0001 25.6002 54.2001 24.9002 53.6001C24.2002 53.0001 23.3002 52.4001 22.4002 51.9001C21.5002 51.4001 20.7002 50.8001 19.8002 50.3001C16.3002 48.3001 12.5002 46.6001 8.6002 45.7001C8.1002 45.6001 7.60019 45.5001 7.10019 45.4001C6.70019 45.3001 6.0002 45.3001 5.4002 45.1001C4.2002 44.7001 3.2002 43.8001 2.7002 42.7001C2.4002 42.1001 2.2002 41.5001 2.2002 40.9001C2.2002 40.6001 2.2002 40.3001 2.2002 40.1001V39.3001L2.1002 36.2001L2.0002 23.9001L1.8002 11.6001L1.7002 8.5001V7.7001V7.3001C1.7002 7.2001 1.7002 7.0001 1.7002 6.8001C1.8002 6.1001 1.9002 5.4001 2.2002 4.8001C2.8002 3.5001 4.0002 2.5001 5.3002 2.0001C6.0002 1.7001 6.7002 1.6001 7.4002 1.6001C7.60019 1.6001 7.8002 1.6001 7.9002 1.6001H8.2002H8.4002L9.2002 1.7001C13.4002 2.4001 17.5002 3.8001 21.4002 5.9001C25.2002 7.9001 28.7002 10.6001 31.6002 13.8001L32.1002 14.4001V15.2001C32.1002 22.4001 31.8002 29.5001 31.5002 36.5001C31.1002 43.6001 30.6002 50.5001 30.1002 56.9001ZM29.9002 56.6001C29.4002 49.2001 29.0002 42.2001 28.6002 35.4001C28.2002 28.6001 28.0002 22.0001 27.9002 15.3001L28.4002 16.7001C23.2002 11.0001 16.3002 6.7001 8.6002 5.1001L7.9002 4.9001H7.7002H7.60019C7.5002 4.9001 7.4002 4.9001 7.4002 4.9001C7.0002 4.8001 6.7002 4.9001 6.4002 5.0001C5.8002 5.2001 5.3002 5.6001 5.0002 6.2001C4.9002 6.5001 4.8002 6.8001 4.8002 7.1001C4.8002 7.2001 4.8002 7.2001 4.8002 7.4001V7.8001V8.6001L4.7002 11.7001L4.5002 23.9001L4.2002 36.2001L4.1002 39.3001V40.1001C4.1002 40.4001 4.1002 40.6001 4.1002 40.8001C4.1002 41.2001 4.2002 41.6001 4.4002 42.0001C4.7002 42.7001 5.30019 43.3001 6.10019 43.7001C6.5002 43.9001 6.8002 43.9001 7.4002 44.0001C8.0002 44.0001 8.5002 44.1001 9.0002 44.3001C13.1002 45.4001 16.8002 47.4001 20.3002 49.5001C21.2002 50.0001 22.0002 50.6001 22.9002 51.2001C23.7002 51.8001 24.6002 52.4001 25.4002 53.1001C26.2002 53.8001 26.7002 54.7001 27.4002 55.5001C27.7002 55.9001 28.1002 56.1001 28.6002 56.3001C28.8002 56.4001 29.1002 56.5001 29.3002 56.5001C29.5002 56.6001 29.6002 56.6001 29.9002 56.6001Z" fill="#001A4A"/>
<path d="M30 56.8001C33.1 56.8001 33.1 54.6001 35.8 52.6001C40.4 49.3001 47.5 45.4001 53.2 44.6001C54.2 44.5001 55.1 44.0001 55.8 43.2001C56.5 42.4001 56.8 41.5001 56.8 40.4001V7.30006C56.8 6.70006 56.7 6.10006 56.4 5.60006C56.2 5.10006 55.8 4.60006 55.3 4.20006C54.9 3.80006 54.3 3.50006 53.8 3.40006C53.2 3.20006 52.6 3.20006 52.1 3.30006C43.6 4.70006 35.8 9.00006 30 15.3001V56.8001Z" fill="#57c2b4"/>
<path d="M30.1 56.5999C30.3 56.5 30.4 56.5 30.7 56.5C30.9 56.5 31.2 56.3999 31.4 56.2999C31.8 56.0999 32.2 55.7999 32.6 55.5C33.3 54.7999 33.8 53.8999 34.6 53.0999C35.4 52.2999 36.2 51.7999 37.1 51.2C37.9 50.6 38.8 50 39.7 49.5C43.2 47.2999 46.9 45.3999 51 44.2999C51.5 44.2 52 44 52.6 44C53.2 43.9 53.5 43.9 53.9 43.7C54.7 43.4 55.3 42.7999 55.6 42C55.8 41.5999 55.9 41.2 55.9 40.7999C55.9 40.5999 55.9 40.3999 55.9 40.0999V39.2999L55.8 36.2L55.6 23.9L55.4 11.6L55.3 8.49995V7.69995V7.29995C55.3 7.19995 55.3 7.09995 55.3 6.99995C55.3 6.69995 55.2 6.39995 55 6.09995C54.7 5.49995 54.2 5.09995 53.6 4.89995C53.3 4.79995 53 4.79995 52.7 4.79995C52.6 4.79995 52.5 4.79995 52.5 4.79995H52.4H52.2L51.5 4.89995C43.7 6.69995 36.8 11 31.5 16.7L32 15.3C32 22 31.7 28.6 31.4 35.5C31.1 42.2999 30.6 49.2999 30.1 56.5999ZM29.9 56.9C29.4 50.4 29 43.5999 28.6 36.5999C28.3 29.5999 28 22.4 28 15.3V14.5L28.5 13.9C31.4 10.7 34.8 7.99995 38.6 5.99995C42.4 3.99995 46.5 2.59995 50.8 1.79995L51.6 1.69995H51.8H52.1C52.3 1.69995 52.5 1.69995 52.6 1.69995C53.3 1.69995 54 1.79995 54.7 2.09995C56 2.59995 57.1 3.69995 57.7 4.89995C58 5.49995 58.2 6.19995 58.2 6.89995C58.2 7.09995 58.2 7.29995 58.2 7.39995V7.79995V8.59995L58.1 11.7L58 23.9L57.8 36.2L57.7 39.2999V40.0999C57.7 40.2999 57.7 40.6 57.7 40.9C57.6 41.5 57.5 42.1 57.2 42.7C56.6 43.7999 55.6 44.6999 54.5 45.0999C53.9 45.2999 53.2 45.4 52.8 45.4C52.3 45.5 51.8 45.6 51.3 45.7C47.4 46.6 43.7 48.2999 40.1 50.2999C39.2 50.7999 38.3 51.3 37.5 51.9C36.6 52.5 35.8 53 35 53.5999C34.3 54.2999 33.7 55.0999 32.9 55.7999C32.5 56.2 32 56.5 31.5 56.7C31.2 56.7999 31 56.9 30.7 56.9C30.6 57 30.1 57 29.9 56.9Z" fill="#001A4A"/>
</svg>
