<svg width="60" height="60" viewBox="0 0 60 60" fill="none" xmlns="http://www.w3.org/2000/svg">
<path d="M38.3835 35.8716C40.2848 31.2192 38.0546 25.9064 33.4022 24.0052C28.7498 22.1039 23.437 24.3342 21.5358 28.9865C19.6345 33.6389 21.8648 38.9517 26.5171 40.8529C31.1695 42.7542 36.4823 40.524 38.3835 35.8716Z" fill="#57c2b4"/>
<path d="M30.0003 41.2999C32.3003 41.3999 34.7003 40.2999 36.1003 38.4999C37.6003 36.6999 38.2003 34.4999 38.1003 32.3999C38.0003 30.2999 37.0003 28.2999 35.5003 26.9999C34.0003 25.5999 32.0003 24.8999 30.0003 24.9999C28.0003 25.0999 26.2003 25.9999 25.0003 27.4999C23.8003 28.8999 23.1003 30.6999 22.9003 32.4999C22.8003 34.2999 23.1003 36.2999 24.3003 38.1999C24.9003 39.0999 25.7003 39.8999 26.7003 40.4999C27.7003 40.9999 28.8003 41.2999 30.0003 41.2999ZM30.0003 41.6999C27.6003 41.7999 25.0003 41.1999 22.8003 39.5999C21.7003 38.7999 20.7003 37.7999 20.1003 36.4999C19.4003 35.2999 19.0003 33.7999 18.9003 32.3999C18.8003 29.4999 20.0003 26.4999 22.2003 24.5999C24.3003 22.5999 27.2003 21.5999 30.0003 21.6999C32.8003 21.7999 35.5003 22.9999 37.4003 24.9999C39.3003 26.9999 40.2003 29.6999 40.1003 32.3999C40.0003 35.0999 38.7003 37.4999 36.7003 39.0999C34.8003 40.7999 32.4003 41.5999 30.0003 41.6999Z" fill="#001A4A"/>
<path d="M44.8 53.1C44 49.9 42.2 47 39.6 44.9C36.9 42.7 33.5 41.5 29.9 41.5C26.3 41.5 23 42.7 20.2 44.9C17.6 47 15.8 49.9 15 53.1C15.8 53.4 16.6 53.5 17.4 53.6C21.4 54.1 25.6 54.4 29.8 54.4C34 54.4 38.2 54 42.2 53.6C43.3 53.6 44.1 53.4 44.8 53.1Z" fill="#57c2b4"/>
<path d="M44.7 52.9999C44.6 52.7999 44.5 52.6999 44.5 52.4999L44.2 51.9999C44 51.5999 43.9 51.1999 43.7 50.8999C43.3 50.1999 42.9 49.4999 42.4 48.7999C41.4 47.4999 40.3 46.2999 39 45.3999C36.4 43.4999 33.1 42.5999 30 42.6999C26.9 42.7999 23.8 43.9999 21.5 45.9999C19.1 47.9999 17.5 50.6999 17 53.6999L15.8 51.4999C16.8 51.7999 17.8 51.7999 19.1 51.8999L22.8 52.1999C25.2 52.3999 27.7 52.5999 30.1 52.7999C32.5 52.8999 35 52.9999 37.4 52.9999L41.1 53.0999L43 53.1999C43.3 53.1999 43.6 53.1999 43.9 53.1999H44.4C44.5 52.9999 44.7 52.8999 44.7 52.9999ZM45 53.1999C44.7 53.3999 44.6 53.3999 44.5 53.4999L44 53.7999C43.7 53.8999 43.4 53.9999 43.1 54.0999C42.5 54.2999 41.9 54.3999 41.2 54.5999C40 54.8999 38.7 55.1999 37.5 55.3999C35 55.8999 32.5 56.1999 29.9 56.2999C27.3 56.3999 24.8 56.3999 22.3 56.1999C21 56.0999 19.8 55.8999 18.5 55.6999C17.3 55.4999 15.8 55.2999 14.5 54.7999L13 54.1999L13.4 52.6999C14.4 49.0999 16.7 45.7999 19.7 43.6999C22.7 41.4999 26.4 40.3999 30 40.4999C33.6 40.5999 37.1 41.9999 39.8 44.2999C41.1 45.3999 42.3 46.7999 43.2 48.2999C43.6 48.9999 44 49.7999 44.3 50.5999C44.5 50.9999 44.6 51.3999 44.7 51.7999L44.9 52.3999C45 52.6999 45 52.9999 45 53.1999Z" fill="#001A4A"/>
<path d="M50.4001 29.9C50.4001 29.6 50.5001 29.4 50.6001 29.2L51.0001 28.7L51.8001 27.6L53.3001 25.5C54.3001 24.2 54.3001 22.5 53.3001 21.2L52.0001 18.9C51.8001 18.5 51.6001 18.2 51.3001 18C51.1001 17.7 50.8001 17.5 50.5001 17.4C49.9001 17.1 49.2001 17 48.5001 17.1L46.0001 17.6L44.7001 17.8H44.0001C43.9001 17.8 43.3001 17.9 42.9001 17.8C42.4001 17.6 42.3001 17.5 42.1001 17.4L41.5001 17.1L40.3001 16.5L38.0001 15.3L37.5001 15L37.2001 14.8C37.1001 14.7 37.1001 14.8 36.8001 14.6C36.6001 14.5 36.4001 14.3 36.3001 14.1C36.2001 13.9 36.0001 13.6 36.0001 13.5L35.7001 12.9L34.7001 10.5L34.2001 9.29995C34.1001 8.99995 33.9001 8.79995 33.7001 8.59995C33.3001 8.19995 32.8001 7.89995 32.3001 7.79995C32.2001 7.79995 32.0001 7.79995 31.9001 7.79995H31.4001H30.1001H28.8001H28.5001C28.4001 7.79995 28.4001 7.79995 28.3001 7.79995C28.2001 7.79995 28.0001 7.79995 27.9001 7.89995C27.4001 7.99995 27.0001 8.29995 26.7001 8.69995C26.5001 8.89995 26.4001 9.09995 26.4001 9.39995L26.0001 10.6L25.1001 13.1L24.9001 13.7V13.8L24.6001 14C24.5001 14.2 24.4001 14.3 24.4001 14.4C24.2001 14.7 24.0001 14.9 23.7001 15.1C23.6001 15.1 23.6001 15.2 23.5001 15.2L23.4001 15.3L23.3001 15.4L23.0001 15.6L22.4001 16L20.1001 17.3L19.0001 18L18.4001 18.3L18.1001 18.5L17.9001 18.6C17.7001 18.7 17.6001 18.7 17.4001 18.8C17.1001 18.9 16.7001 19 16.4001 18.9C16.3001 18.9 16.2001 18.9 16.1001 18.9H15.9001H15.7001L15.1001 18.8L13.8001 18.6L11.4001 18C10.9001 17.9 10.4001 18 10.0001 18.2C9.80011 18.3 9.60011 18.4 9.40011 18.6C9.20011 18.8 9.10011 18.9 8.80011 19.4C8.30011 20.1 7.80011 20.8 7.30011 21.6C7.20011 21.7 7.10011 21.7999 7.00011 22C6.90011 22.1 6.90011 22.3 6.80011 22.4C6.70011 22.7 6.60011 23 6.60011 23.2999C6.50011 23.9 6.70011 24.6 7.00011 25.2L8.40011 27.4L9.10011 28.5L9.40011 29.1C9.60011 29.3 9.60011 29.6 9.60011 29.9H9.20011C9.20011 29.7 9.10011 29.6 8.90011 29.5L8.50011 29L7.50011 28.1L5.60011 26.2999C4.90011 25.5 4.40011 24.5 4.20011 23.4C4.10011 22.8 4.20011 22.3 4.30011 21.7C4.40011 21.4 4.40011 21.1 4.50011 20.9C4.60011 20.6 4.70011 20.4 4.80011 20.2C5.20011 19.4 5.50011 18.6 5.90011 17.8C6.10011 17.5 6.40011 16.9 6.80011 16.4C7.20011 15.9 7.70011 15.5 8.20011 15.2C9.20011 14.5 10.5001 14.2 11.8001 14.3L14.5001 14.6L15.8001 14.8L16.4001 14.9H16.6001H16.5001H16.4001C16.3001 14.9 16.2001 14.9 16.0001 14.9C15.9001 14.9 15.9001 14.9 15.8001 15C15.7001 15 15.8001 15 15.8001 15H15.9001L16.2001 14.8L16.8001 14.5L17.9001 13.8L20.2001 12.5L20.8001 12.2L21.1001 12L21.2001 11.9H21.3001L21.2001 12C21.1001 12.1 21.0001 12.2 21.0001 12.3L20.9001 12.4V12.5V12.4L21.2001 11.8L22.3001 9.39995L22.8001 8.19995C23.1001 7.59995 23.4001 7.09995 23.8001 6.59995C24.6001 5.69995 25.8001 4.99995 27.0001 4.79995C27.3001 4.69995 27.6001 4.69995 27.9001 4.69995C28.0001 4.69995 28.2001 4.69995 28.3001 4.69995H28.6001H29.9001H31.2001H31.5001C31.6001 4.69995 31.8001 4.69995 31.9001 4.69995C32.2001 4.69995 32.5001 4.79995 32.8001 4.89995C34.0001 5.19995 35.0001 5.89995 35.8001 6.79995C36.2001 7.29995 36.5001 7.79995 36.7001 8.29995L37.2001 9.59995L38.1001 12.1L38.3001 12.7C38.4001 12.9 38.3001 12.7 38.3001 12.7C38.3001 12.7 38.3001 12.7 38.2001 12.6L39.2001 13.2L41.4001 14.6L42.5001 15.3L43.1001 15.6C43.3001 15.7 43.6001 15.9 43.5001 15.8C43.3001 15.8 43.9001 15.8 44.3001 15.7L45.6001 15.5L48.2001 15.2C49.3001 15.1 50.3001 15.4 51.2001 15.9C51.6001 16.2 52.0001 16.5 52.4001 16.9C52.7001 17.3 53.0001 17.8 53.2001 18.1L54.4001 20.4C54.9001 21.2 55.2001 22.2 55.1001 23.2C55.0001 24.2 54.6001 25.0999 54.0001 25.7999L52.3001 27.7999L51.4001 28.7999L51.0001 29.4C50.9001 29.5 50.8001 29.7 50.8001 29.9H50.4001Z" fill="#001A4A"/>
</svg>
