<svg width="60" height="60" viewBox="0 0 60 60" fill="none" xmlns="http://www.w3.org/2000/svg">
<path d="M6.6001 37.5L7.0001 47.3C7.0001 48.1 7.0001 48.9 7.2001 49.6C7.4001 50.3 7.6001 51 8.0001 51.7C8.7001 53 9.8001 54.1 11.1001 54.7C11.7001 55 12.4001 55.3 13.1001 55.5C13.4001 55.6 13.8001 55.6 14.2001 55.7C14.6001 55.7 14.9001 55.7 15.3001 55.7L20.2001 55.6L30.0001 55.3C33.3001 55.2 36.5001 55.1 39.8001 54.9C41.4001 54.8 43.1001 54.8 44.7001 54.8H45.0001H45.2001H45.7001C46.0001 54.7 46.3001 54.7 46.6001 54.6C47.2001 54.5 47.8001 54.3 48.3001 53.9C49.4001 53.3 50.4001 52.4 51.0001 51.3C51.4001 50.8 51.6001 50.1 51.8001 49.5C51.9001 49.2 52.0001 48.8 52.0001 48.5C52.1001 48.2 52.1001 47.7 52.1001 47.3C52.4001 44 52.7001 40.8 53.3001 37.5H53.7001C54.3001 40.8 54.6001 44 54.9001 47.3C54.9001 47.7 55.0001 48.1 55.0001 48.6C55.0001 49.1 55.0001 49.6 54.9001 50C54.8001 51 54.5001 51.9 54.1001 52.8C53.3001 54.6 51.9001 56.2 50.3001 57.3C49.4001 57.8 48.5001 58.3 47.5001 58.5C47.0001 58.7 46.5001 58.7 46.0001 58.8C45.7001 58.8 45.5001 58.8 45.2001 58.8H44.8001H44.5001C42.9001 58.8 41.2001 58.8 39.6001 58.7C36.3001 58.6 33.1001 58.4 29.8001 58.3L20.0001 58L15.1001 57.9C13.3001 57.9 11.4001 57.4 9.9001 56.4C8.4001 55.4 7.1001 54 6.4001 52.4C6.0001 51.6 5.8001 50.7 5.7001 49.8C5.6001 48.9 5.6001 48 5.6001 47.2L6.0001 37.4H6.6001V37.5Z" fill="#001A4A"/>
<path d="M36.6002 37.5C36.9002 39.1 37.1002 40.7 37.4002 42.3C37.6002 43.9 37.8002 45.5 38.0002 47.1C38.2002 48.7 38.7002 50.3 38.4002 51.9C38.1002 53.5 37.7002 55.1 36.6002 56.7H36.2002C35.1002 55.1 34.7002 53.5 34.4002 51.9C34.1002 50.3 34.6002 48.7 34.8002 47.1C35.0002 45.5 35.2002 43.9 35.4002 42.3C35.7002 40.7 35.9002 39.1 36.2002 37.5H36.6002Z" fill="#001A4A"/>
<path d="M6.3999 42.7C8.8999 42.4 11.3999 42.2 13.8999 41.9C16.3999 41.7 18.8999 41.4999 21.3999 41.2999C22.6999 41.1999 23.8999 41.1 25.1999 40.9C26.4999 40.8 27.6999 40.8 28.9999 40.9C30.2999 41 31.4999 41.1999 32.7999 41.4999C34.0999 41.7999 35.2999 42.1 36.5999 42.7V43.0999C35.2999 43.6999 34.0999 43.9999 32.7999 44.2999C31.4999 44.5999 30.2999 44.8 28.9999 44.9C27.6999 45 26.4999 45 25.1999 44.9C23.8999 44.8 22.6999 44.5999 21.3999 44.4999C18.8999 44.2999 16.3999 44.1 13.8999 43.9C11.3999 43.6 8.8999 43.3999 6.3999 43.0999V42.7Z" fill="#001A4A"/>
<path d="M15.0998 28.5C18.2998 28.5 21.1998 26.9 22.9998 24.5C24.7998 26.9 27.6998 28.5 30.8998 28.5C34.0998 28.5 36.9998 26.9 38.7998 24.5C40.5998 26.9 43.4998 28.5 46.6998 28.5C52.1998 28.5 56.5998 24.1 56.5998 18.6C56.5998 16 54.5998 7.80005 46.6998 4.60005C34.3998 2.70005 27.4998 2.70005 15.0998 4.60005C7.1998 7.80005 5.2998 16 5.2998 18.7C5.2998 24.1 9.6998 28.5 15.0998 28.5Z" fill="#57c2b4"/>
<path d="M15.1 28.3C16.6 28.3 18.1 28 19.4 27.3C20.7 26.6 21.9 25.6 22.8 24.4L23 24.2L23.2 24.4C24.1 25.6 25.3 26.5 26.7 27.2C28 27.8 29.5 28.1 31 28C33.9 27.9 36.7 26.3 38.3 24L38.9 23.1L39.6 24C41.7 26.6 45.1 27.9 48.2 27.3C49.8 27 51.2 26.3 52.4 25.3C53.6 24.3 54.5 22.9 55 21.4C55.2 20.7 55.4 19.9 55.4 19.1V18.5C55.4 18.3 55.4 18.1 55.4 18C55.4 17.6 55.3 17.2 55.2 16.8C54.8 15.2 54.2 13.6 53.4 12.2C51.8 9.40001 49.3 7.10001 46.3 6.00001L46.7 6.10001C44.1 5.80001 41.5 5.40001 38.9 5.30001C36.3 5.10001 33.7 5.00001 31.1 5.10001C25.9 5.20001 20.8 5.80001 15.6 6.50001L16 6.40001C13.7 7.30001 11.7 8.70001 10 10.6C8.30001 12.6 7.00001 15 6.40001 17.5C5.80001 19.9 6.40001 22.7 8.10001 24.8C9.70001 27 12.4 28.3 15.1 28.3ZM15.1 28.7C12.2 28.7 9.40001 27.6 7.30001 25.5C5.20001 23.4 4.00001 20.4 4.30001 17.2C4.60001 14.2 5.60001 11.3 7.20001 8.70001C8.10001 7.40001 9.10001 6.20001 10.3 5.20001C11.5 4.20001 12.9 3.40001 14.3 2.70001L14.4 2.60001L14.7 2.50001C20.1 1.80001 25.5 1.10001 31 1.20001C36.4 1.30001 41.8 2.10001 47 3.00001H47.2L47.3 3.10001C49.1 3.90001 50.8 5.00001 52.2 6.30001C53.6 7.60001 54.8 9.20001 55.7 10.9C56.6 12.6 57.2 14.4 57.6 16.3C57.7 16.8 57.8 17.3 57.8 17.8C57.8 18 57.8 18.3 57.8 18.6V19.4C57.7 20.4 57.5 21.4 57.2 22.3C56.5 24.2 55.3 25.9 53.8 27.1C52.2 28.3 50.4 29.2 48.4 29.4C46.4 29.7 44.4 29.4 42.6 28.6C40.8 27.8 39.2 26.5 38.1 25H39.4C38.4 26.3 37 27.3 35.5 28C34 28.7 32.4 29 30.8 28.9C27.6 28.8 24.5 27.1 22.7 24.6H23C21.3 27.2 18.3 28.7 15.1 28.7Z" fill="#001A4A"/>
<path d="M5.8999 14.8C10.0999 14.5 14.1999 14.3 18.3999 14C22.5999 13.8 26.6999 13.6 30.8999 13.4C35.0999 13.2 39.1999 12.7 43.3999 13C45.4999 13.1 47.5999 13.3 49.6999 13.6C51.7999 13.9 53.8999 14.2 55.9999 14.8V15.2C53.8999 15.8 51.7999 16.1 49.6999 16.4C47.5999 16.7 45.4999 16.9 43.3999 17C39.1999 17.3 35.0999 16.8 30.8999 16.6C26.6999 16.4 22.5999 16.2 18.3999 16C14.1999 15.7 10.0999 15.5 5.8999 15.2V14.8Z" fill="#001A4A"/>
</svg>
