<svg width="60" height="60" viewBox="0 0 60 60" fill="none" xmlns="http://www.w3.org/2000/svg">
<g clip-path="url(#clip0_3389_22006)">
<rect width="60" height="60" rx="10" fill="white"/>
<path d="M17.7998 13.7C17.1998 14.7 16.5998 15.7 15.9998 16.7L14.9998 18.2L13.9998 19.6C13.6998 20.1 13.3998 20.6 13.0998 21.1C12.7998 21.6 12.3998 22 11.8998 22.3C11.3998 22.6 10.8998 22.9 10.1998 23.1C9.5998 23.3 8.8998 23.4 8.0998 23.4C7.8998 23.4 7.7998 23.3 7.7998 23.1C7.7998 22.3 7.8998 21.6 8.0998 21C8.2998 20.4 8.4998 19.8 8.8998 19.3C9.1998 18.8 9.5998 18.4 10.0998 18.1C10.5998 17.8 11.0998 17.5 11.5998 17.2L12.9998 16.2L14.4998 15.2C15.4998 14.6 16.4998 14 17.4998 13.4C17.5998 13.3 17.6998 13.4 17.7998 13.5C17.7998 13.5 17.7998 13.6 17.7998 13.7Z" fill="#001A4A"/>
<path d="M34.9002 16.7C34.0002 16.8 33.2002 16.9 32.3002 16.9H31.0002H29.7002C29.3002 16.9 28.8002 16.9 28.4002 17C28.0002 17 27.6002 16.9 27.2002 16.7C26.8002 16.5 26.5002 16.2 26.2002 15.8C25.9002 15.4 25.6002 14.9 25.3002 14.2C25.2002 14 25.3002 13.9 25.4002 13.8C26.0002 13.3 26.4002 13 26.9002 12.9C27.4002 12.7 27.8002 12.6 28.2002 12.6C28.6002 12.6 29.0002 12.7 29.4002 12.9C29.8002 13.1 30.1002 13.4 30.5002 13.6L31.6002 14.2L32.7002 14.9C33.4002 15.4 34.2002 15.8 34.9002 16.4C35.0002 16.5 35.0002 16.6 34.9002 16.7C35.1002 16.7 35.0002 16.7 34.9002 16.7Z" fill="#001A4A"/>
<path d="M50.2998 8.3C49.7998 9.1 49.1998 9.9 48.6998 10.7L47.7998 11.8L46.8998 12.9C46.5998 13.3 46.2998 13.7 46.0998 14.1C45.7998 14.5 45.4998 14.8 44.9998 15C44.5998 15.2 44.0998 15.3 43.4998 15.3C42.9998 15.3 42.3998 15.3 41.5998 15.1C41.3998 15.1 41.2998 14.9 41.2998 14.8C41.2998 14 41.3998 13.5 41.5998 12.9C41.7998 12.4 41.9998 11.9 42.2998 11.6C42.5998 11.2 42.8998 10.9 43.3998 10.8C43.7998 10.6 44.2998 10.5 44.6998 10.3L45.9998 9.5L47.2998 9C48.1998 8.6 49.0998 8.3 49.9998 8C50.0998 8 50.1998 8 50.2998 8.1C50.2998 8.2 50.2998 8.3 50.2998 8.3Z" fill="#001A4A"/>
<path d="M21.5 16C23.433 16 25 14.433 25 12.5C25 10.567 23.433 9 21.5 9C19.567 9 18 10.567 18 12.5C18 14.433 19.567 16 21.5 16Z" fill="#57c2b4"/>
<path d="M21.4998 15.8C22.3998 15.9 23.2998 15.4 23.6998 14.7C24.0998 14 24.0998 13.2 23.9998 12.5C23.7998 11.2 22.4998 10.5 21.5998 10.7C21.0998 10.8 20.7998 11.2 20.5998 11.5C20.3998 11.9 20.3998 12.1 20.1998 12.5C20.0998 12.8 19.7998 13.4 19.8998 14.2C19.8998 14.9 20.5998 15.7 21.4998 15.8ZM21.4998 16.2C20.4998 16.3 19.3998 16.3 18.1998 15.8C17.5998 15.5 16.9998 15.1 16.5998 14.5C16.1998 13.9 15.8998 13.2 15.7998 12.5C15.6998 11 16.2998 9.5 17.4998 8.5C18.5998 7.6 20.0998 7.2 21.4998 7.3C22.8998 7.4 24.0998 8 24.9998 9C25.7998 10 26.1998 11.3 26.0998 12.5C25.9998 13.7 25.1998 14.7 24.2998 15.3C23.3998 15.9 22.4998 16.1 21.4998 16.2Z" fill="#001A4A"/>
<path d="M53.5 10C55.433 10 57 8.433 57 6.5C57 4.567 55.433 3 53.5 3C51.567 3 50 4.567 50 6.5C50 8.433 51.567 10 53.5 10Z" fill="#57c2b4"/>
<path d="M53.4998 9.8C54.3998 9.9 55.2998 9.4 55.6998 8.7C56.0998 8 56.0998 7.2 55.9998 6.5C55.7998 5.2 54.4998 4.5 53.5998 4.7C53.0998 4.8 52.7998 5.2 52.5998 5.5C52.3998 5.9 52.3998 6.1 52.1998 6.5C52.0998 6.8 51.7998 7.4 51.8998 8.2C51.8998 8.9 52.5998 9.7 53.4998 9.8ZM53.4998 10.2C52.4998 10.3 51.3998 10.3 50.1998 9.8C49.5998 9.5 48.9998 9.1 48.5998 8.5C48.1998 7.9 47.8998 7.2 47.7998 6.5C47.6998 5 48.2998 3.5 49.4998 2.5C50.5998 1.6 52.0998 1.2 53.4998 1.3C54.8998 1.4 56.0998 2 56.9998 3C57.7998 4 58.1998 5.3 58.0998 6.5C57.9998 7.7 57.1998 8.7 56.2998 9.3C55.3998 9.9 54.4998 10.1 53.4998 10.2Z" fill="#001A4A"/>
<path d="M38.5 21C40.433 21 42 19.433 42 17.5C42 15.567 40.433 14 38.5 14C36.567 14 35 15.567 35 17.5C35 19.433 36.567 21 38.5 21Z" fill="#57c2b4"/>
<path d="M38.4998 20.8C39.3998 20.9 40.2998 20.4 40.6998 19.7C41.0998 19 41.0998 18.2 40.9998 17.5C40.7998 16.2 39.4998 15.5 38.5998 15.7C38.0998 15.8 37.7998 16.2 37.5998 16.5C37.3998 16.9 37.3998 17.1 37.1998 17.5C37.0998 17.8 36.7998 18.4 36.8998 19.2C36.8998 19.9 37.5998 20.7 38.4998 20.8ZM38.4998 21.2C37.4998 21.3 36.3998 21.3 35.1998 20.8C34.5998 20.5 33.9998 20.1 33.5998 19.5C33.1998 18.9 32.8998 18.2 32.7998 17.5C32.6998 16 33.2998 14.5 34.4998 13.5C35.5998 12.6 37.0998 12.2 38.4998 12.3C39.8998 12.4 41.0998 13.1 41.9998 14C42.7998 15 43.1998 16.3 43.0998 17.5C42.9998 18.7 42.1998 19.7 41.2998 20.3C40.3998 20.9 39.4998 21.1 38.4998 21.2Z" fill="#001A4A"/>
<path d="M6.5 30C8.433 30 10 28.433 10 26.5C10 24.567 8.433 23 6.5 23C4.567 23 3 24.567 3 26.5C3 28.433 4.567 30 6.5 30Z" fill="#57c2b4"/>
<path d="M6.49981 29.8C7.39981 29.9 8.29981 29.4 8.69981 28.7C9.09981 28 9.09981 27.2 8.99981 26.5C8.79981 25.2 7.49981 24.5 6.59981 24.7C6.09981 24.8 5.79981 25.2 5.59981 25.5C5.39981 25.9 5.39981 26.1 5.19981 26.5C5.09981 26.8 4.79981 27.4 4.89981 28.2C4.89981 28.9 5.59981 29.7 6.49981 29.8ZM6.49981 30.2C5.49981 30.3 4.39981 30.3 3.19981 29.8C2.59981 29.5 1.99981 29.1 1.59981 28.5C1.19981 27.9 0.899814 27.2 0.799814 26.5C0.699814 25 1.29981 23.5 2.49981 22.5C3.59981 21.6 5.09981 21.2 6.49981 21.3C7.89981 21.4 9.09981 22 9.99981 23C10.7998 24 11.1998 25.3 11.0998 26.5C10.9998 27.7 10.1998 28.7 9.29981 29.3C8.39981 29.9 7.49981 30.1 6.49981 30.2Z" fill="#001A4A"/>
<path d="M2.9998 56.8C7.4998 56.5 11.9998 56.2 16.4998 55.9L23.2998 55.5L30.0998 55.2C32.3998 55.1 34.5998 54.9 36.8998 54.8C39.1998 54.7 41.3998 54.7 43.6998 54.8C45.9998 54.9 48.1998 55.1 50.4998 55.4C52.7998 55.7 54.9998 56.1 57.2998 56.7C57.3998 56.7 57.4998 56.9 57.4998 57C57.4998 57.1 57.3998 57.1 57.2998 57.2C54.9998 57.8 52.7998 58.2 50.4998 58.5C48.1998 58.8 45.9998 59 43.6998 59.1C41.3998 59.2 39.1998 59.2 36.8998 59.1C34.5998 59 32.3998 58.8 30.0998 58.7L23.2998 58.4L16.4998 58C11.9998 57.7 7.4998 57.5 2.9998 57.1C2.8998 57.1 2.7998 57 2.7998 56.9C2.7998 56.9 2.8998 56.8 2.9998 56.8Z" fill="#001A4A"/>
<path d="M16.2 43H8.8C8.3 43 7.9 43.2 7.5 43.5C7.2 43.9 7 44.3 7 44.8V56H18V44.8C18 44.3 17.8 43.9 17.5 43.5C17.1 43.2 16.7 43 16.2 43Z" fill="#57c2b4"/>
<path d="M16.1999 43.2C14.3999 43.1 12.5999 43.2 10.8999 43.4L9.5999 43.6L8.8999 43.7C8.7999 43.7 8.5999 43.8 8.4999 43.9C8.1999 44 7.9999 44.2 7.9999 44.4C7.9999 44.5 7.9999 44.6 7.9999 44.7V45.3C8.0999 47.1 8.1999 48.9 8.2999 50.6C8.3999 52.4 8.4999 54.2 8.5999 55.9L6.9999 54.4C8.7999 54.3 10.6999 54.2 12.4999 54.1C14.2999 54 16.1999 53.8 17.9999 53.8L15.7999 56C15.7999 54.8 15.8999 53.7 15.9999 52.5C16.0999 51.3 16.3999 50.2 16.5999 49C16.8999 47.8 17.1999 46.7 17.3999 45.5C17.4999 45.2 17.4999 44.9 17.5999 44.7C17.5999 44.5 17.5999 44.3 17.4999 44C17.1999 43.5 16.6999 43.2 16.1999 43.2ZM16.1999 42.8C16.8999 42.8 17.4999 43 17.9999 43.6C18.1999 43.9 18.3999 44.2 18.4999 44.6C18.4999 44.8 18.5999 45 18.5999 45.1L18.6999 45.5C18.8999 46.7 19.1999 47.8 19.4999 49C19.7999 50.2 19.9999 51.3 20.0999 52.5C20.1999 53.7 20.2999 54.8 20.2999 56C20.2999 57.2 19.2999 58.2 18.0999 58.2C16.2999 58.2 14.3999 58.1 12.5999 57.9C10.7999 57.8 8.8999 57.7 7.0999 57.6H6.8999C6.0999 57.6 5.3999 56.8 5.3999 56C5.4999 54.2 5.5999 52.4 5.6999 50.7C5.7999 48.9 5.8999 47.1 5.9999 45.4L6.0999 44.7C6.1999 44.4 6.2999 44 6.3999 43.7C6.6999 43.1 7.2999 42.7 7.8999 42.6C8.1999 42.5 8.4999 42.5 8.7999 42.5L9.4999 42.6L10.7999 42.8C12.5999 42.8 14.3999 42.9 16.1999 42.8Z" fill="#001A4A"/>
<path d="M33.3004 27H26.6004C26.2004 27 25.7004 27.2 25.4004 27.5C25.1004 27.8 24.9004 28.3 24.9004 28.7V56H34.9004V28.7C34.9004 28.2 34.7004 27.8 34.4004 27.5C34.2004 27.2 33.8004 27 33.3004 27Z" fill="#57c2b4"/>
<path d="M33.3002 27.2C31.8002 27.2 30.3002 27.2 28.7002 27.2C28.0002 27.2 27.1002 27.2 26.5002 27.3C25.9002 27.4 25.4002 28 25.4002 28.6C25.6002 31.6 25.9002 34.7 26.0002 37.7L26.7002 56L25.0002 54.3C28.3002 54.2 31.7002 54.1 35.0002 53.9L32.9002 56C32.8002 53.5 32.7002 51 32.7002 48.5C32.7002 46 32.8002 43.5 33.1002 41C33.3002 38.5 33.7002 36 34.1002 33.5C34.3002 32.3 34.4002 31 34.5002 29.8L34.6002 28.9C34.6002 28.6 34.6002 28.4 34.5002 28.1C34.4002 27.6 33.9002 27.2 33.3002 27.2ZM33.3002 26.8C34.0002 26.8 34.7002 27.2 35.1002 27.8C35.3002 28.1 35.4002 28.5 35.4002 28.8L35.5002 29.7C35.6002 30.9 35.8002 32.2 35.9002 33.4C36.2002 35.9 36.6002 38.4 36.9002 40.9C37.2002 43.4 37.2002 45.9 37.3002 48.4C37.3002 50.9 37.3002 53.4 37.1002 55.9V56.1C37.0002 57.2 36.1002 58 35.0002 58C31.7002 57.8 28.3002 57.7 25.0002 57.6H24.9002C24.0002 57.6 23.3002 56.8 23.4002 55.9L24.0002 37.7C24.1002 34.6 24.4002 31.6 24.6002 28.5C24.7002 27.6 25.5002 26.8 26.4002 26.7C27.2002 26.7 27.9002 26.8 28.7002 26.8C30.3002 26.8 31.8002 26.8 33.3002 26.8Z" fill="#001A4A"/>
<path d="M51.2001 35H43.9001C43.4001 35 43.0001 35.2 42.6001 35.5C42.3001 35.8 42.1001 36.3 42.1001 36.8V56H53.1001V36.9C53.1001 36.4 52.9001 35.9 52.6001 35.6C52.3001 35.3 51.7001 35 51.2001 35Z" fill="#57c2b4"/>
<path d="M51.2002 35.2C48.8002 35.1 46.3002 35.2 43.9002 35.4C43.4002 35.4 43.0001 35.8 42.8001 36.2C42.7001 36.4 42.7002 36.6 42.7002 36.8L42.8001 37.7C42.9001 38.9 43.0001 40.1 43.1001 41.4C43.4001 46.3 43.6002 51.2 43.7002 56.1L42.0002 54.4C43.8002 54.3 45.7002 54.2 47.5002 54.2C49.3002 54.1 51.2002 54 53.0002 53.9L50.8001 56C50.7001 54.2 50.7001 52.3 50.8001 50.5C50.9001 48.7 51.0001 46.8 51.3001 45C51.6001 43.2 51.9002 41.3 52.2002 39.5C52.3002 38.6 52.5001 37.6 52.6001 36.8C52.7001 36 52.0002 35.2 51.2002 35.2ZM51.2002 34.8C52.2002 34.7 53.3002 35.6 53.4002 36.7C53.5002 37.7 53.6001 38.6 53.8001 39.5C54.1001 41.3 54.5002 43.2 54.7002 45C55.0002 46.8 55.1002 48.7 55.2002 50.5C55.3002 52.3 55.3002 54.2 55.2002 56V56.1C55.2002 57.3 54.2002 58.2 53.0002 58.1C51.2002 58 49.3002 57.9 47.5002 57.8C45.7002 57.7 43.8002 57.6 42.0002 57.6H41.9002C41.0002 57.6 40.3002 56.8 40.4002 56C40.6002 51.1 40.8002 46.2 41.0002 41.3C41.1002 40.1 41.2001 38.9 41.3001 37.6L41.4002 36.6C41.5002 36.2 41.6002 35.8 41.9002 35.5C42.4002 34.8 43.2002 34.5 43.9002 34.5C46.3002 34.8 48.7002 34.9 51.2002 34.8Z" fill="#001A4A"/>
</g>
<defs>
<clipPath id="clip0_3389_22006">
<rect width="60" height="60" fill="white"/>
</clipPath>
</defs>
</svg>
