<svg width="60" height="60" viewBox="0 0 60 60" fill="none" xmlns="http://www.w3.org/2000/svg">
<path d="M27.7002 21.4C27.4002 19.9 27.2002 18.4 26.9002 16.8C26.7002 15.3 26.5002 13.8 26.3002 12.2C26.1002 10.7 25.6002 9.2 25.9002 7.6C26.2002 6.1 26.6002 4.6 27.7002 3H28.1002C29.2002 4.5 29.6002 6 29.9002 7.6C30.2002 9.1 29.7002 10.6 29.5002 12.2C29.3002 13.7 29.1002 15.2 28.9002 16.8C28.6002 18.3 28.4002 19.8 28.1002 21.4H27.7002Z" fill="#001A4A"/>
<path d="M30.0999 38.3C31.7999 39.6 33.6999 40.6001 35.5999 41.4001L36.9999 42L38.4999 42.5L39.9999 43L41.4999 43.4001C41.9999 43.5001 42.4999 43.6001 42.9999 43.7001L44.4999 43.9001C45.4999 44.0001 46.4999 44.2 47.4999 44.5C48.4999 44.8 49.4999 45.1 50.4999 45.5C51.4999 45.9 52.4999 46.2 53.5999 46.8V47.2001C52.4999 47.7001 51.3999 48.1 50.2999 48.3C49.6999 48.4 49.1999 48.5 48.5999 48.5C47.9999 48.5 47.4999 48.5 46.8999 48.5C45.7999 48.4 44.6999 48.2 43.5999 47.8L41.9999 47.2001C41.4999 47.0001 40.9999 46.7 40.4999 46.5C38.3999 45.6 36.4999 44.5001 34.6999 43.2001C32.8999 41.8001 31.2999 40.4 29.8999 38.6L30.0999 38.3Z" fill="#001A4A"/>
<path d="M11.4001 57.8L11.2001 54.3C11.1001 53.1 11.0001 52 10.7001 50.9C10.2001 48.7 9.3001 46.6 7.9001 44.8C6.6001 42.9 5.2001 40.9 4.0001 38.6C2.9001 36.3 2.2001 33.9 1.8001 31.4C1.4001 28.9 1.2001 26.5 1.1001 24C1.1001 21.5 1.4001 19 2.3001 16.5C2.7001 15.3 3.3001 14.1 3.9001 13C4.6001 11.9 5.3001 10.8 6.2001 9.9C8.0001 8 10.2001 6.7 12.5001 6L12.7001 6.3C11.0001 8 9.5001 9.7 8.4001 11.6C7.3001 13.5 6.5001 15.5 6.1001 17.6C5.6001 19.7 5.3001 21.9 5.1001 24.1C5.0001 26.4 4.9001 28.8 5.1001 31C5.3001 33.2 5.7001 35.4 6.5001 37.5C7.3001 39.6 8.4001 41.6 9.6001 43.7C10.9001 45.8 11.6001 48.3 11.9001 50.7C12.0001 51.9 12.1001 53.1 12.0001 54.3L11.8001 57.8H11.4001Z" fill="#001A4A"/>
<path d="M49.6 39.4999L49.4 36.8999V36.4999H49.8L52.4 36.1999L53.1 36.0999C53.3 36.0999 53.5 36.0999 53.6 35.9999C53.9 35.8999 54.3 35.7999 54.5 35.4999C54.8 35.2999 55 34.9999 55.2 34.7999C55.3 34.5999 55.3 34.3999 55.3 34.0999C55.2 33.4999 54.9 32.7999 54.5 32.0999C53.7 30.6999 52.5 29.3999 51.4 27.9999C50.3 26.5999 49.2 25.1999 48.1 23.5999C47.6 22.7999 47.1 21.8999 46.7 20.7999L46.3 19.3999C46.2 18.9999 46.1 18.5999 46 18.1999C45.5 16.6999 45.1 15.1999 44.4 13.6999C43.8 12.2999 42.9 10.8999 42 9.5999C41 8.2999 39.8 7.0999 38.5 5.7999L38.7 5.3999C42.4 5.9999 45.8 8.4999 47.9 11.7999C48.9 13.4999 49.7 15.2999 50 17.1999C50.1 17.6999 50.2 18.0999 50.2 18.5999C50.2 19.0999 50.3 19.5999 50.3 19.7999C50.4 20.3999 50.6 21.0999 51 21.7999C51.7 23.2999 52.7 24.6999 53.6 26.1999C54.6 27.6999 55.6 29.1999 56.4 30.8999C56.8 31.7999 57.2 32.6999 57.1 33.8999C57.1 34.4999 56.9 35.1999 56.5 35.6999C56.2 36.0999 55.7 36.4999 55.3 36.6999C54.8 36.9999 54.3 37.0999 53.8 37.1999C53.5 37.1999 53.3 37.1999 53 37.1999H52.3L49.7 37.0999L50.1 36.6999L50 39.4999H49.6Z" fill="#001A4A"/>
<path d="M37.6002 52.5C37.9002 52.9 38.2002 53.4 38.4002 53.8C38.6002 54.2 38.8002 54.7 39.0002 55.1C39.2002 55.5 39.7002 56 39.4002 56.4C39.3002 56.6 39.1002 56.8 38.8002 57.1C38.5002 57.3 38.2002 57.5 37.6002 57.8H37.2002C36.6002 57.6 36.3002 57.4 36.0002 57.1C35.7002 56.9 35.5002 56.7 35.4002 56.4C35.1002 56 35.6002 55.5 35.8002 55.1C36.0002 54.7 36.2002 54.2 36.4002 53.8C36.6002 53.4 36.9002 52.9 37.2002 52.5H37.6002Z" fill="#001A4A"/>
<path d="M27.8998 38.5999C33.3998 38.5999 36.4998 35.4999 36.4998 29.9999C36.4998 24.4999 33.3998 21.3999 27.8998 21.3999C22.3998 21.3999 19.2998 24.4999 19.2998 29.9999C19.2998 35.4999 22.3998 38.5999 27.8998 38.5999Z" fill="#57c2b4"/>
<path d="M27.8998 38.3999C28.9998 38.3999 30.1998 38.2999 31.1998 37.8999C32.2998 37.4999 33.1998 36.8999 33.8998 36.0999C35.2998 34.3999 35.4998 32.1999 35.3998 30.0999C35.2998 27.9999 34.5998 25.8999 33.1998 24.6999C31.7998 23.4999 29.7998 22.9999 27.7998 23.0999C25.7998 23.1999 23.8998 23.8999 22.8998 25.0999C21.8998 26.2999 21.3998 27.9999 21.2998 29.9999C21.1998 31.9999 21.2998 33.8999 22.2998 35.5999C22.7998 36.3999 23.5998 37.0999 24.5998 37.5999C25.5998 38.0999 26.6998 38.2999 27.8998 38.3999ZM27.8998 38.7999C26.6998 38.7999 25.5998 38.7999 24.2998 38.5999C23.0998 38.3999 21.8998 37.8999 20.7998 37.1999C19.6998 36.3999 18.7998 35.2999 18.1998 33.9999C17.5998 32.6999 17.3998 31.3999 17.2998 30.0999C17.2998 28.7999 17.3998 27.3999 17.7998 26.0999C18.1998 24.6999 18.9998 23.3999 20.0998 22.3999C21.1998 21.3999 22.5998 20.6999 23.8998 20.3999C25.1998 19.9999 26.5998 19.8999 27.7998 19.9999C29.0998 20.0999 30.3998 20.1999 31.5998 20.6999C32.8998 21.0999 34.0998 21.8999 34.9998 22.8999C35.8998 23.8999 36.5998 25.1999 36.8998 26.3999C37.1998 27.6999 37.2998 28.8999 37.2998 30.1999C37.1998 31.3999 36.9998 32.6999 36.4998 33.7999C35.9998 34.9999 35.2998 35.9999 34.2998 36.7999C32.5998 38.1999 30.1998 38.6999 27.8998 38.7999Z" fill="#001A4A"/>
</svg>
