<svg width="60" height="60" viewBox="0 0 60 60" fill="none" xmlns="http://www.w3.org/2000/svg">
<g clip-path="url(#clip0_3389_21806)">
<rect width="60" height="60" rx="10" fill="white"/>
<path d="M15.8999 10.6C15.8999 9.8 15.8999 9.1 15.8999 8.2C15.9999 7.4 16.2999 6.6 16.8999 5.9C17.3999 5.2 18.1999 4.7 18.9999 4.4C19.8999 4.1 20.5999 4.2 21.3999 4.1C24.4999 3.8 27.5999 3.6 30.6999 3.4C36.8999 3.1 43.0999 2.9 49.2999 3H50.4999C50.8999 3 51.1999 3 51.8999 3.1C52.9999 3.3 54.0999 3.8 54.8999 4.5C55.7999 5.2 56.3999 6.3 56.6999 7.4C56.7999 7.7 56.7999 8 56.8999 8.2L56.9999 8.9L57.0999 10.1C57.3999 13.2 57.4999 16.3 57.3999 19.5C57.2999 22.6 56.9999 25.7 56.5999 28.8C56.4999 29.6 56.3999 30.3 56.1999 31.1C56.0999 32 55.6999 33 55.0999 33.8C54.4999 34.5 53.6999 35.1 52.7999 35.3C52.3999 35.4 51.8999 35.5 51.4999 35.5C51.0999 35.5 50.6999 35.4 50.2999 35.4C50.1999 35.4 50.0999 35.3 50.0999 35.2C50.0999 35.1 50.1999 35 50.2999 35C51.0999 34.8 51.7999 34.6 52.2999 34.2C52.7999 33.8 53.1999 33.3 53.4999 32.8C53.5999 32.5 53.6999 32.2 53.6999 32C53.6999 31.7 53.6999 31.5 53.6999 31.1L53.5999 28.8L53.1999 19.6C53.0999 16.5 52.9999 13.5 52.9999 10.4V9.3V8.8C52.9999 8.7 52.9999 8.6 52.9999 8.5C52.8999 8.1 52.7999 7.7 52.4999 7.4C51.9999 7 51.6999 6.8 51.2999 6.7C51.1999 6.7 50.6999 6.6 50.3999 6.6L49.2999 6.5C46.0999 6.2 42.9999 6.1 39.9999 5.9C36.8999 5.7 33.7999 5.6 30.7999 5.6C27.6999 5.5 24.5999 5.4 21.5999 5.5C20.7999 5.5 19.9999 5.5 19.3999 5.6C18.7999 5.7 18.0999 6.1 17.6999 6.6C17.1999 7.1 16.8999 7.7 16.6999 8.4C16.5999 9.1 16.4999 9.9 16.3999 10.7C16.3999 10.8 16.2999 10.9 16.1999 10.9C15.9999 10.8 15.8999 10.7 15.8999 10.6Z" fill="#001A4A"/>
<path d="M22.1 20C18.2 20 14.1 20 10.6 20.5C7.9 20.9 5.8 22.9 5.3 25.6C5 27.6 5 29.6 5 33.1C5 36.6 5 38.6 5.3 40.6C5.8 43.3 7.9 45.3 10.6 45.7C14.2 46.2 18.2 46.2 22.1 46.2C26 46.2 30.1 46.2 33.6 45.7C36.3 45.3 38.4 43.3 38.9 40.6C39.2 38.6 39.2 36.6 39.2 33.1C39.2 29.6 39.2 27.6 38.9 25.6C38.4 22.9 36.3 20.9 33.6 20.5C30.1 20 26 20 22.1 20Z" fill="#57c2b4"/>
<path d="M22.1 20.2C19.9 20.2 17.6 20.2 15.4 20.3C14.3 20.4 13.2 20.5 12.1 20.6C11 20.8 9.9 20.9 9 21.5C8.1 22 7.3 22.7 6.8 23.6C6.5 24 6.4 24.5 6.2 25C6.1 25.2 6.1 25.5 6.1 25.7L6 26.5C5.9 28.6 6 30.9 6 33.1C6.1 35.3 6.1 37.6 6.4 39.7C6.4 40 6.5 40.2 6.5 40.5C6.6 40.7 6.6 40.9 6.7 41.1C6.8 41.5 7.1 41.9 7.3 42.3C7.8 43 8.5 43.6 9.3 43.9C9.7 44.1 10.1 44.2 10.5 44.3C11 44.4 11.5 44.4 12.1 44.5C13.2 44.6 14.3 44.6 15.4 44.6C17.6 44.6 19.8 44.6 22.1 44.5C24.3 44.4 26.6 44.4 28.8 44.2C29.9 44.1 31 44 32 43.9C32.5 43.8 33.1 43.7 33.5 43.6C33.9 43.5 34.2 43.4 34.5 43.2C35.2 42.9 35.7 42.3 36.1 41.7C36.3 41.4 36.4 41.1 36.5 40.7C36.6 40.5 36.6 40.4 36.6 40.2L36.7 39.5C36.9 37.5 36.9 35.3 37 33.1C37 30.9 37.2 28.6 37.2 26.6V25.8C37.2 25.6 37.2 25.4 37.1 25.2C37 24.8 36.9 24.4 36.7 24C36.3 23.2 35.7 22.5 34.9 22C34.5 21.7 34.1 21.6 33.6 21.4C33.1 21.3 32.5 21.1 32 21C30.9 20.8 29.8 20.6 28.7 20.5C26.6 20.4 24.4 20.2 22.1 20.2ZM22.1 19.8L28.9 19.6C30 19.6 31.2 19.5 32.3 19.6C32.9 19.6 33.4 19.6 34.1 19.7C34.7 19.8 35.4 19.9 36 20.1C37.2 20.6 38.4 21.4 39.3 22.5C39.7 23.1 40.1 23.7 40.3 24.3C40.4 24.6 40.5 25 40.6 25.3C40.7 25.6 40.7 25.9 40.8 26.2C41.3 28.6 41.3 30.9 41.4 33.2C41.4 35.4 41.5 37.7 41.2 40.2C41.2 40.5 41.1 40.8 41.1 41.1C41 41.5 40.9 41.8 40.8 42.2C40.6 42.9 40.2 43.6 39.8 44.3C38.9 45.6 37.7 46.6 36.4 47.2C35.7 47.5 35 47.7 34.2 47.8C33.5 47.9 33 47.9 32.4 48C31.2 48.1 30.1 48.1 28.9 48.1C26.6 48.1 24.3 48.1 22.1 48C19.9 47.9 17.6 47.9 15.3 47.7C14.2 47.6 13 47.5 11.9 47.4C11.3 47.3 10.8 47.3 10.1 47.1C9.4 47 8.8 46.7 8.2 46.4C7 45.8 5.9 44.8 5.2 43.7C4.8 43.1 4.6 42.5 4.4 41.9C4.3 41.6 4.2 41.2 4.2 40.9C4.1 40.6 4 40.3 4 40C3.8 37.6 3.9 35.4 3.9 33.1C4 30.9 4 28.6 4.4 26.3C4.5 26 4.5 25.7 4.6 25.4C4.7 25.1 4.8 24.8 4.9 24.5C5.1 23.9 5.4 23.4 5.8 22.9C6.5 21.9 7.5 21.1 8.6 20.7C9.2 20.5 9.7 20.3 10.3 20.2C10.9 20.1 11.4 20.1 12 20.1C13.1 20 14.3 20 15.4 20C17.6 19.8 19.9 19.8 22.1 19.8Z" fill="#001A4A"/>
<path d="M22.2999 46.2C22.5999 47 22.8999 47.7 23.1999 48.5L23.5999 49.6L23.8999 50.7C23.9999 51.1 24.1999 51.5 24.2999 51.8C24.3999 52.2 24.3999 52.6 24.2999 52.9C24.1999 53.3 23.9999 53.7 23.6999 54C23.3999 54.4 22.9999 54.8 22.3999 55.1C22.2999 55.2 22.0999 55.2 21.9999 55.1C21.3999 54.7 20.9999 54.3 20.6999 54C20.3999 53.6 20.1999 53.2 20.0999 52.9C19.9999 52.5 19.9999 52.1 20.0999 51.8C20.1999 51.4 20.3999 51 20.4999 50.7L20.7999 49.6L21.1999 48.5C21.4999 47.7 21.6999 47 22.0999 46.2C22.1999 46.1 22.2999 46 22.3999 46.1C22.2999 46.1 22.2999 46.2 22.2999 46.2Z" fill="#001A4A"/>
<path d="M16.4002 55.1C17.4002 54.8 18.3002 54.5 19.3002 54.2L20.7002 53.8L22.1002 53.5C22.6002 53.4 23.1002 53.2 23.5002 53.1C24.0002 53 24.5002 53 24.9002 53.1C25.4002 53.2 25.9002 53.4 26.3002 53.7C26.8002 54 27.3002 54.4 27.7002 55C27.8002 55.1 27.8002 55.3 27.7002 55.4C27.2002 56 26.7002 56.4 26.3002 56.7C25.8002 57 25.3002 57.2 24.9002 57.3C24.4002 57.4 23.9002 57.4 23.5002 57.3C23.0002 57.2 22.5002 57 22.1002 56.9L20.7002 56.6L19.3002 56.2C18.3002 55.9 17.4002 55.7 16.4002 55.3C16.3002 55.3 16.2002 55.1 16.3002 55C16.3002 55.2 16.4002 55.2 16.4002 55.1Z" fill="#001A4A"/>
</g>
<defs>
<clipPath id="clip0_3389_21806">
<rect width="60" height="60" fill="white"/>
</clipPath>
</defs>
</svg>
