<svg width="60" height="60" viewBox="0 0 60 60" fill="none" xmlns="http://www.w3.org/2000/svg">
<rect width="60" height="60" rx="10" fill="white"/>
<path d="M56 10.6787C55.9 9.77868 55.6 8.97868 55.1 8.17868C54.6 7.47868 53.9 6.87868 53.1 6.57868C52.3 6.27868 51.3 6.17868 50.5 5.97868C49.6 5.87868 48.7 5.67868 47.8 5.57868C44.1 5.27868 40.5 5.17868 36.8 5.17868C33.2 5.17868 29.5 5.27868 25.9 5.47868C22.3 5.67868 18.6 5.87868 15 6.37868C13.3 6.57868 11.5 6.87868 9.7 7.27868C9.3 7.37868 9 7.47868 8.7 7.57868C8.4 7.67868 8.1 7.87868 7.9 8.17868C7.4 8.57868 7 9.17868 6.8 9.87868C6.7 10.2787 6.7 10.5787 6.6 10.9787L6.5 12.2787L6.3 14.9787C6.2 16.7787 6.1 18.5787 6.1 20.3787C6.1 22.1787 6 23.9787 6.1 25.7787C6.2 26.6787 6.2 27.4787 6.3 28.3787L6.4 29.8787L6.6 31.1787C7.2 34.5787 8.5 37.8787 10.2 40.8787C11.9 43.8787 14.2 46.4787 16.8 48.6787C17.5 49.1787 18.2 49.6787 18.9 50.1787C19.6 50.5787 20.3 51.0787 21.1 51.4787C22.6 52.2787 24.2 53.0787 25.8 53.6787C27.4 54.2787 29 54.7787 30.4 54.8787C31.7 54.9787 33.3 54.4787 34.8 53.9787C36.4 53.3787 38 52.6787 39.5 51.8787C40.2 51.4787 41 51.0787 41.7 50.5787L42.8 49.8787L43.8 49.0787C49.2 44.9787 53.3 38.9787 55.2 32.1787C56.2 28.7787 56.4 25.1787 56.4 21.4787C56.5 17.9787 56.3 14.2787 56 10.6787ZM56.4 10.5787C56.9 14.1787 57.2 17.8787 57.5 21.4787C57.8 25.0787 58 28.8787 57.4 32.6787C56.8 36.3787 55.7 40.0787 53.8 43.4787C51.9 46.8787 49.5 49.9787 46.4 52.3787L45.2 53.2787L44 54.0787C43.2 54.6787 42.3 55.0787 41.5 55.5787C39.8 56.4787 38.1 57.2787 36.2 57.9787C34.3 58.5787 32.4 59.2787 29.9 59.0787C27.6 58.8787 25.8 58.1787 24 57.4787C22.2 56.6787 20.6 55.8787 18.9 54.8787C18 54.3787 17.3 53.7787 16.5 53.2787C15.7 52.6787 15 52.0787 14.2 51.4787C11.3 48.8787 8.8 45.8787 7 42.3787C5.2 38.9787 3.9 35.2787 3.3 31.4787L3.1 30.0787L3 28.6787C3.1 27.8787 3.1 26.8787 3.1 25.9787C3.1 24.0787 3.2 22.2787 3.3 20.4787C3.4 18.6787 3.5 16.7787 3.7 14.9787L4 12.1787L4.2 10.7787C4.3 10.3787 4.3 9.67868 4.5 9.17868C4.8 8.17868 5.4 7.17868 6.3 6.37868C6.7 5.97868 7.2 5.67868 7.8 5.47868C8.3 5.27868 8.9 5.07868 9.4 5.07868C11.3 4.67868 13.1 4.47868 14.9 4.37868C22.3 3.77868 29.6 3.97868 36.9 4.37868C40.6 4.57868 44.2 4.87868 47.8 5.37868C49.6 5.67868 51.4 5.87868 53.2 6.37868C54.1 6.67868 54.9 7.27868 55.4 8.07868C56 8.77868 56.3 9.67868 56.4 10.5787Z" fill="#001A4A"/>
<path d="M14.2358 24.8787C13.5358 24.8787 12.8358 24.2787 12.9358 23.4787C13.0358 20.6787 13.1358 19.0787 13.3358 17.2787C13.5358 15.0787 14.9359 13.1787 17.1359 12.8787C19.0359 12.5787 21.3358 12.1787 25.6358 12.0787C26.4358 12.0787 27.0358 12.6787 27.0358 13.4787V23.5787C27.0358 24.3787 26.4358 24.9787 25.7358 24.9787H14.2358V24.8787ZM47.9358 23.5787C47.9358 24.3787 47.3358 24.9787 46.6358 24.9787H35.1359C34.4359 24.9787 33.8359 24.3787 33.8359 23.5787V13.4787C33.8359 12.6787 34.4358 12.0787 35.2358 12.0787C39.6358 12.1787 41.8358 12.4787 43.7358 12.8787C45.9358 13.2787 47.3358 15.0787 47.5358 17.2787C47.7358 19.1787 47.8358 20.7787 47.9358 23.5787ZM25.4358 47.0787C26.2358 47.2787 27.0358 46.6787 27.0358 45.7787V32.9787C27.0358 32.1787 26.4358 31.5787 25.7358 31.5787H14.3358C13.5358 31.5787 12.9358 32.2787 13.0358 32.9787C14.1359 40.2787 19.0358 45.1787 25.4358 47.0787ZM35.4359 47.0787C34.6359 47.2787 33.8359 46.6787 33.8359 45.7787V32.9787C33.8359 32.1787 34.4359 31.5787 35.1359 31.5787H46.5358C47.3358 31.5787 47.9358 32.2787 47.8358 32.9787C46.7358 40.2787 41.8359 45.1787 35.4359 47.0787Z" fill="#57c2b4"/>
<path d="M14.2362 25.1787C13.6362 25.1787 13.1362 24.7787 12.8362 24.2787C12.7362 23.9787 12.6362 23.6787 12.7362 23.4787V22.6787L12.6362 19.5787V18.0787V17.2787C12.6362 16.9787 12.6362 16.6787 12.7362 16.3787C12.9362 15.1787 13.4362 14.0787 14.3362 13.1787C14.8362 12.7787 15.3362 12.3787 15.9362 12.0787C16.2362 11.9787 16.5362 11.8787 16.8362 11.7787L17.6362 11.5787C18.6362 11.3787 19.7362 11.1787 20.7362 10.9787C21.7362 10.8787 22.8362 10.6787 23.8362 10.5787L25.4362 10.4787C25.5362 10.4787 26.3362 10.3787 26.8362 10.6787C27.3362 10.8787 27.8362 11.1787 28.2362 11.6787C28.6362 12.1787 28.8362 12.6787 28.8362 13.2787L28.9362 14.1787L29.0362 15.6787L29.2362 18.7787C29.3362 19.7787 29.3362 20.7787 29.3362 21.8787C29.3362 22.3787 29.3362 22.8787 29.3362 23.3787V23.5787C29.3362 23.6787 29.3362 23.8787 29.3362 24.0787C29.3362 24.3787 29.2362 24.7787 29.0362 25.0787C28.7362 25.6787 28.3362 26.1787 27.7362 26.5787C27.1362 26.9787 26.5362 27.1787 25.8362 27.1787C25.7362 27.1787 25.7362 27.1787 25.6362 27.1787H25.5362H25.3362H24.9362C24.4362 27.0787 23.9362 27.0787 23.4362 26.9787C22.4362 26.7787 21.4362 26.5787 20.3362 26.3787C18.3362 25.5787 16.3362 25.1787 14.2362 25.1787ZM14.2362 24.6787C16.2362 24.5787 18.3362 24.1787 20.3362 23.7787C21.3362 23.5787 22.3362 23.2787 23.4362 23.1787C23.9362 23.0787 24.4362 22.9787 24.9362 22.9787H25.3362H25.5362H25.6362C25.6362 22.9787 25.7362 22.9787 25.6362 22.9787C25.5362 22.9787 25.3362 22.9787 25.2362 23.0787C25.1362 23.1787 25.0362 23.2787 24.9362 23.3787C24.9362 23.4787 24.8362 23.4787 24.8362 23.5787V23.6787V23.4787C24.8362 22.9787 24.8362 22.4787 24.8362 21.9787C24.8362 20.9787 24.8362 19.9787 24.9362 18.8787L25.1362 15.7787L25.2362 14.2787V13.8787V13.6787V13.5787C25.2362 13.6787 25.3362 13.6787 25.3362 13.7787C25.4362 13.7787 25.4362 13.8787 25.5362 13.8787C25.5362 13.8787 25.8362 13.8787 25.4362 13.8787H23.9362C22.9362 13.8787 21.9362 13.8787 20.9362 13.9787C19.9362 13.9787 18.9362 14.0787 17.9362 14.1787L17.2362 14.2787C17.0362 14.2787 16.8362 14.3787 16.6362 14.3787C16.2362 14.4787 15.9362 14.6787 15.6362 14.8787C15.0362 15.2787 14.5362 16.0787 14.2362 16.8787C14.0362 17.2787 13.9362 17.7787 13.8362 18.2787L13.5362 19.7787C13.3362 20.7787 13.2362 21.7787 13.1362 22.7787C13.1362 23.2787 13.0362 23.7787 13.1362 24.1787C13.4362 24.4787 13.8362 24.6787 14.2362 24.6787Z" fill="#001A4A"/>
<path d="M48.1361 23.5787C48.1361 24.1787 47.7361 24.7787 47.2361 24.9787C46.9361 25.0787 46.6361 25.1787 46.4361 25.1787H45.6361C44.6361 25.1787 43.6361 25.2787 42.5361 25.3787C40.5361 25.5787 38.4361 25.8787 36.4361 25.9787H35.6361H35.2361H35.0361C34.9361 25.9787 34.8361 25.9787 34.6361 25.9787C33.6361 25.8787 32.8361 25.1787 32.5361 24.1787C32.4361 23.9787 32.4361 23.6787 32.4361 23.4787V23.0787V22.2787L32.3361 20.8787L32.0361 14.7787V13.9787C32.0361 13.6787 31.9361 13.5787 32.0361 12.8787C32.2361 11.6787 33.1361 10.6787 34.3361 10.2787C34.6361 10.1787 35.0361 10.1787 35.2361 10.1787H35.6361H36.4361H38.0361C39.1361 10.1787 40.1361 10.1787 41.2361 10.3787C41.7361 10.4787 42.3361 10.4787 42.8361 10.5787L43.6361 10.7787C43.9361 10.8787 44.1361 10.8787 44.5361 10.9787C46.0361 11.3787 47.3361 12.3787 48.0361 13.5787C48.7361 14.7787 48.9361 16.1787 48.8361 17.3787C48.4361 19.3787 48.2361 21.4787 48.1361 23.5787ZM47.7361 23.5787C47.6361 21.5787 47.1361 19.5787 46.4361 17.5787C46.1361 16.7787 45.6361 16.0787 45.1361 15.6787C44.6361 15.2787 44.1361 15.0787 43.5361 15.0787L37.8361 14.3787L36.3361 14.1787L35.6361 14.0787H35.2361H35.3361C35.5361 13.9787 35.6361 13.7787 35.6361 13.6787C35.6361 13.4787 35.6361 13.8787 35.6361 14.0787V14.8787L35.2361 20.8787L35.1361 22.3787V23.1787V23.5787C35.1361 23.5787 35.1361 23.6787 35.2361 23.7787H35.4361H35.8361H36.6361C38.6361 23.8787 40.7361 24.1787 42.7361 24.3787C43.7361 24.4787 44.7361 24.5787 45.8361 24.5787C46.3361 24.5787 46.9361 24.6787 47.2361 24.4787C47.5361 24.4787 47.7361 23.9787 47.7361 23.5787Z" fill="#001A4A"/>
<path d="M25.5361 46.8787C25.9361 46.9787 26.4361 46.8787 26.7361 46.4787C26.8361 46.2787 26.9361 46.0787 26.9361 45.7787V44.9787C26.9361 43.8787 26.8361 42.8787 26.7361 41.7787C26.5361 39.6787 26.2361 37.5787 26.1361 35.4787L25.9361 33.8787V33.0787C25.9361 32.8787 25.9361 32.9787 25.9361 32.8787C25.9361 32.8787 25.9361 32.8787 25.8361 32.8787C25.8361 32.8787 25.9361 32.8787 25.7361 32.8787L24.1361 32.9787L17.8361 33.2787C16.7361 33.3787 15.7361 33.3787 14.6361 33.4787H14.4361H14.5361C14.6361 33.4787 14.6361 33.4787 14.7361 33.4787C14.8361 33.4787 14.9361 33.3787 15.0361 33.1787C15.1361 33.0787 15.1361 32.7787 15.1361 32.6787L15.3361 33.3787C15.8361 35.1787 16.4361 36.8787 17.3361 38.4787C18.2361 40.0787 19.2361 41.6787 20.5361 43.2787C21.8361 44.9787 23.5361 46.1787 25.5361 46.8787ZM25.4361 47.2787C23.3361 46.7787 21.2361 46.1787 19.1361 45.2787C17.0361 44.3787 15.0361 42.8787 13.7361 40.8787C12.3361 38.8787 11.4361 36.5787 11.1361 34.2787L11.0361 33.3787C10.9361 32.7787 11.0361 31.9787 11.4361 31.3787C11.7361 30.7787 12.3361 30.2787 12.9361 29.9787C13.2361 29.8787 13.5361 29.7787 13.8361 29.6787C14.0361 29.6787 14.1361 29.6787 14.3361 29.6787C14.5361 29.6787 14.5361 29.6787 14.5361 29.6787C15.6361 29.7787 16.6361 29.7787 17.7361 29.8787L24.0361 30.1787L25.6361 30.2787C25.7361 30.2787 26.0361 30.2787 26.3361 30.3787C26.6361 30.4787 26.8361 30.5787 27.0361 30.6787C27.4361 30.9787 27.8361 31.3787 28.0361 31.7787C28.1361 31.9787 28.2361 32.2787 28.2361 32.4787C28.2361 32.6787 28.2361 33.0787 28.2361 33.0787V33.8787L28.1361 35.4787C28.0361 37.5787 27.7361 39.6787 27.5361 41.7787C27.4361 42.8787 27.3361 43.8787 27.3361 44.9787V45.7787C27.3361 46.0787 27.2361 46.3787 27.1361 46.5787C26.7361 47.1787 26.0361 47.4787 25.4361 47.2787Z" fill="#001A4A"/>
<path d="M35.4362 47.2787C34.8362 47.4787 34.1362 47.1787 33.8362 46.6787C33.6362 46.3787 33.6362 46.0787 33.6362 45.8787V45.0787C33.6362 43.9787 33.5362 42.9787 33.4362 41.8787C33.2362 39.7787 32.9362 37.6787 32.8362 35.5787L32.6362 33.8787V33.0787C32.6362 32.9787 32.6362 32.6787 32.6362 32.4787C32.6362 32.2787 32.7362 31.9787 32.8362 31.7787C33.0362 31.2787 33.4362 30.9787 33.8362 30.6787C34.0362 30.5787 34.3362 30.4787 34.5362 30.3787C34.7362 30.2787 35.1362 30.2787 35.2362 30.2787L36.8362 30.1787L43.1362 29.8787C44.2362 29.7787 45.2362 29.7787 46.3362 29.6787C46.4362 29.6787 46.4362 29.6787 46.5362 29.6787C46.7362 29.6787 46.8362 29.6787 47.0362 29.6787C47.3362 29.6787 47.6362 29.7787 47.9362 29.9787C48.5362 30.2787 49.0362 30.6787 49.4362 31.3787C49.7362 31.9787 49.9362 32.7787 49.8362 33.3787L49.7362 34.2787C49.4362 36.5787 48.5362 38.8787 47.1362 40.8787C45.7362 42.8787 43.7362 44.2787 41.7362 45.2787C39.6362 46.1787 37.5362 46.7787 35.4362 47.2787ZM35.3362 46.8787C37.3362 46.1787 39.0362 44.9787 40.4362 43.3787C41.7362 41.7787 42.7362 40.1787 43.6362 38.5787C44.5362 36.9787 45.1362 35.2787 45.6362 33.4787L45.8362 32.7787C45.8362 32.8787 45.8362 33.0787 45.9362 33.2787C46.0362 33.3787 46.1362 33.4787 46.2362 33.5787C46.3362 33.5787 46.3362 33.5787 46.4362 33.5787H46.5362C46.5362 33.5787 46.4362 33.5787 46.3362 33.5787C45.2362 33.4787 44.2362 33.4787 43.1362 33.3787L36.8362 33.0787L35.2362 32.9787C35.0362 32.9787 35.1362 32.9787 35.1362 32.9787C35.1362 32.9787 35.1362 32.9787 35.0362 32.9787C35.0362 32.9787 35.0362 32.9787 35.0362 33.1787V33.9787L34.9362 35.5787C34.8362 37.6787 34.5362 39.7787 34.3362 41.8787C34.2362 42.9787 34.1362 43.9787 34.1362 45.0787V45.8787C34.1362 46.0787 34.2362 46.3787 34.3362 46.5787C34.4362 46.8787 34.9362 46.9787 35.3362 46.8787Z" fill="#001A4A"/>
</svg>
