<svg width="352" height="352" viewBox="0 0 352 352" fill="none" xmlns="http://www.w3.org/2000/svg">
<path d="M247.276 188.443L244.336 179.325C244.336 179.325 239.329 180.501 236.982 178.736L232.276 184.619C232.276 184.619 233.01 191.237 234.923 194.473C234.923 194.473 223.157 209.033 220.363 222.416C220.363 225.652 227.863 237.708 227.863 237.708C227.863 237.708 241.541 228.883 244.336 227.855C243.158 211.088 241.982 195.058 241.982 195.058C244.054 193.117 245.837 190.889 247.276 188.443ZM234.481 200.944C230.679 206.015 225.685 214.258 224.332 220.505C224.047 221.83 221.979 221.24 222.272 219.917C224.63 211.501 228.826 206.618 233.598 200.356C234.04 199.914 234.923 200.5 234.481 200.944Z" fill="#2D6EE8"/>
<path d="M234.039 128.586C234.37 128.648 234.712 128.594 235.008 128.433C235.304 128.273 235.535 128.015 235.663 127.703C236.681 126.35 235.953 123.979 234.487 124.468C233.157 124.909 232.264 128.186 234.039 128.586Z" fill="black"/>
<path d="M249.775 131.08C250.106 131.142 250.448 131.089 250.744 130.928C251.04 130.767 251.271 130.509 251.399 130.197C252.417 128.844 251.689 126.473 250.223 126.962C248.893 127.408 248 130.687 249.775 131.08Z" fill="black"/>
<path d="M238.452 117.411C237.268 116.992 234.63 116.97 234.188 118.441C234.116 118.621 234.106 118.82 234.159 119.006C234.212 119.193 234.326 119.356 234.482 119.471C235.107 119.856 235.795 119.249 236.542 119.323C237.289 119.398 237.865 120.206 238.6 120.353C238.757 120.399 238.923 120.408 239.084 120.377C239.245 120.346 239.396 120.278 239.526 120.177C239.655 120.077 239.759 119.947 239.828 119.798C239.897 119.65 239.93 119.487 239.923 119.323C239.875 118.901 239.713 118.499 239.454 118.163C239.195 117.826 238.848 117.566 238.452 117.411Z" fill="black"/>
<path d="M256.1 122.114C255.218 120.054 251.982 118.731 250.511 120.937C249.925 121.816 251.334 122.762 251.982 122.114C252.423 121.673 253.159 121.967 253.606 122.408C254.053 122.849 254.047 123.731 254.488 124.167C255.609 125.3 256.839 124.329 256.1 122.114Z" fill="black"/>
<path d="M241.395 125.791C241.429 125.636 241.401 125.475 241.318 125.341C241.235 125.206 241.103 125.11 240.95 125.071C240.796 125.033 240.634 125.056 240.498 125.136C240.361 125.215 240.261 125.345 240.219 125.497C239.47 127.404 238.306 132.409 238.159 132.997C238.011 133.584 237.865 134.32 238.453 134.763C239.849 135.112 241.279 135.309 242.718 135.35C242.932 135.368 243.143 135.3 243.307 135.163C243.471 135.025 243.574 134.828 243.594 134.615C243.613 134.401 243.548 134.189 243.411 134.024C243.275 133.859 243.079 133.754 242.866 133.733C242.28 133.576 239.63 133.292 239.63 133.292C239.924 133.292 241.101 127.262 241.395 125.791Z" fill="black"/>
<path d="M247.571 140.498C242.98 141.417 240.226 142.245 235.511 141.38C235.358 141.35 235.2 141.38 235.068 141.463C234.936 141.547 234.842 141.677 234.804 141.829C234.766 141.98 234.787 142.14 234.864 142.276C234.941 142.411 235.067 142.512 235.216 142.558C236.555 142.991 237.935 143.287 239.334 143.44C239.805 146.728 243.351 150.898 246.542 149.616C247.546 149.232 248.381 148.503 248.895 147.558C249.711 146.011 250.164 144.299 250.218 142.551C250.255 142.217 250.205 141.879 250.074 141.57C249.942 141.261 249.734 140.991 249.469 140.785C249.203 140.579 248.889 140.444 248.557 140.394C248.225 140.344 247.886 140.38 247.571 140.498ZM247.13 146.969C245.749 148.696 243.587 147.339 242.424 145.498C242.011 144.797 241.666 144.059 241.394 143.293C243.769 143.125 246.129 142.781 248.454 142.263C248.265 143.892 247.818 145.481 247.13 146.969Z" fill="black"/>
<path d="M162.122 128.879C162.699 128.126 163.146 127.281 163.445 126.38C163.887 125.498 164.18 124.621 164.623 123.732C166.877 118.319 168.332 113.203 167.27 107.407C167.109 106.528 165.799 106.966 165.946 107.849C167.316 116.064 162.313 124.041 160.946 128.147C160.799 128.733 161.671 129.456 162.122 128.879Z" fill="black"/>
<path d="M132.852 108.583C135.732 110.363 137.154 114.375 139.03 118.732C141.896 125.393 142.589 127.934 145.207 130.94C146.413 132.324 149.259 134.749 150.942 134.028C151.103 133.917 151.22 133.754 151.274 133.566C151.328 133.378 151.315 133.178 151.237 132.998C151.106 132.798 150.932 132.629 150.729 132.502C150.526 132.375 150.298 132.294 150.06 132.263C148.775 131.668 147.624 130.817 146.677 129.763C144.474 127.451 143.517 124.202 140.501 117.703C138.877 114.207 137.434 109.479 133.588 107.408C132.706 107.112 132.123 108.132 132.852 108.583Z" fill="black"/>
<path d="M143.883 114.761C143.974 114.916 144.118 115.032 144.289 115.087C144.46 115.141 144.645 115.132 144.809 115.059C144.973 114.986 145.104 114.855 145.178 114.692C145.251 114.528 145.262 114.343 145.208 114.172C144.835 112.81 144.241 111.518 143.449 110.348C141.328 106.658 138.352 103.531 134.772 101.23C134.615 101.146 134.433 101.121 134.26 101.16C134.086 101.198 133.932 101.298 133.826 101.44C133.719 101.582 133.667 101.758 133.679 101.935C133.69 102.113 133.765 102.28 133.89 102.407C141.465 108.472 142.094 111.839 143.883 114.761Z" fill="black"/>
<path d="M145.502 103.582C149.013 109.76 148.693 111.106 149.473 112.404C149.571 112.567 149.719 112.694 149.896 112.765C150.073 112.837 150.268 112.848 150.452 112.798C150.635 112.748 150.798 112.64 150.914 112.489C151.031 112.338 151.095 112.153 151.097 111.963C151.009 111.091 150.759 110.243 150.36 109.462C150.067 108.727 149.789 107.984 149.478 107.256C147.488 102.573 144.531 98.3633 140.801 94.9026C140.684 94.7856 140.525 94.7198 140.36 94.7198C140.195 94.7198 140.036 94.7856 139.919 94.9026C139.802 95.0196 139.736 95.1783 139.736 95.3437C139.736 95.5092 139.802 95.6679 139.919 95.7849C141.99 98.227 143.857 100.835 145.502 103.582Z" fill="black"/>
<path d="M154.768 110.936C155.062 111.525 156.084 111.67 156.239 110.936C156.428 109.558 156.328 108.156 155.944 106.818C155.359 102.793 154.323 98.847 152.856 95.0532C152.798 94.8777 152.672 94.7327 152.507 94.6499C152.341 94.5672 152.15 94.5536 151.974 94.6121C151.799 94.6706 151.653 94.7964 151.571 94.9619C151.488 95.1273 151.474 95.3189 151.533 95.4944C153.973 101.42 154.266 108.931 154.768 110.936Z" fill="black"/>
<path d="M344.931 127.561C344.247 123.274 340.466 120.389 337.725 120.355C325.013 120.22 319.404 120.208 274.338 120.208C274.219 117.773 273.402 115.425 271.985 113.442C269.961 110.804 267.023 109.021 263.749 108.441C262.391 104.954 260.612 101.644 258.454 98.587C252.014 88.7083 242.215 86.0491 234.629 89.4688C225.731 93.4771 224.286 104.392 229.486 110.058C233.217 114.128 239.193 115.201 244.487 115.201C248.084 115.2 251.675 114.904 255.224 114.318C256.81 119.02 259.982 123.023 264.196 125.642C263.535 129.384 261.191 136.306 263.607 137.997C265.078 139.026 269.23 132.816 272.132 135.79C275.258 138.991 269.485 143.144 267.573 143.291C266.986 143.733 262.721 160.499 262.573 163.881C259.485 164.911 245.657 168.888 241.836 169.765C240.66 168.883 236.694 164.758 235.806 163.881C235.953 163.146 235.953 157.115 235.953 155.94C237.571 156.086 239.19 156.069 240.66 156.234C241.837 156.369 242.13 154.322 240.954 154.028C237.718 153.439 234.308 154.109 231.099 152.998C227.678 151.813 226.688 150.04 226.688 147.703C226.688 140.949 229.309 126.756 233.159 116.818C233.444 116.08 232.136 115.497 231.835 116.231C229.06 122.795 227.037 129.653 225.805 136.673C225.159 140.219 224.766 143.807 224.628 147.409C224.516 152.853 228.912 155.153 234.335 155.645C234.189 156.822 233.894 162.853 233.894 163.587C233.894 165.058 239.63 170.354 240.219 170.793C236.101 176.089 232.57 181.824 228.894 187.56C228.011 181.53 227.068 175.482 225.805 169.617C225.399 167.699 225.069 165.647 224.482 163.735C224.334 162.999 223.011 163.146 223.158 163.881C224.041 170.647 225.405 177.259 226.394 183.883C226.7 185.94 226.958 188.005 227.276 190.061C227.286 190.264 227.361 190.459 227.49 190.616C227.619 190.774 227.795 190.885 227.992 190.935C228.189 190.984 228.398 190.969 228.585 190.891C228.773 190.813 228.931 190.677 229.036 190.502C232.928 184.515 236.537 178.294 240.944 172.706C240.944 173.914 246.997 190.008 248.886 193.59C248.957 193.717 249.058 193.824 249.179 193.904C249.3 193.983 249.439 194.032 249.583 194.047C249.728 194.061 249.873 194.041 250.008 193.987C250.143 193.933 250.263 193.848 250.357 193.738C261.779 182.59 260.289 182.205 271.977 169.617C289.331 173.562 310.498 178.094 321.834 196.973C325.841 203.949 328.44 211.644 329.482 219.621C330.106 224.55 330.155 229.535 329.629 234.476C329.322 237.994 328.4 242.189 328.306 242.859C321.98 242.859 288.89 243.153 278.594 243.3C279.812 237.71 282.265 215.153 291.832 196.973C292.273 196.237 291.095 195.502 290.654 196.237C285.592 205.832 281.67 216.055 278.746 231.535C277.912 235.411 277.369 239.344 277.122 243.3C253.736 243.448 229.911 243.595 206.38 243.3C207.611 233.454 211.411 198.631 212.262 191.531C212.41 190.796 210.932 190.501 210.791 191.384C209.709 198.142 207.556 215.357 207.262 217.269C193.344 217.269 182.554 215.804 171.229 207.267C161.785 200.049 155.175 189.743 152.554 178.148C150.965 170.359 150.274 162.413 150.495 154.466C163.395 149.035 158.12 151.15 167.555 147.848C168.206 155.663 172.044 161.651 178.144 166.379C186.546 172.888 195.042 174.524 205.209 172.85C210.958 171.642 216.574 169.868 221.974 167.555C222.866 167.134 222.263 165.621 221.24 165.931C209.128 169.678 196.8 176.572 180.353 165.638C177.212 163.62 174.546 160.944 172.54 157.795C170.534 154.646 169.236 151.099 168.735 147.4C169.47 147.252 170.061 146.976 170.793 146.811C170.922 146.769 171.04 146.697 171.136 146.602C171.232 146.506 171.305 146.389 171.348 146.261C171.391 146.132 171.403 145.995 171.383 145.861C171.363 145.726 171.312 145.599 171.234 145.488C170.795 141.524 169.325 133.074 168.588 129.164C168.421 128.284 167.999 127.693 167.41 127.84C160.099 130.613 152.932 133.754 145.938 137.252C145.497 137.399 145.645 138.429 145.645 138.429C145.467 141.788 145.396 151.941 145.645 155.195C145.757 156.668 148.292 155.195 148.733 155.048C148.462 168.243 149.756 182.077 156.38 193.433C159.862 199.267 164.342 204.443 169.617 208.725C169.617 222.774 169.002 221.131 169.617 236.815V236.963C170.205 240.64 172.264 244.464 175.794 244.905C178.972 244.905 194.185 245.64 238.887 245.64C262.569 245.64 327.277 244.978 336.103 244.905C338.148 244.911 340.129 244.189 341.691 242.869C343.252 241.548 344.294 239.715 344.628 237.698C344.638 232.549 345.775 198.362 344.931 127.561ZM168.593 138.44C169.011 140.944 169.328 143.44 169.769 145.94C162.149 148.301 154.725 151.25 147.562 154.761C147.256 149.423 147.12 144.317 147.12 139.025C153.886 135.937 160.652 132.995 167.563 130.348C167.685 133.069 168.029 135.775 168.593 138.44ZM171.976 237.272C171.551 226.678 171.976 213.851 171.976 210.799C178.546 215.33 186.113 218.206 194.034 219.181C198.319 219.823 202.667 219.922 206.976 219.476C206.8 220.884 204.476 240.556 204.476 243.89L176.091 243.449C173.887 243.008 172.27 240.066 171.976 237.272ZM252.717 97.4069C252.865 97.1119 253.306 97.1119 253.601 97.2594C254.44 97.6572 255.115 98.3327 255.512 99.1716C255.807 99.9064 255.218 100.795 254.483 100.348C253.895 100.054 253.747 99.4652 253.454 99.024C253.012 98.5829 252.276 97.9942 252.717 97.4069ZM248.453 92.1063C250.675 92.9953 250.591 94.9007 249.482 94.9007C247.127 94.6653 245.828 92.3553 240.956 92.8411C237.98 92.7335 235.079 93.7887 232.868 95.783C232.751 95.9002 232.592 95.9661 232.427 95.9662C232.261 95.9664 232.102 95.9007 231.985 95.7837C231.868 95.6667 231.802 95.5079 231.802 95.3423C231.802 95.1768 231.867 95.0179 231.984 94.9007C235.511 90.366 243.307 89.642 248.453 92.1063ZM342.726 238.296C342.405 239.768 341.586 241.083 340.407 242.02C339.227 242.958 337.761 243.458 336.255 243.438H330.519C330.928 241.694 331.223 239.925 331.402 238.143C332.004 233.413 332.201 228.64 331.99 223.877C331.453 215.106 329.099 206.542 325.078 198.728C315.097 179.82 295.258 172.398 274.196 168.726C273.457 168.59 271.402 167.548 270.667 168.431C267.725 171.961 264.499 175.351 261.547 178.874C255.881 185.64 255.999 185.892 249.93 191.962C248.777 189.565 247.745 187.11 246.84 184.609C245.583 181.055 243.998 177.416 243.017 173.726C242.862 173.14 242.575 172.55 242.429 171.814C242.575 171.814 252.877 169.188 256.988 167.843C262.454 166.054 264.489 166.007 264.489 164.901C264.966 159.675 265.948 154.507 267.422 149.47C267.844 147.994 268.157 146.528 268.598 145.057C272.127 144.469 275.446 141.222 274.921 137.556C274.781 136.65 274.41 135.795 273.843 135.074C273.276 134.352 272.533 133.789 271.686 133.438C271.575 133.423 271.472 133.372 271.392 133.292C271.833 132.41 272.127 131.38 272.568 130.498C273.652 127.876 274.297 125.093 274.48 122.262C282.275 122.262 324.192 122.114 337.574 122.408C338.84 122.669 340.001 123.295 340.915 124.209C341.829 125.123 342.455 126.285 342.716 127.55C343.167 164.911 343.167 201.093 342.726 238.301V238.296Z" fill="black"/>
<path d="M184.475 122.408H223.305C223.584 122.388 223.846 122.263 224.037 122.059C224.227 121.854 224.333 121.585 224.333 121.305C224.333 121.025 224.227 120.756 224.037 120.551C223.846 120.346 223.584 120.221 223.305 120.202H184.475C184.339 120.199 184.204 120.223 184.078 120.274C183.951 120.325 183.837 120.4 183.74 120.497C183.644 120.593 183.569 120.708 183.518 120.834C183.468 120.96 183.443 121.096 183.447 121.232C183.435 121.522 183.535 121.806 183.727 122.025C183.918 122.244 184.186 122.381 184.475 122.408Z" fill="black"/>
<path d="M338.02 91.8177C334.713 74.0984 311.681 68.5704 293.753 71.2268C284.291 72.6287 275.054 77.1811 271.104 85.7877C269.997 88.3957 269.397 91.1909 269.338 94.0235C269.338 105.144 278.418 113.162 289.192 115.202C289.865 115.382 290.556 115.481 291.252 115.495C291.204 116.885 291.007 118.266 290.663 119.613C289.877 122.673 288.363 125.499 286.252 127.849C285.647 128.572 286.252 129.925 287.282 129.615C294.26 127.385 300.142 122.606 303.753 116.232C310.438 116.727 319.35 116.14 325.52 113.583C334.8 109.74 339.686 100.751 338.02 91.8177ZM292.428 96.0818C290.669 99.4649 285.05 98.4338 285.37 94.4579C285.64 91.0748 289.192 89.0165 291.841 91.6635C292.367 92.2578 292.705 92.9958 292.809 93.7829C292.914 94.5701 292.781 95.3706 292.428 96.0818ZM303.9 98.1415C303.125 98.0538 302.393 97.743 301.793 97.2469C301.192 96.7507 300.749 96.0906 300.516 95.347C298.952 90.3292 307.21 88.888 308.017 93.5878C308.108 94.1692 308.068 94.7636 307.9 95.3276C307.732 95.8915 307.44 96.4107 307.045 96.8472C306.65 97.2837 306.163 97.6264 305.619 97.8504C305.075 98.0743 304.487 98.1737 303.9 98.1415ZM317.432 91.0816C318.145 90.6475 318.98 90.4572 319.811 90.5393C320.642 90.6215 321.423 90.9716 322.037 91.5369C322.652 92.1021 323.065 92.8519 323.216 93.673C323.367 94.4941 323.247 95.3419 322.873 96.0886C322.509 96.7761 321.949 97.3394 321.263 97.7062C320.577 98.0731 319.797 98.227 319.023 98.1481C318.249 98.0691 317.516 97.7611 316.918 97.2633C316.321 96.7655 315.885 96.1006 315.667 95.3538C315.396 94.5488 315.425 93.6728 315.749 92.8876C316.073 92.1023 316.67 91.4608 317.431 91.0816H317.432Z" fill="#2D6EE8"/>
<path d="M85.6371 115.883C85.3503 116.17 86.9122 117.522 87.1327 117.677C87.6552 118.05 88.2702 118.271 88.9101 118.317C89.5501 118.362 90.1902 118.231 90.7603 117.936C91.3304 117.642 91.8083 117.196 92.1416 116.648C92.475 116.1 92.6508 115.471 92.6498 114.829C92.6182 114.001 92.3117 113.206 91.7786 112.571C91.2455 111.936 90.5162 111.497 89.7057 111.323C90.0019 110.113 89.8479 108.837 89.2723 107.732C88.6967 106.627 87.739 105.77 86.5777 105.319C85.4164 104.869 84.1309 104.856 82.961 105.284C81.7911 105.711 80.8167 106.55 80.2196 107.643C78.6537 106.321 76.6762 105.586 74.6271 105.564C72.578 105.542 70.5853 106.235 68.9916 107.523C67.3978 108.811 66.3027 110.614 65.8943 112.623C65.486 114.631 65.79 116.718 66.7541 118.527C65.3838 117.975 63.8697 117.892 62.4472 118.29C61.0247 118.688 59.7735 119.544 58.8881 120.727C58.0027 121.909 57.5327 123.351 57.5512 124.828C57.5697 126.305 58.0757 127.734 58.9905 128.894C57.8545 128.758 56.7026 128.873 55.6155 129.229C54.5284 129.586 53.5323 130.175 52.697 130.957C51.5886 131.897 50.7082 133.076 50.1223 134.406C49.5363 135.736 49.26 137.181 49.3143 138.634C49.4533 142.118 52.623 146.266 56.0821 146.061C59.9714 145.3 63.8077 144.291 67.5675 143.039C68.6861 142.75 69.7017 142.154 70.5001 141.319C73.1343 138.068 73.8228 131.213 73.8151 127.421C73.8151 125.719 73.4926 124.035 73.4607 122.354C74.2746 122.347 75.0763 122.155 75.8052 121.793C76.534 121.431 77.1711 120.908 77.6683 120.263C78.5275 119.1 78.9418 117.668 78.8362 116.226C79.8137 117.015 81.0476 117.416 82.3021 117.353C83.5567 117.29 84.744 116.767 85.6371 115.883Z" fill="#2D6EE8"/>
<path d="M92.3554 137.058C90.8855 134.895 89.0475 133.006 86.9251 131.477C87.087 131.595 85.0125 133.39 84.8022 133.526C84.1544 133.964 82.9903 134.174 82.5199 134.79C82.1774 135.552 82.0243 136.386 82.0736 137.22C81.9351 138.472 81.8348 139.731 81.7727 140.995C85.0956 140.838 88.3998 140.406 91.6516 139.704C92.8539 139.556 93.4149 138.579 92.3554 137.058Z" fill="#2D6EE8"/>
<path d="M126.599 59.7419C126.424 58.9769 125.371 59.2217 125.311 59.9191C124.983 63.6983 125.79 67.7656 126.331 71.5065C126.9 75.5019 127.681 79.4643 128.669 83.377C128.85 84.0846 129.879 83.7799 129.76 83.0761C126.745 65.352 127.788 64.9338 126.599 59.7419Z" fill="#2D6EE8"/>
<path d="M140.261 81.424C147.127 73.8453 151.637 69.9565 153.883 67.1438C154.281 66.6465 153.767 65.7349 153.136 66.1773C148.594 69.3648 142.766 76.3775 139.398 80.7546C139.016 81.2544 139.844 81.8843 140.261 81.424Z" fill="#2D6EE8"/>
<path d="M149.538 82.1987C153.759 80.3716 158.463 78.8212 162.258 76.1832C162.807 75.8007 162.492 74.8087 161.773 75.0357C157.364 76.4599 153.247 79.2228 149.237 81.4924C148.871 81.7053 149.118 82.3798 149.538 82.1987Z" fill="#2D6EE8"/>
<path d="M113.86 77.4333C111.815 74.5935 109.559 71.9122 107.11 69.4122C106.996 69.3096 106.849 69.2506 106.695 69.2453C106.541 69.24 106.391 69.2887 106.269 69.3831C106.148 69.4775 106.063 69.6115 106.031 69.7617C105.998 69.9119 106.019 70.0689 106.09 70.2052C107.945 72.9731 110.009 75.5954 112.264 78.0492C114.487 80.7471 116.779 83.3583 119.067 86.0168C119.492 86.5089 120.384 85.8357 119.98 85.3091C117.957 82.6737 115.951 80.0254 113.86 77.4333Z" fill="#2D6EE8"/>
<path d="M110.213 90.3083C106.501 87.9981 102.37 86.4447 98.0556 85.7373C97.487 85.6621 97.4513 86.5164 97.9281 86.6885C101.923 87.9676 105.816 89.5446 109.575 91.4061C109.72 91.4727 109.883 91.4831 110.035 91.4353C110.186 91.3875 110.314 91.2848 110.394 91.1475C110.474 91.0102 110.5 90.8481 110.466 90.6928C110.432 90.5376 110.342 90.4005 110.213 90.3083Z" fill="#2D6EE8"/>
<path d="M40.9023 295.339C39.0625 294.956 37.7964 295.604 36.0725 294.246C33.5403 292.252 30.7582 285.568 29.0739 283.154C28.7934 282.752 28.0807 282.981 28.2388 283.508C28.8674 285.608 32.4578 294.983 36.8579 296.868C37.947 297.138 39.0739 297.222 40.1909 297.115C40.8704 297.679 33.7367 299.814 32.4132 299.752C30.6717 299.556 28.9432 299.258 27.2366 298.859C23.6793 295.977 20.5134 290.699 18.3382 286.68C18.926 282.169 19.7803 281.264 18.9758 281.087C18.8912 281.069 18.8031 281.077 18.7231 281.109C18.643 281.142 18.5747 281.198 18.5269 281.27C17.9379 282.145 16.7253 285.751 17.1754 286.427C17.8797 289.283 19.1515 291.968 20.9151 294.323C22.3176 296.202 24.9225 300.757 31.777 301.491C35.1137 301.849 41.763 299.618 42.4336 298.887C43.7035 297.501 42.5127 295.671 40.9023 295.339Z" fill="#2D6EE8"/>
<path d="M52.8646 115.44C53.4786 112.879 54.5126 110.437 55.9246 108.214C57.4468 106.083 59.171 104.103 61.0732 102.302C61.1644 102.207 61.2186 102.083 61.2259 101.952C61.2332 101.821 61.1931 101.691 61.1129 101.587C61.0327 101.483 60.9177 101.411 60.789 101.385C60.6602 101.358 60.5262 101.379 60.4114 101.443C55.7143 104.11 52.8888 110.067 51.8063 115.135C51.6571 115.835 52.6988 116.13 52.8646 115.44Z" fill="#2D6EE8"/>
<path d="M51.3827 104.323C49.3717 106.459 48.169 109.229 47.9823 112.156C47.9058 112.832 48.9551 112.815 49.0443 112.156C49.5481 109.546 50.6122 107.077 52.1631 104.919C52.2209 104.815 52.2393 104.693 52.2149 104.577C52.1905 104.46 52.125 104.356 52.0303 104.284C51.9356 104.212 51.818 104.176 51.6991 104.183C51.5802 104.19 51.4679 104.24 51.3827 104.323Z" fill="#2D6EE8"/>
<path d="M126.706 95.7923C126.616 95.7081 126.502 95.6551 126.38 95.6411C126.258 95.627 126.135 95.6527 126.029 95.7143C125.923 95.7759 125.839 95.8701 125.791 95.983C125.743 96.0958 125.732 96.2212 125.761 96.3405C126.335 98.6228 127.959 100.579 127.74 104.906C127.597 107.829 126.614 110.649 124.909 113.027C124.537 113.537 125.378 114.193 125.79 113.706C127.926 111.348 129.24 108.361 129.536 105.193C129.777 102.136 129.11 97.9496 126.706 95.7923Z" fill="#191919"/>
<path d="M124.696 103.225C124.718 103.35 124.783 103.464 124.88 103.546C124.977 103.628 125.1 103.673 125.227 103.673C125.354 103.673 125.477 103.628 125.574 103.546C125.671 103.464 125.736 103.35 125.757 103.225C125.914 99.8324 125.293 95.3074 122.57 92.8797C122.487 92.8022 122.381 92.7535 122.268 92.7408C122.155 92.7282 122.041 92.7523 121.943 92.8096C121.845 92.8669 121.768 92.9542 121.724 93.0587C121.679 93.1633 121.669 93.2793 121.696 93.3897C122.431 95.8416 124.228 97.8446 124.696 103.225Z" fill="#191919"/>
<path d="M121.73 102.296C121.806 103.004 122.894 103.052 122.886 102.296C122.85 98.8878 121.927 93.7227 118.714 91.8408C118.62 91.7885 118.513 91.7648 118.406 91.7727C118.299 91.7806 118.196 91.8197 118.111 91.8852C118.026 91.9507 117.961 92.0396 117.926 92.1412C117.891 92.2427 117.886 92.3524 117.912 92.4566C118.78 94.7733 121.115 96.6387 121.73 102.296Z" fill="#191919"/>
<path d="M117.49 98.1481C119.296 103.429 118.137 104.982 119.138 104.98C119.261 104.98 119.379 104.931 119.465 104.844C119.552 104.757 119.601 104.64 119.601 104.517C119.862 102.232 119.658 99.9178 119.003 97.7133C118.522 95.5767 117.455 93.6163 115.921 92.0523C115.484 91.694 114.551 92.0166 114.821 92.6898C115.583 94.5908 116.818 96.1884 117.49 98.1481Z" fill="#191919"/>
<path d="M117.066 110.692C117.149 111.122 117.839 111.021 117.831 110.589C117.744 107.238 116.732 103.08 113.639 101.244C113.524 101.18 113.392 101.155 113.262 101.174C113.132 101.192 113.012 101.252 112.919 101.345C112.827 101.438 112.767 101.559 112.749 101.689C112.732 101.819 112.757 101.951 112.821 102.065C113.877 103.924 116.182 106.079 117.066 110.692Z" fill="#191919"/>
<path d="M124.342 114.76C123.739 116.242 123.367 117.807 123.242 119.402C122.119 124.57 120.189 129.529 117.521 134.096C114.037 140.344 103.013 150.061 103.013 150.061C103.013 150.061 100.718 145.676 100.374 137.216C107.755 133.111 113.538 126.64 116.791 118.847C117.791 116.805 118.438 114.609 118.704 112.351C118.74 111.593 117.521 111.197 117.203 111.944C116.112 114.514 114.271 125.114 103.391 133.127C97.264 137.545 89.9796 140.077 82.4333 140.411C82.5289 139.588 82.4333 138.754 82.5085 137.935C82.5837 137.117 82.7635 136.205 82.8974 135.338C89.5759 133.974 90.406 122.205 85.5647 117.265C85.0879 116.776 84.4006 117.392 84.6722 117.956C86.2762 121.35 87.541 124.539 86.8563 128.381C86.6726 130.315 85.7433 132.101 84.2655 133.36C83.3634 133.92 82.2972 134.155 81.2434 134.027C80.1896 133.898 79.2113 133.413 78.4705 132.653C78.1505 132.353 77.5678 132.748 77.833 133.141C78.2643 133.845 78.8685 134.428 79.5882 134.833C80.3079 135.238 81.1191 135.452 81.9449 135.455C81.3153 137.049 81.1915 138.798 81.5905 140.465C80.1678 140.51 78.7437 140.464 77.3268 140.327C76.6204 140.253 68.9665 140.858 65.5137 143.037C63.744 142.821 58.6209 144.876 57.1916 145.587C52.8415 147.742 48.8631 150.577 45.4066 153.986C44.6952 154.692 43.5196 155.587 43.5846 156.715C43.8119 157.71 44.4073 158.582 45.2511 159.155C41.6198 162.365 38.8849 167.372 39.692 172.198C40.6584 177.975 45.7942 182.987 50.8267 185.615C50.9526 185.684 51.0989 185.705 51.2394 185.676C51.3798 185.646 51.5051 185.568 51.5927 185.454C51.6802 185.34 51.7243 185.199 51.7168 185.056C51.7094 184.912 51.651 184.776 51.5522 184.672C47.8623 180.777 42.9917 178.179 41.6453 172.551C40.4047 167.37 43.6509 163.911 46.3119 160.056C47.6448 161.45 49.1214 162.701 50.7171 163.785C50.8287 163.846 50.9569 163.868 51.0825 163.85C51.2082 163.832 51.3245 163.773 51.414 163.683C51.5036 163.593 51.5616 163.476 51.5794 163.351C51.5972 163.225 51.5738 163.097 51.5127 162.986C50.8153 161.751 45.529 156.765 45.654 156.245C45.858 155.392 50.6929 151.494 51.871 150.634C55.3855 148.078 59.2503 146.042 63.3462 144.588C60.1532 147.111 57.6164 150.368 55.951 154.081C53.8906 158.724 53.475 163.855 53.3169 168.88C52.4167 197.441 49.5747 195.265 47.3587 202.323C47.3191 202.417 44.8826 212.604 44.5281 214.086C39.326 231.672 35.9855 243.056 27.6022 261.561C23.2544 271.157 21.0511 274.766 19.0889 279.294C18.7816 280.002 20.0694 281.876 23.7414 282.928C24.8035 283.233 28.125 282.928 29.0774 281.732C30.0298 280.536 34.5932 274.498 37.1967 270.934C40.3843 266.579 58.1658 239.361 62.6717 229.474C64.9667 224.442 68.0727 213.689 68.686 213.322C68.9193 213.183 69.2177 213.45 69.2993 213.705C69.3809 213.96 68.0829 219.507 67.5015 222.013C67.1457 223.543 66.6421 226.966 67.147 227.632C68.2884 228.978 69.5204 230.245 70.8344 231.424C68.0936 232.422 65.448 233.664 62.9292 235.135C59.91 237.33 57.4849 241.638 55.6017 244.799C54.9349 245.917 51.7843 252.066 51.2577 253.29C51.1788 253.428 51.1331 253.582 51.1242 253.74C51.1152 253.898 51.1433 254.057 51.2062 254.202C51.2691 254.348 51.365 254.477 51.4864 254.579C51.6077 254.681 51.7512 254.753 51.9054 254.79C56.7658 254.526 61.7588 252.899 66.3833 251.475C71.4589 249.928 76.4139 248.011 81.208 245.737C85.3569 243.754 89.9648 241.396 92.7673 237.624C96.4113 232.717 85.2536 202.201 81.1302 201.471C80.7757 201.408 75.7891 207.164 55.8962 204.132C53.6012 203.781 51.7741 202.288 49.5657 201.638C52.7533 197.133 53.4393 191.243 54.0768 185.946C55.9893 170.077 53.1842 158.35 61.1429 149.209C65.1701 144.63 70.798 141.767 76.8703 141.208C77.0042 141.208 83.1791 144.583 99.3273 137.796C99.1768 140.473 99.3692 143.158 99.8998 145.786C100.197 147.242 101.797 152.587 102.628 153.492C97.0437 158.148 93.4788 159.229 90.0847 161.13C89.9494 161.277 89.8522 161.455 89.8016 161.648C89.0277 166.353 82.1821 194.711 81.5943 197.641C81.5551 197.848 81.5953 198.062 81.7069 198.241C81.8185 198.42 81.9934 198.55 82.1967 198.606C82.4 198.662 82.6168 198.639 82.8041 198.542C82.9913 198.445 83.1352 198.281 83.2072 198.083C84.3152 195.124 90.8318 164.853 90.6367 162.061C95.7891 161.169 100.55 157.563 103.976 153.821C104.231 153.539 103.707 151.807 103.402 151.079C103.53 151.178 115.115 141.546 118.914 135.269C120.789 132.169 122.323 128.876 123.489 125.446C124.074 123.73 125.947 116.585 125.477 114.959C125.445 114.843 125.38 114.738 125.291 114.657C125.202 114.576 125.091 114.522 124.972 114.501C124.853 114.48 124.731 114.493 124.62 114.539C124.508 114.585 124.412 114.662 124.342 114.76Z" fill="#191919"/>
<path d="M83.6762 127.07C84.4285 127.613 86.4634 128.484 86.7159 126.942C86.8268 126.265 85.3197 123.306 84.8339 122.575C84.6095 122.24 83.9631 122.448 84.1263 122.87C84.4718 123.762 85.2904 126.333 85.2738 126.358C85.2572 126.384 84.5356 126.046 84.1531 125.927C83.4365 125.702 83.1331 126.678 83.6762 127.07Z" fill="#191919"/>
<path d="M80.9637 124.136C81.1479 123.561 81.1479 122.943 80.9637 122.367C80.9251 122.243 80.8478 122.135 80.7431 122.057C80.6383 121.98 80.5117 121.939 80.3816 121.939C80.2515 121.939 80.1249 121.98 80.0202 122.057C79.9154 122.135 79.8381 122.243 79.7996 122.367C79.6153 122.943 79.6153 123.561 79.7996 124.136C79.8593 124.237 79.9444 124.321 80.0465 124.379C80.1485 124.438 80.2641 124.468 80.3816 124.468C80.4992 124.468 80.6147 124.438 80.7168 124.379C80.8188 124.321 80.9039 124.237 80.9637 124.136Z" fill="#191919"/>
<path d="M78.8927 121.66C79.7469 120.144 80.8715 120.156 81.4759 119.551C81.5342 119.491 81.576 119.417 81.5972 119.336C81.6184 119.255 81.6183 119.17 81.5969 119.089C81.5754 119.008 81.5334 118.934 81.4749 118.874C81.4164 118.814 81.3433 118.771 81.2629 118.747C79.7673 118.44 78.5624 120.158 78.1009 121.331C77.93 121.764 78.667 122.063 78.8927 121.66Z" fill="#191919"/>
<path d="M78.4255 127.674C79.2619 130.759 82.3539 132.192 83.8354 131.16C83.9301 131.1 84.0057 131.014 84.0532 130.912C84.1008 130.81 84.1183 130.697 84.1039 130.585C84.0894 130.474 84.0436 130.369 83.9717 130.283C83.8997 130.196 83.8047 130.132 83.6977 130.098C82.7637 130.043 81.8526 129.788 81.0266 129.348C80.3007 128.733 79.6348 128.05 79.0375 127.308C78.989 127.227 78.9102 127.169 78.8185 127.146C78.7268 127.122 78.6297 127.137 78.5486 127.185C78.4674 127.234 78.4089 127.313 78.3858 127.404C78.3627 127.496 78.377 127.593 78.4255 127.674Z" fill="#191919"/>
</svg>
