<svg width="300" height="300" viewBox="0 0 300 300" fill="none" xmlns="http://www.w3.org/2000/svg">
<path d="M29.9507 84.813C46.3007 84.933 58.4507 99.8835 49.6127 113.868C44.1587 122.505 37.7132 122.086 37.5617 124.711C36.7502 138.877 41.0837 143.1 27.9542 126.75C26.3687 124.777 18.3707 126.45 12.0542 119.424C-0.403286 105.537 15.0587 84.7035 29.9507 84.813ZM35.9387 134.4C36.4877 122.758 34.8422 122.783 37.4072 121.617C46.3562 117.552 53.2517 107.56 49.4192 98.508C41.9507 80.868 16.5602 84.2355 10.5917 102.033C6.75021 113.474 14.1827 122.629 25.1672 124.005C28.9982 124.483 29.0432 125.541 35.9387 134.4Z" fill="#00143B"/>
<path d="M30.4022 100.138C30.8012 104.907 30.1997 105.088 31.0457 105.304C36.1382 106.638 36.6482 109.149 35.3102 111.136C33.5102 113.817 30.7772 112.678 30.8672 113.95C30.9197 114.69 31.0637 116.425 30.3962 116.397C30.0227 116.38 29.8802 116.341 29.7962 113.793C29.7647 112.893 28.9037 113.713 25.9742 112.143C25.5902 111.936 24.4397 111.063 24.7877 110.643C25.2167 110.122 25.8752 111.393 29.2397 112.015C30.1397 112.179 29.5397 111.945 29.5397 106.644C29.5397 105.576 28.1282 106.212 25.7897 104.95C22.4327 103.135 24.8642 99.261 28.6847 98.4285C29.8262 98.1795 29.1152 97.6935 29.4077 96.0945C29.4977 95.5995 29.9627 95.5785 30.0782 96.0705C30.4322 97.587 29.9087 98.286 30.7457 98.307C32.0417 98.34 35.2922 99.3045 34.9457 100.068C34.5002 101.05 30.2477 98.2845 30.4022 100.138ZM30.9557 106.488C30.5327 106.369 30.6932 106.224 30.8057 111.631C30.8372 113.262 39.9557 108.997 30.9557 106.488ZM29.4377 103.407C29.3237 99.432 29.6072 99.3075 28.8152 99.5445C26.0807 100.36 24.0152 103.137 26.7542 104.245C30.0242 105.57 29.4707 104.569 29.4377 103.407Z" fill="#57c2b4"/>
<path fill-rule="evenodd" clip-rule="evenodd" d="M289.781 53.1599C278.274 42.6839 208.169 32.3999 193.417 31.6499C192.38 31.5971 191.389 31.5317 190.438 31.4688C178.63 30.6882 173.158 30.3264 167.291 60.0501C168.874 61.1147 170.254 62.5907 171.154 64.5267C173.413 53.1132 175.735 44.0931 177.947 39.5999C179.174 37.1084 180.067 36.0224 187.697 36.6254C202.835 37.8254 274.009 47.0009 285.832 57.7754C294.049 65.2619 270.074 188.442 265.582 203.339C264.097 208.26 262.663 208.181 255.16 207.764C254.89 207.749 254.611 207.732 254.323 207.717C253.381 207.666 252.076 207.551 250.505 207.389C250.471 208.793 250.387 210.186 250.252 211.565C254.537 212.027 257.921 212.288 260 212.297C264.386 212.319 267.269 210.155 268.728 205.448C273.584 189.798 301.13 63.4919 289.781 53.1599ZM249.422 194.61C251.539 194.796 254.242 194.945 257.674 195.075C257.788 195.08 257.903 195.09 258.019 195.099C258.713 195.162 259.4 195.224 259.709 193.904C260.48 190.595 261.298 187.301 262.114 184.007L262.117 183.996C262.496 182.46 262.877 180.926 263.254 179.388C263.762 177.308 263.345 177.252 257.138 176.432H257.137C254.787 176.121 251.609 175.701 247.339 175.02C245.719 174.762 245.671 175.019 244.739 180.009C244.732 180.051 244.723 180.093 244.715 180.137C245.452 181.716 246.116 183.312 246.709 184.917C246.793 184.512 246.872 184.131 246.946 183.774C247.997 178.695 248.066 178.356 249.463 178.505C251.68 178.742 253.435 178.895 254.821 179.018H254.822C259.558 179.433 259.97 179.469 259.687 181.121C259.077 184.431 258.298 187.709 257.35 190.938C257.079 191.909 256.516 191.826 256.043 191.757C255.92 191.739 255.803 191.721 255.7 191.724C253.666 191.448 252.031 191.256 250.724 191.102C249.874 191.001 249.161 190.916 248.567 190.836C248.894 192.093 249.179 193.352 249.422 194.61ZM230.602 160.527C230.972 160.587 231.361 160.65 231.767 160.718H231.769H231.776C233.869 161.06 236.453 161.483 239.641 162.041C240.914 162.456 241.178 161.117 242.734 153.228C243.142 151.155 243.64 148.632 244.268 145.569C244.69 143.51 244.277 143.439 238.919 142.52C236.413 142.09 232.823 141.474 227.731 140.382C226.318 140.074 226.243 140.537 225.512 145.112V145.112C225.166 147.286 224.67 150.389 223.812 154.779C226.251 156.6 228.514 158.522 230.602 160.527ZM217.664 150.642C217.909 149.306 218.128 148.12 218.323 147.068L218.326 147.059L218.327 147.05V147.046L218.329 147.044C219.851 138.836 219.862 138.778 218.068 138.411C213.53 137.482 210.151 136.645 207.616 136.018C203.302 134.949 201.437 134.487 200.483 135.216C199.759 135.77 199.558 137.011 199.205 139.196L199.129 139.675L199.088 139.923C198.968 140.656 198.85 141.397 198.734 142.134C199.742 142.456 200.734 142.791 201.71 143.138C201.71 143.127 201.712 143.117 201.713 143.106C202.252 138.744 202.328 138.131 204.251 138.615C207.601 139.457 210.028 139.998 211.777 140.388C216.22 141.379 216.289 141.394 215.99 142.875C215.461 145.501 215.114 147.503 214.859 149.02C215.815 149.547 216.749 150.089 217.664 150.642ZM192.373 140.323C192.55 138.546 192.769 136.53 193.061 134.25C193.532 132.378 192.485 132.211 191.08 131.987V131.987C190.702 131.926 190.298 131.862 189.89 131.759C185.813 130.701 182.668 129.85 180.239 129.192L180.238 129.192L180.235 129.191V129.191V129.191H180.233V129.191V129.191H180.232V129.191C179.066 128.875 178.066 128.604 177.206 128.377C175.768 130.236 173.827 131.446 171.469 131.745C171.182 134.201 170.917 136.279 170.689 138.039C171.766 138.028 172.868 138.037 173.983 138.062C174.037 137.615 174.088 137.193 174.136 136.796C174.691 132.19 174.848 130.887 175.408 130.681C175.63 130.6 175.913 130.689 176.309 130.814L176.36 130.83C180.335 132.084 183.164 132.884 185.167 133.451C189.977 134.813 190.025 134.826 189.745 136.53C189.56 137.648 189.409 138.667 189.278 139.593C190.325 139.824 191.356 140.068 192.373 140.323ZM187.268 118.236C189.092 118.664 191.164 119.161 193.514 119.748C194.728 120.048 195.452 119.547 195.544 118.248C195.967 112.229 196.838 108.242 197.434 105.516V105.516C197.996 102.937 198.314 101.486 197.774 100.508C197.078 99.2487 194.962 98.7744 190.118 97.6896C189.214 97.4871 188.215 97.2633 187.112 97.0092C188.38 97.8153 189.248 99.0134 189.746 100.399C190.111 100.495 190.453 100.585 190.772 100.67V100.67L190.774 100.67V100.67C195.305 101.865 195.485 101.912 195.191 103.44C194.521 106.93 194.119 109.486 193.828 111.339C193.195 115.377 193.085 116.075 191.851 115.832C190.151 115.498 188.651 115.212 187.327 114.959C187.405 115.406 187.447 115.859 187.454 116.315C187.463 116.962 187.4 117.606 187.268 118.236ZM186.566 87.2691C202.534 91.8111 260.374 100.105 262.897 100.467L262.982 100.479C267.688 101.16 267.814 100.746 269.314 95.8422V95.841L269.318 95.8269C269.468 95.334 269.633 94.7958 269.818 94.2089C271.561 87.1287 272.843 79.9433 273.656 72.6974C274.023 69.5384 273.151 68.1074 270.451 66.6584C265.765 64.1504 243.223 57.2999 226.051 54.8399C186.301 49.1399 183.817 50.4314 182.722 56.0789C181.711 61.191 180.937 66.3458 180.401 71.5271C181.073 72.6155 181.42 73.8744 181.4 75.1557C181.379 76.4919 180.961 77.7915 180.197 78.888C179.818 79.5105 179.915 79.6965 180.557 80.04C183.278 81.4029 185.362 83.7714 186.367 86.6441C186.44 86.8511 186.506 87.0594 186.566 87.2691ZM269.753 74.7194C268.322 81.7466 267.559 86.448 267.046 89.6106C266.26 94.4573 266.06 95.6904 264.94 96.1424C264.2 95.6127 263.246 95.4852 259.379 94.9677C252.01 93.9816 234.058 91.5797 186.842 82.2809C183.172 81.5594 182.942 81.0314 183.512 77.0129C184.208 72.1532 184.685 68.3799 185.056 65.4551C185.926 58.5768 186.203 56.3915 187.319 55.8054C187.84 55.5324 188.54 55.6062 189.569 55.7142C189.929 55.752 190.33 55.794 190.775 55.8269C207.299 57.0269 246.638 63.2354 266.675 68.8769C270.71 70.0145 270.649 70.3154 269.779 74.5893L269.752 74.7194H269.753ZM218.324 104.523V104.523C215.87 104.021 212.656 103.364 208.46 102.415C208.388 102.415 208.319 102.413 208.253 102.412C207.929 102.406 207.673 102.402 207.451 102.486C206.614 102.805 206.26 104.395 204.568 111.983V111.985C204.098 114.094 203.525 116.666 202.81 119.802C202.342 121.833 203.093 121.967 208.688 122.965L208.69 122.965C210.89 123.358 213.839 123.884 217.759 124.711C218.125 124.788 218.461 124.869 218.771 124.943C222.502 125.832 222.521 125.837 225.64 109.291L225.68 109.074C225.869 108.079 225.995 107.421 225.769 106.924C225.327 105.955 223.553 105.592 218.324 104.523ZM216.67 107.648C222.859 109.093 223.324 109.201 223.024 110.623C222.749 111.926 222.512 113.074 222.304 114.086L222.301 114.098V114.099C220.76 121.554 220.759 121.559 219.034 121.224C216.479 120.728 214.406 120.355 212.729 120.053C206 118.843 205.651 118.78 206.269 116.524C207.211 113.09 207.641 110.68 207.934 109.038V109.038C208.424 106.295 208.531 105.698 210.002 106.059C212.747 106.732 214.933 107.243 216.668 107.648L216.67 107.648ZM230.251 144.42C230.12 144.431 229.96 144.388 229.787 144.343C229.235 144.197 228.56 144.019 228.359 145.452C227.999 148.013 227.606 149.953 227.306 151.434C226.834 153.765 226.591 154.959 227.072 155.654C227.576 156.384 228.881 156.563 231.556 156.927H231.557C233.003 157.125 234.85 157.377 237.185 157.8C238.514 158.04 238.609 157.535 239.267 154.031V154.029C239.539 152.58 239.908 150.62 240.499 147.988C240.964 145.918 240.299 145.827 235.054 145.109L235.052 145.109L235.051 145.109C233.75 144.931 232.168 144.714 230.251 144.42ZM229.126 126.267C229.45 127.08 231.1 127.366 236.894 128.369V128.369L236.899 128.369C239.035 128.739 241.735 129.207 245.14 129.834C247.255 130.225 247.406 129.194 248.255 123.384V123.383C248.608 120.968 249.082 117.726 249.868 113.416L249.871 113.398C249.982 112.785 250.063 112.345 249.923 111.992C249.566 111.09 247.777 110.756 241.424 109.569H241.423L241.421 109.568V109.568C239.363 109.184 236.828 108.71 233.71 108.099C232.216 107.807 232.135 108.299 231.302 113.355C230.884 115.899 230.275 119.598 229.201 124.933L229.195 124.966C229.079 125.536 228.997 125.943 229.126 126.267ZM242.21 113.126C246.755 113.903 247.127 113.966 246.778 115.725C246.379 117.727 246.127 119.355 245.924 120.668C245.521 123.282 245.309 124.646 244.522 125.219C243.662 125.846 242.114 125.527 238.874 124.859C237.371 124.55 235.504 124.165 233.173 123.765C232.235 123.601 231.917 123.27 232.123 122.101C232.655 119.077 232.936 116.893 233.135 115.333V115.33V115.33V115.33C233.564 111.982 233.624 111.515 235.033 111.801C238.153 112.434 240.482 112.831 242.209 113.126H242.21ZM250.874 149.17V149.17V149.172C250.45 151.56 249.802 155.207 248.551 160.739L248.548 160.754C247.904 163.623 247.813 164.028 264.935 164.715L265.064 164.721C265.394 164.736 265.648 164.747 265.858 164.657C266.545 164.363 266.767 162.978 267.713 157.049C268.063 154.866 268.509 152.069 269.114 148.482V148.481V148.481C269.2 147.971 269.258 147.623 269.132 147.366C268.859 146.81 267.721 146.681 264.127 146.271C261.745 145.999 258.284 145.605 253.282 144.882C251.678 144.65 251.651 144.804 250.874 149.17ZM263.228 161.247C262.75 161.55 262.039 161.486 260.839 161.379L260.539 161.352H260.551C258.946 161.108 257.633 160.929 256.564 160.782C252.287 160.197 251.896 160.145 252.217 158.595C252.686 156.36 253.033 154.589 253.306 153.189L253.307 153.18C254.252 148.33 254.33 147.936 255.719 148.125C258.304 148.477 260.251 148.68 261.71 148.832C265.777 149.255 266.039 149.283 265.685 151.031C265.205 153.393 264.886 155.234 264.638 156.663C264.128 159.606 263.92 160.809 263.228 161.247ZM255.745 116.334V116.334C256.52 111.964 256.547 111.809 258.152 112.041C263.158 112.764 266.618 113.159 269 113.431H269.002C272.593 113.841 273.73 113.97 274.004 114.525C274.13 114.783 274.072 115.131 273.985 115.641V115.641C273.38 119.225 272.933 122.022 272.585 124.203L272.584 124.206C271.637 130.136 271.415 131.52 270.726 131.815C270.518 131.905 270.264 131.894 269.934 131.879L269.805 131.874C252.677 131.19 252.769 130.786 253.418 127.914L253.421 127.899C254.672 122.369 255.32 118.722 255.745 116.334ZM265.709 128.541C266.909 128.648 267.62 128.712 268.098 128.41C268.791 127.972 269 126.768 269.51 123.821V123.821V123.82C269.758 122.391 270.077 120.552 270.555 118.192C270.911 116.445 270.649 116.418 266.578 115.994C265.118 115.842 263.171 115.639 260.59 115.288C259.207 115.101 259.13 115.491 258.196 120.277V120.277L258.194 120.282C257.918 121.694 257.567 123.486 257.087 125.758C256.76 127.306 257.158 127.36 261.436 127.945V127.946L261.437 127.946C262.504 128.092 263.812 128.271 265.409 128.514L265.709 128.541ZM254.797 71.9703C255.797 72.1362 257.098 72.3521 258.79 72.6435C259.184 72.7109 259.244 72.2702 259.334 71.6207V71.6201C259.357 71.4596 259.381 71.2862 259.412 71.1045C259.477 70.7258 259.45 70.7211 256.18 70.1792C255.176 70.013 253.868 69.7962 252.164 69.5025C251.771 69.434 251.709 69.8739 251.621 70.523C251.599 70.6841 251.575 70.8579 251.543 71.04C251.477 71.4197 251.506 71.4243 254.797 71.9703ZM253.325 80.8013C249.988 80.2491 249.959 80.2443 250.025 79.863C250.057 79.6812 250.08 79.5077 250.102 79.3469C250.191 78.6972 250.253 78.2567 250.648 78.3239C252.341 78.6158 253.643 78.8319 254.644 78.9978C257.931 79.5431 257.959 79.5476 257.894 79.926C257.863 80.1078 257.84 80.2809 257.818 80.4413C257.729 81.0953 257.669 81.5336 257.273 81.465C255.607 81.1788 254.32 80.9658 253.325 80.8013ZM251.729 89.8391C252.73 90.0048 254.03 90.2204 255.722 90.5115C256.115 90.5823 256.175 90.1412 256.265 89.4918V89.4909C256.288 89.3298 256.312 89.156 256.343 88.974C256.409 88.5944 256.381 88.5897 253.09 88.0437L253.088 88.0436L253.084 88.0428L253.081 88.0424C252.082 87.8766 250.784 87.6612 249.097 87.3705C248.696 87.3021 248.635 87.7577 248.545 88.4238V88.4256L248.543 88.4307V88.4325C248.524 88.5822 248.501 88.7423 248.474 88.9095C248.408 89.2892 248.437 89.2937 251.729 89.8391ZM248.471 87.2594C248.287 87.2274 248.111 87.2031 247.949 87.1806C247.303 87.0909 246.865 87.0302 246.932 86.6369C247.201 85.0737 247.402 83.8668 247.555 82.9364L247.556 82.9331C248.063 79.8623 248.074 79.8033 248.453 79.8689C248.622 79.8968 248.786 79.9188 248.939 79.9394C249.605 80.0294 250.06 80.0909 249.992 80.4914C249.724 82.052 249.524 83.2571 249.37 84.1869V84.1874C248.861 87.2672 248.851 87.3239 248.471 87.2594ZM259.244 80.0955C259.396 80.1161 259.559 80.1381 259.73 80.166C260.114 80.2308 260.126 80.1566 260.636 77.0646V77.0595C260.788 76.1406 260.982 74.9558 261.245 73.4295C261.312 73.0352 260.872 72.9743 260.222 72.8846C260.062 72.8622 259.887 72.8384 259.706 72.807C259.326 72.7415 259.313 72.818 258.811 75.8631V75.8633V75.8634V75.8636V75.8639V75.864V75.8642V75.8649L258.809 75.8786C258.656 76.8026 258.458 77.9987 258.193 79.545C258.122 79.9442 258.578 80.0057 259.244 80.0955ZM243.203 69.9659C241.499 69.6722 240.191 69.4553 239.188 69.2891C235.919 68.7473 235.891 68.7426 235.955 68.3639C235.982 68.1942 236.005 68.0318 236.026 67.8801V67.8783V67.8782C236.116 67.212 236.177 66.7565 236.578 66.8249C238.273 67.1172 239.576 67.3334 240.578 67.4994C243.862 68.0441 243.89 68.0487 243.826 68.4269C243.794 68.6087 243.77 68.7822 243.748 68.943C243.659 69.5927 243.598 70.0332 243.203 69.9659ZM237.737 78.1244L237.739 78.1245L237.74 78.1247C238.733 78.2894 240.02 78.5027 241.685 78.7889C242.083 78.8562 242.143 78.4152 242.231 77.765C242.254 77.6045 242.276 77.4314 242.308 77.2499C242.372 76.871 242.345 76.8665 239.074 76.3242L239.072 76.3241L239.069 76.3236C238.067 76.1574 236.762 75.941 235.061 75.6479C234.661 75.5783 234.599 76.0337 234.509 76.7C234.488 76.8521 234.467 77.0151 234.439 77.1854C234.373 77.5668 234.401 77.5715 237.737 78.1244ZM240.131 87.8354C238.474 87.5508 237.191 87.3384 236.2 87.1742C232.847 86.619 232.819 86.6142 232.885 86.2334C232.912 86.063 232.934 85.8996 232.955 85.7474V85.7472C233.045 85.0809 233.107 84.6248 233.507 84.6944C235.208 84.9875 236.513 85.2041 237.517 85.3701L237.518 85.3704L237.52 85.3707C240.791 85.913 240.818 85.9175 240.754 86.2964C240.724 86.4728 240.701 86.6414 240.68 86.7983V86.7999C240.59 87.4568 240.53 87.9044 240.131 87.8354ZM232.399 84.5117C232.552 84.5322 232.714 84.5541 232.885 84.582C233.278 84.65 233.288 84.5892 233.846 81.1881C233.992 80.3066 234.173 79.2005 234.409 77.814C234.476 77.415 234.02 77.3535 233.354 77.2637C233.201 77.2431 233.038 77.2211 232.867 77.193C232.487 77.1275 232.477 77.1855 231.968 80.2596V80.2623V80.2644C231.814 81.1941 231.614 82.3992 231.346 83.9595C231.277 84.36 231.733 84.4217 232.399 84.5115V84.5117ZM243.658 77.4194C242.992 77.3295 242.534 77.2679 242.602 76.8674C242.834 75.4889 243.016 74.3886 243.158 73.5114L243.16 73.5071C243.71 70.1442 243.724 70.0628 244.117 70.1294C244.3 70.1612 244.475 70.1856 244.637 70.2081C245.285 70.2983 245.725 70.3596 245.659 70.7519C245.42 72.1584 245.237 73.275 245.093 74.1609L245.092 74.166C244.549 77.4783 244.536 77.5574 244.144 77.4899C243.972 77.462 243.811 77.4401 243.658 77.4194Z" fill="#57c2b4"/>
<path d="M155.347 196.622C169.288 176.244 171.574 172.563 176.632 166.401C178.563 164.049 176.566 163.904 171.792 162.651C170.403 162.287 171.601 160.401 172.392 159.201C185.907 138.613 184.119 138.549 186.474 139.008C238.285 149.083 258.61 190.643 247.647 224.043C242.682 239.169 230.364 247.818 215.122 251.618C204.385 254.295 179.791 249.566 161.22 234.32C159.72 233.094 159.585 232.751 160.213 230.99C163.701 221.216 157.609 219.095 162.385 216.903C166.537 215.081 170.845 213.639 175.257 212.594C195.546 207.419 208.191 209.634 220.962 212.22C224.424 212.921 232.776 214.931 229.789 213.069C220.618 207.356 204.348 207.486 204.616 205.775C205.749 196.31 206.131 186.771 205.759 177.246C205.393 172.047 202.269 196.154 202.573 205.325C202.632 207.083 201.633 205.995 194.556 206.535C183.826 207.273 173.298 209.822 163.417 214.071C157.429 216.866 159.384 217.971 157.348 217.034C144.645 211.148 129.844 221.168 132.07 237.324C132.139 237.825 132.313 238.538 131.598 238.46C130.948 238.389 129.865 238.775 129.715 237.56C127.002 215.442 127.534 208.749 119.337 207.11C103.86 204.009 103.614 205.91 103.686 204.15C103.8 201.344 103.344 184.95 102.778 182.85C101.838 184.386 101.31 186.14 101.245 187.94C99.6224 204.674 103.285 205.382 99.9599 204.938C85.8359 203.057 56.8064 204.024 42.6764 205.848C36.3974 206.658 35.8304 214.461 36.6434 220.631C33.7304 219.936 32.5229 217.562 31.2434 215.297C20.3009 195.905 30.3959 174.663 30.0434 179.339C30.0269 180.033 30.1945 180.72 30.5291 181.328C30.8636 181.937 31.3534 182.447 31.9484 182.805C34.4624 184.814 32.8004 194.679 37.3349 200.151C39.8549 203.192 40.5314 200.526 56.0054 198.72C84.1364 195.437 83.8679 196.209 84.8279 191.804C85.8779 186.95 84.6779 174.866 83.4344 171.354C82.3469 168.278 83.5259 166.28 85.3619 164.322C96.2144 152.757 109.662 146.772 124.708 142.572C126.259 142.138 126.438 142.281 126.468 143.874C126.544 147.786 127.332 151.628 127.6 155.522C128.452 167.895 128.872 167.672 126.538 167.727C124.836 167.772 121.588 166.317 122.347 169.319C124.575 178.131 138.784 199.31 144.79 207.584C146.433 209.847 149.31 213.827 149.613 211.208C150.349 204.822 160.962 159.935 160.968 159.908C165.046 142.126 161.062 138.831 163.945 138.457C169.798 137.499 175.762 137.438 181.633 138.274C183.348 138.478 183.421 138.315 176.895 148.614C168.811 161.373 167.436 162.968 171.399 164.195C172.417 164.588 173.472 164.876 174.549 165.051C175.456 165.137 175.405 165.521 174.916 166.071C169.038 172.697 164.106 180.963 157.239 190.983C156.24 192.719 155.596 194.636 155.347 196.622Z" fill="#57c2b4"/>
<path d="M156.093 251.1C155.756 249.012 128.145 244.717 128.702 242.314C129.183 240.232 149.669 246.441 153.915 247.588C157.083 248.446 159.842 249.82 157.938 252.277C154.917 256.177 138.323 264.454 132.18 266.677C123.48 269.827 114.254 268.887 94.5694 267.165C49.7359 263.244 47.5069 270.315 42.8194 244.593C36.0694 207.501 37.4044 209.475 57.7069 208.528C77.2683 207.828 96.8545 208.392 116.343 210.216C123.203 210.943 123.843 215.635 126.362 231.999C127.727 240.861 130.085 256.578 128.055 265.41C125.478 268.471 156.354 252.7 156.093 251.1ZM44.5504 211.839C39.9364 213.039 40.7629 219.103 41.8699 226.539C46.9279 260.496 47.9119 261.84 61.9699 262.705C83.6719 264.042 80.1033 263.382 113.468 266.211C124.341 267.133 126.455 265.24 126.467 260.466C126.398 251.817 125.646 243.186 124.217 234.655C121.058 214.537 119.768 213.384 116.045 212.794C94.2003 209.34 50.8969 210.196 44.5504 211.839Z" fill="#00143B"/>
<path d="M140.362 144.162C140.123 159.131 138.95 152.918 141.127 175.685C142.577 190.868 147.143 205.395 145.894 205.878C145.19 206.151 130.105 182.463 124.832 170.888C124.316 169.755 124.019 169.038 125.245 169.166C131.77 169.844 130.495 167.318 128.65 146.899C128.243 142.399 127.636 141.85 128.92 141.649C141.337 139.707 140.416 140.769 140.362 144.162Z" fill="#57c2b4"/>
<path d="M20.8066 146.55C22.8505 149.157 24.4435 152.088 25.5196 155.222C25.6576 155.729 25.3036 156.056 24.9481 155.585C17.2711 145.412 16.1671 145.506 23.5606 143.219C40.0366 138.119 54.1396 138.419 63.2626 138.536C64.4293 138.506 65.5812 138.802 66.5898 139.389C67.5984 139.976 68.424 140.832 68.9746 141.861C78.7246 157.296 82.3816 177.236 82.0891 191.061C81.9856 195.947 74.6386 190.701 40.6141 199.274C39.4141 199.574 38.8576 199.889 36.6391 189.95C33.8776 177.581 38.7886 188.421 40.4266 196.068C41.0116 198.797 42.4636 195.456 58.3711 192.815C80.1211 189.204 80.2591 193.893 80.2006 188.531C80.0716 176.606 70.8331 141.039 63.7741 140.444C54.5446 139.65 28.4176 142.676 20.8066 146.55Z" fill="#00143B"/>
<path d="M160.588 100.224C158.252 97.5423 156.8 94.2065 156.43 90.6704C156.388 84.9884 151.507 86.0759 148.697 82.2479C147.598 80.7479 147.497 78.1769 148.291 78.1514C149.084 78.1259 148.291 81.6149 153.016 83.5889C160.951 86.9114 154.709 93.8309 162.866 99.8954C165.458 101.823 169.582 101.104 172.751 102.526C175.673 103.839 175.901 107.358 172.627 108.676C171.577 109.096 164.527 110.064 162.979 118.246C160.79 129.858 163.522 135.292 163.157 136.354C162.755 137.529 161.719 137.566 161.467 136.407C159.023 125.142 159.283 110.94 170.317 107.845C172.199 107.319 173.431 106.893 173.41 105.73C173.35 102.51 165.977 103.941 162.418 101.59C162.307 101.534 162.187 101.501 162.062 101.493C161.939 101.484 161.815 101.501 161.698 101.542C155.746 102.592 155.456 102.171 155.386 103.554C155.185 107.509 156.302 107.245 140.864 107.175C138.925 107.166 139.148 106.48 139.538 101.269C139.583 100.65 139.426 100.419 138.767 100.306C137.236 100.035 135.671 100.02 134.135 100.261C132.785 100.477 133.013 100.653 133.168 105.811C133.219 107.551 132.833 107.461 118.208 106.516C116.801 106.425 117.295 106.38 116.858 96.6074C116.779 94.8389 118.358 95.8574 128.491 95.8574C132.041 95.8574 133.291 95.5874 133.064 97.2389C132.764 99.3869 133.168 99.1289 134.381 98.7959C138.281 97.7249 139.472 100.273 139.687 98.2889C139.942 95.9249 139.957 95.9579 142.369 95.9909C146.189 96.0434 150.011 96.0269 153.835 96.0704C156.005 96.0959 156.193 95.7869 155.659 100.255C155.549 101.2 155.597 100.98 160.588 100.224ZM132.032 98.0414C132.109 96.6209 132.005 97.2914 119.267 96.8759C117.581 96.8204 118.187 97.3499 118.291 104.809C118.309 106.159 119.041 104.923 131.14 105.774C132.358 105.859 131.636 105.441 132.032 98.0414ZM153.343 105.945C154.532 105.945 154.144 106.075 154.609 98.2199C154.685 96.9314 154.442 97.4549 141.644 97.1864C140.177 97.1549 140.881 97.5044 140.594 105.124C140.557 106.12 140.557 105.915 153.343 105.945Z" fill="#00143B"/>
<path d="M164.712 128.29C165.542 127.255 171.642 132.654 176.879 125.275C177.492 124.411 175.622 124.602 175.725 123.741C175.79 123.213 178.199 122.862 178.725 122.8C186.321 121.918 185.384 115.173 185.43 113.704C185.504 111.355 183.918 113.586 182.064 113.082C179.276 112.332 182.856 111.237 184.241 110.484C186.068 109.415 187.4 107.67 187.952 105.626C188.502 103.583 188.226 101.404 187.184 99.5624C185.333 96.8114 184.856 97.5164 183.666 98.4629C181.44 100.237 179.721 100.651 179.36 99.9989C179.157 99.6314 179.381 99.3914 181.503 97.5404C186.093 93.5369 186.857 86.2454 179.991 81.2954C178.443 80.1794 178.82 81.2294 177.393 81.6449C173.121 82.8854 183.956 75.2339 176.115 69.9449C172.19 67.2989 172.013 69.8534 170.781 68.1854C169.131 65.9534 166.065 59.6039 158.241 59.9939C156.035 60.1034 156.243 61.3724 155.495 60.6824C154.647 59.9039 156.131 58.7129 157.239 58.3679C160.211 57.5109 163.401 57.8565 166.121 59.33C168.84 60.8034 170.871 63.2867 171.777 66.2444C172.269 68.0039 176.361 65.0444 180.303 71.3879C181.032 72.5075 181.412 73.8194 181.391 75.1554C181.37 76.4915 180.951 77.7911 180.188 78.8879C179.808 79.5119 179.907 79.6979 180.548 80.0399C183.266 81.4055 185.348 83.7743 186.353 86.6459C187.358 89.5175 187.206 92.6672 185.933 95.4299C185.783 95.7854 185.319 96.1709 186.096 96.4889C191.588 98.7389 191.36 107.203 187.052 111.099C186.777 111.304 186.59 111.604 186.525 111.94C186.459 112.276 186.522 112.624 186.699 112.917C187.173 113.988 187.428 115.143 187.445 116.315C187.463 117.486 187.244 118.649 186.803 119.733C186.36 120.818 185.705 121.803 184.874 122.628C184.043 123.454 183.053 124.103 181.965 124.537C180.332 125.191 178.884 126.239 177.753 127.587C172.667 135.547 163.032 130.384 164.712 128.29Z" fill="#00143B"/>
<path d="M138.513 237.539C139.284 238.419 140.293 239.06 141.418 239.382C142.543 239.706 143.737 239.697 144.858 239.36C145.38 239.219 145.715 239.522 146.112 239.766C150.405 242.399 150.927 239.108 152.843 239.85C153.369 240.132 153.974 240.234 154.563 240.14C155.153 240.045 155.696 239.759 156.107 239.325C156.518 238.892 156.776 238.335 156.839 237.741C156.903 237.149 156.77 236.55 156.461 236.039C156.149 235.454 155.838 234.917 156.611 234.446C156.912 234.209 157.295 234.098 157.677 234.138C158.058 234.177 158.411 234.365 158.657 234.659C168.12 244.664 184.826 250.952 185.715 251.381C180.107 252.834 167.897 251.99 161.928 250.931C160.055 250.601 161.801 245.912 152.229 243.414C137.762 239.637 137.445 240.32 138.204 238.755C138.342 238.359 138.445 237.953 138.513 237.539Z" fill="#57c2b4"/>
<path d="M121.861 128.681C118.147 129.842 114.661 130.191 112.226 126.353C111.185 124.794 110.657 122.95 110.714 121.077C110.772 119.203 111.412 117.395 112.547 115.904C106.384 114.152 106.388 105.968 109.361 104.007C109.747 103.752 110.224 103.17 110.66 103.599C111.623 104.544 108.088 105.174 109.124 110.235C110.149 115.241 114.494 113.799 114.893 115.377C115.069 116.072 114.581 116.49 114.128 116.849C111.374 119.028 112.265 124.922 115.093 126.921C118.879 129.597 123.388 124.922 123.464 128.09C123.629 135.051 131.357 135.81 135.199 133.662C135.499 133.496 135.94 133.079 136.195 133.446C136.97 134.558 129.337 139.392 124.195 133.773C122.827 132.413 121.998 130.604 121.861 128.681Z" fill="#00143B"/>
<path d="M154.297 123.85C153.466 127.546 150.304 130.885 144.514 131.986C143.299 132.217 143.521 132.319 143.314 137.88C143.278 138.862 142.835 140.16 142.009 139.98C141.427 139.852 141.43 139.815 141.992 133.42C142.048 132.795 142.058 132.37 141.208 132.441C133.271 133.126 124.964 127.066 122.444 118.023C121.955 116.272 120.101 108.892 121.919 108.84C122.819 108.813 121.769 118.788 128.696 126.034C130.16 127.639 131.941 128.923 133.926 129.803C135.912 130.683 138.059 131.141 140.231 131.147C142.403 131.154 144.553 130.708 146.544 129.84C148.535 128.971 150.323 127.698 151.796 126.102C152.546 125.264 153.385 124.509 154.297 123.85Z" fill="#00143B"/>
<path d="M142.237 60.7679C147.397 51.9974 154.447 57.2744 153.535 58.6679C153.171 59.2229 152.698 58.8734 152.335 58.6214C148.426 55.9364 144.448 58.8479 143.018 62.1149C142.829 62.5454 142.831 63.2324 142.175 63.2354C140.933 63.2354 141.829 60.5759 137.996 59.7239C137.262 59.5385 136.497 59.5115 135.751 59.6448C135.006 59.7782 134.297 60.0689 133.673 60.4974C133.048 60.926 132.522 61.4828 132.13 62.1305C131.737 62.7782 131.487 63.5021 131.396 64.2539C131.323 64.8044 131.494 65.5304 130.765 65.7689C130.109 65.9834 129.827 65.3354 129.427 65.0069C127.315 63.2804 120.847 63.6494 120.098 71.3069C120.065 71.6444 120.307 72.1964 119.816 72.2819C118.538 72.5039 118.366 69.0014 119.464 66.8819C120.347 65.1404 121.845 63.7886 123.667 63.0884C125.49 62.388 127.507 62.3892 129.329 63.0914C129.755 63.2414 130.024 63.4364 130.153 62.7419C131.015 58.0499 138.365 55.8599 142.237 60.7679Z" fill="#00143B"/>
<path d="M135.485 240.484C132.617 238.56 134.135 225.144 142.941 220.285C150.258 216.246 157.791 218.889 156.779 220.618C156.564 220.986 156.303 220.816 156.021 220.737C152.405 219.72 148.539 220.099 145.19 221.802C141.841 223.503 139.255 226.402 137.945 229.923C136.691 233.328 135.865 236.875 135.485 240.484Z" fill="#00143B"/>
<path d="M109.848 100.678C106.134 99.7317 104.588 91.6197 110.91 87.2937C111.909 86.6097 112.983 86.0427 114.071 85.3962C106.368 79.3242 114.114 71.6382 118.926 73.0467C119.376 73.1802 119.883 73.3287 119.775 73.9362C119.679 74.4822 119.175 74.4522 118.755 74.4327C114.431 74.2452 109.653 79.8852 114.872 83.8377C116.001 84.6942 117.171 84.9222 117.011 85.9047C116.777 87.3312 115.1 86.2377 111.681 89.1762C105.545 94.4532 109.746 99.5997 109.848 100.678Z" fill="#00143B"/>
<path d="M149.804 166.176C143.987 166.186 139.696 159.554 141.607 158.705C142.235 158.426 142.357 159.018 142.588 159.392C147.584 167.249 153.688 164.716 158.938 157.173C159.148 156.873 159.238 156.294 159.824 156.515C162.355 157.469 156.232 165.798 149.804 166.176Z" fill="#00143B"/>
<path d="M37.0134 167.816C40.5309 165.506 29.9004 168.089 29.2809 165.282C28.9509 163.782 27.0864 165.02 28.0104 166.659C29.5749 169.439 34.8459 169.241 37.0134 167.816Z" fill="#00143B"/>
<path d="M30.7884 169.029C28.5954 171.786 37.3179 175.401 42.3009 172.241C42.534 172.136 42.7368 171.975 42.8909 171.771C43.0448 171.567 43.1447 171.329 43.1814 171.075C41.0856 171.6 38.9045 171.689 36.7728 171.338C34.6412 170.985 32.6043 170.199 30.7884 169.029Z" fill="#00143B"/>
<path d="M123.484 86.2334C124.578 85.9355 125.699 85.746 126.83 85.6679C129.656 85.3319 129.727 83.1314 130.609 80.5064C131.104 79.0349 132.506 79.1894 132.002 79.9259C131.373 81.159 130.993 82.5042 130.885 83.8844C129.994 87.9149 126.34 87.8534 124.394 88.4789C119.86 89.9354 122.461 94.2524 121.222 94.4174C119.723 94.6169 117.919 88.0499 123.484 86.2334Z" fill="#00143B"/>
<path d="M32.23 157.809C29.314 157.593 26.305 159.409 27.0295 161.842C27.466 163.312 26.026 163.441 25.4335 162.514C23.083 158.835 28.2835 152.764 34.9675 156.364C37.201 157.567 33.79 157.926 32.23 157.809Z" fill="#00143B"/>
<path d="M45.2612 181.103C43.8992 183.788 36.6707 184.676 32.4962 179.345C32.0462 178.76 31.5137 177.779 32.1782 177.36C33.3437 176.625 35.4347 182.841 45.2612 181.103Z" fill="#00143B"/>
<path d="M44.3833 176.067C43.9648 178.338 36.0283 179.873 32.3743 176.088C31.7218 175.413 31.1053 174.279 31.8373 173.838C32.8603 173.205 35.8888 178.137 44.3833 176.067Z" fill="#00143B"/>
<path d="M147.011 76.3499C147.945 79.0214 141.245 84.5354 135.897 82.9289C135.323 82.7579 134.58 82.4474 134.741 81.8699C135.041 80.7749 137.583 84.1979 146.492 76.6439C146.859 76.3304 146.735 76.4159 147.011 76.3499Z" fill="#00143B"/>
<path d="M145.543 236.267C145.146 236.802 144.6 237.209 143.973 237.435C143.347 237.662 142.667 237.698 142.02 237.54C141.372 237.381 140.786 237.036 140.334 236.546C139.882 236.057 139.585 235.445 139.48 234.786C139.087 231.359 141.53 227.169 142.6 228.143C142.93 228.443 142.624 228.68 142.517 228.917C141.883 230.288 141.535 231.776 141.496 233.286C141.449 236.048 142.433 236.1 145.543 236.267Z" fill="#00143B"/>
<path d="M131.484 247.5C147.444 249.467 145.365 251.85 143.979 251.649C141.314 251.25 133.026 249.702 131.484 247.5Z" fill="#00143B"/>
<path d="M151.35 238.147C148.624 241.158 143.518 237.331 146.667 230.358C147.117 229.35 148.288 229.681 148.102 230.88C146.712 239.85 150.858 237.112 151.35 238.147Z" fill="#00143B"/>
<path d="M153.541 93.2397C153.328 93.6102 153.448 93.5832 145.658 91.2612C145.465 91.2409 145.285 91.1487 145.156 91.0026C145.027 90.8566 144.957 90.6675 144.961 90.4727C144.965 90.2778 145.041 90.0913 145.176 89.9502C145.31 89.8089 145.493 89.7234 145.687 89.7102C149.482 88.7877 154.087 92.2902 153.541 93.2397Z" fill="#00143B"/>
<path d="M126.684 91.6587C126.864 89.4252 132.007 88.1262 133.95 89.6262C134.884 90.3477 134.41 91.0812 133.677 91.0617C131.331 91.0146 128.987 91.2147 126.684 91.6587Z" fill="#00143B"/>
<path d="M146.63 113.592C148.624 116.757 144.23 120.395 140.693 119.483C140.42 119.412 140.042 119.432 140.02 119.049C139.966 118.103 145.183 118.931 146.63 113.592Z" fill="#00143B"/>
<path d="M151.514 234.789C151.638 233.079 152.33 231.72 153.129 232.008C154.278 232.424 151.71 235.061 154.949 237.341C156.545 238.464 151.626 239.411 151.514 234.789Z" fill="#00143B"/>
<path d="M136.773 112.299C130.538 112.263 136.073 104.098 135.633 106.74C135.236 109.125 134.734 110.2 136.186 110.569C136.504 110.65 138.304 111.258 138.179 111.823C138.04 112.459 137.174 112.138 136.773 112.299Z" fill="#00143B"/>
<path d="M136.224 252.414C141.66 253.217 139.503 256.352 135.123 253.208C135.053 253.158 135.005 253.083 134.99 252.999C134.974 252.915 134.993 252.828 135.041 252.758C135.3 252.281 135.767 252.464 136.224 252.414Z" fill="#00143B"/>
<path d="M130.775 255.498C132.527 255.258 135.641 255.789 135.167 256.951C134.657 258.202 131.792 256.578 130.775 255.498Z" fill="#00143B"/>
<path d="M81.9002 249.887C69.8762 249.459 69.4067 232.911 80.7992 231.708C82.2216 231.516 83.6694 231.716 84.9869 232.286C86.3043 232.856 87.4418 233.774 88.2767 234.941C88.6787 235.449 89.0477 235.871 87.9317 236.057C82.8857 236.901 82.4822 244.083 87.1367 245.915C88.5962 246.489 88.6112 246.506 87.4037 247.577C85.8858 248.951 83.9442 249.765 81.9002 249.887Z" fill="#00143B"/>
<path d="M88.4402 221.585C90.2132 221.597 88.6172 227.525 82.2347 229.053C80.6897 229.422 79.8617 228.485 80.3222 227.103C81.095 225.569 82.246 224.258 83.6663 223.292C85.0867 222.327 86.7296 221.739 88.4402 221.585Z" fill="#00143B"/>
<path d="M127.283 102.75C126.041 102.765 125.698 100.65 126.083 99.5579C126.658 97.9079 128.113 98.2709 128.45 99.5819C128.788 100.893 128.627 102.739 127.283 102.75Z" fill="#00143B"/>
<path d="M148.925 100.65C148.31 104.343 146.118 102.632 146.115 100.8C146.111 98.16 148.892 97.9965 148.925 100.65Z" fill="#00143B"/>
</svg>
