<svg width="300" height="300" viewBox="0 0 300 300" fill="none" xmlns="http://www.w3.org/2000/svg">
<path d="M289.459 51.4511C289.459 51.3919 289.446 51.3333 289.42 51.2801C289.451 51.2489 289.473 51.2106 289.486 51.1687C289.498 51.1268 289.5 51.0825 289.491 51.0396C289.483 50.9968 289.464 50.9566 289.436 50.9227C289.409 50.8888 289.373 50.8622 289.333 50.8451C288.079 50.2721 286.84 49.7006 285.536 49.2401C282.673 48.2261 276.293 46.8881 273.475 47.7791C269.359 49.0766 268.033 54.8936 267.485 59.1791C266.474 66.1812 268.084 73.3103 272.007 79.1981C272.66 80.221 273.47 81.1351 274.406 81.9071C274.556 82.0166 205.645 78.4706 197.626 78.1061C189.447 74.4386 186.874 66.5681 188.926 58.1666C190.081 53.4086 192.685 48.6791 197.049 46.4966C197.719 46.1591 197.918 46.0931 198.004 45.9356C198.709 45.9356 270.762 47.6366 271.719 47.5406C272.038 47.5136 272.046 47.0186 271.719 47.0366C270.724 47.0951 198.768 44.9906 197.514 45.3251C195.088 46.1826 192.994 47.7803 191.525 49.8926C188.203 54.5822 186.717 60.3279 187.35 66.0401C187.599 68.7059 188.554 71.2571 190.116 73.4314C191.679 75.6058 193.792 77.325 196.238 78.4121C197.831 79.0616 192.629 78.5801 273.421 82.9031C276.61 83.0711 277.4 83.3411 280.232 81.8351C281.659 81.0021 283.007 80.0416 284.26 78.9656C286.387 77.3106 288.257 75.3499 289.81 73.1471C289.898 73.1249 289.978 73.0798 290.043 73.0162C290.107 72.9527 290.154 72.8731 290.178 72.7856C290.98 68.2901 289.491 53.6456 289.459 51.4511Z" fill="#00143B"/>
<path d="M194.101 60.3624C193.699 60.2889 193.518 60.8979 193.926 60.9819C194.739 61.1499 261.294 65.3484 263.208 65.0004C263.255 65.0048 263.302 64.9996 263.347 64.9851C263.392 64.9706 263.433 64.9471 263.469 64.9161C263.504 64.8851 263.533 64.8472 263.553 64.8047C263.574 64.7622 263.585 64.716 263.587 64.6689C263.59 64.6218 263.582 64.5748 263.565 64.5307C263.549 64.4866 263.523 64.4464 263.49 64.4124C263.458 64.3785 263.418 64.3515 263.375 64.3332C263.331 64.3149 263.285 64.3056 263.238 64.3059C263.223 64.3059 262.996 64.2774 262.996 64.2774C260.101 63.8859 189.622 60.1239 194.101 60.3624Z" fill="#00143B"/>
<path d="M227.58 58.5604C227.71 58.5577 227.835 58.5047 227.927 58.4124C228.019 58.3202 228.072 58.1958 228.075 58.0654C228.243 56.3374 228.432 54.6154 228.561 52.8769C228.559 52.7965 228.533 52.7186 228.488 52.6524C228.442 52.5862 228.378 52.5347 228.304 52.504C228.23 52.4734 228.148 52.465 228.069 52.4798C227.99 52.4945 227.917 52.5319 227.859 52.5874C226.801 53.693 225.815 54.866 224.908 56.0989C224.793 56.3239 225.037 56.6254 225.277 56.4679C226.1 55.7702 226.853 54.9951 227.527 54.1534C227.329 55.4524 227.172 56.7619 227.077 58.0654C227.078 58.131 227.091 58.1959 227.116 58.2563C227.142 58.3168 227.179 58.3716 227.226 58.4176C227.272 58.4636 227.328 58.5 227.388 58.5245C227.449 58.549 227.514 58.5612 227.58 58.5604Z" fill="#00143B"/>
<path d="M231.151 57.5757C230.948 57.6864 230.72 57.7441 230.489 57.7437C230.323 57.7542 230.078 57.7887 230.017 57.7152C229.724 57.3657 229.145 57.7407 229.267 58.1502C229.336 58.3345 229.466 58.4893 229.636 58.5884C229.806 58.6876 230.005 58.7252 230.2 58.6947C230.591 58.7073 230.981 58.6463 231.35 58.5147C231.658 58.3902 231.929 58.1884 232.137 57.9286C232.345 57.6689 232.482 57.36 232.535 57.0318C232.589 56.7036 232.557 56.3672 232.443 56.0549C232.328 55.7427 232.135 55.4652 231.883 55.2492C231.54 54.9746 231.121 54.8141 230.683 54.7902C230.728 54.4295 230.752 54.0663 230.755 53.7027C231.472 53.7215 232.188 53.6571 232.891 53.5107C232.947 53.4934 232.997 53.4585 233.032 53.4109C233.067 53.3634 233.086 53.3058 233.086 53.2467C233.086 53.1875 233.067 53.13 233.032 53.0824C232.997 53.0349 232.947 52.9999 232.891 52.9827C232.036 52.8237 231.166 52.7623 230.297 52.7997C230.178 52.802 230.065 52.8501 229.981 52.934C229.897 53.0179 229.849 53.1311 229.847 53.2497C229.864 53.9036 229.809 54.5574 229.685 55.1997C229.622 55.5222 229.897 55.8972 230.258 55.7727C230.416 55.7141 230.586 55.6953 230.753 55.7182C230.92 55.7411 231.079 55.8048 231.216 55.9038C231.352 56.0028 231.462 56.1339 231.536 56.2855C231.609 56.4372 231.645 56.6047 231.638 56.7732C231.62 56.9344 231.567 57.0897 231.483 57.2283C231.399 57.3669 231.285 57.4854 231.151 57.5757Z" fill="#00143B"/>
<path d="M236.197 53.0211C236.157 52.8797 236.062 52.7599 235.934 52.688C235.806 52.6161 235.655 52.5981 235.513 52.6379C235.372 52.6777 235.252 52.772 235.18 52.9001C235.108 53.0283 235.09 53.1797 235.13 53.3211C235.17 53.4626 235.264 53.5824 235.392 53.6543C235.456 53.6899 235.526 53.7126 235.598 53.7212C235.67 53.7298 235.743 53.7241 235.813 53.7044C235.883 53.6847 235.949 53.6514 236.006 53.6064C236.063 53.5614 236.111 53.5056 236.146 53.4421C236.182 53.3787 236.205 53.3089 236.213 53.2366C236.222 53.1644 236.216 53.0912 236.197 53.0211Z" fill="#00143B"/>
<path d="M142.813 165.914C142.154 165.793 141.538 165.505 141.023 165.078C140.508 164.651 140.11 164.099 139.868 163.475C139.66 162.953 139.52 162.405 139.453 161.846C139.45 161.757 139.417 161.672 139.357 161.606C139.298 161.539 139.217 161.496 139.129 161.484C139.04 161.472 138.951 161.492 138.876 161.54C138.801 161.588 138.745 161.661 138.719 161.746C138.638 162.072 138.604 162.409 138.616 162.745C138.916 166.106 142.651 167.597 143.566 166.901C143.619 166.869 143.665 166.825 143.699 166.772C143.733 166.719 143.755 166.66 143.763 166.598C143.771 166.535 143.765 166.472 143.746 166.412C143.726 166.353 143.693 166.299 143.65 166.253C143.412 166.058 143.12 165.939 142.813 165.914Z" fill="#00143B"/>
<path d="M150.52 135.198C150.313 134.888 150.021 134.645 149.678 134.498C149.335 134.352 148.957 134.308 148.59 134.373C148.196 134.581 147.851 134.872 147.58 135.225C147.309 135.579 147.117 135.987 147.018 136.421C146.919 136.856 146.916 137.307 147.008 137.743C147.1 138.179 147.285 138.59 147.55 138.948C147.798 139.275 148.161 139.495 148.565 139.565C148.969 139.635 149.385 139.549 149.728 139.324C150.34 138.851 150.759 138.171 150.904 137.411C151.05 136.651 150.914 135.864 150.52 135.198Z" fill="#00143B"/>
<path d="M149.701 128.361C149.764 128.325 149.817 128.274 149.857 128.213C149.897 128.153 149.922 128.083 149.93 128.011C150.071 127.492 149.083 127.306 148.516 127.384C146.525 127.74 144.726 128.796 143.444 130.362C143.225 130.629 143.066 130.94 142.976 131.274C142.958 131.349 142.962 131.428 142.987 131.502C143.013 131.575 143.059 131.64 143.121 131.687C143.182 131.735 143.256 131.764 143.333 131.77C143.411 131.777 143.488 131.76 143.557 131.724C144.072 131.39 144.551 131.004 144.986 130.572C145.87 129.861 146.878 129.32 147.959 128.977C148.574 128.884 149.165 128.675 149.701 128.361Z" fill="#00143B"/>
<path d="M113.818 132.769C114.456 132.415 115.161 132.199 115.888 132.135C116.615 132.07 117.347 132.159 118.037 132.396C119.215 132.904 119.122 133.504 119.518 133.335C119.583 133.308 119.636 133.259 119.667 133.196C119.698 133.133 119.705 133.06 119.686 132.993C118.345 129.736 111.692 130.818 109.903 135.754C108.938 138.412 109.231 143.013 111.689 145.354C113.339 146.917 116.837 148.194 118.927 146.767C119.439 146.404 119.886 145.956 120.25 145.444C120.592 144.917 120.86 144.346 121.048 143.746C121.068 143.665 121.059 143.58 121.022 143.505C120.985 143.43 120.922 143.372 120.846 143.339C120.769 143.307 120.683 143.303 120.603 143.329C120.524 143.355 120.457 143.408 120.413 143.479C120.124 143.863 119.806 144.229 119.513 144.61C119.245 144.992 118.937 145.344 118.594 145.66C117.067 146.973 114.394 146.071 112.894 144.979C112.183 144.391 111.602 143.661 111.189 142.836C110.776 142.012 110.539 141.11 110.494 140.188C110.099 136.288 111.521 133.968 113.818 132.769Z" fill="#00143B"/>
<path d="M130.221 125.023C129.936 125.425 129.685 125.849 129.471 126.292C128.649 127.47 127.728 128.576 126.719 129.598C124.524 131.988 123.218 135.06 123.02 138.298C123.008 138.598 123.512 138.681 123.558 138.372C124.422 132.579 127.328 130.353 129.195 128.121C129.687 127.533 130.868 126.036 130.811 125.271C130.809 125.203 130.788 125.138 130.749 125.082C130.711 125.027 130.658 124.983 130.596 124.957C130.534 124.931 130.465 124.923 130.399 124.935C130.332 124.947 130.271 124.977 130.221 125.023Z" fill="#00143B"/>
<path d="M110.772 149.04C110.827 148.643 110.271 148.46 110.152 148.871C108.435 154.721 102.835 159.269 92.9699 158.702C87.3659 158.382 85.4819 156.27 83.8754 150.602C83.307 148.185 82.5671 145.812 81.6614 143.501C79.7459 138.731 77.4494 134.951 76.0124 128.442C74.7675 122.49 74.686 116.353 75.7724 110.37C75.8219 109.886 75.0764 109.82 74.9429 110.259C73.7016 115.765 73.6051 121.467 74.6594 127.011C75.8984 133.89 78.1739 137.951 80.1134 142.473C81.1664 144.861 82.0013 147.34 82.6079 149.879C83.1111 152.688 84.3802 155.303 86.2754 157.437C86.6076 161.236 86.0208 165.059 84.5645 168.584C83.1083 172.108 80.8253 175.23 77.9084 177.687C77.4456 178.174 76.8563 178.522 76.2067 178.693C75.557 178.863 74.8727 178.85 74.2304 178.653C72.8444 178.141 71.5165 177.484 70.2689 176.693C67.6653 175.238 64.9351 174.022 62.1119 173.061C53.4944 170.289 44.7584 172.334 37.4219 177.411C32.218 181.052 27.871 185.784 24.6839 191.277C24.5624 191.502 24.8699 191.771 25.0529 191.562C27.6614 188.589 31.4444 183.368 36.7409 179.372C43.8074 174.048 52.3724 171.459 60.9509 173.93C66.6149 175.56 70.7924 178.535 73.1849 179.507C76.3214 180.777 78.2264 179.207 80.5724 176.768C82.9414 174.323 84.7576 171.398 85.8981 168.191C87.0386 164.984 87.4768 161.569 87.1829 158.178C90.1184 160.169 95.9399 160.001 99.4109 159.27C106.125 157.853 110.188 153.219 110.772 149.04Z" fill="#00143B"/>
<path d="M150.678 107.307C151.446 104.692 150.394 101.059 149.32 98.5544C149.233 98.3715 149.128 98.1981 149.005 98.0369C148.87 97.8419 148.486 97.8869 148.513 98.1704C148.704 100.3 150.277 102.195 150.1 107.227C150.107 107.294 150.136 107.357 150.183 107.405C150.229 107.454 150.291 107.485 150.358 107.494C150.424 107.503 150.492 107.49 150.55 107.456C150.608 107.422 150.653 107.369 150.678 107.307Z" fill="#00143B"/>
<path d="M138.335 97.182C138.293 97.0005 137.98 96.9825 137.95 97.182C137.871 98.9869 138.171 100.788 138.829 102.471C139.488 104.153 140.49 105.679 141.773 106.952C142.054 107.241 142.457 106.817 142.208 106.515C139.349 103.052 139.016 100.157 138.335 97.182Z" fill="#00143B"/>
<path d="M135.749 76.3502C123.132 71.1947 104.549 71.5292 92.5894 78.9602C93.3244 76.4387 91.1764 73.7012 86.7934 75.4982C86.5429 68.5412 79.9264 65.2667 73.0864 64.0097C64.8799 62.5037 55.6939 64.0502 49.1989 69.5147C42.4864 75.1637 38.8744 83.7287 36.5134 91.9637C33.9424 100.928 32.5819 110.171 28.4899 119.777C24.5899 128.949 18.5644 137.277 9.87039 142.071C9.79551 142.118 9.73198 142.181 9.68433 142.256C9.63669 142.33 9.60611 142.415 9.59478 142.502C9.58346 142.59 9.59167 142.679 9.61883 142.763C9.64599 142.848 9.69143 142.925 9.75189 142.989C18.1189 152.934 33.6289 155.889 46.5829 147.728C64.7329 136.307 64.2829 112.68 68.2804 96.4577C69.1099 93.0977 70.5049 89.3387 73.9534 87.8912C74.6783 87.5861 75.459 87.4359 76.2454 87.4502C76.3986 87.4502 76.5454 87.3894 76.6537 87.2811C76.762 87.1728 76.8229 87.0259 76.8229 86.8727C76.8229 86.7196 76.762 86.5727 76.6537 86.4644C76.5454 86.3561 76.3986 86.2952 76.2454 86.2952C72.6964 86.2337 69.9109 88.9742 68.5294 92.0207C65.5564 98.5772 64.5529 115.391 60.5794 126.984C58.438 133.888 54.3701 140.037 48.8539 144.708C36.4984 154.595 19.9804 152.907 11.0764 142.739C18.2719 138.367 24.0435 132 27.6904 124.412C36.7489 106.677 35.2789 87.1502 46.7989 73.6037C49.4177 70.4471 52.7989 68.0112 56.6224 66.5267C63.8797 63.8706 71.87 64.0376 79.0099 66.9947C80.5343 67.5602 81.9126 68.46 83.0436 69.6281C84.1746 70.7962 85.0295 72.2029 85.5454 73.7447C85.7086 74.4616 85.8184 75.1896 85.8739 75.9227C82.5539 77.6669 79.9761 80.5521 78.6154 84.0467C76.5244 89.4077 79.0894 91.7402 81.9154 90.4232C81.1823 91.8586 80.6609 93.3925 80.3674 94.9772C80.3369 95.1057 80.3574 95.241 80.4246 95.3547C80.4918 95.4683 80.6005 95.5515 80.7278 95.5867C80.855 95.6218 80.991 95.6063 81.107 95.5432C81.223 95.4802 81.3101 95.3747 81.3499 95.2487C81.8137 93.7967 82.3688 92.3753 83.0119 90.9932C91.1644 74.4407 115.637 70.9307 132.719 76.5152C150.207 82.2332 157.545 97.3157 154.941 107.415C154.916 107.507 154.928 107.606 154.976 107.689C155.023 107.772 155.101 107.832 155.193 107.858C155.285 107.883 155.384 107.871 155.467 107.823C155.55 107.776 155.611 107.698 155.636 107.606C158.825 99.0377 152.811 83.3222 135.749 76.3502Z" fill="#00143B"/>
<path d="M27.0979 134.915C27.1534 134.732 26.9179 134.515 26.7484 134.645C25.2754 135.766 22.8484 139.984 16.9024 141.725C15.797 142.021 14.6708 142.232 13.5334 142.357C13.4639 142.369 13.4009 142.405 13.3555 142.459C13.31 142.513 13.2852 142.582 13.2852 142.652C13.2852 142.723 13.31 142.791 13.3555 142.845C13.4009 142.899 13.4639 142.936 13.5334 142.948C19.3519 143.677 26.2894 137.635 27.0979 134.915Z" fill="#00143B"/>
<path d="M19.0797 146.256C22.5294 146.53 25.9895 145.874 29.0999 144.357C32.2103 142.84 34.8575 140.518 36.7662 137.631C36.9701 137.281 37.1462 136.916 37.2927 136.538C37.3226 136.476 37.3279 136.405 37.3077 136.339C37.2875 136.273 37.2433 136.217 37.1837 136.182C37.1242 136.147 37.0537 136.136 36.9864 136.151C36.919 136.166 36.8597 136.205 36.8202 136.262C36.6102 136.542 36.3702 136.799 36.1707 137.085C34.2726 139.839 31.7127 142.072 28.7262 143.578C25.7397 145.083 22.4225 145.814 19.0797 145.703C18.7182 145.683 18.7287 146.223 19.0797 146.256Z" fill="#00143B"/>
<path d="M82.6501 76.2134C82.8841 76.5134 83.3837 76.2599 83.1827 75.9014C82.3468 74.475 81.2448 73.2224 79.9366 72.2114C79.5231 71.812 79.0096 71.5311 78.4501 71.3984C78.3998 71.3988 78.3503 71.4123 78.3068 71.4377C78.2633 71.4632 78.2272 71.4995 78.2022 71.5433C78.1771 71.587 78.164 71.6365 78.1641 71.6869C78.1641 71.7373 78.1774 71.7868 78.2026 71.8304C79.8405 73.1249 81.3319 74.5947 82.6501 76.2134Z" fill="#00143B"/>
<path d="M207.362 249.242C199.415 236.402 190.174 224.408 179.786 213.449C170.114 203.195 158.305 191.649 144.938 188.187C138.307 186.306 131.231 186.757 124.892 189.465C125.192 187.691 124.225 187.022 126.212 179.237C129.141 179.722 132.142 179.509 134.974 178.617C138.016 177.694 140.692 175.839 142.624 173.313C145.413 169.972 147.536 166.128 148.879 161.988C149.314 161.009 149.616 159.977 149.779 158.918C149.92 157.905 150.15 156.906 150.466 155.933C150.527 155.82 150.187 156.044 156.457 152.265C157.172 151.832 158.084 151.431 158.33 150.554C158.704 149.232 157.511 148.139 156.335 146.099C153.133 140.466 151.898 133.927 152.827 127.514C152.924 126.734 153.019 125.954 153.127 125.175C153.151 125.089 153.139 124.996 153.095 124.918C153.05 124.839 152.976 124.782 152.89 124.758C152.803 124.734 152.71 124.746 152.632 124.79C152.554 124.835 152.497 124.909 152.473 124.995C150.845 129.519 150.887 136.887 153.905 143.835C155.797 148.185 157.087 148.785 157.228 149.96C157.3 150.56 156.703 150.756 155.728 151.344L150.787 154.331C150.296 154.631 149.674 154.859 149.428 155.411C149.002 156.745 148.685 158.112 148.48 159.498C148.348 160.127 147.406 162.633 147.175 163.229C145.729 167.149 143.508 170.737 140.645 173.78C138.966 175.436 136.939 176.696 134.711 177.469C132.482 178.241 130.11 178.506 127.766 178.244C122.816 177.833 117.074 175.08 112.292 169.319C111.556 168.429 111.508 168.336 111.242 168.056C111.105 167.933 110.976 167.802 110.857 167.663C110.793 167.561 110.693 167.487 110.577 167.457C110.461 167.427 110.338 167.443 110.233 167.501C110.129 167.562 110.053 167.662 110.023 167.779C109.992 167.896 110.009 168.02 110.069 168.125C110.294 168.44 110.435 168.818 110.669 169.136C114.206 174.042 119.357 177.547 125.219 179.036C123.92 182.036 123.14 188.271 123.943 189.957C123.473 190.239 123.02 190.557 122.579 190.874C122.515 190.911 122.469 190.972 122.451 191.043C122.432 191.115 122.442 191.19 122.479 191.254C122.517 191.318 122.578 191.364 122.649 191.383C122.72 191.401 122.796 191.391 122.86 191.354C128.99 188.236 136.014 187.345 142.729 188.835C156.379 191.64 167.665 202.467 177.418 212.613C188.295 224.02 198.064 236.434 206.591 249.69C206.658 249.776 206.754 249.835 206.861 249.856C206.968 249.877 207.079 249.858 207.173 249.803C207.267 249.748 207.338 249.661 207.373 249.558C207.408 249.455 207.404 249.342 207.362 249.242Z" fill="#00143B"/>
<path d="M118.145 190.192C118.25 189.892 117.707 189.669 117.512 189.949C117.258 190.311 116.978 190.656 116.724 191.016C114.298 194.381 110.754 196.774 106.725 197.766C95.9118 200.805 80.2353 196.776 77.2908 186.498C76.3053 183.069 77.1888 180.895 77.0103 179.992C77.0103 179.491 76.1898 179.478 76.1103 179.842C76.1223 179.787 76.0593 179.953 76.0338 180.013C75.7333 180.892 75.5871 181.815 75.6018 182.743C75.2598 196.816 95.9628 203.094 109.215 198.004C112.868 196.602 116.85 193.86 118.145 190.192Z" fill="#57c2b4"/>
<path d="M68.1576 180.527C63.5549 186.021 59.6734 192.08 56.6076 198.557C56.1441 199.516 55.1076 201.695 54.7476 202.729C54.5432 203.199 54.417 203.699 54.3741 204.209C54.3532 204.292 54.3628 204.38 54.401 204.456C54.4391 204.532 54.5035 204.593 54.5822 204.626C54.661 204.659 54.749 204.662 54.8302 204.636C54.9115 204.61 54.9806 204.555 55.0251 204.482C56.1531 202.994 56.7096 200.765 59.8251 195.001C62.5127 190.152 65.4839 185.466 68.7231 180.967C68.9631 180.628 68.4351 180.218 68.1576 180.527Z" fill="#57c2b4"/>
<path d="M121.739 191.39C120.871 193.434 120.196 195.554 119.723 197.724C117.954 205.427 117.619 213.389 118.733 221.213C118.834 222.463 119.165 223.684 119.711 224.813C119.741 224.86 119.785 224.896 119.837 224.916C119.888 224.936 119.945 224.939 119.999 224.924C120.052 224.91 120.1 224.878 120.134 224.835C120.168 224.791 120.188 224.738 120.19 224.682C120.434 222.537 119.218 219.29 119.263 211.67C119.41 204.895 120.474 198.17 122.426 191.681C122.491 191.288 121.949 190.988 121.739 191.39Z" fill="#57c2b4"/>
<path d="M132.223 133.977C132.503 135.213 132.484 136.499 132.169 137.727C131.739 139.099 130.744 139.252 130.369 138.766C129.484 137.64 130.944 135.129 131.764 132.961C132.288 131.791 132.425 130.484 132.154 129.231C132.067 128.887 131.485 128.949 131.523 129.316C131.784 131.893 130.068 134.116 129.381 136.494C128.578 139.258 130.212 140.367 131.548 139.834C133.48 139.062 133.692 135.529 132.799 133.732C132.627 133.395 132.169 133.65 132.223 133.977Z" fill="#57c2b4"/>
<path d="M137.864 140.139C137.83 140.088 137.778 140.052 137.718 140.038C137.659 140.024 137.596 140.033 137.543 140.064C137.49 140.095 137.45 140.145 137.433 140.204C137.416 140.263 137.422 140.326 137.45 140.381C138.389 142.375 138.837 144.565 138.758 146.768C138.71 147.998 138.514 149.553 137.351 149.934C137.119 150.032 136.858 150.04 136.62 149.957C136.382 149.874 136.184 149.705 136.063 149.484C135.86 148.965 135.773 148.408 135.807 147.852C135.841 147.295 135.995 146.753 136.259 146.262C136.661 145.163 137.537 143.231 136.993 142.316C136.97 142.28 136.938 142.252 136.9 142.235C136.862 142.217 136.819 142.21 136.778 142.216C136.736 142.222 136.697 142.239 136.665 142.266C136.633 142.293 136.609 142.328 136.597 142.368C136.471 142.666 136.402 142.985 136.394 143.309C136.04 145.335 133.979 147.861 135.319 149.999C135.519 150.295 135.792 150.534 136.112 150.694C136.431 150.854 136.786 150.929 137.143 150.913C137.5 150.896 137.847 150.788 138.15 150.599C138.454 150.409 138.703 150.146 138.875 149.832C139.924 148.331 140.078 143.732 137.864 140.139Z" fill="#57c2b4"/>
<path d="M124.617 149.665C121.628 152.161 120.782 156.423 121.617 158.337C121.729 158.64 121.913 158.912 122.153 159.129C122.394 159.345 122.683 159.5 122.997 159.579C124.497 159.823 124.781 157.629 124.76 156.592C124.739 155.529 124.521 154.525 124.563 153.369C124.618 153.017 124.614 152.658 124.551 152.307C124.539 152.267 124.517 152.231 124.488 152.202C124.458 152.173 124.421 152.153 124.381 152.142C124.341 152.132 124.299 152.131 124.259 152.142C124.219 152.152 124.182 152.173 124.152 152.202C123.072 153.091 124.283 156.214 123.713 157.995C123.658 158.244 123.536 158.473 123.36 158.658C122.997 158.941 122.558 158.283 122.432 158.016C121.776 156.625 122.319 152.878 125.031 150.075C125.294 149.802 124.901 149.428 124.617 149.665Z" fill="#57c2b4"/>
<path d="M280.575 152.873C280.533 152.723 279.257 149.442 278.925 148.961C276.905 145.997 272.459 145.863 269.054 145.511C259.619 144.53 251.771 143.765 241.242 143.364C237.891 143.238 235.242 142.914 232.919 143.744C230.381 144.734 228.231 146.518 226.788 148.829C223.188 154.287 219.957 160.286 216.738 166.043C210.412 177.314 204.704 188.92 199.638 200.811C197.838 204.965 195.711 209.103 196.277 212.639C196.224 213.128 196.23 213.621 196.295 214.109C196.736 217.596 198.023 220.088 203.004 222.197C204.973 222.949 207.008 223.514 209.084 223.884C215.332 225.237 221.645 226.275 227.999 226.994C228.477 225.702 228.801 224.358 228.963 222.99C221.245 222.156 213.588 220.823 206.042 219C202.85 218.229 199.292 217.067 197.894 214.097C196.544 211.236 197.744 207.875 198.984 204.962C210.618 177.564 217.284 167.361 224.219 154.914C224.465 154.832 226.397 150.254 229.59 147.144C230.514 146.147 231.648 145.367 232.91 144.861C234.172 144.354 235.53 144.134 236.888 144.216C251.915 144.641 259.4 145.512 271.17 146.714C273.974 147 277.229 147.584 278.52 150.089C279.797 152.556 278.454 155.514 277.127 157.956C271.751 167.856 256.344 196.217 254.238 200.607C251.96 205.356 249.911 210.266 247.277 214.809C247.445 215.315 247.752 215.764 248.163 216.105C248.66 216.422 249.954 216.08 250.515 215.901C251.1 214.802 251.66 213.69 252.204 212.58C260.024 196.68 253.539 208.592 277.797 165.15C279.063 163.242 280.032 161.153 280.673 158.955C281.134 156.95 281.1 154.862 280.575 152.873Z" fill="#00143B"/>
<path d="M227.4 151.367C229.275 151.763 265.971 155.594 273.028 156.141C274.216 156.233 273.858 155.47 273.028 155.376C272.827 155.355 227.635 150.761 227.49 150.75C227.414 150.75 227.341 150.778 227.284 150.827C227.227 150.877 227.19 150.945 227.179 151.019C227.168 151.094 227.184 151.17 227.225 151.234C227.265 151.298 227.327 151.345 227.4 151.367Z" fill="#00143B"/>
<path d="M213.496 181.484C213.784 181.508 252.275 188.384 255.481 188.881C256.435 189.031 256.598 188.468 255.673 188.272C251.009 187.285 213.658 180.983 213.497 180.977C213.166 180.953 213.17 181.456 213.496 181.484Z" fill="#00143B"/>
<path d="M232.307 194.037C230.604 191.178 230.601 191.169 230.283 190.67C230.201 190.508 230.062 190.384 229.892 190.322C229.722 190.259 229.535 190.263 229.368 190.332C227.66 190.854 224.268 191.879 222.78 192.507C222.733 192.52 222.693 192.552 222.668 192.595C222.644 192.638 222.638 192.689 222.651 192.737C222.665 192.784 222.696 192.824 222.739 192.849C222.783 192.873 222.833 192.879 222.881 192.865C225.354 192.379 229.502 190.94 229.652 190.958C229.675 190.989 229.695 191.022 229.712 191.057C232.262 195.317 232.127 195.233 232.506 195.512C232.715 195.662 232.916 195.413 232.89 195.212C232.775 194.785 232.577 194.386 232.307 194.037Z" fill="#57c2b4"/>
<path d="M228.093 208.117C225.653 208.6 221.472 210.045 221.322 210.027C220.454 208.459 219.502 206.938 218.472 205.471C218.264 205.321 218.063 205.572 218.088 205.771C218.205 206.199 218.404 206.6 218.675 206.952C220.175 209.484 220.38 209.823 220.697 210.319C220.778 210.48 220.918 210.605 221.087 210.667C221.257 210.73 221.443 210.726 221.61 210.657C223.182 210.177 226.691 209.116 228.198 208.482C228.246 208.468 228.287 208.436 228.312 208.391C228.336 208.347 228.342 208.296 228.328 208.247C228.314 208.199 228.281 208.158 228.237 208.134C228.193 208.109 228.141 208.104 228.093 208.117Z" fill="#57c2b4"/>
<path d="M225.664 199.564C226.086 197.838 227.914 197.764 228.133 196.179C228.337 194.706 226.203 193.599 224.622 195.363C223.992 196.094 223.669 197.039 223.718 198.002C223.767 198.965 224.185 199.872 224.886 200.535C224.824 200.737 224.723 200.925 224.587 201.087C224.452 201.249 224.286 201.383 224.099 201.481C223.912 201.579 223.707 201.638 223.496 201.656C223.286 201.674 223.074 201.65 222.873 201.585C222.597 201.452 222.304 201.359 222.001 201.31C221.581 201.313 221.176 201.465 220.858 201.74C220.541 202.015 220.332 202.395 220.27 202.81C220.233 203.367 220.411 203.917 220.766 204.346C221.121 204.776 221.628 205.054 222.181 205.122C224.479 205.509 227.356 202.689 225.94 200.751C226.942 200.727 227.503 201.712 227.89 202.627C228.051 203.133 228.37 203.574 228.801 203.884C230.106 204.634 231.835 202.624 231.051 200.625C230.822 200.143 230.484 199.721 230.062 199.393C229.641 199.065 229.149 198.841 228.625 198.738C228.101 198.635 227.561 198.656 227.046 198.799C226.532 198.943 226.059 199.205 225.664 199.564Z" fill="#57c2b4"/>
<path d="M256.861 163.326C256.772 163.176 255.152 160.452 254.839 159.958C254.757 159.797 254.617 159.673 254.447 159.611C254.278 159.548 254.091 159.552 253.924 159.621C252.349 160.102 248.848 161.161 247.337 161.796C247.293 161.812 247.257 161.844 247.235 161.886C247.214 161.928 247.209 161.977 247.222 162.022C247.234 162.067 247.264 162.106 247.304 162.131C247.344 162.156 247.392 162.165 247.438 162.156C249.91 161.67 254.057 160.228 254.209 160.246C254.232 160.278 254.252 160.311 254.269 160.347C256.835 164.623 256.684 164.523 257.063 164.802C257.27 164.952 257.473 164.701 257.447 164.502C257.33 164.076 257.13 163.676 256.861 163.326Z" fill="#57c2b4"/>
<path d="M252.898 176.442C250.498 176.908 246.282 178.369 246.127 178.351C246.104 178.32 246.084 178.286 246.067 178.251C243.492 173.958 243.652 174.075 243.273 173.796C243.066 173.646 242.863 173.896 242.889 174.096C243.006 174.523 243.205 174.924 243.475 175.276C245.226 178.221 245.23 178.222 245.497 178.644C245.58 178.804 245.72 178.928 245.889 178.99C246.059 179.053 246.245 179.05 246.412 178.981C247.975 178.503 251.494 177.439 252.999 176.806C253.047 176.793 253.088 176.761 253.113 176.717C253.138 176.674 253.144 176.622 253.131 176.574C253.118 176.525 253.086 176.484 253.042 176.46C252.998 176.435 252.947 176.428 252.898 176.442Z" fill="#57c2b4"/>
<path d="M245.128 168.52C246.044 168.153 246.912 167.674 247.712 167.095C246.961 168.669 246.31 170.289 245.762 171.945C245.581 172.494 246.448 172.729 246.626 172.183C247.34 170.011 248.238 167.903 249.311 165.883C249.357 165.79 249.369 165.684 249.346 165.583C249.322 165.481 249.264 165.391 249.182 165.328C249.1 165.264 248.998 165.231 248.894 165.235C248.79 165.238 248.69 165.277 248.612 165.345C246.901 166.669 245.575 167.385 244.829 168.009C244.598 168.21 244.849 168.615 245.128 168.52Z" fill="#57c2b4"/>
<path d="M254.49 167.004C253.706 166.577 252.861 166.273 251.984 166.104C251.234 165.929 250.982 166.041 250.634 166.746C250.508 167.003 249.446 169.187 249.446 169.187C249.311 169.466 249.467 169.922 249.842 169.88C250.442 169.715 251.082 169.789 251.628 170.087C251.791 170.287 251.9 170.526 251.945 170.78C251.99 171.035 251.969 171.296 251.884 171.54C251.799 171.784 251.653 172.002 251.461 172.174C251.268 172.346 251.034 172.465 250.782 172.521C250.552 172.567 250.314 172.547 250.094 172.465C249.874 172.383 249.682 172.241 249.537 172.056C249.473 171.952 249.37 171.877 249.252 171.846C249.133 171.814 249.007 171.83 248.9 171.888C248.795 171.952 248.718 172.054 248.687 172.173C248.656 172.291 248.673 172.418 248.733 172.524C248.917 172.777 249.151 172.989 249.421 173.146C249.691 173.304 249.991 173.403 250.301 173.438C250.611 173.473 250.926 173.444 251.224 173.35C251.522 173.257 251.798 173.103 252.033 172.898C252.423 172.618 252.71 172.219 252.853 171.761C252.995 171.303 252.985 170.812 252.823 170.36C252.661 169.909 252.357 169.522 251.956 169.259C251.555 168.996 251.079 168.871 250.601 168.902C251.651 166.706 251.544 166.98 251.561 166.931C251.64 166.955 252.588 167.168 252.738 167.204C252.983 167.262 253.226 167.333 253.47 167.393C253.715 167.453 254 167.486 254.261 167.543C254.574 167.606 254.808 167.166 254.49 167.004Z" fill="#57c2b4"/>
<path d="M255.324 167.868C255.322 168.029 255.359 168.187 255.431 168.33C255.504 168.473 255.61 168.597 255.741 168.69C255.871 168.784 256.022 168.844 256.181 168.866C256.34 168.888 256.502 168.872 256.653 168.818C256.847 168.751 257.014 168.623 257.129 168.453C257.244 168.284 257.301 168.082 257.292 167.877C257.283 167.673 257.209 167.477 257.079 167.318C256.95 167.159 256.772 167.046 256.574 166.997C256.433 166.953 256.285 166.942 256.14 166.965C255.994 166.987 255.856 167.042 255.736 167.127C255.615 167.211 255.515 167.321 255.444 167.45C255.373 167.578 255.332 167.721 255.324 167.868Z" fill="#57c2b4"/>
<path d="M236.8 158.284C236.758 158.017 236.656 157.763 236.502 157.542C236.347 157.32 236.144 157.136 235.909 157.004C235.673 156.872 235.41 156.796 235.141 156.78C234.871 156.765 234.601 156.811 234.352 156.915C233.263 157.399 232.873 158.674 232.42 159.672C230.755 163.345 229.409 166.363 227.92 169.993C227.111 170.195 226.408 170.692 225.947 171.387C225.487 172.081 225.302 172.923 225.43 173.746C225.559 174.569 225.99 175.315 226.64 175.837C227.29 176.358 228.111 176.618 228.943 176.565C229.551 176.542 230.144 176.366 230.666 176.053C231.187 175.739 231.621 175.299 231.926 174.772C232.232 174.245 232.398 173.65 232.411 173.041C232.423 172.433 232.282 171.831 231.998 171.292C236.611 160.48 237.109 159.76 236.8 158.284ZM235.775 159.934C235.22 161.752 231.193 170.8 231.079 171.21C231.004 171.487 231.251 171.732 231.359 171.96C231.6 172.559 231.619 173.225 231.411 173.836C231.203 174.448 230.782 174.965 230.226 175.293C229.669 175.621 229.014 175.739 228.378 175.625C227.742 175.511 227.168 175.173 226.76 174.672C226.545 174.335 226.412 173.952 226.371 173.554C226.331 173.157 226.385 172.755 226.528 172.382C226.672 172.009 226.901 171.674 227.197 171.406C227.494 171.138 227.849 170.943 228.235 170.838C228.788 170.805 228.17 171.183 233.354 159.747C233.551 159.222 233.803 158.719 234.104 158.247C234.817 157.284 235.708 157.497 235.945 158.511C236.008 158.992 235.95 159.482 235.775 159.936V159.934Z" fill="#57c2b4"/>
<path d="M229.436 171.804C229.193 171.744 228.939 171.743 228.696 171.798C228.452 171.854 228.224 171.966 228.031 172.125C227.838 172.284 227.685 172.486 227.583 172.715C227.482 172.944 227.435 173.193 227.447 173.443C227.492 173.697 227.604 173.935 227.77 174.133C227.935 174.331 228.15 174.482 228.393 174.571C228.635 174.66 228.897 174.685 229.151 174.641C229.406 174.598 229.645 174.489 229.844 174.325C230.043 174.16 230.196 173.947 230.287 173.705C230.378 173.463 230.404 173.202 230.363 172.947C230.322 172.692 230.215 172.452 230.052 172.252C229.889 172.051 229.677 171.897 229.436 171.804Z" fill="#57c2b4"/>
<path d="M267.888 212.735C266.418 205.573 265.736 200.735 265.002 195.947C264.947 195.241 264.8 194.545 264.563 193.877C264.546 193.822 264.511 193.776 264.463 193.745C264.415 193.714 264.357 193.701 264.301 193.709C264.244 193.717 264.192 193.745 264.154 193.787C264.116 193.83 264.095 193.885 264.093 193.942C264.054 194.293 264.046 194.647 264.069 194.999C264.603 200.066 265.695 207.2 267.33 214.909C267.917 217.657 268.734 220.487 268.19 222.947C266.588 230.203 255.353 231.497 247.425 236.491C243.651 238.904 240.738 242.452 239.105 246.625C237.905 249.054 237.005 251.621 236.423 254.267C236.337 254.635 236.904 254.921 237.066 254.539C238.886 250.235 238.116 251.698 239.427 248.518C240.881 244.374 243.502 240.739 246.975 238.052C254.349 232.88 265.71 231.502 268.655 224.723C270.18 221.209 268.922 217.765 267.888 212.735Z" fill="#00143B"/>
<path d="M267.73 206.666C267.73 206.762 267.768 206.854 267.835 206.922C267.903 206.989 267.995 207.027 268.091 207.027C268.187 207.027 268.279 206.989 268.347 206.922C268.414 206.854 268.453 206.762 268.453 206.666C269.001 201.768 268.807 196.816 267.88 191.976C267.791 191.368 267.588 190.781 267.28 190.248C267.157 190.055 266.77 190.049 266.731 190.322C266.437 192.44 268.088 194.957 267.73 206.666Z" fill="#00143B"/>
<path d="M272.434 190.17C272.439 189.701 272.363 189.235 272.208 188.792C272.137 188.622 271.863 188.52 271.758 188.735C271.158 190.029 271.717 190.463 270.444 201.035C270.397 201.42 271.032 201.498 271.119 201.125C271.299 200.348 271.476 199.569 271.623 198.785C272.092 195.935 272.363 193.057 272.434 190.17Z" fill="#00143B"/>
<path d="M237.972 204.5C237.832 202.559 236.892 200.093 237.841 198.719C238.641 197.563 240.975 197.53 242.293 200.219C243.619 202.927 243.466 206.588 243.573 209.65C243.669 212.383 244.023 215.993 245.929 217.946C246.377 218.412 246.934 218.757 247.55 218.95C248.166 219.143 248.821 219.178 249.454 219.052C250.815 218.9 252.131 218.48 253.328 217.815C254.524 217.151 255.576 216.255 256.423 215.18C257.315 213.588 257.682 211.756 257.473 209.944C257.451 209.57 257.349 209.206 257.323 208.837C257.293 208.336 256.512 208.333 256.54 208.837C256.563 209.2 256.501 209.578 256.504 209.944C256.518 212.594 256.336 214.478 254.104 216.131C252.381 217.408 248.932 218.819 247.158 217.673C245.164 216.385 244.708 212.606 244.596 210.235C244.446 207.007 244.681 203.635 243.511 200.549C243.295 199.827 242.929 199.158 242.438 198.586C241.947 198.014 241.342 197.551 240.661 197.227C240.015 196.945 239.291 196.896 238.612 197.087C237.933 197.279 237.341 197.699 236.937 198.277C236.355 199.483 236.236 200.862 236.604 202.15C236.976 203.675 237.081 205.253 236.914 206.815C236.373 211.465 232.723 214.942 231.493 219.49C230.47 223.25 231.177 226.576 227.236 232.439C225.003 235.523 222.411 238.33 219.514 240.802C219.288 241.028 219.58 241.432 219.861 241.252C222.388 239.439 224.646 237.279 226.569 234.835C232.896 226.873 230.997 222.673 233.143 217.793C235.05 213.46 238.372 210.116 237.972 204.5Z" fill="#00143B"/>
<path d="M190.707 80.9983C205.475 67.4698 204.536 68.5918 208.439 64.5808C208.73 64.2808 208.334 63.7108 207.975 63.9808C205.907 65.5543 203.898 67.1923 201.953 68.9143C201.422 69.3838 180.044 88.7578 179.165 89.8303C178.925 90.1213 178.725 90.4303 178.509 90.7453C178.263 91.0993 178.742 91.5298 179.087 91.3228C180.932 90.2158 180.953 89.9383 190.707 80.9983Z" fill="#57c2b4"/>
<path d="M226.311 67.9776C221.311 74.0049 216.672 80.3235 212.42 86.9001C211.114 88.695 209.983 90.6101 209.042 92.6196C209.018 92.7035 209.024 92.7927 209.057 92.8733C209.089 92.9539 209.148 93.0212 209.224 93.0648C209.299 93.1084 209.387 93.1258 209.473 93.1141C209.559 93.1025 209.639 93.0626 209.7 93.0006C210.361 92.2701 210.957 91.4842 211.484 90.6516C218.712 79.4016 223.2 73.7496 226.869 68.4081C227.088 68.0766 226.574 67.6761 226.311 67.9776Z" fill="#57c2b4"/>
<path d="M246.342 74.7461C246.492 74.2586 245.724 73.9076 245.501 74.3921C244.301 77.0036 240.875 86.0816 236.591 95.7251C236.016 97.0196 236.196 96.5906 235.745 97.7501C235.673 97.8695 235.631 98.0039 235.62 98.1426C235.609 98.2813 235.631 98.4206 235.683 98.5496C235.823 99.0071 236.463 98.9036 236.763 98.3231C238.838 94.3016 245.142 78.8396 246.342 74.7461Z" fill="#57c2b4"/>
<path d="M257.849 71.768C257.341 73.4 244.42 122.155 244.333 122.567C244.317 122.625 244.312 122.685 244.32 122.745C244.327 122.804 244.346 122.862 244.376 122.914C244.406 122.966 244.445 123.012 244.492 123.049C244.54 123.086 244.594 123.113 244.652 123.129C244.709 123.145 244.77 123.149 244.829 123.142C244.889 123.134 244.946 123.115 244.999 123.086C245.051 123.056 245.097 123.017 245.133 122.969C245.17 122.922 245.197 122.868 245.213 122.81C246.253 119.554 247.114 116.248 247.99 112.943C248.866 109.639 258.521 72.392 258.613 71.978C258.638 71.8775 258.624 71.771 258.571 71.6814C258.519 71.5917 258.434 71.5261 258.334 71.4986C258.234 71.4711 258.127 71.4839 258.037 71.5343C257.946 71.5847 257.879 71.6686 257.849 71.768Z" fill="#57c2b4"/>
<path d="M210.301 75.0149C191.752 97.1669 185.818 101.913 183.655 105.034C183.469 105.301 183.844 105.69 184.113 105.484C184.384 105.302 184.646 105.106 184.897 104.896C194.06 95.573 202.683 85.735 210.726 75.4304C210.963 75.1484 210.558 74.7164 210.301 75.0149Z" fill="#57c2b4"/>
<path d="M159.489 113.616C159.289 111.624 158.983 108.286 157.219 107.371C155.814 106.642 154.819 107.403 144.555 107.49C130.646 107.618 116.774 106.053 103.245 102.828C96.5431 101.241 89.9472 99.2373 83.4957 96.8279C82.0983 96.2684 80.7445 95.6055 79.4456 94.8449C79.4189 94.7528 79.3715 94.668 79.307 94.597C79.2425 94.526 79.1626 94.4707 79.0735 94.4352C78.9844 94.3998 78.8883 94.3852 78.7927 94.3925C78.6971 94.3998 78.6044 94.4288 78.5216 94.4774C74.5856 96.7274 72.2967 102.591 72.1827 107.118C72.0957 110.554 72.8216 110.868 75.1256 112.218C78.8472 114.353 82.7809 116.095 86.8631 117.415C100.397 121.39 114.248 124.193 128.263 125.791C137.263 126.768 147.463 127.56 156.052 124.545C158.023 123.856 158.752 123.576 159.142 121.545C159.637 118.932 159.754 116.262 159.489 113.616Z" fill="#57c2b4"/>
</svg>
