<svg width="348" height="348" viewBox="0 0 348 348" fill="none" xmlns="http://www.w3.org/2000/svg">
<path d="M147.362 82.0248C147.099 78.6241 144.808 48.4085 142.121 46.4191C135.644 41.607 125.491 43.7495 117.942 45.7389C109.025 48.1025 27.2893 71.2615 22.7072 72.6558C19.0481 73.659 17.3999 75.0703 17.3999 78.9472C17.3999 81.1577 31.5087 294.265 32.4812 297.462C32.9652 298.932 33.7787 300.263 34.8556 301.347C35.9325 302.432 37.2423 303.239 38.6785 303.702C48.5678 307.358 53.2323 304.144 55.4409 303.413C59.7923 301.951 137.473 273.98 146.176 271.106C149.297 270.311 152.256 268.946 154.911 267.076C157.746 264.764 158.373 261.618 158.125 258.064C153.692 194.81 148.187 92.6522 147.362 82.0248ZM37.7225 302.444C36.171 301.691 34.8486 300.515 33.8986 299.043C33.0315 297.325 32.5685 295.42 32.5471 293.483C32.2339 288.603 18.0427 81.3617 18.0097 80.5455C17.8284 76.0565 18.4053 74.3562 23.1852 73.0299C40.953 67.9288 112.09 47.9154 116.442 46.7252C120.521 45.4933 124.704 44.6621 128.935 44.2426C132.712 43.8911 136.518 44.3841 140.094 45.6879C138.479 45.858 28.9375 76.0565 27.5859 76.6687C25.6081 77.6209 25.9377 81.3107 26.086 83.7592C26.3003 91.751 40.1619 290.371 40.1784 290.388C40.3432 293.16 40.7223 300.591 46.2933 304.807C43.2965 304.722 40.361 303.912 37.7225 302.444ZM156.873 263.897C155.224 267.093 151.714 268.624 148.632 269.729C140.275 272.704 55.8695 302.784 53.6938 303.532C52.0456 304.11 45.4527 306.933 42.1562 298.788C41.1935 295.984 40.6704 293.039 40.6069 290.065C40.6069 290.065 27.7672 102.208 26.9102 86.5308C26.7453 83.5212 26.2179 78.165 27.9156 77.3148C29.2012 76.6857 134.918 47.0142 139.632 46.3681C140.44 46.2661 141.05 46.062 141.511 46.6571C143.687 49.3777 145.154 65.4972 145.451 68.3709C146.357 77.5189 157.466 254.936 157.598 257.282C157.93 259.514 157.68 261.797 156.873 263.897Z" fill="#00143B"/>
<path d="M139.502 69.0681C125.92 73.268 33.5374 96.155 33.5703 96.4611C34.3615 105.779 46.1133 277.125 46.2287 277.738C46.2419 277.788 46.265 277.836 46.2964 277.877C46.3278 277.919 46.367 277.953 46.4116 277.978C46.4563 278.004 46.5054 278.02 46.5561 278.025C46.6068 278.03 46.658 278.025 46.7067 278.01C60.2551 273.3 144.166 245.159 151.913 242.829C151.993 242.807 152.063 242.758 152.114 242.691C152.165 242.623 152.192 242.54 152.193 242.455C151.863 235.177 140.046 70.2414 139.98 69.4422C139.979 69.3824 139.965 69.3236 139.939 69.2702C139.913 69.2168 139.876 69.1702 139.83 69.1341C139.784 69.098 139.73 69.0732 139.673 69.0618C139.616 69.0504 139.558 69.0525 139.502 69.0681ZM80.0338 161.874C80.4734 162.603 80.7336 163.432 80.792 164.289C80.1986 181.667 72.0728 200.439 70.0785 204.673C69.2709 206.373 68.7434 208.686 66.782 209.128C63.8132 209.749 60.7292 209.36 57.9924 208.021C55.2556 206.681 53.0134 204.462 51.6019 201.697C51.0779 199.554 51.187 197.298 51.9151 195.219C52.5249 193.042 58.6563 174.168 67.7545 160.514C68.1473 159.811 68.6739 159.196 69.3027 158.709C69.9316 158.221 70.6496 157.869 71.4136 157.674C73.0858 157.489 74.7752 157.783 76.2959 158.524C77.8167 159.265 79.11 160.424 80.0338 161.874ZM73.0123 157.351C73.0014 156.963 73.1197 156.582 73.3476 156.273C73.5755 155.964 73.8993 155.744 74.265 155.651C75.1946 155.609 76.1215 155.782 76.9773 156.159C77.8331 156.536 78.596 157.106 79.2097 157.827C79.3185 157.995 79.3934 158.183 79.43 158.381C79.4666 158.579 79.464 158.783 79.4224 158.979C79.3809 159.176 79.3012 159.363 79.1881 159.527C79.0751 159.691 78.9311 159.83 78.7646 159.936C77.1376 158.453 75.0927 157.547 72.9299 157.351H73.0123ZM74.1496 196.46C77.6266 187.273 79.9636 177.669 81.1051 167.877C81.2782 166.706 81.3114 165.519 81.204 164.34C81.1165 163.517 80.8685 162.72 80.4747 161.998C80.081 161.276 79.5498 160.644 78.913 160.14C79.2111 159.983 79.4559 159.737 79.6149 159.433C79.7739 159.129 79.8395 158.783 79.803 158.44C79.803 157.64 79.1437 156.246 75.4188 155.158C76.8639 153.884 77.9226 152.207 78.468 150.329C79.4569 146.928 78.8306 143.255 80.1162 142.711C80.6436 142.473 80.8084 143.544 80.8744 143.867C81.1381 145.228 81.0722 151.315 81.0722 152.964C81.0722 154.274 81.3524 156.892 79.5228 157.062C79.4075 157.062 79.358 157.249 79.5228 157.266C80.6931 157.555 81.3853 156.382 81.5337 155.345C81.6326 154.631 81.9128 144.701 81.4183 143.782C83.0665 143.952 82.8687 145.942 82.9182 146.554C82.9866 147.619 83.2089 148.668 83.5775 149.666C84.2186 151.499 85.2492 153.16 86.5937 154.529C85.4888 155.12 84.5688 156.022 83.9401 157.13C83.4111 157.004 82.9338 156.71 82.5759 156.289C82.218 155.868 81.9975 155.341 81.9457 154.784C81.9457 154.682 81.7479 154.648 81.6655 154.784C81.5889 154.936 81.549 155.105 81.549 155.277C81.549 155.449 81.5889 155.618 81.6655 155.77C81.8503 156.201 82.1322 156.58 82.4877 156.876C82.8432 157.171 83.262 157.375 83.7093 157.47C82.5226 160.038 83.8577 160.531 84.0225 160.616C83.3569 162.387 83.0376 164.277 83.083 166.176C83.3302 176.957 99.8125 202.802 108.35 209.842C110.535 211.827 113.254 213.079 116.145 213.431C119.036 213.783 121.963 213.219 124.536 211.814C127.774 209.708 130.351 206.678 131.953 203.091C134.442 213.549 131.294 218.735 130.305 219.806C127.222 223.02 117.35 225.009 114.482 225.298C111.681 225.553 108.867 225.604 106.059 225.451C103.109 225.281 100.159 224.805 97.2083 224.584C88.7117 224.049 80.545 220.997 73.6881 215.793C71.4465 214.093 68.249 211.763 68.6281 208.533C69.139 207.886 73.1936 198.823 74.0672 196.528L74.1496 196.46ZM94.3074 144.956L91.9175 145.347C91.9998 144.667 92.2068 144.009 92.5273 143.408C93.3468 142.858 94.1288 142.25 94.8678 141.589C94.3906 143.519 94.3906 145.542 94.8678 147.472C95.2613 149.014 96.1076 150.392 97.2907 151.417C97.0929 151.621 95.6425 153.611 95.4612 154.002C94.1806 153.07 93.158 151.81 92.4944 150.346C92.9064 150.159 94.5217 148.901 94.9997 148.645V148.492C94.4887 148.781 92.5438 149.972 92.4284 150.057C91.9268 148.769 91.762 147.367 91.9504 145.993C92.379 145.993 94.225 145.415 94.4393 145.347C94.6535 145.279 94.4393 144.939 94.3074 144.956ZM99.4334 122.851C99.4334 122.851 107.889 117.835 111.35 113.618C112.615 112.233 113.787 110.761 114.861 109.214C114.861 109.214 118.256 112.394 118.157 120.147C118.058 127.901 116.13 131.761 113.114 133.58C110.097 135.4 109.504 134.685 109.29 135.91C109.076 137.134 111.185 142.184 111.185 142.184C112.833 150.074 105.482 152.845 104.362 153.1C103.101 153.349 101.799 153.225 100.604 152.743C98.2961 151.876 94.0107 149.598 95.148 141.334C103.982 134.005 99.4334 122.834 99.4334 122.834V122.851ZM100.554 153.321C101.57 153.709 102.655 153.866 103.735 153.781C103.735 154.325 104.18 156.314 104.263 156.773C102.83 156.783 101.404 156.583 100.027 156.178C100.109 155.736 100.571 153.543 100.554 153.304V153.321ZM99.5982 155.974C98.1959 155.657 96.8789 155.024 95.7414 154.121C96.0216 153.764 97.3896 151.587 97.3896 151.485C98.0365 152.021 98.7451 152.472 99.4993 152.828L100.175 153.134C99.9086 154.063 99.7157 155.013 99.5982 155.974ZM103.982 153.679C105.097 153.46 106.178 153.088 107.197 152.573C107.197 152.573 109.356 155.464 109.455 155.464H109.619C108.978 154.418 108.267 153.418 107.493 152.471C108.718 151.694 109.769 150.656 110.575 149.428C111.734 149.738 112.913 149.96 114.103 150.091V149.972C113.03 149.605 111.926 149.343 110.806 149.19C111.57 148.062 112.015 146.737 112.092 145.364C112.339 145.483 115.157 145.619 115.157 145.619C115.167 146.459 115.084 147.297 114.91 148.118C114.629 149.823 113.975 151.44 112.998 152.845C111.955 154.125 110.626 155.123 109.125 155.753C107.727 156.371 106.228 156.705 104.708 156.739C104.571 155.712 104.327 154.703 103.982 153.73V153.679ZM111.779 142.218C112.141 142.218 114.679 142.796 114.696 142.83C114.898 143.644 115.031 144.475 115.092 145.313C114.083 145.125 113.065 145.001 112.042 144.939C112.103 144.04 112.014 143.137 111.779 142.269V142.218ZM91.901 143.782C91.3032 145.295 91.1318 146.952 91.4065 148.56C91.6809 150.208 92.3943 151.745 93.4668 152.998C94.6779 154.312 96.1592 155.329 97.8016 155.974C99.883 156.887 102.135 157.311 104.395 157.215C104.437 157.232 104.484 157.232 104.526 157.215C105.79 157.139 107.035 156.864 108.218 156.399C109.798 155.815 111.261 154.939 112.537 153.815C113.804 152.551 114.696 150.94 115.108 149.173C115.715 147.251 115.818 145.197 115.405 143.221C121.163 144.326 126.391 147.406 130.239 151.961C132.25 154.328 133.761 157.102 134.672 160.106C138.809 173.709 136.782 183.18 136.799 190.084C136.799 194.3 129.563 206.016 128.261 207.716C123.316 214.042 114.037 215.861 105.565 206.237C103.373 203.771 101.312 201.136 99.3675 198.466C95.4776 193.144 87.4178 179.541 84.896 172.213C83.7049 169.036 83.4022 165.577 84.0225 162.231C84.1379 161.653 84.5005 159.46 88.176 156.994C88.8423 156.507 89.61 156.186 90.4176 156.059C90.8471 156.052 91.2734 156.136 91.6702 156.306C92.0671 156.476 92.4261 156.727 92.7251 157.045C97.2588 160.901 101.517 165.089 105.466 169.577C107.658 172.06 112.52 179.065 114.993 180.885C115.108 180.987 115.273 180.885 115.157 180.714C113.941 179.459 112.791 178.136 111.713 176.753C111.927 175.052 112.883 168.251 113.361 166.55C113.361 166.363 113.147 166.295 113.081 166.55C112.26 169.806 111.709 173.128 111.432 176.481C110.46 175.239 106.603 168.336 93.8459 157.317C93.3764 156.765 92.7949 156.327 92.1425 156.033C91.4902 155.739 90.7831 155.597 90.0715 155.617C90.0715 155.022 88.5221 154.104 86.9069 154.461C86.6761 154.019 83.6104 150.856 83.4126 147.489C86.4065 146.742 89.2738 145.532 91.9175 143.901L91.901 143.833V143.782ZM87.3519 154.784C87.764 154.784 89.1649 154.784 89.5276 155.668C87.3681 156.615 85.5155 158.178 84.1873 160.174C82.4567 159.596 84.9785 155.005 87.3519 154.784ZM71.2487 214.637L72.4849 215.623C71.801 216.683 71.5521 217.979 71.7927 219.228C71.3503 218.564 71.0698 217.8 70.9751 217.001C70.8804 216.202 70.9743 215.391 71.2487 214.637ZM71.941 218.463C71.872 217.507 72.1544 216.56 72.7321 215.81C73.6387 216.49 74.5617 217.153 75.5341 217.783C74.8216 219.083 74.5435 220.588 74.743 222.067C74.1331 221.693 71.7927 220.418 71.941 218.463ZM75.5176 222.493C74.8419 221.982 74.8913 219.483 75.8967 218.004C76.8527 218.599 79.7701 220.197 80.248 220.435C79.5785 221.521 79.2986 222.814 79.4569 224.091C79.0943 223.989 76.4571 222.986 75.5176 222.493ZM79.9019 224.193C79.7596 223.574 79.7433 222.93 79.8539 222.304C79.9645 221.678 80.1998 221.082 80.5447 220.554C81.9952 221.251 83.495 221.88 84.9949 222.442C84.8092 223.455 84.8658 224.5 85.1598 225.485C83.3862 225.172 81.6309 224.758 79.9019 224.244V224.193ZM90.0385 226.25C88.621 226.046 87.2036 225.842 85.8026 225.587C85.5092 225.148 85.3154 224.647 85.2355 224.12C85.1556 223.593 85.1917 223.054 85.3411 222.544C86.808 223.071 88.2914 223.53 89.7913 223.904C90.1079 224.659 90.1941 225.495 90.0385 226.301V226.25ZM95.8897 227.05C94.0602 226.829 92.2306 226.573 90.4011 226.301C90.5735 225.517 90.4621 224.695 90.0879 223.989C91.6538 224.363 95.0326 224.924 95.181 224.941C95.4648 225.211 95.6784 225.55 95.8022 225.928C95.926 226.305 95.9561 226.708 95.8897 227.101V227.05ZM100.604 227.56C99.1532 227.446 97.7028 227.293 96.2523 227.101C96.3042 226.337 96.0942 225.578 95.659 224.958L100.323 225.434C100.323 225.434 100.241 225.57 100.323 225.621C100.531 225.9 100.666 226.23 100.715 226.578C100.764 226.927 100.726 227.282 100.604 227.611V227.56ZM110.345 227.747C107.261 228.043 104.156 227.997 101.082 227.611C101.082 227.611 101.279 226.08 100.472 225.468L105.219 225.944C105.46 226.122 105.642 226.373 105.74 226.663C105.837 226.952 105.845 227.265 105.763 227.56C105.774 227.611 105.805 227.656 105.848 227.684C105.891 227.713 105.943 227.723 105.993 227.713C106.175 227.713 106.175 226.42 105.664 226.012C107.103 226.103 108.537 226.137 109.966 226.114C109.966 226.114 109.85 226.114 109.966 226.199C111.218 226.914 110.328 227.781 110.345 227.798V227.747ZM115.85 227.05C114.144 227.373 112.421 227.594 110.691 227.713C110.785 227.566 110.845 227.397 110.865 227.222C110.885 227.046 110.864 226.868 110.805 226.703C110.745 226.537 110.649 226.388 110.523 226.268C110.397 226.148 110.246 226.061 110.081 226.012C111.053 226.012 114.482 225.774 115.24 225.689C115.392 225.703 115.538 225.759 115.662 225.85C115.786 225.942 115.885 226.066 115.947 226.21C116.009 226.354 116.033 226.512 116.016 226.669C115.999 226.826 115.941 226.975 115.85 227.101V227.05ZM124.322 224.278C124.257 224.166 124.161 224.077 124.046 224.022C123.931 223.968 123.803 223.95 123.679 223.972C123.679 223.972 123.547 224.074 123.58 224.091C124.074 224.227 123.942 224.431 123.942 224.448C121.551 225.74 118.965 226.607 116.295 227.016C116.394 227.016 116.46 225.876 115.982 225.706C117.333 225.536 118.668 225.298 119.987 225.009C120.679 225.111 120.531 225.519 120.531 225.57C120.558 225.595 120.593 225.609 120.63 225.609C120.666 225.609 120.701 225.595 120.728 225.57C120.728 225.57 120.728 225.026 120.448 224.839C122.583 224.272 124.676 223.551 126.712 222.68C126.184 223.53 124.536 224.21 124.322 224.329V224.278ZM134.03 247.556C133.023 238.826 130.969 230.258 127.915 222.05C128.492 221.744 136.436 219.636 132.332 202.309C132.826 201.425 135.431 196.681 136.073 195.117C137.1 192.193 137.689 189.126 137.821 186.02C138.208 182.378 138.29 178.709 138.068 175.052C137.799 171.458 137.248 167.893 136.42 164.391C135.727 161.279 134.606 150.21 120.333 143.986C121.437 142.966 125.854 138.086 124.058 125.929C121.998 112.07 118.866 107.037 118.866 107.037C118.866 107.037 120.514 95.1348 108.317 94.5057C102.497 94.307 96.7386 95.7948 91.6959 98.8001C86.6531 101.806 82.5274 106.208 79.7865 111.509C74.232 121.967 76.9021 127.748 76.9021 127.748C76.9021 127.748 71.3806 126.813 65.9744 135.553C60.5682 144.293 61.6396 148.424 61.6396 148.424C61.6396 148.424 50.3328 147.642 46.1463 160.497C42.0587 172.961 50.0031 186.003 54.9808 184.302C54.8324 184.625 50.8108 194.879 50.6624 198.551C50.4918 200.674 51.1238 202.782 52.426 204.435C53.6951 206.016 60.766 212.936 68.2325 208.924C68.2401 209.985 68.4886 211.03 68.958 211.975C69.4273 212.92 70.1046 213.738 70.9356 214.365C70.5506 215.17 70.3784 216.065 70.4362 216.961C70.4941 217.857 70.7801 218.721 71.2652 219.466C65.4635 243.424 66.5183 268.539 66.5348 270.647C59.9419 272.892 53.4974 275.119 46.9045 277.125C45.7507 269.372 34.5428 97.6854 34.4768 96.8862C48.1571 93.4854 131.178 72.2308 138.842 70.2754C139.09 79.3043 151.385 241.673 151.402 242.098C145.6 243.9 139.798 245.737 134.03 247.607V247.556ZM113.081 262.502C110.625 263.284 98.2467 266.685 98.2467 266.923C98.906 270.613 99.3675 274.354 99.8949 278.044C99.9024 278.076 99.9162 278.106 99.9355 278.132C99.9549 278.158 99.9792 278.18 100.007 278.196C100.035 278.212 100.066 278.222 100.098 278.225C100.129 278.228 100.161 278.224 100.192 278.214C105.136 276.666 109.982 275.034 114.811 273.3C114.875 273.284 114.929 273.242 114.963 273.185C114.997 273.128 115.008 273.059 114.993 272.994C114.284 269.593 113.691 266.09 113.18 262.621C113.174 262.595 113.161 262.57 113.144 262.549C113.127 262.529 113.105 262.512 113.081 262.502ZM100.439 277.653C99.8784 274.252 99.2191 270.732 98.7906 267.263C99.8784 267.144 110.608 263.625 113.048 262.893C113.46 266.294 114.004 269.576 114.696 272.875C109.883 274.524 105.169 276.139 100.439 277.653Z" fill="#00143B"/>
<path d="M109.008 127.187C109.008 127.068 108.843 126.983 108.712 127.187C108.695 127.248 108.695 127.313 108.712 127.374C108.72 127.678 108.799 127.975 108.942 128.24C109.086 128.505 109.289 128.731 109.535 128.897C109.781 129.064 110.062 129.168 110.355 129.198C110.648 129.229 110.943 129.187 111.217 129.074C111.524 128.963 111.789 128.755 111.975 128.479C111.975 128.343 112.156 128.122 111.975 127.986C111.958 127.954 111.933 127.928 111.902 127.909C111.872 127.891 111.837 127.881 111.802 127.881C111.767 127.881 111.732 127.891 111.702 127.909C111.671 127.928 111.646 127.954 111.629 127.986C111.546 128.768 109.321 129.669 109.008 127.187ZM114.283 125.368C114.363 125.368 114.44 125.336 114.498 125.279C114.557 125.222 114.591 125.144 114.596 125.061C114.571 123.34 114.35 121.628 113.936 119.96C113.936 119.929 113.924 119.899 113.903 119.876C113.881 119.854 113.852 119.841 113.821 119.841C113.79 119.841 113.761 119.854 113.739 119.876C113.718 119.899 113.706 119.929 113.706 119.96C114.011 121.463 114.121 123.001 114.035 124.534C113.803 124.394 113.545 124.307 113.277 124.279C113.226 124.294 113.181 124.325 113.149 124.368C113.116 124.41 113.097 124.463 113.096 124.517C113.112 125.112 113.854 125.249 114.283 125.368ZM116.59 118.719C116.903 119.008 117.249 118.481 116.953 118.243C116.831 118.117 116.684 118.02 116.522 117.959C116.361 117.897 116.188 117.871 116.016 117.884C115.844 117.897 115.677 117.948 115.526 118.033C115.375 118.119 115.243 118.237 115.14 118.379C115.129 118.39 115.12 118.403 115.114 118.418C115.108 118.433 115.105 118.448 115.105 118.464C115.105 118.48 115.108 118.496 115.114 118.51C115.12 118.525 115.129 118.538 115.14 118.549C115.15 118.56 115.163 118.569 115.177 118.575C115.192 118.582 115.207 118.585 115.222 118.585C115.237 118.585 115.253 118.582 115.267 118.575C115.281 118.569 115.294 118.56 115.304 118.549C116.293 117.937 116.524 118.668 116.59 118.719ZM110.426 119.433C110.525 119.433 110.64 119.212 110.541 119.144C110.346 118.998 110.12 118.9 109.881 118.86C109.643 118.819 109.399 118.837 109.168 118.911C108.937 118.986 108.727 119.115 108.553 119.288C108.379 119.461 108.247 119.674 108.168 119.909C108.168 120.062 108.349 120.232 108.448 120.079C109.404 118.566 110.31 119.535 110.426 119.433ZM107.475 118.566C107.708 118.09 108.075 117.697 108.528 117.439C108.981 117.181 109.499 117.07 110.014 117.121H110.36C110.402 117.134 110.446 117.136 110.489 117.126C110.532 117.115 110.571 117.094 110.603 117.062C110.635 117.031 110.658 116.992 110.671 116.948C110.683 116.905 110.684 116.859 110.673 116.815C110.591 116.526 110.08 116.509 109.849 116.509C109.298 116.502 108.757 116.668 108.3 116.985C107.794 117.327 107.416 117.837 107.228 118.43C107.211 118.464 107.207 118.503 107.218 118.54C107.229 118.577 107.253 118.608 107.286 118.626C107.319 118.644 107.357 118.647 107.393 118.636C107.428 118.625 107.458 118.6 107.475 118.566ZM240.223 121.644C240.009 121.644 239.976 121.474 239.976 121.27C240.04 119.835 240.007 118.398 239.877 116.968C239.865 116.943 239.846 116.922 239.823 116.907C239.799 116.893 239.773 116.885 239.745 116.885C239.718 116.885 239.691 116.893 239.668 116.907C239.645 116.922 239.626 116.943 239.614 116.968C239.505 118.24 239.461 119.517 239.482 120.794C239.482 121.27 239.482 121.882 239.927 122.086C240.372 122.29 240.767 121.95 241.196 122.086C241.344 122.086 241.46 121.882 241.295 121.814C240.949 121.696 240.587 121.639 240.223 121.644ZM244.855 117.903C245.102 117.903 245.119 117.529 245.135 117.342C245.152 117.155 245.135 115.641 245.135 115.148C245.12 115.086 245.085 115.03 245.036 114.99C244.987 114.95 244.926 114.929 244.863 114.929C244.801 114.929 244.74 114.95 244.691 114.99C244.641 115.03 244.606 115.086 244.591 115.148V117.342C244.591 117.58 244.525 117.903 244.855 117.903ZM237.932 115.284C237.903 115.282 237.873 115.286 237.845 115.296C237.817 115.306 237.792 115.322 237.77 115.343C237.748 115.364 237.731 115.389 237.719 115.417C237.708 115.445 237.702 115.475 237.702 115.505C237.702 115.828 237.52 117.206 237.52 117.478C237.52 117.544 237.543 117.609 237.586 117.659C237.628 117.709 237.687 117.742 237.751 117.75C237.816 117.757 237.881 117.74 237.935 117.703C237.989 117.666 238.029 117.61 238.048 117.546C238.048 117.206 238.147 115.845 238.163 115.505C238.159 115.445 238.133 115.389 238.09 115.348C238.047 115.307 237.991 115.284 237.932 115.284ZM238.064 112.751C237.76 112.704 237.45 112.738 237.162 112.848C236.874 112.958 236.617 113.141 236.416 113.38C236.251 113.55 236.498 113.788 236.663 113.635C236.834 113.427 237.05 113.265 237.294 113.161C237.537 113.058 237.802 113.016 238.064 113.04C238.262 113.057 238.262 112.785 238.064 112.751ZM246.816 113.159C246.833 113.18 246.855 113.197 246.879 113.209C246.903 113.221 246.93 113.227 246.956 113.227C246.983 113.227 247.01 113.221 247.034 113.209C247.058 113.197 247.08 113.18 247.097 113.159C247.129 113.121 247.147 113.073 247.147 113.023C247.147 112.973 247.129 112.924 247.097 112.887C246.521 112.304 245.759 111.96 244.954 111.918C244.838 111.918 244.954 112.173 244.954 112.173C245.667 112.269 246.325 112.617 246.816 113.159ZM243.47 125.997C244.41 126.218 247.525 126.456 247.162 123.565C247.162 123.361 246.75 123.446 246.767 123.667C246.915 125.963 244.311 125.776 243.47 125.674C243.322 125.64 243.289 125.963 243.47 125.997ZM248.53 267.281C243.576 266.035 238.731 264.368 234.043 262.298C234.017 262.285 233.989 262.277 233.96 262.275C233.931 262.274 233.902 262.279 233.876 262.291C233.849 262.302 233.825 262.319 233.805 262.341C233.786 262.363 233.771 262.389 233.762 262.417C233.4 264.407 232.015 274.762 232.279 274.847C236.96 276.548 241.707 278.248 246.404 279.846C246.478 279.862 246.556 279.848 246.62 279.807C246.684 279.766 246.731 279.701 246.75 279.625C247.653 275.643 248.341 271.613 248.811 267.553C248.827 267.4 248.662 267.298 248.53 267.281ZM246.272 279.183C241.74 277.585 237.207 275.918 232.658 274.371C232.806 273.487 233.746 264.781 234.092 262.826C238.613 265.02 243.356 266.691 248.234 267.808C247.803 271.631 247.148 275.424 246.272 279.166V279.183Z" fill="#00143B"/>
<path d="M329.491 77.0432C328.953 75.8757 328.17 74.8468 327.197 74.0318C326.225 73.2169 325.088 72.6365 323.87 72.3332C322.041 71.7381 233.778 47.7118 228.553 46.5045C223.329 45.2973 217.708 43.6989 212.434 44.6001C209.69 45.0476 207.042 45.9794 204.605 47.3547C203.758 48.0938 203.085 49.0205 202.634 50.0657C202.183 51.1109 201.966 52.2476 202.001 53.391C201.671 57.557 197.814 129.143 197.814 129.143C197.814 129.143 192.869 130.52 192.869 130.707C192.869 130.894 193.694 157.811 193.71 158.304C192.853 158.44 168.426 158.542 168.443 158.797C169.201 169.934 168.591 176.838 170.091 199.062C169.959 199.062 164.817 199.691 164.339 199.861C164.339 199.861 164.19 222.442 164.339 223.377C164.339 223.547 190.71 230.672 190.892 230.723C190.265 237.864 189.243 256.381 188.963 258.456C188.601 260.256 188.601 262.114 188.963 263.914C189.787 266.686 192.441 267.995 194.831 269.015C200.385 271.464 296.526 304.723 297.993 305.165C301.941 306.306 306.158 305.912 309.844 304.06C311.074 303.522 312.163 302.691 313.022 301.636C313.881 300.581 314.487 299.332 314.789 297.989C315.537 294.641 315.957 291.223 316.041 287.787C316.354 283.808 329.573 101.801 330.48 85.9362C330.806 82.9328 330.468 79.8922 329.491 77.0432ZM198.506 129.194C198.638 129.449 198.787 129.619 198.935 129.653C201.521 129.473 204.096 129.149 206.649 128.683L201.605 130.979V131.234C200.6 131.234 194.353 130.707 193.661 130.69L198.506 129.194ZM281.791 220.759C282.83 220.384 283.868 219.993 284.923 219.636C284.982 219.618 285.034 219.579 285.07 219.527C285.105 219.474 285.123 219.411 285.121 219.347C284.873 216.814 283.275 205.387 283.192 204.044C285.796 202.121 287.974 199.651 289.585 196.796C291.196 193.942 292.202 190.767 292.538 187.482C293.076 181.023 291.402 174.572 287.807 169.254C289.109 168.302 290.411 167.333 291.697 166.33C291.76 166.291 291.806 166.229 291.827 166.157C291.849 166.085 291.843 166.007 291.812 165.939C288.714 159.596 277.341 133.07 255.931 132.832C255.799 132.832 255.832 133.07 255.931 133.07C257.579 133.07 277.028 133.07 291.17 165.99C284.873 170.734 267.633 180.987 265.721 181.973C263.966 178.72 261.971 175.61 259.754 172.672C259.639 172.536 259.408 172.672 259.507 172.859C261.614 175.973 263.557 179.203 265.325 182.534C265.346 182.571 265.373 182.604 265.406 182.629C265.439 182.655 265.476 182.675 265.516 182.686C265.556 182.697 265.597 182.699 265.638 182.694C265.679 182.688 265.718 182.675 265.754 182.653L267.188 181.922C267.682 182.755 269.726 185.816 269.743 185.867C261.963 192.481 252.403 207.853 250.541 210.777C248.349 210.267 241.031 208.601 239.531 208.397C242.283 208.125 245.036 207.819 247.772 207.496C247.837 207.496 247.9 207.469 247.947 207.421C247.993 207.373 248.019 207.308 248.019 207.241C248.019 196.137 248.151 167.673 248.019 164.544C248.019 164.408 243.981 163.762 243.074 163.626C241.344 163.371 223.84 160.225 222.027 160.055C222.224 159.885 222.702 159.29 222.603 159.205C222.373 156.383 222.241 153.56 222.125 150.703C222.125 150.703 230.812 136.641 241.377 135.4C241.377 135.638 240.355 139.345 239.86 140.926C239.366 142.507 242.646 147.592 249.931 144.208C252.667 142.95 256.804 140.195 256.441 136.76C256.31 135.536 254.793 131.37 255.255 127.221C256.171 124.849 257.302 122.572 258.634 120.42C260.743 117.019 262.523 106.171 258.337 102.226C254.15 98.2808 250.557 100.525 250.557 100.525C250.557 100.525 249.98 98.3489 248.431 98.2808C247.305 98.4028 246.265 98.9547 245.514 99.8282C245.57 98.7099 245.219 97.6103 244.53 96.7451C243.841 95.88 242.863 95.3118 241.789 95.1522C237.899 94.574 236.481 96.7505 236.481 96.7505C236.481 96.7505 235.047 93.0097 230.581 95.0501C226.114 97.0906 231.092 106.953 231.092 106.953C230.611 107.711 230.355 108.597 230.355 109.503C230.355 110.409 230.611 111.296 231.092 112.054C232.658 114.094 233.976 113.618 234.207 113.499C234.124 114.23 232.081 130.163 242.448 130.792C242.19 132.164 241.86 133.521 241.459 134.856C241.459 134.856 230.762 135.383 222.027 150.329C222.027 149.496 221.054 129.551 220.972 129.517C220.889 129.483 217.428 129.517 217.065 129.517C218.153 127.357 218.45 123.803 217.659 122.936C216.505 121.678 207.423 125.453 207.423 125.453C207.423 125.453 205.709 124.569 203.649 123.667C204.687 109.928 207.143 74.0336 207.605 69.8336C221.136 74.2376 304.734 96.7845 312.58 98.7399C310.652 131.404 299.971 265.699 299.641 278.605C293.708 276.406 287.769 274.235 281.824 272.093C281.956 270.035 284.544 253.95 281.791 220.759ZM257.859 231.879C257.299 233.035 256.705 234.191 256.095 235.28C253.343 235.671 247.508 236.385 247.343 236.402C248.678 234.243 249.832 231.964 251.035 229.737C252.238 227.509 253.442 225.265 254.678 223.037C256.326 222.153 257.711 221.456 260.068 220.146C259.969 221.439 259.59 227.067 259.491 228.648C258.996 229.72 258.403 230.791 257.859 231.879ZM259.507 229.396L259.21 234.838L256.441 235.28C257.068 234.174 257.529 233.103 258.09 232.015C258.65 230.927 258.996 230.264 259.441 229.396H259.507ZM246.338 239.293C246.948 239.089 247.112 239.82 247.112 239.82L253.705 262.18L246.503 259.697L248.53 246.825C248.53 246.825 245.728 239.497 246.338 239.293ZM246.783 236.504L247.096 227.288C248.372 226.035 249.912 225.104 251.596 224.567C252.469 224.176 253.244 223.768 254.183 223.326C253.013 225.401 251.826 227.458 250.689 229.549C249.552 231.641 248.2 234.089 247.162 236.453L246.783 236.504ZM250.359 224.465C247.36 225.758 246.733 227.271 245.085 227.951C244.541 228.172 243.157 228.58 243.206 227.526C243.203 227.476 243.188 227.427 243.162 227.384C243.137 227.341 243.101 227.305 243.058 227.28C243.016 227.255 242.968 227.24 242.919 227.239C242.87 227.237 242.822 227.248 242.778 227.271C241.129 228.223 240.948 226.676 240.948 226.676C241 226.632 241.035 226.571 241.047 226.503C241.059 226.435 241.047 226.365 241.014 226.305C240.98 226.245 240.926 226.2 240.863 226.178C240.799 226.155 240.73 226.157 240.668 226.183C240.564 226.231 240.451 226.256 240.337 226.255C240.222 226.254 240.11 226.228 240.006 226.177C239.903 226.127 239.811 226.055 239.738 225.965C239.664 225.875 239.61 225.769 239.58 225.656C239.498 225.214 239.778 225.077 239.959 224.754C240.272 224.125 239.465 224.176 239.3 224.023C238.855 223.598 239.597 223.122 239.893 223.003C241.047 222.527 244.36 221.796 243.734 221.303C243.107 220.81 241.772 219.602 242.926 218.497C243.437 218.752 245.464 221.133 246.387 220.197C247.443 217.192 248.767 214.295 250.343 211.543C250.343 211.424 263.348 191.053 270.122 186.411C270.275 186.655 270.452 186.883 270.649 187.091C270.672 187.116 270.703 187.131 270.736 187.136C270.769 187.14 270.803 187.133 270.831 187.115C270.86 187.097 270.882 187.07 270.893 187.038C270.905 187.006 270.906 186.971 270.896 186.938C269.894 185.173 268.794 183.47 267.6 181.837C274.588 178.258 281.299 174.131 287.675 169.492C296.015 185.391 290.576 193.91 289.324 196.494C284.972 205.404 259.557 220.469 250.359 224.465ZM230.103 238.646C226.526 238.034 222.966 237.371 219.389 236.657C220.362 235.62 228.389 225.588 230.284 223.445C230.334 226.948 230.02 237.966 230.103 238.646ZM230.268 222.799C228.273 224.941 219.422 235.943 218.977 236.572C215.846 235.937 212.714 235.28 209.582 234.6C210.868 233.494 226.707 215.674 227.713 214.042L230.597 214.603C230.564 215.181 230.251 221.422 230.268 222.799ZM200.352 208.686L208.593 210.233C207.489 211.356 197.402 222.561 195.408 224.941L195.655 214.45C195.869 213.906 199.067 210.046 200.352 208.686ZM195.572 213.787L195.704 207.768C197.138 208.04 198.556 208.329 199.99 208.584C198.424 210.216 196.941 211.968 195.523 213.787H195.572ZM208.758 210.386C208.758 210.386 214.445 211.305 216.488 211.696C216.076 212.07 200.814 230.689 199.677 232.406L195.127 231.318L195.259 225.418C196.067 224.397 207.44 211.611 208.742 210.386H208.758ZM245.135 213.158L230.383 209.281C232.921 209.077 235.427 208.856 237.948 208.601C239.976 208.975 248.25 210.641 250.376 211.134L249.288 212.835C249.288 212.835 245.613 213.073 245.118 213.107L245.135 213.158ZM249.074 213.243C247.794 215.25 246.816 217.446 246.173 219.755C246.025 219.976 245.596 219.891 245.596 219.891L245.794 213.549H246.832C247.58 213.473 248.323 213.353 249.057 213.192L249.074 213.243ZM212.071 210.386C215.203 210.267 218.334 210.114 221.45 209.927L238.97 213.583C238.97 213.583 233.63 213.906 231.026 214.314C230.993 214.178 213.719 210.607 212.071 210.386ZM227.383 214.042C226.477 215.538 210.621 233.154 209.253 234.6C207.885 234.311 201.671 232.899 199.94 232.491C201.143 231.165 216.538 212.461 217.115 211.849C220.527 212.444 223.938 213.243 227.383 213.957V214.042ZM210.39 209.859C210.39 207.309 209.154 171.312 209.006 168.285C211.395 168.183 247.08 165.309 247.706 165.088C247.706 167.707 247.59 204.027 247.558 207.088C237.553 208.159 212.747 209.689 210.39 209.774V209.859ZM218.466 237.065V250.226C211.071 247.743 203.665 245.295 196.248 242.88C196.166 239.276 195.952 235.671 195.853 232.049C202.594 233.545 217.675 236.793 218.483 236.946L218.466 237.065ZM231.009 214.62C232.064 214.62 234.718 214.348 234.998 214.331C234.635 214.722 230.729 222.323 230.581 222.714C230.564 221.422 230.993 214.552 231.009 214.501V214.62ZM235.443 214.297L239.827 214.008L240.091 220.401C237.948 223.972 231.388 234.753 230.696 236.079C230.696 231.794 230.597 223.428 230.597 223.224C230.597 223.02 235.196 214.484 235.443 214.178V214.297ZM230.729 236.402C231.273 235.501 238.822 223.139 240.108 220.997V222.391C237.503 223.53 239.185 224.737 239.25 224.737C239.081 224.937 238.974 225.185 238.942 225.448C238.911 225.711 238.957 225.978 239.074 226.214C239.191 226.451 239.374 226.645 239.599 226.773C239.825 226.901 240.082 226.956 240.338 226.931C240.338 227.118 240.849 233.732 240.849 233.732C240.454 234.379 238.904 236.997 238.608 237.677C237.849 237.677 232.509 238.374 230.647 238.748C230.696 238.527 230.729 237.592 230.729 236.3V236.402ZM240.915 234.191L241.064 237.354L239.02 237.626C239.382 236.929 240.618 234.6 240.915 234.089V234.191ZM260.265 220.163C264.089 218.004 280.044 207.938 282.879 204.435C283.077 205.642 284.214 216.831 284.527 219.279C279.813 222.374 264.353 223.564 260.183 224.023C260.249 222.663 260.282 220.078 260.265 220.061V220.163ZM209.731 129.228C211.388 130.428 213.331 131.139 215.351 131.285C215.712 131.206 216.049 131.039 216.335 130.8C216.622 130.561 216.849 130.255 216.999 129.908H219.884C219.884 129.908 215.615 131.795 215.219 132.135C213.357 131.914 208.33 131.676 207.703 131.625L209.731 129.228ZM209.846 126.303C210.06 126.303 214.445 123.803 216.027 123.803C216.195 123.788 216.363 123.83 216.505 123.922C216.648 124.014 216.758 124.151 216.818 124.314C216.917 124.756 216.521 125.062 216.175 125.232C214.175 125.973 212.119 126.542 210.027 126.932C209.698 127.068 209.549 126.456 209.846 126.303ZM215.186 132.577C215.186 134.618 216.34 161.161 216.406 163.388L207.638 163.694V132.169C208.264 132.169 213.307 132.56 215.186 132.577ZM215.516 132.577L220.922 129.925C221.038 131.098 222.175 157.488 222.307 159.239C221.598 159.868 218.73 162.47 217.939 163.031C217.65 163.256 217.309 163.396 216.95 163.439C216.456 161.484 215.483 132.56 215.467 132.543L215.516 132.577ZM242.975 130.282C241.391 130.335 239.832 129.864 238.525 128.939C237.399 127.952 236.532 126.689 236.003 125.266C234.941 122.377 234.496 119.285 234.701 116.203C234.701 114.502 235.08 112.802 235.245 111.102C235.245 110.983 233.399 108.891 233.3 108.432C233.201 107.973 234.388 109.945 236.481 110.336C240.734 111.102 247.211 107.225 247.211 107.225C247.211 107.225 249.371 107.225 249.75 108.925C250.129 110.626 249.437 114.791 249.832 114.825C250.228 114.859 251.381 112.275 254.101 113.346C256.821 114.417 254.101 118.991 252.667 119.127C253.828 120.577 254.667 122.272 255.123 124.092C254.019 129.194 256.013 136.93 255.931 138.07C255.617 142.405 242.019 149.7 240.239 141.232C240.783 139.668 242.942 132.73 243.239 130.758C243.206 130.469 243.206 130.248 242.926 130.248L242.975 130.282ZM206.154 125.963C206.169 125.986 206.176 126.014 206.175 126.041C206.174 126.069 206.165 126.096 206.149 126.118C206.133 126.14 206.11 126.157 206.085 126.166C206.059 126.174 206.032 126.175 206.006 126.167C205.528 125.861 200.286 124.28 199.858 123.973C199.757 123.928 199.678 123.844 199.638 123.739C199.598 123.633 199.6 123.516 199.644 123.412C199.687 123.309 199.769 123.227 199.871 123.186C199.973 123.144 200.087 123.146 200.188 123.191C202.302 123.733 204.306 124.66 206.105 125.929L206.154 125.963ZM193.216 131.064C194.007 131.183 200.6 131.574 201.671 131.642L202.001 163.881L194.237 164.17C194.237 164.17 193.38 133.496 193.166 131.115L193.216 131.064ZM168.805 159.086C175.2 159.086 192.721 158.661 193.661 158.763C193.661 160.565 193.809 162.368 193.875 164.17C193.875 164.289 194.122 164.408 194.188 164.408C198.193 164.408 216.901 164.017 217.659 163.728C219.103 162.667 220.495 161.532 221.829 160.327C228.652 161.365 235.377 163.031 247.294 164.612C246.882 164.782 211.659 167.639 208.956 168.013C208.956 167.86 170.157 159.324 168.822 159.358C168.8 159.317 168.787 159.271 168.784 159.224C168.782 159.177 168.789 159.13 168.805 159.086ZM164.569 200.048C164.981 200.048 169.91 199.402 170.041 199.368C170.041 200.099 170.206 200.847 170.305 201.578L164.602 200.184C164.584 200.141 164.573 200.095 164.569 200.048ZM164.569 200.371C167.009 201.119 169.514 201.799 171.92 202.446C170.684 203.908 165.904 209.757 164.668 211.134V206.033C164.685 205.047 164.685 201.272 164.619 200.371H164.569ZM172.102 202.497C174.146 203.024 176.189 203.534 178.25 204.01C176.008 207.02 165.806 219.313 164.718 220.504V211.526C165.987 210.012 171.03 204.044 172.151 202.497H172.102ZM164.718 223.173C164.767 222.386 164.767 221.597 164.718 220.81C167.223 218.395 176.437 207.207 178.678 204.146L185.485 205.642C184.941 206.475 170.651 224.108 170.14 224.856L164.718 223.173ZM188.073 229.566L183.821 228.495C184.974 227.356 187.76 223.938 188.139 223.496L188.073 229.566ZM188.073 222.969C187.776 223.343 184.661 226.931 183.475 228.427L177.805 226.982C178.283 226.319 187.117 215.623 188.155 214.331L188.073 222.969ZM188.073 213.872C186.936 215.317 178.184 225.316 177.409 226.897C175.497 226.404 170.684 225.043 170.19 224.907C170.866 224.21 185.156 206.475 185.848 205.744L188.139 206.22L188.073 213.872ZM170.684 201.663C170.47 198.875 169.036 162.555 168.921 159.545C170.124 159.783 208.61 168.234 208.659 168.234C209.253 179.167 209.929 206.901 210.044 209.791C209.78 209.791 173.42 202.344 170.684 201.663ZM300.498 305.131C299.543 304.978 197.946 269.695 195.638 268.709C193.067 267.604 190.001 266.278 189.408 263.115C189.029 261.091 190.727 237.422 191.238 230.808L195.556 231.862V243.067C195.562 243.151 195.591 243.232 195.641 243.298C195.691 243.365 195.759 243.415 195.836 243.442C209.5 247.896 292.422 276.939 300.037 279.778C300.101 279.797 300.168 279.8 300.232 279.787C300.297 279.774 300.358 279.746 300.411 279.705C300.464 279.664 300.507 279.611 300.536 279.55C300.565 279.489 300.581 279.422 300.581 279.353C301.224 255.888 313.239 111.935 313.487 98.5529C313.484 98.4616 313.454 98.3733 313.401 98.3003C313.348 98.2272 313.274 98.1729 313.19 98.1448C299.246 94.608 215.186 71.619 207.44 69.1025C207.388 69.09 207.335 69.0892 207.283 69.1002C207.232 69.1112 207.183 69.1336 207.141 69.166C207.098 69.1984 207.063 69.2399 207.038 69.2876C207.013 69.3354 206.998 69.3883 206.995 69.4426C205.346 84.8989 203.121 120.93 202.94 123.446C201.49 122.868 199.363 122.018 198.721 122.715C199.462 108.109 202.132 62.437 202.61 54.2072C202.528 52.2269 203.078 50.2734 204.176 48.647C204.674 48.139 205.271 47.7459 205.928 47.4938C206.584 47.2417 207.285 47.1364 207.984 47.1847C210.934 47.1847 203.138 45.4843 310.174 75.8019C313.47 76.7201 318.415 77.5023 319.601 81.3111C320.541 84.1678 319.816 86.9734 319.601 89.813C319.437 91.3943 304.57 299.826 304.108 301.866C303.647 303.907 302.542 305.437 300.416 305.131H300.498ZM330.167 86.8033C329.936 90.5782 315.58 290.542 315.036 294.47C314.591 297.666 313.717 301.271 310.783 302.972C308.389 304.336 305.733 305.143 303.004 305.335C303.509 305.01 303.915 304.545 304.174 303.992C304.696 302.854 305.009 301.626 305.097 300.37C305.509 296.969 320.887 87.5175 321.085 84.7289C321.283 81.9403 320.739 79.1347 318.299 77.4853C316.981 76.5671 220.774 49.2591 213.176 47.2527C211.335 46.6675 209.414 46.4031 207.489 46.4705C220.213 41.2844 226.773 47.8818 320.574 71.8231C327.876 73.7275 330.743 75.4109 330.018 86.8033H330.167Z" fill="#00143B"/>
<path d="M241.755 170.665C241.013 169.509 238.887 170.172 239.151 171.447C239.219 171.628 239.322 171.793 239.454 171.932C239.586 172.07 239.743 172.18 239.917 172.255C240.091 172.33 240.278 172.367 240.466 172.366C240.654 172.364 240.84 172.324 241.013 172.246C241.227 172.161 242.035 171.107 241.755 170.665ZM239.909 171.872C238.92 171.447 239.546 170.342 240.502 170.359C240.673 170.352 240.843 170.382 241.002 170.446C241.16 170.511 241.305 170.608 241.425 170.733C242.002 171.549 240.634 172.212 239.909 171.872ZM239.909 185.05C237.288 184.557 237.931 188.961 240.255 187.193C241.095 186.478 241.046 185.288 239.909 185.05ZM240.156 186.937C238.277 188.723 237.783 184.557 240.156 185.475C240.568 185.679 240.7 186.376 240.09 186.937H240.156ZM229.904 178.402C229.638 178.528 229.412 178.73 229.254 178.985C229.096 179.24 229.011 179.536 229.011 179.838C229.011 180.141 229.096 180.437 229.254 180.692C229.412 180.946 229.638 181.149 229.904 181.275C232.228 182.125 232.36 177.262 229.904 178.402ZM229.822 178.64C231.272 177.806 231.717 179.745 231.289 180.34C229.822 182.346 228.371 179.507 229.822 178.64ZM220.641 176.021C221.168 174.117 218.564 170.648 215.812 173.454C214.707 174.559 214.163 177.262 216.389 178.147C216.792 178.388 217.247 178.523 217.713 178.541C218.179 178.559 218.642 178.459 219.062 178.249C219.482 178.039 219.845 177.726 220.12 177.338C220.396 176.95 220.574 176.497 220.641 176.021ZM216.949 173.079C217.839 172.586 218.498 172.518 219.734 173.828C219.985 174.025 220.183 174.284 220.31 174.581C220.436 174.879 220.488 175.204 220.46 175.528C220.506 176.048 220.409 176.57 220.18 177.035C219.952 177.501 219.6 177.89 219.167 178.158C218.733 178.427 218.235 178.563 217.729 178.553C217.224 178.542 216.731 178.384 216.309 178.098C215.886 177.811 215.551 177.407 215.34 176.933C215.13 176.458 215.054 175.932 215.121 175.415C215.188 174.898 215.395 174.411 215.719 174.01C216.042 173.609 216.468 173.31 216.949 173.147V173.079ZM225.075 184.88C224.919 184.842 224.757 184.838 224.599 184.867C224.442 184.897 224.292 184.961 224.16 185.054C224.027 185.146 223.915 185.267 223.83 185.407C223.745 185.547 223.689 185.704 223.666 185.867C223.643 186.031 223.654 186.198 223.696 186.357C223.739 186.516 223.814 186.664 223.915 186.792C224.017 186.92 224.143 187.025 224.286 187.099C224.429 187.174 224.585 187.218 224.745 187.227C225.981 187.363 226.525 184.999 225.075 184.88ZM224.86 186.988C223.361 186.988 224.036 184.506 225.388 185.288C225.783 185.407 225.454 186.971 224.86 186.954V186.988ZM218.037 194.317C217.709 194.706 217.509 195.192 217.464 195.705C217.42 196.219 217.534 196.733 217.789 197.176C218.045 197.619 218.43 197.967 218.888 198.171C219.347 198.375 219.857 198.425 220.344 198.313C220.827 198.193 221.267 197.938 221.617 197.574C221.966 197.211 222.21 196.754 222.322 196.256C222.417 195.707 222.331 195.141 222.076 194.649C221.822 194.158 221.415 193.769 220.92 193.545C220.425 193.321 219.871 193.275 219.349 193.415C218.826 193.556 218.364 193.873 218.037 194.317ZM218.037 194.827C218.811 192.77 222.058 193.586 221.976 195.949C221.91 199.078 216.586 198.789 218.119 194.827H218.037ZM218.762 204.247C217.114 203.193 215.152 205.165 216.718 206.594C218.284 208.022 220.575 205.37 218.762 204.247ZM217.114 206.424C215.301 204.978 218.053 203.193 219.141 205.012C219.355 205.404 218.647 207.665 217.097 206.424H217.114ZM230.596 198.976C229.789 199.333 229.574 201.238 230.415 201.544C232.294 202.207 232.657 200.336 232.179 199.605C232.014 199.34 231.772 199.137 231.487 199.024C231.203 198.91 230.891 198.894 230.596 198.976ZM230.135 200.404C230.135 198.942 231.486 198.806 231.898 199.588C232.904 201.51 230.217 202.309 230.135 200.404ZM242.496 196.068C241.326 195.881 240.997 197.378 241.672 198.058C242.991 199.418 244.375 196.375 242.496 196.068ZM241.969 197.922C241.063 197.259 242.117 195.779 242.892 196.613C243.032 196.749 243.119 196.933 243.136 197.13C243.154 197.328 243.102 197.525 242.988 197.686C242.875 197.846 242.71 197.959 242.522 198.002C242.334 198.046 242.138 198.017 241.969 197.922ZM198.588 195.694C198.242 197.854 200.417 199.384 202.609 197.735C207.224 194.249 199.527 189.862 198.588 195.694ZM200.401 198.024C197.928 197.582 198.983 192.039 202.428 193.586C205.296 194.844 202.576 198.483 200.351 198.024H200.401ZM200.829 182.653C203.664 184.353 204.604 179.388 202.346 179.048C200.763 178.793 199.049 181.598 200.829 182.653ZM202.115 179.371C203.846 179.371 203.648 183.384 201.225 182.397C199.511 181.7 201.011 179.337 202.115 179.371ZM191.929 177.568C192.143 179.269 194.747 179.269 194.022 177.143C193.758 176.378 191.764 176.174 191.929 177.568ZM192.292 177.568C192.266 177.472 192.266 177.371 192.292 177.275C192.318 177.179 192.369 177.092 192.44 177.024C192.639 176.929 192.861 176.893 193.079 176.92C193.297 176.947 193.504 177.036 193.676 177.177C194.632 178.079 192.687 179.269 192.292 177.568ZM185.979 170.988C187.429 171.175 187.627 168.522 186.078 168.573C185.913 168.586 185.753 168.636 185.608 168.718C185.463 168.801 185.337 168.914 185.239 169.052C185.14 169.189 185.071 169.346 185.037 169.513C185.003 169.68 185.003 169.852 185.039 170.019C185.075 170.263 185.186 170.488 185.355 170.662C185.524 170.837 185.743 170.951 185.979 170.988ZM185.979 168.914C187.083 168.778 187.017 170.614 186.127 170.614C185.953 170.614 185.784 170.556 185.644 170.449C185.505 170.342 185.402 170.191 185.353 170.019C185.31 169.785 185.352 169.544 185.47 169.34C185.589 169.136 185.775 168.984 185.995 168.914H185.979ZM178.364 176.582C178.882 176.822 179.462 176.877 180.013 176.738C180.564 176.6 181.055 176.277 181.409 175.819C181.762 175.361 181.957 174.794 181.964 174.209C181.971 173.624 181.789 173.053 181.446 172.586C179.04 168.846 173.98 174.814 178.364 176.582ZM178.924 176.378C174.738 175.239 178.562 169.917 180.935 172.45C181.314 172.787 181.571 173.246 181.664 173.753C181.757 174.26 181.68 174.785 181.447 175.241C181.213 175.697 180.837 176.058 180.378 176.265C179.92 176.471 179.408 176.511 178.924 176.378ZM186.374 185.118C183.226 184.659 183.226 190.95 187.231 189.726C187.685 189.483 188.05 189.095 188.272 188.621C188.495 188.146 188.563 187.61 188.467 187.093C188.37 186.575 188.115 186.103 187.738 185.748C187.361 185.392 186.883 185.171 186.374 185.118ZM187.363 189.352C186.996 189.554 186.578 189.634 186.165 189.583C185.753 189.531 185.365 189.349 185.056 189.063C184.797 188.794 184.612 188.458 184.521 188.09C184.43 187.722 184.436 187.336 184.539 186.972C184.641 186.608 184.837 186.278 185.104 186.018C185.372 185.758 185.703 185.576 186.061 185.492C188.929 185.492 188.155 188.842 187.363 189.352ZM176.617 192.447C174.672 192.447 175.991 195.575 177.441 194.963C177.698 194.803 177.894 194.557 177.997 194.266C178.1 193.976 178.104 193.657 178.008 193.364C177.912 193.07 177.722 192.819 177.469 192.653C177.216 192.486 176.915 192.413 176.617 192.447ZM176.98 194.674C176.04 194.504 175.661 192.889 176.419 192.804C178.446 192.685 177.968 194.844 176.98 194.674Z" fill="#00143B"/>
<g style="mix-blend-mode:multiply">
<path d="M192.746 157.144V130.5H220.302L222.421 159.258L247.434 163.91V205.356L240.227 207.048L251.249 210.431L238.531 224.387L245.738 229.885L261 221.85V235.383L227.509 237.075L163.07 224.387L160.95 197.321H168.581L166.037 159.258L192.746 157.144Z" fill="#57c2b4"/>
<path d="M192.746 157.144V130.5H220.302L222.421 159.258L247.434 163.91V205.356L240.227 207.048L251.249 210.431L238.531 224.387L245.738 229.885L261 221.85V235.383L227.509 237.075L163.07 224.387L160.95 197.321H168.581L166.037 159.258L192.746 157.144Z" stroke="#00143B"/>
</g>
</svg>
